<svg width="80" height="80" viewBox="0 0 80 80" fill="none" xmlns="http://www.w3.org/2000/svg">
<rect width="80" height="80" rx="40" fill="#EBF5FF"/>
<path fill-rule="evenodd" clip-rule="evenodd" d="M28 32C28 30.8954 28.8954 30 30 30H50C51.1046 30 52 30.8954 52 32C52 33.1046 51.1046 34 50 34H30C28.8954 34 28 33.1046 28 32ZM28 40C28 38.8954 28.8954 38 30 38H50C51.1046 38 52 38.8954 52 40C52 41.1046 51.1046 42 50 42H30C28.8954 42 28 41.1046 28 40ZM28 48C28 46.8954 28.8954 46 30 46H38C39.1046 46 40 46.8954 40 48C40 49.1046 39.1046 50 38 50H30C28.8954 50 28 49.1046 28 48Z" fill="#399CFF"/>
</svg>
