<svg width="36" height="36" viewBox="0 0 36 36" fill="none" xmlns="http://www.w3.org/2000/svg">
<rect width="36" height="36" rx="18" fill="#EBECEE"/>
<g clip-path="url(#clip0_9384_7272)">
<path d="M25.5928 14.269L18.2778 11.007C18.1007 10.9274 17.8983 10.9274 17.7203 11.007L10.4057 14.269C10.1669 14.3754 10.0092 14.6094 10.0004 14.8709C9.99183 15.1319 10.1316 15.3758 10.3625 15.4986L17.677 19.3995C17.7779 19.4536 17.8884 19.4801 17.9993 19.4801C18.1107 19.4801 18.2211 19.4536 18.3221 19.3995L25.637 15.4986C25.8677 15.3758 26.0076 15.1319 25.9992 14.8709C25.9892 14.6094 25.8319 14.3754 25.5928 14.269Z" fill="#374151"/>
<path d="M24.9922 17.1885L17.9993 20.9188L11.0076 17.1885C10.6729 17.0099 10.2584 17.1366 10.081 17.4707C9.90239 17.8046 10.0291 18.219 10.3629 18.3971L17.6774 22.299C17.7783 22.3528 17.8888 22.3796 17.9997 22.3796C18.1111 22.3796 18.2215 22.3531 18.3225 22.299L25.6374 18.3971C25.9704 18.219 26.097 17.8046 25.9194 17.4707C25.7406 17.1365 25.3259 17.0098 24.9922 17.1885Z" fill="#374151"/>
<path d="M24.9922 19.8643L17.9993 23.5934L11.0076 19.8643C10.6729 19.6856 10.2584 19.8124 10.081 20.146C9.90239 20.48 10.0291 20.8948 10.3629 21.0726L17.6774 24.9733C17.7783 25.0274 17.8888 25.0542 17.9997 25.0542C18.1111 25.0542 18.2215 25.0278 18.3225 24.9733L25.6374 21.0726C25.9704 20.8948 26.097 20.48 25.9194 20.146C25.7406 19.8124 25.3264 19.6855 24.9922 19.8643Z" fill="#374151"/>
</g>
<defs>
<clipPath id="clip0_9384_7272">
<rect width="16" height="16" fill="white" transform="translate(10 10)"/>
</clipPath>
</defs>
</svg>
