<svg width="36" height="36" viewBox="0 0 36 36" fill="none" xmlns="http://www.w3.org/2000/svg">
<rect width="36" height="36" rx="18" fill="#EBECEE"/>
<g clip-path="url(#clip0_9384_7579)">
<path d="M21.3359 11.9996C21.511 11.8245 21.7189 11.6856 21.9477 11.5908C22.1765 11.496 22.4216 11.4473 22.6693 11.4473C22.9169 11.4473 23.1621 11.496 23.3909 11.5908C23.6196 11.6856 23.8275 11.8245 24.0026 11.9996C24.1777 12.1746 24.3166 12.3825 24.4114 12.6113C24.5061 12.8401 24.5549 13.0853 24.5549 13.3329C24.5549 13.5805 24.5061 13.8257 24.4114 14.0545C24.3166 14.2833 24.1777 14.4911 24.0026 14.6662L15.0026 23.6662L11.3359 24.6662L12.3359 20.9996L21.3359 11.9996Z" fill="#374151" stroke="#374151" stroke-linecap="round" stroke-linejoin="round"/>
</g>
<defs>
<clipPath id="clip0_9384_7579">
<rect width="16" height="16" fill="white" transform="translate(10 10)"/>
</clipPath>
</defs>
</svg>
