<svg id="Group_19824" data-name="Group 19824" xmlns="http://www.w3.org/2000/svg" xmlns:xlink="http://www.w3.org/1999/xlink" width="14.855" height="15.916" viewBox="0 0 14.855 15.916">
  <defs>
    <clipPath id="clip-path">
      <rect id="Rectangle_13350" data-name="Rectangle 13350" width="14.855" height="15.916" fill="#2196f3"/>
    </clipPath>
  </defs>
  <g id="Group_19274" data-name="Group 19274" clip-path="url(#clip-path)">
    <path id="Path_9861" data-name="Path 9861" d="M13.471,0H2.445A1.385,1.385,0,0,0,1.061,1.384v.738H.531a.53.53,0,1,0,0,1.061h.531V7.427H.531a.53.53,0,1,0,0,1.061h.531v4.245H.531a.53.53,0,1,0,0,1.061h.531v.738a1.385,1.385,0,0,0,1.384,1.384H13.471a1.385,1.385,0,0,0,1.384-1.384V1.384A1.385,1.385,0,0,0,13.471,0m.323,14.532a.323.323,0,0,1-.323.323H2.445a.322.322,0,0,1-.323-.323v-.738h.531a.53.53,0,1,0,0-1.061H2.122V8.488h.531a.53.53,0,1,0,0-1.061H2.122V3.183h.531a.53.53,0,1,0,0-1.061H2.122V1.384a.323.323,0,0,1,.323-.323H13.471a.324.324,0,0,1,.323.323Z" fill="#2196f3"/>
    <path id="Path_9862" data-name="Path 9862" d="M11.3,8.366h2.475a.53.53,0,1,0,0-1.061H12.451V6.6a.53.53,0,0,0-1.061,0V7.3H11.3a1.768,1.768,0,0,0,0,3.536h1.238a.708.708,0,0,1,0,1.415H10.064a.53.53,0,1,0,0,1.061H11.39v.708a.53.53,0,1,0,1.061,0v-.708h.088a1.768,1.768,0,0,0,0-3.536H11.3a.708.708,0,0,1,0-1.415" transform="translate(-3.697 -2.353)" fill="#2196f3"/>
  </g>
</svg>
