<svg xmlns="http://www.w3.org/2000/svg" xmlns:xlink="http://www.w3.org/1999/xlink" width="65" height="58" viewBox="0 0 65 58">
  <defs>
    <clipPath id="clip-path">
      <rect id="Rectangle_13097" data-name="Rectangle 13097" width="65" height="58" transform="translate(-0.145 0.205)" fill="none"/>
    </clipPath>
  </defs>
  <g id="Group_20131" data-name="Group 20131" transform="translate(0.145 -0.205)">
    <g id="Group_18819" data-name="Group 18819">
      <g id="Group_18818" data-name="Group 18818" clip-path="url(#clip-path)">
        <path id="Path_9703" data-name="Path 9703" d="M6.9,11.759C6.9,24.637.23,33.48.23,39.686S3.8,58.923,32.343,58.923,65.078,41.391,65.078,34.565C65.08,2.605,6.9-11.047,6.9,11.759" transform="translate(-0.19 -0.352)" fill="#dbf1ff"/>
      </g>
    </g>
    <rect id="Rectangle_13098" data-name="Rectangle 13098" width="1.862" height="3.723" transform="translate(6.92 0.251)" fill="#dbf1ff"/>
    <rect id="Rectangle_13099" data-name="Rectangle 13099" width="3.723" height="1.862" transform="translate(0.87 5.836)" fill="#dbf1ff"/>
    <g id="Group_18821" data-name="Group 18821">
      <g id="Group_18820" data-name="Group 18820" clip-path="url(#clip-path)">
        <path id="Path_9704" data-name="Path 9704" d="M84.742,45.332A15.818,15.818,0,0,1,97.691,70.246a14.886,14.886,0,0,0-2.709,8.549v9.358H78.226V80.705l-5.7,1.732a2.445,2.445,0,0,1-.819.13,2.789,2.789,0,0,1-2.793-2.793V73.258H64.263a.922.922,0,0,1-.931-.931.932.932,0,0,1,.149-.5l4.349-6.9a7.034,7.034,0,0,0,1.087-3.761v-.005A15.836,15.836,0,0,1,84.742,45.332" transform="translate(-52.278 -37.42)" fill="#f3f3f1"/>
        <path id="Path_9705" data-name="Path 9705" d="M209.825,55.912A7.913,7.913,0,1,1,201.912,48a7.913,7.913,0,0,1,7.913,7.912" transform="translate(-160.14 -39.622)" fill="#0db1e5"/>
        <path id="Path_9706" data-name="Path 9706" d="M198.189,55.912a7.89,7.89,0,0,1,5.818-7.6A7.8,7.8,0,0,0,201.912,48a7.913,7.913,0,0,0,0,15.825,7.768,7.768,0,0,0,2.094-.317,7.889,7.889,0,0,1-5.818-7.6" transform="translate(-160.14 -39.622)" fill="#0493bf"/>
        <path id="Path_9707" data-name="Path 9707" d="M99.521,211.849v-6.517H95.332v6.517a2.789,2.789,0,0,0,2.793,2.793,2.445,2.445,0,0,0,.819-.13l1.627-.5a2.767,2.767,0,0,1-1.05-2.167" transform="translate(-78.693 -169.494)" fill="#d5dbe1"/>
        <path id="Path_9708" data-name="Path 9708" d="M67.521,72.327a.932.932,0,0,1,.149-.5l4.349-6.9a7.034,7.034,0,0,0,1.087-3.761v-.005a15.829,15.829,0,0,1,13.731-15.67,15.717,15.717,0,0,0-17.919,15.67v.005a7.082,7.082,0,0,1-1.087,3.761l-4.349,6.9a.932.932,0,0,0-.149.5.922.922,0,0,0,.931.931h4.189a.922.922,0,0,1-.931-.931" transform="translate(-52.278 -37.42)" fill="#d5dbe1"/>
        <path id="Path_9709" data-name="Path 9709" d="M148.668,249.274v6.174h4.189V248Z" transform="translate(-122.72 -204.714)" fill="#d5dbe1"/>
        <path id="Path_9710" data-name="Path 9710" d="M90.264,85.069H73.918a1.4,1.4,0,0,1-1.4-1.4V78.281l-3.744,1.141a3.676,3.676,0,0,1-1.208.194,4.138,4.138,0,0,1-4.133-4.135V70.492H60.309a2.3,2.3,0,0,1-1.949-3.53L62.607,60.2a5.5,5.5,0,0,0,.842-2.726,1.806,1.806,0,0,1-.013-.2,16.847,16.847,0,0,1,15.1-16.8l.29,2.778a14.062,14.062,0,0,0-12.6,13.812,1.342,1.342,0,0,1,.017.212,8.28,8.28,0,0,1-1.274,4.411L61.193,67.7h3.64a1.4,1.4,0,0,1,1.4,1.4v6.386a1.344,1.344,0,0,0,1.341,1.342,1.074,1.074,0,0,0,.337-.05l5.606-1.713a1.4,1.4,0,0,1,1.8,1.335v5.883H88.87V74.513a15.933,15.933,0,0,1,2.876-9.158A13.13,13.13,0,0,0,93.4,62.183l2.628.94a15.966,15.966,0,0,1-2,3.835,13.17,13.17,0,0,0-2.368,7.555v9.16a1.4,1.4,0,0,1-1.4,1.4" transform="translate(-47.877 -33.406)" fill="#003e61"/>
        <path id="Path_9711" data-name="Path 9711" d="M195.308,58.618a9.309,9.309,0,1,1,9.309-9.309,9.319,9.319,0,0,1-9.309,9.309m0-15.825a6.516,6.516,0,1,0,6.517,6.516,6.523,6.523,0,0,0-6.517-6.516" transform="translate(-153.536 -33.018)" fill="#003e61"/>
        <rect id="Rectangle_13100" data-name="Rectangle 13100" width="2.792" height="10.869" transform="translate(45.715 22.221) rotate(-44.997)" fill="#003e61"/>
      </g>
    </g>
  </g>
</svg>
