<svg xmlns="http://www.w3.org/2000/svg" xmlns:xlink="http://www.w3.org/1999/xlink" width="28" height="26" viewBox="0 0 28 26">
  <defs>
    <clipPath id="clip-path">
      <rect id="Rectangle_13821" data-name="Rectangle 13821" width="28" height="26" fill="#cfcfcf"/>
    </clipPath>
  </defs>
  <g id="Group_20142" data-name="Group 20142" transform="translate(0 0)">
    <g id="Group_20139" data-name="Group 20139" transform="translate(0 0)">
      <g id="Group_20138" data-name="Group 20138" clip-path="url(#clip-path)">
        <path id="Path_10363" data-name="Path 10363" d="M83.842,16.591h7.133l-1.561,3.9a3.059,3.059,0,0,0,.675,3.3,2.32,2.32,0,0,0,3.526-.291l4.171-5.836a19.664,19.664,0,0,1,2.07-2.444l1.336-1.336a.654.654,0,0,0,.192-.463V3.383a.657.657,0,0,0-.192-.464l-1.5-1.5a4.089,4.089,0,0,0-2.909-1.2H88.654a3.324,3.324,0,0,0-3.034,1.972l-3.989,8.975a4.445,4.445,0,0,0-.385,1.819v1.017a2.6,2.6,0,0,0,2.6,2.6" transform="translate(-80.742 0.653)" fill="#cfcfcf"/>
      </g>
    </g>
    <g id="Group_20141" data-name="Group 20141" transform="translate(0 0)">
      <g id="Group_20140" data-name="Group 20140" clip-path="url(#clip-path)">
        <path id="Path_10364" data-name="Path 10364" d="M2.357,128.892a2.358,2.358,0,0,0,2.358-2.358V117.67a2.357,2.357,0,1,0-4.715,0v8.865a2.357,2.357,0,0,0,2.357,2.358" transform="translate(22.78 -113.473)" fill="#cfcfcf"/>
      </g>
    </g>
  </g>
</svg>
