<svg xmlns="http://www.w3.org/2000/svg" xmlns:xlink="http://www.w3.org/1999/xlink" width="28" height="26" viewBox="0 0 28 26">
  <defs>
    <clipPath id="clip-path">
      <rect id="Rectangle_13819" data-name="Rectangle 13819" width="28" height="26" transform="translate(0.147 0.059)" fill="#cfcfcf"/>
    </clipPath>
  </defs>
  <g id="Group_20137" data-name="Group 20137" transform="translate(0.463 0.8)">
    <g id="Group_20134" data-name="Group 20134" transform="translate(-0.61 -0.859)">
      <g id="Group_20133" data-name="Group 20133" transform="translate(0 0)" clip-path="url(#clip-path)">
        <path id="Path_10361" data-name="Path 10361" d="M98.789,8.094H91.656l1.561-3.9a3.059,3.059,0,0,0-.675-3.3,2.32,2.32,0,0,0-3.526.291L84.845,7.017a19.664,19.664,0,0,1-2.07,2.444L81.439,10.8a.654.654,0,0,0-.192.463V21.3a.657.657,0,0,0,.192.464l1.5,1.5a4.089,4.089,0,0,0,2.909,1.2h8.132A3.324,3.324,0,0,0,97.01,22.5L101,13.527a4.445,4.445,0,0,0,.385-1.819V10.691a2.6,2.6,0,0,0-2.6-2.6" transform="translate(-73.742 0.72)" fill="#cfcfcf"/>
      </g>
    </g>
    <g id="Group_20136" data-name="Group 20136" transform="translate(-0.61 -0.859)">
      <g id="Group_20135" data-name="Group 20135" transform="translate(0 0)" clip-path="url(#clip-path)">
        <path id="Path_10362" data-name="Path 10362" d="M2.358,115.312A2.358,2.358,0,0,0,0,117.67v8.865a2.357,2.357,0,1,0,4.715,0V117.67a2.357,2.357,0,0,0-2.357-2.358" transform="translate(0.652 -104.673)" fill="#cfcfcf"/>
      </g>
    </g>
  </g>
</svg>
