<svg xmlns="http://www.w3.org/2000/svg" xmlns:xlink="http://www.w3.org/1999/xlink" width="61" height="55" viewBox="0 0 61 55">
  <defs>
    <clipPath id="clip-path">
      <rect id="Rectangle_13674" data-name="Rectangle 13674" width="61" height="55" transform="translate(0)" fill="none"/>
    </clipPath>
  </defs>
  <g id="Group_19784" data-name="Group 19784" transform="translate(0.182 0.487)">
    <g id="Group_19785" data-name="Group 19785" transform="translate(-0.182 -0.487)">
      <g id="Group_19784-2" data-name="Group 19784" clip-path="url(#clip-path)">
        <path id="Path_10194" data-name="Path 10194" d="M54.023,44.043c0-11.909,6.169-20.087,6.169-25.826S56.893.426,30.494.426.219,16.639.219,22.952c0,29.557,53.8,42.182,53.8,21.091" transform="translate(0.046 0.257)" fill="#dbf1ff"/>
      </g>
    </g>
    <rect id="Rectangle_13675" data-name="Rectangle 13675" width="3.443" height="1.722" transform="matrix(0.707, -0.707, 0.707, 0.707, 16.246, 5.414)" fill="#b5e2ff"/>
    <rect id="Rectangle_13676" data-name="Rectangle 13676" width="3.443" height="1.722" transform="translate(9.245 12.413) rotate(-45)" fill="#b5e2ff"/>
    <rect id="Rectangle_13677" data-name="Rectangle 13677" width="1.722" height="3.443" transform="matrix(0.707, -0.707, 0.707, 0.707, 9.55, 4.197)" fill="#b5e2ff"/>
    <g id="Group_19787" data-name="Group 19787" transform="translate(-0.182 -0.487)">
      <g id="Group_19786" data-name="Group 19786" clip-path="url(#clip-path)">
        <path id="Path_10195" data-name="Path 10195" d="M262.3,178.152A2.152,2.152,0,1,1,260.152,176a2.153,2.153,0,0,1,2.153,2.152" transform="translate(-216.126 -146.977)" fill="#f3f3f1"/>
        <path id="Path_10196" data-name="Path 10196" d="M91.637,178.152A2.152,2.152,0,1,1,89.485,176a2.153,2.153,0,0,1,2.152,2.152" transform="translate(-73.006 -146.977)" fill="#f3f3f1"/>
        <path id="Path_10197" data-name="Path 10197" d="M169.748,163.874A3.874,3.874,0,1,1,165.874,160a3.874,3.874,0,0,1,3.874,3.874" transform="translate(-135.621 -133.56)" fill="#f3f3f1"/>
        <path id="Path_10198" data-name="Path 10198" d="M151.689,247.317v-3.874A3.443,3.443,0,0,0,148.245,240h-9.469a3.443,3.443,0,0,0-3.444,3.443v3.874Z" transform="translate(-113.258 -200.647)" fill="#f3f3f1"/>
        <path id="Path_10199" data-name="Path 10199" d="M247.859,234.928v-2.152a3.443,3.443,0,0,0-3.443-3.444h-4.3a3.443,3.443,0,0,0-3.443,3.444v2.152Z" transform="translate(-198.237 -191.701)" fill="#f3f3f1"/>
        <path id="Path_10200" data-name="Path 10200" d="M77.191,234.928v-2.152a3.443,3.443,0,0,0-3.443-3.444h-4.3A3.443,3.443,0,0,0,66,232.776v2.152Z" transform="translate(-55.117 -191.701)" fill="#f3f3f1"/>
        <path id="Path_10201" data-name="Path 10201" d="M142.016,69.859l-1.348-7.175,3.948,1.753,3.369-5.769,3.369,5.769,3.948-1.753-1.348,7.175Z" transform="translate(-117.732 -48.584)" fill="#0db1e5"/>
        <path id="Path_10202" data-name="Path 10202" d="M261.874,178.152a2.11,2.11,0,0,1,.215-.905,2.152,2.152,0,1,0,0,1.811,2.111,2.111,0,0,1-.215-.906" transform="translate(-216.126 -146.977)" fill="#d5dbe1"/>
        <path id="Path_10203" data-name="Path 10203" d="M91.206,178.152a2.1,2.1,0,0,1,.216-.905,2.152,2.152,0,1,0,0,1.811,2.1,2.1,0,0,1-.216-.906" transform="translate(-73.006 -146.977)" fill="#d5dbe1"/>
        <path id="Path_10204" data-name="Path 10204" d="M165.874,163.874a3.856,3.856,0,0,1,1.937-3.337,3.874,3.874,0,1,0,0,6.673,3.856,3.856,0,0,1-1.937-3.337" transform="translate(-135.621 -133.56)" fill="#d5dbe1"/>
        <path id="Path_10205" data-name="Path 10205" d="M142.65,240h-3.874a3.443,3.443,0,0,0-3.444,3.443v3.874h3.874v-3.874A3.443,3.443,0,0,1,142.65,240" transform="translate(-113.258 -200.647)" fill="#d5dbe1"/>
        <path id="Path_10206" data-name="Path 10206" d="M243.985,229.332h-3.874a3.443,3.443,0,0,0-3.443,3.444v2.152h3.874v-2.152a3.443,3.443,0,0,1,3.443-3.444" transform="translate(-198.237 -191.701)" fill="#d5dbe1"/>
        <path id="Path_10207" data-name="Path 10207" d="M73.317,229.332H69.443A3.443,3.443,0,0,0,66,232.776v2.152h3.874v-2.152a3.443,3.443,0,0,1,3.443-3.444" transform="translate(-55.117 -191.701)" fill="#d5dbe1"/>
        <path id="Path_10208" data-name="Path 10208" d="M144.618,85.3l-3.95-1.753,1.348,7.175h3.874l-1.081-5.75Z" transform="translate(-117.733 -69.451)" fill="#0493bf"/>
        <path id="Path_10209" data-name="Path 10209" d="M253.443,174.887a3.444,3.444,0,1,1,3.444-3.444,3.447,3.447,0,0,1-3.444,3.444m0-4.3a.861.861,0,1,0,.861.861.861.861,0,0,0-.861-.861" transform="translate(-209.417 -140.269)" fill="#003e61"/>
        <path id="Path_10210" data-name="Path 10210" d="M260.33,228.219h-2.583v-2.152a2.155,2.155,0,0,0-2.152-2.153H250v-2.583h5.6a4.739,4.739,0,0,1,4.735,4.735Z" transform="translate(-209.417 -184.992)" fill="#003e61"/>
        <path id="Path_10211" data-name="Path 10211" d="M82.776,174.887a3.444,3.444,0,1,1,3.443-3.444,3.448,3.448,0,0,1-3.443,3.444m0-4.3a.861.861,0,1,0,.861.861.862.862,0,0,0-.861-.861" transform="translate(-66.297 -140.269)" fill="#003e61"/>
        <path id="Path_10212" data-name="Path 10212" d="M60.583,228.219H58v-2.152a4.739,4.739,0,0,1,4.735-4.735h5.6v2.583h-5.6a2.155,2.155,0,0,0-2.152,2.153Z" transform="translate(-48.408 -184.992)" fill="#003e61"/>
        <path id="Path_10213" data-name="Path 10213" d="M159.165,162.33a5.165,5.165,0,1,1,5.165-5.165,5.171,5.171,0,0,1-5.165,5.165m0-7.748a2.583,2.583,0,1,0,2.583,2.583,2.586,2.586,0,0,0-2.583-2.583" transform="translate(-128.913 -126.851)" fill="#003e61"/>
        <path id="Path_10214" data-name="Path 10214" d="M146.271,240.608h-2.583v-3.874a2.155,2.155,0,0,0-2.153-2.152h-9.469a2.155,2.155,0,0,0-2.153,2.152v3.874h-2.583v-3.874A4.739,4.739,0,0,1,132.067,232h9.469a4.739,4.739,0,0,1,4.735,4.735Z" transform="translate(-106.549 -193.938)" fill="#003e61"/>
        <path id="Path_10215" data-name="Path 10215" d="M147.237,64.684H135.3a1.291,1.291,0,0,1-1.269-1.052l-1.349-7.175a1.292,1.292,0,0,1,1.794-1.419l2.892,1.284,2.786-4.771a1.342,1.342,0,0,1,2.231,0l2.786,4.771,2.892-1.284a1.292,1.292,0,0,1,1.794,1.419l-1.349,7.175a1.293,1.293,0,0,1-1.27,1.052M136.369,62.1h9.8l.7-3.7-1.7.755a1.29,1.29,0,0,1-1.639-.53l-2.252-3.858-2.253,3.86a1.294,1.294,0,0,1-1.639.53l-1.7-.756Z" transform="translate(-111.015 -42.117)" fill="#003e61"/>
        <rect id="Rectangle_13678" data-name="Rectangle 13678" width="55.096" height="2.583" transform="translate(2.705 44.088)"/>
      </g>
    </g>
  </g>
</svg>
