<svg xmlns="http://www.w3.org/2000/svg" xmlns:xlink="http://www.w3.org/1999/xlink" width="51" height="45" viewBox="0 0 51 45">
  <defs>
    <clipPath id="clip-path">
      <rect id="Rectangle_14414" data-name="Rectangle 14414" width="51" height="45" transform="translate(0)" fill="none"/>
    </clipPath>
  </defs>
  <g id="Group_30561" data-name="Group 30561" transform="translate(0.146 -0.205)">
    <g id="Group_30558" data-name="Group 30558" transform="translate(-0.145 0.205)">
      <g id="Group_30557" data-name="Group 30557" clip-path="url(#clip-path)">
        <path id="Path_15479" data-name="Path 15479" d="M5.45,9.3c0,10.078-5.22,17-5.22,21.854S3.022,46.2,25.36,46.2s25.617-13.72,25.617-19.061C50.979,2.131,5.45-8.552,5.45,9.3" transform="translate(-0.085 -0.529)" fill="#dbf1ff"/>
      </g>
    </g>
    <rect id="Rectangle_14415" data-name="Rectangle 14415" width="1.457" height="2.914" transform="translate(5.384 0.241)" fill="#dbf1ff"/>
    <rect id="Rectangle_14416" data-name="Rectangle 14416" width="2.914" height="1.457" transform="translate(0.649 4.612)" fill="#dbf1ff"/>
    <g id="Group_30560" data-name="Group 30560" transform="translate(-0.145 0.205)">
      <g id="Group_30559" data-name="Group 30559" clip-path="url(#clip-path)">
        <path id="Path_15480" data-name="Path 15480" d="M80.087,45.332a12.379,12.379,0,0,1,10.133,19.5,11.649,11.649,0,0,0-2.12,6.69v7.323H74.988V73.014l-4.458,1.355a1.913,1.913,0,0,1-.641.1A2.183,2.183,0,0,1,67.7,72.285v-5.1H64.061a.721.721,0,0,1-.729-.728.729.729,0,0,1,.117-.393l3.4-5.4A5.5,5.5,0,0,0,67.7,57.72v0A12.392,12.392,0,0,1,80.087,45.332" transform="translate(-54.568 -39.301)" fill="#f3f3f1"/>
        <path id="Path_15481" data-name="Path 15481" d="M206.384,54.192A6.192,6.192,0,1,1,200.192,48a6.192,6.192,0,0,1,6.192,6.192" transform="translate(-167.389 -41.604)" fill="#0db1e5"/>
        <path id="Path_15482" data-name="Path 15482" d="M197.278,54.192a6.174,6.174,0,0,1,4.553-5.944A6.1,6.1,0,0,0,200.192,48a6.192,6.192,0,0,0,0,12.384,6.079,6.079,0,0,0,1.639-.248,6.173,6.173,0,0,1-4.553-5.944" transform="translate(-167.389 -41.604)" fill="#0493bf"/>
        <path id="Path_15483" data-name="Path 15483" d="M98.61,210.432v-5.1H95.332v5.1a2.183,2.183,0,0,0,2.185,2.185,1.913,1.913,0,0,0,.641-.1l1.273-.388a2.165,2.165,0,0,1-.822-1.7" transform="translate(-82.197 -177.447)" fill="#d5dbe1"/>
        <path id="Path_15484" data-name="Path 15484" d="M66.61,66.457a.729.729,0,0,1,.117-.393l3.4-5.4a5.5,5.5,0,0,0,.851-2.943v0A12.387,12.387,0,0,1,81.726,45.453,12.3,12.3,0,0,0,67.7,57.716v0a5.542,5.542,0,0,1-.851,2.943l-3.4,5.4a.729.729,0,0,0-.117.393.721.721,0,0,0,.729.728h3.278a.721.721,0,0,1-.729-.728" transform="translate(-54.568 -39.301)" fill="#d5dbe1"/>
        <path id="Path_15485" data-name="Path 15485" d="M148.668,249v4.831h3.278V248Z" transform="translate(-128.248 -214.287)" fill="#d5dbe1"/>
        <path id="Path_15486" data-name="Path 15486" d="M83.248,75.371H70.457a1.093,1.093,0,0,1-1.093-1.093V70.059l-2.93.893a2.877,2.877,0,0,1-.945.152,3.239,3.239,0,0,1-3.234-3.236v-3.9H59.807A1.8,1.8,0,0,1,58.281,61.2l3.324-5.292a4.307,4.307,0,0,0,.659-2.133,1.413,1.413,0,0,1-.01-.157,13.184,13.184,0,0,1,11.818-13.15l.227,2.174a11,11,0,0,0-9.86,10.809,1.05,1.05,0,0,1,.013.166,6.48,6.48,0,0,1-1,3.452L60.5,61.776h2.849a1.093,1.093,0,0,1,1.093,1.093v5a1.052,1.052,0,0,0,1.049,1.05.84.84,0,0,0,.263-.039l4.387-1.34a1.092,1.092,0,0,1,1.412,1.045v4.6H82.157V67.11a12.469,12.469,0,0,1,2.251-7.167,10.275,10.275,0,0,0,1.3-2.483l2.057.736a12.494,12.494,0,0,1-1.563,3,10.306,10.306,0,0,0-1.853,5.912v7.168a1.1,1.1,0,0,1-1.1,1.093" transform="translate(-49.964 -35.102)" fill="#003e61"/>
        <path id="Path_15487" data-name="Path 15487" d="M193.284,54.569a7.285,7.285,0,1,1,7.285-7.285,7.293,7.293,0,0,1-7.285,7.285m0-12.384a5.1,5.1,0,1,0,5.1,5.1,5.1,5.1,0,0,0-5.1-5.1" transform="translate(-160.481 -34.697)" fill="#003e61"/>
        <rect id="Rectangle_14417" data-name="Rectangle 14417" width="2.185" height="8.506" transform="translate(35.888 17.228) rotate(-44.997)" fill="#003e61"/>
      </g>
    </g>
  </g>
</svg>
