<svg xmlns="http://www.w3.org/2000/svg" xmlns:xlink="http://www.w3.org/1999/xlink" width="53.013" height="52" viewBox="0 0 53.013 52">
  <defs>
    <clipPath id="clip-path">
      <rect id="Rectangle_14380" data-name="Rectangle 14380" width="52" height="52" transform="translate(0.342 0.349)" fill="#dbf1ff"/>
    </clipPath>
  </defs>
  <g id="Group_30452" data-name="Group 30452" transform="translate(-495 -198.277)">
    <g id="Group_30453" data-name="Group 30453" transform="translate(495.187 197.928)">
      <g id="Group_30452-2" data-name="Group 30452" transform="translate(0 0)" clip-path="url(#clip-path)">
        <path id="Path_15444" data-name="Path 15444" d="M528.592,203.625c10.415,0,17.566-5.395,22.584-5.395s15.558,2.885,15.558,25.971-14.179,26.473-19.7,26.473c-25.847,0-36.888-47.049-18.444-47.049Zm0,0" transform="translate(-516.166 -198.102)" fill="#dbf1ff"/>
      </g>
    </g>
    <path id="Path_15445" data-name="Path 15445" d="M840.832,360.966a2.258,2.258,0,1,1,2.258-2.258,2.261,2.261,0,0,1-2.258,2.258Zm0-3.012a.753.753,0,1,0,.753.753.756.756,0,0,0-.753-.753Zm0,0" transform="translate(-295.078 -136.061)" fill="#aedfff"/>
    <rect id="Rectangle_14381" data-name="Rectangle 14381" width="1.506" height="3.011" transform="translate(500.27 201.505)" fill="#aedfff"/>
    <rect id="Rectangle_14382" data-name="Rectangle 14382" width="1.506" height="3.011" transform="translate(500.27 210.162)" fill="#aedfff"/>
    <rect id="Rectangle_14383" data-name="Rectangle 14383" width="3.011" height="1.506" transform="translate(495 206.398)" fill="#aedfff"/>
    <rect id="Rectangle_14384" data-name="Rectangle 14384" width="3.012" height="1.506" transform="translate(503.657 206.398)" fill="#aedfff"/>
    <path id="Path_15446" data-name="Path 15446" d="M600.877,311.056v6.775a3.01,3.01,0,0,1-3.011,3.011H570.011A3.01,3.01,0,0,1,567,317.832V299.011A3.01,3.01,0,0,1,570.011,296h7.9l3.012,3.011h19.949Zm0,0" transform="translate(-61.837 -84.144)" fill="#f3f3f1"/>
    <path id="Path_15447" data-name="Path 15447" d="M570.011,317.832V299.011A3.011,3.011,0,0,1,573.023,296h-3.012A3.01,3.01,0,0,0,567,299.011v18.821a3.01,3.01,0,0,0,3.011,3.011h3.012a3.011,3.011,0,0,1-3.012-3.011Zm0,0" transform="translate(-61.837 -84.144)" fill="#d5dbe1"/>
    <path id="Path_15448" data-name="Path 15448" d="M717.445,273.786l-1.113-6.524,3.616,1.772L722.731,264l2.782,5.035,3.616-1.772-1.113,6.524Zm0,0" transform="translate(-190.09 -56.661)" fill="#0db1e5"/>
    <path id="Path_15449" data-name="Path 15449" d="M716.332,287.113l1.113,6.524h3.012l-.839-4.914Zm0,0" transform="translate(-190.09 -76.512)" fill="#0493bf"/>
    <path id="Path_15450" data-name="Path 15450" d="M721.157,268.3H710.586a1.129,1.129,0,0,1-1.113-.94l-1.113-6.524a1.129,1.129,0,0,1,1.609-1.2l2.652,1.3,2.263-4.093a1.172,1.172,0,0,1,1.976,0l2.263,4.093,2.652-1.3a1.129,1.129,0,0,1,1.609,1.2l-1.113,6.524a1.133,1.133,0,0,1-1.114.94Zm-9.619-2.258H720.2l.582-3.41-1.637.8a1.126,1.126,0,0,1-1.484-.47l-1.795-3.243-1.794,3.245a1.127,1.127,0,0,1-1.484.47l-1.636-.8Zm0,0" transform="translate(-183.23 -50.045)" fill="#003e61"/>
    <path id="Path_15451" data-name="Path 15451" d="M590.995,315.1H563.14a4.144,4.144,0,0,1-4.14-4.14V292.14a4.144,4.144,0,0,1,4.14-4.14h7.9a1.125,1.125,0,0,1,.8.331l2.68,2.68h2.919v2.258h-3.386a1.125,1.125,0,0,1-.8-.331l-2.68-2.68H563.14a1.885,1.885,0,0,0-1.882,1.882v18.821a1.885,1.885,0,0,0,1.882,1.882h27.854a1.885,1.885,0,0,0,1.882-1.882V299.669h2.259v11.292a4.144,4.144,0,0,1-4.14,4.14Zm0,0" transform="translate(-54.966 -77.273)" fill="#003e61"/>
  </g>
</svg>
