<svg xmlns="http://www.w3.org/2000/svg" xmlns:xlink="http://www.w3.org/1999/xlink" width="40" height="46" viewBox="0 0 40 46">
  <defs>
    <clipPath id="clip-path">
      <rect id="Rectangle_14409" data-name="Rectangle 14409" width="40" height="46" transform="translate(-0.037 -0.432)" fill="none"/>
    </clipPath>
  </defs>
  <g id="Group_30556" data-name="Group 30556" transform="translate(-0.026 0.898)">
    <g id="Group_30553" data-name="Group 30553" transform="translate(0.063 -0.466)">
      <g id="Group_30552" data-name="Group 30552" clip-path="url(#clip-path)">
        <path id="Path_15469" data-name="Path 15469" d="M32.791,4.716C24,4.88,17.88.439,13.644.519S.558,3.2.923,22.685,13.307,44.806,17.967,44.72c21.814-.408,30.391-40.294,14.824-40" transform="translate(-0.858 -0.052)" fill="#dbf1ff"/>
      </g>
    </g>
    <rect id="Rectangle_14410" data-name="Rectangle 14410" width="2.542" height="1.271" transform="matrix(0.707, -0.707, 0.707, 0.707, 10.27, 3.782)" fill="#aedfff"/>
    <rect id="Rectangle_14411" data-name="Rectangle 14411" width="2.542" height="1.27" transform="translate(5.103 8.949) rotate(-45)" fill="#aedfff"/>
    <rect id="Rectangle_14412" data-name="Rectangle 14412" width="1.271" height="2.542" transform="translate(5.105 2.66) rotate(-44.985)" fill="#aedfff"/>
    <g id="Group_30555" data-name="Group 30555" transform="translate(0.063 -0.466)">
      <g id="Group_30554" data-name="Group 30554" clip-path="url(#clip-path)">
        <path id="Path_15470" data-name="Path 15470" d="M273.906,56.481a1.906,1.906,0,1,1,1.906-1.907,1.909,1.909,0,0,1-1.906,1.907m0-2.542a.636.636,0,1,0,.635.636.637.637,0,0,0-.635-.636" transform="translate(-239.644 -45.988)" fill="#aedfff"/>
        <path id="Path_15471" data-name="Path 15471" d="M63.431,67.377l2.5-1.138a2.755,2.755,0,0,1,3.719,1.54l.966,2.574a2.755,2.755,0,0,0,1.612,1.611l2.573.966a2.755,2.755,0,0,1,1.541,3.719l-1.138,2.5a2.753,2.753,0,0,0,0,2.279l1.138,2.5A2.755,2.755,0,0,1,74.8,87.653l-2.573.966a2.757,2.757,0,0,0-1.612,1.612L69.652,92.8a2.755,2.755,0,0,1-3.719,1.541l-2.5-1.138a2.754,2.754,0,0,0-2.279,0l-2.5,1.138A2.755,2.755,0,0,1,54.931,92.8l-.966-2.574a2.755,2.755,0,0,0-1.611-1.612l-2.574-.966a2.755,2.755,0,0,1-1.54-3.719l1.138-2.5a2.754,2.754,0,0,0,0-2.279l-1.138-2.5a2.755,2.755,0,0,1,1.54-3.719l2.574-.966a2.754,2.754,0,0,0,1.611-1.611l.966-2.574a2.755,2.755,0,0,1,3.719-1.54l2.5,1.138a2.753,2.753,0,0,0,2.279,0" transform="translate(-42.327 -57.724)" fill="#0db1e5"/>
        <path id="Path_15472" data-name="Path 15472" d="M102.714,142.074l-1.382-8.049,4.491,2.187L109.276,130l3.453,6.212,4.491-2.187-1.382,8.049Z" transform="translate(-89.313 -114.105)" fill="#f3f3f1"/>
        <path id="Path_15473" data-name="Path 15473" d="M101.332,163.781l1.382,8.049h2.542l-1.15-6.7Z" transform="translate(-89.312 -143.861)" fill="#d5dbe1"/>
        <path id="Path_15474" data-name="Path 15474" d="M178.8,67.415a2.753,2.753,0,0,0,2.279,0l2.351-1.069a2.735,2.735,0,0,0-2.391-.069l-2.37,1.078Z" transform="translate(-157.433 -57.762)" fill="#00b871"/>
        <path id="Path_15475" data-name="Path 15475" d="M57.473,92.781l-.966-2.574A2.757,2.757,0,0,0,54.9,88.6l-2.574-.966a2.755,2.755,0,0,1-1.541-3.719l1.136-2.5a2.751,2.751,0,0,0,0-2.279l-1.136-2.5a2.755,2.755,0,0,1,1.541-3.719l2.574-.966a2.756,2.756,0,0,0,1.612-1.612l.966-2.573A2.729,2.729,0,0,1,58.8,66.285l-.151-.069a2.755,2.755,0,0,0-3.719,1.541l-.966,2.573a2.754,2.754,0,0,1-1.611,1.612l-2.574.966a2.755,2.755,0,0,0-1.54,3.719l1.136,2.5a2.753,2.753,0,0,1,0,2.279l-1.136,2.5a2.755,2.755,0,0,0,1.54,3.719l2.574.966a2.754,2.754,0,0,1,1.611,1.611l.966,2.574a2.755,2.755,0,0,0,3.719,1.541l.151-.069a2.729,2.729,0,0,1-1.328-1.472" transform="translate(-42.328 -57.704)" fill="#0493bf"/>
        <path id="Path_15476" data-name="Path 15476" d="M181.079,292.558a2.753,2.753,0,0,0-2.279,0l-.132.06,2.37,1.077a2.736,2.736,0,0,0,2.391-.069Z" transform="translate(-157.433 -257.077)" fill="#00b871"/>
        <path id="Path_15477" data-name="Path 15477" d="M50.488,88.518a3.7,3.7,0,0,1-3.471-2.4l-.966-2.573A1.8,1.8,0,0,0,45,82.488l-2.574-.966a3.706,3.706,0,0,1-2.072-5.005l1.138-2.5a1.8,1.8,0,0,0,0-1.489l-1.138-2.5a3.7,3.7,0,0,1,2.073-5.005L45,64.05A1.8,1.8,0,0,0,46.052,63l.966-2.573a3.706,3.706,0,0,1,5.005-2.073l2.5,1.136a1.8,1.8,0,0,0,1.489,0h0l2.5-1.136a3.706,3.706,0,0,1,5,2.073L64.489,63a1.8,1.8,0,0,0,1.054,1.053l2.574.966a3.706,3.706,0,0,1,2.072,5.005l-1.138,2.5a1.8,1.8,0,0,0,0,1.489l1.138,2.5a3.7,3.7,0,0,1-2.073,5.005l-2.572.966a1.8,1.8,0,0,0-1.055,1.053l-.966,2.573a3.706,3.706,0,0,1-5.005,2.073l-2.5-1.138a1.814,1.814,0,0,0-1.491,0l-2.5,1.138a3.7,3.7,0,0,1-1.534.332m0-28.6a1.809,1.809,0,0,0-.689.137,1.784,1.784,0,0,0-1,1.032l-.966,2.573a3.7,3.7,0,0,1-2.169,2.169l-2.573.966a1.8,1.8,0,0,0-1.008,2.432l1.138,2.5a3.7,3.7,0,0,1,0,3.068l-1.138,2.5a1.8,1.8,0,0,0,1.008,2.432l2.574.966a3.709,3.709,0,0,1,2.169,2.168l.966,2.573a1.8,1.8,0,0,0,2.431,1.007l2.5-1.138a3.69,3.69,0,0,1,3.067,0l2.5,1.138a1.8,1.8,0,0,0,2.432-1.007L62.7,82.87a3.706,3.706,0,0,1,2.17-2.168l2.573-.966A1.8,1.8,0,0,0,68.455,77.3l-1.138-2.5a3.7,3.7,0,0,1,0-3.068l1.138-2.5A1.8,1.8,0,0,0,67.447,66.8l-2.574-.966A3.709,3.709,0,0,1,62.7,63.665l-.966-2.573a1.8,1.8,0,0,0-2.431-1.006l-2.5,1.136a3.685,3.685,0,0,1-3.068,0l-2.5-1.136a1.8,1.8,0,0,0-.746-.163" transform="translate(-35.306 -50.702)" fill="#003e61"/>
        <path id="Path_15478" data-name="Path 15478" d="M108.795,136.237H95.671a.953.953,0,0,1-.939-.792L93.35,127.4a.953.953,0,0,1,1.358-1.018l3.678,1.791,3.015-5.424a.991.991,0,0,1,1.666,0l1.271,2.287-1.668.926-.437-.787-2.621,4.713a.95.95,0,0,1-1.251.394l-2.817-1.373.93,5.426h11.518l.93-5.426-2.817,1.373a.949.949,0,0,1-1.251-.394l-1.34-2.41,1.667-.927.9,1.619,3.678-1.791a.953.953,0,0,1,1.357,1.018l-1.381,8.049a.956.956,0,0,1-.941.793" transform="translate(-82.269 -107.315)"/>
      </g>
    </g>
  </g>
</svg>
