<svg width="40" height="40" viewBox="0 0 40 40" fill="none" xmlns="http://www.w3.org/2000/svg">
<path d="M33.3333 15H18.3333C16.4924 15 15 16.4924 15 18.3333V33.3333C15 35.1743 16.4924 36.6667 18.3333 36.6667H33.3333C35.1743 36.6667 36.6667 35.1743 36.6667 33.3333V18.3333C36.6667 16.4924 35.1743 15 33.3333 15Z" stroke="#374151" stroke-width="3.33" stroke-linecap="round" stroke-linejoin="round"/>
<path d="M8.33203 24.9997H6.66536C5.78131 24.9997 4.93346 24.6485 4.30834 24.0234C3.68322 23.3982 3.33203 22.5504 3.33203 21.6663V6.66634C3.33203 5.78229 3.68322 4.93444 4.30834 4.30932C4.93346 3.6842 5.78131 3.33301 6.66536 3.33301H21.6654C22.5494 3.33301 23.3973 3.6842 24.0224 4.30932C24.6475 4.93444 24.9987 5.78229 24.9987 6.66634V8.33301" stroke="#374151" stroke-width="3.33" stroke-linecap="round" stroke-linejoin="round"/>
</svg>
