<svg width="80" height="80" viewBox="0 0 80 80" fill="none" xmlns="http://www.w3.org/2000/svg">
<rect width="80" height="80" rx="40" fill="#EBF1F8"/>
<g clip-path="url(#clip0_6103_95099)">
<path d="M38.8281 49.4531H41.1719V54.1406H38.8281V49.4531Z" fill="#15314E"/>
<path d="M22.4219 21.1719H57.5781V50.625H22.4219V21.1719Z" fill="#FCFCFC"/>
<path d="M40 60C38.0615 60 36.4844 58.4229 36.4844 56.4844C36.4844 54.5459 38.0615 52.9688 40 52.9688C41.9385 52.9688 43.5156 54.5459 43.5156 56.4844C43.5156 58.4229 41.9385 60 40 60Z" fill="#C0D4E9"/>
<path d="M31.0996 34.9131C31.2948 34.7179 31.6114 34.7179 31.8067 34.9131L35.7864 38.8928C35.9816 39.0881 35.9816 39.4047 35.7864 39.5999L34.8364 40.5499C34.6412 40.7451 34.3246 40.7451 34.1293 40.5499L30.1496 36.5702C29.9544 36.3749 29.9544 36.0583 30.1496 35.863L31.0996 34.9131Z" fill="#245283"/>
<path d="M34.1308 34.9131C34.3261 34.7179 34.6427 34.7179 34.8379 34.9131L35.7879 35.863C35.9831 36.0583 35.9831 36.3749 35.7879 36.5702L31.8082 40.5499C31.6129 40.7451 31.2963 40.7451 31.1011 40.5498L30.1511 39.5999C29.9559 39.4047 29.9559 39.0881 30.1511 38.8928L34.1308 34.9131Z" fill="#245283"/>
<path d="M52.1943 41.2607C52.3895 41.0655 52.3895 40.7489 52.1943 40.5536L51.2442 39.6035C51.0489 39.4083 50.7323 39.4083 50.5371 39.6035L49.729 40.4116C49.5338 40.6068 49.2172 40.6068 49.0219 40.4116L48.2139 39.6035C48.0186 39.4083 47.702 39.4083 47.5068 39.6035L46.5567 40.5536C46.3614 40.7489 46.3614 41.0655 46.5567 41.2607L47.3647 42.0688C47.5599 42.2641 47.5599 42.5806 47.3647 42.7759L46.5567 43.5839C46.3614 43.7792 46.3614 44.0958 46.5567 44.291L47.5068 45.2411C47.702 45.4364 48.0186 45.4364 48.2139 45.2412L49.0219 44.4331C49.2172 44.2379 49.5338 44.2379 49.729 44.4331L50.5371 45.2412C50.7323 45.4364 51.0489 45.4364 51.2442 45.2411L52.1943 44.291C52.3895 44.0958 52.3895 43.7792 52.1943 43.5839L51.3863 42.7759C51.191 42.5806 51.191 42.2641 51.3863 42.0688L52.1943 41.2607Z" fill="#245283"/>
<path d="M53.0223 30.3494C53.2175 30.5447 53.2175 30.8612 53.0223 31.0565L48.2137 35.8657C48.0184 36.061 47.7018 36.061 47.5066 35.8658L46.556 34.9151C46.3607 34.7198 46.3607 34.4032 46.556 34.208L48.036 32.7284C48.351 32.4134 48.128 31.8748 47.6825 31.8748H47.0312C43.8008 31.8748 41.1719 34.5037 41.1719 37.7342C41.1719 39.2764 40.7437 40.7209 40 41.9545C38.5648 44.3389 35.95 45.9373 32.9688 45.9373H27.6094C27.3332 45.9373 27.1094 45.7134 27.1094 45.4373V44.0936C27.1094 43.8174 27.3332 43.5936 27.6094 43.5936H32.9688C36.1992 43.5936 38.8281 40.9646 38.8281 37.7342C38.8281 36.192 39.2563 34.7475 40 33.5139C41.4352 31.1295 44.05 29.5311 47.0312 29.5311H47.6825C48.128 29.5311 48.351 28.9924 48.036 28.6774L46.556 27.1979C46.3607 27.0026 46.3607 26.686 46.5559 26.4907L47.5066 25.5401C47.7018 25.3448 48.0184 25.3448 48.2137 25.5401L53.0223 30.3494Z" fill="#1A1A1A"/>
<path d="M53.0223 30.3494C53.2175 30.5447 53.2175 30.8612 53.0223 31.0565L48.2137 35.8657C48.0185 36.061 47.7018 36.061 47.5066 35.8658L46.5559 34.9151C46.3607 34.7198 46.3607 34.4032 46.556 34.208L48.036 32.7284C48.351 32.4134 48.128 31.8748 47.6825 31.8748H47.0312C43.8008 31.8748 41.1719 34.5037 41.1719 37.7342C41.1719 38.6393 41.0244 39.5108 40.7522 40.3257C40.5917 40.8062 40 40.6634 40 40.1568V33.6527C40 33.5619 40.0245 33.4725 40.0726 33.3955C41.5223 31.0767 44.0996 29.5311 47.0312 29.5311H47.6825C48.128 29.5311 48.351 28.9924 48.036 28.6774L46.556 27.1979C46.3607 27.0026 46.3607 26.686 46.5559 26.4907L47.5066 25.5401C47.7018 25.3448 48.0185 25.3448 48.2137 25.5401L53.0223 30.3494Z" fill="#242424"/>
<path d="M20 21.1719C20 20.5247 20.5247 20 21.1719 20H58.8281C59.4753 20 60 20.5247 60 21.1719C60 21.8191 59.4753 22.3438 58.8281 22.3438H21.1719C20.5247 22.3438 20 21.8191 20 21.1719Z" fill="#3374B9"/>
<path d="M40 21.1719C40 20.5247 40.5247 20 41.1719 20H58.8281C59.4753 20 60 20.5247 60 21.1719C60 21.8191 59.4753 22.3438 58.8281 22.3438H41.1719C40.5247 22.3438 40 21.8191 40 21.1719Z" fill="#3374B9"/>
<path d="M35.3125 31.875C33.374 31.875 31.7969 30.2979 31.7969 28.3594C31.7969 26.4209 33.374 24.8438 35.3125 24.8438C37.251 24.8438 38.8281 26.4209 38.8281 28.3594C38.8281 30.2979 37.251 31.875 35.3125 31.875Z" fill="#C0D4E9"/>
</g>
<defs>
<clipPath id="clip0_6103_95099">
<rect width="40" height="40" fill="white" transform="translate(20 20)"/>
</clipPath>
</defs>
</svg>
