<svg width="80" height="80" viewBox="0 0 80 80" fill="none" xmlns="http://www.w3.org/2000/svg">
<rect width="80" height="80" rx="40" fill="#EBF1F8"/>
<g clip-path="url(#clip0_6103_95105)">
<path d="M34 26C34 28.2091 32.2091 30 30 30C27.7909 30 26 28.2091 26 26C26 23.7909 27.7909 22 30 22C32.2091 22 34 23.7909 34 26Z" fill="#FEFEFE"/>
<path d="M54 27C54 29.2091 52.2091 31 50 31C47.7909 31 46 29.2091 46 27C46 24.7909 47.7909 23 50 23C52.2091 23 54 24.7909 54 27Z" fill="#FEFEFE"/>
<path d="M44 40C44 42.2091 42.2091 44 40 44C37.7909 44 36 42.2091 36 40C36 37.7909 37.7909 36 40 36C42.2091 36 44 37.7909 44 40Z" fill="#FEFEFE"/>
<path d="M40 46.6667C38.6815 46.6667 37.3925 46.2757 36.2962 45.5431C35.1999 44.8106 34.3454 43.7694 33.8408 42.5512C33.3362 41.3331 33.2042 39.9926 33.4614 38.6994C33.7187 37.4062 34.3536 36.2183 35.286 35.286C36.2183 34.3536 37.4062 33.7187 38.6994 33.4614C39.9926 33.2042 41.333 33.3362 42.5512 33.8408C43.7694 34.3454 44.8106 35.1999 45.5431 36.2962C46.2757 37.3925 46.6667 38.6815 46.6667 40C46.6667 41.7681 45.9643 43.4638 44.714 44.7141C43.4638 45.9643 41.7681 46.6667 40 46.6667ZM40 36.6667C39.3407 36.6667 38.6963 36.8622 38.1481 37.2284C37.5999 37.5947 37.1727 38.1153 36.9204 38.7244C36.6681 39.3335 36.6021 40.0037 36.7307 40.6503C36.8593 41.2969 37.1768 41.8909 37.643 42.357C38.1092 42.8232 38.7031 43.1407 39.3497 43.2693C39.9963 43.3979 40.6665 43.3319 41.2756 43.0796C41.8847 42.8273 42.4053 42.4001 42.7716 41.8519C43.1378 41.3037 43.3333 40.6593 43.3333 40C43.3333 39.1159 42.9821 38.2681 42.357 37.643C41.7319 37.0179 40.8841 36.6667 40 36.6667ZM50 58.3333C50 55.6812 48.9464 53.1376 47.0711 51.2623C45.1957 49.3869 42.6522 48.3333 40 48.3333C37.3478 48.3333 34.8043 49.3869 32.9289 51.2623C31.0536 53.1376 30 55.6812 30 58.3333C30 58.7754 30.1756 59.1993 30.4882 59.5119C30.8007 59.8244 31.2246 60 31.6667 60C32.1087 60 32.5326 59.8244 32.8452 59.5119C33.1577 59.1993 33.3333 58.7754 33.3333 58.3333C33.3333 56.5652 34.0357 54.8695 35.286 53.6193C36.5362 52.3691 38.2319 51.6667 40 51.6667C41.7681 51.6667 43.4638 52.3691 44.714 53.6193C45.9643 54.8695 46.6667 56.5652 46.6667 58.3333C46.6667 58.7754 46.8423 59.1993 47.1548 59.5119C47.4674 59.8244 47.8913 60 48.3333 60C48.7754 60 49.1993 59.8244 49.5118 59.5119C49.8244 59.1993 50 58.7754 50 58.3333ZM50 33.3333C48.6815 33.3333 47.3925 32.9423 46.2962 32.2098C45.1999 31.4773 44.3454 30.4361 43.8408 29.2179C43.3362 27.9997 43.2042 26.6593 43.4614 25.3661C43.7187 24.0729 44.3536 22.885 45.286 21.9526C46.2183 21.0203 47.4062 20.3853 48.6994 20.1281C49.9926 19.8709 51.333 20.0029 52.5512 20.5075C53.7694 21.0121 54.8106 21.8665 55.5431 22.9629C56.2757 24.0592 56.6667 25.3481 56.6667 26.6667C56.6667 28.4348 55.9643 30.1305 54.714 31.3807C53.4638 32.631 51.7681 33.3333 50 33.3333ZM50 23.3333C49.3407 23.3333 48.6963 23.5288 48.1481 23.8951C47.5999 24.2614 47.1727 24.782 46.9204 25.3911C46.6681 26.0001 46.6021 26.6704 46.7307 27.317C46.8593 27.9636 47.1768 28.5575 47.643 29.0237C48.1092 29.4899 48.7031 29.8073 49.3497 29.936C49.9963 30.0646 50.6665 29.9986 51.2756 29.7463C51.8847 29.494 52.4053 29.0667 52.7716 28.5186C53.1378 27.9704 53.3333 27.3259 53.3333 26.6667C53.3333 25.7826 52.9821 24.9348 52.357 24.3096C51.7319 23.6845 50.8841 23.3333 50 23.3333ZM60 45C59.9974 42.3487 58.9429 39.8067 57.0681 37.9319C55.1934 36.0571 52.6514 35.0027 50 35C49.558 35 49.134 35.1756 48.8215 35.4882C48.5089 35.8007 48.3333 36.2246 48.3333 36.6667C48.3333 37.1087 48.5089 37.5326 48.8215 37.8452C49.134 38.1577 49.558 38.3333 50 38.3333C51.7681 38.3333 53.4638 39.0357 54.714 40.286C55.9643 41.5362 56.6667 43.2319 56.6667 45C56.6667 45.442 56.8423 45.866 57.1548 46.1785C57.4674 46.4911 57.8913 46.6667 58.3333 46.6667C58.7754 46.6667 59.1993 46.4911 59.5118 46.1785C59.8244 45.866 60 45.442 60 45ZM30 33.3333C28.6815 33.3333 27.3925 32.9423 26.2962 32.2098C25.1999 31.4773 24.3454 30.4361 23.8408 29.2179C23.3362 27.9997 23.2042 26.6593 23.4614 25.3661C23.7187 24.0729 24.3536 22.885 25.286 21.9526C26.2183 21.0203 27.4062 20.3853 28.6994 20.1281C29.9926 19.8709 31.333 20.0029 32.5512 20.5075C33.7694 21.0121 34.8106 21.8665 35.5431 22.9629C36.2757 24.0592 36.6667 25.3481 36.6667 26.6667C36.6667 28.4348 35.9643 30.1305 34.714 31.3807C33.4638 32.631 31.7681 33.3333 30 33.3333ZM30 23.3333C29.3407 23.3333 28.6963 23.5288 28.1481 23.8951C27.5999 24.2614 27.1727 24.782 26.9204 25.3911C26.6681 26.0001 26.6021 26.6704 26.7307 27.317C26.8593 27.9636 27.1768 28.5575 27.643 29.0237C28.1092 29.4899 28.7031 29.8073 29.3497 29.936C29.9963 30.0646 30.6665 29.9986 31.2756 29.7463C31.8847 29.494 32.4053 29.0667 32.7716 28.5186C33.1378 27.9704 33.3333 27.3259 33.3333 26.6667C33.3333 25.7826 32.9821 24.9348 32.357 24.3096C31.7319 23.6845 30.8841 23.3333 30 23.3333ZM23.3333 45C23.3333 43.2319 24.0357 41.5362 25.286 40.286C26.5362 39.0357 28.2319 38.3333 30 38.3333C30.442 38.3333 30.8659 38.1577 31.1785 37.8452C31.4911 37.5326 31.6667 37.1087 31.6667 36.6667C31.6667 36.2246 31.4911 35.8007 31.1785 35.4882C30.8659 35.1756 30.442 35 30 35C27.3486 35.0027 24.8066 36.0571 22.9319 37.9319C21.0571 39.8067 20.0026 42.3487 20 45C20 45.442 20.1756 45.866 20.4882 46.1785C20.8007 46.4911 21.2246 46.6667 21.6667 46.6667C22.1087 46.6667 22.5326 46.4911 22.8452 46.1785C23.1577 45.866 23.3333 45.442 23.3333 45Z" fill="#3374B9"/>
</g>
<defs>
<clipPath id="clip0_6103_95105">
<rect width="40" height="40" fill="white" transform="translate(20 20)"/>
</clipPath>
</defs>
</svg>
