<svg width="80" height="80" viewBox="0 0 80 80" fill="none" xmlns="http://www.w3.org/2000/svg">
<rect width="80" height="80" rx="40" fill="#EBF1F8"/>
<path d="M44.9219 49.0625V56.5625C44.9219 57.2094 44.3969 57.7344 43.75 57.7344H36.25C35.6031 57.7344 35.0781 57.2094 35.0781 56.5625V49.0625C35.0781 48.4156 35.6031 47.8906 36.25 47.8906H43.75C44.3969 47.8906 44.9219 48.4156 44.9219 49.0625Z" fill="#15314E"/>
<path d="M44.9219 49.0625V56.5625C44.9219 57.2094 44.3969 57.7344 43.75 57.7344H40V47.8906H43.75C44.3969 47.8906 44.9219 48.4156 44.9219 49.0625Z" fill="#15314E"/>
<path d="M56.4844 22.2656H23.5156C21.5773 22.2656 20 23.843 20 25.7812V46.7188C20 48.657 21.5773 50.2344 23.5156 50.2344H56.4844C58.4227 50.2344 60 48.657 60 46.7188V25.7812C60 23.843 58.4227 22.2656 56.4844 22.2656Z" fill="#15314E"/>
<path d="M57.6562 25.7812V46.7188C57.6562 47.3648 57.1305 47.8906 56.4844 47.8906H23.5156C22.8695 47.8906 22.3438 47.3648 22.3438 46.7188V25.7812C22.3438 25.1352 22.8695 24.6094 23.5156 24.6094H56.4844C57.1305 24.6094 57.6562 25.1352 57.6562 25.7812Z" fill="#FCFCFC"/>
<path d="M53.6719 56.5625C53.6719 57.2094 53.1469 57.7344 52.5 57.7344H27.5C26.8531 57.7344 26.3281 57.2094 26.3281 56.5625C26.3281 55.9156 26.8531 55.3906 27.5 55.3906H52.5C53.1469 55.3906 53.6719 55.9156 53.6719 56.5625Z" fill="#15314E"/>
<path d="M25.5171 34.2948C24.9557 33.7334 24.9084 32.7999 25.5171 32.1737C26.4975 31.2219 28.0781 31.9266 28.0781 33.2348C28.0781 34.5632 26.4591 35.2381 25.5171 34.2948Z" fill="#3374B9"/>
<path d="M37.5 34.7344H31.25C30.6028 34.7344 30.0781 34.0628 30.0781 33.2344C30.0781 32.406 30.6028 31.7344 31.25 31.7344H37.5C38.1472 31.7344 38.6719 32.406 38.6719 33.2344C38.6719 34.0628 38.1472 34.7344 37.5 34.7344Z" fill="#C0D4E9"/>
<path d="M26.5782 39.7343C25.7581 39.7343 25.0781 39.0687 25.0781 38.2343C25.0781 37.3394 25.8566 36.653 26.7262 36.7422C27.5312 36.8094 28.1559 37.5549 28.0703 38.3813C28.0103 39.1164 27.3611 39.7343 26.5782 39.7343Z" fill="#3374B9"/>
<path d="M37.5 39.7344H31.25C30.6028 39.7344 30.0781 39.0628 30.0781 38.2344C30.0781 37.406 30.6028 36.7344 31.25 36.7344H37.5C38.1472 36.7344 38.6719 37.406 38.6719 38.2344C38.6719 39.0628 38.1472 39.7344 37.5 39.7344Z" fill="#C0D4E9"/>
<path d="M54.5195 36.7711C54.3347 38.0447 53.7919 39.2396 52.9544 40.2168C52.117 41.194 51.0192 41.9132 49.7889 42.2909C48.5586 42.6685 47.2463 42.689 46.0049 42.35C44.7634 42.0109 43.6437 41.3263 42.7761 40.3757C41.9085 39.4251 41.3288 38.2477 41.1042 36.9805C40.8797 35.7133 41.0196 34.4084 41.5078 33.2176C41.9959 32.0268 42.8122 30.9991 43.8616 30.2542C44.9111 29.5092 46.1505 29.0776 47.4356 29.0095L47.795 35.795L54.5195 36.7711Z" fill="#C0D4E9"/>
<path d="M48.5251 29.0391C50.1678 29.2161 51.6897 29.9857 52.8061 31.2037C53.9225 32.4217 54.5568 34.0047 54.5905 35.6566L47.7969 35.7949L48.5251 29.0391Z" fill="#3374B9"/>
</svg>
