<svg width="80" height="80" viewBox="0 0 80 80" fill="none" xmlns="http://www.w3.org/2000/svg">
<rect width="80" height="80" rx="40" fill="#EBF1F8"/>
<path d="M51.8392 20H28.1608C24.2123 20 21 23.1974 21 27.1274V56.8726C21 60.8026 24.2123 64 28.1608 64H51.8392C55.7877 64 59 60.8026 59 56.8726V27.1274C59 23.1974 55.7877 20 51.8392 20Z" fill="#FCFCFC"/>
<path d="M27 19C27 17.8954 27.8954 17 29 17H51.81C52.9146 17 53.81 17.8954 53.81 19V23C53.81 24.1046 52.9146 25 51.81 25H29C27.8954 25 27 24.1046 27 23V19Z" fill="#15314E"/>
<path d="M51.25 48.8271H43C42.2234 48.8271 41.5938 49.4568 41.5938 50.2334C41.5938 51.01 42.2234 51.6396 43 51.6396H51.25C52.0266 51.6396 52.6562 51.01 52.6562 50.2334C52.6562 49.4568 52.0266 48.8271 51.25 48.8271Z" fill="#15314E"/>
<path d="M43 40.6514H51.25C52.0266 40.6514 52.6562 40.0217 52.6562 39.2451C52.6562 38.4685 52.0266 37.8389 51.25 37.8389H43C42.2234 37.8389 41.5938 38.4685 41.5938 39.2451C41.5938 40.0217 42.2234 40.6514 43 40.6514Z" fill="#15314E"/>
<path d="M34.9017 35.9206C34.3055 35.4229 33.4187 35.5025 32.9209 36.0986L30.5463 38.9423L30.0075 37.867C29.6596 37.1726 28.8147 36.8917 28.1203 37.2397C27.4259 37.5876 27.1452 38.4326 27.4931 39.1269L28.9931 42.1207C29.2054 42.5445 29.6171 42.8329 30.0881 42.8876C30.1424 42.8939 30.1965 42.897 30.2505 42.897C30.6644 42.897 31.0609 42.7141 31.3298 42.3922L35.0798 37.9016C35.5774 37.3053 35.4977 36.4184 34.9017 35.9206Z" fill="#3374B9"/>
<path d="M33.3175 46.346C32.6855 45.8947 31.8073 46.0411 31.3558 46.6729L30.6251 47.6959L29.8944 46.6729C29.443 46.041 28.5647 45.8946 27.9327 46.346C27.3007 46.7974 27.1544 47.6758 27.6058 48.3078L28.8969 50.1153L27.6058 51.9229C27.1544 52.5549 27.3007 53.4332 27.9327 53.8847C28.1805 54.0617 28.466 54.1467 28.7489 54.1467C29.1876 54.1467 29.6199 53.9419 29.8944 53.5578L30.6251 52.5348L31.3558 53.5578C31.6303 53.9421 32.0626 54.1468 32.5013 54.1468C32.7842 54.1468 33.0697 54.0617 33.3175 53.8848C33.9495 53.4333 34.0958 52.555 33.6444 51.923L32.3533 50.1153L33.6444 48.3078C34.0958 47.6758 33.9495 46.7975 33.3175 46.346Z" fill="#C0D4E9"/>
</svg>
