<svg xmlns="http://www.w3.org/2000/svg" width="16.721" height="15.676" viewBox="0 0 16.721 15.676">
  <g id="Group_19251" data-name="Group 19251" transform="translate(0 -15.989)">
    <path id="Path_7818" data-name="Path 7818" d="M16.2,18.08H9.405V16.513a.521.521,0,0,0-.189-.4A.513.513,0,0,0,8.787,16L.426,17.567A.521.521,0,0,0,0,18.08v11.5a.522.522,0,0,0,.426.513l8.36,1.568a.492.492,0,0,0,.1.009.523.523,0,0,0,.523-.523V29.576H16.2a.523.523,0,0,0,.523-.523V18.6A.523.523,0,0,0,16.2,18.08ZM7.186,25.574a.522.522,0,1,1-.786.688L4.88,24.526,3.548,26.24a.523.523,0,0,1-.826-.643l1.457-1.873L2.742,22.082a.523.523,0,0,1,.787-.688l1.3,1.49,1.548-1.99a.523.523,0,1,1,.825.643L5.534,23.686Zm8.49,2.956H9.405V27.486h1.568a.523.523,0,1,0,0-1.045H9.405V25.4h1.568a.523.523,0,0,0,0-1.045H9.405V23.305h1.568a.523.523,0,0,0,0-1.045H9.405V21.215h1.568a.523.523,0,0,0,0-1.045H9.405V19.125h6.27Z" transform="translate(0 0)" fill="#606060"/>
    <path id="Path_7819" data-name="Path 7819" d="M385.568,144.011h-1.045a.523.523,0,0,0,0,1.045h1.045a.523.523,0,0,0,0-1.045Z" transform="translate(-371.459 -123.841)" fill="#989898"/>
    <path id="Path_7820" data-name="Path 7820" d="M385.568,208.011h-1.045a.523.523,0,0,0,0,1.045h1.045a.523.523,0,0,0,0-1.045Z" transform="translate(-371.459 -185.751)" fill="#989898"/>
    <path id="Path_7821" data-name="Path 7821" d="M385.568,272.011h-1.045a.523.523,0,1,0,0,1.045h1.045a.523.523,0,1,0,0-1.045Z" transform="translate(-371.459 -247.66)" fill="#989898"/>
    <path id="Path_7822" data-name="Path 7822" d="M385.568,336.011h-1.045a.523.523,0,1,0,0,1.045h1.045a.523.523,0,1,0,0-1.045Z" transform="translate(-371.459 -309.57)" fill="#989898"/>
  </g>
</svg>
