<svg xmlns="http://www.w3.org/2000/svg" width="16.291" height="15.273" viewBox="0 0 16.291 15.273">
  <g id="Group_19253" data-name="Group 19253" transform="translate(-114 -216)">
    <path id="Path_7814" data-name="Path 7814" d="M180.814,486H171.2l-.955,3.818h11.518Zm0,0" transform="translate(-53.864 -258.545)" fill="#606060"/>
    <path id="Path_7815" data-name="Path 7815" d="M351.75,225.174h2.584l-2.584-2.584Zm0,0" transform="translate(-227.664 -6.31)" fill="#606060"/>
    <path id="Path_7816" data-name="Path 7816" d="M192.75,216v6.682h9.609v-2.864h-3.818V216Zm0,0" transform="translate(-75.409)" fill="#606060"/>
    <path id="Path_7817" data-name="Path 7817" d="M128.859,328.5H127.9v1.909h.955v.955H115.432v-.955h.955V328.5h-.955A1.434,1.434,0,0,0,114,329.932v7.159h1.88l.716-2.864h11.1l.716,2.864h1.88v-7.159a1.434,1.434,0,0,0-1.432-1.432Zm-2.386,4.773h-.955v-.955h.955Zm1.909,0h-.955v-.955h.955Zm0,0" transform="translate(0 -107.727)" fill="#606060"/>
  </g>
</svg>
