<svg width="40" height="40" viewBox="0 0 40 40" fill="none" xmlns="http://www.w3.org/2000/svg">
<circle cx="20" cy="20" r="20" fill="#ED9A98"/>
<path d="M25 10.0001H27.67C28.236 9.99011 28.7859 10.1883 29.2154 10.5569C29.645 10.9256 29.9242 11.4392 30 12.0001V19.0001C29.9242 19.5611 29.645 20.0746 29.2154 20.4433C28.7859 20.812 28.236 21.0101 27.67 21.0001H25M18 23.0001V27.0001C18 27.7958 18.3161 28.5588 18.8787 29.1214C19.4413 29.684 20.2044 30.0001 21 30.0001L25 21.0001V10.0001H13.72C13.2377 9.99466 12.7697 10.1637 12.4021 10.4761C12.0346 10.7885 11.7924 11.2232 11.72 11.7001L10.34 20.7001C10.2965 20.9868 10.3159 21.2794 10.3967 21.5579C10.4775 21.8363 10.6179 22.0938 10.8082 22.3126C10.9984 22.5314 11.234 22.7062 11.4985 22.8249C11.763 22.9436 12.0501 23.0034 12.34 23.0001H18Z" stroke="white" stroke-width="1.5" stroke-linecap="round" stroke-linejoin="round"/>
</svg>
