<svg width="32" height="32" viewBox="0 0 32 32" fill="none" xmlns="http://www.w3.org/2000/svg">
<path d="M0 16C0 7.16344 7.16344 0 16 0C24.8366 0 32 7.16344 32 16C32 24.8366 24.8366 32 16 32C7.16344 32 0 24.8366 0 16Z" fill="#EBF2F8"/>
<path d="M15.6746 23.5C15.9507 23.5 16.1746 23.2761 16.1746 23C16.1746 22.7239 15.9507 22.5 15.6746 22.5V23.5ZM20.5 16C20.5 16.2761 20.7239 16.5 21 16.5C21.2761 16.5 21.5 16.2761 21.5 16H20.5ZM12.619 9.5H18.381V8.5H12.619V9.5ZM10.5 20.375V11.625H9.5V20.375H10.5ZM15.6746 22.5H12.619V23.5H15.6746V22.5ZM20.5 11.625V16H21.5V11.625H20.5ZM9.5 20.375C9.5 22.0998 10.8954 23.5 12.619 23.5V22.5C11.4498 22.5 10.5 21.5497 10.5 20.375H9.5ZM18.381 9.5C19.5502 9.5 20.5 10.4503 20.5 11.625H21.5C21.5 9.90018 20.1046 8.5 18.381 8.5V9.5ZM12.619 8.5C10.8954 8.5 9.5 9.90018 9.5 11.625H10.5C10.5 10.4503 11.4498 9.5 12.619 9.5V8.5Z" fill="#3D7EFE"/>
<path d="M13.2002 14C12.9241 14 12.7002 14.2239 12.7002 14.5C12.7002 14.7761 12.9241 15 13.2002 15V14ZM18.2002 15C18.4763 15 18.7002 14.7761 18.7002 14.5C18.7002 14.2239 18.4763 14 18.2002 14V15ZM13.2002 15H18.2002V14H13.2002V15Z" fill="#3D7EFE"/>
<path d="M13.2002 16C12.9241 16 12.7002 16.2239 12.7002 16.5C12.7002 16.7761 12.9241 17 13.2002 17V16ZM17.2002 17C17.4763 17 17.7002 16.7761 17.7002 16.5C17.7002 16.2239 17.4763 16 17.2002 16V17ZM13.2002 17H17.2002V16H13.2002V17Z" fill="#3D7EFE"/>
<path d="M21.026 19.1671L20.7608 18.902L21.026 19.1671ZM21.4294 19V18.625V19ZM22 19.5706H22.375H22ZM21.8329 19.974L22.098 20.2392L21.8329 19.974ZM19.1095 22.6974L19.2082 23.0592C19.2711 23.042 19.3285 23.0087 19.3747 22.9626L19.1095 22.6974ZM18 23L17.6382 22.9013C17.6028 23.0312 17.6397 23.17 17.7348 23.2652C17.83 23.3603 17.9688 23.3972 18.0987 23.3618L18 23ZM18.3026 21.8905L18.0374 21.6253C17.9913 21.6715 17.958 21.7289 17.9408 21.7918L18.3026 21.8905ZM21.2911 19.4323C21.3093 19.4141 21.3308 19.3997 21.3546 19.3899L21.0676 18.697C20.9528 18.7445 20.8486 18.8141 20.7608 18.902L21.2911 19.4323ZM21.3546 19.3899C21.3783 19.3801 21.4037 19.375 21.4294 19.375V18.625C21.3052 18.625 21.1823 18.6495 21.0676 18.697L21.3546 19.3899ZM21.4294 19.375C21.4551 19.375 21.4805 19.3801 21.5043 19.3899L21.7913 18.697C21.6766 18.6495 21.5536 18.625 21.4294 18.625V19.375ZM21.5043 19.3899C21.528 19.3997 21.5496 19.4141 21.5677 19.4323L22.098 18.902C22.0102 18.8141 21.906 18.7445 21.7913 18.697L21.5043 19.3899ZM21.5677 19.4323C21.5859 19.4504 21.6003 19.472 21.6101 19.4957L22.303 19.2087C22.2555 19.094 22.1859 18.9898 22.098 18.902L21.5677 19.4323ZM21.6101 19.4957C21.6199 19.5195 21.625 19.5449 21.625 19.5706H22.375C22.375 19.4464 22.3505 19.3234 22.303 19.2087L21.6101 19.4957ZM21.625 19.5706C21.625 19.5963 21.6199 19.6217 21.6101 19.6454L22.303 19.9324C22.3505 19.8177 22.375 19.6948 22.375 19.5706H21.625ZM21.6101 19.6454C21.6003 19.6692 21.5859 19.6907 21.5677 19.7089L22.098 20.2392C22.1859 20.1514 22.2555 20.0472 22.303 19.9324L21.6101 19.6454ZM21.5677 19.7089L18.8444 22.4322L19.3747 22.9626L22.098 20.2392L21.5677 19.7089ZM19.0108 22.3356L17.9013 22.6382L18.0987 23.3618L19.2082 23.0592L19.0108 22.3356ZM18.3618 23.0987L18.6644 21.9892L17.9408 21.7918L17.6382 22.9013L18.3618 23.0987ZM18.5678 22.1556L21.2911 19.4323L20.7608 18.902L18.0374 21.6253L18.5678 22.1556Z" fill="#3D7EFE"/>
</svg>
