<svg width="32" height="32" viewBox="0 0 32 32" fill="none" xmlns="http://www.w3.org/2000/svg">
<path d="M0 16C0 7.16344 7.16344 0 16 0C24.8366 0 32 7.16344 32 16C32 24.8366 24.8366 32 16 32C7.16344 32 0 24.8366 0 16Z" fill="#3374B9" fill-opacity="0.1"/>
<g clip-path="url(#clip0_138_786)">
<path d="M17.6552 10.0662C17.2626 10.0662 16.9561 9.74598 16.9561 9.36707C16.9561 8.95485 17.315 8.6306 17.724 8.67145C18.0874 8.7102 18.3543 9.01029 18.3543 9.36707C18.3543 9.74613 18.0479 10.0662 17.6552 10.0662Z" fill="#3D7EFE"/>
<path d="M22.3627 16.8645H22.363C22.3993 16.4803 22.7405 16.1983 23.125 16.2346C23.5092 16.2709 23.7913 16.6122 23.755 16.9967C23.7203 17.3584 23.4159 17.6297 23.0597 17.6297C22.6446 17.6297 22.324 17.2734 22.3627 16.8645Z" fill="#3D7EFE"/>
<path d="M22.175 14.5984C22.075 14.2254 22.2963 13.8423 22.6693 13.7423C23.0423 13.6423 23.4258 13.8636 23.5257 14.2366C23.6257 14.6096 23.4041 14.993 23.0315 15.093C22.9706 15.1091 22.9098 15.1168 22.85 15.1168C22.541 15.1168 22.2586 14.9109 22.175 14.5984Z" fill="#3D7EFE"/>
<path d="M21.2039 12.5456C20.9792 12.2314 21.0516 11.7947 21.3654 11.57C21.6794 11.3456 22.1159 11.4176 22.3407 11.7318C22.5655 12.0457 22.4931 12.4823 22.1792 12.7071C22.0558 12.7952 21.9139 12.8378 21.773 12.8378C21.5549 12.8378 21.3403 12.7361 21.2039 12.5456Z" fill="#3D7EFE"/>
<path d="M19.3848 9.98942C19.6005 9.6692 20.035 9.58495 20.3552 9.80064C20.6754 10.0167 20.76 10.4512 20.544 10.771C20.4091 10.9713 20.1885 11.0793 19.9637 11.0793C19.4085 11.0793 19.0705 10.4552 19.3848 9.98942Z" fill="#3D7EFE"/>
<path d="M22.3749 20.0584C21.9902 20.0584 21.6758 19.7454 21.6758 19.3593C21.6758 18.9462 22.0341 18.623 22.4438 18.6636C22.8135 18.7042 23.074 19.0071 23.074 19.3593C23.074 19.7359 22.7686 20.0584 22.3749 20.0584Z" fill="#3D7EFE"/>
<path d="M21.4623 20.6935C21.1847 20.4652 20.7793 20.4848 20.5248 20.7386C19.3773 21.883 17.8321 22.5535 16.1975 22.5992C12.6812 22.6974 9.74056 19.9166 9.64234 16.4002C9.57256 13.9026 10.9694 11.6254 13.1397 10.5274L13.3644 11.4485C13.4162 11.6611 13.6812 11.7344 13.835 11.5787L15.9739 9.41362C16.1202 9.2655 16.0592 9.01512 15.8611 8.95103L12.9654 8.01396C12.7572 7.94659 12.5558 8.13368 12.6077 8.34631L12.8011 9.13946C9.98887 10.4171 8.1565 13.2839 8.24462 16.4393C8.36465 20.7363 11.9391 24.1169 16.2365 23.9968C18.2291 23.9412 20.1127 23.124 21.5114 21.7294C21.8044 21.4373 21.7818 20.9562 21.4623 20.6935Z" fill="#3D7EFE"/>
<path d="M23.0449 16.2321C23.1125 16.3521 23.1456 16.4932 23.1317 16.6408C23.0975 16.9981 22.7999 17.2667 22.4493 17.2732C22.5684 17.4847 22.7947 17.63 23.0597 17.63C23.416 17.63 23.7204 17.3588 23.7551 16.997C23.7942 16.5834 23.4656 16.2239 23.0449 16.2321Z" fill="#3D7EFE"/>
<path d="M23.5258 14.2364C23.4408 13.9193 23.1508 13.712 22.8366 13.7184C23.0947 14.1779 22.7704 14.7493 22.2408 14.76C22.3641 14.9798 22.5983 15.1166 22.8501 15.1166C22.9099 15.1166 22.9707 15.1089 23.0315 15.0929C23.4042 14.9929 23.6258 14.6094 23.5258 14.2364Z" fill="#3D7EFE"/>
<path d="M22.3408 11.7321C22.2015 11.5372 21.9807 11.4358 21.7582 11.4401C22.018 11.9005 21.6889 12.4713 21.1632 12.4814C21.2919 12.71 21.5279 12.8381 21.7731 12.8381C22.337 12.8381 22.6729 12.1959 22.3408 11.7321Z" fill="#3D7EFE"/>
<path d="M20.3552 9.80058C20.2309 9.71683 20.0893 9.67883 19.95 9.6818C20.0752 9.90493 20.0735 10.1884 19.9206 10.4147C19.7889 10.6104 19.5753 10.7177 19.3561 10.7226C19.4728 10.9297 19.6921 11.0793 19.9637 11.0793C20.1885 11.0793 20.409 10.9713 20.544 10.771C20.76 10.4511 20.6754 10.0166 20.3552 9.80058Z" fill="#3D7EFE"/>
<path d="M22.444 18.6635C22.416 18.6607 22.3882 18.6598 22.3608 18.6603C22.4183 18.7625 22.4509 18.8795 22.4509 19.0029C22.4509 19.375 22.1527 19.694 21.766 19.7016C21.8862 19.9144 22.1144 20.0582 22.3751 20.0582C22.7687 20.0582 23.0742 19.7357 23.0742 19.3591C23.0742 19.0069 22.8137 18.7041 22.444 18.6635Z" fill="#3D7EFE"/>
<path d="M21.4623 20.6937C21.3235 20.5795 21.1527 20.5274 20.9849 20.5355C21.1451 20.8026 21.1128 21.1572 20.8784 21.391C19.4797 22.7856 17.5961 23.6028 15.6035 23.6584C14.3296 23.694 13.1192 23.4219 12.0435 22.9095C13.2672 23.6382 14.7059 24.0398 16.2366 23.9971C18.2291 23.9414 20.1127 23.1242 21.5114 21.7296C21.8044 21.4375 21.7819 20.9564 21.4623 20.6937Z" fill="#3D7EFE"/>
</g>
<defs>
<clipPath id="clip0_138_786">
<rect width="16" height="16" fill="white" transform="translate(8 8)"/>
</clipPath>
</defs>
</svg>
