<svg width="40" height="40" viewBox="0 0 40 40" fill="none" xmlns="http://www.w3.org/2000/svg">
<rect width="40" height="40" rx="20" fill="#EBF2F8"/>
<g clip-path="url(#clip0_3378_38674)">
<path d="M21.2134 16.7491C20.8964 16.5657 20.507 16.5644 20.19 16.7457L16.293 18.9725C15.9738 19.155 15.7764 19.4946 15.7764 19.8627V23.878C15.7764 24.4444 16.2355 24.9035 16.8019 24.9035H20.6989C21.2653 24.9035 21.7245 24.4444 21.7245 23.878V17.6363C21.724 17.2708 21.5291 16.9325 21.2134 16.7491Z" fill="#3D7EFE"/>
<path d="M14.239 20.7346C13.9224 20.5495 13.5326 20.5491 13.2156 20.7312L9.26708 22.9878C8.86325 23.218 8.66495 23.6917 8.78452 24.141C8.90367 24.5908 9.31048 24.9036 9.77559 24.9036H13.7245C14.2909 24.9036 14.7501 24.4444 14.7501 23.878V21.621C14.7505 21.2563 14.5556 20.9176 14.239 20.7346Z" fill="#3D7EFE"/>
<path d="M28.2389 12.7346C27.9223 12.5508 27.5326 12.55 27.2155 12.7317L23.267 14.9878C22.9474 15.1704 22.75 15.5104 22.75 15.8785V23.878C22.75 24.4444 23.2091 24.9036 23.7755 24.9036H27.724C28.2904 24.9036 28.7496 24.4444 28.7496 23.878V13.6219C28.75 13.2563 28.5551 12.918 28.2389 12.7346Z" fill="#3D7EFE"/>
</g>
<defs>
<clipPath id="clip0_3378_38674">
<rect width="20" height="20" fill="white" transform="translate(8.75 8.75)"/>
</clipPath>
</defs>
</svg>
