<svg width="32" height="32" viewBox="0 0 32 32" fill="none" xmlns="http://www.w3.org/2000/svg">
<path d="M0 16C0 7.16344 7.16344 0 16 0C24.8366 0 32 7.16344 32 16C32 24.8366 24.8366 32 16 32C7.16344 32 0 24.8366 0 16Z" fill="#3374B9" fill-opacity="0.1"/>
<path d="M16 24C20.4183 24 24 20.4183 24 16C24 11.5817 20.4183 8 16 8C11.5817 8 8 11.5817 8 16C8 20.4183 11.5817 24 16 24Z" stroke="#3D7EFE" stroke-miterlimit="10"/>
<path d="M16 19C17.6569 19 19 17.433 19 15.5C19 13.567 17.6569 12 16 12C14.3431 12 13 13.567 13 15.5C13 17.433 14.3431 19 16 19Z" stroke="#3D7EFE" stroke-miterlimit="10"/>
<path d="M11 22C11.4693 21.0973 12.1848 20.3392 13.0673 19.8097C13.9498 19.2803 14.9648 19 16 19C17.0352 19 18.0502 19.2802 18.9327 19.8097C19.8152 20.3392 20.5307 21.0973 21 22" stroke="#3D7EFE" stroke-linecap="round" stroke-linejoin="round"/>
</svg>
