<svg width="32" height="32" viewBox="0 0 32 32" fill="none" xmlns="http://www.w3.org/2000/svg">
<path d="M0 16C0 7.16344 7.16344 0 16 0C24.8366 0 32 7.16344 32 16C32 24.8366 24.8366 32 16 32C7.16344 32 0 24.8366 0 16Z" fill="#3374B9" fill-opacity="0.1"/>
<path d="M20.0625 15.1875C20.4077 15.1875 20.6875 14.9077 20.6875 14.5625C20.6875 14.2173 20.4077 13.9375 20.0625 13.9375C19.7173 13.9375 19.4375 14.2173 19.4375 14.5625C19.4375 14.9077 19.7173 15.1875 20.0625 15.1875Z" fill="#3D7EFE"/>
<path d="M21.5 9.25H20.6875V8.625C20.6875 8.27981 20.4077 8 20.0625 8C19.7173 8 19.4375 8.27981 19.4375 8.625V9.25H16.5938V8.625C16.5938 8.27981 16.3139 8 15.9688 8C15.6236 8 15.3438 8.27981 15.3438 8.625V9.25H12.5312V8.625C12.5312 8.27981 12.2514 8 11.9062 8C11.5611 8 11.2812 8.27981 11.2812 8.625V9.25H10.5C9.1215 9.25 8 10.3715 8 11.75V21.5C8 22.8785 9.1215 24 10.5 24H15.2812C15.6264 24 15.9062 23.7202 15.9062 23.375C15.9062 23.0298 15.6264 22.75 15.2812 22.75H10.5C9.81075 22.75 9.25 22.1892 9.25 21.5V11.75C9.25 11.0608 9.81075 10.5 10.5 10.5H11.2812V11.125C11.2812 11.4702 11.5611 11.75 11.9062 11.75C12.2514 11.75 12.5312 11.4702 12.5312 11.125V10.5H15.3438V11.125C15.3438 11.4702 15.6236 11.75 15.9688 11.75C16.3139 11.75 16.5938 11.4702 16.5938 11.125V10.5H19.4375V11.125C19.4375 11.4702 19.7173 11.75 20.0625 11.75C20.4077 11.75 20.6875 11.4702 20.6875 11.125V10.5H21.5C22.1892 10.5 22.75 11.0608 22.75 11.75V15.3125C22.75 15.6577 23.0298 15.9375 23.375 15.9375C23.7202 15.9375 24 15.6577 24 15.3125V11.75C24 10.3715 22.8785 9.25 21.5 9.25Z" fill="#3D7EFE"/>
<path d="M20.2188 16.4375C18.1337 16.4375 16.4375 18.1337 16.4375 20.2188C16.4375 22.3038 18.1337 24 20.2188 24C22.3038 24 24 22.3038 24 20.2188C24 18.1337 22.3038 16.4375 20.2188 16.4375ZM20.2188 22.75C18.823 22.75 17.6875 21.6145 17.6875 20.2188C17.6875 18.823 18.823 17.6875 20.2188 17.6875C21.6145 17.6875 22.75 18.823 22.75 20.2188C22.75 21.6145 21.6145 22.75 20.2188 22.75Z" fill="#3D7EFE"/>
<path d="M21.125 19.5938H20.8438V18.9375C20.8438 18.5923 20.5639 18.3125 20.2188 18.3125C19.8736 18.3125 19.5938 18.5923 19.5938 18.9375V20.2188C19.5938 20.5639 19.8736 20.8438 20.2188 20.8438H21.125C21.4702 20.8438 21.75 20.5639 21.75 20.2188C21.75 19.8736 21.4702 19.5938 21.125 19.5938Z" fill="#3D7EFE"/>
<path d="M17.3438 15.1875C17.6889 15.1875 17.9688 14.9077 17.9688 14.5625C17.9688 14.2173 17.6889 13.9375 17.3438 13.9375C16.9986 13.9375 16.7188 14.2173 16.7188 14.5625C16.7188 14.9077 16.9986 15.1875 17.3438 15.1875Z" fill="#3D7EFE"/>
<path d="M14.625 17.9062C14.9702 17.9062 15.25 17.6264 15.25 17.2812C15.25 16.9361 14.9702 16.6562 14.625 16.6562C14.2798 16.6562 14 16.9361 14 17.2812C14 17.6264 14.2798 17.9062 14.625 17.9062Z" fill="#3D7EFE"/>
<path d="M11.9062 15.1875C12.2514 15.1875 12.5312 14.9077 12.5312 14.5625C12.5312 14.2173 12.2514 13.9375 11.9062 13.9375C11.5611 13.9375 11.2812 14.2173 11.2812 14.5625C11.2812 14.9077 11.5611 15.1875 11.9062 15.1875Z" fill="#3D7EFE"/>
<path d="M11.9062 17.9062C12.2514 17.9062 12.5312 17.6264 12.5312 17.2812C12.5312 16.9361 12.2514 16.6562 11.9062 16.6562C11.5611 16.6562 11.2812 16.9361 11.2812 17.2812C11.2812 17.6264 11.5611 17.9062 11.9062 17.9062Z" fill="#3D7EFE"/>
<path d="M11.9062 20.625C12.2514 20.625 12.5312 20.3452 12.5312 20C12.5312 19.6548 12.2514 19.375 11.9062 19.375C11.5611 19.375 11.2812 19.6548 11.2812 20C11.2812 20.3452 11.5611 20.625 11.9062 20.625Z" fill="#3D7EFE"/>
<path d="M14.625 20.625C14.9702 20.625 15.25 20.3452 15.25 20C15.25 19.6548 14.9702 19.375 14.625 19.375C14.2798 19.375 14 19.6548 14 20C14 20.3452 14.2798 20.625 14.625 20.625Z" fill="#3D7EFE"/>
<path d="M14.625 15.1875C14.9702 15.1875 15.25 14.9077 15.25 14.5625C15.25 14.2173 14.9702 13.9375 14.625 13.9375C14.2798 13.9375 14 14.2173 14 14.5625C14 14.9077 14.2798 15.1875 14.625 15.1875Z" fill="#3D7EFE"/>
</svg>
