<svg xmlns="http://www.w3.org/2000/svg" xmlns:xlink="http://www.w3.org/1999/xlink" width="60" height="55" viewBox="0 0 60 55">
  <defs>
    <clipPath id="clip-path">
      <rect id="Rectangle_13005" data-name="Rectangle 13005" width="60" height="55" transform="translate(0.024 -0.14)" fill="none"/>
    </clipPath>
  </defs>
  <g id="Group_18600" data-name="Group 18600" transform="translate(-0.024 0.14)">
    <g id="Group_18601" data-name="Group 18601">
      <g id="Group_18600-2" data-name="Group 18600" clip-path="url(#clip-path)">
        <path id="Path_9666" data-name="Path 9666" d="M54.025,13.908c0,11.91,6.169,20.088,6.169,25.827s-3.3,17.791-29.7,17.791S.219,41.311.219,35c0-29.558,53.806-42.184,53.806-21.092" transform="translate(-0.184 -2.874)" fill="#dbf1ff"/>
      </g>
    </g>
    <g id="Group_18603" data-name="Group 18603">
      <g id="Group_18602" data-name="Group 18602" clip-path="url(#clip-path)">
        <path id="Path_9667" data-name="Path 9667" d="M39.251,5.5a2.583,2.583,0,1,1,2.583-2.583A2.585,2.585,0,0,1,39.251,5.5m0-3.443a.861.861,0,1,0,.861.861.863.863,0,0,0-.861-.861" transform="translate(-30.749 -0.278)" fill="#dbf1ff"/>
        <path id="Path_9668" data-name="Path 9668" d="M118.324,51a4.291,4.291,0,0,0-4.3,4.3V86.3a3.454,3.454,0,0,1-3.444,3.443H87.332V67.185a5.312,5.312,0,0,0,1.291.172,4.732,4.732,0,0,0,4.735-4.735V51Z" transform="translate(-73.235 -42.768)" fill="#f3f3f1"/>
        <path id="Path_9669" data-name="Path 9669" d="M252.668,57.887h8.609V55.3a4.3,4.3,0,1,0-8.609,0Z" transform="translate(-211.883 -42.768)" fill="#0db1e5"/>
        <path id="Path_9670" data-name="Path 9670" d="M91.827,246.277H69.443A3.443,3.443,0,0,1,66,242.833v-5.165H87.522v4.3a4.3,4.3,0,0,0,4.3,4.3" transform="translate(-55.346 -199.304)" fill="#0db1e5"/>
        <path id="Path_9671" data-name="Path 9671" d="M258.909,51.481a4.272,4.272,0,0,0-6.241,3.824v2.583h3.874V55.3a4.287,4.287,0,0,1,2.367-3.824" transform="translate(-211.883 -42.768)" fill="#0493bf"/>
        <path id="Path_9672" data-name="Path 9672" d="M69.874,242.833v-5.165H66v5.165a3.443,3.443,0,0,0,3.443,3.443h3.874a3.443,3.443,0,0,1-3.443-3.443" transform="translate(-55.346 -199.304)" fill="#0493bf"/>
        <path id="Path_9673" data-name="Path 9673" d="M92.5,67.357a4.732,4.732,0,0,0,4.735-4.735V51H93.359V62.622a4.732,4.732,0,0,1-4.735,4.735,5.312,5.312,0,0,1-1.291-.172V81.132h3.874V67.185a5.312,5.312,0,0,0,1.291.172" transform="translate(-73.235 -42.768)" fill="#d5dbe1"/>
        <path id="Path_9674" data-name="Path 9674" d="M64.026,61.939A6.033,6.033,0,0,1,58,55.913V46.874a3.874,3.874,0,0,1,7.748,0v9.9H63.165v-9.9a1.291,1.291,0,0,0-2.583,0v9.039a3.444,3.444,0,0,0,6.887,0V43h2.583V55.913a6.033,6.033,0,0,1-6.027,6.026" transform="translate(-48.638 -36.059)" fill="#003e61"/>
        <rect id="Rectangle_13006" data-name="Rectangle 13006" width="2.583" height="8.781" transform="translate(12.806 29.651)" fill="#003e61"/>
        <rect id="Rectangle_13007" data-name="Rectangle 13007" width="19.8" height="2.583" transform="translate(25.289 6.941)" fill="#003e61"/>
        <path id="Path_9675" data-name="Path 9675" d="M254.568,52.47h-8.609a1.292,1.292,0,0,1-1.291-1.291V48.6a5.6,5.6,0,1,1,11.191,0v2.583a1.292,1.292,0,0,1-1.291,1.291m-7.317-2.583h6.026V48.6a3.013,3.013,0,1,0-6.026,0Z" transform="translate(-205.174 -36.059)" fill="#003e61"/>
        <path id="Path_9676" data-name="Path 9676" d="M85.549,126.812H62.735A4.739,4.739,0,0,1,58,122.078v-5.094a1.292,1.292,0,0,1,1.291-1.291H80.814a1.292,1.292,0,0,1,1.291,1.291v4.232a3.013,3.013,0,0,0,6.027,0V93.668h2.583v27.548a5.6,5.6,0,0,1-5.165,5.579Zm-24.966-8.537v3.8a2.155,2.155,0,0,0,2.152,2.152H80.406a5.569,5.569,0,0,1-.883-3.013v-2.941Z" transform="translate(-48.638 -78.548)" fill="#003e61"/>
        <rect id="Rectangle_13008" data-name="Rectangle 13008" width="55.098" height="2.583" transform="translate(2.475 45.681)" fill="#003e61"/>
      </g>
    </g>
  </g>
</svg>
