<svg xmlns="http://www.w3.org/2000/svg" width="216.629" height="227.867" viewBox="0 0 216.629 227.867">
  <g id="dashboard" transform="translate(-5.088 -55.723)">
    <g id="Group_30838" data-name="Group 30838" transform="translate(5.088 55.723)">
      <path id="Path_15955" data-name="Path 15955" d="M1507.682,164a20.384,20.384,0,0,1-20.331,20.324H1314.818A20.386,20.386,0,0,1,1294.49,164V32.557a20.39,20.39,0,0,1,20.328-20.327h172.534a20.384,20.384,0,0,1,20.324,20.327V164Z" transform="translate(-1294.49 -10.56)" fill="#fff"/>
      <path id="Path_15956" data-name="Path 15956" d="M1293.132,57.46V29.522a18.705,18.705,0,0,1,18.653-18.653h140.656a1.674,1.674,0,0,0,0-3.349H1311.785a22.06,22.06,0,0,0-22,22V57.46a1.692,1.692,0,0,0,.1.664,1.718,1.718,0,0,0,.359.57,1.672,1.672,0,0,0,2.421,0,1.718,1.718,0,0,0,.359-.57A1.687,1.687,0,0,0,1293.132,57.46Z" transform="translate(-1289.691 -7.52)" fill="#72b4e6" fill-rule="evenodd"/>
      <path id="Path_15957" data-name="Path 15957" d="M1833.964,10.869a18.705,18.705,0,0,1,18.653,18.653V143.064a1.692,1.692,0,0,0,.1.664,1.721,1.721,0,0,0,.359.57,1.673,1.673,0,0,0,2.421,0,1.721,1.721,0,0,0,.359-.57,1.687,1.687,0,0,0,.1-.664V29.522a22.068,22.068,0,0,0-22-22,1.674,1.674,0,0,0,0,3.349Z" transform="translate(-1639.337 -7.52)" fill="#72b4e6" fill-rule="evenodd"/>
      <path id="Path_15958" data-name="Path 15958" d="M1502.982,301.608a18.7,18.7,0,0,1-18.66,18.649H1311.788a18.7,18.7,0,0,1-18.653-18.649V227.344a1.674,1.674,0,0,0-3.345,0v74.264a22.06,22.06,0,0,0,22,21.991h172.534a22.066,22.066,0,0,0,22-22,1.687,1.687,0,0,0-.1-.664,1.716,1.716,0,0,0-.359-.57,1.673,1.673,0,0,0-2.421,0,1.72,1.72,0,0,0-.359.57,1.689,1.689,0,0,0-.1.664Z" transform="translate(-1289.695 -148.167)" fill="#72b4e6" fill-rule="evenodd"/>
    </g>
    <g id="Group_30836" data-name="Group 30836" transform="translate(23.7 96.744)">
      <path id="Path_15929" data-name="Path 15929" d="M180.219,277.116,149.936,246.84H108.87a1.73,1.73,0,0,0-1.722,1.782,42.825,42.825,0,0,0,73.07,28.494Z" transform="translate(-101.128 -198.028)" fill="#c5d9e9"/>
      <path id="Path_15930" data-name="Path 15930" d="M263.557,176.068a42.814,42.814,0,0,0-41.043-42.78A1.718,1.718,0,0,0,220.74,135v41.066l30.283,30.276a42.724,42.724,0,0,0,12.542-30.279Z" transform="translate(-171.924 -127.256)" fill="#72b4e6"/>
      <path id="Path_15931" data-name="Path 15931" d="M132.23,160.062a1.718,1.718,0,0,0,1.718-1.722V119a1.714,1.714,0,0,0-1.778-1.722,42.825,42.825,0,0,0-41,41.005,1.718,1.718,0,0,0,1.714,1.774Z" transform="translate(-91.168 -117.277)" fill="#c5d9e9"/>
    </g>
    <g id="Group_30837" data-name="Group 30837" transform="translate(124.671 103.441)">
      <path id="Path_15932" data-name="Path 15932" d="M448.87,135.572c0,2.78-3.014,5.052-6.736,5.052H392.286c-3.7,0-6.736-2.26-6.736-5.052s3.033-5.052,6.736-5.052h49.848C445.841,130.52,448.87,132.8,448.87,135.572Z" transform="translate(-385.55 -130.52)" fill="#72b4e6"/>
      <path id="Path_15933" data-name="Path 15933" d="M389.5,222.182h64.669a2.023,2.023,0,0,0,0-4.042H389.5a2.023,2.023,0,0,0,0,4.042Z" transform="translate(-386.804 -185.128)" fill="#72b4e6" fill-rule="evenodd"/>
      <path id="Path_15934" data-name="Path 15934" d="M389.135,259.729h64.6a1.368,1.368,0,0,0,.651-.128,1.639,1.639,0,0,0,.558-.432,2.081,2.081,0,0,0,.375-.667,2.451,2.451,0,0,0,0-1.588,2.081,2.081,0,0,0-.375-.667,1.639,1.639,0,0,0-.558-.432,1.367,1.367,0,0,0-.651-.128h-64.6a1.529,1.529,0,0,0-1.117.622,2.373,2.373,0,0,0,0,2.8,1.53,1.53,0,0,0,1.117.622Z" transform="translate(-386.804 -208.529)" fill="#72b4e6" fill-rule="evenodd"/>
      <path id="Path_15935" data-name="Path 15935" d="M389.176,297.309h75.286a1.435,1.435,0,0,0,.668-.128,1.68,1.68,0,0,0,.572-.432,2.069,2.069,0,0,0,.385-.667,2.391,2.391,0,0,0,0-1.588,2.069,2.069,0,0,0-.385-.667,1.678,1.678,0,0,0-.572-.432,1.435,1.435,0,0,0-.668-.128H389.176a1.581,1.581,0,0,0-1.146.622,2.324,2.324,0,0,0,0,2.8A1.58,1.58,0,0,0,389.176,297.309Z" transform="translate(-386.804 -231.95)" fill="#72b4e6" fill-rule="evenodd"/>
      <path id="Path_15936" data-name="Path 15936" d="M389.5,334.832h61.975a2.023,2.023,0,0,0,0-4.043H389.5a2.023,2.023,0,0,0,0,4.043Z" transform="translate(-386.804 -255.338)" fill="#72b4e6" fill-rule="evenodd"/>
    </g>
    <path id="Path_15952" data-name="Path 15952" d="M130.485,640.209c58.749,0,106.375-5.16,106.375-11.525S189.234,617.16,130.485,617.16,24.11,622.32,24.11,628.685,71.736,640.209,130.485,640.209Z" transform="translate(-15.145 -356.619)" fill="#c5d9e9"/>
  </g>
</svg>
