<svg xmlns="http://www.w3.org/2000/svg" width="218.818" height="233.051" viewBox="0 0 218.818 233.051">
  <g id="finance" transform="translate(0 -0.822)">
    <path id="Path_16364" data-name="Path 16364" d="M109.3,705.921c47.394,0,85.873,4.167,85.873,9.3s-38.482,9.3-85.873,9.3-85.876-4.17-85.876-9.3S61.9,705.921,109.3,705.921Z" transform="translate(-16.297 -490.652)" fill="#c5d9e9" fill-rule="evenodd"/>
    <path id="Path_16365" data-name="Path 16365" d="M225.312,145.436a2.131,2.131,0,0,1-1.521-.63l-1.8-1.807-1.8,1.807a2.151,2.151,0,0,1-3.041-3.041l1.8-1.807-1.8-1.8a2.151,2.151,0,0,1,3.041-3.041l1.8,1.8,1.807-1.8a2.151,2.151,0,0,1,3.041,3.041l-1.8,1.8,1.8,1.828a2.147,2.147,0,0,1-1.521,3.65ZM35.561,84.509a2.131,2.131,0,0,1-1.521-.63l-1.8-1.8-1.807,1.8a2.151,2.151,0,1,1-3.041-3.041l1.8-1.8-1.8-1.807a2.151,2.151,0,0,1,3.041-3.041l1.807,1.8,1.8-1.8a2.151,2.151,0,1,1,3.041,3.041l-1.807,1.807,1.807,1.8a2.147,2.147,0,0,1-1.521,3.65Zm89.544-32.4a2.129,2.129,0,0,1-1.521-.63l-1.8-1.8-1.8,1.8a2.151,2.151,0,1,1-3.041-3.041l1.807-1.8-1.807-1.807a2.151,2.151,0,1,1,3.041-3.041l1.8,1.8,1.8-1.8a2.151,2.151,0,0,1,3.041,3.041l-1.807,1.807,1.807,1.8a2.147,2.147,0,0,1-1.521,3.65Z" transform="translate(-18.621 -28.069)" fill="#c5d9e9"/>
    <path id="Path_16366" data-name="Path 16366" d="M184.207,11.113l-24-3.215c-2.664-.356-3.51,1.1-1.877,3.239l6.5,8.516c-6.065,4.465-42.126,30.976-55.639,40.28-3.3,2.275-10.076,1.475-17.245.627-10.684-1.265-23.987-2.841-35.523,4.96-9.307,6.3-54.5,38.443-56.42,39.812l10.219,14.343c.468-.331,46.947-33.391,56.08-39.571,6.107-4.127,14.6-3.123,23.589-2.059,10.094,1.2,20.529,2.433,29.3-3.613,14.118-9.732,50.913-36.8,56.347-40.788l6.061,7.929c1.633,2.129,3.26,1.706,3.616-.964l3.206-24a4.9,4.9,0,0,0-4.2-5.5Z" transform="translate(0 -4.887)" fill="#72b4e6"/>
    <path id="Path_16367" data-name="Path 16367" d="M44.492,439.841H28.54v25.912H44.492Z" transform="translate(-19.86 -305.497)" fill="#c5d9e9" fill-rule="evenodd"/>
    <path id="Path_16368" data-name="Path 16368" d="M147.1,347.821H131.15v53.9H147.1Z" transform="translate(-91.262 -241.464)" fill="#c5d9e9" fill-rule="evenodd"/>
    <path id="Path_16369" data-name="Path 16369" d="M249.7,285.421H233.74V358.3H249.7Z" transform="translate(-162.651 -198.042)" fill="#c5d9e9" fill-rule="evenodd"/>
    <path id="Path_16370" data-name="Path 16370" d="M352.3,308.691H336.35v65.8H352.3Z" transform="translate(-234.053 -214.234)" fill="#c5d9e9" fill-rule="evenodd"/>
    <path id="Path_16371" data-name="Path 16371" d="M454.9,240.311H438.95v86.6H454.9Z" transform="translate(-305.449 -166.651)" fill="#c5d9e9" fill-rule="evenodd"/>
    <path id="Path_16372" data-name="Path 16372" d="M557.505,208.921H541.55v96.144h15.955Z" transform="translate(-376.845 -144.808)" fill="#c5d9e9" fill-rule="evenodd"/>
    <path id="Path_16373" data-name="Path 16373" d="M183.831,162.4h-15.94a2.147,2.147,0,0,1-2.147-2.147V69.563a2.147,2.147,0,0,1,4.294,0v88.559H181.7V85.363a2.147,2.147,0,0,1,4.294,0V160.25a2.147,2.147,0,0,1-2.162,2.153Zm-31.208,0H136.671a2.147,2.147,0,0,1-2.147-2.147V87.379a2.147,2.147,0,0,1,4.294,0v70.742h11.658V75.807H148.6a2.147,2.147,0,1,1,0-4.291h4.024a2.147,2.147,0,0,1,2.147,2.129V160.25a2.147,2.147,0,0,1-2.147,2.153Zm-31.2,0H105.467a2.147,2.147,0,0,1-2.147-2.147v-32.3a2.147,2.147,0,0,1,4.294,0v30.167h11.658V96.6H107.614V112.2a2.147,2.147,0,0,1-4.294,0V94.45a2.147,2.147,0,0,1,2.147-2.147h15.952a2.147,2.147,0,0,1,2.147,2.147v65.8a2.147,2.147,0,0,1-2.147,2.153Zm-31.2,0H74.26a2.147,2.147,0,0,1-2.147-2.147V98.182a2.147,2.147,0,0,1,4.294,0V158.1H88.067V87.379a2.147,2.147,0,0,1,4.294,0V160.25a2.147,2.147,0,0,1-2.147,2.153Zm-31.2,0H43.058a2.147,2.147,0,0,1-2.147-2.147V121.5a2.147,2.147,0,1,1,4.291,0v36.624H56.863v-49.6H53.84a2.147,2.147,0,0,1,0-4.294h5.17a2.147,2.147,0,0,1,2.147,2.147V160.25A2.147,2.147,0,0,1,59.01,162.4Zm-31.207,0H11.851A2.147,2.147,0,0,1,9.7,160.257V134.344a2.147,2.147,0,0,1,2.147-2.147H19.08a2.147,2.147,0,0,1,0,4.294H14v21.63H25.658V144.673a2.147,2.147,0,1,1,4.291,0V160.25A2.147,2.147,0,0,1,27.8,162.4ZM13.39,116.935a2.023,2.023,0,0,1-.356-.03,2.129,2.129,0,0,1-1.393-.873l-6.667-9.367a2.147,2.147,0,1,1,3.5-2.491l5.423,7.622c8.6-6.113,46.25-32.847,54.374-38.355,6.773-4.577,15.648-3.525,25.043-2.415,9.7,1.147,19.729,2.333,27.829-3.248,8.516-5.864,25.179-17.965,37.655-27.083a2.147,2.147,0,1,1,2.533,3.467c-12.5,9.124-29.2,21.262-37.753,27.153-9.428,6.5-20.274,5.216-30.76,3.978-8.592-1.019-16.694-1.98-22.141,1.7-9.1,6.159-55.578,39.215-56.04,39.538A2.128,2.128,0,0,1,13.39,116.935ZM17.52,92.4a2.147,2.147,0,0,1-1.244-3.9C32.231,77.185,52.489,62.851,58.4,58.851c12.2-8.245,25.934-6.621,36.971-5.316a2.147,2.147,0,0,1-.5,4.258C84.533,56.576,71.68,55.056,60.811,62.4,54.932,66.379,34.7,80.691,18.764,92a2.131,2.131,0,0,1-1.256.4Zm94.842-35.213a2.147,2.147,0,0,1-1.217-3.914c12.722-8.762,45.167-32.582,53.832-38.948l-5.17-6.767c-1.825-2.384-1.3-4.115-.824-4.933S160.7.5,163.676.895L187.66,4.1A7.05,7.05,0,0,1,193.7,12l-3.209,24c-.4,2.978-1.989,3.829-2.9,4.072s-2.719.3-4.544-2.092l-6.061-7.926a2.147,2.147,0,1,1,3.409-2.61l5.885,7.695,3.169-23.707a2.762,2.762,0,0,0-2.36-3.087L163.366,5.186l6.35,8.272a2.144,2.144,0,0,1-.435,3.041c-4.227,3.114-41.734,30.718-55.694,40.319A2.127,2.127,0,0,1,112.362,57.191Z" transform="translate(-3.171 0)" fill="#72b4e6"/>
    <path id="Path_16374" data-name="Path 16374" d="M544.925,323.243a37.3,37.3,0,1,1-45.681-26.377A37.3,37.3,0,0,1,544.925,323.243Z" transform="translate(-328.163 -205.115)" fill="#fff"/>
    <path id="Path_16375" data-name="Path 16375" d="M560.941,295.825a36.518,36.518,0,0,1,31.841,64.117.787.787,0,0,0-.276.829.787.787,0,0,0,1.241.413,38.09,38.09,0,0,0-33.212-66.88.788.788,0,0,0,.406,1.522Z" transform="translate(-389.657 -203.316)" fill="#72b4e6" fill-rule="evenodd"/>
    <path id="Path_16376" data-name="Path 16376" d="M516.542,418.617a36.514,36.514,0,0,1-43.1-49.432.787.787,0,1,0-1.45-.61,38.084,38.084,0,0,0,44.959,51.558.787.787,0,1,0-.406-1.52Z" transform="translate(-326.36 -255.57)" fill="#72b4e6" fill-rule="evenodd"/>
    <path id="Path_16377" data-name="Path 16377" d="M538.147,386.877a2.333,2.333,0,0,1-.6-4.584l21.026-5.631a6.993,6.993,0,0,0-3.619-13.509l-12.016,3.218a11.655,11.655,0,0,1-6.037-22.515l21.016-5.634a2.332,2.332,0,1,1,1.209,4.5l-21.016,5.631a6.994,6.994,0,0,0,3.62,13.511l12.006-3.221a11.658,11.658,0,0,1,6.037,22.52L538.754,386.8a2.507,2.507,0,0,1-.605.075Z" transform="translate(-367.602 -234.729)" fill="#c5d9e9"/>
    <path id="Path_16378" data-name="Path 16378" d="M579.573,380.449a2.341,2.341,0,0,1-2.251-1.726l-14.486-54.033a2.338,2.338,0,0,1,4.515-1.217l14.481,54.043a2.341,2.341,0,0,1-1.647,2.856,2.434,2.434,0,0,1-.607.077Z" transform="translate(-391.601 -223.317)" fill="#c5d9e9"/>
  </g>
</svg>
