<svg xmlns="http://www.w3.org/2000/svg" width="211.607" height="233.052" viewBox="0 0 211.607 233.052">
  <g id="Graph_2" data-name="Graph 2" transform="translate(-1289.785 -7.52)">
    <path id="Path_15937" data-name="Path 15937" d="M1502.833,160.543a19.92,19.92,0,0,1-19.869,19.861H1314.355a19.922,19.922,0,0,1-19.865-19.861V32.095a19.926,19.926,0,0,1,19.865-19.865h168.609a19.92,19.92,0,0,1,19.862,19.865V160.543Z" transform="translate(-3.071 -3.074)" fill="#fff"/>
    <path id="Path_15938" data-name="Path 15938" d="M1293.056,56.324v-27.3a18.28,18.28,0,0,1,18.229-18.229h137.457a1.636,1.636,0,0,0,0-3.273H1311.284a21.558,21.558,0,0,0-21.5,21.5v27.3a1.652,1.652,0,0,0,.1.649,1.681,1.681,0,0,0,.351.557,1.634,1.634,0,0,0,2.366,0,1.677,1.677,0,0,0,.351-.557A1.648,1.648,0,0,0,1293.056,56.324Z" fill="#72b4e6" fill-rule="evenodd"/>
    <path id="Path_15939" data-name="Path 15939" d="M1833.926,10.793a18.28,18.28,0,0,1,18.229,18.229v110.96a1.652,1.652,0,0,0,.1.649,1.681,1.681,0,0,0,.351.557,1.634,1.634,0,0,0,2.366,0,1.681,1.681,0,0,0,.351-.557,1.65,1.65,0,0,0,.1-.649V29.021a21.566,21.566,0,0,0-21.5-21.5,1.636,1.636,0,0,0,0,3.273Z" transform="translate(-354.033)" fill="#72b4e6" fill-rule="evenodd"/>
    <path id="Path_15940" data-name="Path 15940" d="M1498.133,299.882a18.277,18.277,0,0,1-18.236,18.225H1311.288a18.275,18.275,0,0,1-18.229-18.225V227.308a1.636,1.636,0,0,0-3.269,0v72.574a21.558,21.558,0,0,0,21.5,21.491H1479.9a21.564,21.564,0,0,0,21.5-21.5,1.65,1.65,0,0,0-.1-.649,1.679,1.679,0,0,0-.351-.557,1.634,1.634,0,0,0-2.366,0,1.68,1.68,0,0,0-.351.557,1.65,1.65,0,0,0-.1.649Z" transform="translate(-0.003 -142.412)" fill="#72b4e6" fill-rule="evenodd"/>
    <path id="Path_15941" data-name="Path 15941" d="M1375.507,220.418l13.983-9.728,11.982,6.993L1417.7,204.7l10.738,6.993,11.736-32.712,11.485,7.494,10.485,16.978,12.486-7.74,10.989-21.223,10.971,13.209,13-19.736,17.979-3.749v82.649H1375l.5-26.469Z" transform="translate(-55.61 -102.254)" fill="#c5d9e9"/>
    <path id="Path_15942" data-name="Path 15942" d="M1370.737,95.681V214.034a1.987,1.987,0,0,0,3.971,0V95.681a1.966,1.966,0,0,0-.552-1.459,1.966,1.966,0,0,0-.653-.452,1.989,1.989,0,0,0-1.56,0,1.965,1.965,0,0,0-.653.452,1.966,1.966,0,0,0-.552,1.459Z" transform="translate(-52.827 -56.182)" fill="#72b4e6" fill-rule="evenodd"/>
    <path id="Path_15943" data-name="Path 15943" d="M1340.387,399.684h170.787a1.987,1.987,0,0,0,0-3.974H1340.387a1.987,1.987,0,0,0,0,3.974Z" transform="translate(-31.726 -253.328)" fill="#72b4e6" fill-rule="evenodd"/>
    <path id="Path_15953" data-name="Path 15953" d="M1406.752,638.415c54.175,0,98.092-4.758,98.092-10.627s-43.916-10.627-98.092-10.627-98.092,4.758-98.092,10.627S1352.576,638.415,1406.752,638.415Z" transform="translate(-12.318 -397.844)" fill="#c5d9e9"/>
  </g>
</svg>
