<svg xmlns="http://www.w3.org/2000/svg" width="226.363" height="233.051" viewBox="0 0 226.363 233.051">
  <g id="Graph" transform="translate(-2508.369 3.135)">
    <g id="Group_30839" data-name="Group 30839" transform="translate(2508.369 -3.134)">
      <path id="Path_15955" data-name="Path 15955" d="M1517.262,170.815a21.3,21.3,0,0,1-21.245,21.237H1315.731a21.3,21.3,0,0,1-21.241-21.237V33.471a21.306,21.306,0,0,1,21.241-21.241h180.287a21.3,21.3,0,0,1,21.237,21.241V170.815Z" transform="translate(-1294.49 -10.485)" fill="#fff"/>
      <path id="Path_15956" data-name="Path 15956" d="M1293.282,59.7V30.51a19.545,19.545,0,0,1,19.491-19.491H1459.75a1.75,1.75,0,0,0,0-3.5H1312.773a23.051,23.051,0,0,0-22.987,22.99V59.7a1.767,1.767,0,0,0,.108.694,1.8,1.8,0,0,0,.375.6,1.748,1.748,0,0,0,2.53,0,1.8,1.8,0,0,0,.375-.6A1.763,1.763,0,0,0,1293.282,59.7Z" transform="translate(-1289.687 -7.52)" fill="#72b4e6" fill-rule="evenodd"/>
      <path id="Path_15957" data-name="Path 15957" d="M1834.04,11.019a19.546,19.546,0,0,1,19.491,19.491V149.155a1.767,1.767,0,0,0,.108.694,1.8,1.8,0,0,0,.375.6,1.747,1.747,0,0,0,2.53,0,1.8,1.8,0,0,0,.375-.6,1.765,1.765,0,0,0,.108-.694V30.51A23.06,23.06,0,0,0,1834.04,7.52a1.75,1.75,0,0,0,0,3.5Z" transform="translate(-1630.667 -7.52)" fill="#72b4e6" fill-rule="evenodd"/>
      <path id="Path_15958" data-name="Path 15958" d="M1512.562,305.017a19.543,19.543,0,0,1-19.5,19.487H1312.777a19.541,19.541,0,0,1-19.491-19.487v-77.6a1.75,1.75,0,0,0-3.5,0v77.6A23.051,23.051,0,0,0,1312.777,328h180.287a23.058,23.058,0,0,0,22.987-22.987,1.765,1.765,0,0,0-.108-.694,1.8,1.8,0,0,0-.375-.6,1.748,1.748,0,0,0-2.53,0,1.8,1.8,0,0,0-.375.6,1.764,1.764,0,0,0-.108.694Z" transform="translate(-1289.691 -144.681)" fill="#72b4e6" fill-rule="evenodd"/>
    </g>
    <path id="Path_15947" data-name="Path 15947" d="M2613.111,359.8c0-1.531-1.767-2.783-3.928-2.783h-15.705c-2.161,0-3.928,1.253-3.928,2.783v15.834c0,1.531,1.768,2.78,3.928,2.78h15.705c2.16,0,3.928-1.25,3.928-2.78Z" transform="translate(-47.802 -235.909)" fill="#c5d9e9"/>
    <path id="Path_15948" data-name="Path 15948" d="M2754.961,263.563c0-1.531-1.764-2.783-3.928-2.783h-15.712c-2.16,0-3.931,1.253-3.931,2.783v48.423c0,1.531,1.771,2.78,3.931,2.78h15.7c2.164,0,3.928-1.249,3.928-2.78Z" transform="translate(-141.612 -172.258)" fill="#c5d9e9"/>
    <path id="Path_15949" data-name="Path 15949" d="M2896.8,191.87c0-1.527-1.767-2.78-3.928-2.78h-15.7c-2.161,0-3.928,1.253-3.928,2.78v72.7c0,1.531,1.768,2.78,3.928,2.78h15.7c2.161,0,3.928-1.25,3.928-2.78Z" transform="translate(-235.429 -124.843)" fill="#c5d9e9"/>
    <path id="Path_15950" data-name="Path 15950" d="M3038.644,229.94c0-1.531-1.771-2.78-3.931-2.78h-15.7c-2.161,0-3.931,1.25-3.931,2.78v59.81c0,1.531,1.771,2.783,3.931,2.783h15.7c2.161,0,3.931-1.253,3.931-2.783Z" transform="translate(-329.239 -150.022)" fill="#c5d9e9"/>
    <path id="Path_15951" data-name="Path 15951" d="M2589.567,150.959a103.533,103.533,0,0,0,13.335-6.031,2.385,2.385,0,0,0,1.023-3.25,2.389,2.389,0,0,0-3.264-.973,98.287,98.287,0,0,1-12.712,5.757,2.391,2.391,0,1,0,1.619,4.5Zm28.881-15.275c3.938-2.543,7.927-5.238,11.943-8a2.391,2.391,0,0,0-2.709-3.938c-3.975,2.739-7.927,5.418-11.824,7.927a2.391,2.391,0,0,0,2.594,4.016Zm26.633-18.248c3.925-2.733,7.852-5.445,11.767-8.059a2.391,2.391,0,0,0-2.658-3.975c-3.938,2.631-7.893,5.36-11.852,8.127a2.4,2.4,0,0,0-.647.672,2.436,2.436,0,0,0-.342.869,2.412,2.412,0,0,0,.393,1.788,2.359,2.359,0,0,0,.674.647,2.387,2.387,0,0,0,2.655-.051ZM2671.831,99.9c4.2-2.462,8.36-4.693,12.441-6.6a2.382,2.382,0,0,0,1.148-3.181,2.342,2.342,0,0,0-.552-.751,2.415,2.415,0,0,0-.8-.482,2.392,2.392,0,0,0-1.828.084c-4.212,1.964-8.5,4.267-12.834,6.806a2.4,2.4,0,0,0-.728.612,2.393,2.393,0,0,0,.443,3.4,2.39,2.39,0,0,0,2.7.109Zm59.563-10.138c4.741,1.124,9.4,2.4,13.768,3.6a2.391,2.391,0,0,0,1.256-4.612c-4.419-1.205-9.143-2.5-13.921-3.637a2.391,2.391,0,1,0-1.1,4.653ZM2700.6,87.573a42.211,42.211,0,0,1,8.719-.975c1.571,0,3.187.074,4.825.207a2.407,2.407,0,0,0,.928-.109,2.393,2.393,0,0,0,1.646-2.085,2.451,2.451,0,0,0-.109-.927,2.394,2.394,0,0,0-2.086-1.647c-1.764-.142-3.5-.217-5.2-.217a46.959,46.959,0,0,0-9.695,1.077,2.366,2.366,0,0,0-.857.367,2.4,2.4,0,0,0-.654.668,2.432,2.432,0,0,0-.345.866,2.379,2.379,0,0,0,1.046,2.443,2.369,2.369,0,0,0,.864.347,2.4,2.4,0,0,0,.935-.011Z" transform="translate(-45.696 -53.897)" fill="#72b4e6" fill-rule="evenodd"/>
    <path id="Path_15954" data-name="Path 15954" d="M2617.565,640.615c55.855,0,101.135-4.324,101.135-9.657s-45.28-9.657-101.135-9.657-101.136,4.324-101.136,9.657S2561.71,640.615,2617.565,640.615Z" transform="translate(0.559 -410.699)" fill="#c5d9e9"/>
  </g>
</svg>
