<svg xmlns="http://www.w3.org/2000/svg" width="216.629" height="234.841" viewBox="0 0 216.629 234.841">
  <g id="Notification" transform="translate(22303 12135.79)">
    <g id="Group_30869" data-name="Group 30869" transform="translate(-22303 -12135.79)">
      <path id="Path_15955" data-name="Path 15955" d="M1507.682,164a20.384,20.384,0,0,1-20.331,20.324H1314.818A20.386,20.386,0,0,1,1294.49,164V32.557a20.39,20.39,0,0,1,20.328-20.327h172.534a20.384,20.384,0,0,1,20.324,20.327V164Z" transform="translate(-1294.49 -10.56)" fill="#fff"/>
      <path id="Path_15956" data-name="Path 15956" d="M1293.132,57.46V29.522a18.705,18.705,0,0,1,18.653-18.653h140.656a1.674,1.674,0,0,0,0-3.349H1311.785a22.06,22.06,0,0,0-22,22V57.46a1.692,1.692,0,0,0,.1.664,1.718,1.718,0,0,0,.359.57,1.672,1.672,0,0,0,2.421,0,1.718,1.718,0,0,0,.359-.57A1.687,1.687,0,0,0,1293.132,57.46Z" transform="translate(-1289.691 -7.52)" fill="#72b4e6" fill-rule="evenodd"/>
      <path id="Path_15957" data-name="Path 15957" d="M1833.964,10.869a18.705,18.705,0,0,1,18.653,18.653V143.064a1.692,1.692,0,0,0,.1.664,1.721,1.721,0,0,0,.359.57,1.673,1.673,0,0,0,2.421,0,1.721,1.721,0,0,0,.359-.57,1.687,1.687,0,0,0,.1-.664V29.522a22.068,22.068,0,0,0-22-22,1.674,1.674,0,0,0,0,3.349Z" transform="translate(-1639.337 -7.52)" fill="#72b4e6" fill-rule="evenodd"/>
      <path id="Path_15958" data-name="Path 15958" d="M1502.982,301.608a18.7,18.7,0,0,1-18.66,18.649H1311.788a18.7,18.7,0,0,1-18.653-18.649V227.344a1.674,1.674,0,0,0-3.345,0v74.264a22.06,22.06,0,0,0,22,21.991h172.534a22.066,22.066,0,0,0,22-22,1.687,1.687,0,0,0-.1-.664,1.716,1.716,0,0,0-.359-.57,1.673,1.673,0,0,0-2.421,0,1.72,1.72,0,0,0-.359.57,1.689,1.689,0,0,0-.1.664Z" transform="translate(-1289.695 -148.167)" fill="#72b4e6" fill-rule="evenodd"/>
    </g>
    <g id="notification-2" data-name="notification" transform="translate(-22394.332 -12242.613)">
      <path id="Path_15910" data-name="Path 15910" d="M226.474,368.608A20.787,20.787,0,0,0,246.81,352H206.129A20.8,20.8,0,0,0,226.474,368.608Zm0,0" transform="translate(-32.374 -107.529)" fill="#c5d9e9"/>
      <path id="Path_15911" data-name="Path 15911" d="M233,204.685h-.067A38.656,38.656,0,0,1,197.824,149.5c-1.223-.116-2.455-.191-3.711-.191a38.79,38.79,0,0,0-38.824,38.756V203.5a37.11,37.11,0,0,1-13.244,28.418,9.683,9.683,0,0,0-3.053,9.94c1.19,4.343,5.473,7.108,9.982,7.108h90.26c4.724,0,9.184-3.055,10.141-7.674a9.694,9.694,0,0,0-3.312-9.474A36.859,36.859,0,0,1,233,204.685Zm0,0" transform="translate(0 -10.251)" fill="#c5d9e9"/>
      <path id="Path_15912" data-name="Path 15912" d="M322.028,155.678A27.678,27.678,0,1,1,294.35,128,27.677,27.677,0,0,1,322.028,155.678Zm0,0" transform="translate(-61.384 0)" fill="#72b4e6"/>
    </g>
    <path id="Path_15960" data-name="Path 15960" d="M130.485,640.209c58.749,0,106.375-5.16,106.375-11.525S189.234,617.16,130.485,617.16,24.11,622.32,24.11,628.685,71.736,640.209,130.485,640.209Z" transform="translate(-22325.172 -12541.158)" fill="#c5d9e9"/>
  </g>
</svg>
