<svg id="project" xmlns="http://www.w3.org/2000/svg" width="149.432" height="192.358" viewBox="0 0 149.432 192.358">
  <path id="Path_15986" data-name="Path 15986" d="M168.967,140.979a12.582,12.582,0,0,1-12.548,12.546H49.346A12.58,12.58,0,0,1,36.8,140.979V19.658A12.583,12.583,0,0,1,49.346,7.11H156.416a12.588,12.588,0,0,1,12.551,12.548V140.979Z" transform="translate(-27.324 -5.229)" fill="#fff"/>
  <path id="Path_15987" data-name="Path 15987" d="M222.756,0V8.785a8.391,8.391,0,0,1-8.365,8.365H163.365A8.391,8.391,0,0,1,155,8.785V0Z" transform="translate(-114.246)" fill="#72b4e6"/>
  <path id="Path_15988" data-name="Path 15988" d="M229.8,207.173h62.318a1.574,1.574,0,1,0,0-3.146H229.8a1.574,1.574,0,0,0,0,3.146Z" transform="translate(-168.145 -150.036)" fill="#c5d9e9" fill-rule="evenodd"/>
  <path id="Path_15989" data-name="Path 15989" d="M229.632,260.494H291.95a1.572,1.572,0,0,0,0-3.144H229.632a1.572,1.572,0,0,0,0,3.144Z" transform="translate(-167.973 -189.25)" fill="#c5d9e9" fill-rule="evenodd"/>
  <path id="Path_15990" data-name="Path 15990" d="M122.508,214.437a5.607,5.607,0,0,1-5.591,5.589h-9.505a5.607,5.607,0,0,1-5.591-5.589v-9.508a5.608,5.608,0,0,1,5.591-5.589h9.505a5.608,5.608,0,0,1,5.591,5.589Z" transform="translate(-75.138 -146.591)" fill="#72b4e6"/>
  <path id="Path_15991" data-name="Path 15991" d="M229.8,368.353h62.318a1.575,1.575,0,1,0,0-3.146H229.8a1.574,1.574,0,0,0,0,3.146Z" transform="translate(-168.145 -268.564)" fill="#c5d9e9" fill-rule="evenodd"/>
  <path id="Path_15992" data-name="Path 15992" d="M229.632,421.664H291.95a1.572,1.572,0,0,0,0-3.144H229.632a1.572,1.572,0,0,0,0,3.144Z" transform="translate(-167.973 -307.771)" fill="#c5d9e9" fill-rule="evenodd"/>
  <path id="Path_15993" data-name="Path 15993" d="M122.508,375.607a5.607,5.607,0,0,1-5.591,5.591h-9.505a5.607,5.607,0,0,1-5.591-5.591V366.1a5.607,5.607,0,0,1,5.591-5.591h9.505a5.607,5.607,0,0,1,5.591,5.591Z" transform="translate(-75.138 -265.112)" fill="#72b4e6"/>
  <path id="Path_15994" data-name="Path 15994" d="M33.476,14.467A10.709,10.709,0,0,1,44.154,3.786H151.225a10.712,10.712,0,0,1,10.683,10.68v89.4a1.868,1.868,0,0,0,3.734,0v-89.4A14.459,14.459,0,0,0,151.225.05H44.154A14.459,14.459,0,0,0,29.74,14.467a1.868,1.868,0,0,0,3.736,0Z" transform="translate(-22.132 -0.037)" fill="#72b4e6" fill-rule="evenodd"/>
  <path id="Path_15995" data-name="Path 15995" d="M161.907,327.258a10.712,10.712,0,0,1-10.68,10.68H44.154a10.709,10.709,0,0,1-10.677-10.68v-64.97a1.868,1.868,0,1,0-3.736,0v64.97a14.456,14.456,0,0,0,14.414,14.414H151.227a14.456,14.456,0,0,0,14.414-14.414,1.868,1.868,0,1,0-3.734,0Z" transform="translate(-22.132 -191.508)" fill="#72b4e6" fill-rule="evenodd"/>
  <path id="Path_15996" data-name="Path 15996" d="M75.706,681.929c41.264,0,74.716-3.624,74.716-8.095s-33.451-8.095-74.716-8.095S.99,669.364.99,673.835,34.441,681.929,75.706,681.929Z" transform="translate(-0.99 -489.571)" fill="#c5d9e9"/>
</svg>
