<svg id="search" xmlns="http://www.w3.org/2000/svg" width="165.451" height="210.989" viewBox="0 0 165.451 210.989">
  <path id="Path_15978" data-name="Path 15978" d="M72.813,7.06a59.63,59.63,0,1,0,59.594,59.623A59.634,59.634,0,0,0,72.813,7.06Zm0,106.821a47.209,47.209,0,1,0-.006,0Z" transform="translate(-9.325 -4.991)" fill="#fff"/>
  <path id="Path_15979" data-name="Path 15979" d="M97.786,136.819A45.128,45.128,0,1,1,142.924,91.7a2.068,2.068,0,1,0,4.134,0,49.269,49.269,0,1,0-49.272,49.257,2.068,2.068,0,0,0,0-4.137Z" transform="translate(-34.304 -29.998)" fill="#72b4e6" fill-rule="evenodd"/>
  <path id="Path_15980" data-name="Path 15980" d="M6.13,61.692A61.677,61.677,0,1,0,67.822,0a2.068,2.068,0,0,0,0,4.137A57.539,57.539,0,1,1,10.267,61.692a2.068,2.068,0,0,0-4.137,0Z" transform="translate(-4.334)" fill="#72b4e6" fill-rule="evenodd"/>
  <path id="Path_15981" data-name="Path 15981" d="M354.57,374.364l24.215,23.791a18.341,18.341,0,1,0,25.935-25.938l-24.215-23.8Z" transform="translate(-250.685 -246.337)" fill="#c5d9e9"/>
  <path id="Path_15982" data-name="Path 15982" d="M352.521,369.424l22.739,22.346A16.255,16.255,0,0,0,402.944,378.7a2.069,2.069,0,1,1,4.119-.393,20.392,20.392,0,0,1-34.713,16.407l-24.215-23.791a2.051,2.051,0,0,1,0-2.93l25.935-25.944a2.068,2.068,0,0,1,2.912,0l7.711,7.58a2.069,2.069,0,0,1-2.9,2.95l-6.249-6.153Z" transform="translate(-245.7 -241.412)" fill="#72b4e6" fill-rule="evenodd"/>
  <path id="Path_15983" data-name="Path 15983" d="M355.424,329.884l-19.449,19.478L323.69,337.057l.293-.293a59.325,59.325,0,0,0,18.874-18.871l.27-.272Z" transform="translate(-228.853 -224.561)" fill="#fff"/>
  <path id="Path_15984" data-name="Path 15984" d="M339.112,315.734a61.47,61.47,0,0,1-18.335,17.688,2.071,2.071,0,0,1-2.192-3.516A57.274,57.274,0,0,0,336.8,311.694a2.092,2.092,0,0,1,.293-.372l.272-.27a2.069,2.069,0,0,1,2.93,0l12.294,12.3a2.072,2.072,0,0,1,0,2.93l-19.446,19.478a2.072,2.072,0,0,1-2.93-2.93L348.2,324.808Z" transform="translate(-224.554 -219.488)" fill="#72b4e6" fill-rule="evenodd"/>
  <path id="Path_15985" data-name="Path 15985" d="M82.725,676.875c45.688,0,82.725-4.013,82.725-8.963s-37.037-8.962-82.725-8.962S0,662.963,0,667.912,37.037,676.875,82.725,676.875Z" transform="translate(0 -465.885)" fill="#c5d9e9"/>
</svg>
