<svg id="Setting" xmlns="http://www.w3.org/2000/svg" width="175.014" height="218.118" viewBox="0 0 175.014 218.118">
  <path id="Path_15972" data-name="Path 15972" d="M170.8,99.324c-5.112-2.953-9.1-7.491-8.876-10.1V84.375c-.229-2.6,3.764-7.165,8.876-10.088s6.408-10.422,2.822-16.612l-12.6-21.821c-3.566-6.176-10.645-8.79-15.773-5.867s-11.074,4.207-13.275,2.747c-2.2-1.415-8.43-9.349-8.43-15.264S117.705,6.741,110.573,6.741H85.386c-7.129,0-12.963,4.811-12.963,10.728s-1.936,11.7-4.3,12.879-12.289,2.6-17.4-.362-12.2-.309-15.779,5.864l-12.6,21.822c-3.569,6.19-2.3,13.651,2.825,16.579s9.1,7.522,8.873,10.124V89.22c.231,2.611-3.764,7.149-8.873,10.1s-6.391,10.416-2.825,16.6l12.6,21.819c3.585,6.176,10.651,8.823,15.779,5.85S61.793,139.413,64,140.831c2.2,1.463,8.427,9.4,8.427,15.3s5.834,10.728,12.966,10.728h25.187c7.132,0,12.966-4.817,12.966-10.728s1.936-11.7,4.3-12.9,12.289-2.566,17.4.359,12.208.315,15.773-5.85l12.6-21.819C177.2,109.74,175.918,102.28,170.8,99.324ZM97.992,120.5a33.709,33.709,0,1,1,23.818-9.883A33.709,33.709,0,0,1,97.992,120.5Z" transform="translate(-14.365 -4.766)" fill="#fff"/>
  <path id="Path_15973" data-name="Path 15973" d="M199.357,225.738a31.717,31.717,0,1,1,26.978-15.044,1.967,1.967,0,1,0,3.343,2.07,35.659,35.659,0,1,0-30.321,16.907,1.967,1.967,0,1,0,0-3.934Z" transform="translate(-115.73 -111.958)" fill="#72b4e6" fill-rule="evenodd"/>
  <path id="Path_15974" data-name="Path 15974" d="M31.282,132.888v4.794H27.349v-5.017a4.436,4.436,0,0,0-1.178-2.507,22.7,22.7,0,0,0-6.708-5.747C13.486,121,11.748,112.356,15.9,105.144l12.6-21.827c4.179-7.19,12.483-9.993,18.451-6.589a1.968,1.968,0,0,1-1.95,3.418c-4.285-2.446-10.1-.022-13.094,5.14l-12.6,21.827c-2.978,5.171-2.184,11.447,2.109,13.9a25.216,25.216,0,0,1,8.734,8.057,6.884,6.884,0,0,1,1.114,3.819Z" transform="translate(-9.635 -53.229)" fill="#72b4e6" fill-rule="evenodd"/>
  <path id="Path_15975" data-name="Path 15975" d="M20.659,375.34l12.6,21.824c4.179,7.193,12.489,10.029,18.459,6.58a23.883,23.883,0,0,1,8.382-2.992,4.7,4.7,0,0,1,2.847.184,21.983,21.983,0,0,1,4.441,5.379c1.655,2.594,3.084,5.639,3.084,8.266,0,6.887,6.628,12.7,14.932,12.7H110.6c8.3,0,14.932-5.809,14.932-12.7a23.38,23.38,0,0,1,1.607-8.773,4.647,4.647,0,0,1,1.61-2.368,20.642,20.642,0,0,1,6.856-1.159c3.045-.111,6.408.164,8.684,1.468,5.967,3.441,14.3.607,18.454-6.591a1.965,1.965,0,0,0-3.4-1.964c-2.981,5.162-8.8,7.617-13.094,5.145-2.841-1.627-7-2.129-10.79-1.989a24.678,24.678,0,0,0-8.486,1.579,7.02,7.02,0,0,0-2.786,2.989,25.77,25.77,0,0,0-2.577,11.662c0,4.939-5.039,8.762-11,8.762H85.417c-5.959,0-11-3.819-11-8.762,0-3.276-1.671-7.14-3.691-10.363a25.1,25.1,0,0,0-5.616-6.575,7.149,7.149,0,0,0-4.006-.908,26.2,26.2,0,0,0-11.336,3.6c-4.29,2.477-10.1.019-13.094-5.143l-12.6-21.816a1.967,1.967,0,1,0-3.407,1.95Z" transform="translate(-14.384 -263.204)" fill="#72b4e6" fill-rule="evenodd"/>
  <path id="Path_15976" data-name="Path 15976" d="M280.91,79.656a7.071,7.071,0,0,1,1.115-3.817,24.9,24.9,0,0,1,8.739-8.023c4.282-2.474,5.1-8.75,2.1-13.929l-12.6-21.824c-2.984-5.162-8.812-7.586-13.094-5.148a25.745,25.745,0,0,1-11.352,3.622,7.069,7.069,0,0,1-3.97-.922,24.648,24.648,0,0,1-5.641-6.55c-2.02-3.207-3.694-7.087-3.694-10.369,0-4.945-5.037-8.762-11-8.762H206.329c-5.959,0-11,3.817-11,8.762a1.967,1.967,0,1,1-3.934,0C191.4,5.8,198.025,0,206.329,0h25.187c8.3,0,14.932,5.8,14.932,12.7,0,2.633,1.454,5.689,3.084,8.268a20.831,20.831,0,0,0,4.457,5.357,4.581,4.581,0,0,0,2.828.2A23.555,23.555,0,0,0,265.2,23.5c5.97-3.4,14.3-.6,18.451,6.591l12.623,21.838c4.179,7.21,2.424,15.857-3.549,19.306a22.462,22.462,0,0,0-6.714,5.716,4.361,4.361,0,0,0-1.176,2.491v5.19a4.356,4.356,0,0,0,1.173,2.493,22.878,22.878,0,0,0,6.725,5.736c5.964,3.444,7.711,12.091,3.541,19.287a1.965,1.965,0,1,1-3.4-1.969c2.989-5.165,2.173-11.442-2.106-13.91a25.256,25.256,0,0,1-8.739-8.037,6.848,6.848,0,0,1-1.115-3.819V79.681Zm0,.028v0Z" transform="translate(-135.322)" fill="#72b4e6" fill-rule="evenodd"/>
  <path id="Path_15977" data-name="Path 15977" d="M87.507,704.132c48.329,0,87.507-3.741,87.507-8.356s-39.178-8.356-87.507-8.356S0,691.161,0,695.776,39.178,704.132,87.507,704.132Z" transform="translate(0 -486.014)" fill="#c5d9e9"/>
</svg>
