<svg id="task" xmlns="http://www.w3.org/2000/svg" width="175.107" height="194" viewBox="0 0 175.107 194">
  <path id="Path_15997" data-name="Path 15997" d="M154.729,688.195c41.272,0,74.729-3.625,74.729-8.1S196,672,154.729,672,80,675.625,80,680.1,113.457,688.195,154.729,688.195Z" transform="translate(-59.053 -494.195)" fill="#c5d9e9"/>
  <path id="Path_15998" data-name="Path 15998" d="M16.614,130.906c-6.086,0-11.064-3.953-11.064-8.791V13.571c0-4.835,4.978-8.791,11.064-8.791H167.1c6.086,0,11.064,3.969,11.064,8.791V122.118c0,4.837-4.978,8.791-11.064,8.791Z" transform="translate(-4.304 -3.535)" fill="#fff"/>
  <path id="Path_15999" data-name="Path 15999" d="M163.637,2.564c5.332,0,9.817,3.308,9.817,7.544V118.655c0,4.234-4.5,7.547-9.817,7.547H13.15c-5.332,0-9.817-3.31-9.817-7.547V80.666a1.246,1.246,0,1,0-2.493,0v37.989c0,5.435,5.472,10.037,12.31,10.037H163.637c6.838,0,12.31-4.6,12.31-10.037V10.111c0-5.435-5.472-10.034-12.31-10.034a1.246,1.246,0,1,0,0,2.49Z" transform="translate(-0.84 -0.075)" fill="#72b4e6" fill-rule="evenodd"/>
  <path id="Path_16000" data-name="Path 16000" d="M3.333,64.386V10.114c0-4.234,4.5-7.544,9.817-7.544H149.141a1.246,1.246,0,0,0,0-2.49H13.15C6.312.08.84,4.679.84,10.114V64.388a1.246,1.246,0,1,0,2.493,0Z" transform="translate(-0.84 -0.079)" fill="#72b4e6" fill-rule="evenodd"/>
  <path id="Path_16001" data-name="Path 16001" d="M171.417,85.866a5.557,5.557,0,0,1-5.533,5.533H60.213a5.557,5.557,0,0,1-5.533-5.533V80.333A5.557,5.557,0,0,1,60.213,74.8H165.884a5.557,5.557,0,0,1,5.533,5.533Z" transform="translate(-40.433 -55.026)" fill="#c5d9e9"/>
  <path id="Path_16002" data-name="Path 16002" d="M171.417,225.946a5.557,5.557,0,0,1-5.533,5.533H60.213a5.557,5.557,0,0,1-5.533-5.533v-5.533a5.557,5.557,0,0,1,5.533-5.533H165.884a5.557,5.557,0,0,1,5.533,5.533Z" transform="translate(-40.433 -158.038)" fill="#c5d9e9"/>
  <path id="Path_16003" data-name="Path 16003" d="M171.417,366.034a5.557,5.557,0,0,1-5.533,5.533H60.213a5.557,5.557,0,0,1-5.533-5.533V360.5a5.557,5.557,0,0,1,5.533-5.531H165.884a5.557,5.557,0,0,1,5.533,5.531Z" transform="translate(-40.433 -261.057)" fill="#72b4e6"/>
  <path id="Path_16004" data-name="Path 16004" d="M89.258,85.866A5.557,5.557,0,0,1,83.725,91.4H60.213a5.557,5.557,0,0,1-5.533-5.533V80.333A5.557,5.557,0,0,1,60.213,74.8H83.725a5.557,5.557,0,0,1,5.533,5.533Z" transform="translate(-40.433 -55.026)" fill="#72b4e6"/>
  <path id="Path_16005" data-name="Path 16005" d="M131.306,225.946a5.557,5.557,0,0,1-5.533,5.533H60.213a5.557,5.557,0,0,1-5.533-5.533v-5.533a5.557,5.557,0,0,1,5.533-5.533h65.56a5.557,5.557,0,0,1,5.533,5.533Z" transform="translate(-40.433 -158.038)" fill="#72b4e6"/>
  <path id="Path_16006" data-name="Path 16006" d="M564.989,371.292l6.764-6.457a1.66,1.66,0,0,1,2.292,2.4l-8.113,7.745a1.664,1.664,0,0,1-2.477-.206l-3.318-4.414a1.662,1.662,0,0,1,2.646-1.993l2.2,2.932Z" transform="translate(-411.945 -267.975)" fill="#72b4e6" fill-rule="evenodd"/>
  <path id="Path_16007" data-name="Path 16007" d="M561.54,219.35a6.743,6.743,0,1,0,4.764,1.974,6.739,6.739,0,0,0-4.764-1.974Zm0,2.887a3.856,3.856,0,1,1-2.721,1.129,3.854,3.854,0,0,1,2.721-1.129Z" transform="translate(-408.21 -161.325)" fill="#72b4e6" fill-rule="evenodd"/>
  <path id="Path_16008" data-name="Path 16008" d="M561.54,83.45a6.743,6.743,0,1,0,4.765,1.975A6.739,6.739,0,0,0,561.54,83.45Zm0,2.887a3.856,3.856,0,1,1-2.722,1.13,3.853,3.853,0,0,1,2.722-1.13Z" transform="translate(-408.21 -61.387)" fill="#72b4e6" fill-rule="evenodd"/>
</svg>
