<svg xmlns="http://www.w3.org/2000/svg" xmlns:xlink="http://www.w3.org/1999/xlink" width="211.607" height="233.052" viewBox="0 0 211.607 233.052">
  <defs>
    <clipPath id="clip-path">
      <rect id="Rectangle_13679" data-name="Rectangle 13679" width="139.558" height="123.065" fill="none"/>
    </clipPath>
  </defs>
  <g id="User_group" data-name="User group" transform="translate(-1289.785 -7.52)">
    <path id="Path_15937" data-name="Path 15937" d="M1502.833,160.543a19.92,19.92,0,0,1-19.869,19.861H1314.355a19.922,19.922,0,0,1-19.865-19.861V32.095a19.926,19.926,0,0,1,19.865-19.865h168.609a19.92,19.92,0,0,1,19.862,19.865V160.543Z" transform="translate(-3.071 -3.074)" fill="#fff"/>
    <path id="Path_15938" data-name="Path 15938" d="M1293.056,56.324v-27.3a18.28,18.28,0,0,1,18.229-18.229h137.457a1.636,1.636,0,0,0,0-3.273H1311.284a21.558,21.558,0,0,0-21.5,21.5v27.3a1.652,1.652,0,0,0,.1.649,1.681,1.681,0,0,0,.351.557,1.634,1.634,0,0,0,2.366,0,1.677,1.677,0,0,0,.351-.557A1.648,1.648,0,0,0,1293.056,56.324Z" fill="#72b4e6" fill-rule="evenodd"/>
    <path id="Path_15939" data-name="Path 15939" d="M1833.926,10.793a18.28,18.28,0,0,1,18.229,18.229v110.96a1.652,1.652,0,0,0,.1.649,1.681,1.681,0,0,0,.351.557,1.634,1.634,0,0,0,2.366,0,1.681,1.681,0,0,0,.351-.557,1.65,1.65,0,0,0,.1-.649V29.021a21.566,21.566,0,0,0-21.5-21.5,1.636,1.636,0,0,0,0,3.273Z" transform="translate(-354.033)" fill="#72b4e6" fill-rule="evenodd"/>
    <path id="Path_15940" data-name="Path 15940" d="M1498.133,299.882a18.277,18.277,0,0,1-18.236,18.225H1311.288a18.275,18.275,0,0,1-18.229-18.225V227.308a1.636,1.636,0,0,0-3.269,0v72.574a21.558,21.558,0,0,0,21.5,21.491H1479.9a21.564,21.564,0,0,0,21.5-21.5,1.65,1.65,0,0,0-.1-.649,1.679,1.679,0,0,0-.351-.557,1.634,1.634,0,0,0-2.366,0,1.68,1.68,0,0,0-.351.557,1.65,1.65,0,0,0-.1.649Z" transform="translate(-0.003 -142.412)" fill="#72b4e6" fill-rule="evenodd"/>
    <path id="Path_15953" data-name="Path 15953" d="M1406.752,638.415c54.175,0,98.092-4.758,98.092-10.627s-43.916-10.627-98.092-10.627-98.092,4.758-98.092,10.627S1352.576,638.415,1406.752,638.415Z" transform="translate(-12.318 -397.844)" fill="#c5d9e9"/>
    <g id="Group_30875" data-name="Group 30875" transform="translate(1326.218 13.771)">
      <g id="Group_19784" data-name="Group 19784" transform="translate(-0.408 -0.697)">
        <g id="Group_19787" data-name="Group 19787">
          <g id="Group_19786" data-name="Group 19786" clip-path="url(#clip-path)">
            <path id="Path_10195" data-name="Path 10195" d="M267.775,180.777A4.889,4.889,0,1,1,262.887,176a4.835,4.835,0,0,1,4.888,4.777" transform="translate(-162.392 -110.249)" fill="#f3f3f1"/>
            <path id="Path_10196" data-name="Path 10196" d="M97.107,180.777A4.889,4.889,0,1,1,92.22,176a4.834,4.834,0,0,1,4.887,4.777" transform="translate(-54.282 -110.249)" fill="#f3f3f1"/>
            <path id="Path_10197" data-name="Path 10197" d="M179.594,168.6a8.8,8.8,0,1,1-8.8-8.6,8.7,8.7,0,0,1,8.8,8.6" transform="translate(-101.581 -99.982)" fill="#fff"/>
            <path id="Path_10198" data-name="Path 10198" d="M172.476,256.244v-8.6A7.732,7.732,0,0,0,164.655,240h-21.5a7.732,7.732,0,0,0-7.821,7.644v8.6Z" transform="translate(-84.688 -151.315)" fill="#f3f3f1"/>
            <path id="Path_10199" data-name="Path 10199" d="M262.081,241.755v-4.777a7.732,7.732,0,0,0-7.819-7.645h-9.775a7.732,7.732,0,0,0-7.819,7.645v4.777Z" transform="translate(-148.88 -144.47)" fill="#f3f3f1"/>
            <path id="Path_10200" data-name="Path 10200" d="M91.413,241.755v-4.777a7.732,7.732,0,0,0-7.819-7.645H73.819A7.732,7.732,0,0,0,66,236.977v4.777Z" transform="translate(-40.769 -144.47)" fill="#f3f3f1"/>
            <path id="Path_10202" data-name="Path 10202" d="M266.8,180.777a4.6,4.6,0,0,1,.488-2.01,4.778,4.778,0,1,0,0,4.021,4.6,4.6,0,0,1-.488-2.011" transform="translate(-162.392 -110.249)" fill="#fff"/>
            <path id="Path_10203" data-name="Path 10203" d="M96.129,180.777a4.581,4.581,0,0,1,.49-2.01,4.778,4.778,0,1,0,0,4.021,4.582,4.582,0,0,1-.49-2.011" transform="translate(-54.282 -110.249)" fill="#fff"/>
            <path id="Path_10204" data-name="Path 10204" d="M170.8,168.6a8.529,8.529,0,0,1,4.4-7.407A8.871,8.871,0,0,0,170.8,160a8.6,8.6,0,1,0,0,17.2,8.871,8.871,0,0,0,4.4-1.193,8.53,8.53,0,0,1-4.4-7.407" transform="translate(-101.581 -99.982)" fill="#fff"/>
            <path id="Path_10205" data-name="Path 10205" d="M151.95,240h-8.8a7.732,7.732,0,0,0-7.821,7.644v8.6h8.8v-8.6A7.732,7.732,0,0,1,151.95,240" transform="translate(-84.688 -151.315)" fill="#d5dbe1"/>
            <path id="Path_10206" data-name="Path 10206" d="M253.284,229.332h-8.8a7.732,7.732,0,0,0-7.819,7.645v4.777h8.8v-4.777a7.732,7.732,0,0,1,7.819-7.645" transform="translate(-148.88 -144.47)" fill="#d5dbe1"/>
            <path id="Path_10207" data-name="Path 10207" d="M82.616,229.332h-8.8A7.732,7.732,0,0,0,66,236.977v4.777h8.8v-4.777a7.732,7.732,0,0,1,7.819-7.645" transform="translate(-40.769 -144.47)" fill="#d5dbe1"/>
            <path id="Path_10209" data-name="Path 10209" d="M257.819,183.289a7.647,7.647,0,1,1,7.821-7.645,7.741,7.741,0,0,1-7.821,7.645m0-9.556a1.912,1.912,0,1,0,1.956,1.911,1.935,1.935,0,0,0-1.956-1.911" transform="translate(-157.325 -105.115)" fill="#72b4e6"/>
            <path id="Path_10210" data-name="Path 10210" d="M273.459,236.621h-5.865v-4.777a4.84,4.84,0,0,0-4.887-4.779H250v-5.733h12.707a10.642,10.642,0,0,1,10.751,10.512Z" transform="translate(-157.325 -139.337)" fill="#72b4e6"/>
            <path id="Path_10211" data-name="Path 10211" d="M87.153,183.289a7.647,7.647,0,1,1,7.819-7.645,7.743,7.743,0,0,1-7.819,7.645m0-9.556a1.912,1.912,0,1,0,1.954,1.911,1.935,1.935,0,0,0-1.954-1.911" transform="translate(-49.214 -105.115)" fill="#72b4e6"/>
            <path id="Path_10212" data-name="Path 10212" d="M63.865,236.621H58v-4.777a10.642,10.642,0,0,1,10.751-10.512H81.459v5.733H68.751a4.84,4.84,0,0,0-4.887,4.779Z" transform="translate(-35.701 -139.337)" fill="#72b4e6"/>
            <path id="Path_10213" data-name="Path 10213" d="M165.729,174.933a11.47,11.47,0,1,1,11.729-11.467,11.613,11.613,0,0,1-11.729,11.467m0-17.2a5.735,5.735,0,1,0,5.865,5.733,5.808,5.808,0,0,0-5.865-5.733" transform="translate(-96.513 -94.849)" fill="#72b4e6"/>
            <path id="Path_10214" data-name="Path 10214" d="M170.341,251.111h-5.865v-8.6a4.84,4.84,0,0,0-4.888-4.777h-21.5a4.84,4.84,0,0,0-4.888,4.777v8.6h-5.865v-8.6A10.643,10.643,0,0,1,138.085,232h21.5a10.643,10.643,0,0,1,10.753,10.511Z" transform="translate(-79.62 -146.182)" fill="#72b4e6"/>
            <rect id="Rectangle_13678" data-name="Rectangle 13678" width="125.114" height="5.733" transform="translate(6.659 99.195)" fill="#c5d9e9"/>
          </g>
        </g>
      </g>
    </g>
  </g>
</svg>
