<svg width="80" height="80" viewBox="0 0 80 80" fill="none" xmlns="http://www.w3.org/2000/svg">
<rect width="80" height="80" rx="40" fill="#EBF5FF"/>
<path fill-rule="evenodd" clip-rule="evenodd" d="M26.8 34.6C28.3464 34.6 29.6 33.3464 29.6 31.8C29.6 30.2536 28.3464 29 26.8 29C25.2536 29 24 30.2536 24 31.8C24 33.3464 25.2536 34.6 26.8 34.6ZM26.8 36.6C29.451 36.6 31.6 34.451 31.6 31.8C31.6 29.149 29.451 27 26.8 27C24.149 27 22 29.149 22 31.8C22 34.451 24.149 36.6 26.8 36.6Z" fill="#399CFF"/>
<path fill-rule="evenodd" clip-rule="evenodd" d="M26.8 51.6C28.3464 51.6 29.6 50.3464 29.6 48.8C29.6 47.2536 28.3464 46 26.8 46C25.2536 46 24 47.2536 24 48.8C24 50.3464 25.2536 51.6 26.8 51.6ZM26.8 53.6C29.451 53.6 31.6 51.451 31.6 48.8C31.6 46.149 29.451 44 26.8 44C24.149 44 22 46.149 22 48.8C22 51.451 24.149 53.6 26.8 53.6Z" fill="#399CFF"/>
<path fill-rule="evenodd" clip-rule="evenodd" d="M34.8984 46C34.8984 45.1716 35.57 44.5 36.3984 44.5H57.9984C58.8269 44.5 59.4984 45.1716 59.4984 46C59.4984 46.8284 58.8269 47.5 57.9984 47.5H36.3984C35.57 47.5 34.8984 46.8284 34.8984 46ZM34.8984 51.8C34.8984 50.9716 35.57 50.3 36.3984 50.3H45.9984C46.8269 50.3 47.4984 50.9716 47.4984 51.8C47.4984 52.6284 46.8269 53.3 45.9984 53.3H36.3984C35.57 53.3 34.8984 52.6284 34.8984 51.8Z" fill="#399CFF"/>
<path fill-rule="evenodd" clip-rule="evenodd" d="M34.8984 28.5C34.8984 27.6716 35.57 27 36.3984 27H57.9984C58.8269 27 59.4984 27.6716 59.4984 28.5C59.4984 29.3284 58.8269 30 57.9984 30H36.3984C35.57 30 34.8984 29.3284 34.8984 28.5ZM34.8984 34.3C34.8984 33.4716 35.57 32.8 36.3984 32.8H45.9984C46.8269 32.8 47.4984 33.4716 47.4984 34.3C47.4984 35.1284 46.8269 35.8 45.9984 35.8H36.3984C35.57 35.8 34.8984 35.1284 34.8984 34.3Z" fill="#399CFF"/>
<path fill-rule="evenodd" clip-rule="evenodd" d="M26.7969 35.1992C27.3492 35.1992 27.7969 35.6469 27.7969 36.1992L27.7969 43.7992C27.7969 44.3515 27.3492 44.7992 26.7969 44.7992C26.2446 44.7992 25.7969 44.3515 25.7969 43.7992L25.7969 36.1992C25.7969 35.6469 26.2446 35.1992 26.7969 35.1992Z" fill="#399CFF"/>
</svg>
