<svg xmlns="http://www.w3.org/2000/svg" width="15.085" height="16.162" viewBox="0 0 15.085 16.162">
  <g id="Group_18191" data-name="Group 18191" transform="translate(-792 -360)">
    <path id="Path_9523" data-name="Path 9523" d="M805.041,361.077h-.65v-.539a.539.539,0,1,0-1.078,0v.539h-3.232v-.539a.539.539,0,1,0-1.078,0v.539h-3.232v-.539a.539.539,0,1,0-1.078,0v.539h-.65A2.047,2.047,0,0,0,792,363.121v11a2.047,2.047,0,0,0,2.044,2.044h11a2.047,2.047,0,0,0,2.044-2.044v-11a2.047,2.047,0,0,0-2.044-2.044Zm.966,13.041a.97.97,0,0,1-.966.966h-11a.97.97,0,0,1-.966-.966v-11a.97.97,0,0,1,.966-.966h.65v.539a.539.539,0,1,0,1.078,0v-.539H799v.539a.539.539,0,1,0,1.078,0v-.539h3.232v.539a.539.539,0,1,0,1.078,0v-.539h.65a.97.97,0,0,1,.966.966Zm0,0" fill="#2196f3"/>
    <path id="Path_9524" data-name="Path 9524" d="M854.71,480.3l-1.235,1.235-.7-.7a.539.539,0,1,0-.762.762l1.077,1.077a.539.539,0,0,0,.762,0l1.616-1.616a.539.539,0,0,0-.762-.762Zm0,0" transform="translate(-57.165 -114.755)" fill="#2196f3"/>
    <path id="Path_9525" data-name="Path 9525" d="M964.31,504h-3.771a.539.539,0,1,0,0,1.077h3.771a.539.539,0,1,0,0-1.077Zm0,0" transform="translate(-160.458 -137.535)" fill="#2196f3"/>
    <path id="Path_9526" data-name="Path 9526" d="M854.71,588.3l-1.235,1.235-.7-.7a.539.539,0,1,0-.762.762l1.077,1.077a.539.539,0,0,0,.762,0l1.616-1.616a.539.539,0,0,0-.762-.762Zm0,0" transform="translate(-57.165 -217.906)" fill="#2196f3"/>
    <path id="Path_9527" data-name="Path 9527" d="M964.31,612h-3.771a.539.539,0,1,0,0,1.077h3.771a.539.539,0,1,0,0-1.077Zm0,0" transform="translate(-160.458 -240.687)" fill="#2196f3"/>
  </g>
</svg>
