<svg width="400" height="465" viewBox="0 0 400 465" fill="none" xmlns="http://www.w3.org/2000/svg">
<g clip-path="url(#clip0_5442_92285)">
<path d="M148.755 260.611C147.388 259.006 145.689 257.717 143.775 256.833C141.861 255.949 139.777 255.491 137.669 255.491C135.561 255.491 133.478 255.949 131.564 256.833C129.65 257.717 127.95 259.006 126.583 260.611C126.552 260.647 126.521 260.685 126.491 260.721C122.454 265.532 120.175 272.31 122.31 278.217C123.406 281.252 125.605 284.001 125.626 287.226C125.662 292.693 119.802 295.988 116.544 300.375C114.985 302.523 114.001 305.034 113.683 307.668C113.366 310.303 113.725 312.975 114.729 315.432C116.647 319.988 120.83 323.928 120.484 328.858C120.256 332.102 118.072 334.825 116.003 337.332C112.715 341.319 109.422 345.423 107.514 350.228C105.607 355.033 105.253 360.716 107.783 365.221C109.869 368.941 113.764 371.686 114.753 375.835C115.725 379.909 113.587 384.029 113.205 388.202C112.484 396.073 118.663 403.614 126.295 405.646C129.657 406.508 133.18 406.524 136.55 405.693C137.287 405.52 138.054 405.52 138.791 405.693C142.161 406.524 145.684 406.508 149.046 405.646C156.678 403.61 162.857 396.069 162.136 388.202C161.756 384.029 159.616 379.909 160.588 375.835C161.577 371.686 165.472 368.941 167.56 365.221C170.089 360.713 169.734 355.029 167.827 350.228C165.919 345.427 162.626 341.319 159.338 337.332C157.269 334.825 155.085 332.102 154.857 328.858C154.511 323.928 158.695 319.988 160.612 315.432C161.616 312.975 161.975 310.303 161.658 307.668C161.34 305.034 160.356 302.523 158.797 300.375C155.539 295.988 149.679 292.693 149.715 287.226C149.738 284.001 151.938 281.252 153.031 278.217C155.164 272.306 152.887 265.53 148.85 260.721L148.755 260.611Z" fill="#EBF5FF"/>
<path d="M137.876 262.187H136.695V435.996H137.876V262.187Z" fill="#348EE8"/>
<path d="M128.81 275.047L127.84 275.72L136.891 288.765L137.861 288.091L128.81 275.047Z" fill="#348EE8"/>
<path d="M124.229 307.498L123.18 308.042L136.834 334.402L137.884 333.858L124.229 307.498Z" fill="#348EE8"/>
<path d="M129.259 308.03L128.078 308.052L128.25 317.09L129.431 317.068L129.259 308.03Z" fill="#348EE8"/>
<path d="M137.8 360.617L136.918 359.832L155.66 338.686L156.542 339.47L137.8 360.617Z" fill="#348EE8"/>
<path d="M146.29 350.454L145.137 350.209L148.267 335.281L149.42 335.526L146.29 350.454Z" fill="#348EE8"/>
<path d="M136.649 384.116L119.52 359.648L120.485 358.97L137.617 383.438L136.649 384.116Z" fill="#348EE8"/>
<path d="M124.091 365.593L120.703 350.108L121.856 349.854L125.244 365.339L124.091 365.593Z" fill="#348EE8"/>
<path d="M155.277 366.417L136.891 395.369L137.886 396.001L156.272 367.05L155.277 366.417Z" fill="#348EE8"/>
<path d="M151.278 374.671L150.125 374.422L152.07 365.339L153.223 365.589L151.278 374.671Z" fill="#348EE8"/>
<path d="M137.887 293.804L136.926 293.117L147.017 278.988L147.979 279.676L137.887 293.804Z" fill="#348EE8"/>
<path d="M145.222 272.675L143.879 283.665L145.049 283.808L146.393 272.818L145.222 272.675Z" fill="#348EE8"/>
<path d="M154.214 431.936H118.956C116.487 431.936 114.484 433.938 114.484 436.408V459.691C114.484 462.161 116.487 464.163 118.956 464.163H154.214C156.684 464.163 158.686 462.161 158.686 459.691V436.408C158.686 433.938 156.684 431.936 154.214 431.936Z" fill="#C2E0FF"/>
<path d="M181.618 463.226H340.922C355.822 463.226 368.016 450.013 368.157 433.713L371.209 82.6825C371.353 66.383 359.387 53.1702 344.488 53.1702H185.184C170.284 53.1702 158.09 66.383 157.949 82.6825L154.896 433.709C154.754 450.013 166.717 463.226 181.618 463.226Z" fill="#18426B"/>
<path d="M157.458 117.81C157.524 117.81 157.586 117.826 157.651 117.83L157.412 145.331C157.347 145.331 157.285 145.352 157.219 145.352C156.786 145.352 156.358 145.266 155.958 145.1C155.559 144.934 155.196 144.691 154.891 144.384C154.586 144.077 154.345 143.713 154.181 143.312C154.017 142.912 153.935 142.483 153.938 142.05L154.119 121.111C154.132 120.233 154.489 119.395 155.114 118.778C155.738 118.161 156.58 117.813 157.458 117.81V117.81Z" fill="#18426B"/>
<path d="M156.631 147.615C156.888 147.617 157.143 147.65 157.391 147.713L157.153 175.058C156.904 175.121 156.649 175.154 156.392 175.157C155.959 175.157 155.531 175.071 155.132 174.905C154.732 174.739 154.369 174.495 154.064 174.188C153.759 173.882 153.518 173.518 153.354 173.117C153.19 172.717 153.107 172.288 153.109 171.855L153.293 150.916C153.305 150.038 153.662 149.2 154.287 148.583C154.911 147.966 155.753 147.618 156.631 147.615Z" fill="#18426B"/>
<path d="M343.966 60.6885H185.915C174.35 60.6885 164.885 71.1362 164.776 84.0247L164.662 97.1914L164.208 150.021L163.993 174.962L163.918 183.743L163.285 257.388L163.217 265.193L162.599 337.067L162.557 341.946L162.201 383.412L162.159 388.291L161.809 428.982C161.809 429.737 161.832 430.484 161.888 431.222C162.014 432.872 162.3 434.506 162.743 436.101C165.364 445.506 173.211 452.317 182.547 452.317H340.598C343.422 452.316 346.21 451.69 348.764 450.484C353.593 448.129 357.419 444.12 359.546 439.186C360.97 435.971 361.716 432.498 361.739 428.982L363.144 265.467L363.211 257.66L363.433 231.834L363.921 175.079L364.4 119.452L364.704 84.0204C364.815 71.1305 355.529 60.6885 343.966 60.6885Z" fill="#4DB4E8"/>
<path d="M99.9773 191.615H87.4175L85.3242 167.67H101.885L99.9773 191.615Z" fill="#374151"/>
<path d="M98.4111 173.676H92.8073C91.8415 173.676 91.0586 174.459 91.0586 175.425V177.893C91.0586 178.859 91.8415 179.642 92.8073 179.642H98.4111C99.3769 179.642 100.16 178.859 100.16 177.893V175.425C100.16 174.459 99.3769 173.676 98.4111 173.676Z" fill="#F9DDAF"/>
<path d="M102.115 167.67H85.2761C85.0226 167.67 84.7795 167.569 84.6003 167.39C84.421 167.211 84.3203 166.968 84.3203 166.714C84.3203 166.461 84.421 166.217 84.6003 166.038C84.7795 165.859 85.0226 165.758 85.2761 165.758H102.115C102.368 165.758 102.611 165.859 102.791 166.038C102.97 166.217 103.071 166.461 103.071 166.714C103.071 166.968 102.97 167.211 102.791 167.39C102.611 167.569 102.368 167.67 102.115 167.67V167.67Z" fill="#F9DDAF"/>
<path d="M95.137 162.399H99.6725C100.055 162.399 100.422 162.551 100.692 162.822C100.962 163.092 101.114 163.459 101.114 163.841V165.874C101.114 166.256 100.962 166.623 100.692 166.893C100.422 167.164 100.055 167.315 99.6725 167.315H95.137C94.7546 167.315 94.3879 167.164 94.1176 166.893C93.8472 166.623 93.6953 166.256 93.6953 165.874V163.841C93.6953 163.459 93.8472 163.092 94.1176 162.822C94.3879 162.551 94.7546 162.399 95.137 162.399V162.399Z" fill="#F9DDAF"/>
<path d="M53.332 433.117C56.6478 414.575 61.1761 396.392 65.8514 378.068C66.1109 377.049 67.1273 374.192 67.3695 373.227L87.1693 375.296C83.1154 389.121 65.7678 431.832 60.0228 456.368C59.3697 459.16 52.1152 459.206 50.5597 455.016C49.6745 452.625 51.1724 445.852 51.6424 442.512C52.0893 439.332 52.7741 436.241 53.332 433.117Z" fill="#FF9985"/>
<path d="M25.7805 374.745L45.7201 374.921C38.4614 429.391 32.4683 454.396 31.7691 455.481C28.1318 461.125 22.5425 461.969 21.0821 456.28C20.3742 453.513 21.5636 445.664 22.1071 440.076C24.3864 416.644 25.6911 395.972 25.7805 374.745Z" fill="#FF9985"/>
<path d="M50.4349 297.27C60.3079 296.823 69.9751 294.296 78.804 289.854C79.5899 289.489 80.2552 288.908 80.7216 288.177C81.188 287.447 81.436 286.599 81.4365 285.732C86.1219 302.232 91.792 329.49 92.04 346.411C92.0491 353.79 91.0638 361.136 89.1105 368.252C88.6982 369.885 88.2368 371.568 87.7467 373.298C87.5607 373.954 87.3632 374.624 87.17 375.296C87.17 375.296 63.3825 373.133 55.7518 375.018C41.6048 378.519 25.7825 374.752 25.7825 374.752C25.7537 346.119 23.4339 317.534 18.8452 289.27C18.7976 288.982 19.9538 288.666 19.9235 288.387H20.1585C20.1961 288.52 20.2404 288.651 20.2912 288.78C24.7358 293.2 30.4016 297.842 50.4349 297.27Z" fill="#4DB4E8"/>
<path d="M122.457 198.141C112.757 206.588 102.589 214.482 92.0014 221.784C91.8111 221.915 91.5926 221.999 91.3637 222.029C91.1348 222.059 90.9021 222.034 90.6846 221.957C90.4671 221.879 90.271 221.752 90.1125 221.584C89.954 221.416 89.8375 221.213 89.7726 220.992C87.4573 214.983 85.3726 211.654 84.6114 205.302C78.2522 207.966 74.3511 208.945 68.3984 208.459L81.4772 235.995C81.7091 236.742 82.1231 237.42 82.6822 237.968C83.2412 238.516 83.9277 238.916 84.6798 239.133C85.4319 239.349 86.226 239.375 86.9907 239.208C87.7554 239.042 88.4666 238.687 89.0604 238.178C106.669 226.509 114.339 214.678 125.895 201.812C122.715 200.701 124.413 200.697 122.457 198.141Z" fill="#FF9985"/>
<path d="M76.4025 179.502L87.1457 205.381C87.5881 206.428 87.7628 207.568 87.6538 208.698C87.5448 209.829 87.1556 210.915 86.5215 211.857C84.4484 214.885 80.0773 218.737 71.1245 219.27C71.1245 219.27 61.1987 192.102 76.4025 179.502Z" fill="#FBE9DC"/>
<path d="M56.1343 206.252C54.7733 200.798 53.6589 195.239 52.7651 190.267C50.2768 176.427 32.3468 177.022 27.4336 186.867L38.9669 213.121C44.9801 214.058 50.8361 210.671 56.1343 206.252Z" fill="#267067"/>
<path d="M79.9074 243.065C78.0202 220.331 81.9257 205.835 80.993 194.012C80.9953 193.547 80.9577 193.082 80.8805 192.624C80.7789 191.979 80.6412 191.341 80.4682 190.712C80.4682 190.686 80.4595 190.659 80.4538 190.633C79.9838 188.942 79.4734 186.968 78.8679 185C77.5068 180.54 74.9286 176.549 71.4232 173.474C58.8706 162.49 46.7707 167.139 38.4437 172.427L35.5776 174.342C22.0764 183.36 27.1006 203.997 27.1006 203.997C28.7773 214.048 31.9836 218.887 32.2906 230.091C32.8586 251.24 18.6222 257.102 17.7774 280.304C17.7774 280.304 17.2944 290.641 20.123 293.279C28.2266 300.825 34.7285 302.712 44.6875 299.649C59.4213 295.115 69.4986 298.399 80.0198 293.389C81.2862 292.776 82.3595 291.826 83.1223 290.644C83.8852 289.461 84.3081 288.092 84.3448 286.685C85.0325 263.663 82.24 271.161 79.9074 243.065Z" fill="#FBE9DC"/>
<path d="M57.2492 167.927C53.7307 167.6 50.2192 168.619 47.4229 170.78C46.9634 171.135 46.5931 171.592 46.3414 172.115C46.0897 172.638 45.9636 173.213 45.9732 173.794C45.9827 174.374 46.1275 174.944 46.3962 175.459C46.6649 175.974 47.05 176.419 47.5209 176.758C50.6637 179.569 53.7585 182.418 56.8052 185.306C58.5727 186.983 61.5122 186.778 62.4464 184.904C64.1908 181.724 65.7232 178.432 67.0338 175.05C68.6139 171.182 61.3955 168.388 57.2492 167.927Z" fill="#FF9985"/>
<path d="M84.4771 186.719C83.787 187.894 83.0936 189.076 82.3968 190.264C75.9093 201.323 69.2041 212.754 62.1947 222.329L60.7978 224.235C60.675 224.405 60.5093 224.54 60.3176 224.625C60.1259 224.71 59.915 224.743 59.7065 224.72C59.498 224.697 59.2993 224.619 59.1306 224.495C58.9619 224.37 58.8293 224.203 58.7463 224.01C57.5742 221.271 55.5011 216.469 55.0311 215.558L40.4141 223.553C50.7436 244.085 55.0715 253.893 62.0635 244.661C75.6599 226.723 81.7826 209.079 88.3797 193.493C88.9823 192.069 89.5647 190.595 90.1356 189.259C87.9879 189.193 85.9534 188.28 84.4771 186.719V186.719Z" fill="#FF9985"/>
<path d="M84.3783 184.82C83.5479 186.426 81.9505 189.676 82.0557 191.481C82.161 193.286 81.9952 192.999 83.5219 193.968C84.4007 194.529 85.432 194.803 86.4736 194.753C87.5151 194.703 88.5153 194.331 89.3361 193.688C91.6169 192.275 96.135 186.298 96.6166 183.658C97.1601 180.671 97.9285 178.552 94.2147 178.468C87.2443 178.314 85.7277 182.214 84.3783 184.82Z" fill="#FF9985"/>
<path d="M27.7097 204.661L35.0031 223.039C35.2644 223.653 35.6487 224.206 36.1323 224.666C36.6158 225.125 37.1884 225.481 37.8146 225.71C38.4409 225.94 39.1075 226.039 39.7735 226.001C40.4394 225.963 41.0906 225.789 41.6867 225.49L56.2806 218.156C57.3936 217.599 58.2513 216.637 58.678 215.468C59.1047 214.299 59.0681 213.011 58.5758 211.867C54.8274 203.177 47.5744 185.553 47.5744 185.553L34.0228 189.722C27.7659 191.644 25.1378 198.636 27.7097 204.661Z" fill="#FBE9DC"/>
<path d="M57.8095 217.908C58.1759 217.514 58.4282 217.027 58.5392 216.5C58.6502 215.973 58.6157 215.426 58.4395 214.917L49.2647 188.791C49.2425 188.727 49.2079 188.668 49.163 188.617C49.118 188.567 49.0635 188.526 49.0025 188.496C48.9416 188.467 48.8755 188.45 48.8079 188.446C48.7403 188.442 48.6726 188.451 48.6088 188.474C48.4808 188.52 48.3761 188.615 48.3171 188.737C48.2581 188.86 48.2495 189.001 48.293 189.13L57.4663 215.257C57.6254 215.712 57.608 216.21 57.4178 216.653C57.2275 217.096 56.878 217.452 56.4384 217.65L51.8006 219.733C51.6773 219.791 51.5815 219.895 51.5333 220.022C51.4851 220.149 51.4884 220.29 51.5425 220.415C51.5992 220.539 51.7026 220.636 51.8303 220.685C51.9581 220.733 52.0997 220.729 52.2244 220.673L56.8623 218.59C57.2209 218.429 57.5431 218.197 57.8095 217.908V217.908Z" fill="#F9CDAF"/>
<path d="M122.485 189.648C122.798 189.684 123.085 189.843 123.282 190.089C123.48 190.336 123.571 190.651 123.537 190.965L123.025 197.019C123.006 197.335 122.863 197.63 122.627 197.84C122.392 198.049 122.082 198.157 121.767 198.14C121.131 198.086 120.613 197.874 120.673 197.204L121.225 190.771C121.244 190.456 121.387 190.16 121.623 189.95C121.859 189.739 122.169 189.631 122.485 189.648Z" fill="#FF9985"/>
<path d="M129.432 203.144C131.338 201.895 133.842 200.651 131.191 195.37C129.212 191.43 125.07 192.718 122.877 194.735C120.846 196.475 119.42 198.814 118.803 201.417C118.022 204.573 119.631 205.527 124.059 204.8C125.959 204.696 127.804 204.127 129.432 203.144V203.144Z" fill="#FF9985"/>
<path d="M50.3149 452.399C50.3567 452.255 50.5903 452.067 50.9305 451.881C51.8536 453.37 53.0702 454.655 54.506 455.659C55.9418 456.662 57.5669 457.362 59.2821 457.717C60.9974 458.072 62.7671 458.074 64.4832 457.724C66.1993 457.373 67.826 456.676 69.2642 455.676L74.5522 457.596C79.2881 459.315 77.486 464.143 72.1316 464.074L51.7552 463.815C50.7777 463.802 50.0453 463.197 50.227 462.55L50.3149 452.399Z" fill="#C2E0FF"/>
<path d="M50.2969 452.366C51.6463 450.473 54.8698 450.45 55.6022 450.715L69.2634 455.676C63.2373 460.066 53.9212 458.431 50.2969 452.366Z" fill="#FF9985"/>
<path d="M21.2794 452.399C21.3226 452.255 21.5562 452.067 21.8964 451.881C22.8195 453.37 24.036 454.655 25.4719 455.659C26.9077 456.662 28.5328 457.362 30.248 457.717C31.9633 458.072 33.7329 458.074 35.4491 457.724C37.1652 457.373 38.7919 456.676 40.2301 455.676L45.5181 457.596C50.254 459.315 48.4504 464.143 43.0975 464.074L22.721 463.815C21.7436 463.802 21.0112 463.197 21.1914 462.55L21.2794 452.399Z" fill="#C2E0FF"/>
<path d="M21.2617 452.366C22.6111 450.473 25.8361 450.45 26.5685 450.715L40.2297 455.676C34.2035 460.066 24.8875 458.431 21.2617 452.366Z" fill="#FF9985"/>
<path d="M223.446 96.8842L188.91 96.8193C187.808 96.8174 186.751 97.253 185.969 98.0304C185.188 98.8078 184.747 99.8635 184.744 100.966L184.523 170.112C184.521 171.12 184.918 172.087 185.628 172.802C186.338 173.517 187.303 173.92 188.311 173.924L233.345 174.068C233.845 174.07 234.34 173.973 234.802 173.784C235.264 173.594 235.684 173.315 236.038 172.963C236.392 172.611 236.674 172.193 236.866 171.732C237.059 171.271 237.159 170.777 237.16 170.278L237.349 110.868C237.353 109.886 237.162 108.914 236.79 108.005C236.417 107.097 235.869 106.271 235.176 105.575L228.732 99.0871C228.039 98.3904 227.215 97.8373 226.308 97.4593C225.401 97.0813 224.428 96.8859 223.446 96.8842V96.8842Z" fill="white"/>
<path d="M209.569 148.855C209.256 148.855 208.946 148.784 208.664 148.647C208.382 148.51 208.135 148.311 207.941 148.065L200.825 139.056C200.484 138.624 200.329 138.075 200.393 137.529C200.457 136.983 200.736 136.484 201.167 136.144C201.598 135.803 202.148 135.647 202.694 135.711C203.24 135.775 203.738 136.054 204.079 136.485L209.297 143.09L217.201 129.327C217.475 128.849 217.928 128.5 218.459 128.356C218.991 128.211 219.558 128.284 220.036 128.558C220.514 128.832 220.864 129.285 221.008 129.816C221.152 130.348 221.079 130.915 220.805 131.393L211.374 147.814C211.205 148.107 210.966 148.355 210.679 148.536C210.392 148.716 210.066 148.823 209.728 148.849C209.67 148.852 209.619 148.855 209.569 148.855Z" fill="#C2E0FF"/>
<path d="M224.828 210.261L190.293 210.196C189.191 210.194 188.133 210.63 187.352 211.407C186.571 212.185 186.13 213.24 186.127 214.343L185.906 283.489C185.904 284.497 186.301 285.464 187.011 286.179C187.721 286.893 188.686 287.297 189.694 287.301L234.728 287.445C235.228 287.447 235.723 287.35 236.185 287.161C236.647 286.971 237.067 286.693 237.421 286.341C237.775 285.989 238.057 285.57 238.249 285.109C238.442 284.649 238.542 284.154 238.543 283.655L238.732 224.245C238.735 223.263 238.545 222.291 238.172 221.382C237.8 220.474 237.251 219.648 236.559 218.952L230.115 212.464C229.422 211.767 228.598 211.214 227.691 210.836C226.784 210.458 225.811 210.263 224.828 210.261V210.261Z" fill="white"/>
<path d="M210.955 262.232C210.642 262.232 210.332 262.161 210.051 262.024C209.769 261.888 209.521 261.689 209.327 261.443L202.21 252.434C202.033 252.221 201.9 251.975 201.82 251.71C201.739 251.445 201.713 251.167 201.742 250.892C201.771 250.617 201.854 250.35 201.988 250.107C202.121 249.865 202.302 249.652 202.519 249.48C202.737 249.308 202.986 249.182 203.253 249.108C203.52 249.035 203.799 249.015 204.073 249.051C204.348 249.087 204.612 249.177 204.851 249.317C205.09 249.456 205.299 249.642 205.465 249.864L210.682 256.468L218.588 242.704C218.721 242.462 218.9 242.248 219.116 242.075C219.332 241.903 219.58 241.775 219.846 241.7C220.112 241.625 220.391 241.603 220.665 241.637C220.939 241.671 221.204 241.759 221.444 241.897C221.684 242.035 221.893 242.219 222.061 242.439C222.228 242.659 222.35 242.91 222.419 243.178C222.488 243.445 222.503 243.724 222.463 243.998C222.423 244.271 222.329 244.534 222.185 244.77L212.754 261.191C212.585 261.485 212.346 261.733 212.059 261.913C211.772 262.094 211.446 262.201 211.108 262.226C211.056 262.23 211.005 262.232 210.955 262.232Z" fill="#C2E0FF"/>
<path d="M224.828 325.02L190.293 324.956C189.191 324.954 188.133 325.389 187.352 326.167C186.571 326.944 186.13 328 186.127 329.102L185.906 398.248C185.903 399.256 186.3 400.224 187.011 400.938C187.721 401.653 188.686 402.057 189.694 402.06L234.728 402.204C235.228 402.206 235.723 402.11 236.185 401.92C236.647 401.731 237.067 401.452 237.421 401.1C237.775 400.748 238.057 400.329 238.249 399.869C238.442 399.408 238.542 398.914 238.543 398.414L238.732 339.005C238.735 338.023 238.545 337.05 238.173 336.142C237.8 335.234 237.252 334.408 236.559 333.712L230.115 327.225C229.422 326.528 228.598 325.974 227.691 325.596C226.784 325.218 225.811 325.022 224.828 325.02V325.02Z" fill="white"/>
<path d="M210.953 376.991C210.639 376.991 210.33 376.92 210.048 376.784C209.767 376.647 209.519 376.448 209.325 376.203L202.208 367.192C201.883 366.759 201.74 366.216 201.81 365.68C201.88 365.143 202.157 364.655 202.582 364.32C203.007 363.984 203.546 363.828 204.084 363.885C204.622 363.941 205.117 364.205 205.463 364.622L210.68 371.227L218.586 357.464C218.718 357.221 218.898 357.007 219.114 356.835C219.33 356.662 219.578 356.534 219.844 356.459C220.11 356.384 220.389 356.363 220.663 356.396C220.937 356.43 221.202 356.519 221.442 356.656C221.681 356.794 221.891 356.978 222.059 357.198C222.226 357.418 222.348 357.669 222.417 357.937C222.486 358.205 222.501 358.483 222.461 358.757C222.421 359.03 222.326 359.293 222.183 359.53L212.752 375.95C212.583 376.244 212.344 376.492 212.057 376.672C211.77 376.853 211.444 376.96 211.106 376.985C211.054 376.99 211.003 376.991 210.953 376.991Z" fill="#C2E0FF"/>
<path d="M89.0853 95.6597C110.969 86.5953 121.361 61.5072 112.296 39.6238C103.232 17.7403 78.1435 7.34848 56.2601 16.4129C34.3767 25.4773 23.9849 50.5655 33.0493 72.4489C42.1137 94.3323 67.2019 104.724 89.0853 95.6597Z" fill="white"/>
<path d="M72.6743 99.7416C64.0301 99.7416 55.58 97.1783 48.3926 92.3758C41.2053 87.5733 35.6034 80.7474 32.2955 72.7611C28.9876 64.7749 28.1222 55.9871 29.8087 47.509C31.4952 39.031 35.6579 31.2434 41.7703 25.1311C47.8828 19.0189 55.6705 14.8564 64.1486 13.1702C72.6268 11.484 81.4145 12.3497 89.4006 15.6579C97.3868 18.9661 104.213 24.5681 109.015 31.7557C113.817 38.9432 116.38 47.3934 116.38 56.0376C116.367 67.6249 111.758 78.7339 103.564 86.9272C95.3707 95.1205 84.2616 99.729 72.6743 99.7416V99.7416ZM72.6743 13.9626C64.3532 13.9626 56.219 16.43 49.3003 21.053C42.3815 25.6759 36.9891 32.2467 33.8047 39.9344C30.6204 47.622 29.7872 56.0813 31.4106 64.2425C33.0339 72.4037 37.0409 79.9002 42.9248 85.7841C48.8087 91.668 56.3052 95.675 64.4664 97.2984C72.6276 98.9217 81.0869 98.0886 88.7746 94.9042C96.4622 91.7199 103.033 86.3274 107.656 79.4087C112.279 72.49 114.746 64.3557 114.746 56.0347C114.733 44.8807 110.297 34.1873 102.409 26.3005C94.5219 18.4138 83.8283 13.9776 72.6743 13.9654V13.9626Z" fill="#C2E0FF"/>
<path d="M71.7936 59.0868C71.3604 59.0868 70.9449 58.9147 70.6386 58.6084C70.3322 58.3021 70.1602 57.8866 70.1602 57.4534V20.0638C70.1602 19.6306 70.3322 19.2152 70.6386 18.9088C70.9449 18.6025 71.3604 18.4304 71.7936 18.4304C72.2268 18.4304 72.6422 18.6025 72.9486 18.9088C73.2549 19.2152 73.427 19.6306 73.427 20.0638V57.4534C73.427 57.8866 73.2549 58.3021 72.9486 58.6084C72.6422 58.9147 72.2268 59.0868 71.7936 59.0868V59.0868Z" fill="#C2E0FF"/>
<path d="M101.376 60.7835H72.8727C72.5509 60.7835 72.2322 60.7201 71.9348 60.5969C71.6375 60.4738 71.3673 60.2932 71.1397 60.0656C70.9121 59.8381 70.7316 59.5679 70.6084 59.2705C70.4853 58.9732 70.4219 58.6545 70.4219 58.3326C70.4219 58.0108 70.4853 57.6921 70.6084 57.3948C70.7316 57.0974 70.9121 56.8273 71.1397 56.5997C71.3673 56.3721 71.6375 56.1915 71.9348 56.0684C72.2322 55.9452 72.5509 55.8818 72.8727 55.8818H101.376C101.698 55.8818 102.016 55.9452 102.314 56.0684C102.611 56.1915 102.881 56.3721 103.109 56.5997C103.336 56.8273 103.517 57.0974 103.64 57.3948C103.763 57.6921 103.827 58.0108 103.827 58.3326C103.827 58.6545 103.763 58.9732 103.64 59.2705C103.517 59.5679 103.336 59.8381 103.109 60.0656C102.881 60.2932 102.611 60.4738 102.314 60.5969C102.016 60.7201 101.698 60.7835 101.376 60.7835V60.7835Z" fill="#C2E0FF"/>
<path d="M311.405 133.898L253.633 133.667V137.415L311.386 137.646C311.809 137.549 312.188 137.312 312.459 136.973C312.731 136.634 312.88 136.214 312.882 135.779C312.884 135.345 312.74 134.923 312.471 134.581C312.203 134.239 311.827 133.999 311.405 133.898V133.898Z" fill="#E3F4FC"/>
<path d="M342.855 143.59L253.633 143.157V146.906L342.836 147.338C343.26 147.243 343.64 147.006 343.913 146.667C344.185 146.328 344.335 145.907 344.337 145.472C344.339 145.036 344.194 144.614 343.925 144.272C343.655 143.93 343.278 143.69 342.855 143.59V143.59Z" fill="#E3F4FC"/>
<path d="M345.46 245.087L253.633 244.813V248.562L345.442 248.837C345.9 248.796 346.323 248.576 346.62 248.226C346.917 247.875 347.063 247.421 347.028 246.963C347.069 246.506 346.926 246.052 346.632 245.701C346.338 245.349 345.916 245.128 345.46 245.087V245.087Z" fill="#E3F4FC"/>
<path d="M270.913 258.225C270.49 258.137 270.114 257.899 269.854 257.554C269.595 257.209 269.469 256.782 269.501 256.351C269.466 255.893 269.612 255.439 269.909 255.088C270.206 254.737 270.629 254.518 271.087 254.477L304.555 254.515C305.012 254.555 305.434 254.775 305.728 255.127C306.023 255.478 306.165 255.932 306.125 256.389C306.16 256.847 306.013 257.3 305.716 257.65C305.42 258.001 304.997 258.221 304.54 258.263L271.071 258.225C271.018 258.228 270.966 258.228 270.913 258.225V258.225Z" fill="#E3F4FC"/>
<path d="M264.878 254.434L253.633 254.344V258.093L264.848 258.182C265.288 258.106 265.687 257.878 265.976 257.538C266.265 257.197 266.425 256.766 266.428 256.32C266.432 255.873 266.278 255.44 265.995 255.095C265.711 254.75 265.315 254.516 264.876 254.434H264.878Z" fill="#E3F4FC"/>
<path d="M341.688 365.654L253.633 365.377V369.126L341.672 369.404C342.095 369.306 342.472 369.068 342.742 368.729C343.012 368.39 343.161 367.97 343.162 367.536C343.164 367.103 343.02 366.681 342.752 366.34C342.485 365.998 342.11 365.757 341.688 365.656V365.654Z" fill="#E3F4FC"/>
<path d="M270.992 378.793C270.581 378.693 270.22 378.449 269.974 378.105C269.729 377.761 269.614 377.34 269.653 376.919C269.609 376.473 269.741 376.027 270.021 375.677C270.301 375.327 270.707 375.1 271.152 375.045L302.889 375.081C303.31 375.182 303.686 375.423 303.954 375.763C304.222 376.104 304.367 376.525 304.366 376.959C304.365 377.393 304.217 377.813 303.947 378.153C303.677 378.492 303.301 378.73 302.879 378.829L271.142 378.793C271.093 378.802 271.042 378.799 270.992 378.793Z" fill="#E3F4FC"/>
<path d="M265.274 375L253.633 374.902V378.651L265.247 378.749C265.692 378.695 266.098 378.471 266.38 378.122C266.661 377.774 266.796 377.329 266.755 376.883C266.797 376.439 266.667 375.996 266.391 375.646C266.115 375.295 265.716 375.064 265.274 375V375Z" fill="#E3F4FC"/>
<path d="M341.739 355.652L253.633 355.372V359.12L341.719 359.4C342.142 359.303 342.52 359.066 342.791 358.727C343.063 358.387 343.211 357.967 343.213 357.532C343.215 357.098 343.07 356.676 342.802 356.334C342.533 355.993 342.157 355.752 341.734 355.652H341.739Z" fill="#E3F4FC"/>
<path d="M398.869 365.735C398.767 365.735 398.666 365.715 398.571 365.676C398.477 365.637 398.391 365.58 398.319 365.508C398.246 365.435 398.189 365.35 398.15 365.255C398.111 365.161 398.091 365.06 398.091 364.958V362.02C398.091 361.813 398.173 361.615 398.318 361.47C398.464 361.324 398.662 361.242 398.868 361.242C399.075 361.242 399.273 361.324 399.418 361.47C399.564 361.615 399.646 361.813 399.646 362.02V364.958C399.646 365.164 399.564 365.361 399.419 365.507C399.273 365.653 399.075 365.735 398.869 365.735ZM398.869 358.649C398.767 358.649 398.666 358.629 398.571 358.59C398.477 358.551 398.391 358.494 398.319 358.422C398.246 358.35 398.189 358.264 398.15 358.17C398.111 358.075 398.091 357.974 398.091 357.872V353.724C398.091 353.518 398.173 353.32 398.318 353.174C398.464 353.028 398.662 352.946 398.868 352.946C399.075 352.946 399.273 353.028 399.418 353.174C399.564 353.32 399.646 353.518 399.646 353.724V357.878C399.645 358.083 399.562 358.279 399.417 358.423C399.271 358.568 399.074 358.649 398.869 358.649ZM398.869 350.354C398.767 350.354 398.666 350.334 398.571 350.295C398.477 350.256 398.391 350.199 398.319 350.127C398.246 350.054 398.189 349.969 398.15 349.874C398.111 349.78 398.091 349.679 398.091 349.577V345.427C398.091 345.221 398.173 345.023 398.318 344.877C398.464 344.732 398.662 344.65 398.868 344.65C399.075 344.65 399.273 344.732 399.418 344.877C399.564 345.023 399.646 345.221 399.646 345.427V349.577C399.646 349.783 399.564 349.98 399.419 350.126C399.273 350.272 399.075 350.354 398.869 350.354ZM398.869 342.058C398.663 342.058 398.465 341.976 398.319 341.83C398.173 341.684 398.091 341.486 398.091 341.28V337.132C398.091 336.926 398.173 336.728 398.318 336.582C398.464 336.436 398.662 336.354 398.868 336.354C399.075 336.354 399.273 336.436 399.418 336.582C399.564 336.728 399.646 336.926 399.646 337.132V341.28C399.646 341.382 399.626 341.483 399.587 341.578C399.548 341.672 399.491 341.758 399.419 341.83C399.347 341.902 399.261 341.96 399.167 341.999C399.072 342.038 398.971 342.058 398.869 342.058ZM398.869 333.761C398.767 333.762 398.666 333.742 398.571 333.703C398.477 333.664 398.391 333.607 398.319 333.534C398.246 333.462 398.189 333.376 398.15 333.282C398.111 333.188 398.091 333.087 398.091 332.984V328.837C398.091 328.63 398.173 328.433 398.318 328.287C398.464 328.141 398.662 328.059 398.868 328.059C399.075 328.059 399.273 328.141 399.418 328.287C399.564 328.433 399.646 328.63 399.646 328.837V332.984C399.646 333.19 399.564 333.388 399.419 333.534C399.273 333.68 399.075 333.761 398.869 333.761ZM398.869 325.466C398.663 325.466 398.465 325.384 398.319 325.239C398.173 325.093 398.091 324.895 398.091 324.689V320.539C398.091 320.332 398.173 320.134 398.318 319.989C398.464 319.843 398.662 319.761 398.868 319.761C399.075 319.761 399.273 319.843 399.418 319.989C399.564 320.134 399.646 320.332 399.646 320.539V324.688C399.646 324.79 399.626 324.891 399.587 324.985C399.548 325.08 399.491 325.166 399.419 325.238C399.347 325.31 399.261 325.368 399.167 325.407C399.072 325.446 398.971 325.466 398.869 325.466V325.466ZM398.869 317.171C398.663 317.171 398.465 317.089 398.319 316.943C398.173 316.797 398.091 316.599 398.091 316.392V312.245C398.091 312.038 398.173 311.841 398.318 311.695C398.464 311.549 398.662 311.467 398.868 311.467C399.075 311.467 399.273 311.549 399.418 311.695C399.564 311.841 399.646 312.038 399.646 312.245V316.392C399.646 316.494 399.626 316.596 399.587 316.69C399.548 316.785 399.491 316.87 399.419 316.943C399.347 317.015 399.261 317.072 399.167 317.111C399.072 317.151 398.971 317.171 398.869 317.171V317.171ZM398.869 308.874C398.767 308.874 398.666 308.854 398.571 308.815C398.477 308.776 398.391 308.719 398.319 308.647C398.246 308.575 398.189 308.489 398.15 308.395C398.111 308.3 398.091 308.199 398.091 308.097V303.949C398.091 303.743 398.173 303.545 398.318 303.399C398.464 303.253 398.662 303.171 398.868 303.171C399.075 303.171 399.273 303.253 399.418 303.399C399.564 303.545 399.646 303.743 399.646 303.949V308.097C399.646 308.303 399.564 308.501 399.419 308.646C399.273 308.792 399.075 308.874 398.869 308.874ZM398.869 300.579C398.663 300.579 398.465 300.497 398.319 300.351C398.173 300.205 398.091 300.007 398.091 299.8V295.652C398.091 295.446 398.173 295.248 398.318 295.102C398.464 294.957 398.662 294.875 398.868 294.875C399.075 294.875 399.273 294.957 399.418 295.102C399.564 295.248 399.646 295.446 399.646 295.652V299.8C399.646 299.902 399.626 300.004 399.587 300.098C399.548 300.192 399.491 300.278 399.419 300.351C399.347 300.423 399.261 300.48 399.167 300.519C399.072 300.559 398.971 300.579 398.869 300.579V300.579ZM398.869 292.282C398.767 292.282 398.666 292.262 398.571 292.223C398.477 292.184 398.391 292.127 398.319 292.055C398.246 291.983 398.189 291.897 398.15 291.803C398.111 291.708 398.091 291.607 398.091 291.505V287.357C398.091 287.151 398.173 286.953 398.318 286.807C398.464 286.661 398.662 286.579 398.868 286.579C399.075 286.579 399.273 286.661 399.418 286.807C399.564 286.953 399.646 287.151 399.646 287.357V291.505C399.646 291.711 399.564 291.909 399.419 292.054C399.273 292.2 399.075 292.282 398.869 292.282ZM398.869 283.987C398.663 283.987 398.465 283.905 398.319 283.759C398.173 283.613 398.091 283.416 398.091 283.209V279.06C398.091 278.854 398.173 278.656 398.318 278.51C398.464 278.365 398.662 278.283 398.868 278.283C399.075 278.283 399.273 278.365 399.418 278.51C399.564 278.656 399.646 278.854 399.646 279.06V283.209C399.646 283.416 399.564 283.613 399.419 283.759C399.273 283.905 399.075 283.987 398.869 283.987ZM398.869 275.691C398.663 275.691 398.465 275.609 398.319 275.463C398.173 275.317 398.091 275.119 398.091 274.913V270.765C398.091 270.559 398.173 270.361 398.318 270.215C398.464 270.069 398.662 269.987 398.868 269.987C399.075 269.987 399.273 270.069 399.418 270.215C399.564 270.361 399.646 270.559 399.646 270.765V274.913C399.646 275.015 399.626 275.116 399.587 275.211C399.548 275.305 399.491 275.391 399.419 275.463C399.347 275.535 399.261 275.593 399.167 275.632C399.072 275.671 398.971 275.691 398.869 275.691V275.691ZM398.869 267.394C398.767 267.395 398.666 267.375 398.571 267.336C398.477 267.297 398.391 267.24 398.319 267.167C398.246 267.095 398.189 267.009 398.15 266.915C398.111 266.821 398.091 266.72 398.091 266.617V262.47C398.091 262.263 398.173 262.066 398.318 261.92C398.464 261.774 398.662 261.692 398.868 261.692C399.075 261.692 399.273 261.774 399.418 261.92C399.564 262.066 399.646 262.263 399.646 262.47V266.62C399.645 266.826 399.563 267.023 399.418 267.168C399.272 267.313 399.075 267.394 398.869 267.394V267.394ZM398.869 259.099C398.663 259.099 398.465 259.017 398.319 258.872C398.173 258.726 398.091 258.528 398.091 258.322V254.173C398.091 253.967 398.173 253.769 398.318 253.623C398.464 253.477 398.662 253.395 398.868 253.395C399.075 253.395 399.273 253.477 399.418 253.623C399.564 253.769 399.646 253.967 399.646 254.173V258.322C399.646 258.528 399.564 258.726 399.419 258.872C399.273 259.017 399.075 259.099 398.869 259.099ZM398.869 250.804C398.663 250.804 398.465 250.722 398.319 250.576C398.173 250.43 398.091 250.232 398.091 250.025V245.878C398.091 245.671 398.173 245.473 398.318 245.328C398.464 245.182 398.662 245.1 398.868 245.1C399.075 245.1 399.273 245.182 399.418 245.328C399.564 245.473 399.646 245.671 399.646 245.878V250.025C399.646 250.127 399.626 250.229 399.587 250.323C399.548 250.418 399.491 250.503 399.419 250.576C399.347 250.648 399.261 250.705 399.167 250.744C399.072 250.784 398.971 250.804 398.869 250.804V250.804ZM398.869 242.507C398.767 242.507 398.666 242.487 398.571 242.448C398.477 242.409 398.391 242.352 398.319 242.28C398.246 242.208 398.189 242.122 398.15 242.028C398.111 241.933 398.091 241.832 398.091 241.73V237.582C398.091 237.376 398.173 237.178 398.318 237.032C398.464 236.886 398.662 236.804 398.868 236.804C399.075 236.804 399.273 236.886 399.418 237.032C399.564 237.178 399.646 237.376 399.646 237.582V241.73C399.646 241.832 399.626 241.933 399.587 242.027C399.548 242.122 399.491 242.207 399.419 242.279C399.346 242.352 399.261 242.409 399.166 242.448C399.072 242.487 398.971 242.507 398.869 242.507V242.507ZM398.869 234.212C398.663 234.212 398.465 234.13 398.319 233.984C398.173 233.838 398.091 233.64 398.091 233.433V229.281C398.091 229.075 398.173 228.877 398.318 228.731C398.464 228.585 398.662 228.503 398.868 228.503C399.075 228.503 399.273 228.585 399.418 228.731C399.564 228.877 399.646 229.075 399.646 229.281V233.429C399.647 233.531 399.627 233.633 399.589 233.728C399.55 233.823 399.493 233.909 399.421 233.982C399.348 234.055 399.263 234.113 399.168 234.152C399.073 234.191 398.972 234.212 398.869 234.212ZM398.869 225.915C398.767 225.915 398.666 225.895 398.571 225.856C398.477 225.817 398.391 225.76 398.319 225.688C398.246 225.616 398.189 225.53 398.15 225.435C398.111 225.341 398.091 225.24 398.091 225.138V220.99C398.091 220.784 398.173 220.586 398.318 220.44C398.464 220.294 398.662 220.212 398.868 220.212C399.075 220.212 399.273 220.294 399.418 220.44C399.564 220.586 399.646 220.784 399.646 220.99V225.138C399.646 225.24 399.626 225.341 399.587 225.435C399.548 225.529 399.491 225.615 399.419 225.687C399.346 225.759 399.261 225.817 399.166 225.856C399.072 225.895 398.971 225.915 398.869 225.915V225.915ZM398.869 217.619C398.663 217.619 398.465 217.538 398.319 217.392C398.173 217.246 398.091 217.049 398.091 216.842V212.693C398.091 212.487 398.173 212.289 398.318 212.143C398.464 211.998 398.662 211.916 398.868 211.916C399.075 211.916 399.273 211.998 399.418 212.143C399.564 212.289 399.646 212.487 399.646 212.693V216.842C399.646 216.944 399.626 217.046 399.587 217.14C399.548 217.234 399.491 217.32 399.419 217.392C399.346 217.464 399.261 217.521 399.166 217.56C399.072 217.599 398.971 217.619 398.869 217.619V217.619ZM398.869 209.324C398.663 209.324 398.465 209.242 398.319 209.096C398.173 208.95 398.091 208.752 398.091 208.546V204.398C398.091 204.192 398.173 203.994 398.318 203.848C398.464 203.702 398.662 203.62 398.868 203.62C399.075 203.62 399.273 203.702 399.418 203.848C399.564 203.994 399.646 204.192 399.646 204.398V208.546C399.646 208.648 399.626 208.749 399.587 208.843C399.548 208.938 399.491 209.024 399.419 209.096C399.347 209.168 399.261 209.226 399.167 209.265C399.072 209.304 398.971 209.324 398.869 209.324V209.324ZM398.869 201.027C398.767 201.028 398.666 201.008 398.571 200.969C398.477 200.93 398.391 200.872 398.319 200.8C398.246 200.728 398.189 200.642 398.15 200.548C398.111 200.454 398.091 200.352 398.091 200.25V196.103C398.091 195.896 398.173 195.699 398.318 195.553C398.464 195.407 398.662 195.325 398.868 195.325C399.075 195.325 399.273 195.407 399.418 195.553C399.564 195.699 399.646 195.896 399.646 196.103V200.25C399.645 200.456 399.563 200.653 399.418 200.798C399.272 200.943 399.075 201.024 398.869 201.024V201.027ZM398.869 192.732C398.663 192.732 398.465 192.65 398.319 192.505C398.173 192.359 398.091 192.161 398.091 191.955V187.806C398.091 187.6 398.173 187.402 398.318 187.256C398.464 187.11 398.662 187.028 398.868 187.028C399.075 187.028 399.273 187.11 399.418 187.256C399.564 187.402 399.646 187.6 399.646 187.806V191.955C399.646 192.057 399.626 192.158 399.587 192.252C399.548 192.347 399.491 192.432 399.419 192.504C399.346 192.577 399.261 192.634 399.166 192.673C399.072 192.712 398.971 192.732 398.869 192.732V192.732ZM398.869 184.437C398.767 184.437 398.666 184.417 398.571 184.377C398.477 184.338 398.391 184.281 398.319 184.209C398.246 184.136 398.189 184.051 398.15 183.956C398.111 183.862 398.091 183.76 398.091 183.658V179.511C398.091 179.304 398.173 179.106 398.318 178.961C398.464 178.815 398.662 178.733 398.868 178.733C399.075 178.733 399.273 178.815 399.418 178.961C399.564 179.106 399.646 179.304 399.646 179.511V183.658C399.646 183.76 399.626 183.862 399.587 183.956C399.548 184.05 399.491 184.136 399.419 184.209C399.347 184.281 399.261 184.338 399.167 184.377C399.072 184.417 398.971 184.437 398.869 184.437V184.437ZM398.869 176.14C398.767 176.14 398.666 176.12 398.571 176.081C398.477 176.042 398.391 175.985 398.319 175.913C398.246 175.841 398.189 175.755 398.15 175.661C398.111 175.566 398.091 175.465 398.091 175.363V171.215C398.091 171.009 398.173 170.811 398.318 170.665C398.464 170.519 398.662 170.437 398.868 170.437C399.075 170.437 399.273 170.519 399.418 170.665C399.564 170.811 399.646 171.009 399.646 171.215V175.363C399.646 175.569 399.564 175.767 399.419 175.912C399.273 176.058 399.075 176.14 398.869 176.14V176.14ZM398.869 167.845C398.663 167.845 398.465 167.763 398.319 167.617C398.173 167.471 398.091 167.273 398.091 167.066V162.918C398.091 162.712 398.173 162.514 398.318 162.368C398.464 162.223 398.662 162.141 398.868 162.141C399.075 162.141 399.273 162.223 399.418 162.368C399.564 162.514 399.646 162.712 399.646 162.918V167.066C399.646 167.168 399.626 167.269 399.587 167.364C399.548 167.458 399.491 167.544 399.419 167.616C399.347 167.689 399.261 167.746 399.167 167.785C399.072 167.824 398.971 167.845 398.869 167.845V167.845ZM398.869 159.548C398.767 159.548 398.666 159.528 398.571 159.489C398.477 159.45 398.391 159.393 398.319 159.321C398.246 159.249 398.189 159.163 398.15 159.068C398.111 158.974 398.091 158.873 398.091 158.771V154.623C398.091 154.417 398.173 154.219 398.318 154.073C398.464 153.927 398.662 153.845 398.868 153.845C399.075 153.845 399.273 153.927 399.418 154.073C399.564 154.219 399.646 154.417 399.646 154.623V158.771C399.646 158.873 399.626 158.974 399.587 159.068C399.548 159.162 399.491 159.248 399.419 159.32C399.346 159.392 399.261 159.45 399.166 159.489C399.072 159.528 398.971 159.548 398.869 159.548V159.548ZM398.869 151.252C398.663 151.252 398.465 151.171 398.319 151.025C398.173 150.879 398.091 150.682 398.091 150.475V146.326C398.091 146.12 398.173 145.922 398.318 145.776C398.464 145.63 398.662 145.549 398.868 145.549C399.075 145.549 399.273 145.63 399.418 145.776C399.564 145.922 399.646 146.12 399.646 146.326V150.475C399.646 150.577 399.626 150.678 399.587 150.773C399.548 150.867 399.491 150.953 399.419 151.025C399.346 151.097 399.261 151.154 399.166 151.193C399.072 151.232 398.971 151.252 398.869 151.252V151.252ZM398.869 142.957C398.663 142.957 398.465 142.875 398.319 142.729C398.173 142.583 398.091 142.385 398.091 142.179V138.024C398.091 137.817 398.173 137.62 398.318 137.474C398.464 137.328 398.662 137.246 398.868 137.246C399.075 137.246 399.273 137.328 399.418 137.474C399.564 137.62 399.646 137.817 399.646 138.024V142.171C399.647 142.274 399.628 142.376 399.59 142.471C399.551 142.567 399.494 142.653 399.422 142.726C399.349 142.8 399.263 142.858 399.169 142.897C399.074 142.937 398.972 142.957 398.869 142.957V142.957ZM398.869 134.66C398.767 134.66 398.666 134.641 398.571 134.602C398.477 134.563 398.391 134.505 398.319 134.433C398.246 134.361 398.189 134.275 398.15 134.181C398.111 134.087 398.091 133.985 398.091 133.883V129.736C398.091 129.529 398.173 129.331 398.318 129.186C398.464 129.04 398.662 128.958 398.868 128.958C399.075 128.958 399.273 129.04 399.418 129.186C399.564 129.331 399.646 129.529 399.646 129.736V133.883C399.646 133.985 399.626 134.086 399.587 134.181C399.548 134.275 399.491 134.361 399.419 134.433C399.346 134.505 399.261 134.562 399.166 134.601C399.072 134.64 398.971 134.66 398.869 134.66V134.66ZM398.869 126.365C398.663 126.365 398.465 126.283 398.319 126.137C398.173 125.992 398.091 125.794 398.091 125.588V121.445C398.091 121.238 398.173 121.04 398.318 120.895C398.464 120.749 398.662 120.667 398.868 120.667C399.075 120.667 399.273 120.749 399.418 120.895C399.564 121.04 399.646 121.238 399.646 121.445V125.594C399.645 125.799 399.562 125.995 399.417 126.139C399.271 126.284 399.074 126.365 398.869 126.365V126.365ZM398.869 118.07C398.663 118.07 398.465 117.988 398.319 117.842C398.173 117.696 398.091 117.498 398.091 117.291V113.143C398.091 112.937 398.173 112.739 398.318 112.594C398.464 112.448 398.662 112.366 398.868 112.366C399.075 112.366 399.273 112.448 399.418 112.594C399.564 112.739 399.646 112.937 399.646 113.143V117.291C399.646 117.393 399.626 117.495 399.587 117.589C399.548 117.683 399.491 117.769 399.419 117.842C399.347 117.914 399.261 117.971 399.167 118.01C399.072 118.05 398.971 118.07 398.869 118.07V118.07ZM398.869 109.773C398.767 109.773 398.666 109.753 398.571 109.714C398.477 109.675 398.391 109.618 398.319 109.546C398.246 109.474 398.189 109.388 398.15 109.293C398.111 109.199 398.091 109.098 398.091 108.996V104.848C398.091 104.642 398.173 104.444 398.318 104.298C398.464 104.152 398.662 104.07 398.868 104.07C399.075 104.07 399.273 104.152 399.418 104.298C399.564 104.444 399.646 104.642 399.646 104.848V108.996C399.645 109.201 399.562 109.397 399.417 109.542C399.271 109.686 399.074 109.767 398.869 109.767V109.773ZM398.869 101.477C398.663 101.477 398.465 101.396 398.319 101.25C398.173 101.104 398.091 100.906 398.091 100.699V96.5513C398.091 96.3451 398.173 96.1472 398.318 96.0014C398.464 95.8555 398.662 95.7736 398.868 95.7736C399.075 95.7736 399.273 95.8555 399.418 96.0014C399.564 96.1472 399.646 96.3451 399.646 96.5513V100.699C399.646 100.801 399.626 100.902 399.587 100.997C399.548 101.091 399.491 101.177 399.419 101.249C399.347 101.322 399.261 101.379 399.167 101.418C399.072 101.457 398.971 101.477 398.869 101.477V101.477ZM398.869 93.1808C398.767 93.1809 398.666 93.161 398.571 93.122C398.477 93.0831 398.391 93.0258 398.319 92.9536C398.246 92.8815 398.189 92.7957 398.15 92.7014C398.111 92.607 398.091 92.5059 398.091 92.4037V88.256C398.091 88.0497 398.173 87.8519 398.318 87.7061C398.464 87.5602 398.662 87.4782 398.868 87.4782C399.075 87.4782 399.273 87.5602 399.418 87.7061C399.564 87.8519 399.646 88.0497 399.646 88.256V92.4037C399.647 92.5063 399.628 92.6082 399.589 92.7033C399.55 92.7984 399.493 92.8849 399.421 92.9578C399.349 93.0307 399.263 93.0886 399.168 93.1281C399.073 93.1676 398.972 93.1879 398.869 93.1879V93.1808ZM398.869 84.8854C398.663 84.8854 398.465 84.8036 398.319 84.6579C398.173 84.5122 398.091 84.3146 398.091 84.1084V79.9592C398.091 79.7529 398.173 79.5551 398.318 79.4093C398.464 79.2634 398.662 79.1815 398.868 79.1815C399.075 79.1815 399.273 79.2634 399.418 79.4093C399.564 79.5551 399.646 79.7529 399.646 79.9592V84.1055C399.647 84.2077 399.627 84.3091 399.588 84.4037C399.549 84.4983 399.492 84.5843 399.42 84.6568C399.347 84.7292 399.262 84.7867 399.167 84.826C399.073 84.8652 398.971 84.8854 398.869 84.8854V84.8854ZM398.869 76.59C398.767 76.59 398.666 76.5699 398.571 76.5308C398.477 76.4916 398.391 76.4343 398.319 76.362C398.246 76.2898 398.189 76.2039 398.15 76.1095C398.111 76.015 398.091 75.9138 398.091 75.8116V71.6639C398.091 71.4576 398.173 71.2598 398.318 71.1139C398.464 70.9681 398.662 70.8861 398.868 70.8861C399.075 70.8861 399.273 70.9681 399.418 71.1139C399.564 71.2598 399.646 71.4576 399.646 71.6639V75.8116C399.646 75.9137 399.626 76.0149 399.587 76.1094C399.548 76.2038 399.491 76.2897 399.419 76.362C399.347 76.4343 399.261 76.4916 399.167 76.5308C399.072 76.5699 398.971 76.59 398.869 76.59V76.59ZM398.869 68.2933C398.767 68.2935 398.666 68.2735 398.571 68.2346C398.477 68.1956 398.391 68.1384 398.319 68.0662C398.246 67.994 398.189 67.9083 398.15 67.8139C398.111 67.7195 398.091 67.6184 398.091 67.5162V63.3685C398.091 63.1623 398.173 62.9645 398.318 62.8186C398.464 62.6727 398.662 62.5908 398.868 62.5908C399.075 62.5908 399.273 62.6727 399.418 62.8186C399.564 62.9645 399.646 63.1623 399.646 63.3685V67.5162C399.646 67.6183 399.626 67.7193 399.587 67.8136C399.548 67.9079 399.491 67.9935 399.419 68.0657C399.346 68.1379 399.261 68.1951 399.166 68.2341C399.072 68.2732 398.971 68.2933 398.869 68.2933V68.2933ZM398.869 59.998C398.663 59.998 398.465 59.9161 398.319 59.7704C398.173 59.6247 398.091 59.4271 398.091 59.2209V55.0718C398.091 54.8655 398.173 54.6677 398.318 54.5218C398.464 54.3759 398.662 54.294 398.868 54.294C399.075 54.294 399.273 54.3759 399.418 54.5218C399.564 54.6677 399.646 54.8655 399.646 55.0718V59.2209C399.646 59.3229 399.626 59.4239 399.587 59.5182C399.548 59.6125 399.491 59.6982 399.419 59.7703C399.346 59.8425 399.261 59.8997 399.166 59.9388C399.072 59.9778 398.971 59.998 398.869 59.998V59.998ZM398.869 51.7026C398.663 51.7026 398.465 51.6206 398.319 51.4746C398.173 51.3286 398.091 51.1306 398.091 50.9241V46.7764C398.091 46.5701 398.173 46.3723 398.318 46.2265C398.464 46.0806 398.662 45.9987 398.868 45.9987C399.075 45.9987 399.273 46.0806 399.418 46.2265C399.564 46.3723 399.646 46.5701 399.646 46.7764V50.9241C399.646 51.0263 399.626 51.1275 399.587 51.2219C399.548 51.3164 399.491 51.4022 399.419 51.4745C399.347 51.5468 399.261 51.6042 399.167 51.6433C399.072 51.6825 398.971 51.7026 398.869 51.7026V51.7026ZM398.869 43.4058C398.767 43.406 398.666 43.3861 398.571 43.3471C398.477 43.3081 398.391 43.2509 398.319 43.1787C398.246 43.1065 398.189 43.0208 398.15 42.9264C398.111 42.8321 398.091 42.7309 398.091 42.6288V38.4811C398.091 38.2748 398.173 38.077 398.318 37.9311C398.464 37.7853 398.662 37.7033 398.868 37.7033C399.075 37.7033 399.273 37.7853 399.418 37.9311C399.564 38.077 399.646 38.2748 399.646 38.4811V42.6288C399.646 42.7308 399.626 42.8319 399.587 42.9261C399.548 43.0204 399.491 43.1061 399.419 43.1782C399.346 43.2504 399.261 43.3076 399.166 43.3467C399.072 43.3857 398.971 43.4058 398.869 43.4058V43.4058ZM398.869 35.1105C398.663 35.1105 398.465 35.0285 398.319 34.8825C398.173 34.7365 398.091 34.5385 398.091 34.332V30.1872C398.091 29.9809 398.173 29.7831 398.318 29.6372C398.464 29.4913 398.662 29.4094 398.868 29.4094C399.075 29.4094 399.273 29.4913 399.418 29.6372C399.564 29.7831 399.646 29.9809 399.646 30.1872V34.3348C399.646 34.5407 399.564 34.738 399.418 34.8834C399.272 35.0288 399.075 35.1105 398.869 35.1105V35.1105ZM398.869 26.8137C398.767 26.8139 398.666 26.7939 398.571 26.755C398.477 26.716 398.391 26.6588 398.319 26.5866C398.246 26.5144 398.189 26.4287 398.15 26.3343C398.111 26.2399 398.091 26.1388 398.091 26.0366V21.889C398.091 21.6827 398.173 21.4849 398.318 21.339C398.464 21.1931 398.662 21.1112 398.868 21.1112C399.075 21.1112 399.273 21.1931 399.418 21.339C399.564 21.4849 399.646 21.6827 399.646 21.889V26.0366C399.646 26.1387 399.626 26.2397 399.587 26.334C399.548 26.4283 399.491 26.514 399.419 26.5861C399.346 26.6583 399.261 26.7155 399.166 26.7545C399.072 26.7936 398.971 26.8137 398.869 26.8137V26.8137ZM395.409 21.9754H391.26C391.054 21.9754 390.856 21.8935 390.71 21.7476C390.564 21.6018 390.482 21.404 390.482 21.1977C390.482 20.9914 390.564 20.7936 390.71 20.6477C390.856 20.5018 391.054 20.4199 391.26 20.4199H395.409C395.615 20.4199 395.813 20.5018 395.959 20.6477C396.105 20.7936 396.187 20.9914 396.187 21.1977C396.187 21.404 396.105 21.6018 395.959 21.7476C395.813 21.8935 395.615 21.9754 395.409 21.9754V21.9754ZM387.112 21.9754H382.965C382.758 21.9754 382.561 21.8935 382.415 21.7476C382.269 21.6018 382.187 21.404 382.187 21.1977C382.187 20.9914 382.269 20.7936 382.415 20.6477C382.561 20.5018 382.758 20.4199 382.965 20.4199H387.112C387.319 20.4199 387.516 20.5018 387.662 20.6477C387.808 20.7936 387.89 20.9914 387.89 21.1977C387.89 21.404 387.808 21.6018 387.662 21.7476C387.516 21.8935 387.319 21.9754 387.112 21.9754V21.9754ZM378.817 21.9754H374.678C374.472 21.9754 374.274 21.8935 374.128 21.7476C373.982 21.6018 373.9 21.404 373.9 21.1977C373.9 20.9914 373.982 20.7936 374.128 20.6477C374.274 20.5018 374.472 20.4199 374.678 20.4199H378.83C379.036 20.4199 379.234 20.5018 379.38 20.6477C379.526 20.7936 379.608 20.9914 379.608 21.1977C379.608 21.404 379.526 21.6018 379.38 21.7476C379.234 21.8935 379.036 21.9754 378.83 21.9754H378.817ZM370.52 21.9754H366.373C366.166 21.9754 365.968 21.8935 365.823 21.7476C365.677 21.6018 365.595 21.404 365.595 21.1977C365.595 20.9914 365.677 20.7936 365.823 20.6477C365.968 20.5018 366.166 20.4199 366.373 20.4199H370.52C370.726 20.4199 370.924 20.5018 371.07 20.6477C371.216 20.7936 371.298 20.9914 371.298 21.1977C371.298 21.404 371.216 21.6018 371.07 21.7476C370.924 21.8935 370.726 21.9754 370.52 21.9754V21.9754ZM362.225 21.9754H358.077C357.871 21.9754 357.673 21.8935 357.527 21.7476C357.381 21.6018 357.299 21.404 357.299 21.1977C357.299 20.9914 357.381 20.7936 357.527 20.6477C357.673 20.5018 357.871 20.4199 358.077 20.4199H362.225C362.431 20.4199 362.629 20.5018 362.775 20.6477C362.921 20.7936 363.003 20.9914 363.003 21.1977C363.003 21.404 362.921 21.6018 362.775 21.7476C362.629 21.8935 362.431 21.9754 362.225 21.9754V21.9754ZM353.93 21.9754H349.78C349.574 21.9754 349.376 21.8935 349.23 21.7476C349.085 21.6018 349.003 21.404 349.003 21.1977C349.003 20.9914 349.085 20.7936 349.23 20.6477C349.376 20.5018 349.574 20.4199 349.78 20.4199H353.93C354.136 20.4199 354.334 20.5018 354.48 20.6477C354.625 20.7936 354.707 20.9914 354.707 21.1977C354.707 21.404 354.625 21.6018 354.48 21.7476C354.334 21.8935 354.136 21.9754 353.93 21.9754V21.9754ZM345.633 21.9754H341.491C341.285 21.9754 341.087 21.8935 340.941 21.7476C340.795 21.6018 340.713 21.404 340.713 21.1977C340.713 20.9914 340.795 20.7936 340.941 20.6477C341.087 20.5018 341.285 20.4199 341.491 20.4199H345.639C345.845 20.4199 346.043 20.5018 346.189 20.6477C346.334 20.7936 346.416 20.9914 346.416 21.1977C346.416 21.404 346.334 21.6018 346.189 21.7476C346.043 21.8935 345.845 21.9754 345.639 21.9754H345.633ZM337.337 21.9754H333.19C332.983 21.9754 332.786 21.8935 332.64 21.7476C332.494 21.6018 332.412 21.404 332.412 21.1977C332.412 20.9914 332.494 20.7936 332.64 20.6477C332.786 20.5018 332.983 20.4199 333.19 20.4199H337.337C337.544 20.4199 337.742 20.5018 337.887 20.6477C338.033 20.7936 338.115 20.9914 338.115 21.1977C338.115 21.404 338.033 21.6018 337.887 21.7476C337.742 21.8935 337.544 21.9754 337.337 21.9754V21.9754ZM329.042 21.9754H324.893C324.687 21.9754 324.489 21.8935 324.343 21.7476C324.197 21.6018 324.115 21.404 324.115 21.1977C324.115 20.9914 324.197 20.7936 324.343 20.6477C324.489 20.5018 324.687 20.4199 324.893 20.4199H329.042C329.248 20.4199 329.446 20.5018 329.592 20.6477C329.738 20.7936 329.82 20.9914 329.82 21.1977C329.82 21.404 329.738 21.6018 329.592 21.7476C329.446 21.8935 329.248 21.9754 329.042 21.9754V21.9754ZM320.745 21.9754H316.608C316.401 21.9754 316.204 21.8935 316.058 21.7476C315.912 21.6018 315.83 21.404 315.83 21.1977C315.83 20.9914 315.912 20.7936 316.058 20.6477C316.204 20.5018 316.401 20.4199 316.608 20.4199H320.755C320.962 20.4199 321.16 20.5018 321.305 20.6477C321.451 20.7936 321.533 20.9914 321.533 21.1977C321.533 21.404 321.451 21.6018 321.305 21.7476C321.16 21.8935 320.962 21.9754 320.755 21.9754H320.745ZM312.45 21.9754H308.301C308.095 21.9754 307.897 21.8935 307.751 21.7476C307.605 21.6018 307.523 21.404 307.523 21.1977C307.523 20.9914 307.605 20.7936 307.751 20.6477C307.897 20.5018 308.095 20.4199 308.301 20.4199H312.45C312.656 20.4199 312.854 20.5018 313 20.6477C313.146 20.7936 313.228 20.9914 313.228 21.1977C313.228 21.404 313.146 21.6018 313 21.7476C312.854 21.8935 312.656 21.9754 312.45 21.9754V21.9754ZM304.153 21.9754H300.006C299.799 21.9754 299.601 21.8935 299.456 21.7476C299.31 21.6018 299.228 21.404 299.228 21.1977C299.228 20.9914 299.31 20.7936 299.456 20.6477C299.601 20.5018 299.799 20.4199 300.006 20.4199H304.153C304.359 20.4199 304.557 20.5018 304.703 20.6477C304.849 20.7936 304.931 20.9914 304.931 21.1977C304.931 21.404 304.849 21.6018 304.703 21.7476C304.557 21.8935 304.359 21.9754 304.153 21.9754V21.9754ZM295.858 21.9754H291.71C291.504 21.9754 291.306 21.8935 291.16 21.7476C291.014 21.6018 290.932 21.404 290.932 21.1977C290.932 20.9914 291.014 20.7936 291.16 20.6477C291.306 20.5018 291.504 20.4199 291.71 20.4199H295.858C296.064 20.4199 296.262 20.5018 296.408 20.6477C296.554 20.7936 296.636 20.9914 296.636 21.1977C296.636 21.404 296.554 21.6018 296.408 21.7476C296.262 21.8935 296.064 21.9754 295.858 21.9754V21.9754ZM287.562 21.9754H283.413C283.207 21.9754 283.009 21.8935 282.863 21.7476C282.718 21.6018 282.636 21.404 282.636 21.1977C282.636 20.9914 282.718 20.7936 282.863 20.6477C283.009 20.5018 283.207 20.4199 283.413 20.4199H287.573C287.779 20.4199 287.977 20.5018 288.123 20.6477C288.268 20.7936 288.35 20.9914 288.35 21.1977C288.35 21.404 288.268 21.6018 288.123 21.7476C287.977 21.8935 287.779 21.9754 287.573 21.9754H287.562ZM279.266 21.9754H275.118C274.912 21.9754 274.714 21.8935 274.568 21.7476C274.422 21.6018 274.34 21.404 274.34 21.1977C274.34 20.9914 274.422 20.7936 274.568 20.6477C274.714 20.5018 274.912 20.4199 275.118 20.4199H279.266C279.472 20.4199 279.67 20.5018 279.816 20.6477C279.962 20.7936 280.044 20.9914 280.044 21.1977C280.044 21.404 279.962 21.6018 279.816 21.7476C279.67 21.8935 279.472 21.9754 279.266 21.9754V21.9754ZM270.97 21.9754H266.823C266.616 21.9754 266.419 21.8935 266.273 21.7476C266.127 21.6018 266.045 21.404 266.045 21.1977C266.045 20.9914 266.127 20.7936 266.273 20.6477C266.419 20.5018 266.616 20.4199 266.823 20.4199H270.97C271.177 20.4199 271.375 20.5018 271.52 20.6477C271.666 20.7936 271.748 20.9914 271.748 21.1977C271.748 21.404 271.666 21.6018 271.52 21.7476C271.375 21.8935 271.177 21.9754 270.97 21.9754V21.9754ZM262.674 21.9754H258.526C258.32 21.9754 258.122 21.8935 257.976 21.7476C257.83 21.6018 257.748 21.404 257.748 21.1977C257.748 20.9914 257.83 20.7936 257.976 20.6477C258.122 20.5018 258.32 20.4199 258.526 20.4199H262.674C262.88 20.4199 263.078 20.5018 263.224 20.6477C263.369 20.7936 263.451 20.9914 263.451 21.1977C263.451 21.404 263.369 21.6018 263.224 21.7476C263.078 21.8935 262.88 21.9754 262.674 21.9754V21.9754ZM254.378 21.9754H250.231C250.024 21.9754 249.826 21.8935 249.681 21.7476C249.535 21.6018 249.453 21.404 249.453 21.1977C249.453 20.9914 249.535 20.7936 249.681 20.6477C249.826 20.5018 250.024 20.4199 250.231 20.4199H254.378C254.585 20.4199 254.782 20.5018 254.928 20.6477C255.074 20.7936 255.156 20.9914 255.156 21.1977C255.156 21.404 255.074 21.6018 254.928 21.7476C254.782 21.8935 254.585 21.9754 254.378 21.9754V21.9754ZM246.083 21.9754H241.944C241.738 21.9754 241.54 21.8935 241.394 21.7476C241.248 21.6018 241.166 21.404 241.166 21.1977C241.166 20.9914 241.248 20.7936 241.394 20.6477C241.54 20.5018 241.738 20.4199 241.944 20.4199H246.093C246.299 20.4199 246.497 20.5018 246.643 20.6477C246.789 20.7936 246.871 20.9914 246.871 21.1977C246.871 21.404 246.789 21.6018 246.643 21.7476C246.497 21.8935 246.299 21.9754 246.093 21.9754H246.083ZM237.786 21.9754H233.654C233.448 21.9754 233.25 21.8935 233.104 21.7476C232.959 21.6018 232.877 21.404 232.877 21.1977C232.877 20.9914 232.959 20.7936 233.104 20.6477C233.25 20.5018 233.448 20.4199 233.654 20.4199H237.802C238.008 20.4199 238.206 20.5018 238.352 20.6477C238.498 20.7936 238.58 20.9914 238.58 21.1977C238.58 21.404 238.498 21.6018 238.352 21.7476C238.206 21.8935 238.008 21.9754 237.802 21.9754H237.786ZM229.491 21.9754H225.343C225.137 21.9754 224.939 21.8935 224.793 21.7476C224.647 21.6018 224.565 21.404 224.565 21.1977C224.565 20.9914 224.647 20.7936 224.793 20.6477C224.939 20.5018 225.137 20.4199 225.343 20.4199H229.491C229.697 20.4199 229.895 20.5018 230.041 20.6477C230.187 20.7936 230.269 20.9914 230.269 21.1977C230.269 21.404 230.187 21.6018 230.041 21.7476C229.895 21.8935 229.697 21.9754 229.491 21.9754V21.9754ZM221.195 21.9754H217.046C216.84 21.9754 216.642 21.8935 216.496 21.7476C216.351 21.6018 216.269 21.404 216.269 21.1977C216.269 20.9914 216.351 20.7936 216.496 20.6477C216.642 20.5018 216.84 20.4199 217.046 20.4199H221.195C221.402 20.4199 221.6 20.5018 221.745 20.6477C221.891 20.7936 221.973 20.9914 221.973 21.1977C221.973 21.404 221.891 21.6018 221.745 21.7476C221.6 21.8935 221.402 21.9754 221.195 21.9754V21.9754ZM212.899 21.9754H208.751C208.545 21.9754 208.347 21.8935 208.201 21.7476C208.055 21.6018 207.973 21.404 207.973 21.1977C207.973 20.9914 208.055 20.7936 208.201 20.6477C208.347 20.5018 208.545 20.4199 208.751 20.4199H212.899C213.105 20.4199 213.303 20.5018 213.449 20.6477C213.595 20.7936 213.676 20.9914 213.676 21.1977C213.676 21.404 213.595 21.6018 213.449 21.7476C213.303 21.8935 213.105 21.9754 212.899 21.9754V21.9754ZM204.603 21.9754H200.456C200.249 21.9754 200.052 21.8935 199.906 21.7476C199.76 21.6018 199.678 21.404 199.678 21.1977C199.678 20.9914 199.76 20.7936 199.906 20.6477C200.052 20.5018 200.249 20.4199 200.456 20.4199H204.603C204.81 20.4199 205.007 20.5018 205.153 20.6477C205.299 20.7936 205.381 20.9914 205.381 21.1977C205.381 21.404 205.299 21.6018 205.153 21.7476C205.007 21.8935 204.81 21.9754 204.603 21.9754V21.9754ZM196.307 21.9754H192.159C191.953 21.9754 191.755 21.8935 191.609 21.7476C191.463 21.6018 191.381 21.404 191.381 21.1977C191.381 20.9914 191.463 20.7936 191.609 20.6477C191.755 20.5018 191.953 20.4199 192.159 20.4199H196.315C196.522 20.4199 196.719 20.5018 196.865 20.6477C197.011 20.7936 197.093 20.9914 197.093 21.1977C197.093 21.404 197.011 21.6018 196.865 21.7476C196.719 21.8935 196.522 21.9754 196.315 21.9754H196.307ZM188.011 21.9754H183.874C183.667 21.9754 183.47 21.8935 183.324 21.7476C183.178 21.6018 183.096 21.404 183.096 21.1977C183.096 20.9914 183.178 20.7936 183.324 20.6477C183.47 20.5018 183.667 20.4199 183.874 20.4199H188.021C188.228 20.4199 188.425 20.5018 188.571 20.6477C188.717 20.7936 188.799 20.9914 188.799 21.1977C188.799 21.404 188.717 21.6018 188.571 21.7476C188.425 21.8935 188.228 21.9754 188.021 21.9754H188.011ZM179.716 21.9754H175.568C175.362 21.9754 175.164 21.8935 175.018 21.7476C174.872 21.6018 174.79 21.404 174.79 21.1977C174.79 20.9914 174.872 20.7936 175.018 20.6477C175.164 20.5018 175.362 20.4199 175.568 20.4199H179.716C179.922 20.4199 180.12 20.5018 180.266 20.6477C180.412 20.7936 180.494 20.9914 180.494 21.1977C180.494 21.404 180.412 21.6018 180.266 21.7476C180.12 21.8935 179.922 21.9754 179.716 21.9754V21.9754ZM171.419 21.9754H167.271C167.065 21.9754 166.867 21.8935 166.721 21.7476C166.576 21.6018 166.494 21.404 166.494 21.1977C166.494 20.9914 166.576 20.7936 166.721 20.6477C166.867 20.5018 167.065 20.4199 167.271 20.4199H171.419C171.625 20.4199 171.823 20.5018 171.969 20.6477C172.115 20.7936 172.197 20.9914 172.197 21.1977C172.197 21.404 172.115 21.6018 171.969 21.7476C171.823 21.8935 171.625 21.9754 171.419 21.9754V21.9754ZM163.124 21.9754H158.976C158.77 21.9754 158.572 21.8935 158.426 21.7476C158.28 21.6018 158.198 21.404 158.198 21.1977C158.198 20.9914 158.28 20.7936 158.426 20.6477C158.572 20.5018 158.77 20.4199 158.976 20.4199H163.124C163.33 20.4199 163.528 20.5018 163.674 20.6477C163.82 20.7936 163.902 20.9914 163.902 21.1977C163.902 21.404 163.82 21.6018 163.674 21.7476C163.528 21.8935 163.33 21.9754 163.124 21.9754V21.9754ZM154.827 21.9754H150.679C150.473 21.9754 150.275 21.8935 150.129 21.7476C149.983 21.6018 149.902 21.404 149.902 21.1977C149.902 20.9914 149.983 20.7936 150.129 20.6477C150.275 20.5018 150.473 20.4199 150.679 20.4199H154.827C155.033 20.4199 155.231 20.5018 155.377 20.6477C155.523 20.7936 155.605 20.9914 155.605 21.1977C155.605 21.404 155.523 21.6018 155.377 21.7476C155.231 21.8935 155.033 21.9754 154.827 21.9754V21.9754ZM146.532 21.9754H142.397C142.191 21.9754 141.993 21.8935 141.847 21.7476C141.701 21.6018 141.619 21.404 141.619 21.1977C141.619 20.9914 141.701 20.7936 141.847 20.6477C141.993 20.5018 142.191 20.4199 142.397 20.4199H146.545C146.751 20.4199 146.949 20.5018 147.095 20.6477C147.24 20.7936 147.322 20.9914 147.322 21.1977C147.322 21.404 147.24 21.6018 147.095 21.7476C146.949 21.8935 146.751 21.9754 146.545 21.9754H146.532ZM138.236 21.9754H134.089C133.882 21.9754 133.685 21.8935 133.539 21.7476C133.393 21.6018 133.311 21.404 133.311 21.1977C133.311 20.9914 133.393 20.7936 133.539 20.6477C133.685 20.5018 133.882 20.4199 134.089 20.4199H138.236C138.443 20.4199 138.64 20.5018 138.786 20.6477C138.932 20.7936 139.014 20.9914 139.014 21.1977C139.014 21.404 138.932 21.6018 138.786 21.7476C138.64 21.8935 138.443 21.9754 138.236 21.9754V21.9754ZM129.94 21.9754H125.792C125.586 21.9754 125.388 21.8935 125.242 21.7476C125.096 21.6018 125.014 21.404 125.014 21.1977C125.014 20.9914 125.096 20.7936 125.242 20.6477C125.388 20.5018 125.586 20.4199 125.792 20.4199H129.94C130.146 20.4199 130.344 20.5018 130.49 20.6477C130.635 20.7936 130.717 20.9914 130.717 21.1977C130.717 21.404 130.635 21.6018 130.49 21.7476C130.344 21.8935 130.146 21.9754 129.94 21.9754V21.9754ZM121.644 21.9754H117.497C117.29 21.9754 117.092 21.8935 116.947 21.7476C116.801 21.6018 116.719 21.404 116.719 21.1977C116.719 20.9914 116.801 20.7936 116.947 20.6477C117.092 20.5018 117.29 20.4199 117.497 20.4199H121.644C121.85 20.4199 122.048 20.5018 122.194 20.6477C122.34 20.7936 122.422 20.9914 122.422 21.1977C122.422 21.404 122.34 21.6018 122.194 21.7476C122.048 21.8935 121.85 21.9754 121.644 21.9754V21.9754Z" fill="#C2E0FF"/>
<path d="M399.221 146.584H395.761C395.555 146.584 395.357 146.503 395.211 146.357C395.066 146.211 394.984 146.013 394.984 145.807C394.984 145.601 395.066 145.404 395.211 145.258C395.357 145.112 395.555 145.03 395.761 145.03H399.221C399.427 145.03 399.625 145.112 399.77 145.258C399.916 145.404 399.998 145.601 399.998 145.807C399.998 146.013 399.916 146.211 399.77 146.357C399.625 146.503 399.427 146.584 399.221 146.584V146.584ZM391.616 146.584H387.468C387.262 146.584 387.065 146.503 386.919 146.357C386.773 146.211 386.691 146.013 386.691 145.807C386.691 145.601 386.773 145.404 386.919 145.258C387.065 145.112 387.262 145.03 387.468 145.03H391.616C391.822 145.03 392.02 145.112 392.165 145.258C392.311 145.404 392.393 145.601 392.393 145.807C392.393 146.013 392.311 146.211 392.165 146.357C392.02 146.503 391.822 146.584 391.616 146.584V146.584ZM383.319 146.584H379.172C378.966 146.584 378.768 146.503 378.622 146.357C378.476 146.211 378.395 146.013 378.395 145.807C378.395 145.601 378.476 145.404 378.622 145.258C378.768 145.112 378.966 145.03 379.172 145.03H383.319C383.525 145.03 383.723 145.112 383.869 145.258C384.014 145.404 384.096 145.601 384.096 145.807C384.096 146.013 384.014 146.211 383.869 146.357C383.723 146.503 383.525 146.584 383.319 146.584V146.584Z" fill="#C2E0FF"/>
<path d="M398.7 249.247H395.24C395.039 249.238 394.85 249.152 394.711 249.008C394.572 248.863 394.495 248.67 394.495 248.469C394.495 248.268 394.572 248.075 394.711 247.93C394.85 247.786 395.039 247.7 395.24 247.691H398.7C398.805 247.687 398.909 247.703 399.008 247.741C399.106 247.778 399.196 247.834 399.272 247.907C399.347 247.979 399.408 248.067 399.449 248.163C399.49 248.26 399.512 248.364 399.512 248.469C399.512 248.574 399.49 248.678 399.449 248.775C399.408 248.871 399.347 248.959 399.272 249.031C399.196 249.104 399.106 249.16 399.008 249.197C398.909 249.235 398.805 249.251 398.7 249.247ZM391.095 249.247H386.947C386.842 249.251 386.737 249.235 386.639 249.197C386.541 249.16 386.451 249.104 386.375 249.031C386.299 248.959 386.239 248.871 386.198 248.775C386.156 248.678 386.135 248.574 386.135 248.469C386.135 248.364 386.156 248.26 386.198 248.163C386.239 248.067 386.299 247.979 386.375 247.907C386.451 247.834 386.541 247.778 386.639 247.741C386.737 247.703 386.842 247.687 386.947 247.691H391.095C391.2 247.687 391.305 247.703 391.403 247.741C391.501 247.778 391.591 247.834 391.667 247.907C391.743 247.979 391.803 248.067 391.844 248.163C391.886 248.26 391.907 248.364 391.907 248.469C391.907 248.574 391.886 248.678 391.844 248.775C391.803 248.871 391.743 248.959 391.667 249.031C391.591 249.104 391.501 249.16 391.403 249.197C391.305 249.235 391.2 249.251 391.095 249.247ZM382.799 249.247H378.652C378.547 249.251 378.442 249.235 378.344 249.197C378.245 249.16 378.156 249.104 378.08 249.031C378.004 248.959 377.944 248.871 377.902 248.775C377.861 248.678 377.84 248.574 377.84 248.469C377.84 248.364 377.861 248.26 377.902 248.163C377.944 248.067 378.004 247.979 378.08 247.907C378.156 247.834 378.245 247.778 378.344 247.741C378.442 247.703 378.547 247.687 378.652 247.691H382.799C383 247.7 383.189 247.786 383.328 247.93C383.467 248.075 383.544 248.268 383.544 248.469C383.544 248.67 383.467 248.863 383.328 249.008C383.189 249.152 383 249.238 382.799 249.247Z" fill="#C2E0FF"/>
<path d="M398.186 366.425H394.726C394.52 366.425 394.322 366.343 394.176 366.198C394.031 366.052 393.949 365.854 393.949 365.648C393.949 365.442 394.031 365.244 394.176 365.099C394.322 364.953 394.52 364.871 394.726 364.871H398.186C398.392 364.871 398.589 364.953 398.735 365.099C398.881 365.244 398.963 365.442 398.963 365.648C398.963 365.854 398.881 366.052 398.735 366.198C398.589 366.343 398.392 366.425 398.186 366.425ZM390.581 366.425H386.432C386.226 366.425 386.028 366.343 385.882 366.198C385.737 366.052 385.655 365.854 385.655 365.648C385.655 365.442 385.737 365.244 385.882 365.099C386.028 364.953 386.226 364.871 386.432 364.871H390.581C390.787 364.871 390.985 364.953 391.13 365.099C391.276 365.244 391.358 365.442 391.358 365.648C391.358 365.854 391.276 366.052 391.13 366.198C390.985 366.343 390.787 366.425 390.581 366.425ZM382.284 366.425H378.136C377.93 366.425 377.733 366.343 377.587 366.198C377.441 366.052 377.359 365.854 377.359 365.648C377.359 365.442 377.441 365.244 377.587 365.099C377.733 364.953 377.93 364.871 378.136 364.871H382.291C382.497 364.871 382.695 364.953 382.841 365.099C382.986 365.244 383.068 365.442 383.068 365.648C383.068 365.854 382.986 366.052 382.841 366.198C382.695 366.343 382.497 366.425 382.291 366.425H382.284Z" fill="#C2E0FF"/>
<path d="M58.9688 156.089L59.4387 159.223C59.7715 159.147 60.0932 159.029 60.396 158.872C60.924 158.504 61.3626 158.022 61.6792 157.462C61.9959 156.901 62.1826 156.277 62.2255 155.635C61.7312 155.77 61.2296 155.876 60.7233 155.954C60.1419 156.036 59.5559 156.082 58.9688 156.089V156.089Z" fill="#374151"/>
<path d="M45.7082 148.019C45.1925 148.049 44.6763 147.968 44.1943 147.782C43.7124 147.596 43.2759 147.309 42.9142 146.94C44.12 145.81 45.1115 144.472 45.8408 142.989C47.1311 140.335 47.5463 137.32 48.7717 134.636C50.2006 131.788 52.261 129.304 54.7957 127.374C57.3304 125.444 60.2724 124.118 63.3974 123.497C64.2509 123.307 65.544 123.065 65.6551 122.002C65.6387 121.565 65.5069 121.141 65.273 120.771C68.1467 122.879 70.0654 126.043 70.6072 129.565L71.9955 138.809C74.0672 132.329 73.417 125.95 69.4452 121.035C63.9236 114.203 53.3476 111.843 42.0622 113.887C41.9714 113.805 41.9267 113.714 41.8315 113.633C39.4797 111.806 36.5343 110.914 33.5636 111.129C27.8286 111.174 25.5566 115.636 20.7558 116.272C18.9192 116.514 17.1935 115.418 15.3438 115.454C14.2002 115.586 13.1096 116.01 12.1771 116.685C11.2447 117.36 10.5017 118.264 10.0198 119.309C8.95726 121.224 8.30418 123.368 6.68231 124.955C5.29111 126.311 3.33333 127.11 1.82967 128.369C0.326015 129.627 -0.664411 131.771 0.532171 133.22C1.09586 133.909 2.04015 134.294 2.60384 134.979C4.18967 136.914 2.00122 139.47 1.02665 141.739C0.498203 143.008 0.362582 144.406 0.637322 145.753C0.912062 147.1 1.58453 148.334 2.56779 149.295C4.01667 150.726 6.23972 151.89 6.3291 153.824C6.39686 155.351 5.02151 156.87 5.56934 158.312C6.37523 160.427 10.1221 160.003 11.9127 161.572C13.1669 162.678 13.1251 164.455 13.5634 165.976C14.0819 167.464 15.0174 168.772 16.2584 169.743C17.4994 170.714 18.9935 171.308 20.5627 171.454C22.3273 171.655 24.2303 171.379 25.8175 172.07C27.8676 172.964 28.8695 175.262 31.0565 175.86C35.605 177.096 37.2225 172.289 40.6739 169.847C42.8364 168.313 45.8278 167.736 48.5656 166.99L45.7082 148.019Z" fill="#374151"/>
<path d="M71.9953 138.812L70.607 129.568C70.0653 126.046 68.1465 122.882 65.2728 120.774C65.5067 121.144 65.6385 121.568 65.6549 122.005C65.5439 123.074 64.2507 123.303 63.3972 123.5C60.2722 124.121 57.3302 125.447 54.7955 127.377C52.2608 129.307 50.2005 131.791 48.7715 134.639C47.5461 137.323 47.1309 140.338 45.8406 142.992C45.1113 144.475 44.1198 145.813 42.9141 146.943C43.2757 147.312 43.7122 147.599 44.1941 147.785C44.6761 147.971 45.1923 148.052 45.708 148.022L48.5538 166.988L49.612 174.041C49.8225 175.438 50.8778 176.448 51.9576 176.285L59.8132 175.108C60.393 174.932 60.8823 174.539 61.178 174.01C61.4738 173.482 61.553 172.859 61.3991 172.273L59.4427 159.226L58.9728 156.092C59.5599 156.085 60.1459 156.039 60.7273 155.957C61.2337 155.879 61.7352 155.773 62.2295 155.638C65.4705 154.769 68.28 152.741 70.1254 149.938C71.9708 147.136 72.7238 143.753 72.2418 140.433L71.9953 138.812ZM54.3753 130.854L57.6652 130.344C57.7799 130.326 57.897 130.331 58.0098 130.359C58.1226 130.386 58.2289 130.435 58.3226 130.504C58.4163 130.573 58.4956 130.659 58.556 130.758C58.6163 130.857 58.6565 130.967 58.6743 131.082C58.6921 131.197 58.6872 131.314 58.6597 131.427C58.6322 131.54 58.5828 131.646 58.5143 131.74C58.4457 131.833 58.3594 131.913 58.2602 131.973C58.161 132.033 58.0509 132.073 57.9362 132.091L54.6463 132.602C54.4146 132.638 54.1781 132.58 53.9889 132.442C53.7996 132.303 53.6731 132.095 53.6372 131.863C53.6012 131.632 53.6588 131.395 53.7972 131.206C53.9356 131.017 54.1436 130.89 54.3753 130.854ZM58.0328 136.013C58.1626 136.849 57.8281 137.598 57.2846 137.678C56.7411 137.757 56.1976 137.153 56.0678 136.318C55.9381 135.483 56.274 134.732 56.816 134.653L58.4884 134.394L57.7992 135.335C57.9157 135.546 57.9947 135.775 58.0328 136.013V136.013ZM69.8472 134.182C69.977 135.016 69.6425 135.767 69.099 135.845C68.5555 135.923 68.012 135.321 67.8822 134.486C67.7525 133.651 68.0884 132.9 68.6305 132.822L70.3028 132.563L69.6151 133.503C69.7303 133.714 69.8088 133.944 69.8472 134.182V134.182ZM67.1456 128.875L69.6987 128.478C70.0721 128.421 70.4383 128.767 70.5133 129.247C70.5672 129.449 70.5407 129.663 70.4393 129.846C70.3379 130.029 70.1696 130.165 69.9698 130.226L67.4151 130.622C67.0418 130.68 66.6756 130.334 66.6021 129.854C66.5475 129.653 66.5731 129.438 66.6734 129.256C66.7737 129.073 66.9409 128.937 67.1398 128.875H67.1456ZM63.132 141.363C63.2782 141.564 63.4898 141.709 63.7307 141.773C63.9717 141.836 64.2272 141.815 64.454 141.711L65.8481 141.005C66.1274 140.842 66.3548 140.604 66.5036 140.317C66.6524 140.03 66.7166 139.707 66.6886 139.385L66.8414 139.66C67.0936 140.078 67.1708 140.58 67.0561 141.054C66.9414 141.529 66.6441 141.94 66.2287 142.197L64.8331 142.902C64.0287 143.309 63.1031 142.562 63.1276 141.533L63.132 141.363ZM67.0836 145.512C67.0449 145.837 66.9422 146.152 66.7813 146.437C66.6205 146.723 66.4048 146.974 66.1465 147.176C65.8883 147.377 65.5927 147.526 65.2767 147.613C64.9607 147.7 64.6306 147.724 64.3055 147.683C62.2511 147.723 62.0075 146.818 61.7451 145.914L67.0836 145.512Z" fill="#FF9985"/>
<path d="M54.6485 132.602L57.9384 132.091C58.0531 132.073 58.1632 132.033 58.2624 131.973C58.3616 131.913 58.4479 131.833 58.5165 131.74C58.585 131.646 58.6344 131.54 58.6619 131.427C58.6894 131.314 58.6943 131.197 58.6765 131.082C58.6587 130.967 58.6185 130.857 58.5582 130.758C58.4978 130.659 58.4185 130.573 58.3248 130.504C58.2311 130.435 58.1248 130.386 58.012 130.359C57.8992 130.331 57.7821 130.326 57.6674 130.344L54.3775 130.854C54.1458 130.89 53.9378 131.017 53.7994 131.206C53.661 131.395 53.6034 131.632 53.6394 131.863C53.6753 132.095 53.8018 132.303 53.9911 132.442C54.1803 132.58 54.4168 132.638 54.6485 132.602V132.602Z" fill="#374151"/>
<path d="M67.4149 130.622L69.9696 130.226C70.1694 130.165 70.3377 130.028 70.4391 129.846C70.5405 129.663 70.567 129.448 70.5131 129.247C70.4381 128.767 70.0719 128.421 69.6985 128.478L67.1454 128.875C66.9454 128.935 66.7768 129.071 66.6754 129.254C66.5739 129.437 66.5476 129.652 66.6018 129.854C66.6754 130.334 67.0416 130.68 67.4149 130.622Z" fill="#374151"/>
<path d="M64.8346 142.902L66.2302 142.197C66.6456 141.94 66.9429 141.529 67.0576 141.054C67.1723 140.579 67.0951 140.078 66.8429 139.66L66.6901 139.385C66.7181 139.707 66.6539 140.03 66.5051 140.317C66.3563 140.604 66.1289 140.842 65.8496 141.005L64.4555 141.711C64.2287 141.815 63.9732 141.836 63.7322 141.773C63.4913 141.709 63.2797 141.564 63.1335 141.362V141.533C63.1046 142.562 64.0302 143.309 64.8346 142.902Z" fill="#C45446"/>
<path d="M56.8191 134.653C56.277 134.737 55.9411 135.482 56.0708 136.318C56.2006 137.154 56.7455 137.76 57.2876 137.678C57.8297 137.596 58.1656 136.849 58.0358 136.013C57.9978 135.775 57.9187 135.546 57.8023 135.335L58.4914 134.394L56.8191 134.653Z" fill="#374151"/>
<path d="M68.6316 132.822C68.0895 132.906 67.7536 133.651 67.8833 134.486C68.0131 135.32 68.558 135.927 69.1001 135.845C69.6422 135.763 69.9781 135.016 69.8483 134.181C69.8098 133.944 69.7314 133.714 69.6162 133.502L70.3039 132.562L68.6316 132.822Z" fill="#374151"/>
<path d="M64.3061 147.683C64.6312 147.724 64.9613 147.7 65.2773 147.613C65.5933 147.526 65.8889 147.377 66.1471 147.176C66.4054 146.974 66.6211 146.723 66.7819 146.437C66.9428 146.152 67.0455 145.837 67.0842 145.512L61.75 145.914C62.0081 146.818 62.2517 147.723 64.3061 147.683Z" fill="white"/>
</g>
<defs>
<clipPath id="clip0_5442_92285">
<rect width="400" height="464.161" fill="white"/>
</clipPath>
</defs>
</svg>
