<svg width="400" height="412" viewBox="0 0 400 412" fill="none" xmlns="http://www.w3.org/2000/svg">
<g clip-path="url(#clip0_5442_92423)">
<path d="M261.414 33.389H259.883C259.731 33.389 259.585 33.3284 259.477 33.2206C259.369 33.1128 259.309 32.9667 259.309 32.8143C259.309 32.6618 259.369 32.5156 259.477 32.4078C259.585 32.3 259.731 32.2395 259.883 32.2395H261.414C261.566 32.2395 261.713 32.3 261.82 32.4078C261.928 32.5156 261.989 32.6618 261.989 32.8143C261.989 32.9667 261.928 33.1128 261.82 33.2206C261.713 33.3284 261.566 33.389 261.414 33.389V33.389Z" fill="#4DB4E8"/>
<path d="M347.723 33.389H344.64C344.488 33.389 344.342 33.3284 344.234 33.2206C344.126 33.1128 344.066 32.9667 344.066 32.8143C344.066 32.6618 344.126 32.5156 344.234 32.4078C344.342 32.3 344.488 32.2395 344.64 32.2395H347.722C347.874 32.2395 348.02 32.3 348.128 32.4078C348.236 32.5156 348.297 32.6618 348.297 32.8143C348.297 32.9667 348.236 33.1128 348.128 33.2206C348.02 33.3284 347.874 33.389 347.722 33.389H347.723ZM341.558 33.389H338.476C338.324 33.389 338.178 33.3284 338.07 33.2206C337.962 33.1128 337.901 32.9667 337.901 32.8143C337.901 32.6618 337.962 32.5156 338.07 32.4078C338.178 32.3 338.324 32.2395 338.476 32.2395H341.561C341.713 32.2395 341.859 32.3 341.967 32.4078C342.075 32.5156 342.135 32.6618 342.135 32.8143C342.135 32.9667 342.075 33.1128 341.967 33.2206C341.859 33.3284 341.713 33.389 341.561 33.389H341.558ZM335.393 33.389H332.312C332.16 33.389 332.013 33.3284 331.906 33.2206C331.798 33.1128 331.737 32.9667 331.737 32.8143C331.737 32.6618 331.798 32.5156 331.906 32.4078C332.013 32.3 332.16 32.2395 332.312 32.2395H335.393C335.546 32.2395 335.692 32.3 335.8 32.4078C335.908 32.5156 335.968 32.6618 335.968 32.8143C335.968 32.9667 335.908 33.1128 335.8 33.2206C335.692 33.3284 335.546 33.389 335.393 33.389V33.389ZM329.227 33.389H326.146C325.994 33.389 325.848 33.3284 325.74 33.2206C325.632 33.1128 325.571 32.9667 325.571 32.8143C325.571 32.6618 325.632 32.5156 325.74 32.4078C325.848 32.3 325.994 32.2395 326.146 32.2395H329.227C329.38 32.2395 329.526 32.3 329.634 32.4078C329.742 32.5156 329.802 32.6618 329.802 32.8143C329.802 32.9667 329.742 33.1128 329.634 33.2206C329.526 33.3284 329.38 33.389 329.227 33.389V33.389ZM323.062 33.389H319.98C319.828 33.389 319.682 33.3284 319.574 33.2206C319.466 33.1128 319.406 32.9667 319.406 32.8143C319.406 32.6618 319.466 32.5156 319.574 32.4078C319.682 32.3 319.828 32.2395 319.98 32.2395H323.062C323.214 32.2395 323.36 32.3 323.468 32.4078C323.576 32.5156 323.636 32.6618 323.636 32.8143C323.636 32.9667 323.576 33.1128 323.468 33.2206C323.36 33.3284 323.214 33.389 323.062 33.389V33.389ZM316.897 33.389H313.816C313.664 33.389 313.517 33.3284 313.41 33.2206C313.302 33.1128 313.241 32.9667 313.241 32.8143C313.241 32.6618 313.302 32.5156 313.41 32.4078C313.517 32.3 313.664 32.2395 313.816 32.2395H316.897C317.05 32.2395 317.196 32.3 317.304 32.4078C317.412 32.5156 317.472 32.6618 317.472 32.8143C317.472 32.9667 317.412 33.1128 317.304 33.2206C317.196 33.3284 317.05 33.389 316.897 33.389V33.389ZM310.732 33.389H307.652C307.499 33.389 307.353 33.3284 307.245 33.2206C307.138 33.1128 307.077 32.9667 307.077 32.8143C307.077 32.6618 307.138 32.5156 307.245 32.4078C307.353 32.3 307.499 32.2395 307.652 32.2395H310.733C310.886 32.2395 311.032 32.3 311.14 32.4078C311.247 32.5156 311.308 32.6618 311.308 32.8143C311.308 32.9667 311.247 33.1128 311.14 33.2206C311.032 33.3284 310.886 33.389 310.733 33.389H310.732ZM304.566 33.389H301.484C301.332 33.389 301.186 33.3284 301.078 33.2206C300.97 33.1128 300.91 32.9667 300.91 32.8143C300.91 32.6618 300.97 32.5156 301.078 32.4078C301.186 32.3 301.332 32.2395 301.484 32.2395H304.566C304.718 32.2395 304.864 32.3 304.972 32.4078C305.08 32.5156 305.141 32.6618 305.141 32.8143C305.141 32.9667 305.08 33.1128 304.972 33.2206C304.864 33.3284 304.718 33.389 304.566 33.389V33.389ZM298.402 33.389H295.32C295.168 33.389 295.022 33.3284 294.914 33.2206C294.806 33.1128 294.745 32.9667 294.745 32.8143C294.745 32.6618 294.806 32.5156 294.914 32.4078C295.022 32.3 295.168 32.2395 295.32 32.2395H298.402C298.554 32.2395 298.7 32.3 298.808 32.4078C298.916 32.5156 298.976 32.6618 298.976 32.8143C298.976 32.9667 298.916 33.1128 298.808 33.2206C298.7 33.3284 298.554 33.389 298.402 33.389V33.389ZM292.236 33.389H289.154C289.002 33.389 288.856 33.3284 288.748 33.2206C288.64 33.1128 288.58 32.9667 288.58 32.8143C288.58 32.6618 288.64 32.5156 288.748 32.4078C288.856 32.3 289.002 32.2395 289.154 32.2395H292.236C292.388 32.2395 292.534 32.3 292.642 32.4078C292.75 32.5156 292.81 32.6618 292.81 32.8143C292.81 32.9667 292.75 33.1128 292.642 33.2206C292.534 33.3284 292.388 33.389 292.236 33.389V33.389ZM286.07 33.389H282.989C282.836 33.389 282.69 33.3284 282.582 33.2206C282.474 33.1128 282.414 32.9667 282.414 32.8143C282.414 32.6618 282.474 32.5156 282.582 32.4078C282.69 32.3 282.836 32.2395 282.989 32.2395H286.07C286.222 32.2395 286.369 32.3 286.476 32.4078C286.584 32.5156 286.645 32.6618 286.645 32.8143C286.645 32.9667 286.584 33.1128 286.476 33.2206C286.369 33.3284 286.222 33.389 286.07 33.389V33.389ZM279.906 33.389H276.824C276.672 33.389 276.526 33.3284 276.418 33.2206C276.31 33.1128 276.25 32.9667 276.25 32.8143C276.25 32.6618 276.31 32.5156 276.418 32.4078C276.526 32.3 276.672 32.2395 276.824 32.2395H279.906C280.058 32.2395 280.204 32.3 280.312 32.4078C280.42 32.5156 280.48 32.6618 280.48 32.8143C280.48 32.9667 280.42 33.1128 280.312 33.2206C280.204 33.3284 280.058 33.389 279.906 33.389V33.389ZM273.74 33.389H270.659C270.506 33.389 270.36 33.3284 270.252 33.2206C270.144 33.1128 270.084 32.9667 270.084 32.8143C270.084 32.6618 270.144 32.5156 270.252 32.4078C270.36 32.3 270.506 32.2395 270.659 32.2395H273.743C273.895 32.2395 274.042 32.3 274.149 32.4078C274.257 32.5156 274.318 32.6618 274.318 32.8143C274.318 32.9667 274.257 33.1128 274.149 33.2206C274.042 33.3284 273.895 33.389 273.743 33.389H273.74ZM267.574 33.389H264.493C264.34 33.389 264.194 33.3284 264.086 33.2206C263.979 33.1128 263.918 32.9667 263.918 32.8143C263.918 32.6618 263.979 32.5156 264.086 32.4078C264.194 32.3 264.34 32.2395 264.493 32.2395H267.574C267.726 32.2395 267.873 32.3 267.98 32.4078C268.088 32.5156 268.149 32.6618 268.149 32.8143C268.149 32.9667 268.088 33.1128 267.98 33.2206C267.873 33.3284 267.726 33.389 267.574 33.389V33.389Z" fill="#4DB4E8"/>
<path d="M352.336 34.9256C352.26 34.9256 352.186 34.9108 352.116 34.882C352.046 34.8531 351.983 34.8108 351.93 34.7576C351.877 34.7043 351.834 34.641 351.805 34.5713C351.777 34.5017 351.762 34.4271 351.762 34.3517V33.3951H350.805C350.653 33.3951 350.507 33.3345 350.399 33.2267C350.291 33.1189 350.23 32.9728 350.23 32.8204C350.23 32.6679 350.291 32.5217 350.399 32.4139C350.507 32.3061 350.653 32.2456 350.805 32.2456H352.336C352.411 32.2456 352.486 32.2605 352.555 32.2893C352.625 32.3182 352.688 32.3604 352.742 32.4137C352.795 32.467 352.837 32.5303 352.866 32.5999C352.895 32.6695 352.91 32.7442 352.91 32.8196V34.3517C352.91 34.5039 352.849 34.6499 352.742 34.7576C352.634 34.8652 352.488 34.9256 352.336 34.9256V34.9256Z" fill="#4DB4E8"/>
<path d="M352.336 139.174C352.183 139.174 352.037 139.113 351.93 139.006C351.822 138.898 351.762 138.752 351.762 138.6V135.534C351.762 135.382 351.822 135.236 351.93 135.128C352.037 135.02 352.183 134.96 352.336 134.96C352.488 134.96 352.634 135.02 352.742 135.128C352.849 135.236 352.91 135.382 352.91 135.534V138.6C352.91 138.752 352.849 138.898 352.742 139.006C352.634 139.113 352.488 139.174 352.336 139.174V139.174ZM352.336 133.041C352.183 133.041 352.037 132.98 351.93 132.872C351.822 132.765 351.762 132.619 351.762 132.467V129.401C351.762 129.249 351.822 129.103 351.93 128.995C352.037 128.887 352.183 128.827 352.336 128.827C352.488 128.827 352.634 128.887 352.742 128.995C352.849 129.103 352.91 129.249 352.91 129.401V132.467C352.91 132.542 352.895 132.617 352.866 132.687C352.838 132.757 352.795 132.82 352.742 132.874C352.689 132.927 352.625 132.969 352.556 132.998C352.486 133.027 352.411 133.042 352.336 133.042V133.041ZM352.336 126.907C352.183 126.907 352.037 126.847 351.93 126.739C351.822 126.632 351.762 126.486 351.762 126.333V123.268C351.762 123.115 351.822 122.969 351.93 122.862C352.037 122.754 352.183 122.694 352.336 122.694C352.488 122.694 352.634 122.754 352.742 122.862C352.849 122.969 352.91 123.115 352.91 123.268V126.333C352.91 126.409 352.895 126.484 352.866 126.554C352.838 126.623 352.795 126.687 352.742 126.74C352.689 126.794 352.625 126.836 352.556 126.865C352.486 126.894 352.411 126.909 352.336 126.909V126.907ZM352.336 120.776C352.183 120.776 352.037 120.715 351.93 120.608C351.822 120.5 351.762 120.354 351.762 120.202V117.135C351.762 116.982 351.822 116.836 351.93 116.729C352.037 116.621 352.183 116.561 352.336 116.561C352.488 116.561 352.634 116.621 352.742 116.729C352.849 116.836 352.91 116.982 352.91 117.135V120.202C352.91 120.277 352.895 120.352 352.866 120.422C352.838 120.492 352.795 120.555 352.742 120.609C352.689 120.662 352.625 120.705 352.556 120.734C352.486 120.762 352.411 120.777 352.336 120.777V120.776ZM352.336 114.643C352.26 114.643 352.186 114.628 352.116 114.599C352.046 114.57 351.983 114.528 351.93 114.475C351.877 114.421 351.834 114.358 351.805 114.288C351.777 114.219 351.762 114.144 351.762 114.069V111.001C351.762 110.849 351.822 110.703 351.93 110.596C352.037 110.488 352.183 110.427 352.336 110.427C352.488 110.427 352.634 110.488 352.742 110.596C352.849 110.703 352.91 110.849 352.91 111.001V114.069C352.91 114.144 352.895 114.219 352.866 114.289C352.838 114.359 352.795 114.422 352.742 114.476C352.689 114.529 352.625 114.571 352.556 114.6C352.486 114.629 352.411 114.644 352.336 114.644V114.643ZM352.336 108.51C352.26 108.51 352.186 108.495 352.116 108.466C352.046 108.437 351.983 108.395 351.93 108.341C351.877 108.288 351.834 108.225 351.805 108.155C351.777 108.086 351.762 108.011 351.762 107.936V104.868C351.762 104.716 351.822 104.57 351.93 104.462C352.037 104.355 352.183 104.294 352.336 104.294C352.488 104.294 352.634 104.355 352.742 104.462C352.849 104.57 352.91 104.716 352.91 104.868V107.945C352.908 108.096 352.846 108.24 352.739 108.346C352.631 108.452 352.487 108.511 352.336 108.511V108.51ZM352.336 102.376C352.26 102.376 352.186 102.362 352.116 102.333C352.046 102.304 351.983 102.262 351.93 102.208C351.877 102.155 351.834 102.092 351.805 102.022C351.777 101.952 351.762 101.878 351.762 101.802V98.7366C351.762 98.5844 351.822 98.4384 351.93 98.3308C352.037 98.2231 352.183 98.1627 352.336 98.1627C352.488 98.1627 352.634 98.2231 352.742 98.3308C352.849 98.4384 352.91 98.5844 352.91 98.7366V101.802C352.91 101.878 352.895 101.953 352.867 102.023C352.838 102.093 352.796 102.157 352.743 102.21C352.689 102.264 352.626 102.306 352.556 102.336C352.486 102.365 352.411 102.38 352.336 102.38V102.376ZM352.336 96.2433C352.183 96.2433 352.037 96.1828 351.93 96.0752C351.822 95.9675 351.762 95.8215 351.762 95.6693V92.6035C351.762 92.4513 351.822 92.3053 351.93 92.1977C352.037 92.09 352.183 92.0296 352.336 92.0296C352.488 92.0296 352.634 92.09 352.742 92.1977C352.849 92.3053 352.91 92.4513 352.91 92.6035V95.6693C352.91 95.745 352.895 95.8199 352.867 95.8899C352.838 95.9599 352.796 96.0235 352.743 96.0772C352.689 96.1308 352.626 96.1734 352.556 96.2024C352.486 96.2314 352.411 96.2464 352.336 96.2464V96.2433ZM352.336 90.1101C352.183 90.1101 352.037 90.0496 351.93 89.942C351.822 89.8344 351.762 89.6884 351.762 89.5362V86.4797C351.762 86.3275 351.822 86.1815 351.93 86.0738C352.037 85.9662 352.183 85.9057 352.336 85.9057C352.488 85.9057 352.634 85.9662 352.742 86.0738C352.849 86.1815 352.91 86.3275 352.91 86.4797V89.5455C352.908 89.6966 352.847 89.841 352.739 89.9473C352.632 90.0536 352.487 90.1132 352.336 90.1132V90.1101ZM352.336 83.977C352.183 83.977 352.037 83.9165 351.93 83.8089C351.822 83.7012 351.762 83.5552 351.762 83.403V80.3372C351.762 80.185 351.822 80.039 351.93 79.9314C352.037 79.8237 352.183 79.7632 352.336 79.7632C352.488 79.7632 352.634 79.8237 352.742 79.9314C352.849 80.039 352.91 80.185 352.91 80.3372V83.403C352.91 83.4786 352.895 83.5536 352.867 83.6236C352.838 83.6936 352.796 83.7573 352.743 83.8109C352.689 83.8645 352.626 83.9071 352.556 83.9361C352.486 83.9652 352.411 83.9801 352.336 83.9801V83.977ZM352.336 77.8438C352.183 77.8438 352.037 77.7834 351.93 77.6757C351.822 77.5681 351.762 77.4221 351.762 77.2699V74.2041C351.762 74.0518 351.822 73.9058 351.93 73.7982C352.037 73.6906 352.183 73.6301 352.336 73.6301C352.488 73.6301 352.634 73.6906 352.742 73.7982C352.849 73.9058 352.91 74.0518 352.91 74.2041V77.2699C352.91 77.3455 352.895 77.4205 352.867 77.4904C352.838 77.5604 352.796 77.6241 352.743 77.6777C352.689 77.7313 352.626 77.7739 352.556 77.8029C352.486 77.832 352.411 77.8469 352.336 77.8469V77.8438ZM352.336 71.7122C352.183 71.7122 352.037 71.6518 351.93 71.5441C351.822 71.4365 351.762 71.2905 351.762 71.1383V68.0709C351.762 67.9187 351.822 67.7727 351.93 67.6651C352.037 67.5574 352.183 67.497 352.336 67.497C352.488 67.497 352.634 67.5574 352.742 67.6651C352.849 67.7727 352.91 67.9187 352.91 68.0709V71.1383C352.91 71.2141 352.896 71.2892 352.867 71.3594C352.839 71.4295 352.797 71.4933 352.743 71.5471C352.69 71.6009 352.626 71.6437 352.556 71.6728C352.486 71.7019 352.411 71.7169 352.336 71.7169V71.7122ZM352.336 65.5791C352.183 65.5787 352.037 65.5179 351.93 65.41C351.822 65.3021 351.762 65.156 351.762 65.0036V61.9378C351.762 61.7856 351.822 61.6396 351.93 61.5319C352.037 61.4243 352.183 61.3638 352.336 61.3638C352.488 61.3638 352.634 61.4243 352.742 61.5319C352.849 61.6396 352.91 61.7856 352.91 61.9378V65.0145C352.908 65.1657 352.847 65.3103 352.739 65.4169C352.632 65.5234 352.487 65.5833 352.336 65.5837V65.5791ZM352.336 59.446C352.183 59.4455 352.037 59.3847 351.93 59.2768C351.822 59.1689 351.762 59.0228 351.762 58.8704V55.8046C351.762 55.6524 351.822 55.5064 351.93 55.3988C352.037 55.2911 352.183 55.2307 352.336 55.2307C352.488 55.2307 352.634 55.2911 352.742 55.3988C352.849 55.5064 352.91 55.6524 352.91 55.8046V58.8704C352.91 58.9462 352.896 59.0215 352.867 59.0918C352.839 59.162 352.797 59.2259 352.743 59.2798C352.69 59.3337 352.626 59.3766 352.557 59.4059C352.487 59.4352 352.412 59.4504 352.336 59.4506V59.446ZM352.336 53.3128C352.183 53.3124 352.037 53.2516 351.93 53.1437C351.822 53.0358 351.762 52.8896 351.762 52.7373V49.6715C351.762 49.5192 351.822 49.3733 351.93 49.2657C352.037 49.158 352.183 49.0975 352.336 49.0975C352.488 49.0975 352.634 49.158 352.742 49.2657C352.849 49.3733 352.91 49.5192 352.91 49.6715V52.7373C352.91 52.8131 352.896 52.8884 352.867 52.9586C352.839 53.0289 352.797 53.0928 352.743 53.1467C352.69 53.2006 352.626 53.2435 352.557 53.2728C352.487 53.3021 352.412 53.3173 352.336 53.3175V53.3128ZM352.336 47.1796C352.183 47.1796 352.037 47.1192 351.93 47.0116C351.822 46.9039 351.762 46.7579 351.762 46.6057V43.5492C351.762 43.397 351.822 43.251 351.93 43.1434C352.037 43.0357 352.183 42.9753 352.336 42.9753C352.488 42.9753 352.634 43.0357 352.742 43.1434C352.849 43.251 352.91 43.397 352.91 43.5492V46.615C352.909 46.7667 352.848 46.9119 352.74 47.0189C352.633 47.1258 352.487 47.1859 352.336 47.1859V47.1796ZM352.336 41.0465C352.183 41.0465 352.037 40.986 351.93 40.8784C351.822 40.7707 351.762 40.6247 351.762 40.4725V37.4068C351.762 37.2545 351.822 37.1085 351.93 37.0009C352.037 36.8933 352.183 36.8328 352.336 36.8328C352.488 36.8328 352.634 36.8933 352.742 37.0009C352.849 37.1085 352.91 37.2545 352.91 37.4068V40.4725C352.91 40.5484 352.896 40.6237 352.868 40.6941C352.839 40.7645 352.797 40.8284 352.744 40.8824C352.69 40.9364 352.627 40.9792 352.557 41.0084C352.487 41.0377 352.412 41.0527 352.336 41.0527V41.0465Z" fill="#4DB4E8"/>
<path d="M352.336 143.772C352.26 143.772 352.186 143.757 352.116 143.728C352.046 143.699 351.983 143.657 351.93 143.604C351.877 143.55 351.834 143.487 351.805 143.417C351.777 143.348 351.762 143.273 351.762 143.198V141.667C351.762 141.515 351.822 141.369 351.93 141.261C352.037 141.154 352.183 141.093 352.336 141.093C352.488 141.093 352.634 141.154 352.742 141.261C352.849 141.369 352.91 141.515 352.91 141.667V143.198C352.91 143.273 352.895 143.348 352.866 143.417C352.837 143.487 352.795 143.55 352.742 143.604C352.688 143.657 352.625 143.699 352.555 143.728C352.486 143.757 352.411 143.772 352.336 143.772Z" fill="#4DB4E8"/>
<path d="M109.393 410.685C109.79 410.685 110.173 410.542 110.474 410.282C110.774 410.023 110.972 409.664 111.03 409.271L127.192 301.113C127.257 300.678 127.146 300.234 126.884 299.88C126.622 299.526 126.23 299.291 125.795 299.226C125.359 299.161 124.916 299.272 124.562 299.534C124.208 299.796 123.973 300.188 123.908 300.623L107.748 408.777C107.716 408.992 107.727 409.213 107.78 409.424C107.833 409.636 107.928 409.835 108.058 410.01C108.188 410.185 108.351 410.333 108.538 410.445C108.725 410.557 108.933 410.631 109.148 410.663C109.229 410.677 109.311 410.684 109.393 410.685V410.685Z" fill="#6D72A0"/>
<path d="M232.537 410.685C232.62 410.686 232.703 410.679 232.786 410.667C233.001 410.635 233.209 410.56 233.396 410.448C233.583 410.336 233.746 410.188 233.876 410.013C234.006 409.838 234.101 409.639 234.154 409.427C234.207 409.216 234.218 408.996 234.186 408.78L218.024 300.622C217.959 300.186 217.724 299.794 217.37 299.532C217.016 299.27 216.573 299.16 216.138 299.225C215.702 299.29 215.31 299.525 215.048 299.879C214.787 300.233 214.676 300.676 214.741 301.111L230.902 409.27C230.96 409.662 231.157 410.021 231.457 410.281C231.757 410.54 232.14 410.684 232.537 410.685V410.685Z" fill="#6D72A0"/>
<path d="M178.577 410.685C178.66 410.685 178.743 410.679 178.825 410.667C179.041 410.635 179.248 410.561 179.435 410.449C179.623 410.337 179.786 410.189 179.916 410.014C180.046 409.838 180.14 409.639 180.193 409.427C180.246 409.216 180.257 408.996 180.225 408.78L164.063 300.622C163.998 300.186 163.763 299.794 163.409 299.532C163.056 299.27 162.612 299.16 162.177 299.225C161.741 299.29 161.349 299.525 161.088 299.879C160.826 300.233 160.715 300.676 160.78 301.111L176.941 409.27C176.999 409.662 177.197 410.021 177.497 410.281C177.797 410.541 178.18 410.684 178.577 410.685Z" fill="#6D72A0"/>
<path d="M109.534 117.382H179.724C186.84 117.382 193.401 123.736 194.303 131.502L212.458 287.783H117.036L98.2369 131.507C97.3331 123.736 102.418 117.382 109.534 117.382Z" fill="#F9CDAF"/>
<path d="M126.178 287.783L109.424 131.507C108.592 123.74 113.283 117.386 119.845 117.386H184.608C191.174 117.386 197.227 123.74 198.06 131.507L214.817 287.783H126.178Z" fill="#FBE9DC"/>
<path d="M231.662 285.609C225.05 243.72 210.614 179.01 208.122 163.685L212.643 139.031C204.079 120.084 175.855 118.317 175.855 118.317L217.33 285.609H231.662Z" fill="#399CFF"/>
<path d="M222.334 236.35H218.336C218.133 236.35 217.938 236.27 217.795 236.126C217.651 235.982 217.57 235.788 217.57 235.584C217.57 235.381 217.651 235.186 217.795 235.043C217.938 234.899 218.133 234.818 218.336 234.818H222.334C222.537 234.818 222.732 234.899 222.876 235.043C223.019 235.186 223.1 235.381 223.1 235.584C223.1 235.788 223.019 235.982 222.876 236.126C222.732 236.27 222.537 236.35 222.334 236.35V236.35Z" fill="#4DB4E8"/>
<path d="M117.121 287.699V293.84C117.121 296.026 117.99 298.123 119.536 299.669C121.082 301.215 123.179 302.084 125.365 302.084H249.7C250.898 302.084 252.084 301.847 253.189 301.387C254.295 300.927 255.299 300.253 256.143 299.404C256.987 298.554 257.655 297.546 258.108 296.438C258.561 295.329 258.79 294.142 258.782 292.944L258.748 287.694L117.121 287.699Z" fill="#F9CDAF"/>
<path d="M254.459 159.852C253.435 163.153 252.031 166.33 251.071 169.651C249.371 175.529 249.086 181.771 247.072 187.548C246.047 190.485 244.583 193.266 243.754 196.259C242.737 199.926 242.681 203.856 241.23 207.372C239.778 210.889 236.19 214.033 232.49 213.156C231.634 212.915 230.81 212.573 230.035 212.138C228.35 211.275 225.806 208.836 224.124 207.974C221.026 206.388 215.806 199.942 213.591 197.256C211.972 195.296 208.854 193.624 208.942 191.375C209.136 186.296 206.871 174.459 207.717 169.443C207.836 168.741 217.968 179.645 218.523 179.202C219.575 178.366 221.101 179.231 222.09 180.135C224.738 182.572 226.94 185.452 228.598 188.646C229.953 191.264 231.688 194.57 234.63 194.36C237.383 194.162 238.736 190.978 239.424 188.306C243.586 172.096 245.563 154.919 254.045 140.496C254.27 139.99 254.673 139.585 255.177 139.357C259.407 138.071 255.104 157.768 254.459 159.852Z" fill="#399CFF"/>
<path d="M239.385 210.537L257.762 144.173C258.013 142.773 257.131 140.799 255.715 140.897L241.764 140.782L228.039 189.577L239.385 210.537Z" fill="#399CFF"/>
<path d="M260.995 138.427C260.995 138.427 259.208 143.927 256.41 146.322L255.514 144.767C255.514 144.767 254.84 137.996 260.995 138.427Z" fill="#FF9985"/>
<path d="M238.482 152.449H253.765L256.313 123.314H236.148L238.482 152.449Z" fill="#374151"/>
<path d="M240.144 137.881H247.445C248.487 137.881 249.332 137.036 249.332 135.994V132.51C249.332 131.468 248.487 130.623 247.445 130.623H240.144C239.102 130.623 238.257 131.468 238.257 132.51V135.994C238.257 137.036 239.102 137.881 240.144 137.881Z" fill="#FBE9DC"/>
<path d="M235.878 123.314H256.368C256.677 123.314 256.974 123.191 257.192 122.973C257.411 122.754 257.534 122.457 257.534 122.148C257.534 121.838 257.411 121.542 257.192 121.323C256.974 121.104 256.677 120.981 256.368 120.981H235.878C235.568 120.981 235.271 121.104 235.053 121.323C234.834 121.542 234.711 121.838 234.711 122.148C234.711 122.457 234.834 122.754 235.053 122.973C235.271 123.191 235.568 123.314 235.878 123.314Z" fill="#FBE9DC"/>
<path d="M238.654 122.882H244.57C245.429 122.882 246.125 122.185 246.125 121.326V118.457C246.125 117.598 245.429 116.901 244.57 116.901H238.654C237.795 116.901 237.099 117.598 237.099 118.457V121.326C237.099 122.185 237.795 122.882 238.654 122.882Z" fill="#FBE9DC"/>
<path d="M260.579 378.259L259.711 404.666L270.636 405.599L274.73 399.987L273.99 398.863L275.152 379.5L260.579 378.259Z" fill="#FF9985"/>
<path d="M241.191 377.743L244.064 404.15L255.122 405.083L258.421 399.469L257.522 398.345L255.94 378.982L241.191 377.743Z" fill="#FF9985"/>
<path d="M159.194 248.158C186.415 247.482 210.549 247.264 242.839 247.001C246.429 246.972 250.014 247.264 253.552 247.87C261.77 249.114 269.491 252.579 275.881 257.892C281.772 263.026 285.725 270.025 287.08 277.721C290.717 296.74 289.249 318.614 288.972 337.388C288.768 351.115 285.977 365.738 282.86 380.079C282.522 381.657 281.64 383.066 280.37 384.061C279.099 385.055 277.52 385.573 275.907 385.523H262.647C261.743 385.503 260.852 385.301 260.028 384.93C259.203 384.559 258.461 384.026 257.846 383.363C257.231 382.7 256.756 381.92 256.447 381.07C256.139 380.22 256.005 379.316 256.052 378.413C259.048 349.941 258.591 321.21 254.69 292.848C254.301 290.119 252.934 287.624 250.843 285.827C248.751 284.031 246.079 283.056 243.322 283.083C223.994 283.213 181.765 283.35 167.545 282.185C145.711 280.401 137.508 248.696 159.194 248.158Z" fill="#374151"/>
<path d="M260.817 339.961C256.85 321.389 253.372 299.752 245.439 280.939C242.136 273.071 236.705 266.279 229.756 261.327C222.429 256.175 214.012 252.782 205.161 251.412C201.05 250.561 196.883 250.006 192.693 249.752C178.62 249.868 166.642 250.412 159.672 250.359L165.058 286.267C179.392 286.388 194.536 286.318 203.812 286.247C206.44 286.22 209.012 287 211.182 288.482C213.351 289.963 215.014 292.075 215.945 294.532C226.343 322.28 233.464 351.148 237.163 380.549C237.573 382.457 238.597 384.178 240.079 385.449C241.561 386.72 243.418 387.47 245.366 387.584H258.627C259.367 387.655 260.115 387.567 260.819 387.325C261.523 387.084 262.167 386.695 262.708 386.185C263.25 385.674 263.676 385.054 263.959 384.366C264.242 383.677 264.374 382.937 264.348 382.193C264.231 368.003 263.716 353.54 260.817 339.961Z" fill="#374151"/>
<path d="M263.839 383.383C263.534 383.383 263.241 383.263 263.023 383.049C262.806 382.834 262.681 382.543 262.677 382.238C262.556 368.251 262.055 353.428 259.163 339.774C258.455 336.422 257.763 332.974 257.059 329.459L257.026 329.303C253.875 313.593 250.305 295.784 243.851 280.314C240.644 272.573 235.348 265.877 228.553 260.974C221.386 255.877 213.133 252.516 204.444 251.157C200.905 250.561 197.321 250.275 193.733 250.302C187.637 250.354 182.095 250.37 176.824 250.365C176.517 250.365 176.223 250.244 176.006 250.027C175.79 249.81 175.668 249.516 175.668 249.21C175.668 248.903 175.79 248.609 176.006 248.392C176.223 248.176 176.517 248.054 176.824 248.054C182.112 248.063 187.625 248.041 193.711 247.99C197.432 247.966 201.149 248.263 204.819 248.877C213.861 250.295 222.45 253.797 229.907 259.105C237.045 264.257 242.609 271.292 245.979 279.424C252.524 295.113 256.116 313.036 259.288 328.85C260.012 332.461 260.706 335.928 261.418 339.298C264.346 353.142 264.861 368.11 264.982 382.218C264.984 382.524 264.864 382.819 264.649 383.037C264.434 383.256 264.141 383.38 263.834 383.383H263.839Z" fill="#286FB5"/>
<path d="M185.084 288.323C188.24 288.323 200.483 287.558 203.635 287.629C208.911 287.752 213.087 292.181 215.391 296.761C217.541 301.044 218.689 305.759 218.751 310.55C218.965 315.637 220.98 320.782 222.608 325.624C224.971 332.653 228.519 338.465 230.608 345.575C232.04 350.454 232.275 356.152 232.785 361.19C233.653 369.679 234.109 377.586 239.242 384.531C237.001 362.304 235.221 340.071 229.486 318.437C227.109 308.461 223.619 298.785 219.08 289.589C216.809 284.948 213.713 280.759 209.945 277.223C207.414 274.982 203.7 273.115 200.668 274.672C199.539 275.254 198.674 276.25 197.522 276.789C196.621 277.189 195.617 277.295 194.653 277.092C193.689 276.889 192.813 276.387 192.149 275.659C193.75 277.536 155.153 282.814 154.552 284.159C152.873 287.961 175.798 288.304 185.084 288.323Z" fill="#374151"/>
<path d="M290.971 290.488C290.963 294.036 290.215 297.553 290.243 301.099C290.278 305.634 291.577 310.06 291.93 314.581C292.114 318.39 291.962 322.207 291.476 325.99C291.061 330.182 290.647 334.375 290.232 338.567C288.782 353.23 287.588 368.398 281.311 381.669V273.666C279.731 272.142 278.717 270.125 278.435 267.948C278.384 267.72 278.381 267.483 278.427 267.253C278.473 267.023 278.567 266.806 278.703 266.615C284.446 260.468 290.977 287.433 290.971 290.488Z" fill="#374151"/>
<path d="M287.012 403.181L273.908 397.969H262.109C261.372 398.029 260.686 398.372 260.193 398.924C259.701 399.477 259.44 400.198 259.465 400.938L259.191 408.205L289.557 409.033C290.825 407.082 290.221 404.457 287.012 403.181Z" fill="#4DB4E8"/>
<path d="M259.182 408.205L258.848 409.53C258.641 410.355 259.488 411.125 260.619 411.139L284.215 411.434C285.235 411.516 286.259 411.338 287.191 410.918C288.124 410.498 288.935 409.849 289.549 409.031L259.182 408.205Z" fill="#374151"/>
<path d="M274.737 402.108L273.86 401.797C273.769 401.756 273.696 401.683 273.655 401.592C273.613 401.502 273.606 401.399 273.634 401.304L274.819 396.777C274.828 396.731 274.845 396.687 274.872 396.648C274.898 396.609 274.932 396.576 274.972 396.552C275.012 396.527 275.057 396.511 275.104 396.505C275.15 396.499 275.198 396.502 275.243 396.516L276.123 396.827C276.214 396.869 276.286 396.942 276.327 397.032C276.369 397.123 276.376 397.226 276.347 397.322L275.162 401.846C275.153 401.893 275.135 401.937 275.109 401.976C275.082 402.014 275.048 402.047 275.008 402.072C274.968 402.097 274.923 402.113 274.876 402.119C274.83 402.125 274.782 402.121 274.737 402.108V402.108Z" fill="#374151"/>
<path d="M278.196 403.251L277.316 402.94C277.225 402.899 277.152 402.826 277.111 402.735C277.07 402.645 277.063 402.542 277.092 402.447L278.277 397.92C278.285 397.874 278.303 397.83 278.329 397.791C278.356 397.752 278.39 397.719 278.43 397.694C278.47 397.67 278.515 397.653 278.561 397.647C278.608 397.641 278.655 397.644 278.7 397.657L279.577 397.969C279.668 398.01 279.741 398.083 279.783 398.174C279.824 398.265 279.831 398.367 279.803 398.463L278.616 402.986C278.608 403.033 278.591 403.077 278.565 403.116C278.539 403.155 278.505 403.188 278.465 403.213C278.426 403.238 278.381 403.254 278.335 403.26C278.288 403.267 278.241 403.264 278.196 403.251V403.251Z" fill="#374151"/>
<path d="M281.473 404.539L280.593 404.228C280.502 404.187 280.43 404.114 280.388 404.023C280.347 403.933 280.34 403.83 280.369 403.735L281.554 399.208C281.562 399.162 281.58 399.118 281.607 399.08C281.633 399.041 281.667 399.008 281.707 398.984C281.747 398.959 281.792 398.943 281.838 398.937C281.885 398.93 281.932 398.934 281.977 398.947L282.858 399.258C282.948 399.3 283.02 399.372 283.061 399.463C283.103 399.553 283.11 399.656 283.082 399.751L281.896 404.276C281.888 404.322 281.87 404.366 281.844 404.405C281.818 404.444 281.783 404.477 281.743 404.502C281.704 404.527 281.659 404.543 281.612 404.549C281.566 404.556 281.518 404.552 281.473 404.539V404.539Z" fill="#374151"/>
<path d="M265.933 406.054H261.899C261.631 406.054 261.414 406.271 261.414 406.539V407.264C261.414 407.532 261.631 407.749 261.899 407.749H265.933C266.201 407.749 266.418 407.532 266.418 407.264V406.539C266.418 406.271 266.201 406.054 265.933 406.054Z" fill="#374151"/>
<path d="M269.438 402.891L256.333 397.679H244.535C243.797 397.74 243.111 398.082 242.619 398.635C242.127 399.188 241.866 399.909 241.891 400.649L241.617 407.916L271.983 408.745C273.25 406.793 272.647 404.167 269.438 402.891Z" fill="#4DB4E8"/>
<path d="M241.608 407.916L241.273 409.241C241.067 410.065 241.914 410.837 243.045 410.851L266.641 411.145C267.661 411.227 268.684 411.05 269.617 410.63C270.549 410.21 271.36 409.56 271.973 408.741L241.608 407.916Z" fill="#374151"/>
<path d="M257.161 401.82L256.28 401.509C256.19 401.467 256.117 401.394 256.076 401.302C256.035 401.211 256.028 401.108 256.056 401.012L257.242 396.488C257.25 396.442 257.268 396.398 257.294 396.359C257.321 396.32 257.355 396.287 257.395 396.263C257.435 396.238 257.48 396.222 257.526 396.216C257.573 396.21 257.62 396.213 257.665 396.226L258.545 396.537C258.636 396.579 258.708 396.651 258.75 396.742C258.791 396.833 258.798 396.935 258.769 397.031L257.584 401.557C257.576 401.603 257.558 401.647 257.531 401.686C257.505 401.725 257.471 401.757 257.431 401.782C257.391 401.807 257.346 401.823 257.3 401.83C257.253 401.836 257.206 401.833 257.161 401.82V401.82Z" fill="#374151"/>
<path d="M260.614 402.96L259.734 402.649C259.643 402.608 259.57 402.535 259.529 402.444C259.488 402.354 259.481 402.251 259.51 402.156L260.695 397.629C260.703 397.583 260.721 397.539 260.748 397.5C260.774 397.462 260.808 397.429 260.848 397.404C260.888 397.38 260.933 397.364 260.979 397.358C261.026 397.351 261.073 397.355 261.118 397.368L261.995 397.679C262.086 397.721 262.159 397.794 262.2 397.885C262.242 397.976 262.248 398.079 262.219 398.175L261.034 402.702C261.026 402.747 261.008 402.791 260.981 402.829C260.955 402.867 260.921 402.899 260.881 402.924C260.842 402.948 260.798 402.964 260.752 402.97C260.706 402.976 260.659 402.973 260.614 402.96Z" fill="#374151"/>
<path d="M263.899 404.251L263.019 403.94C262.928 403.898 262.855 403.825 262.814 403.733C262.773 403.642 262.766 403.539 262.795 403.444L263.98 398.92C263.988 398.874 264.006 398.83 264.032 398.791C264.059 398.752 264.093 398.719 264.133 398.694C264.173 398.67 264.217 398.653 264.264 398.647C264.311 398.641 264.358 398.644 264.403 398.657L265.283 398.968C265.374 399.01 265.446 399.083 265.487 399.173C265.528 399.264 265.536 399.366 265.507 399.462L264.322 403.988C264.314 404.034 264.296 404.078 264.27 404.117C264.244 404.156 264.209 404.189 264.169 404.214C264.129 404.239 264.085 404.255 264.038 404.261C263.992 404.268 263.944 404.264 263.899 404.251V404.251Z" fill="#374151"/>
<path d="M248.355 405.765H244.321C244.053 405.765 243.836 405.982 243.836 406.25V406.975C243.836 407.243 244.053 407.46 244.321 407.46H248.355C248.623 407.46 248.84 407.243 248.84 406.975V406.25C248.84 405.982 248.623 405.765 248.355 405.765Z" fill="#374151"/>
<path d="M138.66 286.993C138.66 287.295 138.668 287.615 138.699 287.926H141.95C142.041 287.345 142.064 286.755 142.017 286.168C140.905 264.531 139.053 242.861 136.46 221.158C135.527 213.313 134.484 205.448 132.759 197.648C132.142 194.504 131.191 191.436 129.921 188.495C129.671 187.751 129.263 187.07 128.727 186.496C128.19 185.923 127.537 185.472 126.81 185.173C123.275 184.257 124.944 189.426 125.19 190.959C125.751 194.781 126.095 198.631 126.218 202.491C126.562 210.09 126.471 217.67 127.487 225.301C128.576 233.468 130.918 241.602 131.621 249.768C132.325 257.934 131.419 266.206 134.339 274.114C135.927 278.405 138.638 282.594 138.66 286.993Z" fill="#FBE9DC"/>
<path d="M239.383 210.538C238.694 211.475 237.76 212.204 236.683 212.643C235.606 213.082 234.428 213.215 233.281 213.027C230.414 212.857 227.885 211.731 226.822 209.065L197.809 148.184L210.688 136.898C211.996 136.094 214.817 144.016 215.41 145.431L235.591 182.079L239.383 210.538Z" fill="#399CFF"/>
<path d="M194.58 149.147C194.602 149.214 194.58 149.175 194.566 149.136L194.58 149.147Z" fill="white"/>
<path d="M174.684 118.121L173.33 117.87C172.264 117.674 171.188 117.494 170.104 117.329C160.489 115.988 150.772 115.529 141.074 115.957L159.833 248.349C159.833 248.349 192.245 247.387 204.926 247.105C207.753 247.041 209.604 247.085 208.889 244.419L175.879 118.32C175.764 118.292 174.801 118.143 174.684 118.121Z" fill="#C2E0FF"/>
<path d="M141.888 115.963C140.928 115.999 139.965 116.035 139.021 116.083C136.816 116.193 134.643 116.327 132.558 116.497C118.27 117.041 107.204 137.254 117.203 159.427L134.613 255.531L139.863 287.914L165.422 288.545L141.888 115.963Z" fill="#399CFF"/>
<path d="M193.368 184.557C193.174 184.557 192.987 184.484 192.845 184.352C192.704 184.219 192.617 184.038 192.604 183.845L189.695 141.557C189.66 141.142 189.519 140.743 189.285 140.399C189.052 140.054 188.734 139.775 188.362 139.589L185.838 138.334C185.565 138.197 185.326 138.001 185.137 137.761C184.949 137.52 184.816 137.241 184.749 136.943C184.689 136.695 184.686 136.437 184.74 136.188C184.794 135.939 184.903 135.705 185.06 135.504L188.221 131.532C188.306 131.361 188.331 131.167 188.29 130.981C188.25 130.795 188.147 130.628 187.998 130.508L176.149 118.765C176.077 118.694 176.02 118.61 175.982 118.517C175.943 118.424 175.922 118.324 175.922 118.224C175.921 118.123 175.941 118.023 175.979 117.93C176.017 117.837 176.073 117.752 176.144 117.681C176.215 117.609 176.299 117.552 176.392 117.513C176.485 117.474 176.585 117.454 176.685 117.454C176.786 117.453 176.886 117.473 176.979 117.511C177.072 117.549 177.157 117.605 177.228 117.676L189.076 129.42C189.496 129.801 189.763 130.323 189.826 130.887C189.89 131.451 189.745 132.019 189.42 132.484L186.258 136.458C186.246 136.482 186.239 136.508 186.238 136.535C186.237 136.562 186.241 136.588 186.25 136.613C186.268 136.689 186.303 136.759 186.351 136.82C186.399 136.881 186.459 136.931 186.528 136.967L189.053 138.22C189.665 138.526 190.188 138.985 190.57 139.553C190.951 140.122 191.179 140.779 191.23 141.462L194.139 183.742C194.153 183.944 194.086 184.144 193.952 184.297C193.819 184.449 193.631 184.543 193.428 184.557H193.368Z" fill="#4DB4E8"/>
<path d="M150.718 185.82C150.554 185.82 150.393 185.767 150.261 185.669C150.129 185.571 150.032 185.433 149.984 185.276L136.826 141.625C136.601 141.032 136.552 140.387 136.683 139.767C136.815 139.147 137.122 138.578 137.568 138.127L139.208 136.679C139.228 136.582 139.224 136.481 139.194 136.387C139.164 136.292 139.111 136.207 139.038 136.139L134.985 132.512C134.588 132.153 134.309 131.683 134.185 131.162C134.061 130.642 134.098 130.096 134.291 129.597L139.601 116.198C139.636 116.102 139.69 116.013 139.759 115.937C139.829 115.862 139.913 115.801 140.007 115.759C140.1 115.717 140.201 115.694 140.304 115.692C140.407 115.689 140.509 115.708 140.604 115.745C140.7 115.783 140.786 115.84 140.859 115.912C140.932 115.984 140.99 116.07 141.029 116.165C141.068 116.26 141.088 116.362 141.087 116.465C141.086 116.567 141.064 116.669 141.023 116.763L135.702 130.193C135.633 130.397 135.624 130.618 135.678 130.827C135.732 131.036 135.845 131.225 136.004 131.372L140.059 134.999C140.277 135.199 140.452 135.441 140.571 135.712C140.69 135.983 140.752 136.276 140.752 136.572C140.758 136.806 140.714 137.04 140.622 137.256C140.53 137.472 140.393 137.666 140.22 137.825L138.581 139.275C138.365 139.535 138.223 139.849 138.171 140.183C138.119 140.517 138.159 140.859 138.287 141.173L151.451 184.833C151.509 185.027 151.488 185.237 151.392 185.416C151.296 185.595 151.133 185.729 150.939 185.788C150.867 185.809 150.793 185.82 150.718 185.82V185.82Z" fill="#4DB4E8"/>
<path d="M142.461 167.573H133.617C133.414 167.573 133.219 167.492 133.076 167.349C132.932 167.205 132.852 167.011 132.852 166.808C132.852 166.605 132.932 166.41 133.076 166.267C133.219 166.123 133.414 166.042 133.617 166.042H142.461C142.664 166.042 142.859 166.123 143.002 166.267C143.146 166.41 143.226 166.605 143.226 166.808C143.226 167.011 143.146 167.205 143.002 167.349C142.859 167.492 142.664 167.573 142.461 167.573V167.573Z" fill="#4DB4E8"/>
<path d="M156.206 252.661H144.403C144.2 252.661 144.005 252.58 143.861 252.437C143.717 252.293 143.637 252.098 143.637 251.895C143.637 251.692 143.717 251.497 143.861 251.353C144.005 251.21 144.2 251.129 144.403 251.129H156.206C156.409 251.129 156.604 251.21 156.747 251.353C156.891 251.497 156.972 251.692 156.972 251.895C156.972 252.098 156.891 252.293 156.747 252.437C156.604 252.58 156.409 252.661 156.206 252.661Z" fill="#4DB4E8"/>
<path d="M142.153 252.661H137.797C137.594 252.661 137.399 252.58 137.256 252.437C137.112 252.293 137.031 252.098 137.031 251.895C137.031 251.692 137.112 251.497 137.256 251.353C137.399 251.21 137.594 251.129 137.797 251.129H142.153C142.356 251.129 142.551 251.21 142.694 251.353C142.838 251.497 142.919 251.692 142.919 251.895C142.919 252.098 142.838 252.293 142.694 252.437C142.551 252.58 142.356 252.661 142.153 252.661V252.661Z" fill="#4DB4E8"/>
<path d="M316.197 212.837H312.512V407.314H316.197V212.837Z" fill="#452A51"/>
<path d="M97.5989 215.517H93.9141V409.994H97.5989V215.517Z" fill="#452A51"/>
<path d="M395.216 215.899H391.227V410.376H395.216V215.899Z" fill="#374151"/>
<path d="M399.997 213.089H91.3047V223.465H399.997V213.089Z" fill="#374151"/>
<path d="M195.836 213.266H191.336V410.376H195.836V213.266Z" fill="#374151"/>
<path d="M187.515 213.07H88.332V223.464H187.515V213.07Z" fill="#452A51"/>
<path d="M188.199 64.0734C187.732 63.5352 187.11 63.1651 186.696 62.588C185.771 61.3001 186.215 59.5782 186.097 58.0212C185.979 56.4642 184.281 54.6271 183.231 55.6242C183.789 53.3595 184.246 50.6297 182.689 48.7569C179.759 45.2354 173.745 48.9995 170.491 45.8015C169.519 44.8496 169.008 43.4201 167.919 42.6284C167.166 42.1706 166.276 41.9917 165.405 42.1231C164.534 42.2544 163.737 42.6876 163.153 43.347C162.357 44.2257 161.697 45.2187 161.196 46.293C161.071 46.3699 160.941 46.437 160.806 46.4937C159.782 46.8223 158.675 46.7788 157.681 46.3708C155.15 45.772 152.8 47.7707 151.387 50.4352C150.792 51.5551 148.891 49.9515 148.205 51.0092C146.649 53.4139 143.417 54.5323 142.773 57.4239C142.423 58.9918 142.947 60.7805 142.405 62.2738C141.831 63.8557 140.146 64.8154 139.925 66.5233C139.575 69.2344 141.992 71.7449 142.103 74.4063C142.156 75.6584 143.283 76.839 143.315 77.3072C143.402 78.3377 143.748 79.3293 144.323 80.1894C144.782 83.5641 145.5 86.8985 146.471 90.163C147.093 92.4924 148.171 94.6753 149.642 96.5855C149.655 96.601 151.664 98.8191 151.664 98.7989C151.526 97.18 151.547 95.5513 151.728 93.9365C151.003 92.2524 150.591 90.4503 150.512 88.6184C150.484 88.6184 150.456 88.6262 150.426 88.6184C149.199 88.3121 148.113 87.594 147.352 86.5839C146.59 85.5739 146.198 84.333 146.241 83.0687C146.284 81.8043 146.759 80.593 147.588 79.637C148.416 78.681 149.548 78.0381 150.793 77.8158L154.086 78.7102C164.707 77.4659 162.104 66.2137 171.756 64.9165C178.029 64.0734 181.772 65.3536 183.633 66.3537C184.865 68.8938 185.463 71.6938 185.379 74.5152L185.477 74.5494C185.477 74.411 186.738 73.3673 186.66 72.3111L186.779 72.4184C188.6 71.0356 190.092 66.2868 188.199 64.0734Z" fill="#374151"/>
<path d="M171.76 64.9288C162.117 66.2276 164.713 77.4751 154.091 78.7226L150.798 77.8282C149.552 78.0505 148.421 78.6933 147.592 79.6494C146.764 80.6054 146.288 81.8167 146.245 83.0811C146.202 84.3454 146.595 85.5862 147.356 86.5963C148.118 87.6064 149.203 88.3245 150.431 88.6308C150.46 88.6308 150.488 88.6308 150.516 88.6308C150.595 90.4627 151.007 92.2648 151.732 93.9489C153.195 97.1232 155.492 99.8402 158.379 101.809C161.267 103.778 164.635 104.926 168.124 105.128C177.489 105.666 184.019 98.8019 184.573 89.1488L185.383 75.0237C185.392 74.8573 185.383 74.6971 185.383 74.5338C185.468 71.7124 184.869 68.9123 183.638 66.3723C181.776 65.3644 178.034 64.0842 171.76 64.9288Z" fill="#FF9985"/>
<path d="M167.543 122.717L168.892 84.5075C168.93 83.6923 168.645 82.895 168.097 82.2897C167.55 81.6844 166.786 81.3202 165.971 81.2768L153.838 80.8381C153.022 80.8235 152.234 81.132 151.644 81.6964C151.055 82.2608 150.712 83.0352 150.691 83.851L149.593 114.969C149.48 117.557 150.225 120.11 151.711 122.231C153.197 124.353 155.342 125.924 157.812 126.702C164.916 128.839 167.49 124.011 167.543 122.717Z" fill="#FF9985"/>
<path d="M170.386 72.8089L166.524 72.6067C166.388 72.5973 166.251 72.615 166.122 72.6588C165.993 72.7026 165.874 72.7718 165.772 72.8621C165.67 72.9524 165.587 73.0622 165.528 73.1849C165.468 73.3077 165.434 73.4411 165.427 73.5772C165.42 73.7133 165.44 73.8495 165.486 73.9778C165.532 74.106 165.603 74.2238 165.695 74.3243C165.788 74.4248 165.899 74.506 166.022 74.5631C166.146 74.6202 166.28 74.652 166.416 74.6568L170.279 74.859C170.548 74.8685 170.81 74.7719 171.008 74.59C171.207 74.4082 171.326 74.1556 171.34 73.8867C171.354 73.6179 171.262 73.3543 171.083 73.1527C170.905 72.9511 170.654 72.8276 170.386 72.8089V72.8089Z" fill="#374151"/>
<path d="M185.615 73.3857L181.753 73.1835C181.481 73.1693 181.214 73.2637 181.012 73.446C180.809 73.6283 180.688 73.8836 180.673 74.1557C180.659 74.4278 180.753 74.6943 180.936 74.8968C181.118 75.0992 181.373 75.2209 181.645 75.2352L185.508 75.4374C185.646 75.4505 185.785 75.4356 185.917 75.3934C186.049 75.3513 186.172 75.2829 186.277 75.1923C186.382 75.1017 186.467 74.9908 186.528 74.8662C186.589 74.7417 186.624 74.6061 186.632 74.4676C186.639 74.329 186.618 74.1905 186.57 74.0603C186.523 73.93 186.449 73.8108 186.354 73.7097C186.259 73.6087 186.145 73.5278 186.018 73.4721C185.891 73.4165 185.754 73.3871 185.615 73.3857V73.3857Z" fill="#374151"/>
<path d="M182.795 78.7195C182.742 79.7244 182.173 80.5129 181.515 80.4787C180.857 80.4445 180.373 79.6015 180.426 78.5951C180.479 77.5887 181.048 76.8001 181.706 76.8343C182.364 76.8685 182.848 77.7116 182.795 78.7195Z" fill="#374151"/>
<path d="M168.299 78.2358C168.244 79.2422 167.677 80.0293 167.019 79.995C166.361 79.9608 165.877 79.1178 165.93 78.1114C165.983 77.105 166.552 76.3179 167.21 76.3521C167.868 76.3864 168.352 77.2295 168.299 78.2358Z" fill="#374151"/>
<path d="M177.695 84.2897L177.567 83.9397C177.498 84.3332 177.314 84.6975 177.039 84.9876C176.764 85.2776 176.41 85.4806 176.021 85.5713L173.984 86.0256C173.666 86.0926 173.336 86.0589 173.039 85.9292C172.742 85.7996 172.493 85.5804 172.327 85.3023L172.274 85.4951C172.202 85.7611 172.2 86.041 172.269 86.3079C172.337 86.5748 172.473 86.8195 172.663 87.0184C172.854 87.2173 173.093 87.3636 173.356 87.4431C173.62 87.5226 173.9 87.5326 174.169 87.4721L176.206 87.0179C176.494 86.954 176.764 86.8293 176.999 86.6523C177.234 86.4753 177.429 86.2501 177.57 85.9917C177.711 85.7333 177.795 85.4478 177.817 85.1542C177.838 84.8607 177.797 84.5659 177.695 84.2897V84.2897Z" fill="#C45446"/>
<path d="M168.09 90.8147L173.931 92.6813C173.434 92.9842 172.878 93.1769 172.301 93.2461C171.723 93.3153 171.138 93.2596 170.584 93.0825C170.03 92.9055 169.52 92.6113 169.09 92.22C168.66 91.8287 168.319 91.3494 168.09 90.8147V90.8147Z" fill="white"/>
<path d="M148.99 114.433C148.99 114.433 156.326 122.809 162.094 123.921L161.761 133.565C161.761 133.565 149.077 128.743 147.73 115.773L148.99 114.433Z" fill="#F0F5FF"/>
<path d="M166.468 115.479C166.468 115.479 166.611 121.857 161.957 123.961L167.899 132.605C167.899 132.605 172.943 127.013 170.591 117.696L166.468 115.479Z" fill="#F0F5FF"/>
<path d="M165.017 132.754C165.253 132.577 165.434 132.337 165.538 132.061L166.616 129.402C167.364 127.558 165.789 124.643 164.12 124.784L160.719 125.07C159.05 125.21 158.954 128.265 160.564 129.911L162.888 132.288C163.059 132.463 163.254 132.613 163.468 132.734L171.021 189.844L180.134 198.074L183.973 189.118L165.017 132.754Z" fill="#374151"/>
<path d="M165.602 202.95L186.505 210.034C188.891 211.166 187.375 213.145 186.428 213.145L166.051 213.05L165.602 202.95Z" fill="#FF9985"/>
<path d="M167.363 198.25L119.755 196.754C119.248 196.737 118.751 196.603 118.305 196.36C117.859 196.118 117.476 195.775 117.187 195.358C116.897 194.941 116.709 194.462 116.638 193.959C116.567 193.457 116.614 192.945 116.776 192.464L128.215 158.586L113.387 135.142L91.1191 207.11C90.9538 207.818 90.9499 208.553 91.1078 209.263C91.2657 209.972 91.5813 210.637 92.0311 211.208C92.481 211.779 93.0536 212.241 93.7065 212.561C94.3593 212.88 95.0758 213.048 95.8026 213.053L169.375 213.083L169.041 199.948C169.029 199.505 168.85 199.083 168.538 198.767C168.226 198.452 167.806 198.267 167.363 198.25V198.25Z" fill="#399CFF"/>
<path d="M169.516 204.511C169.317 204.51 169.126 204.432 168.983 204.293C168.84 204.154 168.757 203.965 168.751 203.766L168.687 201.395C168.672 200.859 168.452 200.348 168.073 199.968C167.694 199.587 167.185 199.366 166.648 199.348L120.479 197.899C119.808 197.877 119.152 197.699 118.562 197.379C117.973 197.058 117.466 196.604 117.084 196.053C116.701 195.501 116.453 194.868 116.359 194.203C116.265 193.539 116.328 192.862 116.542 192.226L127.858 158.709C127.889 158.612 127.939 158.522 128.004 158.444C128.07 158.367 128.151 158.303 128.242 158.257C128.333 158.211 128.432 158.183 128.533 158.176C128.635 158.168 128.737 158.181 128.833 158.214C128.93 158.247 129.019 158.298 129.095 158.366C129.171 158.433 129.233 158.515 129.278 158.607C129.322 158.698 129.347 158.798 129.352 158.9C129.358 159.001 129.343 159.103 129.308 159.199L117.994 192.708C117.856 193.117 117.815 193.553 117.876 193.981C117.936 194.409 118.096 194.817 118.343 195.172C118.589 195.527 118.915 195.819 119.295 196.025C119.675 196.232 120.097 196.346 120.529 196.36L166.698 197.81C167.625 197.84 168.505 198.223 169.16 198.88C169.814 199.538 170.192 200.42 170.218 201.347L170.283 203.717C170.288 203.921 170.213 204.117 170.073 204.265C169.934 204.412 169.741 204.498 169.538 204.505L169.516 204.511Z" fill="#4DB4E8"/>
<path d="M105.056 151.04C103.994 154.47 103.364 158.024 102.267 161.445C100.859 165.827 98.7005 169.925 97.0004 174.199C93.2673 183.607 91.7865 193.734 90.3415 203.753C90.0219 205.261 90.0066 206.818 90.2964 208.332C90.6838 209.479 91.3199 210.526 92.1591 211.398C92.9984 212.27 94.02 212.946 95.1509 213.377C102.449 187.234 113.683 162.394 123.41 137.054C124.459 134.325 131.822 121.81 129.313 120.311C121.435 115.602 106.579 146.133 105.056 151.04Z" fill="#399CFF"/>
<path d="M282.59 213.129H215.262C214.626 213.129 214.016 212.876 213.566 212.427C213.116 211.977 212.863 211.367 212.863 210.731C212.863 210.094 213.116 209.484 213.566 209.035C214.016 208.585 214.626 208.332 215.262 208.332H282.596C283.232 208.332 283.842 208.585 284.292 209.035C284.742 209.484 284.994 210.094 284.994 210.731C284.994 211.367 284.742 211.977 284.292 212.427C283.842 212.876 283.232 213.129 282.596 213.129H282.59Z" fill="#91B4DE"/>
<path d="M285.188 143.453H292.511C290.712 143.495 288.97 144.09 287.522 145.159C286.075 146.228 284.992 147.717 284.423 149.424L268.713 207.104C268.478 207.829 268.428 208.602 268.568 209.352C268.707 210.102 269.031 210.805 269.511 211.397C269.991 211.99 270.611 212.454 271.315 212.747C272.019 213.039 272.785 213.152 273.544 213.074H266.222C265.464 213.152 264.698 213.039 263.994 212.746C263.289 212.454 262.669 211.99 262.189 211.397C261.71 210.805 261.385 210.102 261.246 209.352C261.106 208.602 261.155 207.83 261.39 207.104L277.1 149.424C277.669 147.717 278.751 146.228 280.199 145.159C281.647 144.09 283.389 143.494 285.188 143.453V143.453Z" fill="#91B4DE"/>
<path d="M265.121 207.102L280.831 149.423C281.4 147.716 282.482 146.226 283.93 145.157C285.378 144.088 287.12 143.493 288.919 143.451H365.959C366.718 143.373 367.484 143.486 368.189 143.778C368.893 144.071 369.513 144.535 369.993 145.128C370.473 145.721 370.797 146.424 370.937 147.174C371.076 147.924 371.026 148.697 370.792 149.423L355.082 207.102C354.513 208.809 353.43 210.299 351.983 211.367C350.535 212.436 348.792 213.031 346.994 213.072H269.954C269.195 213.15 268.429 213.038 267.724 212.745C267.02 212.453 266.399 211.989 265.92 211.396C265.44 210.804 265.115 210.1 264.976 209.35C264.836 208.601 264.886 207.828 265.121 207.102V207.102Z" fill="#C2E0FF"/>
<path d="M256.367 136.395C256.046 136.367 255.75 136.212 255.543 135.965C255.336 135.719 255.235 135.4 255.262 135.08L255.601 131.213C255.63 130.892 255.784 130.595 256.031 130.388C256.278 130.181 256.597 130.081 256.918 130.109C257.239 130.137 257.535 130.292 257.742 130.539C257.949 130.786 258.05 131.105 258.022 131.426L257.681 135.293C257.651 135.613 257.497 135.908 257.25 136.114C257.004 136.321 256.687 136.422 256.367 136.395V136.395Z" fill="#FF9985"/>
<path d="M256.57 146.074C256.375 146.429 256.046 146.693 255.657 146.806C255.267 146.92 254.848 146.875 254.492 146.681L248.115 143.185C247.939 143.089 247.783 142.958 247.657 142.801C247.531 142.645 247.438 142.465 247.381 142.272C247.325 142.078 247.308 141.876 247.329 141.676C247.351 141.476 247.412 141.283 247.509 141.107C247.606 140.93 247.736 140.775 247.893 140.649C248.05 140.523 248.23 140.429 248.423 140.373C248.616 140.317 248.818 140.299 249.018 140.321C249.218 140.343 249.412 140.404 249.588 140.501L255.965 143.996C256.32 144.192 256.583 144.521 256.696 144.91C256.81 145.299 256.764 145.718 256.57 146.074V146.074Z" fill="#FF9985"/>
<path d="M258.19 144.146C257.993 144.501 257.665 144.764 257.275 144.878C256.886 144.991 256.467 144.947 256.11 144.753L247.412 139.982C247.236 139.886 247.08 139.755 246.955 139.599C246.829 139.442 246.735 139.262 246.679 139.069C246.622 138.876 246.604 138.674 246.626 138.474C246.648 138.274 246.709 138.081 246.806 137.904C246.902 137.728 247.033 137.573 247.189 137.447C247.346 137.321 247.526 137.227 247.719 137.171C247.912 137.114 248.114 137.097 248.314 137.118C248.514 137.14 248.707 137.201 248.884 137.298L257.583 142.067C257.939 142.263 258.202 142.592 258.316 142.981C258.43 143.371 258.384 143.79 258.19 144.146Z" fill="#FF9985"/>
<path d="M260.899 138.81C260.702 139.165 260.373 139.428 259.984 139.541C259.594 139.654 259.176 139.609 258.819 139.415L250.12 134.649C249.776 134.447 249.525 134.12 249.419 133.735C249.313 133.351 249.36 132.941 249.552 132.592C249.743 132.242 250.063 131.981 250.444 131.864C250.825 131.746 251.236 131.782 251.591 131.963L260.291 136.733C260.646 136.929 260.909 137.257 261.023 137.646C261.137 138.035 261.092 138.453 260.899 138.81Z" fill="#FF9985"/>
<path d="M259.465 141.456C259.268 141.811 258.94 142.074 258.55 142.188C258.16 142.301 257.742 142.256 257.385 142.062L247.869 136.844C247.693 136.747 247.537 136.616 247.411 136.46C247.285 136.303 247.192 136.123 247.135 135.93C247.079 135.737 247.061 135.535 247.083 135.335C247.105 135.135 247.166 134.941 247.263 134.765C247.36 134.589 247.49 134.433 247.647 134.307C247.804 134.181 247.984 134.088 248.177 134.031C248.37 133.975 248.572 133.957 248.772 133.979C248.972 134.001 249.166 134.062 249.342 134.159L258.858 139.376C259.213 139.573 259.476 139.901 259.59 140.291C259.703 140.68 259.658 141.099 259.465 141.456V141.456Z" fill="#FF9985"/>
<path d="M306.451 1.92363L280.951 1.87232C280.137 1.87067 279.356 2.19236 278.779 2.76668C278.202 3.341 277.876 4.12093 277.874 4.935L277.719 55.9896C277.717 56.3586 277.788 56.7243 277.927 57.0658C278.067 57.4073 278.273 57.7178 278.533 57.9794C278.794 58.2411 279.103 58.4487 279.444 58.5903C279.784 58.732 280.15 58.805 280.519 58.805L313.771 58.9108C314.14 58.9118 314.505 58.8402 314.846 58.7C315.187 58.5599 315.497 58.3539 315.759 58.0939C316.02 57.8339 316.228 57.525 316.37 57.1848C316.512 56.8445 316.585 56.4796 316.586 56.1109L316.726 12.2472C316.729 11.5224 316.588 10.8041 316.313 10.1337C316.037 9.4632 315.633 8.85364 315.121 8.33987L310.363 3.55219C309.85 3.03645 309.241 2.6271 308.57 2.34762C307.898 2.06815 307.178 1.92405 306.451 1.92363V1.92363Z" fill="white"/>
<path d="M313.77 59.4862L280.508 59.3804C280.064 59.3792 279.625 59.2905 279.216 59.1193C278.806 58.9482 278.434 58.698 278.121 58.3831C277.809 58.0681 277.561 57.6946 277.393 57.2839C277.224 56.8732 277.139 56.4334 277.141 55.9895L277.296 4.9349C277.3 3.9702 277.686 3.04633 278.369 2.36519C279.052 1.68406 279.977 1.30103 280.942 1.2998L306.452 1.3496C307.253 1.34827 308.047 1.50641 308.787 1.81484C309.527 2.12327 310.198 2.57583 310.762 3.14614L315.521 7.93535C316.087 8.50151 316.535 9.17427 316.839 9.91465C317.142 10.655 317.296 11.4483 317.292 12.2486L317.152 56.1124C317.149 57.0075 316.792 57.865 316.158 58.4969C315.524 59.1288 314.665 59.4835 313.77 59.4831V59.4862ZM280.95 2.4493C280.289 2.45012 279.656 2.71228 279.188 3.17857C278.72 3.64485 278.455 4.27738 278.452 4.93804L278.296 55.9942C278.295 56.2872 278.352 56.5776 278.463 56.8487C278.574 57.1198 278.738 57.3663 278.944 57.5741C279.151 57.7819 279.397 57.9469 279.667 58.0596C279.938 58.1723 280.228 58.2305 280.521 58.2309L313.772 58.3367C314.363 58.3325 314.929 58.1002 315.353 57.6881C315.562 57.4819 315.728 57.2364 315.841 56.9656C315.955 56.6948 316.013 56.4043 316.013 56.1108L316.153 12.2471C316.156 11.5973 316.031 10.9534 315.784 10.3525C315.537 9.75149 315.173 9.20543 314.714 8.74578L309.956 3.9581C309.498 3.49568 308.954 3.12862 308.353 2.87818C307.753 2.62774 307.108 2.49887 306.458 2.49905L280.961 2.45239L280.95 2.4493Z" fill="#7ABDFF"/>
<path d="M294.192 16.5991L309.89 16.6504C310.356 16.6504 310.747 16.1309 310.748 15.4869C310.75 14.843 310.369 14.3219 309.896 14.3204L294.198 14.269C293.732 14.269 293.341 14.7886 293.34 15.431C293.338 16.0734 293.719 16.5975 294.192 16.5991Z" fill="#7ABDFF"/>
<path d="M284.782 16.5697L290.189 16.5852C290.655 16.5852 291.046 16.0673 291.047 15.4233C291.049 14.7794 290.668 14.2552 290.195 14.2536L284.79 14.238C284.323 14.238 283.931 14.756 283.93 15.4C283.928 16.0439 284.309 16.5681 284.782 16.5697Z" fill="#7ABDFF"/>
<path d="M300.468 20.8798L284.77 20.8284C284.304 20.8284 283.915 20.3042 283.918 19.6603C283.921 19.0163 284.304 18.4953 284.777 18.4968L300.476 18.5481C300.942 18.5481 301.33 19.0723 301.328 19.7163C301.327 20.3603 300.939 20.8798 300.468 20.8798Z" fill="#7ABDFF"/>
<path d="M309.412 25.2258L285.543 25.1511C285.38 25.1674 285.215 25.1493 285.059 25.0978C284.903 25.0464 284.76 24.9627 284.638 24.8524C284.517 24.742 284.42 24.6073 284.354 24.4571C284.287 24.3068 284.253 24.1444 284.254 23.9802C284.254 23.816 284.289 23.6538 284.357 23.504C284.424 23.3542 284.522 23.2202 284.644 23.1106C284.766 23.001 284.91 22.9184 285.067 22.8679C285.223 22.8175 285.388 22.8005 285.551 22.8179L309.418 22.8926C309.581 22.8757 309.746 22.8932 309.903 22.9442C310.059 22.9951 310.202 23.0783 310.324 23.1883C310.446 23.2982 310.544 23.4326 310.61 23.5826C310.677 23.7326 310.712 23.895 310.712 24.0592C310.712 24.2234 310.677 24.3857 310.61 24.5357C310.544 24.6858 310.446 24.8201 310.324 24.9301C310.202 25.04 310.059 25.1232 309.903 25.1741C309.746 25.225 309.581 25.2426 309.418 25.2258H309.412Z" fill="#7ABDFF"/>
<path d="M309.876 20.9032L304.47 20.8861C304.003 20.8861 303.616 20.3619 303.617 19.7164C303.619 19.0709 304.004 18.5529 304.477 18.5544L309.883 18.57C310.349 18.57 310.736 19.0942 310.735 19.7397C310.733 20.3852 310.355 20.9047 309.876 20.9032Z" fill="#7ABDFF"/>
<path d="M294.27 42.0494L309.968 42.1007C310.435 42.1007 310.825 41.5812 310.827 40.9372C310.828 40.2933 310.447 39.7706 309.974 39.7675L294.277 39.7178C293.81 39.7178 293.42 40.2358 293.418 40.8797C293.416 41.5237 293.798 42.0478 294.27 42.0494Z" fill="#7ABDFF"/>
<path d="M284.86 42.0198L290.267 42.037C290.734 42.037 291.124 41.519 291.126 40.875C291.127 40.2311 290.746 39.7085 290.273 39.7054L284.868 39.6882C284.401 39.6882 284.009 40.2062 284.008 40.8502C284.006 41.4941 284.387 42.0183 284.86 42.0198Z" fill="#7ABDFF"/>
<path d="M300.538 46.3238L284.841 46.2725C284.374 46.2725 283.985 45.7483 283.988 45.1028C283.991 44.4573 284.374 43.9394 284.847 43.9409L300.546 43.9922C301.013 43.9922 301.4 44.5164 301.398 45.1604C301.397 45.8043 301.016 46.327 300.538 46.3238Z" fill="#7ABDFF"/>
<path d="M309.494 50.6759L285.625 50.6013C285.462 50.6176 285.297 50.5994 285.141 50.548C284.985 50.4965 284.842 50.4129 284.72 50.3025C284.599 50.1921 284.502 50.0575 284.436 49.9072C284.369 49.757 284.335 49.5946 284.336 49.4304C284.336 49.2662 284.372 49.1039 284.439 48.9541C284.506 48.8043 284.604 48.6703 284.726 48.5607C284.848 48.4512 284.992 48.3685 285.149 48.3181C285.305 48.2677 285.47 48.2507 285.633 48.2681L309.5 48.3427C309.663 48.3258 309.828 48.3434 309.985 48.3944C310.141 48.4453 310.284 48.5284 310.406 48.6384C310.528 48.7484 310.626 48.8827 310.692 49.0328C310.759 49.1828 310.794 49.3451 310.794 49.5093C310.794 49.6735 310.759 49.8359 310.692 49.9859C310.626 50.1359 310.528 50.2703 310.406 50.3803C310.284 50.4902 310.141 50.5734 309.985 50.6243C309.828 50.6752 309.663 50.6928 309.5 50.6759H309.494Z" fill="#7ABDFF"/>
<path d="M309.954 46.3534L304.548 46.3348C304.081 46.3348 303.694 45.8121 303.695 45.1666C303.697 44.5211 304.083 44.0032 304.555 44.0032L309.961 44.0218C310.427 44.0218 310.815 44.546 310.813 45.1916C310.812 45.8371 310.426 46.355 309.954 46.3534Z" fill="#7ABDFF"/>
<path d="M294.145 29.2216L309.843 29.273C310.31 29.273 310.702 28.7534 310.703 28.1095C310.705 27.4655 310.324 26.9413 309.851 26.9398L294.161 26.8884C293.694 26.8884 293.302 27.4064 293.301 28.0504C293.299 28.6943 293.679 29.2216 294.145 29.2216Z" fill="#7ABDFF"/>
<path d="M284.743 29.1889L290.15 29.206C290.616 29.206 291.007 28.6865 291.008 28.0441C291.01 27.4017 290.629 26.876 290.156 26.8744L284.751 26.8589C284.284 26.8589 283.894 27.3768 283.891 28.0208C283.888 28.6647 284.27 29.1874 284.743 29.1889Z" fill="#7ABDFF"/>
<path d="M300.429 33.4928L284.731 33.4415C284.265 33.4415 283.877 32.9173 283.879 32.2718C283.88 31.6263 284.266 31.1083 284.739 31.1099L300.437 31.1612C300.903 31.1612 301.291 31.6838 301.289 32.3293C301.288 32.9748 300.9 33.496 300.429 33.4928Z" fill="#7ABDFF"/>
<path d="M309.825 37.8466L294.126 37.7952C293.659 37.7952 293.272 37.271 293.273 36.6255C293.275 35.98 293.661 35.4621 294.134 35.4636L309.831 35.5149C310.298 35.5149 310.685 36.0391 310.684 36.6815C310.682 37.3239 310.296 37.8497 309.825 37.8466Z" fill="#7ABDFF"/>
<path d="M309.837 33.5223L304.431 33.5037C303.964 33.5037 303.577 32.9795 303.578 32.3371C303.58 31.6947 303.965 31.172 304.438 31.1736L309.845 31.1923C310.312 31.1923 310.699 31.7165 310.697 32.362C310.696 33.0075 310.309 33.5239 309.837 33.5223Z" fill="#7ABDFF"/>
<path d="M361.582 1.92363L336.084 1.87232C335.27 1.87067 334.488 2.19236 333.911 2.76668C333.334 3.341 333.009 4.12093 333.007 4.935L332.844 55.9896C332.842 56.3586 332.913 56.7243 333.052 57.0658C333.192 57.4073 333.398 57.7178 333.658 57.9794C333.919 58.2411 334.228 58.4487 334.569 58.5903C334.909 58.732 335.275 58.805 335.644 58.805L368.895 58.9108C369.263 58.912 369.629 58.8405 369.97 58.7005C370.311 58.5604 370.621 58.3545 370.883 58.0945C371.145 57.8345 371.352 57.5255 371.495 57.1851C371.637 56.8448 371.71 56.4797 371.711 56.1109L371.85 12.2472C371.855 10.7837 371.278 9.37814 370.246 8.33987L365.488 3.55219C364.976 3.03719 364.368 2.62827 363.697 2.34881C363.027 2.06936 362.308 1.92487 361.582 1.92363V1.92363Z" fill="white"/>
<path d="M368.9 59.4862L335.639 59.3804C335.195 59.3789 334.756 59.2901 334.346 59.1189C333.936 58.9477 333.565 58.6976 333.252 58.3827C332.939 58.0679 332.691 57.6945 332.523 57.2838C332.354 56.8732 332.268 56.4334 332.27 55.9895L332.433 4.9349C332.437 3.97007 332.822 3.04599 333.506 2.36476C334.189 1.68354 335.114 1.30062 336.079 1.2998L361.588 1.3496C362.39 1.34827 363.184 1.50641 363.924 1.81484C364.664 2.12327 365.335 2.57583 365.898 3.14614L370.657 7.93535C371.223 8.50123 371.671 9.17389 371.975 9.91432C372.279 10.6547 372.433 11.4482 372.428 12.2486L372.288 56.1124C372.286 57.0075 371.928 57.865 371.294 58.4969C370.66 59.1288 369.802 59.4835 368.907 59.4831L368.9 59.4862ZM336.08 2.4493C335.42 2.44971 334.786 2.71172 334.318 3.17809C333.85 3.64446 333.585 4.27726 333.582 4.93804L333.427 55.9942C333.426 56.2872 333.482 56.5776 333.593 56.8487C333.705 57.1198 333.868 57.3663 334.075 57.5741C334.281 57.7819 334.527 57.9469 334.798 58.0596C335.068 58.1723 335.358 58.2305 335.651 58.2309L368.902 58.3367C369.495 58.3383 370.064 58.1047 370.484 57.687C370.904 57.2693 371.141 56.7018 371.143 56.1093L371.282 12.2455C371.286 11.5959 371.161 10.9519 370.914 10.3508C370.667 9.74982 370.304 9.20374 369.845 8.74421L365.085 3.95653C364.628 3.49402 364.083 3.12688 363.483 2.87643C362.883 2.62597 362.239 2.49721 361.588 2.49753L336.091 2.45087L336.08 2.4493Z" fill="#7ABDFF"/>
<path d="M349.321 16.5991L365.02 16.6504C365.487 16.6504 365.877 16.1309 365.879 15.4869C365.88 14.843 365.499 14.3219 365.027 14.3204L349.329 14.269C348.862 14.269 348.472 14.7886 348.469 15.431C348.466 16.0734 348.848 16.5975 349.321 16.5991Z" fill="#7ABDFF"/>
<path d="M339.911 16.5697L345.316 16.5852C345.783 16.5852 346.175 16.0673 346.176 15.4233C346.178 14.7794 345.797 14.2552 345.324 14.2536L339.917 14.238C339.451 14.238 339.06 14.756 339.059 15.4C339.057 16.0439 339.438 16.5681 339.911 16.5697Z" fill="#7ABDFF"/>
<path d="M355.597 20.8798L339.899 20.8284C339.433 20.8284 339.044 20.3042 339.047 19.6603C339.05 19.0163 339.433 18.4953 339.906 18.4968L355.603 18.5481C356.07 18.5481 356.459 19.0723 356.455 19.7163C356.452 20.3603 356.068 20.8798 355.597 20.8798Z" fill="#7ABDFF"/>
<path d="M364.543 25.2258L340.676 25.1511C340.513 25.1674 340.348 25.1493 340.192 25.0978C340.036 25.0464 339.893 24.9627 339.771 24.8524C339.65 24.742 339.553 24.6073 339.486 24.4571C339.42 24.3068 339.386 24.1444 339.387 23.9802C339.387 23.816 339.422 23.6538 339.489 23.504C339.557 23.3542 339.655 23.2202 339.777 23.1106C339.899 23.001 340.043 22.9184 340.199 22.8679C340.356 22.8175 340.521 22.8005 340.684 22.8179L364.551 22.8926C364.714 22.8762 364.879 22.8944 365.035 22.9458C365.191 22.9973 365.334 23.0809 365.456 23.1913C365.577 23.3017 365.675 23.4363 365.741 23.5866C365.807 23.7368 365.841 23.8993 365.84 24.0635C365.84 24.2277 365.805 24.3899 365.738 24.5397C365.67 24.6895 365.572 24.8235 365.45 24.9331C365.328 25.0426 365.184 25.1253 365.028 25.1757C364.871 25.2261 364.706 25.2432 364.543 25.2258V25.2258Z" fill="#7ABDFF"/>
<path d="M365.004 20.9032L359.598 20.8861C359.132 20.8861 358.745 20.3619 358.746 19.7164C358.748 19.0709 359.132 18.5529 359.605 18.5544L365.011 18.57C365.478 18.57 365.865 19.0942 365.864 19.7397C365.862 20.3852 365.475 20.9047 365.004 20.9032Z" fill="#7ABDFF"/>
<path d="M349.282 29.2215L364.98 29.2729C365.446 29.2729 365.837 28.7533 365.84 28.1094C365.843 27.4654 365.46 26.9412 364.988 26.9397L349.288 26.8899C348.822 26.8899 348.431 27.4079 348.43 28.0518C348.428 28.6958 348.809 29.2215 349.282 29.2215Z" fill="#7ABDFF"/>
<path d="M339.872 29.1889L345.279 29.206C345.745 29.206 346.136 28.6865 346.137 28.0441C346.139 27.4017 345.758 26.876 345.285 26.8744L339.88 26.8589C339.413 26.8589 339.021 27.3768 339.02 28.0208C339.018 28.6647 339.399 29.1874 339.872 29.1889Z" fill="#7ABDFF"/>
<path d="M355.558 33.4928L339.86 33.4415C339.394 33.4415 339.006 32.9173 339.008 32.2718C339.009 31.6263 339.395 31.1083 339.868 31.1099L355.566 31.1612C356.032 31.1612 356.42 31.6838 356.418 32.3293C356.416 32.9748 356.029 33.496 355.558 33.4928Z" fill="#7ABDFF"/>
<path d="M364.956 37.8466L349.259 37.7952C348.792 37.7952 348.405 37.271 348.406 36.6255C348.408 35.98 348.794 35.4621 349.266 35.4636L364.964 35.5149C365.431 35.5149 365.818 36.0391 365.816 36.6815C365.815 37.3239 365.423 37.8497 364.956 37.8466Z" fill="#7ABDFF"/>
<path d="M364.966 33.5223L359.559 33.5037C359.093 33.5037 358.705 32.9795 358.707 32.3371C358.709 31.6947 359.094 31.172 359.567 31.1736L364.972 31.1923C365.439 31.1923 365.828 31.7165 365.825 32.362C365.822 33.0075 365.437 33.5239 364.966 33.5223Z" fill="#7ABDFF"/>
<path d="M362.182 71.0169L336.684 70.9702C335.87 70.969 335.089 71.2906 334.513 71.8646C333.936 72.4385 333.611 73.2178 333.609 74.0314L333.445 125.087C333.444 125.456 333.515 125.822 333.654 126.163C333.794 126.505 334 126.815 334.26 127.076C334.521 127.338 334.83 127.545 335.17 127.687C335.511 127.828 335.876 127.901 336.245 127.901L369.496 128.007C369.865 128.009 370.231 127.939 370.573 127.799C370.914 127.659 371.225 127.453 371.487 127.193C371.749 126.933 371.956 126.624 372.098 126.283C372.24 125.942 372.313 125.576 372.313 125.207L372.451 81.3435C372.456 79.88 371.879 78.4745 370.848 77.4363L366.09 72.647C365.578 72.1315 364.969 71.7222 364.298 71.4425C363.628 71.1628 362.909 71.0181 362.182 71.0169V71.0169Z" fill="white"/>
<path d="M369.502 128.581L336.24 128.475C335.796 128.474 335.357 128.386 334.947 128.215C334.538 128.044 334.166 127.794 333.853 127.479C333.54 127.164 333.292 126.791 333.124 126.38C332.955 125.97 332.869 125.53 332.871 125.086L333.027 74.0298C333.031 73.0656 333.417 72.1424 334.1 71.4616C334.783 70.7809 335.707 70.3979 336.671 70.3962L362.181 70.4429C362.982 70.4424 363.776 70.601 364.516 70.9097C365.256 71.2184 365.927 71.6709 366.491 72.241L371.249 77.0287C371.815 77.5949 372.263 78.2679 372.567 79.0086C372.871 79.7492 373.025 80.5429 373.02 81.3435L372.88 125.207C372.877 126.102 372.519 126.959 371.886 127.591C371.252 128.223 370.394 128.578 369.499 128.578L369.502 128.581ZM336.682 71.5441C336.023 71.5466 335.391 71.8096 334.925 72.2758C334.459 72.742 334.196 73.3736 334.193 74.0329L334.03 125.089C334.029 125.681 334.262 126.249 334.68 126.669C335.097 127.088 335.664 127.325 336.256 127.327L369.507 127.433C369.8 127.434 370.091 127.378 370.363 127.266C370.634 127.155 370.881 126.991 371.089 126.784C371.298 126.577 371.463 126.331 371.576 126.061C371.689 125.79 371.747 125.499 371.748 125.206L371.887 81.3419C371.89 80.6921 371.765 80.048 371.518 79.4468C371.272 78.8455 370.908 78.2991 370.449 77.8391L365.69 73.0514C365.232 72.589 364.688 72.2219 364.088 71.9714C363.487 71.721 362.843 71.5921 362.193 71.5924L336.696 71.5426L336.682 71.5441Z" fill="#7ABDFF"/>
<path d="M349.923 85.6956L365.622 85.7454C366.089 85.7454 366.479 85.2274 366.481 84.5835C366.482 83.9395 366.101 83.4153 365.628 83.4138L349.931 83.364C349.464 83.364 349.073 83.8819 349.07 84.5259C349.067 85.1699 349.45 85.6941 349.923 85.6956Z" fill="#7ABDFF"/>
<path d="M340.516 85.6646L345.922 85.6833C346.388 85.6833 346.779 85.1638 346.782 84.5214C346.785 83.879 346.402 83.3532 345.929 83.3517L340.523 83.333C340.056 83.333 339.666 83.8526 339.664 84.4965C339.663 85.1405 340.044 85.6631 340.516 85.6646Z" fill="#7ABDFF"/>
<path d="M356.2 89.9686L340.501 89.9188C340.034 89.9188 339.647 89.3946 339.648 88.7491C339.65 88.1036 340.036 87.5856 340.509 87.5872L356.206 87.637C356.673 87.637 357.06 88.1612 357.059 88.8067C357.057 89.4522 356.671 89.9701 356.2 89.9686Z" fill="#7ABDFF"/>
<path d="M365.149 94.3223L341.282 94.2461C341.118 94.263 340.953 94.2454 340.797 94.1945C340.641 94.1436 340.498 94.0604 340.376 93.9505C340.254 93.8405 340.156 93.7061 340.089 93.5561C340.023 93.4061 339.988 93.2437 339.988 93.0796C339.988 92.9154 340.023 92.753 340.089 92.603C340.156 92.4529 340.254 92.3186 340.376 92.2086C340.498 92.0986 340.641 92.0155 340.797 91.9646C340.953 91.9136 341.118 91.8961 341.282 91.913L365.15 91.9892C365.313 91.9728 365.478 91.991 365.634 92.0424C365.79 92.0939 365.934 92.1775 366.055 92.2879C366.177 92.3982 366.274 92.5329 366.34 92.6831C366.406 92.8334 366.44 92.9959 366.44 93.1601C366.439 93.3242 366.404 93.4865 366.337 93.6363C366.27 93.7861 366.172 93.9201 366.049 94.0296C365.927 94.1392 365.783 94.2219 365.627 94.2723C365.471 94.3227 365.306 94.3398 365.142 94.3223H365.149Z" fill="#7ABDFF"/>
<path d="M365.609 89.9997L360.204 89.981C359.737 89.981 359.348 89.4568 359.352 88.8129C359.355 88.1689 359.737 87.6479 360.21 87.6494L365.617 87.6681C366.084 87.6681 366.471 88.1923 366.469 88.8362C366.468 89.4802 366.08 90.0012 365.609 89.9997Z" fill="#7ABDFF"/>
<path d="M349.884 98.3151L365.581 98.3649C366.048 98.3649 366.438 97.8469 366.44 97.203C366.441 96.559 366.06 96.0364 365.589 96.0333L349.89 95.9819C349.423 95.9819 349.033 96.5015 349.031 97.1454C349.03 97.7894 349.411 98.3136 349.884 98.3151Z" fill="#7ABDFF"/>
<path d="M340.473 98.2839L345.88 98.3026C346.347 98.3026 346.737 97.7831 346.739 97.1391C346.74 96.4951 346.359 95.9741 345.886 95.9725L340.481 95.9539C340.015 95.9539 339.623 96.4734 339.621 97.1174C339.62 97.7613 340.001 98.2824 340.473 98.2839Z" fill="#7ABDFF"/>
<path d="M365.568 102.619L360.161 102.6C359.694 102.6 359.307 102.076 359.309 101.431C359.31 100.785 359.696 100.267 360.169 100.269L365.574 100.287C366.041 100.287 366.428 100.81 366.426 101.454C366.425 102.098 366.039 102.621 365.568 102.619Z" fill="#7ABDFF"/>
<path d="M249.792 0.903266L224.293 0.853519C223.48 0.852279 222.699 1.17394 222.122 1.74788C221.546 2.32182 221.221 3.1011 221.218 3.91463L221.055 54.9708C221.053 55.3396 221.124 55.7052 221.264 56.0465C221.404 56.3878 221.61 56.6981 221.87 56.9596C222.13 57.2211 222.439 57.4285 222.78 57.5701C223.12 57.7117 223.486 57.7846 223.855 57.7846L257.105 57.8903C257.474 57.8916 257.84 57.8201 258.181 57.6801C258.522 57.54 258.832 57.3341 259.094 57.0741C259.356 56.8141 259.563 56.5051 259.706 56.1647C259.848 55.8244 259.921 55.4594 259.922 55.0906L260.061 11.2268C260.063 10.5021 259.923 9.78402 259.648 9.11358C259.373 8.44315 258.968 7.8335 258.457 7.3195L253.699 2.53025C253.187 2.01529 252.578 1.6065 251.907 1.3273C251.237 1.04811 250.518 0.904006 249.792 0.903266V0.903266Z" fill="white"/>
<path d="M257.11 58.4644L223.85 58.3601C222.954 58.356 222.096 57.9967 221.464 57.3611C220.833 56.7254 220.479 55.8653 220.48 54.9692L220.636 3.91307C220.641 2.94864 221.026 2.02516 221.71 1.34436C222.393 0.663557 223.318 0.280763 224.282 0.279541L249.791 0.326203C250.593 0.325676 251.387 0.484343 252.127 0.793009C252.867 1.10167 253.538 1.5542 254.102 2.12431L258.86 6.912C259.426 7.47837 259.874 8.15133 260.178 8.89196C260.482 9.6326 260.636 10.4262 260.631 11.2268L260.491 55.0906C260.488 55.9856 260.13 56.8427 259.496 57.4748C258.863 58.107 258.005 58.4627 257.11 58.4644ZM224.29 1.42747C223.629 1.42829 222.996 1.6905 222.528 2.15683C222.06 2.62316 221.796 3.2557 221.793 3.91621L221.638 54.9723C221.637 55.2654 221.693 55.5557 221.805 55.8269C221.916 56.098 222.079 56.3445 222.286 56.5524C222.493 56.7602 222.738 56.9254 223.009 57.0383C223.279 57.1512 223.569 57.2098 223.862 57.2107L257.113 57.3164C257.705 57.3168 258.273 57.0828 258.693 56.6653C259.113 56.2479 259.351 55.6812 259.354 55.089L259.493 11.2252C259.497 10.5753 259.372 9.93109 259.125 9.32981C258.878 8.72854 258.515 8.18219 258.056 7.72238L253.296 2.9347C252.839 2.47212 252.294 2.10496 251.694 1.8545C251.094 1.60404 250.45 1.47529 249.799 1.4757L224.302 1.42591L224.29 1.42747Z" fill="#7ABDFF"/>
<path d="M239.548 39.2747C239.317 39.2748 239.088 39.2225 238.88 39.1217C238.672 39.021 238.489 38.8743 238.345 38.6929L233.091 32.0402C232.84 31.7216 232.725 31.316 232.772 30.9127C232.82 30.5094 233.025 30.1415 233.344 29.8898C233.663 29.6382 234.068 29.5234 234.471 29.5708C234.875 29.6182 235.243 29.8239 235.494 30.1426L239.346 35.0205L245.185 24.8587C245.387 24.5066 245.721 24.2493 246.113 24.1432C246.504 24.0372 246.922 24.0912 247.275 24.2933C247.627 24.4955 247.884 24.8292 247.99 25.2211C248.096 25.613 248.042 26.0309 247.84 26.383L240.876 38.5156C240.751 38.7326 240.575 38.9157 240.363 39.0488C240.151 39.1819 239.91 39.2611 239.66 39.2793C239.623 39.2762 239.585 39.2747 239.548 39.2747Z" fill="#4DB4E8"/>
<path d="M52.4586 162.243C50.7828 160.273 48.699 158.691 46.3515 157.605C44.0039 156.52 41.4486 155.958 38.8624 155.958C36.2762 155.958 33.7208 156.52 31.3733 157.605C29.0257 158.691 26.9419 160.273 25.2661 162.243L25.1526 162.378C20.2032 168.276 17.4064 176.59 20.0196 183.843C21.362 187.564 24.0638 190.936 24.0871 194.887C24.1322 201.591 16.9445 205.63 12.9485 211.012C11.0374 213.646 9.82988 216.725 9.44012 219.956C9.05036 223.187 9.49126 226.464 10.7211 229.477C13.0761 235.064 18.206 239.898 17.7813 245.943C17.5013 249.92 14.826 253.254 12.2859 256.335C8.25261 261.224 4.21622 266.259 1.87371 272.151C-0.468804 278.043 -0.899666 285.014 2.2019 290.544C4.76062 295.106 9.53897 298.477 10.7569 303.56C11.9468 308.556 9.32432 313.61 8.85768 318.726C7.97263 328.38 15.5461 337.628 24.9115 340.124C29.0348 341.182 33.3558 341.202 37.4889 340.183C38.3922 339.971 39.3325 339.971 40.2358 340.183C44.3684 341.202 48.6889 341.182 52.8116 340.124C62.1739 337.628 69.7505 328.38 68.867 318.726C68.4004 313.61 65.7748 308.556 66.9678 303.56C68.1811 298.471 72.9594 295.106 75.5228 290.544C78.6244 285.014 78.1888 278.043 75.8494 272.151C73.51 266.259 69.4721 261.224 65.4388 256.335C62.9019 253.261 60.2218 249.92 59.9434 245.943C59.5187 239.897 64.6486 235.064 67.002 229.477C68.2321 226.464 68.6733 223.187 68.2838 219.956C67.8943 216.725 66.687 213.647 64.7762 211.012C60.7787 205.63 53.5909 201.589 53.6376 194.887C53.664 190.93 56.3627 187.559 57.7051 183.843C60.3214 176.598 57.5216 168.289 52.5721 162.378L52.4586 162.243Z" fill="#EBF5FF"/>
<path d="M39.1083 164.176H37.6602V377.338H39.1083V164.176Z" fill="#348EE8"/>
<path d="M27.9872 179.947L26.7969 180.772L37.8954 196.778L39.0858 195.952L27.9872 179.947Z" fill="#348EE8"/>
<path d="M22.3732 219.748L21.0859 220.415L37.8321 252.744L39.1193 252.077L22.3732 219.748Z" fill="#348EE8"/>
<path d="M28.5416 220.398L27.0938 220.426L27.3031 231.508L28.7509 231.481L28.5416 220.398Z" fill="#348EE8"/>
<path d="M39.0146 284.891L37.9258 283.93L60.92 257.995L62.0088 258.956L39.0146 284.891Z" fill="#348EE8"/>
<path d="M49.4233 272.431L48.0078 272.13L51.8451 253.824L53.2606 254.125L49.4233 272.431Z" fill="#348EE8"/>
<path d="M37.6071 313.712L16.5977 283.701L17.7814 282.869L38.7908 312.877L37.6071 313.712Z" fill="#348EE8"/>
<path d="M22.1976 290.995L18.043 272.004L19.4569 271.693L23.613 290.684L22.1976 290.995Z" fill="#348EE8"/>
<path d="M60.452 292.006L37.9023 327.514L39.1232 328.289L61.6729 292.782L60.452 292.006Z" fill="#348EE8"/>
<path d="M55.5459 302.124L54.1289 301.813L56.5134 290.665L57.9304 290.976L55.5459 302.124Z" fill="#348EE8"/>
<path d="M50.3271 184.795L37.9375 202.103L39.1161 202.946L51.5057 185.639L50.3271 184.795Z" fill="#348EE8"/>
<path d="M48.1207 177.038L46.4727 190.517L47.9085 190.693L49.5566 177.214L48.1207 177.038Z" fill="#348EE8"/>
<path d="M59.8098 372.357H15.2508C12.586 372.357 10.4258 374.518 10.4258 377.182V407.055C10.4258 409.72 12.586 411.88 15.2508 411.88H59.8098C62.4746 411.88 64.6348 409.72 64.6348 407.055V377.182C64.6348 374.518 62.4746 372.357 59.8098 372.357Z" fill="#C2E0FF"/>
<path d="M89.0853 95.9886C110.969 86.9242 121.361 61.836 112.296 39.9526C103.232 18.0692 78.1435 7.67733 56.2601 16.7417C34.3767 25.8061 23.9849 50.8943 33.0493 72.7777C42.1137 94.6611 67.2018 105.053 89.0853 95.9886Z" fill="white"/>
<path d="M72.6743 100.071C64.0301 100.071 55.58 97.5072 48.3926 92.7047C41.2053 87.9022 35.6034 81.0762 32.2955 73.09C28.9876 65.1038 28.1222 56.316 29.8087 47.8379C31.4952 39.3598 35.6579 31.5722 41.7703 25.46C47.8828 19.3477 55.6705 15.1853 64.1486 13.4991C72.6268 11.8128 81.4145 12.6785 89.4006 15.9867C97.3868 19.2949 104.213 24.897 109.015 32.0845C113.817 39.272 116.38 47.7222 116.38 56.3664C116.367 67.9537 111.758 79.0627 103.564 87.2561C95.3707 95.4494 84.2616 100.058 72.6743 100.071V100.071ZM72.6743 14.2914C64.3532 14.2914 56.219 16.7589 49.3003 21.3818C42.3815 26.0048 36.9891 32.5755 33.8047 40.2632C30.6204 47.9509 29.7872 56.4102 31.4106 64.5714C33.0339 72.7326 37.0409 80.2291 42.9248 86.113C48.8087 91.9969 56.3052 96.0039 64.4664 97.6272C72.6276 99.2506 81.0869 98.4174 88.7746 95.2331C96.4622 92.0487 103.033 86.6563 107.656 79.7376C112.279 72.8188 114.746 64.6846 114.746 56.3635C114.733 45.2095 110.297 34.5162 102.409 26.6294C94.5219 18.7426 83.8283 14.3065 72.6743 14.2943V14.2914Z" fill="#C2E0FF"/>
<path d="M71.7975 59.4157C71.3643 59.4157 70.9488 59.2436 70.6425 58.9372C70.3362 58.6309 70.1641 58.2155 70.1641 57.7823V20.3927C70.1641 19.9595 70.3362 19.544 70.6425 19.2377C70.9488 18.9314 71.3643 18.7593 71.7975 18.7593C72.2307 18.7593 72.6461 18.9314 72.9525 19.2377C73.2588 19.544 73.4309 19.9595 73.4309 20.3927V57.7823C73.4309 58.2155 73.2588 58.6309 72.9525 58.9372C72.6461 59.2436 72.2307 59.4157 71.7975 59.4157V59.4157Z" fill="#C2E0FF"/>
<path d="M101.376 61.1123H72.8727C72.5509 61.1123 72.2322 61.049 71.9348 60.9258C71.6375 60.8026 71.3673 60.6221 71.1397 60.3945C70.9121 60.1669 70.7316 59.8968 70.6084 59.5994C70.4853 59.3021 70.4219 58.9833 70.4219 58.6615C70.4219 58.3396 70.4853 58.021 70.6084 57.7236C70.7316 57.4263 70.9121 57.1561 71.1397 56.9285C71.3673 56.701 71.6375 56.5204 71.9348 56.3972C72.2322 56.2741 72.5509 56.2107 72.8727 56.2107H101.376C101.698 56.2107 102.016 56.2741 102.314 56.3972C102.611 56.5204 102.881 56.701 103.109 56.9285C103.336 57.1561 103.517 57.4263 103.64 57.7236C103.763 58.021 103.827 58.3396 103.827 58.6615C103.827 58.9833 103.763 59.3021 103.64 59.5994C103.517 59.8968 103.336 60.1669 103.109 60.3945C102.881 60.6221 102.611 60.8026 102.314 60.9258C102.016 61.049 101.698 61.1123 101.376 61.1123V61.1123Z" fill="#C2E0FF"/>
</g>
<defs>
<clipPath id="clip0_5442_92423">
<rect width="400" height="411.602" fill="white" transform="translate(0 0.279541)"/>
</clipPath>
</defs>
</svg>
