<svg width="400" height="459" viewBox="0 0 400 459" fill="none" xmlns="http://www.w3.org/2000/svg">
<g clip-path="url(#clip0_5442_92115)">
<path d="M378.325 0.072998H141.294C137.087 0.072998 133.676 3.48299 133.676 7.68944V148.004C133.676 152.21 137.087 155.62 141.294 155.62H378.325C382.532 155.62 385.943 152.21 385.943 148.004V7.68944C385.943 3.48299 382.532 0.072998 378.325 0.072998Z" fill="#FBE9DC"/>
<path d="M368.06 51.0879H151.289V52.8538H368.06V51.0879Z" fill="white"/>
<path d="M368.958 23.8743H152.188V25.6402H368.958V23.8743Z" fill="white"/>
<path d="M368.06 76.7488H151.289V78.5147H368.06V76.7488Z" fill="white"/>
<path d="M368.06 102.41H151.289V104.176H368.06V102.41Z" fill="white"/>
<path d="M368.06 128.069H151.289V129.835H368.06V128.069Z" fill="white"/>
<path d="M192.899 24.7344H190.777V129.103H192.899V24.7344Z" fill="white"/>
<path d="M238.203 24.7344H236.082V129.103H238.203V24.7344Z" fill="white"/>
<path d="M283.504 24.7344H281.383V129.103H283.504V24.7344Z" fill="white"/>
<path d="M328.809 24.7344H326.688V129.103H328.809V24.7344Z" fill="white"/>
<path d="M177.536 18.0053C177.536 18.6863 177.335 19.3522 176.957 19.9187C176.579 20.4852 176.042 20.927 175.413 21.1881C174.783 21.4492 174.091 21.5179 173.423 21.3855C172.755 21.2531 172.141 20.9256 171.659 20.4444C171.177 19.9632 170.848 19.3499 170.715 18.6821C170.582 18.0143 170.65 17.322 170.91 16.6927C171.17 16.0634 171.611 15.5254 172.178 15.1468C172.744 14.7682 173.409 14.566 174.091 14.5657C174.543 14.5653 174.991 14.6539 175.408 14.8266C175.826 14.9992 176.206 15.2525 176.526 15.5719C176.846 15.8914 177.1 16.2707 177.273 16.6882C177.446 17.1057 177.536 17.5533 177.536 18.0053V18.0053Z" fill="white"/>
<path d="M221.032 18.0053C221.032 18.6863 220.831 19.3522 220.453 19.9187C220.075 20.4852 219.538 20.927 218.909 21.1881C218.279 21.4492 217.587 21.5179 216.919 21.3855C216.251 21.2531 215.637 20.9256 215.155 20.4444C214.673 19.9632 214.344 19.3499 214.211 18.6821C214.078 18.0143 214.146 17.322 214.406 16.6927C214.666 16.0634 215.107 15.5254 215.674 15.1468C216.24 14.7682 216.905 14.566 217.587 14.5657C218.039 14.5653 218.487 14.6539 218.904 14.8266C219.322 14.9992 219.702 15.2525 220.022 15.5719C220.342 15.8914 220.596 16.2707 220.769 16.6882C220.942 17.1057 221.032 17.5533 221.032 18.0053V18.0053Z" fill="white"/>
<path d="M264.532 18.0053C264.533 18.6863 264.331 19.3522 263.953 19.9187C263.575 20.4852 263.038 20.927 262.409 21.1881C261.779 21.4492 261.087 21.5179 260.419 21.3855C259.751 21.2531 259.137 20.9256 258.655 20.4444C258.173 19.9632 257.844 19.3499 257.711 18.6821C257.578 18.0143 257.646 17.322 257.906 16.6927C258.166 16.0634 258.607 15.5254 259.174 15.1468C259.74 14.7682 260.406 14.566 261.087 14.5657C261.539 14.5653 261.987 14.6539 262.405 14.8266C262.822 14.9992 263.202 15.2525 263.522 15.5719C263.842 15.8914 264.096 16.2707 264.269 16.6882C264.442 17.1057 264.532 17.5533 264.532 18.0053V18.0053Z" fill="white"/>
<path d="M308.028 18.0053C308.029 18.6864 307.827 19.3523 307.449 19.9189C307.071 20.4854 306.534 20.9272 305.904 21.1882C305.275 21.4493 304.583 21.5179 303.914 21.3854C303.246 21.2529 302.632 20.9253 302.15 20.4439C301.668 19.9625 301.34 19.3491 301.207 18.6812C301.074 18.0133 301.142 17.3209 301.402 16.6916C301.663 16.0624 302.104 15.5245 302.671 15.1461C303.237 14.7676 303.903 14.5657 304.584 14.5657C305.036 14.5655 305.484 14.6543 305.902 14.827C306.319 14.9998 306.699 15.2531 307.019 15.5725C307.338 15.8919 307.592 16.2711 307.765 16.6886C307.939 17.106 308.028 17.5534 308.028 18.0053V18.0053Z" fill="white"/>
<path d="M351.524 18.0053C351.525 18.6864 351.323 19.3523 350.945 19.9189C350.567 20.4854 350.03 20.9272 349.4 21.1882C348.771 21.4493 348.079 21.5179 347.41 21.3854C346.742 21.2529 346.128 20.9253 345.646 20.4439C345.164 19.9625 344.836 19.3491 344.703 18.6812C344.57 18.0133 344.638 17.3209 344.899 16.6916C345.159 16.0624 345.6 15.5245 346.167 15.1461C346.733 14.7676 347.399 14.5657 348.08 14.5657C348.532 14.5655 348.98 14.6543 349.398 14.827C349.815 14.9998 350.195 15.2531 350.515 15.5725C350.835 15.8919 351.088 16.2711 351.261 16.6886C351.435 17.106 351.524 17.5534 351.524 18.0053V18.0053Z" fill="white"/>
<path d="M314.091 35.1086L289.331 35.2806C289.195 35.2816 289.06 35.2557 288.933 35.2044C288.807 35.1532 288.692 35.0776 288.595 34.9819C288.498 34.8863 288.42 34.7724 288.367 34.6468C288.314 34.5213 288.286 34.3865 288.285 34.2502C288.284 34.1139 288.31 33.9787 288.361 33.8523C288.413 33.726 288.488 33.611 288.584 33.5139C288.68 33.4168 288.793 33.3395 288.919 33.2864C289.045 33.2333 289.179 33.2055 289.316 33.2045L314.077 33.034C314.217 33.0278 314.356 33.0498 314.487 33.0987C314.618 33.1475 314.738 33.2223 314.839 33.3184C314.94 33.4146 315.021 33.5303 315.076 33.6584C315.132 33.7865 315.161 33.9245 315.162 34.0641C315.163 34.2037 315.136 34.3421 315.082 34.471C315.028 34.5998 314.949 34.7165 314.849 34.814C314.749 34.9115 314.63 34.9878 314.5 35.0385C314.37 35.0891 314.231 35.1129 314.091 35.1086V35.1086Z" fill="#374151"/>
<path d="M322.031 35.0549L318.581 35.0779C318.445 35.0789 318.31 35.0531 318.183 35.0018C318.057 34.9506 317.942 34.875 317.845 34.7793C317.748 34.6836 317.67 34.5698 317.617 34.4442C317.564 34.3187 317.536 34.1838 317.535 34.0475C317.534 33.9112 317.56 33.776 317.611 33.6497C317.663 33.5234 317.738 33.4084 317.834 33.3113C317.93 33.2142 318.044 33.1369 318.169 33.0838C318.295 33.0307 318.43 33.0028 318.566 33.0018L322.016 32.9788C322.291 32.9768 322.556 33.0842 322.752 33.2774C322.948 33.4706 323.06 33.7338 323.062 34.0091C323.064 34.2844 322.956 34.5493 322.763 34.7454C322.57 34.9415 322.306 35.0528 322.031 35.0549V35.0549Z" fill="#374151"/>
<path d="M299.633 39.6218L289.331 39.6924C289.195 39.6934 289.06 39.6676 288.933 39.6163C288.807 39.5651 288.692 39.4895 288.595 39.3938C288.498 39.2981 288.42 39.1842 288.367 39.0587C288.314 38.9331 288.286 38.7983 288.285 38.662C288.284 38.5257 288.31 38.3905 288.361 38.2642C288.413 38.1379 288.488 38.0229 288.584 37.9258C288.68 37.8287 288.793 37.7514 288.919 37.6983C289.045 37.6452 289.179 37.6173 289.316 37.6163L299.618 37.5457C299.754 37.5447 299.889 37.5705 300.016 37.6217C300.142 37.673 300.257 37.7486 300.354 37.8443C300.451 37.94 300.529 38.0538 300.582 38.1794C300.635 38.305 300.663 38.4397 300.664 38.576C300.665 38.7124 300.639 38.8475 300.588 38.9738C300.536 39.1002 300.461 39.2152 300.365 39.3123C300.269 39.4094 300.155 39.4867 300.03 39.5398C299.904 39.5929 299.769 39.6208 299.633 39.6218V39.6218Z" fill="#374151"/>
<path d="M322.029 39.4665L304.167 39.5894C303.892 39.5914 303.627 39.484 303.431 39.2908C303.235 39.0975 303.123 38.8343 303.121 38.559C303.119 38.2837 303.227 38.0188 303.42 37.8227C303.613 37.6266 303.876 37.5153 304.152 37.5133L322.014 37.3904C322.289 37.3884 322.554 37.4958 322.75 37.689C322.946 37.8822 323.058 38.1455 323.06 38.4208C323.062 38.6961 322.954 38.9609 322.761 39.1571C322.568 39.3532 322.304 39.4645 322.029 39.4665V39.4665Z" fill="#374151"/>
<path d="M309.247 44.0149L289.401 44.1516C289.264 44.1525 289.129 44.1266 289.003 44.0752C288.877 44.0239 288.762 43.9482 288.664 43.8525C288.468 43.6591 288.357 43.3958 288.355 43.1205C288.354 42.8452 288.461 42.5804 288.655 42.3845C288.848 42.1885 289.112 42.0773 289.387 42.0755L309.233 41.9373C309.373 41.9311 309.513 41.9531 309.644 42.0021C309.775 42.051 309.894 42.1259 309.996 42.2222C310.097 42.3185 310.178 42.4343 310.234 42.5626C310.289 42.6909 310.318 42.8291 310.319 42.969C310.32 43.1088 310.293 43.2474 310.239 43.3764C310.185 43.5054 310.106 43.6223 310.006 43.7199C309.906 43.8176 309.787 43.894 309.657 43.9447C309.526 43.9954 309.387 44.0193 309.247 44.0149V44.0149Z" fill="#374151"/>
<path d="M180.29 87.3841L155.522 87.5545C155.385 87.5554 155.25 87.5295 155.124 87.4782C154.998 87.4268 154.883 87.3512 154.786 87.2554C154.689 87.1597 154.611 87.0457 154.558 86.9201C154.505 86.7945 154.477 86.6597 154.477 86.5234C154.476 86.3871 154.502 86.2519 154.553 86.1256C154.604 85.9993 154.68 85.8844 154.776 85.7874C154.872 85.6903 154.986 85.6131 155.111 85.5601C155.237 85.5071 155.372 85.4794 155.508 85.4785L180.268 85.3065C180.408 85.3002 180.547 85.3221 180.678 85.371C180.809 85.4198 180.929 85.4946 181.031 85.5908C181.132 85.6871 181.213 85.8028 181.269 85.9311C181.325 86.0593 181.354 86.1975 181.355 86.3373C181.356 86.4771 181.329 86.6157 181.275 86.7448C181.221 86.8738 181.142 86.9907 181.042 87.0885C180.942 87.1862 180.823 87.2627 180.693 87.3135C180.562 87.3643 180.423 87.3883 180.283 87.3841H180.29Z" fill="#374151"/>
<path d="M188.229 87.3289L184.78 87.352C184.643 87.3529 184.508 87.3269 184.382 87.2756C184.255 87.2242 184.14 87.1485 184.043 87.0528C183.946 86.957 183.869 86.8431 183.816 86.7175C183.763 86.5919 183.735 86.4571 183.734 86.3208C183.733 86.1845 183.759 86.0493 183.811 85.923C183.862 85.7968 183.938 85.6818 184.034 85.5848C184.129 85.4878 184.243 85.4105 184.369 85.3575C184.495 85.3045 184.629 85.2767 184.766 85.2758L188.216 85.2513C188.355 85.2451 188.495 85.2671 188.626 85.316C188.757 85.365 188.877 85.4399 188.978 85.5362C189.08 85.6325 189.16 85.7483 189.216 85.8766C189.272 86.0049 189.301 86.1431 189.302 86.2829C189.303 86.4228 189.275 86.5613 189.221 86.6904C189.168 86.8194 189.088 86.9362 188.988 87.0339C188.888 87.1316 188.769 87.208 188.639 87.2587C188.509 87.3094 188.369 87.3333 188.229 87.3289Z" fill="#374151"/>
<path d="M165.83 91.8958L155.522 91.9695C155.385 91.9704 155.25 91.9444 155.124 91.8931C154.998 91.8418 154.883 91.7661 154.786 91.6704C154.59 91.477 154.478 91.2136 154.477 90.9383C154.475 90.663 154.582 90.3983 154.776 90.2023C154.969 90.0063 155.233 89.8952 155.508 89.8934L165.81 89.8228C165.946 89.8219 166.081 89.8478 166.208 89.8991C166.334 89.9504 166.449 90.0261 166.546 90.1219C166.643 90.2176 166.72 90.3316 166.773 90.4572C166.826 90.5828 166.854 90.7176 166.855 90.8539C166.856 90.9902 166.83 91.1254 166.779 91.2516C166.727 91.3779 166.652 91.4929 166.556 91.5899C166.46 91.687 166.346 91.7642 166.22 91.8172C166.095 91.8702 165.96 91.8979 165.824 91.8989L165.83 91.8958Z" fill="#374151"/>
<path d="M167.348 45.8562C167.14 45.8561 166.934 45.809 166.747 45.7183C166.559 45.6277 166.394 45.4958 166.265 45.3326L161.527 39.3439C161.405 39.2026 161.313 39.0382 161.256 38.8606C161.2 38.6829 161.18 38.4956 161.198 38.31C161.215 38.1244 161.271 37.9444 161.36 37.7807C161.449 37.617 161.57 37.473 161.717 37.3574C161.863 37.2418 162.031 37.157 162.211 37.1081C162.391 37.0592 162.579 37.0472 162.764 37.0728C162.949 37.0984 163.126 37.1611 163.286 37.2572C163.446 37.3532 163.585 37.4806 163.694 37.6317L167.167 42.0281L172.429 32.8683C172.52 32.7111 172.641 32.5734 172.785 32.4629C172.929 32.3524 173.093 32.2713 173.268 32.2244C173.444 32.1774 173.627 32.1654 173.807 32.1891C173.987 32.2127 174.16 32.2716 174.318 32.3624C174.475 32.4531 174.613 32.574 174.723 32.7179C174.834 32.8619 174.915 33.0262 174.962 33.2016C175.009 33.3769 175.021 33.5597 174.997 33.7397C174.973 33.9196 174.914 34.0932 174.824 34.2504L168.546 45.1775C168.434 45.3731 168.275 45.5381 168.084 45.6583C167.893 45.7785 167.676 45.8501 167.451 45.867L167.348 45.8562Z" fill="#18426B"/>
<path d="M260.304 96.9262C260.097 96.9248 259.893 96.8769 259.707 96.786C259.521 96.6951 259.357 96.5635 259.229 96.4011L254.49 90.4123C254.285 90.1234 254.198 89.7665 254.248 89.4155C254.299 89.0645 254.482 88.7462 254.76 88.5265C255.039 88.3068 255.391 88.2024 255.744 88.2351C256.097 88.2677 256.424 88.4347 256.658 88.7017L260.131 93.0965L265.394 83.9368C265.482 83.7742 265.602 83.6309 265.746 83.5153C265.89 83.3997 266.056 83.3143 266.234 83.2639C266.412 83.2136 266.598 83.1994 266.782 83.2223C266.965 83.2451 267.142 83.3045 267.302 83.397C267.462 83.4894 267.602 83.613 267.713 83.7605C267.825 83.9079 267.906 84.0762 267.951 84.2554C267.996 84.4346 268.005 84.621 267.977 84.8037C267.949 84.9863 267.884 85.1615 267.787 85.3188L261.502 96.2321C261.39 96.4279 261.231 96.5931 261.04 96.7133C260.848 96.8335 260.631 96.905 260.405 96.9216C260.372 96.9247 260.338 96.9262 260.304 96.9262Z" fill="#18426B"/>
<path d="M347.744 122.92C347.536 122.919 347.332 122.871 347.146 122.78C346.96 122.689 346.797 122.558 346.668 122.395L341.93 116.406C341.806 116.266 341.712 116.101 341.654 115.923C341.596 115.744 341.575 115.556 341.592 115.369C341.609 115.183 341.663 115.001 341.753 114.836C341.842 114.672 341.964 114.527 342.111 114.41C342.258 114.294 342.427 114.209 342.608 114.16C342.789 114.111 342.979 114.1 343.164 114.126C343.35 114.153 343.528 114.217 343.688 114.315C343.848 114.412 343.987 114.541 344.096 114.694L347.57 119.091L352.832 109.929C352.923 109.772 353.044 109.634 353.188 109.524C353.332 109.413 353.496 109.332 353.672 109.285C353.847 109.238 354.03 109.226 354.21 109.25C354.39 109.274 354.564 109.333 354.721 109.423C354.878 109.514 355.016 109.635 355.126 109.779C355.237 109.923 355.318 110.087 355.365 110.263C355.412 110.438 355.424 110.621 355.4 110.801C355.377 110.981 355.318 111.154 355.227 111.311L348.949 122.24C348.837 122.436 348.678 122.6 348.486 122.72C348.295 122.84 348.078 122.912 347.853 122.928L347.744 122.92Z" fill="#18426B"/>
<path d="M258.003 45.6273C257.796 45.6259 257.592 45.5779 257.406 45.487C257.22 45.3961 257.056 45.2646 256.928 45.1021L252.19 39.1134C251.984 38.8245 251.897 38.4675 251.948 38.1165C251.998 37.7655 252.181 37.4473 252.459 37.2276C252.738 37.0078 253.09 36.9035 253.443 36.9361C253.796 36.9687 254.123 37.1358 254.357 37.4027L257.83 41.7975L263.092 32.6379C263.183 32.4807 263.304 32.3429 263.448 32.2324C263.592 32.1219 263.756 32.0409 263.931 31.9939C264.107 31.9469 264.29 31.9349 264.47 31.9586C264.65 31.9823 264.823 32.0411 264.981 32.1319C265.138 32.2226 265.276 32.3434 265.386 32.4874C265.497 32.6314 265.578 32.7958 265.625 32.9711C265.672 33.1464 265.684 33.3293 265.66 33.5092C265.636 33.6892 265.577 33.8627 265.487 34.0199L259.209 44.9485C259.097 45.1441 258.938 45.3092 258.747 45.4293C258.556 45.5495 258.339 45.6212 258.114 45.638L258.003 45.6273Z" fill="#18426B"/>
<path d="M304.024 71.8534C303.816 71.8531 303.61 71.8057 303.423 71.7148C303.235 71.6239 303.071 71.4917 302.941 71.3282L298.203 65.3395C298.001 65.0506 297.917 64.6953 297.968 64.3464C298.019 63.9974 298.202 63.6813 298.479 63.4627C298.755 63.2441 299.105 63.1395 299.457 63.1704C299.808 63.2013 300.134 63.3653 300.369 63.6289L303.843 68.0252L309.105 58.864C309.289 58.5465 309.591 58.3148 309.945 58.22C310.299 58.1251 310.676 58.1747 310.994 58.358C311.311 58.5413 311.543 58.8432 311.638 59.1972C311.733 59.5513 311.683 59.9285 311.5 60.246L305.221 71.1747C305.108 71.3702 304.95 71.5352 304.759 71.6554C304.568 71.7756 304.351 71.8473 304.126 71.8641C304.092 71.8534 304.058 71.8534 304.024 71.8534Z" fill="#18426B"/>
<path d="M169.762 123.61C169.554 123.61 169.348 123.563 169.161 123.472C168.973 123.381 168.809 123.249 168.679 123.086L163.941 117.098C163.819 116.956 163.727 116.792 163.671 116.614C163.614 116.437 163.594 116.249 163.612 116.064C163.63 115.878 163.685 115.698 163.774 115.534C163.863 115.371 163.985 115.227 164.131 115.111C164.277 114.995 164.445 114.911 164.625 114.862C164.805 114.813 164.993 114.801 165.178 114.826C165.363 114.852 165.54 114.915 165.7 115.011C165.86 115.107 165.999 115.234 166.108 115.385L169.581 119.782L174.843 110.622C175.026 110.305 175.328 110.073 175.683 109.978C176.037 109.883 176.414 109.933 176.732 110.116C177.049 110.299 177.281 110.601 177.376 110.955C177.471 111.309 177.421 111.687 177.238 112.004L170.96 122.933C170.848 123.128 170.689 123.293 170.498 123.413C170.307 123.534 170.09 123.605 169.865 123.622L169.762 123.61Z" fill="#18426B"/>
<path d="M238.244 155.943C238.482 153.746 239.918 145.753 240.888 143.872L239.252 144.848C238.856 143.247 238.792 141.582 239.065 139.956C239.337 138.329 239.941 136.775 240.837 135.391C239.527 135.057 238.156 135.05 236.843 135.372C235.531 135.693 234.317 136.333 233.31 137.234C233.312 135.69 233.735 134.177 234.532 132.856C233.324 132 231.919 131.464 230.449 131.297C228.978 131.13 227.489 131.338 226.121 131.9C225.966 129.811 226.472 127.725 227.566 125.938C224.545 125.7 221.142 125.631 218.68 128.533C218.454 127.487 218.504 126.4 218.825 125.379C216.731 125.639 214.824 126.716 213.521 128.375C213.5 127.44 213.397 126.509 213.214 125.592C209.806 126.162 206.71 127.92 204.475 130.554C204.414 129.764 203.534 130.033 203.024 130.502C199.931 133.158 197.593 136.582 196.246 140.429C195.645 142.304 195.39 144.644 196.321 145.989C196.64 146.383 197.048 146.697 197.512 146.903C197.975 147.11 198.481 147.205 198.987 147.179C204.319 147.536 209.771 145.513 215.163 145.07C216.439 144.897 217.738 145.014 218.963 145.412C220.258 146.035 221.453 146.849 222.506 147.827C225.894 150.577 229.865 152.515 234.117 153.494C234.338 153.584 234.585 153.591 234.811 153.513C235.038 153.434 235.228 153.276 235.346 153.068L238.244 155.943Z" fill="#374151"/>
<path d="M221.168 180.853C220.72 180.973 219.786 181.81 218.989 182.081C218.424 182.263 217.819 182.276 217.247 182.121C217.053 182.074 216.863 182.013 216.678 181.937C213.547 181.018 210.713 179.291 208.46 176.931C206.207 174.571 204.615 171.66 203.842 168.49C203.753 168.363 203.676 168.235 203.589 168.108C204.638 167.084 205.314 165.737 205.509 164.284C205.939 161.382 204.563 158.888 202.437 158.713C201.615 158.666 200.805 158.921 200.157 159.429C199.646 159.824 199.21 160.308 198.869 160.857C198.432 160.728 198.343 159.363 198.333 159.006C198.305 158.14 198.465 157.277 198.466 156.41C198.302 154.9 197.856 153.435 197.153 152.089L195.405 165.462C195.245 167.715 195.594 169.974 196.425 172.074C197.256 174.174 198.549 176.06 200.208 177.593C201.699 179.038 203.441 180.198 205.349 181.017C206.235 182.894 202.335 190.218 202.891 192.216C203.434 194.166 209.1 191.553 210.926 193.892C211.57 194.716 212.109 193.004 213.147 193.124C215.604 193.241 218.067 193.067 220.483 192.605L223.219 180.273C222.501 180.317 221.802 180.514 221.168 180.853Z" fill="#FF9985"/>
<path d="M230.852 171.214C231.618 169.239 232.729 167.416 234.134 165.831C236.324 162.978 237.614 159.539 237.842 155.951C237.861 155.419 237.849 154.887 237.806 154.357C237.59 151.772 236.531 149.329 234.792 147.404C234.5 147.094 234.187 146.805 233.855 146.539C233.826 144.989 233.315 143.486 232.393 142.24C231.757 141.329 230.986 140.52 230.106 139.843C227.692 138.25 225.135 136.887 222.467 135.77C220.893 134.885 219.256 134.118 217.567 133.478C217.478 133.448 217.398 133.398 217.309 133.372C216.413 133.052 215.46 132.921 214.51 132.987C213.56 133.053 212.634 133.314 211.79 133.754C211.022 134.353 210.222 134.91 209.393 135.422C208.343 135.781 207.246 135.981 206.137 136.013C203.065 136.418 199.115 135.873 197.412 138.454C195.716 141.51 195.143 145.063 195.792 148.497C196.133 149.73 196.588 150.929 197.149 152.078C197.853 153.424 198.298 154.889 198.463 156.399C198.463 157.267 198.309 158.13 198.329 158.996C198.34 159.352 198.429 160.717 198.854 160.838C199.203 160.292 199.643 159.81 200.154 159.412C200.801 158.904 201.612 158.649 202.433 158.696C204.562 158.871 205.938 161.365 205.505 164.267C205.311 165.721 204.635 167.067 203.585 168.091C203.673 168.218 203.75 168.347 203.839 168.473C204.611 171.643 206.204 174.554 208.457 176.914C210.71 179.274 213.544 181.001 216.675 181.92C216.843 181.99 217.015 182.047 217.191 182.092C217.779 182.258 218.403 182.248 218.985 182.065C219.739 181.706 220.467 181.295 221.165 180.836C222.599 180.31 224.132 180.111 225.653 180.253C226.402 180.318 227.156 180.226 227.868 179.983C228.579 179.74 229.232 179.351 229.785 178.841C231.339 177.026 230.285 174.252 230.643 171.891C230.697 171.656 230.766 171.424 230.849 171.197L230.852 171.214Z" fill="#374151"/>
<path d="M232.259 189.346C226.115 189.26 213.934 188.776 203.499 190.343C200.533 190.383 195.913 190.455 190.366 190.559L172.475 222.565C172.209 224.006 164.904 238.526 164.245 239.83C150.163 268.238 159.242 275.747 140.771 306.305C139.474 308.454 145.394 314.566 146.357 316.088C156.177 331.642 181.424 335.778 205.185 329.831C213.874 327.755 216.341 320.974 219.081 313.88C221.7 306.85 223.482 299.536 224.388 292.09C230.976 236.349 238.058 239.002 246.258 211.828C248.219 205.325 241.094 189.471 232.259 189.346Z" fill="#4DB4E8"/>
<path d="M200.768 153.033C205.755 153.061 208.411 153.954 209.759 154.693C210.87 155.307 211.435 155.981 211.449 156.708C211.464 158.053 209.842 160.362 206.185 162.484C204.287 163.584 199.955 163.596 195.813 164.14C182.685 165.86 164.632 167.916 147.034 171.916C145.312 172.307 146.609 173.722 148.133 174.615C152.521 177.069 157.045 179.274 161.681 181.218C163.807 182.21 169.292 184.474 182.417 191.078C175.619 193.759 170.871 200.382 168.133 207.613C160.944 203.449 154.144 199.361 150.18 196.923C139.462 190.329 131.052 183.717 128.523 179.892C125.653 175.319 123.594 169.358 124.756 164.061C128.46 157.504 160.368 152.812 200.768 153.033Z" fill="#FF9985"/>
<path d="M289.79 169.273C288.078 163.006 266.497 156.632 240.001 152.446L238.633 162.466C242.038 163.756 246.225 165.055 250.595 166.411C262.901 170.23 265.574 171.306 270.744 173.674C271.973 174.238 269.882 175.741 268.624 176.472C265.356 178.283 261.998 179.927 258.562 181.398C256.899 182.201 252.447 183.855 241.765 189.05C246.468 192.4 249.108 199.447 250.173 206.89C256.097 203.498 261.722 200.143 265.007 198.137C273.893 192.698 283.831 184.24 286.241 180.701C288.999 176.456 289.938 174.64 289.79 169.273Z" fill="#FF9985"/>
<path d="M269.577 186.946L270.239 189.982C270.793 192.531 269.386 199.641 267.144 200.974C261.699 204.198 248.234 211.235 242.497 214.128C240.797 214.984 246.374 207.54 243.706 208.377L211.195 198.563C219.276 194.011 243.345 183.14 256.318 177.549C257.22 177.254 258.179 177.177 259.117 177.323C261.651 177.624 264.026 178.715 265.904 180.443C267.782 182.171 269.067 184.446 269.577 186.946V186.946Z" fill="#4DB4E8"/>
<path d="M149.113 186.673L148.453 189.709C147.898 192.256 149.305 199.368 151.548 200.699C156.992 203.931 174.434 212.984 180.171 215.877C181.873 216.735 207.496 198.288 207.496 198.288C199.414 193.737 175.347 182.865 162.374 177.274C161.472 176.979 160.513 176.902 159.575 177.048C157.041 177.35 154.666 178.442 152.788 180.17C150.91 181.898 149.624 184.173 149.113 186.673V186.673Z" fill="#4DB4E8"/>
<path d="M375.013 211.191C373.354 209.244 371.293 207.679 368.97 206.607C366.648 205.534 364.12 204.979 361.562 204.979C359.004 204.979 356.476 205.534 354.153 206.607C351.831 207.679 349.769 209.244 348.111 211.191L347.999 211.325C343.104 217.16 340.336 225.383 342.93 232.548C344.259 236.233 346.924 239.562 346.955 243.475C346.999 250.104 339.889 254.101 335.935 259.423C334.045 262.029 332.85 265.074 332.465 268.27C332.08 271.466 332.516 274.707 333.733 277.688C336.06 283.216 341.136 287.991 340.715 293.965C340.441 297.899 337.789 301.202 335.28 304.242C331.286 309.078 327.293 314.058 324.981 319.884C322.669 325.71 322.236 332.607 325.305 338.075C327.836 342.587 332.564 345.915 333.764 350.948C334.942 355.89 332.347 360.888 331.885 365.948C331.01 375.497 338.507 384.643 347.767 387.112C351.846 388.158 356.12 388.178 360.209 387.171C361.103 386.961 362.033 386.961 362.927 387.171C367.016 388.178 371.29 388.158 375.369 387.112C384.631 384.643 392.127 375.497 391.253 365.948C390.792 360.888 388.194 355.89 389.372 350.948C390.574 345.915 395.3 342.587 397.831 338.075C400.903 332.607 400.472 325.713 398.157 319.884C395.842 314.055 391.847 309.078 387.856 304.242C385.347 301.202 382.697 297.899 382.421 293.965C382.001 287.984 387.076 283.205 389.405 277.688C390.621 274.707 391.057 271.466 390.672 268.27C390.286 265.074 389.092 262.03 387.202 259.423C383.248 254.101 376.143 250.104 376.183 243.475C376.209 239.562 378.879 236.227 380.207 232.548C382.794 225.383 380.026 217.16 375.138 211.325L375.013 211.191Z" fill="#EBF5FF"/>
<path d="M361.799 213.103H360.367V423.925H361.799V213.103Z" fill="#348EE8"/>
<path d="M350.803 228.7L349.625 229.517L360.605 245.346L361.783 244.53L350.803 228.7Z" fill="#348EE8"/>
<path d="M345.241 268.064L343.969 268.723L360.535 300.696L361.807 300.037L345.241 268.064Z" fill="#348EE8"/>
<path d="M351.345 268.708L349.914 268.735L350.121 279.695L351.553 279.668L351.345 268.708Z" fill="#348EE8"/>
<path d="M361.708 332.491L360.633 331.539L383.375 305.895L384.45 306.847L361.708 332.491Z" fill="#348EE8"/>
<path d="M372.006 320.168L370.605 319.872L374.402 301.764L375.803 302.061L372.006 320.168Z" fill="#348EE8"/>
<path d="M360.316 361.002L339.531 331.319L340.703 330.496L361.488 360.174L360.316 361.002Z" fill="#348EE8"/>
<path d="M345.069 338.53L340.957 319.749L342.355 319.441L346.467 338.223L345.069 338.53Z" fill="#348EE8"/>
<path d="M382.917 339.531L360.609 374.648L361.818 375.416L384.125 340.298L382.917 339.531Z" fill="#348EE8"/>
<path d="M378.065 349.542L376.664 349.235L379.023 338.209L380.424 338.517L378.065 349.542Z" fill="#348EE8"/>
<path d="M361.818 251.453L360.652 250.619L372.888 233.482L374.054 234.316L361.818 251.453Z" fill="#348EE8"/>
<path d="M370.711 225.818L369.086 239.154L370.507 239.327L372.133 225.991L370.711 225.818Z" fill="#348EE8"/>
<path d="M382.29 419H338.19C335.559 419 333.426 421.133 333.426 423.763V453.326C333.426 455.957 335.559 458.09 338.19 458.09H382.29C384.922 458.09 387.055 455.957 387.055 453.326V423.763C387.055 421.133 384.922 419 382.29 419Z" fill="#C2E0FF"/>
<path d="M211.271 169.537C211.521 169.299 211.677 168.979 211.712 168.636C211.747 168.292 211.658 167.948 211.462 167.664L207.822 162.239C207.741 162.1 207.632 161.981 207.501 161.889C207.37 161.797 207.221 161.734 207.064 161.705C206.907 161.676 206.745 161.681 206.59 161.72C206.435 161.759 206.29 161.831 206.166 161.931C205.917 162.17 205.761 162.49 205.726 162.833C205.691 163.176 205.78 163.521 205.975 163.805L209.615 169.23C209.696 169.368 209.805 169.487 209.936 169.58C210.067 169.672 210.216 169.734 210.373 169.764C210.53 169.793 210.692 169.788 210.847 169.748C211.002 169.709 211.147 169.637 211.271 169.537V169.537Z" fill="#FF9985"/>
<path d="M213.246 153.974C214.101 154.456 214.81 155.162 215.295 156.017C215.531 156.626 215.603 157.287 215.504 157.933C215.362 159.556 214.988 161.151 214.395 162.669C214.183 163.45 213.75 164.153 213.148 164.695C212.546 165.236 211.801 165.593 211.002 165.721C210.11 165.763 209.219 165.62 208.385 165.3C207.551 164.98 206.793 164.49 206.159 163.862C203.735 161.608 202.887 160.778 202.134 158.001C201.193 154.521 202.369 152 206.813 152.554C209.1 152.838 211.376 152.749 213.246 153.974Z" fill="#FF9985"/>
<path d="M211.126 163.459L219.798 164.398C220.097 164.451 220.364 164.617 220.544 164.862C220.724 165.107 220.802 165.412 220.763 165.714C220.757 165.861 220.723 166.006 220.661 166.141C220.599 166.275 220.511 166.396 220.402 166.496C220.293 166.596 220.165 166.673 220.026 166.723C219.887 166.774 219.74 166.796 219.592 166.788L210.92 165.85C210.621 165.797 210.353 165.631 210.174 165.386C209.994 165.14 209.916 164.836 209.955 164.534C209.961 164.387 209.995 164.241 210.057 164.107C210.119 163.973 210.207 163.852 210.316 163.752C210.425 163.652 210.552 163.575 210.691 163.525C210.83 163.474 210.978 163.452 211.126 163.459V163.459Z" fill="#FF9985"/>
<path d="M212.262 160.303L220.935 161.242C221.234 161.295 221.501 161.461 221.681 161.706C221.861 161.951 221.939 162.256 221.899 162.557C221.895 162.705 221.861 162.851 221.8 162.986C221.738 163.121 221.65 163.243 221.541 163.344C221.432 163.445 221.304 163.523 221.165 163.573C221.025 163.624 220.877 163.647 220.729 163.639L212.057 162.701C211.757 162.648 211.49 162.482 211.311 162.237C211.131 161.993 211.053 161.688 211.092 161.387C211.096 161.238 211.13 161.092 211.191 160.957C211.253 160.821 211.34 160.7 211.449 160.599C211.558 160.498 211.686 160.42 211.826 160.369C211.966 160.318 212.114 160.295 212.262 160.303V160.303Z" fill="#FF9985"/>
<path d="M211.369 156.566L220.04 157.506C220.339 157.558 220.607 157.724 220.787 157.969C220.967 158.214 221.046 158.519 221.006 158.82C221.002 158.969 220.968 159.115 220.906 159.25C220.845 159.385 220.757 159.507 220.648 159.607C220.539 159.708 220.411 159.787 220.272 159.838C220.132 159.889 219.984 159.911 219.836 159.905L211.164 158.965C210.864 158.912 210.597 158.746 210.417 158.502C210.237 158.257 210.158 157.952 210.197 157.65C210.202 157.502 210.236 157.356 210.297 157.22C210.359 157.085 210.447 156.963 210.556 156.862C210.665 156.761 210.793 156.683 210.933 156.632C211.073 156.581 211.221 156.559 211.369 156.566V156.566Z" fill="#FF9985"/>
<path d="M209.436 153.535L218.106 154.475C218.406 154.527 218.674 154.693 218.854 154.938C219.034 155.183 219.112 155.488 219.073 155.789C219.067 155.937 219.033 156.082 218.971 156.217C218.909 156.351 218.821 156.472 218.712 156.572C218.602 156.672 218.475 156.749 218.336 156.799C218.196 156.85 218.049 156.872 217.901 156.864L209.23 155.926C208.931 155.873 208.663 155.707 208.483 155.463C208.303 155.218 208.224 154.913 208.264 154.611C208.269 154.464 208.304 154.318 208.366 154.184C208.428 154.049 208.516 153.929 208.625 153.828C208.734 153.728 208.862 153.651 209.001 153.6C209.14 153.55 209.288 153.528 209.436 153.535V153.535Z" fill="#FF9985"/>
<path d="M233.17 169.313C232.921 169.074 232.765 168.755 232.73 168.411C232.695 168.068 232.784 167.724 232.98 167.44L236.62 162.015C236.7 161.876 236.81 161.757 236.94 161.665C237.071 161.573 237.22 161.51 237.377 161.481C237.534 161.452 237.696 161.457 237.851 161.496C238.006 161.535 238.151 161.607 238.276 161.707C238.525 161.946 238.681 162.266 238.716 162.609C238.751 162.952 238.662 163.297 238.466 163.581L234.826 169.006C234.745 169.144 234.636 169.263 234.505 169.355C234.375 169.447 234.226 169.51 234.068 169.539C233.911 169.569 233.75 169.563 233.595 169.524C233.44 169.485 233.295 169.413 233.17 169.313V169.313Z" fill="#FF9985"/>
<path d="M231.196 153.75C230.34 154.232 229.632 154.938 229.147 155.792C228.911 156.402 228.839 157.063 228.938 157.709C229.08 159.332 229.454 160.927 230.047 162.445C230.259 163.226 230.692 163.929 231.294 164.471C231.895 165.012 232.641 165.369 233.44 165.497C234.332 165.539 235.223 165.396 236.057 165.076C236.89 164.756 237.648 164.266 238.283 163.638C240.707 161.383 241.555 160.554 242.307 157.776C243.249 154.297 242.072 151.775 237.629 152.33C235.342 152.615 233.067 152.526 231.196 153.75Z" fill="#FF9985"/>
<path d="M233.323 163.235L224.651 164.175C224.351 164.227 224.084 164.393 223.904 164.638C223.724 164.883 223.646 165.188 223.686 165.489C223.691 165.637 223.726 165.782 223.788 165.917C223.85 166.051 223.938 166.171 224.047 166.271C224.155 166.371 224.283 166.449 224.422 166.499C224.561 166.549 224.709 166.572 224.856 166.564L233.529 165.626C233.828 165.573 234.095 165.407 234.275 165.162C234.454 164.917 234.533 164.613 234.493 164.312C234.488 164.164 234.454 164.018 234.392 163.884C234.33 163.75 234.242 163.629 234.133 163.529C234.024 163.429 233.897 163.351 233.757 163.301C233.618 163.25 233.471 163.228 233.323 163.235V163.235Z" fill="#FF9985"/>
<path d="M232.178 160.081L223.506 161.021C223.207 161.074 222.939 161.24 222.76 161.485C222.58 161.73 222.502 162.034 222.541 162.336C222.546 162.484 222.579 162.63 222.641 162.765C222.702 162.901 222.79 163.022 222.899 163.123C223.008 163.224 223.136 163.302 223.275 163.353C223.415 163.404 223.563 163.427 223.712 163.42L232.384 162.48C232.683 162.427 232.951 162.261 233.13 162.017C233.31 161.772 233.388 161.467 233.348 161.165C233.344 161.017 233.311 160.871 233.249 160.735C233.188 160.6 233.1 160.478 232.991 160.378C232.882 160.277 232.754 160.198 232.614 160.148C232.475 160.097 232.326 160.074 232.178 160.081V160.081Z" fill="#FF9985"/>
<path d="M233.073 156.342L224.402 157.282C224.102 157.334 223.835 157.5 223.655 157.745C223.474 157.99 223.396 158.295 223.436 158.596C223.44 158.745 223.474 158.891 223.536 159.026C223.597 159.162 223.685 159.283 223.794 159.384C223.903 159.485 224.031 159.564 224.171 159.614C224.311 159.665 224.459 159.688 224.608 159.68L233.278 158.741C233.578 158.688 233.846 158.522 234.026 158.277C234.206 158.032 234.284 157.728 234.245 157.426C234.24 157.278 234.206 157.131 234.145 156.996C234.083 156.861 233.995 156.739 233.886 156.638C233.777 156.537 233.649 156.459 233.509 156.408C233.37 156.357 233.221 156.335 233.073 156.342V156.342Z" fill="#FF9985"/>
<path d="M235.004 153.311L226.331 154.251C226.032 154.304 225.765 154.47 225.585 154.715C225.405 154.959 225.326 155.264 225.365 155.565C225.37 155.714 225.403 155.86 225.465 155.995C225.527 156.131 225.614 156.252 225.724 156.353C225.833 156.454 225.961 156.532 226.101 156.583C226.24 156.634 226.389 156.657 226.537 156.649L235.209 155.71C235.509 155.657 235.776 155.491 235.955 155.246C236.135 155.001 236.213 154.696 236.174 154.395C236.17 154.247 236.136 154.101 236.074 153.965C236.013 153.83 235.925 153.709 235.816 153.608C235.707 153.507 235.579 153.429 235.44 153.378C235.3 153.327 235.152 153.304 235.004 153.311V153.311Z" fill="#FF9985"/>
<path d="M204.582 259.964H200.887V454.979H204.582V259.964Z" fill="#452A51"/>
<path d="M7.84793 262.651H4.15234V457.666H7.84793V262.651Z" fill="#452A51"/>
<path d="M306.372 263.035H302.371V458.05H306.372V263.035Z" fill="#374151"/>
<path d="M309.629 260.216H0V270.621H309.629V260.216Z" fill="#374151"/>
<path d="M106.385 260.394H101.871V458.048H106.385V260.394Z" fill="#374151"/>
<path d="M76.5248 424.79L73.6556 449.783L62.6087 450.669L59.3125 445.355L60.2111 444.29L61.7916 425.964L76.5248 424.79Z" fill="#FF9985"/>
<path d="M56.9119 389.031C60.8748 371.453 64.3492 350.973 72.2718 333.169C75.647 325.633 81.0766 319.199 87.9389 314.604C95.3367 309.7 103.73 306.495 112.515 305.22C116.122 304.656 119.769 304.384 123.42 304.407C137.479 304.514 163.213 304.454 170.176 304.407L152.585 338.211C138.264 338.326 123.134 338.258 113.868 338.194C111.291 338.13 108.756 338.844 106.591 340.243C104.427 341.642 102.734 343.66 101.734 346.034C91.3732 372.205 84.2548 399.544 80.537 427.443C80.0946 430.833 76.0641 434.101 72.3409 434.101H59.0946C55.6325 434.101 53.35 432.054 53.3792 429C53.5067 415.571 54.0212 401.882 56.9119 389.031Z" fill="#374151"/>
<path d="M132.578 340.155C129.427 340.155 117.197 339.43 114.044 339.499C108.774 339.614 104.6 343.798 102.3 348.141C100.16 352.164 99.01 356.638 98.9434 361.193C98.7283 366.007 96.7162 370.877 95.0896 375.46C92.7288 382.113 89.1807 387.613 87.1025 394.348C85.6725 398.967 85.4359 404.352 84.9198 409.129C84.052 417.162 83.5959 424.639 78.4688 431.219C80.7098 410.181 82.4869 389.144 88.2161 368.663C90.6036 359.187 94.0925 350.024 98.6116 341.36C100.909 336.932 104.003 332.965 107.738 329.657C110.267 327.535 113.979 325.766 117.007 327.244C118.137 327.793 119.003 328.736 120.151 329.24C121.051 329.62 122.045 329.721 123.004 329.529C123.963 329.337 124.842 328.862 125.527 328.165C123.926 329.942 162.489 334.932 163.086 336.21C164.76 339.811 141.851 340.138 132.578 340.155Z" fill="#374151"/>
<path d="M48.3098 448.591L61.401 443.657H73.1881C73.9068 443.694 74.5836 444.007 75.0773 444.53C75.571 445.054 75.8434 445.748 75.8377 446.467L76.1096 453.347L45.7738 454.13C44.4944 452.283 45.1011 449.798 48.3098 448.591Z" fill="#FBE9DC"/>
<path d="M76.1092 453.347L76.444 454.601C76.6529 455.381 75.8036 456.111 74.6746 456.125L51.1003 456.404C50.0941 456.489 49.0824 456.326 48.1538 455.93C47.2252 455.533 46.4079 454.915 45.7734 454.13L76.1092 453.347Z" fill="#374151"/>
<path d="M60.5667 447.574L61.4452 447.276C61.5323 447.24 61.6032 447.173 61.6445 447.089C61.6858 447.004 61.6947 446.907 61.6695 446.816L60.4837 442.533C60.474 442.488 60.4551 442.446 60.4281 442.408C60.4012 442.371 60.3668 442.34 60.3271 442.316C60.2874 442.293 60.2432 442.278 60.1975 442.272C60.1518 442.267 60.1054 442.271 60.0613 442.284L59.1843 442.582C59.0967 442.618 59.0254 442.685 58.984 442.77C58.9426 442.855 58.9341 442.952 58.96 443.043L60.1443 447.326C60.154 447.371 60.1729 447.413 60.1999 447.451C60.2268 447.488 60.2612 447.519 60.3009 447.543C60.3406 447.566 60.3847 447.581 60.4305 447.586C60.4762 447.592 60.5226 447.588 60.5667 447.574V447.574Z" fill="#374151"/>
<path d="M57.1174 448.656L57.996 448.358C58.0833 448.322 58.1544 448.255 58.1958 448.17C58.2371 448.085 58.2458 447.988 58.2202 447.897L57.036 443.614C57.0261 443.569 57.0071 443.527 56.98 443.49C56.953 443.453 56.9186 443.421 56.879 443.398C56.8393 443.375 56.7954 443.36 56.7497 443.354C56.704 443.348 56.6577 443.352 56.6136 443.365L55.7351 443.673C55.6475 443.708 55.5762 443.775 55.5348 443.86C55.4934 443.945 55.4849 444.042 55.5108 444.133L56.695 448.417C56.706 448.462 56.7258 448.503 56.7533 448.539C56.7807 448.575 56.8153 448.605 56.8549 448.628C56.8944 448.65 56.9381 448.664 56.9832 448.669C57.0284 448.673 57.074 448.669 57.1174 448.656V448.656Z" fill="#374151"/>
<path d="M53.841 449.876L54.718 449.578C54.8056 449.543 54.8769 449.476 54.9183 449.391C54.9597 449.306 54.9683 449.209 54.9424 449.118L53.758 444.833C53.7482 444.789 53.7291 444.746 53.7021 444.709C53.675 444.672 53.6406 444.641 53.6009 444.617C53.5612 444.594 53.5173 444.579 53.4716 444.574C53.426 444.569 53.3797 444.573 53.3357 444.586L52.4571 444.884C52.37 444.92 52.2991 444.987 52.2578 445.072C52.2165 445.157 52.2076 445.254 52.2328 445.345L53.4187 449.627C53.4286 449.672 53.4476 449.715 53.4746 449.752C53.5017 449.789 53.5361 449.82 53.5757 449.844C53.6153 449.867 53.6593 449.882 53.705 449.888C53.7506 449.893 53.7969 449.889 53.841 449.876V449.876Z" fill="#374151"/>
<path d="M69.3585 452.914H73.3997C73.6643 452.914 73.8789 452.699 73.8789 452.434V451.788C73.8789 451.523 73.6643 451.309 73.3997 451.309H69.3585C69.0938 451.309 68.8793 451.523 68.8793 451.788V452.434C68.8793 452.699 69.0938 452.914 69.3585 452.914Z" fill="#374151"/>
<path d="M199.909 343.58C196.757 343.58 184.528 342.882 181.376 342.949C176.104 343.06 171.933 347.106 169.63 351.289C167.498 355.149 166.346 359.472 166.274 363.881C166.061 368.527 164.047 373.228 162.422 377.652C160.061 384.074 156.513 389.38 154.435 395.878C153.005 400.331 152.77 405.533 152.252 410.143C151.384 417.898 150.929 425.119 145.801 431.464C148.04 411.16 149.817 390.85 155.547 371.084C157.945 361.916 161.435 353.068 165.944 344.732C168.26 340.435 171.355 336.604 175.069 333.435C177.599 331.388 181.31 329.68 184.339 331.105C185.468 331.637 186.336 332.546 187.481 333.04C188.381 333.409 189.369 333.508 190.323 333.324C191.278 333.14 192.159 332.683 192.857 332.007C191.257 333.721 229.819 338.538 230.417 339.771C232.085 343.252 209.18 343.565 199.909 343.58Z" fill="#374151"/>
<path d="M143.847 424.79L140.976 449.783L129.929 450.669L126.633 445.355L127.531 444.29L129.112 425.964L143.847 424.79Z" fill="#FF9985"/>
<path d="M124.241 389.03C128.204 371.453 131.679 350.973 139.601 333.169C142.977 325.633 148.406 319.2 155.268 314.604C162.666 309.7 171.059 306.495 179.844 305.22C183.449 304.656 187.093 304.384 190.742 304.407C204.802 304.514 212.945 304.454 219.909 304.407V338.211C205.587 338.326 190.458 338.258 181.19 338.194C178.613 338.131 176.078 338.845 173.913 340.243C171.749 341.642 170.056 343.66 169.055 346.034C158.694 372.205 151.576 399.544 147.859 427.443C147.415 430.833 143.384 434.101 139.663 434.101H126.416C122.954 434.101 120.672 432.054 120.699 429C120.832 415.571 121.346 401.882 124.241 389.03Z" fill="#374151"/>
<path d="M115.63 448.591L128.721 443.657H140.51C141.229 443.694 141.906 444.006 142.399 444.53C142.893 445.053 143.165 445.747 143.16 446.467L143.432 453.346L113.094 454.129C111.821 452.282 112.426 449.798 115.63 448.591Z" fill="#FBE9DC"/>
<path d="M143.431 453.346L143.766 454.601C143.973 455.381 143.125 456.11 141.995 456.124L118.42 456.404C117.414 456.488 116.403 456.325 115.474 455.929C114.546 455.532 113.728 454.915 113.094 454.129L143.431 453.346Z" fill="#374151"/>
<path d="M127.894 447.574L128.773 447.276C128.86 447.24 128.931 447.173 128.973 447.088C129.014 447.003 129.023 446.906 128.997 446.815L127.813 442.533C127.803 442.488 127.784 442.445 127.757 442.408C127.73 442.371 127.696 442.34 127.656 442.316C127.616 442.293 127.572 442.278 127.527 442.272C127.481 442.267 127.435 442.271 127.391 442.284L126.512 442.582C126.425 442.618 126.354 442.685 126.312 442.77C126.271 442.854 126.262 442.952 126.288 443.042L127.472 447.325C127.482 447.37 127.501 447.412 127.528 447.45C127.555 447.487 127.589 447.518 127.629 447.541C127.669 447.565 127.713 447.58 127.758 447.585C127.804 447.591 127.85 447.587 127.894 447.574V447.574Z" fill="#374151"/>
<path d="M124.443 448.655L125.32 448.357C125.408 448.321 125.479 448.255 125.52 448.17C125.562 448.085 125.57 447.987 125.544 447.896L124.36 443.614C124.35 443.569 124.331 443.526 124.304 443.489C124.277 443.452 124.243 443.421 124.203 443.397C124.163 443.374 124.119 443.359 124.074 443.354C124.028 443.348 123.982 443.352 123.938 443.365L123.059 443.672C122.972 443.708 122.901 443.775 122.859 443.86C122.818 443.945 122.809 444.042 122.835 444.133L124.021 448.417C124.031 448.461 124.051 448.502 124.079 448.539C124.106 448.575 124.141 448.605 124.18 448.627C124.22 448.649 124.264 448.663 124.309 448.668C124.354 448.673 124.4 448.669 124.443 448.655V448.655Z" fill="#374151"/>
<path d="M121.164 449.876L122.043 449.578C122.13 449.542 122.201 449.475 122.242 449.39C122.284 449.305 122.292 449.208 122.267 449.117L121.081 444.833C121.072 444.788 121.053 444.746 121.026 444.709C120.999 444.671 120.965 444.64 120.925 444.617C120.886 444.594 120.842 444.579 120.796 444.574C120.751 444.568 120.704 444.572 120.661 444.586L119.782 444.884C119.694 444.919 119.623 444.986 119.582 445.071C119.54 445.156 119.532 445.253 119.558 445.344L120.742 449.627C120.752 449.672 120.771 449.714 120.798 449.751C120.825 449.789 120.859 449.82 120.899 449.843C120.939 449.867 120.983 449.882 121.028 449.887C121.074 449.893 121.12 449.889 121.164 449.876V449.876Z" fill="#374151"/>
<path d="M136.683 452.913H140.724C140.989 452.913 141.203 452.699 141.203 452.434V451.788C141.203 451.523 140.989 451.308 140.724 451.308H136.683C136.418 451.308 136.203 451.523 136.203 451.788V452.434C136.203 452.699 136.418 452.913 136.683 452.913Z" fill="#374151"/>
<path d="M49.9212 85.9684C72.1891 85.9684 90.2408 67.9215 90.2408 45.6596C90.2408 23.3977 72.1891 5.35083 49.9212 5.35083C27.6533 5.35083 9.60156 23.3977 9.60156 45.6596C9.60156 67.9215 27.6533 85.9684 49.9212 85.9684Z" fill="white"/>
<path d="M49.9205 86.7362C41.7943 86.7356 33.8507 84.326 27.0943 79.812C20.3379 75.2981 15.0721 68.8826 11.9627 61.3768C8.85334 53.871 8.04009 45.6119 9.62581 37.644C11.2115 29.6762 15.125 22.3573 20.8713 16.613C26.6176 10.8686 33.9388 6.95678 41.9089 5.37208C49.879 3.78738 58.1403 4.60099 65.6479 7.71007C73.1555 10.8192 79.5723 16.084 84.0869 22.839C88.6016 29.5939 91.0112 37.5355 91.0112 45.6596C90.999 56.5506 86.6659 66.9919 78.9624 74.6927C71.259 82.3935 60.8144 86.7248 49.9205 86.7362V86.7362ZM49.9205 6.11859C42.0981 6.1192 34.4515 8.43877 27.9477 12.784C21.4438 17.1291 16.3749 23.3048 13.3818 30.53C10.3887 37.7552 9.60581 45.7056 11.1323 53.3756C12.6587 61.0456 16.426 68.0908 21.9575 73.6204C27.489 79.15 34.5364 82.9156 42.2086 84.4411C49.8808 85.9665 57.8331 85.1833 65.0601 82.1904C72.287 79.1976 78.4639 74.1295 82.8098 67.6271C87.1556 61.1247 89.4753 53.4799 89.4753 45.6596C89.4635 35.1758 85.2922 25.1247 77.8767 17.7118C70.4612 10.2989 60.4072 6.12957 49.9205 6.11859Z" fill="#C2E0FF"/>
<path d="M49.0946 48.5264C48.6872 48.5264 48.2965 48.3646 48.0084 48.0766C47.7203 47.7886 47.5586 47.3981 47.5586 46.9908V11.8508C47.5586 11.4435 47.7203 11.0529 48.0084 10.7649C48.2965 10.4769 48.6872 10.3152 49.0946 10.3152C49.5019 10.3152 49.8926 10.4769 50.1807 10.7649C50.4687 11.0529 50.6306 11.4435 50.6306 11.8508V46.9908C50.6306 47.3981 50.4687 47.7886 50.1807 48.0766C49.8926 48.3646 49.5019 48.5264 49.0946 48.5264V48.5264Z" fill="#C2E0FF"/>
<path d="M76.904 50.1204H50.1087C49.4976 50.1204 48.9117 49.8777 48.4796 49.4458C48.0475 49.0138 47.8047 48.4279 47.8047 47.817C47.8047 47.2061 48.0475 46.6203 48.4796 46.1883C48.9117 45.7563 49.4976 45.5137 50.1087 45.5137H76.904C77.515 45.5137 78.101 45.7563 78.5331 46.1883C78.9652 46.6203 79.2079 47.2061 79.2079 47.817C79.2079 48.4279 78.9652 49.0138 78.5331 49.4458C78.101 49.8777 77.515 50.1204 76.904 50.1204V50.1204Z" fill="#C2E0FF"/>
<path d="M110.133 256.801H24.4066C23.6221 256.775 22.87 256.482 22.2745 255.971C21.679 255.46 21.276 254.761 21.132 253.989L10.9268 191.825C10.8527 191.479 10.8582 191.122 10.9429 190.779C11.0277 190.436 11.1895 190.117 11.416 189.846C11.6425 189.575 11.9278 189.359 12.2503 189.215C12.5727 189.07 12.9238 189.001 13.2769 189.013H99.0049C99.7892 189.039 100.541 189.332 101.136 189.843C101.732 190.354 102.134 191.053 102.278 191.825L112.485 253.989C112.559 254.335 112.553 254.693 112.468 255.035C112.384 255.378 112.222 255.698 111.995 255.969C111.768 256.24 111.483 256.456 111.16 256.6C110.838 256.744 110.486 256.813 110.133 256.801V256.801Z" fill="#91B4DE"/>
<path d="M114.478 256.801H28.7504C27.966 256.775 27.2139 256.482 26.6185 255.971C26.0231 255.459 25.6199 254.761 25.4756 253.989L15.2706 191.825C15.1964 191.479 15.2019 191.122 15.2867 190.779C15.3714 190.436 15.5332 190.117 15.7597 189.846C15.9863 189.575 16.2716 189.359 16.594 189.215C16.9165 189.07 17.2675 189.001 17.6206 189.013H103.349C104.133 189.039 104.885 189.332 105.481 189.843C106.076 190.354 106.479 191.053 106.623 191.825L116.828 253.989C116.903 254.335 116.897 254.692 116.812 255.035C116.728 255.378 116.566 255.697 116.339 255.968C116.113 256.239 115.827 256.455 115.505 256.599C115.182 256.743 114.831 256.812 114.478 256.801V256.801Z" fill="#C2E0FF"/>
<path d="M19.1922 191.8H102.289C102.814 191.812 103.319 192.004 103.72 192.342C104.121 192.68 104.395 193.145 104.496 193.66L109.241 222.558L113.122 246.206L113.771 250.149C113.817 250.38 113.81 250.62 113.75 250.848C113.691 251.076 113.58 251.288 113.426 251.467C113.272 251.647 113.079 251.788 112.863 251.882C112.646 251.976 112.411 252.019 112.175 252.008H29.0778C28.5531 251.996 28.0481 251.805 27.6468 251.467C27.2454 251.129 26.9716 250.664 26.8706 250.149L24.3424 234.747L22.3455 222.559L17.6009 193.661C17.5543 193.43 17.561 193.191 17.6204 192.963C17.6797 192.735 17.7902 192.523 17.9435 192.344C18.0968 192.164 18.2889 192.022 18.5052 191.928C18.7215 191.834 18.9565 191.79 19.1922 191.8V191.8Z" fill="white"/>
<path d="M103.393 455.801C103.792 455.801 104.177 455.657 104.479 455.397C104.78 455.136 104.979 454.777 105.038 454.383L121.247 345.923C121.28 345.707 121.269 345.487 121.216 345.275C121.163 345.063 121.069 344.864 120.939 344.688C120.809 344.512 120.646 344.364 120.458 344.252C120.271 344.139 120.063 344.065 119.847 344.032C119.631 344 119.411 344.011 119.199 344.064C118.987 344.116 118.787 344.211 118.611 344.341C118.436 344.471 118.288 344.634 118.175 344.821C118.062 345.008 117.988 345.216 117.956 345.432L101.745 453.89C101.68 454.326 101.791 454.771 102.053 455.126C102.316 455.481 102.709 455.717 103.146 455.783C103.228 455.795 103.31 455.801 103.393 455.801V455.801Z" fill="#6D72A0"/>
<path d="M259.552 455.801C259.636 455.801 259.719 455.795 259.801 455.783C260.017 455.751 260.225 455.676 260.412 455.563C260.6 455.45 260.763 455.302 260.893 455.126C261.023 454.95 261.117 454.751 261.17 454.538C261.222 454.326 261.233 454.106 261.2 453.89L244.991 345.432C244.962 345.213 244.889 345.003 244.778 344.812C244.666 344.622 244.518 344.455 244.342 344.322C244.165 344.19 243.964 344.094 243.75 344.039C243.536 343.985 243.313 343.974 243.095 344.007C242.877 344.039 242.667 344.115 242.478 344.229C242.289 344.343 242.125 344.494 241.995 344.673C241.865 344.851 241.772 345.053 241.721 345.268C241.67 345.483 241.662 345.706 241.698 345.924L257.909 454.383C257.968 454.777 258.166 455.136 258.467 455.397C258.769 455.657 259.154 455.801 259.552 455.801V455.801Z" fill="#6D72A0"/>
<path d="M186.994 455.802C187.077 455.802 187.16 455.795 187.243 455.783C187.68 455.718 188.073 455.481 188.335 455.126C188.598 454.771 188.709 454.327 188.644 453.89L172.433 345.432C172.362 345.001 172.124 344.615 171.77 344.358C171.417 344.1 170.977 343.992 170.544 344.057C170.112 344.121 169.722 344.353 169.459 344.703C169.197 345.052 169.082 345.491 169.14 345.924L185.351 454.383C185.41 454.777 185.608 455.136 185.909 455.397C186.211 455.657 186.596 455.801 186.994 455.802V455.802Z" fill="#6D72A0"/>
<path d="M249.053 341.002L264.015 216.665C264.919 208.878 259.821 202.506 252.682 202.506H182.28C175.142 202.506 168.562 208.878 167.658 216.665L153.207 341.002H249.053Z" fill="#FBE9DC"/>
<path d="M255.207 341.002L268.54 216.665C269.375 208.878 264.671 202.506 258.084 202.506H193.123C186.537 202.506 180.465 208.878 179.631 216.665L166.297 341.002H255.207Z" fill="#F9CDAF"/>
<path d="M255.44 340.151V346.311C255.44 348.504 254.568 350.608 253.016 352.159C251.465 353.71 249.361 354.581 247.167 354.581H122.445C117.391 354.581 113.304 352.95 113.336 347.898V346.26C113.355 343.342 115.722 340.158 118.635 340.158L255.44 340.151Z" fill="#F9CDAF"/>
<path d="M141.34 260.512H23.9764C23.3382 260.512 22.7263 260.259 22.275 259.808C21.8238 259.356 21.5703 258.745 21.5703 258.107C21.5703 257.469 21.8238 256.857 22.275 256.406C22.7263 255.955 23.3382 255.701 23.9764 255.701H141.34C141.978 255.701 142.59 255.955 143.041 256.406C143.492 256.857 143.746 257.469 143.746 258.107C143.746 258.745 143.492 259.356 143.041 259.808C142.59 260.259 141.978 260.512 141.34 260.512V260.512Z" fill="#C2E0FF"/>
<path d="M182.464 166.107C182.362 166.113 182.262 166.079 182.185 166.012C182.109 165.944 182.062 165.849 182.055 165.748C182.049 165.646 182.083 165.546 182.151 165.469C182.218 165.392 182.313 165.346 182.415 165.339C182.578 165.318 198.73 163.22 205.575 162.746C205.625 162.742 205.676 162.749 205.723 162.765C205.771 162.781 205.816 162.806 205.854 162.84C205.892 162.873 205.923 162.913 205.945 162.958C205.968 163.004 205.981 163.053 205.985 163.103C205.988 163.154 205.981 163.204 205.965 163.252C205.949 163.3 205.924 163.344 205.891 163.382C205.857 163.42 205.817 163.452 205.772 163.474C205.726 163.497 205.677 163.51 205.627 163.513C198.805 163.986 182.676 166.081 182.515 166.102L182.464 166.107Z" fill="#C45446"/>
</g>
<defs>
<clipPath id="clip0_5442_92115">
<rect width="400" height="458.015" fill="white" transform="translate(0 0.072998)"/>
</clipPath>
</defs>
</svg>
