<svg width="68" height="68" viewBox="0 0 68 68" fill="none" xmlns="http://www.w3.org/2000/svg">
<circle cx="4" cy="4" r="4" fill="#A4D1FF"/>
<circle cx="16" cy="4" r="4" fill="#A4D1FF"/>
<circle cx="28" cy="4" r="4" fill="#A4D1FF"/>
<circle cx="4" cy="16" r="4" fill="#A4D1FF"/>
<circle cx="16" cy="16" r="4" fill="#A4D1FF"/>
<circle cx="28" cy="16" r="4" fill="#A4D1FF"/>
<circle cx="4" cy="28" r="4" fill="#A4D1FF"/>
<circle cx="16" cy="28" r="4" fill="#A4D1FF"/>
<circle cx="28" cy="28" r="4" fill="#A4D1FF"/>
<circle cx="40" cy="4" r="4" fill="#A4D1FF"/>
<circle cx="52" cy="4" r="4" fill="#A4D1FF"/>
<circle cx="64" cy="4" r="4" fill="#A4D1FF"/>
<circle cx="40" cy="16" r="4" fill="#A4D1FF"/>
<circle cx="52" cy="16" r="4" fill="#A4D1FF"/>
<circle cx="64" cy="16" r="4" fill="#A4D1FF"/>
<circle cx="40" cy="28" r="4" fill="#A4D1FF"/>
<circle cx="52" cy="28" r="4" fill="#A4D1FF"/>
<circle cx="64" cy="28" r="4" fill="#A4D1FF"/>
<circle cx="40" cy="40" r="4" fill="#A4D1FF"/>
<circle cx="52" cy="40" r="4" fill="#A4D1FF"/>
<circle cx="64" cy="40" r="4" fill="#A4D1FF"/>
<circle cx="40" cy="52" r="4" fill="#A4D1FF"/>
<circle cx="52" cy="52" r="4" fill="#A4D1FF"/>
<circle cx="64" cy="52" r="4" fill="#A4D1FF"/>
<circle cx="40" cy="64" r="4" fill="#A4D1FF"/>
<circle cx="52" cy="64" r="4" fill="#A4D1FF"/>
<circle cx="64" cy="64" r="4" fill="#A4D1FF"/>
</svg>
