<svg width="68" height="68" viewBox="0 0 68 68" fill="none" xmlns="http://www.w3.org/2000/svg">
<circle cx="64" cy="64" r="4" transform="rotate(-180 64 64)" fill="#A4D1FF"/>
<circle cx="52" cy="64" r="4" transform="rotate(-180 52 64)" fill="#A4D1FF"/>
<circle cx="40" cy="64" r="4" transform="rotate(-180 40 64)" fill="#A4D1FF"/>
<circle cx="64" cy="52" r="4" transform="rotate(-180 64 52)" fill="#A4D1FF"/>
<circle cx="52" cy="52" r="4" transform="rotate(-180 52 52)" fill="#A4D1FF"/>
<circle cx="40" cy="52" r="4" transform="rotate(-180 40 52)" fill="#A4D1FF"/>
<circle cx="64" cy="40" r="4" transform="rotate(-180 64 40)" fill="#A4D1FF"/>
<circle cx="52" cy="40" r="4" transform="rotate(-180 52 40)" fill="#A4D1FF"/>
<circle cx="40" cy="40" r="4" transform="rotate(-180 40 40)" fill="#A4D1FF"/>
<circle cx="28" cy="64" r="4" transform="rotate(-180 28 64)" fill="#A4D1FF"/>
<circle cx="16" cy="64" r="4" transform="rotate(-180 16 64)" fill="#A4D1FF"/>
<circle cx="4" cy="64" r="4" transform="rotate(-180 4 64)" fill="#A4D1FF"/>
<circle cx="28" cy="52" r="4" transform="rotate(-180 28 52)" fill="#A4D1FF"/>
<circle cx="16" cy="52" r="4" transform="rotate(-180 16 52)" fill="#A4D1FF"/>
<circle cx="4" cy="52" r="4" transform="rotate(-180 4 52)" fill="#A4D1FF"/>
<circle cx="28" cy="40" r="4" transform="rotate(-180 28 40)" fill="#A4D1FF"/>
<circle cx="16" cy="40" r="4" transform="rotate(-180 16 40)" fill="#A4D1FF"/>
<circle cx="4" cy="40" r="4" transform="rotate(-180 4 40)" fill="#A4D1FF"/>
<circle cx="28" cy="28" r="4" transform="rotate(-180 28 28)" fill="#A4D1FF"/>
<circle cx="16" cy="28" r="4" transform="rotate(-180 16 28)" fill="#A4D1FF"/>
<circle cx="4" cy="28" r="4" transform="rotate(-180 4 28)" fill="#A4D1FF"/>
<circle cx="28" cy="16" r="4" transform="rotate(-180 28 16)" fill="#A4D1FF"/>
<circle cx="16" cy="16" r="4" transform="rotate(-180 16 16)" fill="#A4D1FF"/>
<circle cx="4" cy="16" r="4" transform="rotate(-180 4 16)" fill="#A4D1FF"/>
<circle cx="28" cy="4" r="4" transform="rotate(-180 28 4)" fill="#A4D1FF"/>
<circle cx="16" cy="4" r="4" transform="rotate(-180 16 4)" fill="#A4D1FF"/>
<circle cx="4" cy="4" r="4" transform="rotate(-180 4 4)" fill="#A4D1FF"/>
</svg>
