<svg width="190" height="190" viewBox="0 0 190 190" fill="none" xmlns="http://www.w3.org/2000/svg">
<path d="M85.8536 187.285C64.9226 187.169 44.8579 178.914 29.9057 164.266C14.9535 149.618 6.28705 129.728 5.74041 108.804C5.19376 87.8794 12.8098 67.5634 26.9768 52.155C41.1438 36.7467 60.75 27.455 81.6464 26.2463C82.0392 26.2247 82.432 26.2888 82.7976 26.4341C83.1631 26.5794 83.4927 26.8024 83.7636 27.0877C84.033 27.3712 84.238 27.7096 84.3645 28.0797C84.491 28.4498 84.536 28.8429 84.4964 29.232C84.4554 29.9552 84.4554 30.6802 84.4964 31.4034C84.8363 35.1964 85.6384 38.9336 86.885 42.532C87.5636 44.8663 88.2964 47.282 88.785 49.752C90.5764 58.4648 88.785 66.0377 83.6007 70.272C79.285 73.8277 73.8564 74.262 68.5907 74.6963C63.7593 75.0763 59.1722 75.4563 56.3222 78.3063C53.4722 81.1563 53.1736 85.0648 52.6036 89.4348C52.3665 93.2848 51.4475 97.062 49.8893 100.591C45.8179 108.408 35.3407 112.316 26.0036 109.439C20.0369 107.409 14.8923 103.494 11.3464 98.2834C11.0325 101.086 10.8694 103.904 10.8579 106.725C10.817 118.253 13.4286 129.636 18.4906 139.993C23.5526 150.351 30.9293 159.405 40.0502 166.455C49.171 173.506 59.7915 178.363 71.09 180.653C82.3886 182.942 94.0624 182.602 105.208 179.658C116.354 176.714 126.674 171.246 135.368 163.676C144.063 156.106 150.9 146.638 155.349 136.003C159.799 125.368 161.743 113.852 161.031 102.346C160.318 90.8402 156.969 79.6522 151.241 69.6477C150.881 69.0214 150.784 68.2778 150.973 67.5804C151.161 66.883 151.619 66.2891 152.245 65.9291C152.871 65.5692 153.615 65.4728 154.312 65.6611C155.01 65.8495 155.604 66.3071 155.964 66.9334C162.919 79.1936 166.537 93.0637 166.456 107.159C166.375 121.255 162.599 135.082 155.504 147.262C148.408 159.442 138.242 169.548 126.021 176.57C113.799 183.593 99.9493 187.288 85.8536 187.285ZM12.5679 90.0863C13.9893 93.3128 16.0354 96.226 18.5883 98.6578C21.1413 101.09 24.1504 102.992 27.4422 104.255C34.2279 106.345 42.0722 103.576 44.9222 98.0663C46.1944 95.1033 46.9562 91.9463 47.175 88.7291C47.8264 83.6534 48.505 78.4148 52.4136 74.4791C56.3222 70.5434 62.4836 69.7291 68.1022 69.2677C72.7436 68.9148 77.1136 68.5348 80.0993 66.092C85.2293 61.8577 83.9264 53.362 83.4379 50.8648C82.9493 48.3677 82.2979 46.3863 81.6193 44.0791C80.2726 40.1353 79.4068 36.0433 79.0407 31.892C63.2302 33.3152 48.2781 39.7152 36.3341 50.1717C24.39 60.6282 16.0692 74.6027 12.5679 90.0863Z" fill="#C2E0FF"/>
<path d="M115.602 181.07C115.157 181.068 114.719 180.956 114.327 180.744C101.204 173.805 90.0109 163.713 81.7552 151.376C78.9885 147.508 77.0819 143.094 76.1637 138.428C75.6791 135.815 75.8412 133.123 76.6361 130.588C77.4309 128.052 78.8343 125.749 80.7237 123.88C84.6052 120.406 90.1966 119.293 97.8509 120.46L100.999 120.976C104.705 121.92 108.561 122.123 112.345 121.573C116.552 120.623 120.488 117.528 124.939 111.91L127.382 108.653C130.114 104.593 133.403 100.938 137.154 97.7956C140.97 94.9984 145.428 93.2045 150.119 92.5784C154.809 91.9524 159.581 92.5144 163.998 94.2127C164.36 94.3132 164.696 94.4876 164.987 94.7249C165.278 94.9622 165.516 95.2571 165.687 95.5912C165.858 95.9252 165.958 96.291 165.98 96.6656C166.003 97.0402 165.947 97.4153 165.817 97.7674C165.687 98.1194 165.486 98.4407 165.226 98.7109C164.965 98.9812 164.652 99.1945 164.305 99.3374C163.958 99.4803 163.585 99.5498 163.21 99.5414C162.835 99.5329 162.465 99.4468 162.125 99.2884C158.563 97.9154 154.716 97.4447 150.927 97.9182C147.139 98.3918 143.526 99.795 140.411 102.003C137.062 104.845 134.129 108.143 131.698 111.801L129.174 115.167C125.944 119.428 120.759 125.101 113.539 126.757C109.026 127.502 104.408 127.317 99.968 126.214L96.928 125.726C91.0923 124.83 86.8309 125.536 84.2795 127.816C83.0828 129.089 82.2112 130.632 81.7387 132.315C81.2662 133.997 81.2066 135.768 81.5652 137.478C82.3953 141.406 84.0617 145.109 86.4509 148.336C94.1608 159.923 104.625 169.417 116.905 175.967C117.438 176.255 117.859 176.712 118.102 177.266C118.345 177.821 118.396 178.441 118.246 179.027C118.096 179.614 117.755 180.133 117.276 180.503C116.797 180.874 116.208 181.073 115.602 181.07Z" fill="#C2E0FF"/>
<path d="M49.3182 154.091C46.5847 154.234 43.8502 153.827 41.2767 152.895C38.7031 151.962 36.3428 150.523 34.3353 148.662C26.1925 140.357 25.8939 134.412 27.1153 130.911C28.0064 128.813 29.4739 127.012 31.3475 125.714C33.2212 124.417 35.4242 123.678 37.7011 123.582C40.0801 123.155 42.5306 123.391 44.7851 124.262C47.0396 125.133 49.0115 126.607 50.4853 128.522C51.7323 130.106 53.4543 131.247 55.3982 131.779C57.6088 132.37 59.6151 133.555 61.1992 135.206C62.7832 136.857 63.8842 138.911 64.3825 141.144C65.1137 143.529 64.9791 146.095 64.0025 148.391C63.0814 149.966 61.7828 151.286 60.2238 152.234C58.6649 153.182 56.8945 153.727 55.0725 153.819C53.1628 154.04 51.2402 154.131 49.3182 154.091ZM39.6825 128.984H38.2982C37.0472 129.013 35.8267 129.375 34.7627 130.034C33.6986 130.692 32.8296 131.623 32.2453 132.729C31.2411 135.607 33.4125 140.031 38.2168 144.889C42.4511 149.287 50.1053 148.879 54.2853 148.282C55.7782 148.065 58.3568 147.468 59.1439 145.921C59.5233 144.757 59.5233 143.502 59.1439 142.338C58.3839 139.081 56.6468 138.239 53.4168 136.909C50.3925 135.984 47.7649 134.073 45.9525 131.481C45.1825 130.594 44.2116 129.905 43.1208 129.471C42.03 129.036 40.851 128.869 39.6825 128.984Z" fill="#C2E0FF"/>
<path d="M142.065 72.3364C136.259 72.5824 130.472 71.5084 125.141 69.1954C119.809 66.8823 115.072 63.3903 111.285 58.9821C98.8806 43.7278 103.495 23.9407 103.712 23.0993C103.839 22.594 104.109 22.1359 104.489 21.7798C104.869 21.4236 105.344 21.1844 105.856 21.0907C106.347 20.9728 106.861 20.9941 107.341 21.1523C107.82 21.3106 108.246 21.5994 108.571 21.9864C113.131 27.415 121.301 28.7179 129.226 30.1293C137.668 31.5679 145.512 32.8436 149.909 38.9236C157.373 49.4007 156.505 67.7221 156.451 68.4821C156.424 69.0577 156.215 69.6098 155.854 70.0588C155.493 70.5077 154.999 70.8301 154.442 70.9793C150.384 71.9163 146.23 72.3718 142.065 72.3364ZM108.353 29.0979C107.309 38.5081 109.869 47.9645 115.519 55.5621C126.566 69.1336 144.915 67.1793 150.805 66.0936C150.805 61.2621 150.262 49.1021 145.213 42.045C142.255 37.8921 135.333 36.6164 128.032 35.4493C121.436 34.2821 113.999 33.0064 108.353 29.0979Z" fill="#C2E0FF"/>
<path d="M153.602 71.0332C153.359 71.0727 153.112 71.0727 152.869 71.0332C139.174 67.2393 127.351 58.5456 119.646 46.6046C119.45 46.2957 119.318 45.9502 119.259 45.589C119.199 45.2278 119.213 44.8583 119.301 44.5027C119.388 44.1472 119.546 43.8129 119.765 43.52C119.985 43.2272 120.262 42.9817 120.579 42.7985C120.896 42.6153 121.246 42.4982 121.61 42.454C121.973 42.4099 122.342 42.4397 122.693 42.5417C123.045 42.6437 123.372 42.8157 123.655 43.0475C123.939 43.2793 124.172 43.566 124.342 43.8904C131.242 54.3175 141.575 61.9999 153.548 65.6046C157.565 64.1118 176.755 56.1046 179.062 37.3761C180.473 25.7318 174.801 16.0418 171.001 11.0204C168.286 17.3446 162.858 22.3932 157.646 26.9261C153.168 30.9704 148.933 34.7704 147.305 38.7604C147.187 39.1115 146.998 39.4349 146.751 39.7104C146.503 39.986 146.202 40.208 145.865 40.3627C145.529 40.5175 145.164 40.6016 144.794 40.6101C144.423 40.6186 144.055 40.5511 143.712 40.412C143.369 40.2728 143.057 40.0648 142.798 39.8008C142.538 39.5369 142.335 39.2225 142.201 38.8771C142.067 38.5316 142.005 38.1625 142.019 37.7923C142.034 37.4221 142.124 37.0588 142.283 36.7246C144.373 31.5675 149.069 27.3604 154.036 22.9089C160.008 17.4804 166.169 12.0518 167.173 5.04892C167.243 4.54976 167.449 4.07971 167.771 3.69141C168.092 3.3031 168.515 3.01188 168.992 2.85035C169.459 2.6995 169.957 2.67789 170.435 2.78781C170.913 2.89774 171.352 3.13509 171.706 3.47464C172.385 4.07178 186.825 18.3761 184.572 38.0004C181.586 62.4289 155.665 70.5718 154.552 70.9789C154.241 71.0528 153.919 71.0712 153.602 71.0332Z" fill="#C2E0FF"/>
</svg>
