<svg xmlns="http://www.w3.org/2000/svg" xmlns:xlink="http://www.w3.org/1999/xlink" width="51" height="56" viewBox="0 0 51 56">
  <defs>
    <clipPath id="clip-path">
      <rect id="Rectangle_13668" data-name="Rectangle 13668" width="51" height="56" transform="translate(0)" fill="none"/>
    </clipPath>
  </defs>
  <g id="Group_19780" data-name="Group 19780" transform="translate(0.106 0.221)">
    <g id="Group_19781" data-name="Group 19781" transform="translate(-0.106 -0.221)">
      <g id="Group_19780-2" data-name="Group 19780" transform="translate(0)" clip-path="url(#clip-path)">
        <path id="Path_10184" data-name="Path 10184" d="M13.127,5.94C24.149,5.94,31.718.23,37.03.23S53.5,3.283,53.5,27.717,38.489,55.735,32.647,55.735c-27.356,0-39.041-49.8-19.52-49.8" transform="translate(-2.833 -0.024)" fill="#dbf1ff"/>
      </g>
    </g>
    <rect id="Rectangle_13669" data-name="Rectangle 13669" width="3.186" height="1.594" transform="translate(44.593 31.438) rotate(-45)" fill="#b5e2ff"/>
    <rect id="Rectangle_13670" data-name="Rectangle 13670" width="3.186" height="1.593" transform="matrix(0.707, -0.707, 0.707, 0.707, 38.112, 37.916)" fill="#b5e2ff"/>
    <rect id="Rectangle_13671" data-name="Rectangle 13671" width="1.594" height="3.186" transform="translate(44.591 36.497) rotate(-45)" fill="#b5e2ff"/>
    <g id="Group_19783" data-name="Group 19783" transform="translate(-0.106 -0.221)">
      <g id="Group_19782" data-name="Group 19782" transform="translate(0)" clip-path="url(#clip-path)">
        <path id="Path_10185" data-name="Path 10185" d="M157.511,67.594A1.6,1.6,0,0,1,159.1,66h3.219a3.187,3.187,0,1,0,5.513,0h3.219a1.6,1.6,0,0,1,1.594,1.594v3.219a3.187,3.187,0,1,1,0,5.514v3.219a1.6,1.6,0,0,1-1.594,1.593H159.078a1.594,1.594,0,0,1-1.594-1.6Z" transform="translate(-133.874 -55.969)" fill="#0db1e5"/>
        <path id="Path_10186" data-name="Path 10186" d="M104.026,135.179A5.179,5.179,0,1,1,98.847,130a5.179,5.179,0,0,1,5.179,5.179" transform="translate(-79.592 -110.407)" fill="#f3f3f1"/>
        <path id="Path_10187" data-name="Path 10187" d="M74.106,248.221v-5.179a6.372,6.372,0,0,0-6.374-6.374H57.374A6.372,6.372,0,0,0,51,243.042v5.179Z" transform="translate(-43.298 -201.14)" fill="#f3f3f1"/>
        <path id="Path_10188" data-name="Path 10188" d="M161.069,79.54l.027-11.946a1.579,1.579,0,0,1,1.193-1.513c.015-.025.019-.055.033-.081H159.1a1.6,1.6,0,0,0-1.593,1.594l-.027,11.946a1.592,1.592,0,0,0,1.594,1.6h3.586a1.594,1.594,0,0,1-1.594-1.6" transform="translate(-133.874 -55.969)" fill="#0493bf"/>
        <path id="Path_10189" data-name="Path 10189" d="M97.253,135.179a5.165,5.165,0,0,1,3.386-4.841,5.179,5.179,0,1,0,0,9.682,5.165,5.165,0,0,1-3.386-4.841" transform="translate(-79.592 -110.407)" fill="#d5dbe1"/>
        <path id="Path_10190" data-name="Path 10190" d="M60.96,236.668H57.374A6.372,6.372,0,0,0,51,243.042v5.179h3.585v-5.179a6.372,6.372,0,0,1,6.374-6.374" transform="translate(-43.298 -201.14)" fill="#d5dbe1"/>
        <path id="Path_10191" data-name="Path 10191" d="M164.408,75.529h-8.4v-2.39h8.4a.4.4,0,0,0,.4-.4V69.521a1.194,1.194,0,0,1,1.8-1.031,1.992,1.992,0,1,0,0-3.452,1.194,1.194,0,0,1-1.8-1.031V60.789a.4.4,0,0,0-.4-.4H162.8c.013.133.019.266.019.4a4.382,4.382,0,0,1-8.765,0c0-.133.006-.266.019-.4h-1.613a.4.4,0,0,0-.4.4v4.382h-2.39V60.789A2.792,2.792,0,0,1,152.456,58h3.219a1.2,1.2,0,0,1,1.031,1.8,1.992,1.992,0,1,0,3.452,0,1.2,1.2,0,0,1,1.031-1.8h3.219a2.792,2.792,0,0,1,2.789,2.789V62.4a4.383,4.383,0,1,1,0,8.73V72.74a2.792,2.792,0,0,1-2.789,2.788" transform="translate(-127.226 -49.164)" fill="#003e61"/>
        <path id="Path_10192" data-name="Path 10192" d="M92.042,134.748a6.374,6.374,0,1,1,6.374-6.374,6.38,6.38,0,0,1-6.374,6.374m0-10.358a3.984,3.984,0,1,0,3.984,3.984,3.988,3.988,0,0,0-3.984-3.984" transform="translate(-72.787 -103.603)" fill="#003e61"/>
        <path id="Path_10193" data-name="Path 10193" d="M68.5,241.416h-2.39v-5.179a5.185,5.185,0,0,0-5.179-5.179H50.569a5.185,5.185,0,0,0-5.179,5.179v5.179H43v-5.179a7.578,7.578,0,0,1,7.569-7.569H60.927a7.578,7.578,0,0,1,7.569,7.569Z" transform="translate(-36.494 -194.335)" fill="#003e61"/>
        <rect id="Rectangle_13672" data-name="Rectangle 13672" width="50.993" height="2.39" transform="translate(0.132 44.691)" fill="#003e61"/>
      </g>
    </g>
  </g>
</svg>
