<svg xmlns="http://www.w3.org/2000/svg" xmlns:xlink="http://www.w3.org/1999/xlink" width="10.975" height="13.758" viewBox="0 0 10.975 13.758">
  <defs>
    <clipPath id="clip-path">
      <rect id="Rectangle_13355" data-name="Rectangle 13355" width="10.975" height="13.758" fill="#399cff"/>
    </clipPath>
  </defs>
  <g id="Group_19769" data-name="Group 19769" transform="translate(0 0)">
    <g id="Group_19293" data-name="Group 19293" transform="translate(0 0)" clip-path="url(#clip-path)">
      <path id="Path_9869" data-name="Path 9869" d="M5.488,7.573A5.493,5.493,0,0,0,0,13.061a.455.455,0,0,0,.3.429,15.174,15.174,0,0,0,5.187.914,15.179,15.179,0,0,0,5.187-.915.455.455,0,0,0,.3-.429A5.494,5.494,0,0,0,5.488,7.573M.926,12.741a4.573,4.573,0,0,1,9.124,0,14.285,14.285,0,0,1-9.124,0Z" transform="translate(0 -0.646)" fill="#399cff"/>
      <path id="Path_9870" data-name="Path 9870" d="M5.722,5.987A2.973,2.973,0,1,0,2.75,3.014,2.975,2.975,0,0,0,5.722,5.987m0-5.03A2.058,2.058,0,1,1,3.665,3.014,2.059,2.059,0,0,1,5.722.957" transform="translate(-0.235 -0.003)" fill="#399cff"/>
    </g>
  </g>
</svg>
