<svg xmlns="http://www.w3.org/2000/svg" xmlns:xlink="http://www.w3.org/1999/xlink" width="15" height="17" viewBox="0 0 15 17">
  <defs>
    <clipPath id="clip-path">
      <rect id="Rectangle_13345" data-name="Rectangle 13345" width="15" height="17" transform="translate(-0.35 0.091)" fill="#2196f3"/>
    </clipPath>
  </defs>
  <g id="Group_19764" data-name="Group 19764" transform="translate(0.749 -0.181)">
    <g id="Group_19263" data-name="Group 19263" transform="translate(-0.399 0.09)" clip-path="url(#clip-path)">
      <path id="Path_9848" data-name="Path 9848" d="M12.967,1.107H10.514V.553A.553.553,0,0,0,9.96,0H4.427a.553.553,0,0,0-.553.553v.553H1.42A1.422,1.422,0,0,0,0,2.527V15.181A1.422,1.422,0,0,0,1.42,16.6H12.967a1.422,1.422,0,0,0,1.42-1.42V2.527a1.422,1.422,0,0,0-1.42-1.42m-7.987,0H9.407V2.213H4.98Zm8.3,14.074a.314.314,0,0,1-.313.313H1.42a.314.314,0,0,1-.313-.313V2.527a.314.314,0,0,1,.313-.313H3.873v.553a.553.553,0,0,0,.553.553H9.96a.553.553,0,0,0,.553-.553V2.213h2.454a.314.314,0,0,1,.313.313Z" transform="translate(0.207 0.201)" fill="#2196f3"/>
      <path id="Path_9850" data-name="Path 9850" d="M155.185,120h-3.874a.553.553,0,0,0,0,1.107h7.124a.553.553,0,0,0,0-1.107" transform="translate(-147.728 -114.265)" fill="#2196f3"/>
      <path id="Path_9852" data-name="Path 9852" d="M160.427,192h-3.873a.553.553,0,1,0,0,1.107h3.873a.553.553,0,1,0,0-1.107" transform="translate(-150.66 -182.945)" fill="#2196f3"/>
      <path id="Path_9854" data-name="Path 9854" d="M160.427,264h-3.873a.553.553,0,1,0,0,1.107h3.873a.553.553,0,1,0,0-1.107" transform="translate(-150.66 -251.625)" fill="#2196f3"/>
      <path id="Path_9872" data-name="Path 9872" d="M156.553,264a.553.553,0,1,0,0,1.107h0a.553.553,0,1,0,0-1.107" transform="translate(-152.72 -251.625)" fill="#2196f3"/>
      <path id="Path_9871" data-name="Path 9871" d="M156.553,192a.553.553,0,1,0,0,1.107h0a.553.553,0,0,0,0-1.107" transform="translate(-152.72 -182.945)" fill="#2196f3"/>
    </g>
  </g>
</svg>
