<svg xmlns="http://www.w3.org/2000/svg" width="49.619" height="49.619" viewBox="0 0 49.619 49.619"><path d="M376.814,308.415h-4.5s-.471-10.586,5.647-15.194a.1.1,0,0,1,.157.105A72.109,72.109,0,0,0,376.814,308.415Z" transform="translate(-336.224 -264.786)" fill="#ffb300"/><path d="M309.171,234.132h4.5s.471-16.122-5.64-23.15a.1.1,0,0,0-.174.084A165.546,165.546,0,0,1,309.171,234.132Z" transform="translate(-278.021 -190.503)" fill="#ffa000"/><path d="M275.244,308.415h4.5s.471-10.586-5.647-15.194a.1.1,0,0,0-.157.105A72.12,72.12,0,0,1,275.244,308.415Z" transform="translate(-247.39 -264.786)" fill="#ffb300"/><path d="M344.814,242.27h-4.5s-.471-15.516,5.641-22.279a.1.1,0,0,1,.172.086A153.4,153.4,0,0,0,344.814,242.27Z" transform="translate(-307.326 -198.641)" fill="#ffca28"/><path d="M47.123,447.342H3a3,3,0,0,1-3-3v-3.556a.388.388,0,0,1,.388-.388H49.231a.388.388,0,0,1,.388.388v4.055A2.5,2.5,0,0,1,47.123,447.342Z" transform="translate(0 -397.723)" fill="#f2ac57"/><path d="M457.836,440.4v4.443a2.5,2.5,0,0,1-2.5,2.5h3a2.5,2.5,0,0,0,2.5-2.5V440.79a.388.388,0,0,0-.388-.388Z" transform="translate(-411.212 -397.722)" fill="#e39e4b"/><path d="M78.688,49.568c1.864,1.864.4,4.87.172,5.311a.2.2,0,0,1-.084.084c-.442.23-3.448,1.693-5.312-.171a8.147,8.147,0,0,1-2.036-7.1.2.2,0,0,1,.157-.157A8.149,8.149,0,0,1,78.688,49.568Z" transform="translate(-64.382 -42.802)" fill="#ffca28"/><path d="M82.036,49.568A8.128,8.128,0,0,0,75,47.519a7.366,7.366,0,0,1,4.042,2.049c1.864,1.864.4,4.87.172,5.311a.2.2,0,0,1-.084.084,7.444,7.444,0,0,1-1.287.511c1.781.72,3.916-.319,4.282-.511a.2.2,0,0,0,.084-.084C82.438,54.437,83.9,51.432,82.036,49.568Z" transform="translate(-67.73 -42.801)" fill="#ffb300"/><path d="M99.82,74.9l-6.413-6.413a.727.727,0,0,0-1.028,1.028l6.413,6.413A.727.727,0,1,0,99.82,74.9Z" transform="translate(-83.234 -61.659)" fill="#bf6724"/><path d="M111.189,2.556,82.245,31.5a1.5,1.5,0,0,1-2.118-2.118L109.072.438a1.5,1.5,0,1,1,2.118,2.118Z" transform="translate(-71.966 0)" fill="#a35418"/><path d="M88.286,233.352c1.668,1.723,10.88,10.59,21.791,8.315a.2.2,0,0,0,0-.39c-2.669-.629-10.839-3.206-17.458-12.17a.4.4,0,0,0-.6-.044l-3.73,3.73a.4.4,0,0,0-.005.56Z" transform="translate(-79.629 -206.758)" fill="#4380a0"/></svg>