<svg xmlns="http://www.w3.org/2000/svg" width="50.051" height="45.88" viewBox="0 0 50.051 45.88"><path d="M57.1,69.137H54a2.244,2.244,0,0,0-2.242,2.241V72.65a.735.735,0,0,0,.735.735H58.6a.735.735,0,0,0,.735-.735V71.378A2.244,2.244,0,0,0,57.1,69.137Zm0,0" transform="translate(-46.698 -62.427)" fill="#bf161c"/><path d="M388.94,69.137h-3.1a2.244,2.244,0,0,0-2.242,2.241V72.65a.735.735,0,0,0,.735.735h6.11a.735.735,0,0,0,.735-.735V71.378A2.244,2.244,0,0,0,388.94,69.137Zm0,0" transform="translate(-346.102 -62.427)" fill="#bf161c"/><path d="M158.853.5H144.86a4.338,4.338,0,0,0-4.333,4.333v5.89a.735.735,0,0,0,.735.735h4.416a.735.735,0,0,0,.735-.735V6.1H157.3v4.627a.735.735,0,0,0,.735.735h4.417a.735.735,0,0,0,.735-.735V4.833A4.339,4.339,0,0,0,158.853.5Zm0,0" transform="translate(-126.79 -0.5)" fill="#494949"/><path d="M140.527,69.137V72.65a.735.735,0,0,0,.735.735h4.416a.735.735,0,0,0,.735-.735V69.137Zm0,0" transform="translate(-126.79 -62.427)" fill="#353535"/><path d="M312.109,69.137V72.65a.735.735,0,0,0,.735.735h4.417A.735.735,0,0,0,318,72.65V69.137Zm0,0" transform="translate(-281.598 -62.427)" fill="#353535"/><path d="M47.326,97.559H2.725A2.729,2.729,0,0,0,0,100.284v30.941a2.729,2.729,0,0,0,2.725,2.725h44.6a2.729,2.729,0,0,0,2.725-2.725V100.284A2.729,2.729,0,0,0,47.326,97.559Zm0,0" transform="translate(0 -88.07)" fill="#e0e0e0"/><path d="M47.326,410.08H2.725A2.728,2.728,0,0,1,0,407.355v3.382a2.729,2.729,0,0,0,2.725,2.725h44.6a2.729,2.729,0,0,0,2.725-2.725v-3.382A2.728,2.728,0,0,1,47.326,410.08Zm0,0" transform="translate(0 -367.582)" fill="#ccc"/><path d="M59.992,97.559h5.97v36.392h-5.97Zm0,0" transform="translate(-54.128 -88.07)" fill="#e93234"/><path d="M59.992,435.234h5.97v3.382h-5.97Zm0,0" transform="translate(-54.128 -392.736)" fill="#bf161c"/><path d="M397.755,133.951h-5.97V97.559h5.97Zm0,0" transform="translate(-353.485 -88.071)" fill="#e93234"/><path d="M391.785,435.234h5.97v3.382h-5.97Zm0,0" transform="translate(-353.485 -392.736)" fill="#bf161c"/><path d="M197.184,218.243h-2.293v-2.293a1.579,1.579,0,0,0-1.578-1.578H190.3a1.579,1.579,0,0,0-1.577,1.578v2.293h-2.294a1.579,1.579,0,0,0-1.577,1.578v3.012a1.579,1.579,0,0,0,1.577,1.578h2.294V226.7a1.579,1.579,0,0,0,1.577,1.578h3.012a1.579,1.579,0,0,0,1.578-1.578v-2.293h2.293a1.579,1.579,0,0,0,1.578-1.578v-3.012a1.579,1.579,0,0,0-1.578-1.578Zm0,0" transform="translate(-166.781 -193.464)" fill="#e93234"/></svg>