<svg xmlns="http://www.w3.org/2000/svg" width="48.59" height="43.382" viewBox="0 0 48.59 43.382"><rect width="4.914" height="3.279" transform="translate(5.77 4.373)" fill="#48c1e1"/><path d="M57.063,31.451a.49.49,0,0,1-.489.489H50.612a.49.49,0,0,1-.489-.489V27.928a.49.49,0,0,1,.489-.489h5.963a.49.49,0,0,1,.489.489v3.523Z" transform="translate(-45.366 -27.439)" fill="#046699"/><g transform="translate(4.757 0)" opacity="0.1"><path d="M52.162,31.451V27.928a.49.49,0,0,1,.489-.489H50.612a.49.49,0,0,0-.489.489v3.523a.49.49,0,0,0,.489.489h2.039A.49.49,0,0,1,52.162,31.451Z" transform="translate(-50.123 -27.439)"/></g><path d="M26.9,129.938a.095.095,0,0,0,.046-.134.428.428,0,0,1-.061-.21c0-.523,1.161-1.083,2.888-1.083a6.584,6.584,0,0,1,1.567.179l.023,0a.095.095,0,0,0,.092-.118,17.522,17.522,0,0,1-.515-3.7c0-.015,0-.029,0-.044q-.008-.271-.008-.543a.4.4,0,0,1,.4-.4h.857a.095.095,0,0,0,.094-.105,2.941,2.941,0,0,1-.021-.331,3.033,3.033,0,0,1,2.128-2.906.095.095,0,0,0,.057-.132,2.864,2.864,0,0,1,1.387-3.847.1.1,0,0,0,.05-.118,2.863,2.863,0,0,1,.853-3.156v-4.076a2.733,2.733,0,0,0-2.722-2.728h-6.26a2.733,2.733,0,0,0-2.722,2.728V131.07A7.092,7.092,0,0,1,26.9,129.938Z" transform="translate(-22.655 -98.986)" fill="#a2dff9"/><path d="M34.387,167.927a.095.095,0,0,0,.057-.132,2.864,2.864,0,0,1,1.387-3.847.1.1,0,0,0,.05-.118,2.863,2.863,0,0,1,.853-3.156V158.84H25.03v10.1h7.888A3.034,3.034,0,0,1,34.387,167.927Z" transform="translate(-22.655 -146.37)" fill="#046699"/><path d="M27.969,128.754V109.215a2.733,2.733,0,0,1,2.722-2.728H27.752a2.733,2.733,0,0,0-2.722,2.728v21.854a7.094,7.094,0,0,1,1.872-1.132.095.095,0,0,0,.046-.134.428.428,0,0,1-.061-.21C26.887,129.285,27.288,128.965,27.969,128.754Z" transform="translate(-22.655 -98.985)" opacity="0.1"/><path d="M238.145,136.175a2.9,2.9,0,0,1,.042.488.1.1,0,0,0,.087.094,2.866,2.866,0,0,1,2.528,2.154.1.1,0,0,0,.065.068.094.094,0,0,0,.027,0,.1.1,0,0,0,.065-.026,3,3,0,0,1,1.782-.8.1.1,0,0,0,.086-.091,5.211,5.211,0,0,1,1.524-3.524l.06-.057a6.538,6.538,0,0,0-1.835-3.617.512.512,0,0,0-.724,0l-4.166,4.175A2.869,2.869,0,0,1,238.145,136.175Z" transform="translate(-215.127 -120.914)" fill="#ef5050"/><g transform="translate(24.754 11.808)"><path d="M261.76,200.925a.1.1,0,0,0,.065.068.093.093,0,0,0,.027,0,.1.1,0,0,0,.065-.026,3.034,3.034,0,0,1,.8-.54.709.709,0,0,0-.178-.3l-.691-.693a.712.712,0,0,0-1.007,0l-.006.006A2.86,2.86,0,0,1,261.76,200.925Z" transform="translate(-260.841 -194.736)" fill="#c0272d"/><path d="M270.018,181.3h-.977a.712.712,0,0,1,0-1.424h.977a.712.712,0,1,1,0,1.424Z" transform="translate(-267.618 -177.22)" fill="#c0272d"/><path d="M267.588,153.978a.712.712,0,0,1-.5-1.215l.691-.693a.712.712,0,0,1,1.008,1.006l-.691.693A.71.71,0,0,1,267.588,153.978Z" transform="translate(-266.303 -151.862)" fill="#c0272d"/></g><path d="M298.2,154.361a.168.168,0,0,0-.095-.095,5.309,5.309,0,0,0-7.267,4.865c.1-.01.2-.015.3-.015a3.046,3.046,0,0,1,2.983,2.46,5.318,5.318,0,0,0,4.079-7.215Z" transform="translate(-263.233 -141.888)" fill="#89c947"/><path d="M308.377,182.888a.712.712,0,0,0-1.007,0l-2.462,2.468a3.049,3.049,0,0,1,1.2.808l2.265-2.27A.712.712,0,0,0,308.377,182.888Z" transform="translate(-275.972 -167.947)" fill="#d5e962"/><g transform="translate(9.51 16.085)"><path d="M355.366,201.468a2.6,2.6,0,0,1,.038.439.1.1,0,0,0,.087.094,2.561,2.561,0,0,1,1.092.355.094.094,0,0,0,.048.013.1.1,0,0,0,.072-.033c.081-.093.15-.168.219-.236a4.754,4.754,0,0,1,2.021-1.207,3.135,3.135,0,1,0-6.072-1.564A2.574,2.574,0,0,1,355.366,201.468Z" transform="translate(-328.892 -196.929)" fill="#ffc502"/><path d="M105.2,256.742a4.891,4.891,0,0,1-.6-1.817,2.859,2.859,0,0,1-2.112-1.575,3.123,3.123,0,0,0-2.26,3.392H105.2Z" transform="translate(-100.206 -247.996)" fill="#ffc502"/></g><path d="M393.082,239.166a2.561,2.561,0,0,1-.21,1.544H396.9a4.889,4.889,0,0,0,.563-4.639.156.156,0,0,0-.087-.087,4.863,4.863,0,0,0-5.247,1.085c-.1.1-.195.206-.285.314A2.579,2.579,0,0,1,393.082,239.166Z" transform="translate(-354.656 -215.879)" fill="#89c947"/><path d="M402.678,264.089h.88l1.4-1.407a.712.712,0,0,0-1.008-1.005l-1.042,1.045A2.557,2.557,0,0,1,402.678,264.089Z" transform="translate(-364.463 -239.258)" fill="#d5e962"/><path d="M134.611,167.458a2.962,2.962,0,0,0-2.628-2.3,2.967,2.967,0,0,0-5.442-1.628,2.968,2.968,0,0,0-4.576,3.372,2.963,2.963,0,0,0,.766,5.617,4.783,4.783,0,0,1,.292-2.452.06.06,0,0,1,.014-.021.062.062,0,0,1,.021-.013,4.767,4.767,0,0,1,5.145,1.064c.065.066.128.133.189.2a6.539,6.539,0,0,1-.077-1,.418.418,0,0,1,.417-.418H133.7c0-.066-.007-.132-.007-.2A3.136,3.136,0,0,1,134.611,167.458Z" transform="translate(-108.828 -149.406)" fill="#368c0e"/><g transform="translate(14.677 15.385)"><path d="M155.364,192.5h-.012a.712.712,0,0,1-.7-.724,2.264,2.264,0,0,1,2.261-2.221h.036a2.266,2.266,0,0,1,1.632.735.712.712,0,0,1-1.051.96.825.825,0,0,0-.6-.271.838.838,0,0,0-.851.822A.712.712,0,0,1,155.364,192.5Z" transform="translate(-154.652 -189.552)" fill="#89c947"/><path d="M196.77,211.441a.712.712,0,0,1-.667-.96,2.073,2.073,0,0,1,3.851-.092.712.712,0,1,1-1.31.557.641.641,0,0,0-.371-.354.652.652,0,0,0-.836.384A.712.712,0,0,1,196.77,211.441Z" transform="translate(-192.129 -207.271)" fill="#89c947"/></g><path d="M324.625,223.283H324.6c0,.007,0,.013,0,.02h.953a.513.513,0,0,1,.512.513,6.535,6.535,0,0,1-1.239,3.832h7.184a2.671,2.671,0,0,0-2.2-3.769,2.68,2.68,0,0,0-4.916-1.471,2.684,2.684,0,0,0-.407-.25,3.043,3.043,0,0,1,.146.932C324.632,223.154,324.63,223.217,324.625,223.283Z" transform="translate(-293.692 -202.817)" fill="#368c0e"/><path d="M267.221,211.3c0-.066.008-.132.008-.2a3.135,3.135,0,1,0-6.27,0c0,.067,0,.134.007.2Z" transform="translate(-236.193 -190.831)" fill="#f7931e"/><path d="M150.688,241.614a4.863,4.863,0,0,0-5.247-1.085.161.161,0,0,0-.053.035.156.156,0,0,0-.035.053,4.89,4.89,0,0,0,.288,4.208H152.1a6.55,6.55,0,0,1-1.254-3.041Q150.77,241.7,150.688,241.614Z" transform="translate(-131.247 -219.993)" fill="#89c947"/><path d="M171.934,268.2h2.011l-1.977-1.981a.712.712,0,0,0-1.008,1.005Z" transform="translate(-154.548 -243.371)" fill="#d5e962"/><path d="M216.111,246.626a6.541,6.541,0,0,0,1.316-3.939.513.513,0,0,0-.512-.513H204.832a.512.512,0,0,0-.512.513,6.541,6.541,0,0,0,1.316,3.939Z" transform="translate(-184.93 -221.795)" fill="#ef5050"/><g transform="translate(20.997 21.488)"><path d="M267.574,277.607v-.492a.712.712,0,0,0-1.424,0v.492Z" transform="translate(-261.889 -274.264)" fill="#c0272d"/><path d="M287.463,271.4h1.107a.712.712,0,0,0-.047-.953l-.691-.693a.712.712,0,0,0-1.008,1.005Z" transform="translate(-280.412 -268.057)" fill="#c0272d"/><path d="M238.488,271.4l.639-.64a.712.712,0,0,0-1.008-1.005l-.691.693a.712.712,0,0,0-.047.953Z" transform="translate(-235.705 -268.058)" fill="#c0272d"/><path d="M222.939,255.288h-.977a.712.712,0,1,1,0-1.424h.977a.712.712,0,1,1,0,1.424Z" transform="translate(-221.25 -253.865)" fill="#c0272d"/><path d="M301.9,255.288h-.977a.712.712,0,1,1,0-1.424h.977a.712.712,0,1,1,0,1.424Z" transform="translate(-292.714 -253.865)" fill="#c0272d"/></g><path d="M86.862,293.742a.1.1,0,0,0,.026,0,.095.095,0,0,0,.095-.095v-1.2a.617.617,0,0,1,1.234,0v1.2a.095.095,0,0,0,.095.095.093.093,0,0,0,.026,0,6.4,6.4,0,0,1,1.7-.215c1.728,0,2.888.56,2.888,1.083a.428.428,0,0,1-.061.21.095.095,0,0,0,.046.134A6.574,6.574,0,0,1,97,300a.1.1,0,0,0,.128.075l14.983-5.692a2.538,2.538,0,0,1,3.4,1.9l.13.7a.095.095,0,0,0,.142.064l5.037-2.974a17.65,17.65,0,0,0,.652-4.784.491.491,0,0,0-.491-.492H86.712a.491.491,0,0,0-.491.492,17.694,17.694,0,0,0,.555,4.42Z" transform="translate(-78.038 -264.003)" fill="#e6e9ed"/><path d="M86.862,293.742a.095.095,0,0,0,.121-.091v-1.2a.617.617,0,1,1,1.234,0v1.2a.095.095,0,0,0,.095.095.091.091,0,0,0,.026,0,6.177,6.177,0,0,1,1.44-.21,17.723,17.723,0,0,1-.507-4.233.491.491,0,0,1,.491-.492H86.712a.491.491,0,0,0-.491.492,17.694,17.694,0,0,0,.555,4.42Z" transform="translate(-78.038 -264.003)" opacity="0.1"/><path d="M93.964,321.994a3.3,3.3,0,0,1,.712-.283V320.36a.712.712,0,1,0-1.424,0v1.352A3.29,3.29,0,0,1,93.964,321.994Z" transform="translate(-84.402 -291.917)" fill="#89c947"/><path d="M16.833,364.725H14.261a2.534,2.534,0,0,1-2.495-2.068l-.025-.136a2.525,2.525,0,0,1,1.591-2.819l5.743-2.182a6.639,6.639,0,0,0-4.251-5.255,2.857,2.857,0,0,1-1.983.815.095.095,0,0,0-.048.168,2.091,2.091,0,0,1,.867,1.164.36.36,0,0,1-.086.284.914.914,0,0,1-.688.209h0a5.213,5.213,0,0,1-2.318-.717,5.85,5.85,0,0,1-.944-.643.095.095,0,0,0-.123,0,5.837,5.837,0,0,1-.944.643,5.213,5.213,0,0,1-2.318.717.914.914,0,0,1-.688-.209.36.36,0,0,1-.086-.284,2.092,2.092,0,0,1,.867-1.164.095.095,0,0,0-.048-.168,2.854,2.854,0,0,1-1.983-.815A6.558,6.558,0,0,0,0,358.277a6.849,6.849,0,0,0,7.118,6.544h9.869C17.094,364.821,17.012,364.783,16.833,364.725Z" transform="translate(0 -321.439)" fill="#ef5050"/><path d="M3.08,358.278a6.379,6.379,0,0,1,2.861-5.246,2.5,2.5,0,0,1-1.641-.765A6.558,6.558,0,0,0,0,358.278a6.849,6.849,0,0,0,7.118,6.544H10.2A6.849,6.849,0,0,1,3.08,358.278Z" transform="translate(0 -321.44)" opacity="0.1"/><path d="M54.443,338.717c0-.651-1.336-1.178-2.983-1.178a5.29,5.29,0,0,0-2.441.5,5.288,5.288,0,0,0-2.441-.5c-1.647,0-2.983.527-2.983,1.178,0,.534.9.985,2.134,1.129-.755.6-1.1,1.238-.793,1.586.407.46,1.806.241,3.123-.488a5.946,5.946,0,0,0,.96-.653,5.969,5.969,0,0,0,.96.653c1.317.729,2.716.948,3.123.488.308-.347-.038-.982-.793-1.586C53.543,339.7,54.443,339.251,54.443,338.717Z" transform="translate(-39.458 -308.11)" fill="#368c0e"/><path d="M407.1,341.967l-.191-1.031a.658.658,0,0,0-.766-.526l-7.377,1.355,4.71-3.149a.652.652,0,0,0,.207-.865l-.533-.944a.66.66,0,0,0-.909-.242l-6.127,3.617,1.159,6.258L404.3,347.7a.657.657,0,0,0,.767-.549l.159-1.066a.648.648,0,0,0,0-.215.657.657,0,0,0-.5-.52l-5.528-1.268,7.377-1.355A.655.655,0,0,0,407.1,341.967Z" transform="translate(-358.523 -307.145)" fill="#89c947"/><path d="M122.338,355.955a2.629,2.629,0,0,0,2.589,2.146l22.2-.009a2.625,2.625,0,0,0,2.587-3.1l-1.483-8.009a2.633,2.633,0,0,0-3.527-1.974l-20.745,7.881a2.62,2.62,0,0,0-1.651,2.925Z" transform="translate(-110.665 -314.719)" fill="#f7931e"/><g transform="translate(11.604 30.122)" opacity="0.1"><path d="M122.338,355.956a2.608,2.608,0,0,0,.166.545,2.74,2.74,0,0,1,1.418-1.219l21.665-8.23a2.746,2.746,0,0,1,2.744.46l-.1-.524a2.633,2.633,0,0,0-3.527-1.974l-20.745,7.881a2.62,2.62,0,0,0-1.651,2.925Z" transform="translate(-122.269 -344.842)"/></g><g transform="translate(16.281 32.489)"><path d="M357.381,443.875a.712.712,0,0,0-1.4.267l.586,3.063h1.449Z" transform="translate(-338.469 -436.32)" fill="#ffc502"/><path d="M316.723,452.75a.712.712,0,1,0-1.4.264l.419,2.224h1.448Z" transform="translate(-301.669 -444.351)" fill="#ffc502"/><path d="M284.366,372.818a.712.712,0,0,0,1.381-.348l-.677-2.69-1.34.509Z" transform="translate(-273.084 -369.78)" fill="#ffc502"/><path d="M237.943,446.161a.712.712,0,0,0-1.4.253l.515,2.858H238.5Z" transform="translate(-230.365 -438.382)" fill="#ffc502"/><path d="M171.959,414.771a.712.712,0,0,0,1.393-.292l-.444-2.115-1.347.512Z" transform="translate(-171.561 -408.323)" fill="#ffc502"/></g></svg>