<svg xmlns="http://www.w3.org/2000/svg" xmlns:xlink="http://www.w3.org/1999/xlink" width="45.222" height="46.701" viewBox="0 0 45.222 46.701"><defs><linearGradient id="a" x1="-0.278" y1="1.663" x2="-0.251" y2="1.724" gradientUnits="objectBoundingBox"><stop offset="0" stop-color="#34cdfa"/><stop offset="1" stop-color="#e8d9f1"/></linearGradient></defs><path d="M76.594.418a1.516,1.516,0,0,0-2.091,0c-1.255,1.394-11.57,13.939-11.57,20.352a12.546,12.546,0,1,0,25.091,0C88.024,14.358,77.709,1.812,76.594.418Z" transform="translate(-62.933 0)" fill="#ccf2fe"/><path d="M86.491,232.672c-2.091.558-2.37,2.649-5.018,2.649-3.067,0-3.067-2.788-5.994-2.788s-3.067,2.788-5.994,2.788c-2.648,0-2.927-2.091-5.018-2.649a14.386,14.386,0,0,0-1.533,5.436,4.743,4.743,0,0,0,.139,1.394h.418c3.067,0,3.067,2.788,5.994,2.788s3.067-2.788,5.994-2.788,3.067,2.788,5.994,2.788,3.067-2.788,5.994-2.788h.418c0-.418.139-.976.139-1.394A14.385,14.385,0,0,0,86.491,232.672Z" transform="translate(-62.933 -217.339)" fill="#b3ecfd"/><path d="M83.467,341.988c-3.067,0-3.067-2.788-5.994-2.788s-3.067,2.788-5.994,2.788-3.067-2.788-5.994-2.788h-.418a12.561,12.561,0,0,0,24.952,0H89.6C86.534,339.2,86.534,341.988,83.467,341.988Z" transform="translate(-64.928 -317.036)" fill="url(#a)"/><g transform="translate(31.069 8.297)"><path d="M70.639.236a.855.855,0,0,0-1.179,0c-.708.786-6.526,7.863-6.526,11.48a7.077,7.077,0,1,0,14.153,0C77.086,8.1,71.268,1.022,70.639.236Z" transform="translate(-62.933 0)" fill="#ccf2fe"/><path d="M76.221,232.612c-1.179.315-1.337,1.494-2.831,1.494-1.73,0-1.73-1.573-3.381-1.573s-1.73,1.573-3.381,1.573c-1.494,0-1.651-1.179-2.831-1.494a8.115,8.115,0,0,0-.865,3.067,2.675,2.675,0,0,0,.079.786h.236c1.73,0,1.73,1.573,3.381,1.573s1.73-1.573,3.381-1.573,1.73,1.573,3.381,1.573,1.73-1.573,3.381-1.573h.236c0-.236.079-.55.079-.786A8.114,8.114,0,0,0,76.221,232.612Z" transform="translate(-62.933 -223.962)" fill="#b3ecfd"/><path d="M75.446,340.773c-1.73,0-1.73-1.573-3.381-1.573s-1.73,1.573-3.381,1.573S66.954,339.2,65.3,339.2h-.236a7.086,7.086,0,0,0,14.075,0h-.236C77.176,339.2,77.176,340.773,75.446,340.773Z" transform="translate(-64.988 -326.698)" fill="url(#a)"/></g><g transform="translate(22.703 31.1)"><path d="M69.33.2a.71.71,0,0,0-.979,0c-.588.653-5.418,6.528-5.418,9.53a5.875,5.875,0,1,0,11.75,0C74.683,6.724,69.852.849,69.33.2Z" transform="translate(-62.933 0)" fill="#ccf2fe"/><path d="M73.965,232.6c-.979.261-1.11,1.24-2.35,1.24-1.436,0-1.436-1.306-2.807-1.306s-1.436,1.306-2.807,1.306c-1.24,0-1.371-.979-2.35-1.24a6.737,6.737,0,0,0-.718,2.546A2.222,2.222,0,0,0,63,235.8h.2c1.436,0,1.436,1.306,2.807,1.306s1.436-1.306,2.807-1.306,1.436,1.306,2.807,1.306,1.436-1.306,2.807-1.306h.2c0-.2.065-.457.065-.653A6.736,6.736,0,0,0,73.965,232.6Z" transform="translate(-62.933 -225.418)" fill="#b3ecfd"/><path d="M73.684,340.506c-1.436,0-1.436-1.306-2.807-1.306s-1.436,1.306-2.807,1.306-1.436-1.306-2.807-1.306h-.2a5.882,5.882,0,0,0,11.685,0h-.2C75.12,339.2,75.12,340.506,73.684,340.506Z" transform="translate(-65.002 -328.821)" fill="url(#a)"/></g></svg>