<svg xmlns="http://www.w3.org/2000/svg" width="38.185" height="49.217" viewBox="0 0 38.185 49.217"><path d="M86.231,304.888v-2.669a2.546,2.546,0,0,0-1.407-2.277l-7.368-3.684a2.546,2.546,0,0,1-1.407-2.277v-2.669H67.563v2.669a2.546,2.546,0,0,1-1.407,2.277l-7.368,3.684a2.546,2.546,0,0,0-1.407,2.277v3.518a.849.849,0,0,0,.849.849v5.091a.849.849,0,0,0,.849.849H78.594Z" transform="translate(-57.38 -263.309)" fill="#e6af78"/><path d="M201.973,332.207v-2.669a2.546,2.546,0,0,0-1.407-2.277l-7.368-3.684a2.541,2.541,0,0,1-1.391-2.041l-2.817,2.817a11.79,11.79,0,0,0-3.491,9.583,7.835,7.835,0,0,0,3.481,5.908h5.356Z" transform="translate(-173.122 -290.628)" fill="#d29b6e"/><path d="M108.708,4.594a2.914,2.914,0,0,0,.106-.776c0-2.109-2.28-3.818-5.091-3.818s-5.091,1.71-5.091,3.818a2.914,2.914,0,0,0,.106.776,11.022,11.022,0,0,0-6.046,9.831v.849a7.637,7.637,0,0,0,7.637,7.637h6.788a7.637,7.637,0,0,0,7.637-7.637v-.849A11.021,11.021,0,0,0,108.708,4.594Z" transform="translate(-89.297)" fill="#785546"/><path d="M98.632,16.123v-1.7a11.027,11.027,0,0,1,8.061-10.615,10.529,10.529,0,0,0-4.651-.275l-.014-.012A4.022,4.022,0,0,1,104.052.013v0c-2.96-.139-5.419,1.621-5.419,3.811a2.859,2.859,0,0,0,.118.77,11.021,11.021,0,0,0-6.058,9.837v.849a7.637,7.637,0,0,0,7.637,7.637h5.091A6.788,6.788,0,0,1,98.632,16.123Z" transform="translate(-89.298 -0.001)" fill="#553732"/><path d="M66.209,441.379v2.546h1.7a.849.849,0,0,1,.849.849v3.394H71.3v-6.788Z" transform="translate(-65.36 -398.951)" fill="#d29b6e"/><path d="M78.594,366.3l7.637-7.637v-2.669a2.546,2.546,0,0,0-1.407-2.277L79,350.8a18.451,18.451,0,0,1-7.195,6.161,18.45,18.45,0,0,1-7.195-6.161l-5.823,2.912a2.546,2.546,0,0,0-1.407,2.277v3.518a.849.849,0,0,0,.849.849h4.243v5.94Z" transform="translate(-57.38 -317.082)" fill="#00aaf0"/><path d="M163.312,293.817a10.605,10.605,0,0,0,4.037.885l.206,0a10.967,10.967,0,0,0,4.243-.851V291.31h-8.486Z" transform="translate(-153.129 -263.308)" fill="#d29b6e"/><path d="M100.146,134.961a.848.848,0,0,0-1.056.279c-.809,1.168-2.755,3.647-4.7,3.647a1.7,1.7,0,1,0,0,3.394,9.334,9.334,0,1,0,18.668-.022C113.041,136.539,106.7,137.931,100.146,134.961Z" transform="translate(-89.298 -121.915)" fill="#f0c087"/><path d="M243.609,187.924a.848.848,0,0,1-.849-.849v-.849a.849.849,0,0,1,1.7,0v.849A.848.848,0,0,1,243.609,187.924Z" transform="translate(-224.94 -167.558)" fill="#553732"/><path d="M57.381,388.488v3.518a.849.849,0,0,0,.849.849h4.243v-.994a1.7,1.7,0,0,0-.5-1.2l-3.905-3.905A2.539,2.539,0,0,0,57.381,388.488Z" transform="translate(-57.381 -349.578)" fill="#0096dc"/><path d="M99.479,142.9v-7.334a.814.814,0,0,0-.391.293c-.809,1.168-2.755,3.647-4.7,3.647a1.7,1.7,0,1,0,0,3.394,9.345,9.345,0,0,0,11.3,9.133c.206-.042.407-.1.607-.153A9.331,9.331,0,0,1,99.479,142.9Z" transform="translate(-89.297 -122.532)" fill="#e6af78"/><path d="M175.535,240.892a4.848,4.848,0,0,1-3.084-1.042.848.848,0,1,1,1.077-1.311,3.537,3.537,0,0,0,4.014,0,.848.848,0,1,1,1.077,1.311A4.848,4.848,0,0,1,175.535,240.892Z" transform="translate(-161.11 -215.435)" fill="#d29b6e"/><path d="M155.333,187.924a.848.848,0,0,1-.849-.849v-.849a.849.849,0,0,1,1.7,0v.849A.848.848,0,0,1,155.333,187.924Z" transform="translate(-145.15 -167.558)" fill="#553732"/><path d="M139.881,358.661v-2.669a2.546,2.546,0,0,0-1.407-2.277l-4.3-2.15-1.522-.761a18.451,18.451,0,0,1-7.195,6.161,18.45,18.45,0,0,1-7.195-6.161l-1.525.763.091.144.057.085a21.66,21.66,0,0,0,6.126,5.781,9.277,9.277,0,0,0,2.634,7.686,9.426,9.426,0,0,0,1.244,1.037h5.356Z" transform="translate(-111.03 -317.082)" fill="#0096dc"/><path d="M200.86,278.372h0a7.637,7.637,0,0,1,0-10.8l9.334-9.334a7.637,7.637,0,0,1,10.8,0h0a7.637,7.637,0,0,1,0,10.8l-9.334,9.334A7.637,7.637,0,0,1,200.86,278.372Z" transform="translate(-185.046 -231.392)" fill="#b4f0ff"/><circle cx="4.243" cy="4.243" r="4.243" transform="translate(26.305 28.002)" fill="#f0c087"/><path d="M216.321,273.732l1.592-1.592c-4.963-.027-9.631-3.554-12.244-5.962l8.768-8.768a7.632,7.632,0,0,1,1.836-1.356,7.618,7.618,0,0,0-6.079,2.2l-9.334,9.334a7.638,7.638,0,0,0,8.964,12.156,7.631,7.631,0,0,1-5.319-12.324C207.035,269.767,211.4,273.095,216.321,273.732Z" transform="translate(-185.046 -231.413)" fill="#91e1f5"/><path d="M333.553,293.826a4.241,4.241,0,0,1,5.293-.566,4.243,4.243,0,1,0-5.858,5.858A4.241,4.241,0,0,1,333.553,293.826Z" transform="translate(-304.732 -263.308)" fill="#e6af78"/><g transform="translate(28.5 30.196)"><circle cx="0.849" cy="0.849" r="0.849" fill="#64463c"/><circle cx="0.849" cy="0.849" r="0.849" transform="translate(2.399 2.4)" fill="#64463c"/></g><path d="M286.91,399.472a4.243,4.243,0,0,0-3.736-2.231h-1.563a3.493,3.493,0,0,0-3.524,3.061,3.4,3.4,0,0,0,3.378,3.728h1.217a.849.849,0,0,1,.728.412l1.8,3.007a1.7,1.7,0,0,0,1.455.824h3.984a.594.594,0,0,0,.523-.876Z" transform="translate(-256.858 -359.056)" fill="#e6af78"/><path d="M283.381,407.034h-1.068a2.546,2.546,0,0,1-2.546-2.546v-2.046A3.345,3.345,0,0,0,278.086,405a3.4,3.4,0,0,0,3.378,3.728h1.217a.848.848,0,0,1,.728.412l1.8,3.007a1.7,1.7,0,0,0,1.455.824h1.585l-2.661-4.657A2.546,2.546,0,0,0,283.381,407.034Z" transform="translate(-256.856 -363.758)" fill="#d29b6e"/></svg>