<svg width="80" height="80" viewBox="0 0 80 80" fill="none" xmlns="http://www.w3.org/2000/svg">
<rect width="80" height="80" rx="40" fill="#EBF5FF"/>
<path fill-rule="evenodd" clip-rule="evenodd" d="M40.9351 34.3363C40.9351 33.992 40.656 33.7129 40.3117 33.7129C39.9674 33.7129 39.6883 33.992 39.6883 34.3363V50.5826C37.2283 50.8894 35.3247 52.9879 35.3247 55.5311C35.3247 55.7422 35.3378 55.9502 35.3633 56.1545H16.6234C16.2791 56.1545 16 56.4335 16 56.7778C16 57.1221 16.2791 57.4012 16.6234 57.4012H35.6872C36.427 59.2288 38.2188 60.5181 40.3117 60.5181C42.4046 60.5181 44.1964 59.2288 44.9362 57.4012H63.3766C63.7209 57.4012 64 57.1221 64 56.7778C64 56.4335 63.7209 56.1545 63.3766 56.1545H45.2601C45.2856 55.9502 45.2987 55.7422 45.2987 55.5311C45.2987 52.9879 43.3951 50.8894 40.9351 50.5826V34.3363Z" fill="#374151"/>
<path fill-rule="evenodd" clip-rule="evenodd" d="M40.3117 51.7613L39.8426 51.8198C37.9988 52.0497 36.5714 53.6247 36.5714 55.5311C36.5714 55.6905 36.5813 55.847 36.6004 56.0002L36.6607 56.4834L36.8428 56.9334C37.3986 58.3064 38.744 59.2713 40.3117 59.2713C41.8794 59.2713 43.2247 58.3064 43.7805 56.9334L43.9627 56.4834L44.0229 56.0002C44.042 55.847 44.0519 55.6905 44.0519 55.5311C44.0519 53.6247 42.6245 52.0497 40.7808 51.8198L40.3117 51.7613ZM63.3766 56.1545C63.7209 56.1545 64 56.4335 64 56.7778C64 57.1221 63.7209 57.4012 63.3766 57.4012H44.9362C44.1964 59.2288 42.4046 60.5181 40.3117 60.5181C38.2188 60.5181 36.427 59.2288 35.6872 57.4012H16.6234C16.2791 57.4012 16 57.1221 16 56.7778C16 56.4335 16.2791 56.1545 16.6234 56.1545H35.3633C35.3378 55.9502 35.3247 55.7422 35.3247 55.5311C35.3247 55.32 35.3378 55.1119 35.3633 54.9077C35.6446 52.6519 37.4325 50.8639 39.6883 50.5826V34.3363C39.6883 33.992 39.9674 33.7129 40.3117 33.7129C40.656 33.7129 40.9351 33.992 40.9351 34.3363V50.5826C43.1909 50.8639 44.9788 52.6519 45.2601 54.9077C45.2856 55.1119 45.2987 55.32 45.2987 55.5311C45.2987 55.7422 45.2856 55.9502 45.2601 56.1545H63.3766Z" fill="#374151"/>
<path d="M24.7266 24.6035H52.3469C53.6181 24.6035 54.6486 25.634 54.6486 26.9052V43.0171C54.6486 44.2883 53.6181 45.3188 52.3469 45.3188H27.0283C25.7571 45.3188 24.7266 44.2883 24.7266 43.0171V24.6035Z" fill="#399CFF"/>
<path d="M27.0283 20H32.7825C34.0537 20 35.0842 21.0305 35.0842 22.3017V25.7542H24.7266V22.3017C24.7266 21.0305 25.7571 20 27.0283 20Z" fill="#18426B"/>
<path d="M54.6486 26.9052V30.3578H24.7266V24.6035H52.3469C53.6166 24.6073 54.6449 25.6356 54.6486 26.9052Z" fill="#286FB5"/>
</svg>
