<svg xmlns="http://www.w3.org/2000/svg" xmlns:xlink="http://www.w3.org/1999/xlink" width="15.546" height="15.546" viewBox="0 0 15.546 15.546">
  <defs>
    <clipPath id="clip-path">
      <rect id="Rectangle_13353" data-name="Rectangle 13353" width="15.546" height="15.546" fill="#2196f3"/>
    </clipPath>
  </defs>
  <g id="Group_20092" data-name="Group 20092" transform="translate(0 0)">
    <g id="Group_19289" data-name="Group 19289" transform="translate(0 0)">
      <g id="Group_19288" data-name="Group 19288" clip-path="url(#clip-path)">
        <path id="Path_9867" data-name="Path 9867" d="M7.776,0a7.75,7.75,0,1,0,7.75,7.75A7.749,7.749,0,0,0,7.776,0m.553,14.364V13.286a.553.553,0,1,0-1.106,0v1.078A6.645,6.645,0,0,1,1.16,8.3h1.08a.553.553,0,1,0,0-1.106H1.16A6.647,6.647,0,0,1,7.223,1.136V2.215a.553.553,0,0,0,1.106,0V1.136A6.644,6.644,0,0,1,14.39,7.2H13.312a.553.553,0,1,0,0,1.106H14.39a6.642,6.642,0,0,1-6.061,6.061" transform="translate(0.02 0)" fill="#2196f3"/>
      </g>
    </g>
    <g id="Group_19291" data-name="Group 19291" transform="translate(0 0)">
      <g id="Group_19290" data-name="Group 19290" clip-path="url(#clip-path)">
        <path id="Path_9868" data-name="Path 9868" d="M5.784,3.314a.554.554,0,0,0-.783,0l-1.66,1.66a.553.553,0,0,0,0,.785L5,7.418a.554.554,0,0,0,.783,0l1.66-1.66a.553.553,0,0,0,0-.785ZM5.393,6.243l-.878-.876.878-.88.878.88Z" transform="translate(2.403 2.383)" fill="#2196f3"/>
      </g>
    </g>
  </g>
</svg>
