<svg xmlns="http://www.w3.org/2000/svg" xmlns:xlink="http://www.w3.org/1999/xlink" width="60" height="55.069" viewBox="0 0 60 55.069">
  <defs>
    <clipPath id="clip-path">
      <rect id="Rectangle_13663" data-name="Rectangle 13663" width="60" height="55" transform="translate(0 0.01)" fill="none"/>
    </clipPath>
  </defs>
  <g id="Group_19776" data-name="Group 19776" transform="translate(-0.154 -0.061)">
    <g id="Group_19777" data-name="Group 19777" transform="translate(0.154 0.12)">
      <g id="Group_19776-2" data-name="Group 19776" transform="translate(0 0)" clip-path="url(#clip-path)">
        <path id="Path_10171" data-name="Path 10171" d="M54.566,48.483c0-12.029,6.231-20.29,6.231-26.087s-3.332-17.97-30-17.97S.219,20.8.219,27.179c0,29.855,54.347,42.608,54.347,21.3" transform="translate(-0.316 -3.816)" fill="#dbf1ff"/>
      </g>
    </g>
    <rect id="Rectangle_13664" data-name="Rectangle 13664" width="3.478" height="1.739" transform="translate(9.428 2.523) rotate(-45)" fill="#dbf1ff"/>
    <rect id="Rectangle_13665" data-name="Rectangle 13665" width="3.478" height="1.739" transform="translate(2.357 9.593) rotate(-45)" fill="#dbf1ff"/>
    <rect id="Rectangle_13666" data-name="Rectangle 13666" width="1.739" height="3.478" transform="translate(2.665 1.29) rotate(-44.992)" fill="#dbf1ff"/>
    <g id="Group_19779" data-name="Group 19779" transform="translate(0.154 0.12)">
      <g id="Group_19778" data-name="Group 19778" transform="translate(0 0)" clip-path="url(#clip-path)">
        <path id="Path_10172" data-name="Path 10172" d="M105.13,71.565A19.565,19.565,0,1,1,99.4,57.731a19.565,19.565,0,0,1,5.731,13.834" transform="translate(-55.372 -43.634)" fill="#f3f3f1"/>
        <path id="Path_10173" data-name="Path 10173" d="M141.071,116.2a10.87,10.87,0,1,1-10.87-10.87,10.87,10.87,0,0,1,10.87,10.87" transform="translate(-100.009 -88.271)" fill="#0db1e5"/>
        <path id="Path_10174" data-name="Path 10174" d="M169.826,151.913A3.913,3.913,0,1,1,165.913,148a3.913,3.913,0,0,1,3.913,3.913" transform="translate(-135.72 -123.982)" fill="#f3f3f1"/>
        <path id="Path_10175" data-name="Path 10175" d="M199.09,185.09l16.6,5.534L207.7,193.7l-3.074,7.993Z" transform="translate(-166.763 -155.025)" fill="#0db1e5"/>
        <path id="Path_10176" data-name="Path 10176" d="M123.245,116.2a10.867,10.867,0,0,1,8.913-10.685,10.993,10.993,0,0,0-1.956-.185,10.87,10.87,0,1,0,0,21.739,10.992,10.992,0,0,0,1.956-.185,10.867,10.867,0,0,1-8.913-10.685" transform="translate(-100.009 -88.271)" fill="#0493bf"/>
        <path id="Path_10177" data-name="Path 10177" d="M203.491,186.557l-4.4-1.467,5.534,16.6,2.1-5.45Z" transform="translate(-166.763 -155.025)" fill="#0493bf"/>
        <path id="Path_10178" data-name="Path 10178" d="M69.913,71.565A19.565,19.565,0,0,1,87.521,52.1c-.643-.064-1.3-.1-1.956-.1a19.565,19.565,0,1,0,0,39.13c.661,0,1.313-.035,1.956-.1A19.565,19.565,0,0,1,69.913,71.565" transform="translate(-55.372 -43.634)" fill="#d5dbe1"/>
        <path id="Path_10179" data-name="Path 10179" d="M165.913,151.913a3.9,3.9,0,0,1,1.956-3.37,3.913,3.913,0,1,0,0,6.741,3.9,3.9,0,0,1-1.956-3.37" transform="translate(-135.72 -123.982)" fill="#d5dbe1"/>
        <path id="Path_10180" data-name="Path 10180" d="M197.913,196.294h-.03a1.3,1.3,0,0,1-1.209-.892l-5.535-16.6a1.306,1.306,0,0,1,1.652-1.651l16.6,5.534a1.3,1.3,0,0,1,.057,2.454L202,188l-2.865,7.452a1.307,1.307,0,0,1-1.22.838m-3.474-15.843L198,191.129l1.769-4.6a1.3,1.3,0,0,1,.75-.749l4.6-1.769Z" transform="translate(-160.053 -148.323)" fill="#003e61"/>
        <path id="Path_10181" data-name="Path 10181" d="M78.869,85.738A20.869,20.869,0,1,1,99.738,64.869a19.167,19.167,0,0,1-.169,2.553l-2.585-.341a16.919,16.919,0,0,0,.145-2.212A18.261,18.261,0,1,0,78.869,83.13a16.772,16.772,0,0,0,2.211-.145l.346,2.586a19.427,19.427,0,0,1-2.556.167" transform="translate(-48.676 -36.938)" fill="#003e61"/>
        <path id="Path_10182" data-name="Path 10182" d="M122.982,121.662a12.171,12.171,0,1,1,12.678-12.682l-2.606.11a9.562,9.562,0,1,0-9.963,9.965Z" transform="translate(-93.313 -81.575)" fill="#003e61"/>
        <path id="Path_10183" data-name="Path 10183" d="M155.151,148.48A5.28,5.28,0,0,1,154,145.217a5.211,5.211,0,0,1,8.48-4.065l-1.621,2.044a2.6,2.6,0,0,0-3.663,3.663Z" transform="translate(-129.024 -117.286)" fill="#003e61"/>
      </g>
    </g>
  </g>
</svg>
