<svg xmlns="http://www.w3.org/2000/svg" width="255.772" height="284.355" viewBox="0 0 255.772 284.355">
  <g id="img_outputs" transform="translate(-616.387 -78.596)">
    <g id="Group_16888" data-name="Group 16888" transform="translate(616.387 78.596)">
      <g id="Group_16887" data-name="Group 16887">
        <rect id="Rectangle_12697" data-name="Rectangle 12697" width="187.507" height="150.675" rx="2.873" fill="#f9eddc"/>
        <rect id="Rectangle_12698" data-name="Rectangle 12698" width="177.213" height="135.848" transform="translate(7.214 6.828)" fill="#fff"/>
        <g id="Group_16885" data-name="Group 16885" transform="translate(3.808 45.067)">
          <rect id="Rectangle_12699" data-name="Rectangle 12699" width="180.62" height="3.414" fill="#f9eddc"/>
          <rect id="Rectangle_12700" data-name="Rectangle 12700" width="180.62" height="3.414" transform="translate(0 49.619)" fill="#f9eddc"/>
        </g>
        <g id="Group_16886" data-name="Group 16886" transform="translate(93.487 6.828)">
          <rect id="Rectangle_12701" data-name="Rectangle 12701" width="3.461" height="135.848" transform="translate(87.479)" fill="#f9eddc"/>
          <rect id="Rectangle_12702" data-name="Rectangle 12702" width="4.098" height="135.848" fill="#f9eddc"/>
        </g>
        <rect id="Rectangle_12703" data-name="Rectangle 12703" width="19.022" height="21.534" transform="translate(82.577 131.717) rotate(180)" fill="#4db4e8"/>
        <rect id="Rectangle_12704" data-name="Rectangle 12704" width="19.022" height="21.534" transform="translate(87.063 35.89) rotate(180)" fill="#dcf1ff"/>
        <rect id="Rectangle_12705" data-name="Rectangle 12705" width="19.022" height="21.534" transform="translate(175.593 39.24) rotate(180)" fill="#4db4e8"/>
        <rect id="Rectangle_12706" data-name="Rectangle 12706" width="19.022" height="21.534" transform="translate(159.403 123.322) rotate(180)" fill="#4db4e8"/>
        <rect id="Rectangle_12707" data-name="Rectangle 12707" width="19.022" height="21.534" transform="translate(145.525 131.935) rotate(180)" fill="#dcf1ff"/>
        <rect id="Rectangle_12708" data-name="Rectangle 12708" width="19.022" height="21.534" transform="translate(123.432 33.019) rotate(180)" fill="#dcf1ff"/>
        <rect id="Rectangle_12709" data-name="Rectangle 12709" width="19.022" height="21.534" transform="translate(170.329 78.002) rotate(180)" fill="#dcf1ff"/>
        <rect id="Rectangle_12710" data-name="Rectangle 12710" width="19.022" height="21.534" transform="translate(121.039 88.529) rotate(180)" fill="#dcf1ff"/>
        <rect id="Rectangle_12711" data-name="Rectangle 12711" width="19.022" height="21.534" transform="translate(134.917 75.609) rotate(180)" fill="#4db4e8"/>
        <rect id="Rectangle_12712" data-name="Rectangle 12712" width="19.022" height="21.534" transform="translate(35.022 39.479) rotate(180)" fill="#4db4e8"/>
        <rect id="Rectangle_12713" data-name="Rectangle 12713" width="19.022" height="21.534" transform="translate(48.66 31.942) rotate(180)" fill="#dcf1ff"/>
        <rect id="Rectangle_12714" data-name="Rectangle 12714" width="15.253" height="21.175" transform="translate(68.4 139.793) rotate(180)" fill="#dcf1ff"/>
        <rect id="Rectangle_12715" data-name="Rectangle 12715" width="16.33" height="20.996" transform="translate(40.585 132.435) rotate(180)" fill="#4db4e8"/>
        <rect id="Rectangle_12716" data-name="Rectangle 12716" width="16.33" height="20.996" transform="translate(85.089 80.035) rotate(180)" fill="#4db4e8"/>
        <rect id="Rectangle_12717" data-name="Rectangle 12717" width="16.33" height="20.996" transform="translate(63.016 90.443) rotate(180)" fill="#dcf1ff"/>
        <rect id="Rectangle_12718" data-name="Rectangle 12718" width="16.33" height="20.996" transform="translate(35.201 80.215) rotate(180)" fill="#4db4e8"/>
      </g>
    </g>
    <g id="Group_16889" data-name="Group 16889" transform="translate(672.587 203.313)">
      <path id="Path_8182" data-name="Path 8182" d="M675.693,207.912a.959.959,0,0,0,.753-.364l3.287-4.163a.958.958,0,1,0-1.5-1.187l-2.411,3.051-3.652-6.358a.958.958,0,0,0-1.662.955l4.357,7.585a.961.961,0,0,0,.76.478C675.646,207.911,675.67,207.912,675.693,207.912Z" transform="translate(-670.378 -198.41)" fill="#ff5a8b"/>
    </g>
    <g id="Group_16890" data-name="Group 16890" transform="translate(666.041 154.293)">
      <path id="Path_8183" data-name="Path 8183" d="M669.4,160.819a.958.958,0,0,0,.752-.364l3.288-4.162a.958.958,0,1,0-1.5-1.188l-2.41,3.051-3.653-6.358a.958.958,0,1,0-1.661.955l4.357,7.585a.96.96,0,0,0,.76.479Z" transform="translate(-664.089 -151.317)" fill="#ff5a8b"/>
    </g>
    <g id="Group_16891" data-name="Group 16891" transform="translate(650.289 96.102)">
      <path id="Path_8184" data-name="Path 8184" d="M654.27,104.917a.963.963,0,0,0,.753-.364l3.287-4.162a.958.958,0,1,0-1.5-1.189l-2.411,3.052-3.652-6.359a.958.958,0,0,0-1.661.955l4.356,7.586a.963.963,0,0,0,.761.478C654.223,104.916,654.247,104.917,654.27,104.917Z" transform="translate(-648.956 -95.414)" fill="#ff5a8b"/>
    </g>
    <g id="Group_16892" data-name="Group 16892" transform="translate(688.61 99.136)">
      <path id="Path_8185" data-name="Path 8185" d="M691.085,107.831a.96.96,0,0,0,.753-.364l3.287-4.162a.958.958,0,0,0-1.5-1.189l-2.411,3.052-3.652-6.358a.958.958,0,1,0-1.661.955l4.356,7.585a.958.958,0,0,0,.76.478C691.038,107.83,691.062,107.831,691.085,107.831Z" transform="translate(-685.771 -98.329)" fill="#ff5a8b"/>
    </g>
    <g id="Group_16893" data-name="Group 16893" transform="translate(725.016 95.305)">
      <path id="Path_8186" data-name="Path 8186" d="M726.06,104.149a.961.961,0,0,0,.752-.363l3.287-4.163a.958.958,0,1,0-1.5-1.188l-2.411,3.051-3.651-6.357a.958.958,0,1,0-1.661.953l4.356,7.585a.962.962,0,0,0,.761.479Z" transform="translate(-720.745 -94.648)" fill="#ff5a8b"/>
    </g>
    <g id="Group_16894" data-name="Group 16894" transform="translate(723.259 152.148)">
      <path id="Path_8187" data-name="Path 8187" d="M724.372,158.758a.96.96,0,0,0,.752-.363l3.288-4.163a.958.958,0,1,0-1.5-1.188l-2.411,3.051-3.652-6.358a.958.958,0,1,0-1.661.955l4.356,7.585a.958.958,0,0,0,.76.479Z" transform="translate(-719.057 -149.256)" fill="#ff5a8b"/>
    </g>
    <g id="Group_16895" data-name="Group 16895" transform="translate(772.598 140.971)">
      <path id="Path_8188" data-name="Path 8188" d="M771.771,148.02a.958.958,0,0,0,.752-.363l3.288-4.163a.958.958,0,1,0-1.5-1.188l-2.411,3.051L768.245,139a.958.958,0,0,0-1.661.953l4.356,7.585a.961.961,0,0,0,.76.479Z" transform="translate(-766.457 -138.519)" fill="#ff5a8b"/>
    </g>
    <g id="Group_16896" data-name="Group 16896" transform="translate(746.731 195.26)">
      <path id="Path_8189" data-name="Path 8189" d="M746.921,200.175a.958.958,0,0,0,.752-.363l3.288-4.163a.958.958,0,1,0-1.5-1.188l-2.411,3.051-3.652-6.358a.958.958,0,1,0-1.661.955l4.356,7.585a.956.956,0,0,0,.76.478C746.874,200.174,746.9,200.175,746.921,200.175Z" transform="translate(-741.607 -190.673)" fill="#ff5a8b"/>
    </g>
    <g id="Group_16912" data-name="Group 16912" transform="translate(631.296 214.9)">
      <g id="Group_16910" data-name="Group 16910">
        <path id="Path_8190" data-name="Path 8190" d="M645.25,213.157a10.275,10.275,0,0,1,15.65,0l.066.078c2.847,3.4,4.457,8.181,2.952,12.35-.772,2.141-2.325,4.083-2.341,6.359-.026,3.858,4.111,6.184,6.411,9.281a11.017,11.017,0,0,1,1.281,10.628c-1.355,3.215-4.307,6-4.063,9.477.16,2.289,1.7,4.212,3.162,5.981,2.321,2.814,4.645,5.711,5.992,9.1s1.6,7.4-.188,10.585c-1.473,2.625-4.223,4.562-4.922,7.492-.686,2.875.824,5.784,1.093,8.728.509,5.557-3.851,10.879-9.239,12.316a14.852,14.852,0,0,1-7.239.034,3.439,3.439,0,0,0-1.581,0,14.852,14.852,0,0,1-7.239-.034c-5.387-1.438-9.748-6.759-9.239-12.316.269-2.944,1.779-5.853,1.093-8.728-.7-2.929-3.449-4.866-4.922-7.492-1.784-3.182-1.535-7.194-.188-10.585s3.67-6.288,5.993-9.1c1.459-1.77,3-3.692,3.162-5.981.244-3.48-2.708-6.261-4.063-9.477a11.012,11.012,0,0,1,1.281-10.628c2.3-3.1,6.436-5.423,6.41-9.281-.016-2.277-1.568-4.218-2.341-6.359-1.505-4.169.105-8.954,2.952-12.35Z" transform="translate(-630.709 -209.541)" fill="#9ad0f4"/>
        <g id="Group_16909" data-name="Group 16909" transform="translate(9.045 4.729)">
          <g id="Group_16897" data-name="Group 16897" transform="translate(13.177)">
            <rect id="Rectangle_12719" data-name="Rectangle 12719" width="0.833" height="122.681" fill="#63a5d3"/>
          </g>
          <g id="Group_16898" data-name="Group 16898" transform="translate(13.188 9.077)">
            <rect id="Rectangle_12720" data-name="Rectangle 12720" width="11.206" height="0.834" transform="translate(0 9.207) rotate(-55.244)" fill="#63a5d3"/>
          </g>
          <g id="Group_16899" data-name="Group 16899" transform="translate(13.172 31.983)">
            <rect id="Rectangle_12721" data-name="Rectangle 12721" width="20.954" height="0.834" transform="translate(0 18.606) rotate(-62.616)" fill="#63a5d3"/>
          </g>
          <g id="Group_16900" data-name="Group 16900" transform="translate(19.139 32.357)">
            <rect id="Rectangle_12722" data-name="Rectangle 12722" width="6.379" height="0.833" transform="matrix(0.019, -1, 1, 0.019, 0, 6.378)" fill="#63a5d3"/>
          </g>
          <g id="Group_16901" data-name="Group 16901" transform="translate(0 53.995)">
            <path id="Path_8191" data-name="Path 8191" d="M652.629,281.435l.623-.554-13.23-14.926-.623.554Z" transform="translate(-639.398 -265.956)" fill="#63a5d3"/>
          </g>
          <g id="Group_16902" data-name="Group 16902" transform="translate(5.033 51.593)">
            <path id="Path_8192" data-name="Path 8192" d="M646.442,274.358l.815-.173-2.209-10.537-.815.173Z" transform="translate(-644.233 -263.648)" fill="#63a5d3"/>
          </g>
          <g id="Group_16903" data-name="Group 16903" transform="translate(13.36 68.313)">
            <path id="Path_8193" data-name="Path 8193" d="M652.915,297.46l12.091-17.271-.682-.479-12.091,17.27Z" transform="translate(-652.233 -279.711)" fill="#63a5d3"/>
          </g>
          <g id="Group_16904" data-name="Group 16904" transform="translate(22.098 61.879)">
            <path id="Path_8194" data-name="Path 8194" d="M661.441,284.639l2.392-10.929-.814-.179-2.392,10.93Z" transform="translate(-660.627 -273.53)" fill="#63a5d3"/>
          </g>
          <g id="Group_16905" data-name="Group 16905" transform="translate(0.191 73.564)">
            <rect id="Rectangle_12723" data-name="Rectangle 12723" width="0.833" height="24.213" transform="translate(0 0.446) rotate(-32.406)" fill="#63a5d3"/>
          </g>
          <g id="Group_16906" data-name="Group 16906" transform="translate(2.343 72.804)">
            <path id="Path_8195" data-name="Path 8195" d="M643.022,290.617l.815-.176-1.372-6.416-.815.176Z" transform="translate(-641.649 -284.025)" fill="#63a5d3"/>
          </g>
          <g id="Group_16907" data-name="Group 16907" transform="translate(6.049 11.859)">
            <path id="Path_8196" data-name="Path 8196" d="M652.328,235.934l.678-.485-7.118-9.972-.678.485Z" transform="translate(-645.21 -225.477)" fill="#63a5d3"/>
          </g>
          <g id="Group_16908" data-name="Group 16908" transform="translate(7.165 7.402)">
            <rect id="Rectangle_12724" data-name="Rectangle 12724" width="0.833" height="7.815" transform="matrix(0.993, -0.121, 0.121, 0.993, 0, 0.101)" fill="#63a5d3"/>
          </g>
        </g>
      </g>
      <g id="Group_16911" data-name="Group 16911" transform="translate(7.531 124.544)">
        <rect id="Rectangle_12725" data-name="Rectangle 12725" width="31.199" height="22.747" rx="3.102" transform="translate(31.199 22.747) rotate(180)" fill="#000543"/>
      </g>
    </g>
    <g id="Group_16914" data-name="Group 16914" transform="translate(766.807 242.357)">
      <g id="Group_16913" data-name="Group 16913">
        <path id="Path_8197" data-name="Path 8197" d="M762.147,253.362a4.024,4.024,0,0,1-1.2-2.854L760.893,240a4.03,4.03,0,0,1,4.026-4.054l10.518-.03a4.055,4.055,0,0,1,4.067,4.029l.055,10.505a4.034,4.034,0,0,1-3.668,4.039c-.12.01-.24.016-.358.016l-10.519.03A4.039,4.039,0,0,1,762.147,253.362Zm13.657.175a3.074,3.074,0,0,0,2.8-3.079l-.054-10.505a3.1,3.1,0,0,0-3.1-3.077l-10.529.03a3.076,3.076,0,0,0-3.07,3.092L761.9,250.5a3.1,3.1,0,0,0,3.1,3.076l10.53-.029c.091,0,.182,0,.273-.012Z" transform="translate(-760.893 -235.918)" fill="#4db4e8"/>
      </g>
    </g>
    <g id="Group_16915" data-name="Group 16915" transform="translate(767.45 274.571)">
      <path id="Path_8198" data-name="Path 8198" d="M775.831,284.5l-10.837.03a3.415,3.415,0,0,1-3.426-3.393l-.057-10.824a3.4,3.4,0,0,1,3.39-3.413l10.837-.031a3.417,3.417,0,0,1,3.426,3.394l.057,10.824a3.4,3.4,0,0,1-3.088,3.4C776.033,284.493,775.932,284.5,775.831,284.5Z" transform="translate(-761.511 -266.866)" fill="#dcf1ff"/>
    </g>
    <g id="Group_16917" data-name="Group 16917" transform="translate(767.136 305.828)">
      <g id="Group_16916" data-name="Group 16916">
        <path id="Path_8199" data-name="Path 8199" d="M761.268,311.8l-.059-11.142a3.716,3.716,0,0,1,3.7-3.735l11.162-.031a3.743,3.743,0,0,1,3.746,3.712l.058,11.142a3.739,3.739,0,0,1-3.382,3.72c-.108.009-.219.015-.327.015l-11.157.031A3.741,3.741,0,0,1,761.268,311.8Zm15.142,2.712a2.775,2.775,0,0,0,2.511-2.762l-.059-11.142a2.778,2.778,0,0,0-2.777-2.757l-11.166.03a2.758,2.758,0,0,0-2.751,2.773l.058,11.141A2.779,2.779,0,0,0,765,314.555l11.165-.03c.082,0,.162,0,.242-.011Z" transform="translate(-761.209 -296.894)" fill="#4db4e8"/>
      </g>
    </g>
    <g id="Group_16918" data-name="Group 16918" transform="translate(767.78 338.043)">
      <path id="Path_8200" data-name="Path 8200" d="M776.469,345.473l-11.475.032a3.1,3.1,0,0,1-3.105-3.077l-.06-11.461a3.077,3.077,0,0,1,3.074-3.094l11.474-.032a3.1,3.1,0,0,1,3.105,3.077l.06,11.46a3.078,3.078,0,0,1-2.8,3.082C776.652,345.469,776.56,345.473,776.469,345.473Z" transform="translate(-761.828 -327.842)" fill="#dcf1ff"/>
    </g>
    <g id="Group_16921" data-name="Group 16921" transform="translate(704.319 248.184)">
      <g id="Group_16919" data-name="Group 16919" transform="translate(18.146)">
        <path id="Path_8201" data-name="Path 8201" d="M756.953,243.245a.867.867,0,0,0-.095-1.729l-37.7.121a.867.867,0,1,0,.01,1.733l37.7-.121A.732.732,0,0,0,756.953,243.245Z" transform="translate(-718.295 -241.516)" fill="#d7e1fc"/>
      </g>
      <g id="Group_16920" data-name="Group 16920" transform="translate(0 4.383)">
        <path id="Path_8202" data-name="Path 8202" d="M757.568,247.456a.867.867,0,0,0-.095-1.729l-55.751.213a.867.867,0,0,0,.011,1.734l55.75-.214A.764.764,0,0,0,757.568,247.456Z" transform="translate(-700.862 -245.727)" fill="#d7e1fc"/>
      </g>
    </g>
    <g id="Group_16925" data-name="Group 16925" transform="translate(705.256 280.246)">
      <g id="Group_16922" data-name="Group 16922" transform="translate(0 0)">
        <path id="Path_8203" data-name="Path 8203" d="M758.18,274.047a.867.867,0,0,0-.095-1.729l-55.461.139a.856.856,0,0,0-.862.869.869.869,0,0,0,.871.864l55.462-.139A.77.77,0,0,0,758.18,274.047Z" transform="translate(-701.762 -272.318)" fill="#d7e1fc"/>
      </g>
      <g id="Group_16923" data-name="Group 16923" transform="translate(22.518 4.479)">
        <path id="Path_8204" data-name="Path 8204" d="M742.773,278.35a.867.867,0,0,0-.092-1.729l-18.422.018a.859.859,0,0,0-.864.867.87.87,0,0,0,.87.866l18.421-.018A.778.778,0,0,0,742.773,278.35Z" transform="translate(-723.395 -276.621)" fill="#d7e1fc"/>
      </g>
      <g id="Group_16924" data-name="Group 16924" transform="translate(44.358 4.383)">
        <path id="Path_8205" data-name="Path 8205" d="M756.338,278.258a.867.867,0,0,0-.1-1.729l-11.006.074a.867.867,0,1,0,.017,1.733l11.006-.074A.709.709,0,0,0,756.338,278.258Z" transform="translate(-744.376 -276.529)" fill="#d7e1fc"/>
      </g>
    </g>
    <g id="Group_16928" data-name="Group 16928" transform="translate(704.676 343.993)">
      <g id="Group_16926" data-name="Group 16926" transform="translate(0 0)">
        <path id="Path_8206" data-name="Path 8206" d="M757.623,335.287a.867.867,0,0,0-.095-1.729l-55.462.139a.867.867,0,0,0,.009,1.733l55.462-.139Z" transform="translate(-701.205 -333.558)" fill="#d7e1fc"/>
      </g>
      <g id="Group_16927" data-name="Group 16927" transform="translate(44.357 4.382)">
        <path id="Path_8207" data-name="Path 8207" d="M755.78,339.5a.867.867,0,0,0-.1-1.73l-11,.074a.867.867,0,1,0,.016,1.734L755.7,339.5C755.726,339.5,755.753,339.5,755.78,339.5Z" transform="translate(-743.818 -337.768)" fill="#d7e1fc"/>
      </g>
    </g>
    <g id="Group_16933" data-name="Group 16933" transform="translate(704.659 310.122)">
      <g id="Group_16929" data-name="Group 16929" transform="translate(0.029 4.622)">
        <path id="Path_8208" data-name="Path 8208" d="M757.634,307.188a.867.867,0,0,0-.094-1.729l-55.463.139a.867.867,0,0,0,.009,1.733l55.462-.139A.772.772,0,0,0,757.634,307.188Z" transform="translate(-701.216 -305.459)" fill="#d7e1fc"/>
      </g>
      <g id="Group_16930" data-name="Group 16930" transform="translate(22.548 9.102)">
        <path id="Path_8209" data-name="Path 8209" d="M742.227,311.492a.867.867,0,0,0-.092-1.729l-18.422.017a.867.867,0,1,0,.006,1.733l18.421-.017A.78.78,0,0,0,742.227,311.492Z" transform="translate(-722.849 -309.763)" fill="#d7e1fc"/>
      </g>
      <g id="Group_16931" data-name="Group 16931" transform="translate(44.387 9.005)">
        <path id="Path_8210" data-name="Path 8210" d="M755.792,311.4a.867.867,0,0,0-.1-1.729l-11,.073a.867.867,0,1,0,.016,1.734l11.006-.074A.7.7,0,0,0,755.792,311.4Z" transform="translate(-743.83 -309.67)" fill="#d7e1fc"/>
      </g>
      <g id="Group_16932" data-name="Group 16932" transform="translate(0 0)">
        <path id="Path_8211" data-name="Path 8211" d="M757.606,302.748a.867.867,0,0,0-.094-1.729l-55.463.141a.859.859,0,0,0-.862.869.869.869,0,0,0,.871.864l55.463-.141A.757.757,0,0,0,757.606,302.748Z" transform="translate(-701.188 -301.019)" fill="#d7e1fc"/>
      </g>
    </g>
    <g id="Group_16934" data-name="Group 16934" transform="translate(827.577 353.979)">
      <path id="Path_8212" data-name="Path 8212" d="M821.109,347.764l3.547-1.277c4.037,2.916,10.271,1.836,12.711-2.184l.061,6.759c.121.43-.371.834-1.026.842l-13.669.172C819.142,352.121,817.932,348.909,821.109,347.764Z" transform="translate(-819.274 -343.104)" fill="#000543"/>
      <path id="Path_8213" data-name="Path 8213" d="M824.445,346.534l9.165-3.3c.491-.177,2.653-.161,3.559,1.1C834.716,348.37,828.482,349.45,824.445,346.534Z" transform="translate(-819.062 -343.152)" fill="#ff9985"/>
    </g>
    <g id="Group_16945" data-name="Group 16945" transform="translate(815.275 92.59)">
      <path id="Path_8214" data-name="Path 8214" d="M851.243,152.615c-1.31-3.3-3.859-5.7-6.809-5.446a12.118,12.118,0,0,1,2.216,7.315,84.692,84.692,0,0,1-1.862,14.063c-.179.92-.384,1.833-.6,2.742a166.252,166.252,0,0,1,5.789,26.472c.208,1.583.4,3.166.555,4.75.324,3.272.521,6.54.611,9.8.468,1.174.918,2.354,1.331,3.546a55.842,55.842,0,0,1,2.554,10.493,4.317,4.317,0,0,1-2.224,4.42,20.333,20.333,0,0,1-2.492,1.142l4.278.98C858.88,207.338,860.967,177.137,851.243,152.615Z" transform="translate(-805.952 -89.784)" fill="#ff9985"/>
      <path id="Path_8215" data-name="Path 8215" d="M833.282,100.25a13.121,13.121,0,0,0,2.5-2.386c.549-.854.771-1.9,1.262-2.794s1.464-1.668,2.286-1.3c.39.172.664.567,1.052.739,1.1.484,2.169-.919,3.206-1.7a3.535,3.535,0,0,1,3.874-.33c.836.489,1.606,1.385,2.573,1.155.761-.183,1.392-1.052,2.153-.994,1.118.086,1.238,1.932,2.171,2.561.657.442,1.532.173,2.324.167a3.562,3.562,0,0,1,3.323,2.566,8.215,8.215,0,0,0,.767,2.418c.622.851,1.848,1,2.336,1.963,1.012,1.994-1.224,3.441-2.13,5.431-1.14,2.5-.081,6.05-2.094,7.764-.472.4-1.09.664-1.349,1.255s-.042,1.308-.248,1.932c-.388,1.17-1.911,1.343-2.74,2.117-.062.1-.442.608-.471.7-4.159,5.849-10.048,8.841-14.715,6.825-3.867-1.67-5.964-6.379-5.946-12.045-.049-.032-.1-.041-.146-.074a5.2,5.2,0,0,1-1.967-3.589c-.482-2.74,1.526-4.451,1.419-6.828-.043-.91-.736-1.578-.881-2.465A3.7,3.7,0,0,1,833.282,100.25Z" transform="translate(-806.483 -92.04)" fill="#000543"/>
      <g id="Group_16935" data-name="Group 16935" transform="translate(8.188 193.348)">
        <path id="Path_8216" data-name="Path 8216" d="M837.578,345.2c-1.35-14.766-3.543-37.466-7.193-67.409H815.322c1.907,15.647,10.81,47.417,14.67,67.6.559,2.924.057,4.07,3.382,4.07C836.783,349.456,837.852,348.2,837.578,345.2Z" transform="translate(-815.322 -277.786)" fill="#ff9985"/>
      </g>
      <g id="Group_16936" data-name="Group 16936" transform="translate(30.568 192.559)">
        <path id="Path_8217" data-name="Path 8217" d="M849.812,346.622c.653-14.808,1.536-37.59,1.955-67.733l-14.937-1.861c-.219,15.751,4.327,48.356,5.435,68.847.16,2.969-.491,4.043,2.8,4.453C848.45,350.749,849.68,349.635,849.812,346.622Z" transform="translate(-836.822 -277.028)" fill="#ff9985"/>
      </g>
      <g id="Group_16937" data-name="Group 16937" transform="translate(0.034 135.939)">
        <path id="Path_8218" data-name="Path 8218" d="M808.69,222.634l12.462.083h34a9.529,9.529,0,0,1,3,7.244c.08,4.443.159,8.837.239,13.28-.4,9.475-3.927,17.554-3.757,25.356.159,7.324,3.538,13.177,4.6,20.091a4.529,4.529,0,0,1-2.864,4.886,28.405,28.405,0,0,1-9.944,2.011c-11.657,0-14.211-1.328-17.081-2.527a20.333,20.333,0,0,0-2.589-.919c-3.32-.91-8.357-.518-10.954-.221a1.727,1.727,0,0,1-1.908-1.468c-2.95-21.035-6.636-42.254-6.391-63.284A9.41,9.41,0,0,1,808.69,222.634Z" transform="translate(-807.489 -222.634)" fill="#91b4de"/>
      </g>
      <g id="Group_16940" data-name="Group 16940" transform="translate(14.576 16.161)">
        <g id="Group_16938" data-name="Group 16938" transform="translate(0 4.273)">
          <path id="Path_8219" data-name="Path 8219" d="M822.939,115.273l-1.449,11.2a9.209,9.209,0,0,0,3.2,7.512,11.364,11.364,0,0,0,4.406,2.518.835.835,0,0,1,.617.728c-.031.185-.037.375-.073.56-.234,1.225-.333,10.736.077,12.532.145.633.642.483,1.219.838,2.254,1.389,1.278,2.151,3.819,1.427.2-.056,5.215.173,5.318,0s-.637-9.387-.678-9.578a15.571,15.571,0,0,1-.177-3.55c.006-.962.5-2.537.384-3.343-.132-.89-1.468-.989-2.25-1.221l-.9-.27,2.233-.658c.189-.6.364-1.046.44-1.228a10.094,10.094,0,0,0,2.1-5.286l.712-7.914a9.4,9.4,0,0,0-3.1-7.869L823.88,115.06Z" transform="translate(-821.459 -111.671)" fill="#ff9985"/>
        </g>
        <path id="Path_8220" data-name="Path 8220" d="M844.646,130.4c.142-.493.476-2.4,3.721-3.8-.687-2.957-4.175-3.536-4.891-6.389a1.779,1.779,0,0,1-.979-.418,1.6,1.6,0,0,1-.342-1.942,2.975,2.975,0,0,1,.444-.555,16.867,16.867,0,0,0-6.149-8.418c-.6-.434-3.123-1.725-3.863-1.181-1.584,1.162-1.122.472-4.257.836-2,.232-4.581-.129-5.677,1.454a8.729,8.729,0,0,0-1,6.188c.319,1.39,1.774,3.476,1.785,4.893,0,.536-.268,2.585.28,2.747.147.043.249-.075.332-.228a25.585,25.585,0,0,0,2.964,4.969,12.136,12.136,0,0,0,8.821,8.5,2.139,2.139,0,0,0,1.134-.019c1.457-.455.578-1.065,4.34-1.075,4.651-.012,2.726-3.4,3.34-5.558Z" transform="translate(-821.458 -107.566)" fill="#000543"/>
        <g id="Group_16939" data-name="Group 16939" transform="translate(1.54 14.941)">
          <path id="Path_8221" data-name="Path 8221" d="M824.5,122.354a2.261,2.261,0,0,1,1.482-.427c1.39.121,2.3,1.668,2.037,3.457a3.5,3.5,0,0,1-2.238,2.925,2.057,2.057,0,0,1-.757.093c-1.39-.121-2.3-1.669-2.037-3.456A3.836,3.836,0,0,1,824.5,122.354Z" transform="translate(-822.938 -121.92)" fill="#ff9985"/>
        </g>
      </g>
      <g id="Group_16941" data-name="Group 16941" transform="translate(0 51.122)">
        <path id="Path_8222" data-name="Path 8222" d="M852.757,210.8a37.507,37.507,0,0,0-1.9-4.758c-1.646-3.788-3.749-7.494-4.544-11.592-1.4-7.222,1.266-13.836,3.268-20.685-1.2-4.828-2.609-9.58-4.2-14.214-1.3-3.791,1.38-8.434,4.425-9.559a5.642,5.642,0,0,1,1.377-.324,11.493,11.493,0,0,0-4.2-3.869l-.073-.04c-4.465-2.391-9.624-4.853-13.9-4.584a18.45,18.45,0,0,0-6.49.951c-7.916,2.44-13.306,9.363-13.4,17.016-.234,18.191-.62,50.914-3.861,60.054a38.23,38.23,0,0,0-1.739,6.676,4.139,4.139,0,0,0,3.992,4.831q.746.017,1.621.082c1.083.082,2.309.224,3.7.456,8.7,1.455,9.884,5.257,21.535,5.257a38.19,38.19,0,0,0,13.957-2.288l-.16-.034C853.388,227.749,852.567,217.384,852.757,210.8Z" transform="translate(-807.456 -141.152)" fill="#d7e1fc"/>
      </g>
      <g id="Group_16942" data-name="Group 16942" transform="translate(37.589 59.639)">
        <path id="Path_8223" data-name="Path 8223" d="M843.9,159.217c1.594,4.634,3,9.386,4.2,14.214.267-.911.523-1.827.754-2.749a87.213,87.213,0,0,0,2.655-14.081,11.426,11.426,0,0,0-1.809-7.267,5.642,5.642,0,0,0-1.377.324C845.284,150.783,842.6,155.426,843.9,159.217Z" transform="translate(-843.566 -149.334)" fill="#d7e1fc"/>
      </g>
      <g id="Group_16943" data-name="Group 16943" transform="translate(44.701 119.016)">
        <path id="Path_8224" data-name="Path 8224" d="M856.142,230.172a104.556,104.556,0,0,0-2.515-14.7c-.347-1.184-2.4-7.927-2.8-9.09-.189,6.583.807,18.7-.425,25.131l.16.034a22.135,22.135,0,0,0,2.561-1.185C854.768,229.46,856.3,231.982,856.142,230.172Z" transform="translate(-850.399 -206.377)" fill="#ff9985"/>
      </g>
      <path id="Path_8225" data-name="Path 8225" d="M839.4,206.385c-.681-1.5-1.33-3.007-1.964-4.527a175.682,175.682,0,0,1-11.409-41.741c-.612-4.153-5.2-7.132-8.454-6.678-3.84.537-5.337,4.381-4.729,8.506,3.921,26.637,21.5,52.748,38.655,73.634l3.5-3.026A133.079,133.079,0,0,1,839.4,206.385Z" transform="translate(-807.24 -89.529)" fill="#ff9985"/>
      <g id="Group_16944" data-name="Group 16944" transform="translate(42.588 139.295)">
        <path id="Path_8226" data-name="Path 8226" d="M849.018,225.858c-1.776,3.213.368,7.251,3.109,9.692a4.9,4.9,0,0,0,3.072,1.52,3.383,3.383,0,0,0,3.095-2.765,5.488,5.488,0,0,0-1.115-4.221,8.253,8.253,0,0,0-8.764-2.994Z" transform="translate(-848.37 -225.858)" fill="#ff9985"/>
      </g>
    </g>
    <g id="Group_16946" data-name="Group 16946" transform="translate(840.75 353.979)">
      <path id="Path_8227" data-name="Path 8227" d="M833.764,347.764l3.547-1.277c4.037,2.916,10.271,1.836,12.711-2.184l.061,6.759c.121.43-.371.834-1.026.842l-13.669.172C831.8,352.121,830.587,348.909,833.764,347.764Z" transform="translate(-831.929 -343.104)" fill="#000543"/>
      <path id="Path_8228" data-name="Path 8228" d="M837.1,346.534l9.165-3.3c.491-.177,2.653-.161,3.559,1.1C847.371,348.37,841.137,349.45,837.1,346.534Z" transform="translate(-831.717 -343.152)" fill="#ff9985"/>
    </g>
  </g>
</svg>
