<svg xmlns="http://www.w3.org/2000/svg" width="260.419" height="298.27" viewBox="0 0 260.419 298.27">
  <g id="img_outcomes" transform="translate(-628.748 -384.055)">
    <g id="Group_16766" data-name="Group 16766">
      <g id="Group_16765" data-name="Group 16765">
        <rect id="Rectangle_12631" data-name="Rectangle 12631" width="164.238" height="101.296" rx="4.96" transform="translate(715.778 384.055)" fill="#fbe9dc"/>
        <rect id="Rectangle_12632" data-name="Rectangle 12632" width="141.128" height="1.15" transform="translate(727.246 417.277)" fill="#fff"/>
        <rect id="Rectangle_12633" data-name="Rectangle 12633" width="141.128" height="1.15" transform="translate(727.831 399.555)" fill="#fff"/>
        <rect id="Rectangle_12634" data-name="Rectangle 12634" width="141.128" height="1.15" transform="translate(727.246 433.988)" fill="#fff"/>
        <rect id="Rectangle_12635" data-name="Rectangle 12635" width="141.128" height="1.15" transform="translate(727.246 450.699)" fill="#fff"/>
        <rect id="Rectangle_12636" data-name="Rectangle 12636" width="141.128" height="1.15" transform="translate(727.246 467.409)" fill="#fff"/>
        <g id="Group_16755" data-name="Group 16755">
          <rect id="Rectangle_12637" data-name="Rectangle 12637" width="1.381" height="67.967" transform="translate(752.954 400.115)" fill="#fff"/>
          <rect id="Rectangle_12638" data-name="Rectangle 12638" width="1.381" height="67.967" transform="translate(782.449 400.115)" fill="#fff"/>
          <rect id="Rectangle_12639" data-name="Rectangle 12639" width="1.381" height="67.967" transform="translate(811.943 400.115)" fill="#fff"/>
          <rect id="Rectangle_12640" data-name="Rectangle 12640" width="1.381" height="67.967" transform="translate(841.437 400.115)" fill="#fff"/>
        </g>
        <g id="Group_16756" data-name="Group 16756">
          <path id="Path_7994" data-name="Path 7994" d="M744.333,395.733a2.242,2.242,0,1,1-2.243-2.24A2.241,2.241,0,0,1,744.333,395.733Z" fill="#fff"/>
          <path id="Path_7995" data-name="Path 7995" d="M772.652,395.733a2.242,2.242,0,1,1-2.243-2.24A2.241,2.241,0,0,1,772.652,395.733Z" fill="#fff"/>
          <path id="Path_7996" data-name="Path 7996" d="M800.971,395.733a2.242,2.242,0,1,1-2.243-2.24A2.241,2.241,0,0,1,800.971,395.733Z" fill="#fff"/>
          <path id="Path_7997" data-name="Path 7997" d="M829.289,395.733a2.242,2.242,0,1,1-2.242-2.24A2.241,2.241,0,0,1,829.289,395.733Z" fill="#fff"/>
          <path id="Path_7998" data-name="Path 7998" d="M857.608,395.733a2.242,2.242,0,1,1-2.242-2.24A2.241,2.241,0,0,1,857.608,395.733Z" fill="#fff"/>
        </g>
        <g id="Group_16757" data-name="Group 16757">
          <path id="Path_7999" data-name="Path 7999" d="M833.238,406.871l-16.12.112a.676.676,0,1,1-.01-1.352l16.121-.111a.676.676,0,1,1,.009,1.351Z" fill="#000543"/>
          <path id="Path_8000" data-name="Path 8000" d="M838.407,406.836l-2.246.015a.676.676,0,1,1-.01-1.352l2.246-.015a.676.676,0,1,1,.01,1.352Z" fill="#000543"/>
          <path id="Path_8001" data-name="Path 8001" d="M823.825,409.81l-6.707.046a.676.676,0,1,1-.01-1.352l6.707-.046a.676.676,0,1,1,.01,1.352Z" fill="#000543"/>
          <path id="Path_8002" data-name="Path 8002" d="M838.407,409.709l-11.629.08a.676.676,0,1,1-.01-1.352l11.629-.08a.676.676,0,1,1,.01,1.352Z" fill="#000543"/>
          <path id="Path_8003" data-name="Path 8003" d="M830.085,412.671l-12.921.089a.676.676,0,1,1-.009-1.352l12.921-.09a.677.677,0,1,1,.009,1.353Z" fill="#000543"/>
        </g>
        <g id="Group_16758" data-name="Group 16758">
          <path id="Path_8004" data-name="Path 8004" d="M746.125,440.914,730,441.025a.676.676,0,1,1-.009-1.352l16.12-.112a.677.677,0,1,1,.01,1.353Z" fill="#000543"/>
          <path id="Path_8005" data-name="Path 8005" d="M751.293,440.878l-2.246.015a.676.676,0,1,1-.009-1.352l2.246-.016a.677.677,0,1,1,.009,1.353Z" fill="#000543"/>
          <path id="Path_8006" data-name="Path 8006" d="M736.711,443.852,730,443.9a.676.676,0,1,1-.009-1.352l6.707-.046a.676.676,0,1,1,.009,1.352Z" fill="#000543"/>
        </g>
        <g id="Group_16759" data-name="Group 16759">
          <path id="Path_8007" data-name="Path 8007" d="M737.7,413.87a.9.9,0,0,1-.705-.341l-3.085-3.9a.9.9,0,1,1,1.411-1.115l2.261,2.863,3.426-5.965a.9.9,0,1,1,1.559.9l-4.087,7.116a.9.9,0,0,1-.713.449Z" fill="#ff5a8b"/>
        </g>
        <g id="Group_16760" data-name="Group 16760">
          <path id="Path_8008" data-name="Path 8008" d="M798.22,447.128a.9.9,0,0,1-.7-.342l-3.085-3.9a.9.9,0,0,1,1.411-1.114l2.261,2.862,3.427-5.965a.9.9,0,1,1,1.558.9L799,446.676a.9.9,0,0,1-.714.449C798.264,447.127,798.242,447.128,798.22,447.128Z" fill="#ff5a8b"/>
        </g>
        <g id="Group_16761" data-name="Group 16761">
          <path id="Path_8009" data-name="Path 8009" d="M855.147,464.056a.9.9,0,0,1-.7-.342l-3.085-3.9a.9.9,0,1,1,1.41-1.115l2.262,2.863,3.426-5.966a.9.9,0,0,1,1.559.9l-4.087,7.117a.9.9,0,0,1-.714.448Z" fill="#ff5a8b"/>
        </g>
        <g id="Group_16762" data-name="Group 16762">
          <path id="Path_8010" data-name="Path 8010" d="M796.722,413.721a.9.9,0,0,1-.7-.342l-3.085-3.9a.9.9,0,0,1,1.411-1.114l2.261,2.862,3.426-5.965a.9.9,0,1,1,1.559.9l-4.087,7.117a.9.9,0,0,1-.713.449Z" fill="#ff5a8b"/>
        </g>
        <g id="Group_16763" data-name="Group 16763">
          <path id="Path_8011" data-name="Path 8011" d="M826.684,430.8a.9.9,0,0,1-.705-.342l-3.085-3.9a.9.9,0,0,1,1.41-1.114l2.262,2.863,3.426-5.966a.9.9,0,0,1,1.559.9l-4.088,7.117a.9.9,0,0,1-.713.449C826.728,430.8,826.706,430.8,826.684,430.8Z" fill="#ff5a8b"/>
        </g>
        <g id="Group_16764" data-name="Group 16764">
          <path id="Path_8012" data-name="Path 8012" d="M739.271,464.505a.9.9,0,0,1-.705-.341l-3.085-3.9a.9.9,0,1,1,1.411-1.115l2.261,2.863,3.426-5.965a.9.9,0,1,1,1.559.9l-4.087,7.117a.9.9,0,0,1-.713.449Z" fill="#ff5a8b"/>
        </g>
      </g>
    </g>
    <g id="Group_16769" data-name="Group 16769">
      <path id="Path_8013" data-name="Path 8013" d="M783.856,485.561c.155-1.431,1.09-6.636,1.721-7.861l-1.065.636a7.863,7.863,0,0,1,1.032-6.159,5.361,5.361,0,0,0-4.9,1.2,5.534,5.534,0,0,1,.795-2.851,5.713,5.713,0,0,0-5.476-.622,6.517,6.517,0,0,1,.941-3.883c-1.967-.155-4.182-.2-5.785,1.69a4.019,4.019,0,0,1,.094-2.054,5.206,5.206,0,0,0-3.453,1.951,10.419,10.419,0,0,0-.2-1.812,9.521,9.521,0,0,0-5.689,3.231c-.04-.514-.613-.339-.945-.034a15.106,15.106,0,0,0-4.413,6.465c-.391,1.221-.557,2.745.049,3.621a2.1,2.1,0,0,0,1.736.775c3.471.232,7.021-1.085,10.531-1.374a5.591,5.591,0,0,1,2.474.223,9.332,9.332,0,0,1,2.307,1.573,18.623,18.623,0,0,0,7.559,3.69.641.641,0,0,0,.8-.277Z" fill="#000543"/>
      <g id="Group_16767" data-name="Group 16767">
        <path id="Path_8014" data-name="Path 8014" d="M772.738,501.783c-.292.078-.9.623-1.419.8a2,2,0,0,1-1.134.026,2.6,2.6,0,0,1-.37-.12,12.117,12.117,0,0,1-8.357-8.757c-.058-.083-.108-.166-.165-.249a4.27,4.27,0,0,0,1.25-2.49c.28-1.89-.616-3.514-2-3.628a2.2,2.2,0,0,0-1.484.466,3.537,3.537,0,0,0-.839.93c-.284-.084-.342-.973-.349-1.205-.018-.564.086-1.126.087-1.691a7.932,7.932,0,0,0-.855-2.814l-1.138,8.709a9.811,9.811,0,0,0,3.127,7.9,11.1,11.1,0,0,0,3.347,2.23c.577,1.222-1.962,5.992-1.6,7.293.353,1.27,4.042-.432,5.231,1.091.419.537.77-.578,1.446-.5a20.247,20.247,0,0,0,4.776-.338l1.781-8.031A3.257,3.257,0,0,0,772.738,501.783Z" fill="#ff9985"/>
        <path id="Path_8015" data-name="Path 8015" d="M779.043,495.506A11.624,11.624,0,0,1,781.18,492a11.8,11.8,0,0,0,2.414-6.434,8.794,8.794,0,0,0-.024-1.038A7.712,7.712,0,0,0,781.608,480a5.844,5.844,0,0,0-.61-.563,4.861,4.861,0,0,0-.952-2.8,7.1,7.1,0,0,0-1.489-1.561,30.2,30.2,0,0,0-4.973-2.652,23.515,23.515,0,0,0-3.19-1.493c-.058-.019-.11-.052-.168-.069a4.5,4.5,0,0,0-3.593.249,17.5,17.5,0,0,1-1.561,1.086,7.18,7.18,0,0,1-2.12.385c-2,.264-4.571-.091-5.68,1.59a9.748,9.748,0,0,0-1.055,6.54,13.569,13.569,0,0,0,.884,2.332,7.932,7.932,0,0,1,.855,2.814c0,.565-.1,1.127-.087,1.691.007.232.065,1.121.342,1.2a3.7,3.7,0,0,1,.846-.929,2.2,2.2,0,0,1,1.484-.466c1.386.114,2.282,1.738,2,3.628a4.27,4.27,0,0,1-1.25,2.49c.057.083.107.167.165.249a12.117,12.117,0,0,0,8.357,8.757,2.546,2.546,0,0,0,.336.112,2.042,2.042,0,0,0,1.168-.018,11.806,11.806,0,0,0,1.419-.8,6.686,6.686,0,0,1,2.922-.38,3.515,3.515,0,0,0,2.69-.919c1.012-1.182.326-2.989.559-4.526a3.662,3.662,0,0,1,.134-.452Z" fill="#000543"/>
      </g>
      <path id="Path_8016" data-name="Path 8016" d="M779.96,507.314c-4-.056-11.93-.371-18.724.649-1.931.026-4.939.073-8.55.141l-11.648,20.843c-.173.938-4.929,10.394-5.358,11.243-9.168,18.5-3.257,23.39-15.283,43.29-.844,1.4,3.01,5.38,3.637,6.371,6.393,10.129,22.83,12.823,38.3,8.95,5.657-1.352,7.263-5.768,9.047-10.388a62.18,62.18,0,0,0,3.455-14.19c4.289-36.3,8.9-34.572,14.238-52.268C790.351,517.72,785.712,507.395,779.96,507.314Z" fill="#4db4e8"/>
      <g id="Group_16768" data-name="Group 16768">
        <path id="Path_8017" data-name="Path 8017" d="M759.457,483.666c3.247.018,4.976.6,5.854,1.081.723.4,1.091.839,1.1,1.312.01.876-1.046,2.38-3.427,3.762-1.236.716-4.056.724-6.753,1.078-8.547,1.12-20.3,2.459-31.757,5.064-1.121.255-.277,1.176.715,1.758a87.055,87.055,0,0,0,8.821,4.3c1.384.646,4.955,2.12,13.5,6.421-4.426,1.746-7.517,6.059-9.3,10.768-4.68-2.712-9.107-5.374-11.688-6.962-6.978-4.294-12.453-8.6-14.1-11.091-1.868-2.978-3.209-6.86-2.452-10.309C712.381,486.578,733.155,483.522,759.457,483.666Z" fill="#ff9985"/>
      </g>
      <path id="Path_8018" data-name="Path 8018" d="M817.415,494.242C816.3,490.161,802.25,486.01,785,483.284l-.891,6.525c2.217.84,4.943,1.686,7.788,2.569,8.012,2.487,9.752,3.188,13.118,4.73.8.367-.561,1.346-1.38,1.822a71.839,71.839,0,0,1-6.551,3.208c-1.083.523-3.981,1.6-10.936,4.983,3.062,2.182,4.781,6.771,5.474,11.618,3.857-2.209,7.519-4.394,9.658-5.7,5.785-3.542,12.255-9.05,13.824-11.355C816.9,498.92,817.511,497.737,817.415,494.242Z" fill="#ff9985"/>
      <path id="Path_8019" data-name="Path 8019" d="M804.254,505.751l.431,1.977c.361,1.66-.555,6.29-2.015,7.158-3.545,2.1-12.311,6.682-16.046,8.566-1.107.558,2.524-4.29.787-3.745l-21.166-6.391c5.261-2.964,20.931-10.044,29.377-13.685a3.921,3.921,0,0,1,1.822-.147A7.9,7.9,0,0,1,804.254,505.751Z" fill="#4db4e8"/>
      <path id="Path_8020" data-name="Path 8020" d="M725.828,505.573l-.43,1.977c-.361,1.659.555,6.29,2.015,7.157,3.544,2.105,14.9,8,18.635,9.884,1.108.559,17.79-11.454,17.79-11.454-5.262-2.964-20.931-10.044-29.377-13.685a3.921,3.921,0,0,0-1.822-.147A7.906,7.906,0,0,0,725.828,505.573Z" fill="#4db4e8"/>
    </g>
    <g id="Group_16785" data-name="Group 16785">
      <g id="Group_16783" data-name="Group 16783">
        <path id="Path_8021" data-name="Path 8021" d="M872.9,521.54a11.5,11.5,0,0,0-17.514,0l-.073.087c-3.187,3.8-4.989,9.155-3.3,13.821.865,2.4,2.6,4.568,2.62,7.116.029,4.317-4.6,6.92-7.174,10.386a12.324,12.324,0,0,0-1.434,11.894c1.515,3.6,4.82,6.71,4.546,10.6-.179,2.562-1.905,4.713-3.539,6.693-2.6,3.149-5.2,6.392-6.705,10.186s-1.787,8.286.211,11.847c1.648,2.938,4.726,5.105,5.507,8.383.767,3.218-.922,6.473-1.223,9.768-.57,6.219,4.311,12.175,10.34,13.783a16.608,16.608,0,0,0,8.1.038,3.864,3.864,0,0,1,1.77,0,16.608,16.608,0,0,0,8.1-.038c6.03-1.608,10.91-7.564,10.341-13.783-.3-3.295-1.991-6.55-1.224-9.768.782-3.278,3.859-5.445,5.507-8.383,2-3.561,1.719-8.051.212-11.847s-4.108-7.037-6.706-10.186c-1.634-1.98-3.359-4.131-3.539-6.693-.273-3.895,3.031-7.007,4.547-10.6a12.329,12.329,0,0,0-1.434-11.894c-2.574-3.466-7.2-6.069-7.174-10.386.017-2.548,1.755-4.72,2.62-7.116,1.684-4.666-.118-10.021-3.3-13.821Z" fill="#9ad0f4"/>
        <g id="Group_16782" data-name="Group 16782">
          <g id="Group_16770" data-name="Group 16770">
            <rect id="Rectangle_12641" data-name="Rectangle 12641" width="0.932" height="137.292" transform="translate(863.366 522.785)" fill="#63a5d3"/>
          </g>
          <g id="Group_16771" data-name="Group 16771">
            <rect id="Rectangle_12642" data-name="Rectangle 12642" width="0.933" height="12.541" transform="matrix(0.822, -0.57, 0.57, 0.822, 856.371, 533.474)" fill="#63a5d3"/>
          </g>
          <g id="Group_16772" data-name="Group 16772">
            <rect id="Rectangle_12643" data-name="Rectangle 12643" width="0.933" height="23.449" transform="translate(852.69 559.006) rotate(-27.384)" fill="#63a5d3"/>
          </g>
          <g id="Group_16773" data-name="Group 16773">
            <rect id="Rectangle_12644" data-name="Rectangle 12644" width="0.932" height="7.139" transform="translate(856.56 559.014) rotate(-1.083)" fill="#63a5d3"/>
          </g>
          <g id="Group_16774" data-name="Group 16774">
            <path id="Path_8022" data-name="Path 8022" d="M864.239,600.533l-.7-.62,14.806-16.7.7.62Z" fill="#63a5d3"/>
          </g>
          <g id="Group_16775" data-name="Group 16775">
            <path id="Path_8023" data-name="Path 8023" d="M870.942,592.508l-.912-.193,2.472-11.792.912.193Z" fill="#63a5d3"/>
          </g>
          <g id="Group_16776" data-name="Group 16776">
            <path id="Path_8024" data-name="Path 8024" d="M863.332,619.1,849.8,599.77l.763-.536,13.532,19.327Z" fill="#63a5d3"/>
          </g>
          <g id="Group_16777" data-name="Group 16777">
            <path id="Path_8025" data-name="Path 8025" d="M853.405,604.466l-2.677-12.231.91-.2,2.677,12.231Z" fill="#63a5d3"/>
          </g>
          <g id="Group_16778" data-name="Group 16778">
            <rect id="Rectangle_12645" data-name="Rectangle 12645" width="27.096" height="0.932" transform="matrix(0.536, -0.844, 0.844, 0.536, 863.523, 627.987)" fill="#63a5d3"/>
          </g>
          <g id="Group_16779" data-name="Group 16779">
            <path id="Path_8026" data-name="Path 8026" d="M874.888,611.637l-.912-.2,1.536-7.18.912.2Z" fill="#63a5d3"/>
          </g>
          <g id="Group_16780" data-name="Group 16780">
            <path id="Path_8027" data-name="Path 8027" d="M864.309,547.759l-.759-.543,7.966-11.16.759.543Z" fill="#63a5d3"/>
          </g>
          <g id="Group_16781" data-name="Group 16781">
            <rect id="Rectangle_12646" data-name="Rectangle 12646" width="8.746" height="0.932" transform="matrix(0.121, -0.993, 0.993, 0.121, 869.041, 539.75)" fill="#63a5d3"/>
          </g>
        </g>
      </g>
      <g id="Group_16784" data-name="Group 16784">
        <rect id="Rectangle_12647" data-name="Rectangle 12647" width="34.915" height="25.456" rx="3.102" transform="translate(845.825 656.87)" fill="#d7e1fc"/>
      </g>
    </g>
    <g id="Group_16791" data-name="Group 16791">
      <g id="Group_16786" data-name="Group 16786">
        <path id="Path_8028" data-name="Path 8028" d="M766.295,494.414a.945.945,0,0,0,.124-1.22l-2.37-3.533a.723.723,0,0,0-1.078-.2.947.947,0,0,0-.124,1.22l2.37,3.533A.723.723,0,0,0,766.295,494.414Z" fill="#ff9985"/>
      </g>
      <path id="Path_8029" data-name="Path 8029" d="M767.58,484.279a3.522,3.522,0,0,1,1.334,1.33,2.428,2.428,0,0,1,.136,1.248,11.122,11.122,0,0,1-.722,3.084,2.74,2.74,0,0,1-2.209,1.988,4.2,4.2,0,0,1-3.153-1.211c-1.578-1.468-2.13-2.008-2.62-3.817-.613-2.266.153-3.908,3.046-3.547C764.881,483.539,766.363,483.481,767.58,484.279Z" fill="#ff9985"/>
      <g id="Group_16787" data-name="Group 16787">
        <path id="Path_8030" data-name="Path 8030" d="M766.2,490.456l5.646.611a.769.769,0,0,1,.628.857.727.727,0,0,1-.762.7l-5.646-.611a.769.769,0,0,1-.628-.857A.727.727,0,0,1,766.2,490.456Z" fill="#ff9985"/>
      </g>
      <g id="Group_16788" data-name="Group 16788">
        <path id="Path_8031" data-name="Path 8031" d="M766.941,488.4l5.646.612a.767.767,0,0,1,.628.856.727.727,0,0,1-.762.705l-5.646-.611a.768.768,0,0,1-.628-.856A.727.727,0,0,1,766.941,488.4Z" fill="#ff9985"/>
      </g>
      <g id="Group_16789" data-name="Group 16789">
        <path id="Path_8032" data-name="Path 8032" d="M766.358,485.967l5.645.612a.768.768,0,0,1,.629.856.729.729,0,0,1-.762.706l-5.646-.612a.768.768,0,0,1-.629-.856A.728.728,0,0,1,766.358,485.967Z" fill="#ff9985"/>
      </g>
      <g id="Group_16790" data-name="Group 16790">
        <path id="Path_8033" data-name="Path 8033" d="M765.1,483.993l5.645.612a.767.767,0,0,1,.629.856.727.727,0,0,1-.763.7l-5.645-.611a.768.768,0,0,1-.629-.856A.728.728,0,0,1,765.1,483.993Z" fill="#ff9985"/>
      </g>
    </g>
    <g id="Group_16797" data-name="Group 16797">
      <g id="Group_16792" data-name="Group 16792">
        <path id="Path_8034" data-name="Path 8034" d="M780.552,494.268a.946.946,0,0,1-.124-1.22l2.37-3.533a.723.723,0,0,1,1.078-.2.946.946,0,0,1,.124,1.22l-2.37,3.533A.723.723,0,0,1,780.552,494.268Z" fill="#ff9985"/>
      </g>
      <path id="Path_8035" data-name="Path 8035" d="M779.267,484.133a3.522,3.522,0,0,0-1.334,1.33,2.43,2.43,0,0,0-.136,1.248,11.142,11.142,0,0,0,.722,3.084,2.74,2.74,0,0,0,2.209,1.988,4.2,4.2,0,0,0,3.153-1.211c1.578-1.468,2.13-2.008,2.62-3.817.613-2.266-.153-3.908-3.046-3.547C781.966,483.394,780.485,483.336,779.267,484.133Z" fill="#ff9985"/>
      <g id="Group_16793" data-name="Group 16793">
        <path id="Path_8036" data-name="Path 8036" d="M780.65,490.31l-5.646.612a.767.767,0,0,0-.628.856.727.727,0,0,0,.762.7l5.646-.611a.768.768,0,0,0,.628-.856A.727.727,0,0,0,780.65,490.31Z" fill="#ff9985"/>
      </g>
      <g id="Group_16794" data-name="Group 16794">
        <path id="Path_8037" data-name="Path 8037" d="M779.906,488.256l-5.646.612a.768.768,0,0,0-.628.856.728.728,0,0,0,.762.706l5.646-.612a.767.767,0,0,0,.628-.856A.727.727,0,0,0,779.906,488.256Z" fill="#ff9985"/>
      </g>
      <g id="Group_16795" data-name="Group 16795">
        <path id="Path_8038" data-name="Path 8038" d="M780.489,485.821l-5.645.612a.767.767,0,0,0-.629.856.728.728,0,0,0,.763.706l5.645-.612a.768.768,0,0,0,.629-.856A.728.728,0,0,0,780.489,485.821Z" fill="#ff9985"/>
      </g>
      <g id="Group_16796" data-name="Group 16796">
        <path id="Path_8039" data-name="Path 8039" d="M781.746,483.847l-5.646.612a.769.769,0,0,0-.629.856.728.728,0,0,0,.763.706l5.646-.612a.768.768,0,0,0,.628-.856A.728.728,0,0,0,781.746,483.847Z" fill="#ff9985"/>
      </g>
    </g>
    <g id="Group_16798" data-name="Group 16798">
      <rect id="Rectangle_12648" data-name="Rectangle 12648" width="2.406" height="126.998" transform="translate(759.534 553.302)" fill="#452a51"/>
    </g>
    <g id="Group_16799" data-name="Group 16799">
      <rect id="Rectangle_12649" data-name="Rectangle 12649" width="2.406" height="126.998" transform="translate(631.451 555.052)" fill="#452a51"/>
    </g>
    <g id="Group_16800" data-name="Group 16800">
      <rect id="Rectangle_12650" data-name="Rectangle 12650" width="2.605" height="126.998" transform="translate(825.605 555.302)" fill="#644077"/>
    </g>
    <rect id="Rectangle_12651" data-name="Rectangle 12651" width="201.583" height="6.776" transform="translate(628.748 553.466)" fill="#644077"/>
    <g id="Group_16801" data-name="Group 16801">
      <rect id="Rectangle_12652" data-name="Rectangle 12652" width="2.939" height="128.717" transform="translate(695.07 553.582)" fill="#644077"/>
    </g>
    <g id="Group_16803" data-name="Group 16803">
      <g id="Group_16802" data-name="Group 16802">
        <path id="Path_8040" data-name="Path 8040" d="M678.568,660.64,676.7,676.916l-7.192.577-2.146-3.46.585-.694,1.029-11.934Z" fill="#ff9985"/>
      </g>
    </g>
    <path id="Path_8041" data-name="Path 8041" d="M665.8,637.353c2.58-11.447,4.842-24.784,10-36.378a28.636,28.636,0,0,1,10.2-12.09,39.113,39.113,0,0,1,16-6.111,44.124,44.124,0,0,1,7.1-.53c9.153.07,25.907.031,30.44,0l-11.452,22.014c-9.324.075-19.174.031-25.207-.011a8.349,8.349,0,0,0-7.9,5.106,224.693,224.693,0,0,0-13.8,53.015c-.288,2.208-2.912,4.336-5.336,4.336h-8.624c-2.254,0-3.74-1.333-3.721-3.322C663.583,654.637,663.918,645.722,665.8,637.353Z" fill="#000543"/>
    <path id="Path_8042" data-name="Path 8042" d="M715.063,605.524c-2.052,0-10.014-.472-12.067-.427-3.431.075-6.148,2.8-7.646,5.628a18.691,18.691,0,0,0-2.185,8.5c-.14,3.135-1.45,6.306-2.509,9.291-1.537,4.332-3.847,7.914-5.2,12.3-.931,3.008-1.085,6.515-1.421,9.626-.565,5.231-.862,10.1-4.2,14.385,1.459-13.7,2.616-27.4,6.346-40.738a81.526,81.526,0,0,1,6.768-17.78,26.452,26.452,0,0,1,5.942-7.621c1.646-1.382,4.063-2.534,6.034-1.572.736.358,1.3.972,2.047,1.3a3.175,3.175,0,0,0,3.5-.7c-1.042,1.157,24.064,4.407,24.453,5.239C736.015,605.3,721.1,605.513,715.063,605.524Z" fill="#000543"/>
    <g id="Group_16805" data-name="Group 16805">
      <g id="Group_16804" data-name="Group 16804">
        <path id="Path_8043" data-name="Path 8043" d="M660.2,676.14l8.523-3.213h7.674a1.818,1.818,0,0,1,1.725,1.83l.177,4.48-19.75.51C657.716,678.544,658.111,676.926,660.2,676.14Z" fill="#fbe9dc"/>
        <path id="Path_8044" data-name="Path 8044" d="M678.3,679.237l.218.817c.136.508-.417.983-1.152.992l-15.348.182a4.023,4.023,0,0,1-3.468-1.481Z" fill="#000543"/>
        <path id="Path_8045" data-name="Path 8045" d="M668.181,675.478l.572-.194a.252.252,0,0,0,.146-.3l-.772-2.789a.217.217,0,0,0-.275-.162l-.571.194a.25.25,0,0,0-.146.3l.771,2.789A.217.217,0,0,0,668.181,675.478Z" fill="#000543"/>
        <path id="Path_8046" data-name="Path 8046" d="M665.933,676.182l.572-.194a.251.251,0,0,0,.146-.3l-.771-2.789a.218.218,0,0,0-.275-.162l-.572.2a.25.25,0,0,0-.146.3l.771,2.79A.217.217,0,0,0,665.933,676.182Z" fill="#000543"/>
        <path id="Path_8047" data-name="Path 8047" d="M663.8,676.977l.571-.194a.25.25,0,0,0,.146-.3l-.771-2.79a.217.217,0,0,0-.275-.161l-.572.194a.252.252,0,0,0-.146.3l.772,2.789A.218.218,0,0,0,663.8,676.977Z" fill="#000543"/>
      </g>
      <rect id="Rectangle_12653" data-name="Rectangle 12653" width="3.255" height="1.045" rx="0.312" transform="translate(676.847 678.955) rotate(180)" fill="#000543"/>
    </g>
    <g id="Group_16810" data-name="Group 16810">
      <path id="Path_8048" data-name="Path 8048" d="M758.9,607.755c-2.052,0-10.014-.455-12.066-.411-3.432.072-6.148,2.707-7.647,5.431a17.553,17.553,0,0,0-2.185,8.2c-.139,3.026-1.45,6.087-2.508,8.968-1.537,4.182-3.847,7.638-5.2,11.869-.931,2.9-1.084,6.288-1.421,9.29-.565,5.05-.861,9.753-4.2,13.885,1.458-13.223,2.615-26.449,6.345-39.321a77.078,77.078,0,0,1,6.769-17.161,25.7,25.7,0,0,1,5.941-7.357c1.647-1.333,4.063-2.445,6.035-1.517.735.346,1.3.938,2.046,1.26a3.257,3.257,0,0,0,3.5-.673c-1.042,1.116,24.064,4.253,24.453,5.056C779.848,607.541,764.936,607.745,758.9,607.755Z" fill="#000543"/>
      <g id="Group_16807" data-name="Group 16807">
        <g id="Group_16806" data-name="Group 16806">
          <path id="Path_8049" data-name="Path 8049" d="M722.4,660.64l-1.869,16.276-7.192.577-2.146-3.46.585-.694,1.029-11.934Z" fill="#ff9985"/>
        </g>
      </g>
      <path id="Path_8050" data-name="Path 8050" d="M709.636,637.353c2.58-11.447,4.842-24.784,10-36.378a28.643,28.643,0,0,1,10.2-12.09,39.117,39.117,0,0,1,16-6.111,44.1,44.1,0,0,1,7.095-.53c9.154.07,14.455.031,18.989,0v22.014c-9.324.075-19.174.031-25.208-.011a8.35,8.35,0,0,0-7.9,5.106,224.656,224.656,0,0,0-13.8,53.015c-.289,2.208-2.913,4.336-5.336,4.336h-8.624c-2.254,0-3.74-1.333-3.722-3.322C707.416,654.637,707.751,645.722,709.636,637.353Z" fill="#000543"/>
      <g id="Group_16809" data-name="Group 16809">
        <g id="Group_16808" data-name="Group 16808">
          <path id="Path_8051" data-name="Path 8051" d="M704.03,676.14l8.523-3.213h7.675a1.818,1.818,0,0,1,1.725,1.83l.177,4.48-19.751.51C701.55,678.544,701.944,676.926,704.03,676.14Z" fill="#fbe9dc"/>
          <path id="Path_8052" data-name="Path 8052" d="M722.13,679.237l.218.817c.135.508-.417.983-1.153.992l-15.348.182a4.024,4.024,0,0,1-3.468-1.481Z" fill="#000543"/>
          <path id="Path_8053" data-name="Path 8053" d="M712.014,675.478l.572-.194a.251.251,0,0,0,.146-.3l-.771-2.789a.218.218,0,0,0-.275-.162l-.572.194a.251.251,0,0,0-.146.3l.771,2.789A.218.218,0,0,0,712.014,675.478Z" fill="#000543"/>
          <path id="Path_8054" data-name="Path 8054" d="M709.767,676.182l.571-.194a.25.25,0,0,0,.146-.3l-.771-2.789a.218.218,0,0,0-.275-.162l-.572.2a.251.251,0,0,0-.146.3l.772,2.79A.217.217,0,0,0,709.767,676.182Z" fill="#000543"/>
          <path id="Path_8055" data-name="Path 8055" d="M707.633,676.977l.572-.194a.252.252,0,0,0,.146-.3l-.772-2.79a.216.216,0,0,0-.274-.161l-.572.194a.25.25,0,0,0-.146.3l.771,2.789A.218.218,0,0,0,707.633,676.977Z" fill="#000543"/>
        </g>
        <rect id="Rectangle_12654" data-name="Rectangle 12654" width="3.255" height="1.045" rx="0.312" transform="translate(720.68 678.955) rotate(180)" fill="#000543"/>
      </g>
    </g>
    <g id="Group_16811" data-name="Group 16811">
      <circle id="Ellipse_3047" data-name="Ellipse 3047" cx="26.25" cy="26.25" r="26.25" transform="translate(634.998 387.492)" fill="#fff"/>
      <path id="Path_8056" data-name="Path 8056" d="M661.248,440.492A26.75,26.75,0,1,1,688,413.742,26.78,26.78,0,0,1,661.248,440.492Zm0-52.5A25.75,25.75,0,1,0,687,413.742,25.779,25.779,0,0,0,661.248,387.992Z" fill="#d7e1fc"/>
    </g>
    <g id="Group_16812" data-name="Group 16812">
      <path id="Path_8057" data-name="Path 8057" d="M660.71,391.725v0Z" fill="#fff"/>
      <path id="Path_8058" data-name="Path 8058" d="M660.71,415.609a1,1,0,0,1-1-1V391.725a1,1,0,0,1,2,0v22.884A1,1,0,0,1,660.71,415.609Z" fill="#d7e1fc"/>
    </g>
    <g id="Group_16813" data-name="Group 16813">
      <path id="Path_8059" data-name="Path 8059" d="M661.37,415.148h0Z" fill="#fff"/>
      <path id="Path_8060" data-name="Path 8060" d="M678.816,416.647H661.371a1.5,1.5,0,0,1,0-3h17.445a1.5,1.5,0,0,1,0,3Z" fill="#d7e1fc"/>
    </g>
    <g id="Group_16814" data-name="Group 16814">
      <path id="Path_8061" data-name="Path 8061" d="M700.451,551.242H644.639a2.244,2.244,0,0,1-2.132-1.831l-6.644-40.483a1.514,1.514,0,0,1,1.53-1.831h55.813a2.243,2.243,0,0,1,2.131,1.831l6.645,40.483A1.514,1.514,0,0,1,700.451,551.242Z" fill="#91b4de"/>
      <path id="Path_8062" data-name="Path 8062" d="M703.281,551.242H647.468a2.245,2.245,0,0,1-2.132-1.831l-6.644-40.483a1.514,1.514,0,0,1,1.53-1.831h55.813a2.244,2.244,0,0,1,2.132,1.831l6.644,40.483A1.514,1.514,0,0,1,703.281,551.242Z" fill="#d7e1fc"/>
      <path id="Path_8063" data-name="Path 8063" d="M641.245,508.912h54.1a1.5,1.5,0,0,1,1.437,1.211l3.089,18.819,2.527,15.4.422,2.568a1.013,1.013,0,0,1-1.039,1.211h-54.1a1.5,1.5,0,0,1-1.437-1.211l-1.646-10.03-1.3-7.937-3.089-18.819A1.013,1.013,0,0,1,641.245,508.912Z" fill="#fff"/>
    </g>
    <g id="Group_16820" data-name="Group 16820">
      <g id="Group_16818" data-name="Group 16818">
        <g id="Group_16815" data-name="Group 16815">
          <path id="Path_8064" data-name="Path 8064" d="M696.061,680.836a1.085,1.085,0,0,0,1.071-.924l10.553-70.631a1.083,1.083,0,1,0-2.143-.32l-10.554,70.63a1.085,1.085,0,0,0,.912,1.233A1.1,1.1,0,0,0,696.061,680.836Z" fill="#6d72a0"/>
        </g>
        <g id="Group_16816" data-name="Group 16816">
          <path id="Path_8065" data-name="Path 8065" d="M797.728,680.836a1.115,1.115,0,0,0,.162-.012,1.084,1.084,0,0,0,.911-1.233l-10.553-70.63a1.084,1.084,0,1,0-2.144.32l10.554,70.631A1.084,1.084,0,0,0,797.728,680.836Z" fill="#6d72a0"/>
        </g>
        <g id="Group_16817" data-name="Group 16817">
          <path id="Path_8066" data-name="Path 8066" d="M750.489,680.836a1.1,1.1,0,0,0,.162-.012,1.085,1.085,0,0,0,.912-1.233l-10.554-70.63a1.084,1.084,0,0,0-2.144.32l10.554,70.631A1.085,1.085,0,0,0,750.489,680.836Z" fill="#6d72a0"/>
        </g>
      </g>
      <g id="Group_16819" data-name="Group 16819">
        <path id="Path_8067" data-name="Path 8067" d="M790.894,606.076l9.741-80.971c.589-5.071-2.73-9.221-7.378-9.221H747.422c-4.647,0-8.931,4.15-9.52,9.221l-9.408,80.971Z" fill="#fbe9dc"/>
        <path id="Path_8068" data-name="Path 8068" d="M794.9,606.076l8.68-80.971c.544-5.071-2.519-9.221-6.807-9.221H754.48c-4.288,0-8.241,4.15-8.784,9.221l-8.681,80.971Z" fill="#f9cdaf"/>
        <path id="Path_8069" data-name="Path 8069" d="M795.051,605.522v4.011a5.386,5.386,0,0,1-5.386,5.386h-81.2c-3.29,0-5.951-1.062-5.93-4.352V609.5c.012-1.9,1.553-3.974,3.45-3.974Z" fill="#f9cdaf"/>
      </g>
    </g>
    <path id="Path_8070" data-name="Path 8070" d="M720.766,553.659H644.357a1.566,1.566,0,1,1,0-3.133h76.409a1.566,1.566,0,0,1,0,3.133Z" fill="#d7e1fc"/>
    <g id="Group_16821" data-name="Group 16821">
      <path id="Path_8071" data-name="Path 8071" d="M747.54,492.18a.25.25,0,0,1-.032-.5c.106-.014,10.622-1.38,15.078-1.689a.25.25,0,0,1,.034.5c-4.441.308-14.942,1.672-15.047,1.686Z" fill="#fa694f"/>
    </g>
  </g>
</svg>
