<svg id="img_inputs" xmlns="http://www.w3.org/2000/svg" width="223.381" height="301.007" viewBox="0 0 223.381 301.007">
  <g id="Group_17746" data-name="Group 17746" transform="translate(115.011 121.03)">
    <path id="Path_9162" data-name="Path 9162" d="M1026.221,358.7a.449.449,0,0,1-.449-.449v-2.393a.449.449,0,0,1,.9,0v2.393A.449.449,0,0,1,1026.221,358.7Zm0-4.785a.449.449,0,0,1-.449-.449v-2.393a.449.449,0,0,1,.9,0v2.393A.449.449,0,0,1,1026.221,353.919Zm0-4.785a.449.449,0,0,1-.449-.449v-2.393a.449.449,0,0,1,.9,0v2.393A.449.449,0,0,1,1026.221,349.134Zm0-4.785a.449.449,0,0,1-.449-.449v-2.393a.449.449,0,0,1,.9,0V343.9A.449.449,0,0,1,1026.221,344.348Zm0-4.785a.449.449,0,0,1-.449-.449v-2.393a.449.449,0,0,1,.9,0v2.393A.449.449,0,0,1,1026.221,339.563Zm0-4.785a.449.449,0,0,1-.449-.449v-2.393a.449.449,0,0,1,.9,0v2.393A.449.449,0,0,1,1026.221,334.777Zm0-4.785a.449.449,0,0,1-.449-.449v-2.393a.449.449,0,0,1,.9,0v2.393A.449.449,0,0,1,1026.221,329.992Zm0-4.785a.449.449,0,0,1-.449-.449v-2.393a.449.449,0,0,1,.9,0v2.393A.449.449,0,0,1,1026.221,325.207Zm0-4.785a.449.449,0,0,1-.449-.449V317.58a.449.449,0,0,1,.9,0v2.393A.449.449,0,0,1,1026.221,320.421Zm0-4.785a.449.449,0,0,1-.449-.449v-2.393a.449.449,0,0,1,.9,0v2.393A.449.449,0,0,1,1026.221,315.636Zm0-4.785a.449.449,0,0,1-.449-.449v-2.393a.449.449,0,0,1,.9,0V310.4A.449.449,0,0,1,1026.221,310.85Zm0-4.785a.449.449,0,0,1-.449-.449v-2.393a.449.449,0,0,1,.9,0v2.393A.449.449,0,0,1,1026.221,306.065Zm0-4.785a.449.449,0,0,1-.449-.449v-2.393a.449.449,0,0,1,.9,0v2.393A.449.449,0,0,1,1026.221,301.279Zm0-4.785a.449.449,0,0,1-.449-.449v-2.393a.449.449,0,0,1,.9,0v2.393A.449.449,0,0,1,1026.221,296.494Zm0-14.356a.449.449,0,0,1-.449-.449V279.3a.449.449,0,0,1,.9,0v2.393A.449.449,0,0,1,1026.221,282.137Zm0-4.785a.449.449,0,0,1-.449-.449v-2.393a.449.449,0,0,1,.9,0V276.9A.449.449,0,0,1,1026.221,277.352Zm0-4.785a.449.449,0,0,1-.449-.449v-2.393a.449.449,0,0,1,.9,0C1026.67,272.366,1026.469,272.567,1026.221,272.567Zm0-4.785a.449.449,0,0,1-.449-.449V264.94a.449.449,0,0,1,.9,0v2.393A.449.449,0,0,1,1026.221,267.781Zm0-4.785a.449.449,0,0,1-.449-.449v-2.393a.449.449,0,0,1,.9,0v2.393A.449.449,0,0,1,1026.221,263Zm0-4.785a.449.449,0,0,1-.449-.449v-2.393a.449.449,0,0,1,.9,0v2.393A.449.449,0,0,1,1026.221,258.21Zm0-4.785a.449.449,0,0,1-.449-.449v-2.393a.449.449,0,0,1,.9,0v2.393A.449.449,0,0,1,1026.221,253.425Zm.449-17.2Zm-.449-1.944a.449.449,0,0,1-.449-.449v-2.393a.449.449,0,0,1,.9,0v2.393A.449.449,0,0,1,1026.221,234.283Zm0-4.785a.449.449,0,0,1-.449-.449v-2.393a.449.449,0,0,1,.9,0v2.393A.449.449,0,0,1,1026.221,229.5Zm0-4.785a.449.449,0,0,1-.449-.449v-2.393a.449.449,0,0,1,.9,0v2.393A.449.449,0,0,1,1026.221,224.712Zm0-4.785a.449.449,0,0,1-.449-.449v-2.393a.449.449,0,0,1,.9,0v2.393A.449.449,0,0,1,1026.221,219.927Zm0-4.785a.449.449,0,0,1-.449-.449V212.3a.449.449,0,0,1,.9,0v2.393A.449.449,0,0,1,1026.221,215.141Zm0-4.785a.449.449,0,0,1-.449-.449v-2.393a.449.449,0,0,1,.9,0v2.393A.449.449,0,0,1,1026.221,210.356Zm0-4.785a.449.449,0,0,1-.449-.449v-2.393a.449.449,0,0,1,.9,0v2.393A.449.449,0,0,1,1026.221,205.57Zm-.1-4.691h-2.393a.449.449,0,1,1,0-.9h2.393a.449.449,0,0,1,0,.9Zm-4.786,0h-2.393a.449.449,0,0,1,0-.9h2.393a.449.449,0,0,1,0,.9Zm-4.785,0h-2.393a.449.449,0,0,1,0-.9h2.393a.449.449,0,0,1,0,.9Zm-4.786,0h-2.393a.449.449,0,0,1,0-.9h2.393a.449.449,0,0,1,0,.9Zm-4.786,0h-2.393a.449.449,0,0,1,0-.9h2.393a.449.449,0,0,1,0,.9Z" transform="translate(-1004.142 -199.982)" fill="#d7e1fc"/>
  </g>
  <path id="Path_9163" data-name="Path 9163" d="M1021.292,160.482l-21.362-16.765-12.4,18.9,44.4,28.457c1.829,1.445,3.307,3.039,5.184,2.746,3.316-.517,5.654-5.472,3.907-8.337l-5.948-9.753A55.172,55.172,0,0,0,1021.292,160.482Z" transform="translate(-892.394 -90.001)" fill="#000543"/>
  <path id="Path_9172" data-name="Path 9172" d="M972.716,298.954c-.193,4.393-.386,8.8-.965,13.121-.594,4.422-1.584,8.713-2.253,13.112-.737,4.849-1.08,9.8-1.421,14.74q-.666,9.612-1.329,19.222a58.5,58.5,0,0,0,2.669-11.223c5.853-34.413,11.733-69.09,12.881-104.487a23.76,23.76,0,0,0-.383-6.374c-.5-2.023-1.671-3.844-3.15-4.075-5.536-.866-4.233,24.516-4.448,29.421Z" transform="translate(-896.474 -72.475)" fill="#52587f"/>
  <path id="Path_9173" data-name="Path 9173" d="M948.268,292.6c-.355,7.165-1.75,14.2-1.878,21.38-.164,9.117,1.72,18.137,1.535,27.254-.127,6.251-1.04,13.341,2,18.065q2.8-57.912,2.462-116c-.016-2.692-.383-6.055-2.292-6.859-6.179-2.6-3.906,19.331-3.758,22.708C946.83,270.315,948.827,281.358,948.268,292.6Z" transform="translate(-900.586 -71.835)" fill="#52587f"/>
  <g id="Group_17767" data-name="Group 17767" transform="translate(73.899 278.741)">
    <path id="Path_9174" data-name="Path 9174" d="M972.807,331.808l-3.029,17.784,7.272.624,3.277-3.782-.394-.757,2.574-13.04Z" transform="translate(-969.778 -331.808)" fill="#ff9985"/>
  </g>
  <g id="Group_17769" data-name="Group 17769" transform="translate(72.764 292.405)">
    <g id="Group_17768" data-name="Group 17768">
      <path id="Path_9175" data-name="Path 9175" d="M980.06,343.229l9.792,3.329c2.4.815,2.85,2.492,1.9,3.737l-22.692-.529.911-5a1.878,1.878,0,0,1,1.848-1.542Z" transform="translate(-968.784 -343.229)" fill="#6d72a0"/>
      <path id="Path_9176" data-name="Path 9176" d="M969.1,348.694l-.25.847c-.156.526.479,1.019,1.324,1.028l17.632.189a4.848,4.848,0,0,0,3.985-1.535Z" transform="translate(-968.829 -342.156)" fill="#000543"/>
    </g>
    <rect id="Rectangle_12819" data-name="Rectangle 12819" width="4.414" height="1.592" rx="0.458" transform="translate(6.964 6.006) rotate(180)" fill="#000543"/>
  </g>
  <g id="Group_17770" data-name="Group 17770" transform="translate(53.529 278.367)">
    <path id="Path_9177" data-name="Path 9177" d="M953.321,331.5l-.57,17.784,7.358.624,2.754-3.782-.5-.757.771-13.04Z" transform="translate(-952.752 -331.495)" fill="#ff9985"/>
  </g>
  <g id="Group_17772" data-name="Group 17772" transform="translate(51.838 292.312)">
    <g id="Group_17771" data-name="Group 17771">
      <path id="Path_9178" data-name="Path 9178" d="M962.57,343.151l9.791,3.329c2.4.814,2.85,2.492,1.9,3.737l-22.69-.529.909-5a1.878,1.878,0,0,1,1.848-1.541Z" transform="translate(-951.293 -343.151)" fill="#6d72a0"/>
      <path id="Path_9179" data-name="Path 9179" d="M951.613,348.616l-.251.847c-.155.526.479,1.019,1.324,1.028l17.632.189a4.846,4.846,0,0,0,3.985-1.535Z" transform="translate(-951.338 -342.078)" fill="#000543"/>
    </g>
    <rect id="Rectangle_12820" data-name="Rectangle 12820" width="4.414" height="1.592" rx="0.458" transform="translate(6.965 6.006) rotate(180)" fill="#000543"/>
  </g>
  <path id="Path_9180" data-name="Path 9180" d="M985.235,137.712l-1.012-.2q-1.2-.239-2.417-.44a113.67,113.67,0,0,0-22.22-1.116l1.748,109.418,1.7-.039,31.889-.744L985.5,137.766C985.408,137.748,985.321,137.729,985.235,137.712Z" transform="translate(-897.881 -91.547)" fill="#4db4e8"/>
  <path id="Path_9181" data-name="Path 9181" d="M977.476,237.936c-1.89,44.977-3.27,76.694-10.9,116.979-.464,2.457.833,4.875,2.595,4.857l13.813-.141c1.853-.019,3.454-1.883,3.864-4.494,10.168-64.705,13.741-97.044,15.982-117.2Z" transform="translate(-896.526 -71.5)" fill="#52587f"/>
  <path id="Path_9182" data-name="Path 9182" d="M949.123,235.974c3.572,62.651.428,96.9-1.736,117.923-.353,3.424,1.637,6.464,4.2,6.441l14.13-.126c1.338-.012,2.458-1.378,2.609-3.167,4.821-57.433,6.291-88.879,7.086-121.072Z" transform="translate(-900.284 -71.885)" fill="#52587f"/>
  <path id="Path_9183" data-name="Path 9183" d="M1008.756,144.365c-7.822-5.905-19.068-6.616-19.068-6.616l-6.792,59.77-19.118-61.585c-.747.028-1.493.055-2.228.092-1.717.089-3.411.193-5.042.325-11.186,1.284-21.934,8.275-17.077,25.716l2.484,17.45c-.743,4.265.164,10.3.48,12.983.8,6.767,2.5,13.418,2.793,20.244.477,11.041-2.8,21.921-3.079,32.968-.066,2.592.031,5.189.157,7.785a8.592,8.592,0,0,0,8.582,8.177h51.635a7.472,7.472,0,0,0,7.475-7.374c.172-13.517.53-27.794.873-37.788.8-23.224,3.036-47.4,4.065-57.674A16.076,16.076,0,0,0,1008.756,144.365Z" transform="translate(-902.074 -91.529)" fill="#000543"/>
  <g id="Group_17773" data-name="Group 17773" transform="translate(107.692 79.846)">
    <path id="Path_9184" data-name="Path 9184" d="M998.623,227.481a.6.6,0,0,1-.6-.614c.529-21.736,1.626-42.747,3.174-60.761a.59.59,0,0,1,.647-.544.6.6,0,0,1,.544.647c-1.546,17.989-2.642,38.974-3.169,60.688A.6.6,0,0,1,998.623,227.481Z" transform="translate(-998.025 -165.558)" fill="#52587f"/>
  </g>
  <g id="Group_17774" data-name="Group 17774" transform="translate(81.832 45.698)">
    <path id="Path_9185" data-name="Path 9185" d="M977.007,189.114a.629.629,0,0,1-.168-.024.6.6,0,0,1-.407-.742l9.779-33.68a1.4,1.4,0,0,0-.506-1.5l-1.693-1.257a1.4,1.4,0,0,1,.03-2.27l3.576-2.521a.549.549,0,0,0,.15-.742l-5.536-8.434a.6.6,0,1,1,1-.656l5.543,8.444a1.75,1.75,0,0,1-.466,2.365l-3.577,2.521a.2.2,0,0,0-.087.165.2.2,0,0,0,.083.166l1.692,1.259a2.6,2.6,0,0,1,.942,2.8l-9.779,33.68A.6.6,0,0,1,977.007,189.114Z" transform="translate(-976.409 -137.015)" fill="#52587f"/>
  </g>
  <g id="Group_17775" data-name="Group 17775" transform="translate(57.093 44.153)">
    <path id="Path_9186" data-name="Path 9186" d="M975.971,188.174a.6.6,0,0,1-.53-.319L959.1,156.826a2.6,2.6,0,0,1,.36-2.93l1.4-1.572a.2.2,0,0,0-.071-.324l-4.01-1.751a1.747,1.747,0,0,1-.938-2.211l3.907-11.9a.6.6,0,0,1,1.138.373l-3.916,11.924a.556.556,0,0,0,.287.719l4.01,1.75a1.4,1.4,0,0,1,.483,2.218l-1.4,1.572a1.4,1.4,0,0,0-.194,1.576L976.5,187.3a.6.6,0,0,1-.528.877Z" transform="translate(-955.731 -135.724)" fill="#52587f"/>
  </g>
  <g id="Group_17776" data-name="Group 17776" transform="translate(96.266 83.049)">
    <path id="Path_9187" data-name="Path 9187" d="M999.581,169.431H989.072a.6.6,0,1,1,0-1.2h10.509a.6.6,0,0,1,0,1.2Z" transform="translate(-988.474 -168.235)" fill="#52587f"/>
  </g>
  <g id="Group_17777" data-name="Group 17777" transform="translate(78.123 119.824)">
    <path id="Path_9188" data-name="Path 9188" d="M975.588,203.533a2.28,2.28,0,1,1,2.28-2.279A2.282,2.282,0,0,1,975.588,203.533Zm0-3.363a1.083,1.083,0,1,0,1.084,1.084A1.085,1.085,0,0,0,975.588,200.17Z" transform="translate(-973.309 -198.974)" fill="#f9d1b7"/>
  </g>
  <g id="Group_17778" data-name="Group 17778" transform="translate(78.03 136.125)">
    <path id="Path_9189" data-name="Path 9189" d="M975.51,217.159a2.28,2.28,0,1,1,2.28-2.279A2.282,2.282,0,0,1,975.51,217.159Zm0-3.363a1.083,1.083,0,1,0,1.084,1.084A1.085,1.085,0,0,0,975.51,213.8Z" transform="translate(-973.231 -212.6)" fill="#f9d1b7"/>
  </g>
  <g id="Group_17779" data-name="Group 17779" transform="translate(44.072 148.113)">
    <path id="Path_9190" data-name="Path 9190" d="M965.437,223.816H945.445a.6.6,0,1,1,0-1.2h19.991a.6.6,0,0,1,0,1.2Z" transform="translate(-944.847 -222.62)" fill="#f9d1b7"/>
  </g>
  <g id="Group_17780" data-name="Group 17780" transform="translate(67.389 0)">
    <path id="Path_9191" data-name="Path 9191" d="M1001.49,107.029a11.972,11.972,0,0,1-1.383-.97c-.585-.674-.371-1.73-.266-2.683s-.007-2.019-.964-2.334c-.913-.3-2.214.223-3.187.014-1.443-.309-1.84-2.125-3.485-1.848a19.338,19.338,0,0,1-2.027.619,1.348,1.348,0,0,1-.291-.022c-.123-.043-.26-.077-.386-.117-.525-.233-.931-.678-1.588-.7a1.808,1.808,0,0,0-.676.136c-.255-.047-.492-.109-.756-.145a15.224,15.224,0,0,0-15.291,7.416c-1.377.959-2.774,2.217-2.88,3.827a16.863,16.863,0,0,1,.018,1.98,5.49,5.49,0,0,1-1.969,2.63c-.815.775-1.59,1.824-1.3,2.872.282,1,1.434,1.568,1.823,2.534.575,1.431-.633,3.385.519,4.45.477.44,1.241.554,1.64,1.061a3.3,3.3,0,0,1,.376,1.757l1.855-5.782a3.615,3.615,0,0,1-1.018-3.255,3.5,3.5,0,0,1,3.661-3.143,2.742,2.742,0,0,1,.376.1l.019-.061,1.932.961c7.389.68,7.384-6.951,14.124-6.44,4.381.333,6.715,1.683,7.819,2.59a5.823,5.823,0,0,1,.549.506,4.092,4.092,0,0,1-.249,1.421,11.083,11.083,0,0,1-.328,3.314l-2.39-.621a.731.731,0,0,0-.883.476.667.667,0,0,0,.489.834l2.419.628.165.043a.732.732,0,0,0,.883-.477.663.663,0,0,0-.469-.823,2.632,2.632,0,0,0,1.284-1.443,30.843,30.843,0,0,0,2.2-5.388C1002.288,109.5,1002.519,107.9,1001.49,107.029Z" transform="translate(-964.206 -98.817)" fill="#000543"/>
    <path id="Path_9192" data-name="Path 9192" d="M993.293,110.738a5.823,5.823,0,0,0-.549-.506,11.043,11.043,0,0,1,.3,1.927A4.092,4.092,0,0,0,993.293,110.738Z" transform="translate(-958.758 -96.576)" fill="#ffa27f"/>
    <path id="Path_9193" data-name="Path 9193" d="M995.022,115.758a.731.731,0,0,1,.883-.476l2.39.621a10.464,10.464,0,0,0,.027-5.241c-1.1-.907-3.438-2.258-7.819-2.59-6.74-.511-6.736,7.12-14.124,6.44l-1.932-.961-.019.061a2.742,2.742,0,0,0-.376-.1,3.5,3.5,0,0,0-3.661,3.143,3.615,3.615,0,0,0,1.018,3.255l-1.855,5.782-5.094,15.871a2,2,0,0,0,1.373,2.663l10.655,5.782c1.133.334.621-7.769,1.029-9.036l2.811-7.928a13.039,13.039,0,0,0,1.426.477c6.261,1.657,11.755-1.864,13.641-8.02l2.535-8.285-2.419-.628A.667.667,0,0,1,995.022,115.758Zm-6.715-2.45a.667.667,0,0,1,.488.834.731.731,0,0,1-.883.476l-2.584-.671a.668.668,0,0,1-.489-.833.733.733,0,0,1,.884-.477Zm-3.814,2.463c.194-.642.7-1.071,1.142-.957s.635.726.443,1.369-.7,1.072-1.142.958S984.3,116.413,984.492,115.771Zm1.881,11.4c-1.613-.678-1.777-1.6-1.652-2.281l4.3,1.565A2.081,2.081,0,0,1,986.373,127.167Zm3.687-4.205-1.451.01a1.049,1.049,0,0,1-.974-1.543l.066-.117a1.054,1.054,0,0,0,1.01.7l1.451-.008a1.441,1.441,0,0,0,1.3-.839l.032.245A1.413,1.413,0,0,1,990.06,122.962Zm5.759-4.44c-.193.642-.7,1.072-1.141.958s-.636-.727-.443-1.37.7-1.072,1.141-.957S996.013,117.88,995.82,118.522Z" transform="translate(-964.336 -97.005)" fill="#ff9985"/>
    <path id="Path_9194" data-name="Path 9194" d="M983.033,124.4a2.081,2.081,0,0,0,2.649-.717l-4.3-1.565C981.256,122.808,981.42,123.725,983.033,124.4Z" transform="translate(-960.996 -94.241)" fill="#fff"/>
    <path id="Path_9195" data-name="Path 9195" d="M981.477,112.364a.668.668,0,0,0,.489.833l2.584.671a.731.731,0,0,0,.883-.476.667.667,0,0,0-.488-.834l-2.584-.671A.733.733,0,0,0,981.477,112.364Z" transform="translate(-960.976 -96.256)" fill="#000543"/>
    <path id="Path_9196" data-name="Path 9196" d="M989.34,116.619c-.194.642,0,1.256.443,1.37s.949-.316,1.141-.958,0-1.256-.443-1.369S989.533,115.977,989.34,116.619Z" transform="translate(-959.441 -95.513)" fill="#000543"/>
    <path id="Path_9197" data-name="Path 9197" d="M982.781,115.075c.193-.642,0-1.255-.443-1.369s-.949.315-1.142.957.006,1.256.443,1.37S982.589,115.718,982.781,115.075Z" transform="translate(-961.04 -95.898)" fill="#000543"/>
    <path id="Path_9198" data-name="Path 9198" d="M987.661,119.01a1.441,1.441,0,0,1-1.3.839l-1.451.008a1.054,1.054,0,0,1-1.01-.7l-.066.117a1.049,1.049,0,0,0,.974,1.543l1.451-.01a1.413,1.413,0,0,0,1.436-1.554Z" transform="translate(-960.534 -94.852)" fill="#fa694f"/>
  </g>
  <path id="Path_9199" data-name="Path 9199" d="M987.726,173.375l1.487,7.339,14.036.238.332-7.158Z" transform="translate(-892.355 -84.177)" fill="#ff9985"/>
  <path id="Path_9200" data-name="Path 9200" d="M1000.1,170.092a4.542,4.542,0,0,0-4.1,1.221,2.788,2.788,0,0,0-.645,2.609l1.7,7.853a5.22,5.22,0,0,0,4.827,4.112l33.19,2.859-1.751-15.849Z" transform="translate(-890.874 -84.835)" fill="#000543"/>
  <g id="Group_17781" data-name="Group 17781" transform="translate(103.742 84.876)">
    <path id="Path_9201" data-name="Path 9201" d="M1009.8,187.24c-.032,0-7.883-.419-7.883-.419a5.835,5.835,0,0,1-5.381-4.583l-1.7-7.854a3.369,3.369,0,0,1,.781-3.132,5.158,5.158,0,0,1,4.637-1.415l26.2,2.389a.6.6,0,0,1,.542.651.592.592,0,0,1-.651.541l-26.24-2.394a3.988,3.988,0,0,0-3.6,1.023A2.174,2.174,0,0,0,996,174.1l1.7,7.883a4.633,4.633,0,0,0,4.275,3.641l7.851.419a.6.6,0,0,1-.031,1.2Z" transform="translate(-994.723 -169.763)" fill="#52587f"/>
  </g>
  <path id="Path_9202" data-name="Path 9202" d="M991.873,176.471l.579,3.714h1.821l-.52-3.785Z" transform="translate(-891.541 -83.583)" fill="#52587f"/>
  <path id="Path_9203" data-name="Path 9203" d="M965.146,134.925s4.063,6.925,8.372,7.78l-2.247,7.118s-9.169-3.725-8.547-13.732Z" transform="translate(-897.27 -91.727)" fill="#2186c4"/>
  <path id="Path_9204" data-name="Path 9204" d="M976.017,135.5s-.007,5.4-4.275,7.091l3.4,6.27a15.791,15.791,0,0,0,3.9-11.763Z" transform="translate(-895.494 -91.614)" fill="#2186c4"/>
  <g id="Group_17782" data-name="Group 17782" transform="translate(73.507 51.109)">
    <path id="Path_9205" data-name="Path 9205" d="M973.681,148.277l.1-.1a1.916,1.916,0,0,0,.324-.434l1.174-2.1a3.306,3.306,0,0,0-.118-3.218,1.629,1.629,0,0,0-1.482-.877l-2.662.226a1.639,1.639,0,0,0-1.324,1.117,3.3,3.3,0,0,0,.394,3.2l1.49,1.876a1.878,1.878,0,0,0,.223.236l.1.087-1.49,45.134,6.315,6.874,4.354-7.506Z" transform="translate(-969.451 -141.538)" fill="#52587f"/>
  </g>
  <path id="Path_9206" data-name="Path 9206" d="M995.347,175.191a2.125,2.125,0,0,1-2.151,2.417,2.766,2.766,0,0,1-2.682-2.417,2.124,2.124,0,0,1,2.151-2.417A2.765,2.765,0,0,1,995.347,175.191Z" transform="translate(-891.81 -84.295)" fill="#52587f"/>
  <g id="Group_17818" data-name="Group 17818" transform="translate(17.034 87.242)">
    <g id="Group_17817" data-name="Group 17817">
      <path id="Path_9207" data-name="Path 9207" d="M998.3,185.441l.065,34.029a4.1,4.1,0,0,1-4.086,4.106l-68.137.218a3.744,3.744,0,0,1-3.755-3.733l-.141-44.376a3.746,3.746,0,0,1,3.735-3.759l58.542-.187a7.36,7.36,0,0,1,5.215,2.141l6.39,6.35A7.361,7.361,0,0,1,998.3,185.441Z" transform="translate(-922.247 -171.74)" fill="#fff"/>
      <g id="Group_17816" data-name="Group 17816" transform="translate(10.989 7.866)">
        <g id="Group_17793" data-name="Group 17793" transform="translate(33.965 0.098)">
          <g id="Group_17784" data-name="Group 17784" transform="translate(11.448)">
            <g id="Group_17783" data-name="Group 17783">
              <path id="Path_9208" data-name="Path 9208" d="M969.458,200.494l-.067-20.95c0-.63.694-1.144,1.553-1.147s1.558.506,1.559,1.138l.067,20.95c0,.63-.693,1.144-1.552,1.146S969.46,201.124,969.458,200.494Z" transform="translate(-969.391 -178.397)" fill="#d7e1fc"/>
            </g>
          </g>
          <g id="Group_17786" data-name="Group 17786" transform="translate(11.532 26.292)">
            <g id="Group_17785" data-name="Group 17785">
              <path id="Path_9209" data-name="Path 9209" d="M969.485,208.735l-.024-7.215c0-.63.694-1.144,1.553-1.146s1.558.506,1.559,1.137l.023,7.214c0,.63-.693,1.145-1.552,1.147S969.486,209.366,969.485,208.735Z" transform="translate(-969.461 -200.374)" fill="#d7e1fc"/>
            </g>
          </g>
          <g id="Group_17788" data-name="Group 17788" transform="translate(5.81 12.575)">
            <g id="Group_17787" data-name="Group 17787">
              <path id="Path_9210" data-name="Path 9210" d="M964.678,190.054,964.745,211c0,.63.7,1.139,1.559,1.137s1.555-.516,1.553-1.147l-.067-20.95c0-.63-.7-1.139-1.559-1.137S964.677,189.424,964.678,190.054Z" transform="translate(-964.678 -188.908)" fill="#d7e1fc"/>
            </g>
          </g>
          <g id="Group_17790" data-name="Group 17790" transform="translate(0 0.037)">
            <g id="Group_17789" data-name="Group 17789">
              <path id="Path_9211" data-name="Path 9211" d="M959.822,180.169l.1,31.854a1.565,1.565,0,1,0,3.112-.011l-.1-31.853a1.565,1.565,0,1,0-3.112.01Z" transform="translate(-959.822 -178.428)" fill="#d7e1fc"/>
            </g>
          </g>
          <g id="Group_17792" data-name="Group 17792" transform="translate(5.77 0.018)">
            <g id="Group_17791" data-name="Group 17791">
              <path id="Path_9212" data-name="Path 9212" d="M964.645,179.559l.023,7.215c0,.63.7,1.139,1.559,1.137s1.555-.517,1.553-1.147l-.023-7.214c0-.63-.7-1.14-1.56-1.138S964.643,178.929,964.645,179.559Z" transform="translate(-964.645 -178.412)" fill="#d7e1fc"/>
            </g>
          </g>
        </g>
        <g id="Group_17804" data-name="Group 17804">
          <g id="Group_17795" data-name="Group 17795" transform="translate(11.449)">
            <g id="Group_17794" data-name="Group 17794">
              <path id="Path_9213" data-name="Path 9213" d="M941.068,200.412,941,179.462c0-.63.693-1.145,1.552-1.147s1.558.506,1.559,1.137l.067,20.951c0,.63-.693,1.144-1.552,1.146S941.07,201.042,941.068,200.412Z" transform="translate(-941.002 -178.315)" fill="#d7e1fc"/>
            </g>
          </g>
          <g id="Group_17797" data-name="Group 17797" transform="translate(11.533 26.292)">
            <g id="Group_17796" data-name="Group 17796">
              <path id="Path_9214" data-name="Path 9214" d="M941.095,208.653l-.023-7.215c0-.63.693-1.144,1.552-1.146s1.558.506,1.559,1.137l.024,7.214c0,.63-.693,1.145-1.553,1.147S941.1,209.284,941.095,208.653Z" transform="translate(-941.072 -200.292)" fill="#d7e1fc"/>
            </g>
          </g>
          <g id="Group_17799" data-name="Group 17799" transform="translate(5.81 12.575)">
            <g id="Group_17798" data-name="Group 17798">
              <path id="Path_9215" data-name="Path 9215" d="M936.288,189.972l.067,20.951c0,.63.7,1.139,1.56,1.137s1.554-.517,1.552-1.147l-.067-20.95c0-.63-.7-1.139-1.559-1.137S936.287,189.342,936.288,189.972Z" transform="translate(-936.288 -188.826)" fill="#d7e1fc"/>
            </g>
          </g>
          <g id="Group_17801" data-name="Group 17801" transform="translate(0 0.037)">
            <g id="Group_17800" data-name="Group 17800">
              <path id="Path_9216" data-name="Path 9216" d="M931.432,180.087l.1,31.854a1.565,1.565,0,1,0,3.112-.011l-.1-31.853a1.566,1.566,0,1,0-3.113.01Z" transform="translate(-931.432 -178.346)" fill="#d7e1fc"/>
            </g>
          </g>
          <g id="Group_17803" data-name="Group 17803" transform="translate(5.77 0.018)">
            <g id="Group_17802" data-name="Group 17802">
              <path id="Path_9217" data-name="Path 9217" d="M936.255,179.477l.023,7.215c0,.63.7,1.139,1.56,1.137s1.554-.517,1.552-1.147l-.023-7.214c0-.63-.7-1.14-1.56-1.138S936.253,178.847,936.255,179.477Z" transform="translate(-936.255 -178.33)" fill="#d7e1fc"/>
            </g>
          </g>
        </g>
        <g id="Group_17815" data-name="Group 17815" transform="translate(17.124 0.152)">
          <g id="Group_17806" data-name="Group 17806" transform="translate(11.449)">
            <g id="Group_17805" data-name="Group 17805">
              <path id="Path_9218" data-name="Path 9218" d="M955.382,200.539l-.067-20.95c0-.63.693-1.145,1.553-1.147s1.557.506,1.559,1.137l.067,20.951c0,.63-.693,1.144-1.553,1.146S955.384,201.169,955.382,200.539Z" transform="translate(-955.315 -178.442)" fill="#d7e1fc"/>
            </g>
          </g>
          <g id="Group_17808" data-name="Group 17808" transform="translate(11.533 26.291)">
            <g id="Group_17807" data-name="Group 17807">
              <path id="Path_9219" data-name="Path 9219" d="M955.408,208.779l-.023-7.214c0-.63.693-1.144,1.552-1.147s1.558.507,1.56,1.138l.023,7.214c0,.63-.693,1.144-1.552,1.147S955.41,209.411,955.408,208.779Z" transform="translate(-955.385 -200.418)" fill="#d7e1fc"/>
            </g>
          </g>
          <g id="Group_17810" data-name="Group 17810" transform="translate(5.811 12.575)">
            <g id="Group_17809" data-name="Group 17809">
              <path id="Path_9220" data-name="Path 9220" d="M950.6,190.1l.067,20.951c0,.63.7,1.139,1.559,1.137s1.554-.517,1.553-1.147l-.067-20.95c0-.63-.7-1.14-1.559-1.137S950.6,189.469,950.6,190.1Z" transform="translate(-950.602 -188.953)" fill="#d7e1fc"/>
            </g>
          </g>
          <g id="Group_17812" data-name="Group 17812" transform="translate(0 0.037)">
            <g id="Group_17811" data-name="Group 17811">
              <path id="Path_9221" data-name="Path 9221" d="M945.745,179.619l.067,20.951c0,.63.7,1.139,1.559,1.137s1.554-.517,1.553-1.147l-.067-20.95c0-.63-.7-1.14-1.56-1.137S945.743,178.989,945.745,179.619Z" transform="translate(-945.745 -178.473)" fill="#d7e1fc"/>
            </g>
          </g>
          <g id="Group_17814" data-name="Group 17814" transform="translate(5.771 0.018)">
            <g id="Group_17813" data-name="Group 17813">
              <path id="Path_9222" data-name="Path 9222" d="M950.569,179.6l.023,7.214c0,.63.7,1.14,1.559,1.138s1.554-.517,1.553-1.147l-.024-7.214c0-.632-.7-1.14-1.559-1.138S950.567,178.974,950.569,179.6Z" transform="translate(-950.569 -178.457)" fill="#d7e1fc"/>
            </g>
          </g>
        </g>
      </g>
    </g>
  </g>
  <path id="Path_9223" data-name="Path 9223" d="M982.55,162.1H965.968a5.376,5.376,0,0,0-4.8,3.295l-1.071,2.315a6.021,6.021,0,0,1-5.369,3.69h-42.45c-2.36,0-4.275,2.181-4.275,4.87v47.382c0,2.691,1.914,4.87,4.275,4.87h69.166c2.36,0,4.273-2.18,4.273-4.87V165.722A3.416,3.416,0,0,0,982.55,162.1Z" transform="translate(-908.009 -86.39)" fill="#f9eddc"/>
  <g id="Group_17824" data-name="Group 17824" transform="translate(80.301 84.163)">
    <g id="Group_17819" data-name="Group 17819" transform="translate(8.191)">
      <path id="Path_9224" data-name="Path 9224" d="M982.22,169.537a1.12,1.12,0,0,0,.173,1.567l4.34,3.661a1.086,1.086,0,1,0,1.4-1.658l-4.339-3.661A1.118,1.118,0,0,0,982.22,169.537Z" transform="translate(-981.976 -169.166)" fill="#ff9985"/>
    </g>
    <path id="Path_9225" data-name="Path 9225" d="M983.567,182.114a4.833,4.833,0,0,1-2.254-1.237,2.808,2.808,0,0,1-.549-1.518,13.065,13.065,0,0,1,.134-4.092,3.817,3.817,0,0,1,2.537-3.2,6.481,6.481,0,0,1,4.777.5c2.637,1.33,3.566,1.829,4.772,3.937,1.507,2.639.9,4.94-3.267,5.416C987.571,182.174,985.506,182.722,983.567,182.114Z" transform="translate(-974.042 -168.646)" fill="#ff9985"/>
    <g id="Group_17820" data-name="Group 17820" transform="translate(0.458 3.287)">
      <path id="Path_9226" data-name="Path 9226" d="M984.758,173.92l-8.109,1.046a1.007,1.007,0,1,1-.258-2l8.109-1.046a1.007,1.007,0,1,1,.258,2Z" transform="translate(-975.512 -171.914)" fill="#ff9985"/>
    </g>
    <g id="Group_17821" data-name="Group 17821" transform="translate(0 6.096)">
      <path id="Path_9227" data-name="Path 9227" d="M984.373,176.268l-8.109,1.047a1.007,1.007,0,0,1-.257-2l8.109-1.047a1.007,1.007,0,1,1,.257,2Z" transform="translate(-975.129 -174.262)" fill="#ff9985"/>
    </g>
    <g id="Group_17822" data-name="Group 17822" transform="translate(1.515 8.957)">
      <path id="Path_9228" data-name="Path 9228" d="M985.64,178.659l-8.109,1.046a1.007,1.007,0,1,1-.258-2l8.109-1.047a1.007,1.007,0,1,1,.258,2Z" transform="translate(-976.395 -176.653)" fill="#ff9985"/>
    </g>
    <g id="Group_17823" data-name="Group 17823" transform="translate(3.844 11.024)">
      <path id="Path_9229" data-name="Path 9229" d="M987.588,180.387l-8.109,1.047a1.007,1.007,0,0,1-.258-2l8.109-1.047a1.007,1.007,0,0,1,.258,2Z" transform="translate(-978.342 -178.381)" fill="#ff9985"/>
    </g>
  </g>
  <g id="Group_17826" data-name="Group 17826" transform="translate(43.133 135.435)">
    <g id="Group_17825" data-name="Group 17825" transform="translate(2.539 4.773)">
      <path id="Path_9230" data-name="Path 9230" d="M947.77,224.287h13.347l-.319-.5a2.856,2.856,0,0,0-.145-.275l-2.863-4.342a7.057,7.057,0,0,0-9.746-2,4.161,4.161,0,0,0-1.18,5.746Z" transform="translate(-946.184 -216.013)" fill="#ff9985"/>
    </g>
    <path id="Path_9231" data-name="Path 9231" d="M944.062,217.091l3.34,4.25,7.59-3.176-4.928-6.142Z" transform="translate(-944.062 -212.023)" fill="#ff9985"/>
  </g>
  <path id="Path_9232" data-name="Path 9232" d="M944.366,144.091l-25.3,43.782a7.715,7.715,0,0,0-.572,1.169c-.56,1.445-1.7,4.881-.95,7.267.67,2.127,3.952,6.089,3.952,6.089l23.918,29.334a2.993,2.993,0,0,0,4.062.543l8.424-6.031a3.144,3.144,0,0,0,.7-4.431l-19.28-25.962a2.671,2.671,0,0,1-.085-3.064l12.794-19.363Z" transform="translate(-906.185 -89.927)" fill="#000543"/>
  <g id="Group_17827" data-name="Group 17827" transform="translate(31.916 82.711)">
    <path id="Path_9233" data-name="Path 9233" d="M945.97,228a.6.6,0,0,1-.348-1.085l8.424-6.03a2.547,2.547,0,0,0,.562-3.589l-19.28-25.961a3.279,3.279,0,0,1-.1-3.751l12.794-19.363a.6.6,0,1,1,1,.658l-12.794,19.364a2.078,2.078,0,0,0,.066,2.377l19.279,25.962a3.743,3.743,0,0,1-.827,5.275l-8.424,6.031A.6.6,0,0,1,945.97,228Z" transform="translate(-934.686 -167.952)" fill="#52587f"/>
  </g>
  <path id="Path_9234" data-name="Path 9234" d="M934.879,157.57c-.982,1.988-1.769,4.068-2.761,6.05-2.421,4.845-6,9-8.938,13.552a57.94,57.94,0,0,0-5.619,11.228,17.1,17.1,0,0,0-1.371,6.8c.223,4.1,2.889,7.608,5.441,10.827,7.791,9.825,15.81,19.856,26.5,26.409a292.637,292.637,0,0,1-23.659-33.9,11.876,11.876,0,0,1-1.829-4.277,10.444,10.444,0,0,1,1.072-5.46,65.986,65.986,0,0,1,5.892-10.386c6.131-9.315,12.7-18.331,19.033-27.51,1.164-1.688,2.368-3.534,2.313-5.585-.193-7.092-3.876-4.236-5.711-2.163C942.17,146.619,936.939,153.4,934.879,157.57Z" transform="translate(-906.405 -90.576)" fill="#000543"/>
  <g id="Group_17843" data-name="Group 17843" transform="translate(158.018 164.807)">
    <g id="Group_17830" data-name="Group 17830">
      <g id="Group_17828" data-name="Group 17828">
        <path id="Path_9235" data-name="Path 9235" d="M1081.718,236.707l-41.628-.133v2.165l41.615.133a1.083,1.083,0,0,0,.013-2.165Z" transform="translate(-1040.09 -236.574)" fill="#d7e1fc"/>
      </g>
      <g id="Group_17829" data-name="Group 17829" transform="translate(0 5.477)">
        <path id="Path_9236" data-name="Path 9236" d="M1104.379,241.4l-64.29-.246v2.164l64.275.248a1.083,1.083,0,0,0,.015-2.165Z" transform="translate(-1040.09 -241.152)" fill="#d7e1fc"/>
      </g>
    </g>
    <g id="Group_17834" data-name="Group 17834" transform="translate(0 40.038)">
      <g id="Group_17831" data-name="Group 17831">
        <path id="Path_9237" data-name="Path 9237" d="M1103.208,270.2l-63.118-.158V272.2l63.106.158a1.085,1.085,0,0,0,1.089-1.079A1.068,1.068,0,0,0,1103.208,270.2Z" transform="translate(-1040.09 -270.04)" fill="#d7e1fc"/>
      </g>
      <g id="Group_17832" data-name="Group 17832" transform="translate(10.905 5.577)">
        <path id="Path_9238" data-name="Path 9238" d="M1050.175,276.861a1.083,1.083,0,0,1,.116-2.159l23,.022a1.072,1.072,0,0,1,1.079,1.083,1.085,1.085,0,0,1-1.086,1.082l-23.005-.022A1.064,1.064,0,0,1,1050.175,276.861Z" transform="translate(-1049.205 -274.702)" fill="#d7e1fc"/>
      </g>
      <g id="Group_17833" data-name="Group 17833" transform="translate(0 5.497)">
        <path id="Path_9239" data-name="Path 9239" d="M1047.819,274.688l-7.729-.053V276.8l7.708.051a1.082,1.082,0,1,0,.021-2.164Z" transform="translate(-1040.09 -274.635)" fill="#d7e1fc"/>
      </g>
    </g>
    <g id="Group_17837" data-name="Group 17837" transform="translate(0 119.639)">
      <g id="Group_17835" data-name="Group 17835">
        <path id="Path_9240" data-name="Path 9240" d="M1103.932,336.736l-63.842-.16v2.164l63.831.16a1.082,1.082,0,1,0,.011-2.164Z" transform="translate(-1040.09 -336.576)" fill="#d7e1fc"/>
      </g>
      <g id="Group_17836" data-name="Group 17836" transform="translate(0 5.495)">
        <path id="Path_9241" data-name="Path 9241" d="M1048.543,341.225l-8.454-.056v2.165l8.433.056a1.083,1.083,0,1,0,.02-2.165Z" transform="translate(-1040.09 -341.169)" fill="#d7e1fc"/>
      </g>
    </g>
    <g id="Group_17842" data-name="Group 17842" transform="translate(0 77.342)">
      <g id="Group_17838" data-name="Group 17838" transform="translate(0 5.771)">
        <path id="Path_9242" data-name="Path 9242" d="M1103.918,306.206l-63.828-.16v2.164l63.817.16a1.082,1.082,0,0,0,.011-2.164Z" transform="translate(-1040.09 -306.046)" fill="#d7e1fc"/>
      </g>
      <g id="Group_17839" data-name="Group 17839" transform="translate(11.614 11.352)">
        <path id="Path_9243" data-name="Path 9243" d="M1050.768,312.87a1.083,1.083,0,0,1,.116-2.159l23.005.022a1.082,1.082,0,1,1-.008,2.164l-23-.022A1.084,1.084,0,0,1,1050.768,312.87Z" transform="translate(-1049.798 -310.711)" fill="#d7e1fc"/>
      </g>
      <g id="Group_17840" data-name="Group 17840" transform="translate(0 11.266)">
        <path id="Path_9244" data-name="Path 9244" d="M1048.528,310.7l-8.438-.056V312.8l8.418.057a1.083,1.083,0,1,0,.02-2.167Z" transform="translate(-1040.09 -310.639)" fill="#d7e1fc"/>
      </g>
      <g id="Group_17841" data-name="Group 17841">
        <path id="Path_9245" data-name="Path 9245" d="M1103.953,301.384l-63.864-.162v2.164l63.853.161a1.085,1.085,0,0,0,1.087-1.079A1.074,1.074,0,0,0,1103.953,301.384Z" transform="translate(-1040.09 -301.222)" fill="#d7e1fc"/>
      </g>
    </g>
  </g>
  <g id="Group_17845" data-name="Group 17845" transform="translate(140.384 10.712)">
    <g id="Group_17844" data-name="Group 17844">
      <path id="Path_9246" data-name="Path 9246" d="M1060.734,152.6l-26.019-.073c-.277,0-.556-.013-.833-.038a9.383,9.383,0,0,1-8.531-9.39l.135-25.957a9.434,9.434,0,0,1,9.432-9.374l26.019.073a9.378,9.378,0,0,1,9.364,9.43l-.135,25.956a9.432,9.432,0,0,1-9.432,9.374Zm-25.815-43.636a8.237,8.237,0,0,0-8.236,8.183l-.135,25.957a8.186,8.186,0,0,0,7.443,8.193c.242.022.483.033.727.033l25.991.073a8.235,8.235,0,0,0,8.261-8.183l.135-25.957a8.184,8.184,0,0,0-8.17-8.226l-25.991-.073Z" transform="translate(-1025.351 -107.771)" fill="#e3f4fc"/>
    </g>
  </g>
  <g id="Group_17846" data-name="Group 17846" transform="translate(151.059 20.861)">
    <path id="Path_9247" data-name="Path 9247" d="M1044.775,140.852a2.175,2.175,0,0,1-1.6-.944l-8.522-12.549a2.183,2.183,0,0,1,3.612-2.451l6.611,9.736,10.475-17.333a2.178,2.178,0,1,1,3.734,2.244l-12.238,20.25a2.194,2.194,0,0,1-1.811,1.055C1044.947,140.862,1044.859,140.86,1044.775,140.852Z" transform="translate(-1034.273 -116.254)" fill="#4db4e8"/>
  </g>
  <g id="Group_17847" data-name="Group 17847" transform="translate(115.352 59.302)">
    <path id="Path_9248" data-name="Path 9248" d="M1053.131,203.915h-.4a.449.449,0,0,1-.048-.895v-1.546a.449.449,0,0,1,.9,0v1.992A.449.449,0,0,1,1053.131,203.915Zm-2.793,0h-2.393a.449.449,0,0,1,0-.9h2.393a.449.449,0,1,1,0,.9Zm-4.785,0h-2.393a.449.449,0,0,1,0-.9h2.393a.449.449,0,0,1,0,.9Zm-4.786,0h-2.393a.449.449,0,1,1,0-.9h2.393a.449.449,0,0,1,0,.9Zm-4.786,0h-2.393a.449.449,0,0,1,0-.9h2.393a.449.449,0,0,1,0,.9Zm-4.785,0H1028.8a.449.449,0,0,1,0-.9h2.393a.449.449,0,0,1,0,.9Zm-4.786,0h-2.393a.449.449,0,0,1,0-.9h2.393a.449.449,0,0,1,0,.9Zm-4.786,0h-2.393a.449.449,0,0,1,0-.9h2.393a.449.449,0,0,1,0,.9Zm-4.786,0h-2.393a.449.449,0,0,1,0-.9h2.393a.449.449,0,1,1,0,.9Zm-4.785,0h-2.393a.449.449,0,0,1,0-.9h2.393a.449.449,0,0,1,0,.9Zm-4.786,0h-2.393a.449.449,0,1,1,0-.9h2.393a.449.449,0,0,1,0,.9Zm45.863-4.385a.449.449,0,0,1-.449-.449v-2.393a.449.449,0,0,1,.9,0v2.393A.449.449,0,0,1,1053.131,199.531Zm0-4.785a.449.449,0,0,1-.449-.449V191.9a.449.449,0,0,1,.9,0V194.3A.449.449,0,0,1,1053.131,194.745Zm0-4.785a.449.449,0,0,1-.449-.449v-2.393a.449.449,0,0,1,.9,0v2.393A.449.449,0,0,1,1053.131,189.96Zm0-4.785a.449.449,0,0,1-.449-.449v-2.393a.449.449,0,0,1,.9,0v2.393A.449.449,0,0,1,1053.131,185.174Zm0-4.785a.449.449,0,0,1-.449-.449v-2.393a.449.449,0,0,1,.9,0v2.393A.449.449,0,0,1,1053.131,180.389Zm0-4.785a.449.449,0,0,1-.449-.449v-2.393a.449.449,0,0,1,.9,0v2.393A.449.449,0,0,1,1053.131,175.6Zm0-4.785a.449.449,0,0,1-.449-.449v-2.393a.449.449,0,0,1,.9,0v2.393A.449.449,0,0,1,1053.131,170.818Zm0-4.785a.449.449,0,0,1-.449-.449v-2.393a.449.449,0,0,1,.9,0v2.393A.449.449,0,0,1,1053.131,166.032Zm0-4.785a.449.449,0,0,1-.449-.449v-2.393a.449.449,0,0,1,.9,0V160.8A.449.449,0,0,1,1053.131,161.247Zm0-4.785a.449.449,0,0,1-.449-.449V153.62a.449.449,0,0,1,.9,0v2.393A.449.449,0,0,1,1053.131,156.461Zm0-4.785a.449.449,0,0,1-.449-.449v-2.393a.449.449,0,0,1,.9,0v2.393A.449.449,0,0,1,1053.131,151.676Z" transform="translate(-1004.427 -148.386)" fill="#d7e1fc"/>
  </g>
</svg>
