<svg xmlns="http://www.w3.org/2000/svg" width="277.457" height="321.962" viewBox="0 0 277.457 321.962">
  <g id="img_project" transform="translate(-63.627 -359.161)">
    <g id="Group_17442" data-name="Group 17442">
      <g id="Group_17440" data-name="Group 17440">
        <path id="Path_8824" data-name="Path 8824" d="M166.81,539.932a10.1,10.1,0,0,0-15.379,0c-.022.025-.043.051-.064.076-2.8,3.337-4.381,8.039-2.9,12.136.76,2.105,2.285,4.012,2.3,6.249.025,3.792-4.04,6.078-6.3,9.121a10.821,10.821,0,0,0-1.259,10.444c1.331,3.16,4.232,5.893,3.992,9.313-.158,2.25-1.673,4.139-3.108,5.878-2.281,2.765-4.565,5.612-5.888,8.945s-1.569,7.275.186,10.4c1.447,2.58,4.149,4.484,4.835,7.362.674,2.826-.809,5.684-1.074,8.578-.5,5.46,3.786,10.691,9.08,12.1a14.585,14.585,0,0,0,7.113.033,3.4,3.4,0,0,1,1.555,0,14.585,14.585,0,0,0,7.113-.033c5.294-1.412,9.58-6.643,9.08-12.1-.264-2.894-1.748-5.752-1.074-8.578.686-2.878,3.388-4.782,4.836-7.362,1.754-3.127,1.508-7.07.185-10.4s-3.607-6.18-5.888-8.945c-1.435-1.739-2.95-3.628-3.108-5.878-.24-3.42,2.662-6.153,3.992-9.313a10.821,10.821,0,0,0-1.259-10.444c-2.26-3.043-6.325-5.329-6.3-9.121.016-2.237,1.542-4.144,2.3-6.249,1.48-4.1-.1-8.8-2.9-12.136Z" fill="#9ad0f4"/>
        <g id="Group_17439" data-name="Group 17439">
          <g id="Group_17427" data-name="Group 17427">
            <rect id="Rectangle_12761" data-name="Rectangle 12761" width="0.819" height="120.561" transform="translate(158.443 541.025)" fill="#63a5d3"/>
          </g>
          <g id="Group_17428" data-name="Group 17428">
            <rect id="Rectangle_12762" data-name="Rectangle 12762" width="0.819" height="11.013" transform="translate(152.3 550.412) rotate(-34.756)" fill="#63a5d3"/>
          </g>
          <g id="Group_17429" data-name="Group 17429">
            <rect id="Rectangle_12763" data-name="Rectangle 12763" width="0.82" height="20.592" transform="translate(149.068 572.832) rotate(-27.384)" fill="#63a5d3"/>
          </g>
          <g id="Group_17430" data-name="Group 17430">
            <rect id="Rectangle_12764" data-name="Rectangle 12764" width="0.819" height="6.269" transform="matrix(1, -0.019, 0.019, 1, 152.466, 572.839)" fill="#63a5d3"/>
          </g>
          <g id="Group_17431" data-name="Group 17431">
            <path id="Path_8825" data-name="Path 8825" d="M159.21,609.3l-.612-.544,13-14.668.612.544Z" fill="#63a5d3"/>
          </g>
          <g id="Group_17432" data-name="Group 17432">
            <path id="Path_8826" data-name="Path 8826" d="M165.1,602.251l-.8-.17,2.171-10.355.8.17Z" fill="#63a5d3"/>
          </g>
          <g id="Group_17433" data-name="Group 17433">
            <path id="Path_8827" data-name="Path 8827" d="M158.412,625.6,146.53,608.628l.67-.47,11.883,16.972Z" fill="#63a5d3"/>
          </g>
          <g id="Group_17434" data-name="Group 17434">
            <path id="Path_8828" data-name="Path 8828" d="M149.7,612.752l-2.35-10.741.8-.176,2.35,10.741Z" fill="#63a5d3"/>
          </g>
          <g id="Group_17435" data-name="Group 17435">
            <rect id="Rectangle_12765" data-name="Rectangle 12765" width="23.794" height="0.818" transform="matrix(0.536, -0.844, 0.844, 0.536, 158.58, 633.406)" fill="#63a5d3"/>
          </g>
          <g id="Group_17436" data-name="Group 17436">
            <path id="Path_8829" data-name="Path 8829" d="M168.56,619.049l-.8-.173,1.349-6.3.8.173Z" fill="#63a5d3"/>
          </g>
          <g id="Group_17437" data-name="Group 17437">
            <path id="Path_8830" data-name="Path 8830" d="M159.271,562.956l-.667-.477,7-9.8.667.477Z" fill="#63a5d3"/>
          </g>
          <g id="Group_17438" data-name="Group 17438">
            <rect id="Rectangle_12766" data-name="Rectangle 12766" width="7.68" height="0.818" transform="translate(163.426 555.923) rotate(-83.03)" fill="#63a5d3"/>
          </g>
        </g>
      </g>
      <g id="Group_17441" data-name="Group 17441">
        <rect id="Rectangle_12767" data-name="Rectangle 12767" width="30.66" height="22.354" rx="3.102" transform="translate(143.039 658.77)" fill="#d7e1fc"/>
      </g>
    </g>
    <g id="Group_17444" data-name="Group 17444">
      <g id="Group_17443" data-name="Group 17443">
        <path id="Path_8831" data-name="Path 8831" d="M189.606,680.474h110.5c10.335,0,18.793-9.165,18.891-20.471l2.117-243.49c.1-11.306-8.2-20.471-18.535-20.471h-110.5c-10.335,0-18.793,9.165-18.891,20.471L171.07,660C170.972,671.309,179.27,680.474,189.606,680.474Z" fill="#1e2962"/>
        <path id="Path_8832" data-name="Path 8832" d="M172.847,440.879c.046,0,.089.011.134.014l-.166,19.076c-.045,0-.088.014-.134.014a2.275,2.275,0,0,1-2.276-2.29l.126-14.524A2.324,2.324,0,0,1,172.847,440.879Z" fill="#1e2962"/>
        <path id="Path_8833" data-name="Path 8833" d="M172.274,461.553a2.237,2.237,0,0,1,.527.068l-.165,18.968a2.253,2.253,0,0,1-.528.068,2.277,2.277,0,0,1-2.277-2.29l.127-14.524A2.324,2.324,0,0,1,172.274,461.553Z" fill="#1e2962"/>
        <path id="Path_8834" data-name="Path 8834" d="M302.217,401.257H192.586c-8.022,0-14.587,7.247-14.663,16.187l-.079,9.133-.315,36.645-.149,17.3-.052,6.091-.439,51.083-.047,5.414-.429,49.855-.029,3.384-.247,28.763-.029,3.384-.243,28.225c0,.524.016,1.042.055,1.554a17.709,17.709,0,0,0,.593,3.384c1.818,6.524,7.261,11.248,13.737,11.248H299.881a13.274,13.274,0,0,0,5.664-1.271,15.583,15.583,0,0,0,7.479-7.837,17.754,17.754,0,0,0,1.521-7.078L315.52,543.3l.046-5.415.154-17.914.339-39.368.332-38.585.211-24.577C316.679,408.5,310.238,401.257,302.217,401.257Z" fill="#4db4e8"/>
      </g>
    </g>
    <g id="Group_17445" data-name="Group 17445">
      <path id="Path_8835" data-name="Path 8835" d="M132.977,492.073h-8.712l-1.452-16.609H134.3Z" fill="#000543"/>
      <rect id="Rectangle_12768" data-name="Rectangle 12768" width="6.313" height="4.138" rx="1.213" transform="translate(126.79 479.63)" fill="#f9ddaf"/>
      <path id="Path_8836" data-name="Path 8836" d="M134.46,475.464H122.78a.663.663,0,0,1,0-1.326h11.68a.663.663,0,0,1,0,1.326Z" fill="#f9ddaf"/>
      <path id="Rectangle_12769" data-name="Rectangle 12769" d="M1,0H4.146a1,1,0,0,1,1,1V2.41a1,1,0,0,1-1,1H1a1,1,0,0,1-1-1V1A1,1,0,0,1,1,0Z" transform="translate(128.62 471.808)" fill="#f9ddaf"/>
    </g>
    <g id="Group_17446" data-name="Group 17446">
      <path id="Path_8837" data-name="Path 8837" d="M100.62,659.589c2.3-12.861,5.441-25.474,8.684-38.184.18-.707.885-2.689,1.053-3.358l13.734,1.435c-2.812,9.59-14.845,39.216-18.83,56.235-.453,1.937-5.485,1.969-6.564-.938-.614-1.658.425-6.356.751-8.673C99.758,663.9,100.233,661.756,100.62,659.589Z" fill="#ff9985"/>
      <path id="Path_8838" data-name="Path 8838" d="M81.51,619.1l13.831.122c-5.035,37.783-9.192,55.127-9.677,55.88-2.523,3.915-6.4,4.5-7.413.554-.491-1.919.334-7.364.711-11.24C80.543,648.163,81.448,633.824,81.51,619.1Z" fill="#ff9985"/>
    </g>
    <g id="Group_17447" data-name="Group 17447">
      <path id="Path_8839" data-name="Path 8839" d="M98.612,565.36a48.694,48.694,0,0,0,19.678-5.144,3.154,3.154,0,0,0,1.826-2.859c3.25,11.445,7.183,30.352,7.355,42.089a56.964,56.964,0,0,1-2.032,15.15c-.286,1.133-.606,2.3-.946,3.5-.129.455-.266.92-.4,1.386,0,0-16.5-1.5-21.793-.193-9.813,2.429-20.788-.184-20.788-.184A372.326,372.326,0,0,0,76.7,559.811c-.033-.2.769-.419.748-.613h.163a2.854,2.854,0,0,0,.092.273C80.786,562.537,84.716,565.757,98.612,565.36Z" fill="#4db4e8"/>
    </g>
    <g id="Group_17448" data-name="Group 17448">
      <path id="Path_8840" data-name="Path 8840" d="M148.569,496.6A237.473,237.473,0,0,1,127.444,513a1.013,1.013,0,0,1-1.546-.55c-1.606-4.168-3.052-6.477-3.58-10.883-4.411,1.848-7.117,2.527-11.246,2.19l9.072,19.1a3.274,3.274,0,0,0,5.26,1.514c12.214-8.094,17.534-16.3,25.55-25.225C148.748,498.376,149.926,498.373,148.569,496.6Z" fill="#ff9985"/>
      <path id="Path_8841" data-name="Path 8841" d="M116.623,483.671l7.452,17.951a4.74,4.74,0,0,1-.433,4.492c-1.438,2.1-4.47,4.772-10.68,5.142C112.962,511.256,106.077,492.411,116.623,483.671Z" fill="#fbe9dc"/>
    </g>
    <g id="Group_17450" data-name="Group 17450">
      <g id="Group_17449" data-name="Group 17449">
        <path id="Path_8842" data-name="Path 8842" d="M102.565,502.226c-.944-3.783-1.717-7.639-2.337-11.088-1.726-9.6-14.163-9.187-17.571-2.358l8,18.211C94.828,507.641,98.89,505.291,102.565,502.226Z" fill="#267067"/>
      </g>
    </g>
    <path id="Path_8843" data-name="Path 8843" d="M119.056,527.761c-1.309-15.769,1.4-25.824.753-34.025a5.631,5.631,0,0,0-.078-.963,12.123,12.123,0,0,0-.286-1.326c0-.018-.006-.037-.01-.055-.326-1.173-.68-2.542-1.1-3.907a17.385,17.385,0,0,0-5.164-7.995c-8.707-7.619-17.1-4.394-22.876-.726l-1.988,1.328c-9.365,6.255-5.88,20.57-5.88,20.57,1.163,6.972,3.387,10.328,3.6,18.1.394,14.67-9.481,18.736-10.067,34.83,0,0-.335,7.17,1.627,9,5.621,5.234,10.131,6.543,17.039,4.418,10.22-3.145,17.21-.867,24.508-4.342a5.321,5.321,0,0,0,3-4.65C122.611,542.049,120.674,547.25,119.056,527.761Z" fill="#fbe9dc"/>
    <path id="Path_8844" data-name="Path 8844" d="M103.339,475.642a9.683,9.683,0,0,0-6.816,1.979,2.588,2.588,0,0,0,.068,4.147q3.27,2.924,6.44,5.929c1.226,1.163,3.265,1.021,3.913-.279a57.163,57.163,0,0,0,3.182-6.835C111.222,477.9,106.215,475.962,103.339,475.642Z" fill="#ff9985"/>
    <g id="Group_17453" data-name="Group 17453">
      <g id="Group_17451" data-name="Group 17451">
        <path id="Path_8845" data-name="Path 8845" d="M122.225,488.677q-.718,1.223-1.443,2.459c-4.5,7.671-9.151,15.6-14.013,22.242L105.8,514.7a.823.823,0,0,1-1.423-.156c-.813-1.9-2.251-5.231-2.577-5.863l-10.139,5.546c7.165,14.242,10.167,21.045,15.017,14.641,9.431-12.442,13.678-24.681,18.254-35.492.418-.988.822-2.01,1.218-2.937A5.639,5.639,0,0,1,122.225,488.677Z" fill="#ff9985"/>
        <path id="Path_8846" data-name="Path 8846" d="M122.156,487.36c-.576,1.114-1.684,3.368-1.611,4.62s-.042,1.053,1.017,1.725a3.492,3.492,0,0,0,4.033-.194c1.582-.98,4.716-5.126,5.05-6.957.377-2.072.91-3.542-1.666-3.6C124.144,482.847,123.092,485.552,122.156,487.36Z" fill="#ff9985"/>
      </g>
      <path id="Path_8847" data-name="Path 8847" d="M82.848,501.122l5.059,12.748a3.387,3.387,0,0,0,4.636,1.7l10.123-5.087a3.382,3.382,0,0,0,1.592-4.362c-2.6-6.028-7.631-18.253-7.631-18.253l-9.4,2.892C82.887,492.093,81.064,496.943,82.848,501.122Z" fill="#fbe9dc"/>
      <g id="Group_17452" data-name="Group 17452">
        <path id="Path_8848" data-name="Path 8848" d="M103.727,510.311a2.059,2.059,0,0,0,.437-2.075L97.8,490.114a.357.357,0,0,0-.455-.22.361.361,0,0,0-.219.455l6.363,18.123a1.337,1.337,0,0,1-.713,1.66l-3.217,1.445a.363.363,0,0,0-.179.473.359.359,0,0,0,.473.179l3.217-1.445A2.017,2.017,0,0,0,103.727,510.311Z" fill="#f9cdaf"/>
      </g>
    </g>
    <g id="Group_17455" data-name="Group 17455">
      <g id="Group_17454" data-name="Group 17454">
        <path id="Path_8849" data-name="Path 8849" d="M148.589,490.709a.829.829,0,0,1,.73.913l-.355,4.2a.828.828,0,0,1-.873.777c-.441-.037-.8-.184-.759-.649l.383-4.462A.83.83,0,0,1,148.589,490.709Z" fill="#ff9985"/>
      </g>
      <path id="Path_8850" data-name="Path 8850" d="M153.407,500.07c1.322-.866,3.059-1.729,1.22-5.392-1.373-2.733-4.246-1.84-5.767-.441a8.767,8.767,0,0,0-2.826,4.635c-.542,2.189.574,2.851,3.646,2.347A8.073,8.073,0,0,0,153.407,500.07Z" fill="#ff9985"/>
    </g>
    <g id="Group_17456" data-name="Group 17456">
      <path id="Path_8851" data-name="Path 8851" d="M98.528,672.964c.029-.1.191-.23.427-.359a8.951,8.951,0,0,0,12.717,2.632l3.668,1.332c3.285,1.192,2.035,4.541-1.679,4.493l-14.134-.179c-.678-.009-1.186-.429-1.06-.878Z" fill="#d7e1fc"/>
      <path id="Path_8852" data-name="Path 8852" d="M98.516,672.941c.936-1.313,3.172-1.329,3.68-1.145l9.476,3.441C107.492,678.282,101.03,677.148,98.516,672.941Z" fill="#ff9985"/>
    </g>
    <g id="Group_17457" data-name="Group 17457">
      <path id="Path_8853" data-name="Path 8853" d="M78.387,672.964c.03-.1.192-.23.428-.359a8.951,8.951,0,0,0,12.717,2.632l3.668,1.332c3.285,1.192,2.034,4.541-1.679,4.493l-14.134-.179c-.678-.009-1.186-.429-1.061-.878Z" fill="#d7e1fc"/>
      <path id="Path_8854" data-name="Path 8854" d="M78.375,672.941c.936-1.313,3.173-1.329,3.681-1.145l9.476,3.441C87.352,678.282,80.89,677.148,78.375,672.941Z" fill="#ff9985"/>
    </g>
    <g id="Group_17461" data-name="Group 17461">
      <g id="Group_17459" data-name="Group 17459">
        <g id="Group_17458" data-name="Group 17458">
          <path id="Path_8855" data-name="Path 8855" d="M218.618,426.364l-23.955-.045a2.885,2.885,0,0,0-2.89,2.876l-.153,47.963a2.637,2.637,0,0,0,2.627,2.644l31.238.1a2.637,2.637,0,0,0,2.646-2.629l.131-41.209a5.181,5.181,0,0,0-1.507-3.672l-4.47-4.5A5.185,5.185,0,0,0,218.618,426.364Z" fill="#fff"/>
        </g>
      </g>
      <g id="Group_17460" data-name="Group 17460">
        <path id="Path_8856" data-name="Path 8856" d="M208.994,462.413a1.437,1.437,0,0,1-1.129-.548l-4.936-6.249a1.438,1.438,0,0,1,2.257-1.783l3.619,4.581,5.483-9.546a1.439,1.439,0,0,1,2.5,1.433l-6.542,11.39a1.444,1.444,0,0,1-1.142.718C209.064,462.411,209.029,462.413,208.994,462.413Z" fill="#d7e1fc"/>
      </g>
    </g>
    <g id="Group_17465" data-name="Group 17465">
      <g id="Group_17463" data-name="Group 17463">
        <g id="Group_17462" data-name="Group 17462">
          <path id="Path_8857" data-name="Path 8857" d="M219.577,505.007l-23.955-.045a2.885,2.885,0,0,0-2.89,2.876l-.153,47.963a2.637,2.637,0,0,0,2.627,2.644l31.238.1a2.636,2.636,0,0,0,2.646-2.629l.131-41.209a5.182,5.182,0,0,0-1.507-3.672l-4.47-4.5A5.185,5.185,0,0,0,219.577,505.007Z" fill="#fff"/>
        </g>
      </g>
      <g id="Group_17464" data-name="Group 17464">
        <path id="Path_8858" data-name="Path 8858" d="M209.953,541.056a1.439,1.439,0,0,1-1.129-.547l-4.937-6.249a1.439,1.439,0,1,1,2.258-1.783l3.619,4.581,5.484-9.547a1.439,1.439,0,1,1,2.495,1.433l-6.542,11.39a1.441,1.441,0,0,1-1.142.718C210.023,541.055,209.988,541.056,209.953,541.056Z" fill="#d7e1fc"/>
      </g>
    </g>
    <g id="Group_17469" data-name="Group 17469">
      <g id="Group_17467" data-name="Group 17467">
        <g id="Group_17466" data-name="Group 17466">
          <path id="Path_8859" data-name="Path 8859" d="M219.577,584.609l-23.955-.045a2.885,2.885,0,0,0-2.89,2.876l-.153,47.963a2.636,2.636,0,0,0,2.627,2.644l31.238.1a2.636,2.636,0,0,0,2.646-2.629l.131-41.209a5.178,5.178,0,0,0-1.507-3.671l-4.47-4.5A5.185,5.185,0,0,0,219.577,584.609Z" fill="#fff"/>
        </g>
      </g>
      <g id="Group_17468" data-name="Group 17468">
        <path id="Path_8860" data-name="Path 8860" d="M209.953,620.658a1.439,1.439,0,0,1-1.129-.547l-4.937-6.25a1.439,1.439,0,0,1,2.258-1.783l3.619,4.582,5.484-9.547a1.439,1.439,0,1,1,2.495,1.433l-6.542,11.39a1.441,1.441,0,0,1-1.142.718C210.023,620.657,209.988,620.658,209.953,620.658Z" fill="#d7e1fc"/>
      </g>
    </g>
    <g id="Group_17470" data-name="Group 17470">
      <circle id="Ellipse_3054" data-name="Ellipse 3054" cx="29.749" cy="29.749" r="29.749" transform="translate(75.169 381.93) rotate(-22.5)" fill="#fff"/>
      <path id="Path_8861" data-name="Path 8861" d="M114.038,428.346a30.316,30.316,0,1,1,30.316-30.315A30.349,30.349,0,0,1,114.038,428.346Zm0-59.5a29.183,29.183,0,1,0,29.183,29.183A29.215,29.215,0,0,0,114.038,368.848Z" fill="#d7e1fc"/>
    </g>
    <g id="Group_17471" data-name="Group 17471">
      <path id="Path_8862" data-name="Path 8862" d="M113.428,373.078v0Z" fill="#fff"/>
      <path id="Path_8863" data-name="Path 8863" d="M113.428,400.146a1.133,1.133,0,0,1-1.133-1.133V373.078a1.133,1.133,0,1,1,2.266,0v25.935A1.133,1.133,0,0,1,113.428,400.146Z" fill="#d7e1fc"/>
    </g>
    <g id="Group_17472" data-name="Group 17472">
      <path id="Path_8864" data-name="Path 8864" d="M114.176,399.623h0Z" fill="#fff"/>
      <path id="Path_8865" data-name="Path 8865" d="M133.947,401.323H114.176a1.7,1.7,0,1,1,0-3.4h19.771a1.7,1.7,0,1,1,0,3.4Z" fill="#d7e1fc"/>
    </g>
    <g id="Group_17485" data-name="Group 17485">
      <g id="Group_17475" data-name="Group 17475">
        <g id="Group_17473" data-name="Group 17473">
          <path id="Path_8866" data-name="Path 8866" d="M279.631,452.038l-40.073-.16v2.6l40.06.16a1.335,1.335,0,0,0,.013-2.6Z" fill="#e3f4fc"/>
        </g>
        <g id="Group_17474" data-name="Group 17474">
          <path id="Path_8867" data-name="Path 8867" d="M301.446,458.761l-61.888-.3v2.6l61.875.3a1.334,1.334,0,0,0,.013-2.6Z" fill="#e3f4fc"/>
        </g>
      </g>
      <g id="Group_17479" data-name="Group 17479">
        <g id="Group_17476" data-name="Group 17476">
          <path id="Path_8868" data-name="Path 8868" d="M303.253,529.164l-63.695-.19v2.6l63.683.191a1.212,1.212,0,0,0,1.1-1.3A1.2,1.2,0,0,0,303.253,529.164Z" fill="#e3f4fc"/>
        </g>
        <g id="Group_17477" data-name="Group 17477">
          <path id="Path_8869" data-name="Path 8869" d="M251.542,538.277a1.234,1.234,0,0,1-.979-1.3,1.211,1.211,0,0,1,1.1-1.3l23.215.026a1.2,1.2,0,0,1,1.089,1.3,1.214,1.214,0,0,1-1.1,1.3l-23.215-.026A.974.974,0,0,1,251.542,538.277Z" fill="#e3f4fc"/>
        </g>
        <g id="Group_17478" data-name="Group 17478">
          <path id="Path_8870" data-name="Path 8870" d="M247.357,535.647l-7.8-.062v2.6l7.779.062a1.321,1.321,0,0,0,.02-2.6Z" fill="#e3f4fc"/>
        </g>
      </g>
      <g id="Group_17484" data-name="Group 17484">
        <g id="Group_17480" data-name="Group 17480">
          <path id="Path_8871" data-name="Path 8871" d="M300.637,612.794l-61.079-.192v2.6l61.068.193a1.336,1.336,0,0,0,.011-2.6Z" fill="#e3f4fc"/>
        </g>
        <g id="Group_17481" data-name="Group 17481">
          <path id="Path_8872" data-name="Path 8872" d="M251.6,621.908a1.224,1.224,0,0,1-.929-1.3,1.193,1.193,0,0,1,1.04-1.3l22.014.025a1.336,1.336,0,0,1-.007,2.6l-22.014-.025C251.67,621.914,251.635,621.912,251.6,621.908Z" fill="#e3f4fc"/>
        </g>
        <g id="Group_17482" data-name="Group 17482">
          <path id="Path_8873" data-name="Path 8873" d="M247.633,619.277l-8.075-.068v2.6l8.056.068a1.193,1.193,0,0,0,1.046-1.294A1.205,1.205,0,0,0,247.633,619.277Z" fill="#e3f4fc"/>
        </g>
        <g id="Group_17483" data-name="Group 17483">
          <path id="Path_8874" data-name="Path 8874" d="M300.672,605.856l-61.114-.194v2.6l61.1.194a1.335,1.335,0,0,0,.011-2.6Z" fill="#e3f4fc"/>
        </g>
      </g>
    </g>
    <g id="Group_17486" data-name="Group 17486">
      <path id="Path_8875" data-name="Path 8875" d="M340.3,612.85a.539.539,0,0,1-.54-.539v-2.038a.539.539,0,0,1,1.079,0v2.038A.539.539,0,0,1,340.3,612.85Zm0-4.915a.539.539,0,0,1-.54-.539v-2.877a.539.539,0,1,1,1.079,0V607.4A.539.539,0,0,1,340.3,607.935Zm0-5.754a.539.539,0,0,1-.54-.539v-2.878a.539.539,0,0,1,1.079,0v2.878A.539.539,0,0,1,340.3,602.181Zm0-5.754a.54.54,0,0,1-.54-.54V593.01a.539.539,0,0,1,1.079,0v2.877A.539.539,0,0,1,340.3,596.427Zm0-5.755a.539.539,0,0,1-.54-.539v-2.877a.539.539,0,1,1,1.079,0v2.877A.539.539,0,0,1,340.3,590.672Zm0-5.754a.54.54,0,0,1-.54-.539V581.5a.539.539,0,0,1,1.079,0v2.878A.539.539,0,0,1,340.3,584.918Zm0-5.754a.54.54,0,0,1-.54-.54v-2.877a.539.539,0,0,1,1.079,0v2.877A.539.539,0,0,1,340.3,579.164Zm0-5.755a.539.539,0,0,1-.54-.539v-2.877a.539.539,0,1,1,1.079,0v2.877A.539.539,0,0,1,340.3,573.409Zm0-5.754a.54.54,0,0,1-.54-.54v-2.877a.539.539,0,0,1,1.079,0v2.877A.539.539,0,0,1,340.3,567.655Zm0-5.755a.539.539,0,0,1-.54-.539v-2.877a.539.539,0,1,1,1.079,0v2.877A.539.539,0,0,1,340.3,561.9Zm0-5.754a.54.54,0,0,1-.54-.539v-2.878a.539.539,0,0,1,1.079,0v2.878A.539.539,0,0,1,340.3,556.146Zm0-5.754a.54.54,0,0,1-.54-.54v-2.877a.539.539,0,0,1,1.079,0v2.877A.539.539,0,0,1,340.3,550.392Zm0-5.755a.539.539,0,0,1-.54-.539v-2.877a.539.539,0,1,1,1.079,0V544.1A.539.539,0,0,1,340.3,544.637Zm0-5.754a.54.54,0,0,1-.54-.539v-2.878a.539.539,0,0,1,1.079,0v2.878A.539.539,0,0,1,340.3,538.883Zm0-5.754a.54.54,0,0,1-.54-.54v-2.877a.539.539,0,1,1,1.079,0v2.877A.539.539,0,0,1,340.3,533.129Zm0-5.755a.539.539,0,0,1-.54-.539v-2.877a.539.539,0,1,1,1.079,0v2.877A.539.539,0,0,1,340.3,527.374Zm0-5.754a.54.54,0,0,1-.54-.54V518.2a.539.539,0,0,1,1.079,0v2.877A.539.539,0,0,1,340.3,521.62Zm0-5.755a.539.539,0,0,1-.54-.539v-2.877a.539.539,0,1,1,1.079,0v2.877A.539.539,0,0,1,340.3,515.865Zm0-5.754a.54.54,0,0,1-.54-.539v-2.878a.539.539,0,0,1,1.079,0v2.878A.539.539,0,0,1,340.3,510.111Zm0-5.754a.54.54,0,0,1-.54-.54V500.94a.539.539,0,0,1,1.079,0v2.877A.539.539,0,0,1,340.3,504.357Zm0-5.755a.539.539,0,0,1-.54-.539v-2.877a.539.539,0,1,1,1.079,0v2.877A.539.539,0,0,1,340.3,498.6Zm0-5.754a.54.54,0,0,1-.54-.539v-2.878a.539.539,0,0,1,1.079,0v2.878A.539.539,0,0,1,340.3,492.848Zm0-5.754a.54.54,0,0,1-.54-.54v-2.877a.539.539,0,1,1,1.079,0v2.877A.539.539,0,0,1,340.3,487.094Zm0-5.755a.539.539,0,0,1-.54-.539v-2.877a.539.539,0,1,1,1.079,0V480.8A.539.539,0,0,1,340.3,481.339Zm0-5.754a.54.54,0,0,1-.54-.54v-2.877a.539.539,0,0,1,1.079,0v2.877A.539.539,0,0,1,340.3,475.585Zm0-5.755a.539.539,0,0,1-.54-.539v-2.877a.539.539,0,1,1,1.079,0v2.877A.539.539,0,0,1,340.3,469.83Zm0-5.754a.54.54,0,0,1-.54-.539v-2.878a.539.539,0,0,1,1.079,0v2.878A.539.539,0,0,1,340.3,464.076Zm0-5.754a.54.54,0,0,1-.54-.54V454.9a.539.539,0,0,1,1.079,0v2.877A.539.539,0,0,1,340.3,458.322Zm0-5.755a.539.539,0,0,1-.54-.539v-2.877a.539.539,0,1,1,1.079,0v2.877A.539.539,0,0,1,340.3,452.567Zm0-5.754a.54.54,0,0,1-.54-.539V443.4a.539.539,0,0,1,1.079,0v2.878A.539.539,0,0,1,340.3,446.813Zm0-5.754a.54.54,0,0,1-.54-.54v-2.877a.539.539,0,1,1,1.079,0v2.877A.539.539,0,0,1,340.3,441.059Zm0-5.755a.539.539,0,0,1-.54-.539v-2.877a.539.539,0,1,1,1.079,0v2.877A.539.539,0,0,1,340.3,435.3Zm0-5.754a.54.54,0,0,1-.54-.54v-2.877a.539.539,0,0,1,1.079,0v2.877A.539.539,0,0,1,340.3,429.55Zm0-5.755a.539.539,0,0,1-.54-.539v-2.877a.539.539,0,1,1,1.079,0v2.877A.539.539,0,0,1,340.3,423.8Zm0-5.754a.54.54,0,0,1-.54-.539v-2.878a.539.539,0,0,1,1.079,0V417.5A.539.539,0,0,1,340.3,418.041Zm0-5.754a.54.54,0,0,1-.54-.54V408.87a.539.539,0,0,1,1.079,0v2.877A.539.539,0,0,1,340.3,412.287Zm0-5.755a.539.539,0,0,1-.54-.539v-2.877a.539.539,0,1,1,1.079,0v2.877A.539.539,0,0,1,340.3,406.532Zm0-5.754a.54.54,0,0,1-.54-.539v-2.878a.539.539,0,0,1,1.079,0v2.878A.539.539,0,0,1,340.3,400.778Zm0-5.754a.54.54,0,0,1-.54-.54v-2.877a.539.539,0,1,1,1.079,0v2.877A.539.539,0,0,1,340.3,395.024Zm0-5.755a.539.539,0,0,1-.54-.539v-2.877a.539.539,0,1,1,1.079,0v2.877A.539.539,0,0,1,340.3,389.269Zm0-5.754a.54.54,0,0,1-.54-.54V380.1a.539.539,0,0,1,1.079,0v2.877A.539.539,0,0,1,340.3,383.515Zm0-5.755a.539.539,0,0,1-.54-.539v-2.877a.539.539,0,1,1,1.079,0v2.877A.539.539,0,0,1,340.3,377.76Zm-2.4-3.356h-2.878a.539.539,0,0,1,0-1.079h2.878a.539.539,0,0,1,0,1.079Zm-5.755,0h-2.877a.539.539,0,1,1,0-1.079h2.877a.539.539,0,1,1,0,1.079Zm-5.754,0H323.52a.539.539,0,0,1,0-1.079H326.4a.539.539,0,0,1,0,1.079Zm-5.755,0h-2.877a.539.539,0,0,1,0-1.079h2.877a.539.539,0,1,1,0,1.079Zm-5.754,0h-2.877a.539.539,0,1,1,0-1.079h2.877a.539.539,0,0,1,0,1.079Zm-5.754,0h-2.878a.539.539,0,0,1,0-1.079h2.878a.539.539,0,0,1,0,1.079Zm-5.755,0H300.5a.539.539,0,1,1,0-1.079h2.877a.539.539,0,1,1,0,1.079Zm-5.754,0h-2.877a.539.539,0,1,1,0-1.079h2.877a.539.539,0,0,1,0,1.079Zm-5.754,0h-2.878a.539.539,0,0,1,0-1.079h2.878a.539.539,0,0,1,0,1.079Zm-5.755,0H283.24a.539.539,0,1,1,0-1.079h2.877a.539.539,0,1,1,0,1.079Zm-5.754,0h-2.878a.539.539,0,0,1,0-1.079h2.878a.539.539,0,0,1,0,1.079Zm-5.755,0h-2.877a.539.539,0,0,1,0-1.079h2.877a.539.539,0,1,1,0,1.079Zm-5.754,0h-2.877a.539.539,0,1,1,0-1.079h2.877a.539.539,0,0,1,0,1.079Zm-5.754,0h-2.878a.539.539,0,0,1,0-1.079H263.1a.539.539,0,0,1,0,1.079Zm-5.755,0h-2.877a.539.539,0,0,1,0-1.079h2.877a.539.539,0,1,1,0,1.079Zm-5.754,0h-2.877a.539.539,0,1,1,0-1.079h2.877a.539.539,0,0,1,0,1.079Zm-5.755,0h-2.877a.539.539,0,0,1,0-1.079h2.877a.539.539,0,1,1,0,1.079Zm-5.754,0h-2.877a.539.539,0,1,1,0-1.079h2.877a.539.539,0,1,1,0,1.079Zm-5.754,0H231.45a.539.539,0,0,1,0-1.079h2.878a.539.539,0,0,1,0,1.079Zm-5.755,0H225.7a.539.539,0,0,1,0-1.079h2.877a.539.539,0,1,1,0,1.079Zm-5.754,0h-2.877a.539.539,0,1,1,0-1.079h2.877a.539.539,0,0,1,0,1.079Zm-5.754,0h-2.878a.539.539,0,0,1,0-1.079h2.878a.539.539,0,0,1,0,1.079Zm-5.755,0h-2.877a.539.539,0,1,1,0-1.079h2.877a.539.539,0,1,1,0,1.079Zm-5.754,0h-2.877a.539.539,0,1,1,0-1.079h2.877a.539.539,0,0,1,0,1.079Zm-5.755,0h-2.877a.539.539,0,0,1,0-1.079H199.8a.539.539,0,1,1,0,1.079Zm-5.754,0H191.17a.539.539,0,1,1,0-1.079h2.877a.539.539,0,0,1,0,1.079Zm-5.754,0h-2.877a.539.539,0,1,1,0-1.079h2.877a.539.539,0,0,1,0,1.079Zm-5.755,0h-2.877a.539.539,0,0,1,0-1.079h2.877a.539.539,0,1,1,0,1.079Zm-5.754,0h-2.877a.539.539,0,1,1,0-1.079h2.877a.539.539,0,0,1,0,1.079Zm-5.755,0h-2.877a.539.539,0,0,1,0-1.079h2.877a.539.539,0,1,1,0,1.079Zm-5.754,0H162.4a.539.539,0,1,1,0-1.079h2.877a.539.539,0,1,1,0,1.079Zm-5.754,0h-2.877a.539.539,0,1,1,0-1.079h2.877a.539.539,0,0,1,0,1.079Zm-5.755,0h-2.877a.539.539,0,0,1,0-1.079h2.877a.539.539,0,1,1,0,1.079Zm-5.754,0h-2.877a.539.539,0,1,1,0-1.079h2.877a.539.539,0,0,1,0,1.079Z" fill="#d7e1fc"/>
    </g>
    <g id="Group_17487" data-name="Group 17487">
      <path id="Path_8876" data-name="Path 8876" d="M340.544,460.838h-2.4a.539.539,0,1,1,0-1.078h2.4a.539.539,0,1,1,0,1.078Zm-5.275,0h-2.877a.539.539,0,1,1,0-1.078h2.877a.539.539,0,1,1,0,1.078Zm-5.755,0h-2.877a.539.539,0,0,1,0-1.078h2.877a.539.539,0,1,1,0,1.078Z" fill="#d7e1fc"/>
    </g>
    <g id="Group_17488" data-name="Group 17488">
      <path id="Path_8877" data-name="Path 8877" d="M340.184,532.049h-2.4a.54.54,0,0,1,0-1.079h2.4a.54.54,0,1,1,0,1.079Zm-5.275,0h-2.877a.54.54,0,1,1,0-1.079h2.877a.54.54,0,1,1,0,1.079Zm-5.754,0h-2.877a.54.54,0,1,1,0-1.079h2.877a.54.54,0,0,1,0,1.079Z" fill="#d7e1fc"/>
    </g>
    <g id="Group_17489" data-name="Group 17489">
      <path id="Path_8878" data-name="Path 8878" d="M339.825,613.329h-2.4a.539.539,0,1,1,0-1.078h2.4a.539.539,0,1,1,0,1.078Zm-5.275,0h-2.878a.539.539,0,0,1,0-1.078h2.878a.539.539,0,1,1,0,1.078Zm-5.755,0h-2.877a.539.539,0,1,1,0-1.078H328.8a.539.539,0,1,1,0,1.078Z" fill="#d7e1fc"/>
    </g>
    <g id="Group_17490" data-name="Group 17490">
      <path id="Path_8879" data-name="Path 8879" d="M104.532,467.431l.326,2.174a2.776,2.776,0,0,0,.664-.244,2.978,2.978,0,0,0,1.269-2.245,9.349,9.349,0,0,1-1.042.221A9.489,9.489,0,0,1,104.532,467.431Z" fill="#000543"/>
      <path id="Path_8880" data-name="Path 8880" d="M95.333,461.833a2.508,2.508,0,0,1-1.938-.748,9.508,9.508,0,0,0,2.03-2.741c.895-1.841,1.183-3.932,2.033-5.794a14.513,14.513,0,0,1,10.145-7.726c.592-.132,1.489-.3,1.566-1.037a1.717,1.717,0,0,0-.265-.854,9.323,9.323,0,0,1,3.7,6.1l.963,6.412c1.437-4.495.986-8.92-1.769-12.329-3.83-4.739-11.166-6.376-18.994-4.958-.063-.057-.094-.12-.16-.176a8.359,8.359,0,0,0-5.735-1.737c-3.978.031-5.554,3.126-8.884,3.567-1.274.168-2.471-.592-3.754-.567a4.652,4.652,0,0,0-3.693,2.674c-.737,1.328-1.19,2.815-2.315,3.916-.965.941-2.323,1.495-3.366,2.368s-1.73,2.36-.9,3.365c.391.478,1.046.745,1.437,1.22,1.1,1.342-.418,3.115-1.094,4.689a4.766,4.766,0,0,0,1.069,5.241c1.005.993,2.547,1.8,2.609,3.142.047,1.059-.907,2.113-.527,3.113.559,1.467,3.158,1.173,4.4,2.261.87.767.841,2,1.145,3.055a5.7,5.7,0,0,0,4.855,3.8c1.224.139,2.544-.052,3.645.427,1.422.62,2.117,2.214,3.634,2.629,3.155.857,4.277-2.477,6.671-4.171,1.5-1.064,3.575-1.464,5.474-1.982Z" fill="#000543"/>
      <path id="Path_8881" data-name="Path 8881" d="M113.568,455.447l-.963-6.412a9.323,9.323,0,0,0-3.7-6.1,1.717,1.717,0,0,1,.265.854c-.077.741-.974.9-1.566,1.037a14.513,14.513,0,0,0-10.145,7.726c-.85,1.862-1.138,3.953-2.033,5.794a9.508,9.508,0,0,1-2.03,2.741,2.508,2.508,0,0,0,1.938.748l1.974,13.156.734,4.892c.146.969.878,1.67,1.627,1.557l5.449-.817a1.623,1.623,0,0,0,1.1-1.966l-1.357-9.05-.326-2.174a9.489,9.489,0,0,0,1.217-.094,9.349,9.349,0,0,0,1.042-.221,9.506,9.506,0,0,0,6.945-10.547Zm-12.222-5.52,2.282-.354a.613.613,0,1,1,.188,1.212l-2.282.354a.613.613,0,0,1-.188-1.212Zm2.537,3.578c.09.58-.142,1.1-.519,1.155s-.754-.364-.844-.943.143-1.1.519-1.155l1.16-.18-.478.653A1.443,1.443,0,0,1,103.883,453.505Zm8.195-1.27c.09.579-.142,1.1-.519,1.154s-.754-.364-.844-.943.143-1.1.519-1.154l1.16-.18-.477.652A1.48,1.48,0,0,1,112.078,452.235Zm-1.874-3.681,1.771-.275c.259-.04.513.2.565.533a.559.559,0,0,1-.377.679l-1.772.275c-.259.04-.513-.2-.564-.533A.558.558,0,0,1,110.2,448.554Zm-2.784,8.662a.749.749,0,0,0,.917.242l.967-.49a1.182,1.182,0,0,0,.583-1.124l.106.191a1.288,1.288,0,0,1-.425,1.76l-.968.489c-.558.282-1.2-.236-1.183-.95Zm2.741,2.878a1.723,1.723,0,0,1-1.927,1.506c-1.425.028-1.594-.6-1.776-1.227Z" fill="#ff9985"/>
      <path id="Path_8882" data-name="Path 8882" d="M101.534,451.139l2.282-.354a.613.613,0,1,0-.188-1.212l-2.282.354a.613.613,0,0,0,.188,1.212Z" fill="#000543"/>
      <path id="Path_8883" data-name="Path 8883" d="M110.391,449.766l1.772-.275a.559.559,0,0,0,.377-.679c-.052-.333-.306-.573-.565-.533l-1.771.275a.558.558,0,0,0-.377.679C109.878,449.566,110.132,449.806,110.391,449.766Z" fill="#000543"/>
      <path id="Path_8884" data-name="Path 8884" d="M108.6,458.284l.968-.489a1.288,1.288,0,0,0,.425-1.76l-.106-.191a1.182,1.182,0,0,1-.583,1.124l-.967.49a.749.749,0,0,1-.917-.242l0,.118C107.4,458.048,108.042,458.566,108.6,458.284Z" fill="#fa694f"/>
      <path id="Path_8885" data-name="Path 8885" d="M103.039,452.562c-.376.058-.609.575-.519,1.155s.468,1,.844.943.609-.575.519-1.155a1.443,1.443,0,0,0-.162-.47l.478-.653Z" fill="#000543"/>
      <path id="Path_8886" data-name="Path 8886" d="M111.234,451.292c-.376.058-.609.575-.519,1.154s.468,1,.844.943.609-.575.519-1.154a1.48,1.48,0,0,0-.161-.471l.477-.652Z" fill="#000543"/>
      <path id="Path_8887" data-name="Path 8887" d="M108.234,461.6a1.723,1.723,0,0,0,1.927-1.506l-3.7.279C106.64,461,106.809,461.628,108.234,461.6Z" fill="#fff"/>
    </g>
  </g>
</svg>
