<svg xmlns="http://www.w3.org/2000/svg" width="257.16" height="264.619" viewBox="0 0 257.16 264.619">
  <g id="img_template" transform="translate(-6683.35 -1207.643)">
    <g id="Group_16953" data-name="Group 16953" transform="translate(6850.059 1228.19)">
      <g id="Group_16948" data-name="Group 16948" transform="translate(0 0)">
        <path id="Path_8229" data-name="Path 8229" d="M213.018,449.312h-.984a.369.369,0,1,1,0-.739h.984a.369.369,0,0,1,0,.739Z" transform="translate(-211.664 -448.573)" fill="#4db4e8"/>
      </g>
      <g id="Group_16949" data-name="Group 16949" transform="translate(2.966 0)">
        <path id="Path_8230" data-name="Path 8230" d="M268.362,449.312H266.38a.369.369,0,0,1,0-.739h1.981a.369.369,0,0,1,0,.739Zm-3.964,0h-1.981a.369.369,0,0,1,0-.739H264.4a.369.369,0,1,1,0,.739Zm-3.963,0h-1.981a.369.369,0,1,1,0-.739h1.981a.369.369,0,0,1,0,.739Zm-3.964,0H254.49a.369.369,0,0,1,0-.739h1.981a.369.369,0,0,1,0,.739Zm-3.964,0h-1.981a.369.369,0,0,1,0-.739h1.981a.369.369,0,1,1,0,.739Zm-3.963,0h-1.981a.369.369,0,1,1,0-.739h1.981a.369.369,0,0,1,0,.739Zm-3.964,0H242.6a.369.369,0,0,1,0-.739h1.981a.369.369,0,0,1,0,.739Zm-3.964,0h-1.981a.369.369,0,0,1,0-.739h1.981a.369.369,0,1,1,0,.739Zm-3.963,0h-1.981a.369.369,0,1,1,0-.739h1.981a.369.369,0,0,1,0,.739Zm-3.964,0h-1.981a.369.369,0,0,1,0-.739h1.981a.369.369,0,0,1,0,.739Zm-3.964,0h-1.981a.369.369,0,0,1,0-.739h1.981a.369.369,0,1,1,0,.739Zm-3.963,0h-1.981a.369.369,0,1,1,0-.739h1.981a.369.369,0,0,1,0,.739Zm-3.964,0h-1.981a.369.369,0,0,1,0-.739H220.8a.369.369,0,0,1,0,.739Zm-3.964,0h-1.981a.369.369,0,0,1,0-.739h1.981a.369.369,0,1,1,0,.739Z" transform="translate(-214.486 -448.573)" fill="#4db4e8"/>
      </g>
      <g id="Group_16950" data-name="Group 16950" transform="translate(58.454 0)">
        <path id="Path_8231" data-name="Path 8231" d="M268.629,450.3a.369.369,0,0,1-.369-.369v-.615h-.615a.369.369,0,1,1,0-.739h.984a.369.369,0,0,1,.369.369v.985A.369.369,0,0,1,268.629,450.3Z" transform="translate(-267.275 -448.573)" fill="#4db4e8"/>
      </g>
      <g id="Group_16951" data-name="Group 16951" transform="translate(59.439 2.956)">
        <path id="Path_8232" data-name="Path 8232" d="M268.581,517.177a.369.369,0,0,1-.369-.369v-1.971a.369.369,0,1,1,.738,0v1.971A.369.369,0,0,1,268.581,517.177Zm0-3.943a.369.369,0,0,1-.369-.369v-1.971a.369.369,0,1,1,.738,0v1.971A.369.369,0,0,1,268.581,513.235Zm0-3.943a.369.369,0,0,1-.369-.369v-1.971a.369.369,0,0,1,.738,0v1.971A.369.369,0,0,1,268.581,509.292Zm0-3.942a.369.369,0,0,1-.369-.369v-1.972a.369.369,0,1,1,.738,0v1.972A.369.369,0,0,1,268.581,505.35Zm0-3.943a.369.369,0,0,1-.369-.369v-1.972a.369.369,0,1,1,.738,0v1.972A.369.369,0,0,1,268.581,501.407Zm0-3.943a.369.369,0,0,1-.369-.369v-1.972a.369.369,0,1,1,.738,0V497.1A.369.369,0,0,1,268.581,497.464Zm0-3.943a.369.369,0,0,1-.369-.369v-1.971a.369.369,0,1,1,.738,0v1.971A.369.369,0,0,1,268.581,493.522Zm0-3.943a.369.369,0,0,1-.369-.369v-1.971a.369.369,0,1,1,.738,0v1.971A.369.369,0,0,1,268.581,489.579Zm0-3.943a.369.369,0,0,1-.369-.369V483.3a.369.369,0,1,1,.738,0v1.971A.369.369,0,0,1,268.581,485.636Zm0-3.943a.369.369,0,0,1-.369-.369v-1.971a.369.369,0,1,1,.738,0v1.971A.369.369,0,0,1,268.581,481.693Zm0-3.943a.369.369,0,0,1-.369-.369v-1.971a.369.369,0,1,1,.738,0v1.971A.369.369,0,0,1,268.581,477.75Zm0-3.942a.369.369,0,0,1-.369-.369v-1.972a.369.369,0,0,1,.738,0v1.972A.369.369,0,0,1,268.581,473.809Zm0-3.943a.37.37,0,0,1-.369-.37v-1.971a.369.369,0,0,1,.738,0V469.5A.37.37,0,0,1,268.581,469.866Zm0-3.943a.37.37,0,0,1-.369-.37v-1.971a.369.369,0,1,1,.738,0v1.971A.37.37,0,0,1,268.581,465.923Zm0-3.943a.37.37,0,0,1-.369-.37v-1.971a.369.369,0,1,1,.738,0v1.971A.37.37,0,0,1,268.581,461.98Zm0-3.943a.369.369,0,0,1-.369-.369V455.7a.369.369,0,1,1,.738,0v1.971A.369.369,0,0,1,268.581,458.038Zm0-3.943a.369.369,0,0,1-.369-.369v-1.971a.369.369,0,1,1,.738,0v1.971A.369.369,0,0,1,268.581,454.095Z" transform="translate(-268.212 -451.385)" fill="#4db4e8"/>
      </g>
      <g id="Group_16952" data-name="Group 16952" transform="translate(59.439 69.981)">
        <path id="Path_8233" data-name="Path 8233" d="M268.581,516.873a.369.369,0,0,1-.369-.369v-.984a.369.369,0,1,1,.738,0v.984A.369.369,0,0,1,268.581,516.873Z" transform="translate(-268.212 -515.15)" fill="#4db4e8"/>
      </g>
    </g>
    <g id="Group_16957" data-name="Group 16957" transform="translate(6752.612 1399.823)">
      <g id="Group_16954" data-name="Group 16954" transform="translate(0 0)">
        <path id="Path_8234" data-name="Path 8234" d="M120.027,683.527a1.066,1.066,0,0,0,1.053-.909l10.39-69.535a1.067,1.067,0,0,0-2.111-.315L118.97,682.3a1.068,1.068,0,0,0,.9,1.213A1.027,1.027,0,0,0,120.027,683.527Z" transform="translate(-118.958 -611.857)" fill="#6d72a0"/>
      </g>
      <g id="Group_16955" data-name="Group 16955" transform="translate(68.783)">
        <path id="Path_8235" data-name="Path 8235" d="M195.85,683.527a1.027,1.027,0,0,0,.16-.012,1.068,1.068,0,0,0,.9-1.213l-10.39-69.535a1.067,1.067,0,0,0-2.111.315l10.39,69.535A1.066,1.066,0,0,0,195.85,683.527Z" transform="translate(-184.395 -611.857)" fill="#6d72a0"/>
      </g>
      <g id="Group_16956" data-name="Group 16956" transform="translate(34.091)">
        <path id="Path_8236" data-name="Path 8236" d="M162.846,683.527a1.023,1.023,0,0,0,.159-.012,1.067,1.067,0,0,0,.9-1.213l-10.39-69.535a1.067,1.067,0,0,0-2.111.315l10.39,69.535A1.067,1.067,0,0,0,162.846,683.527Z" transform="translate(-151.39 -611.857)" fill="#6d72a0"/>
      </g>
    </g>
    <path id="Path_8237" data-name="Path 8237" d="M120.416,500.649h45.125c4.575,0,8.793,4.085,9.373,9.078L186.586,610.2H125.239l-12.086-100.47C112.572,504.734,115.841,500.649,120.416,500.649Z" transform="translate(6633.354 782.279)" fill="#f9cdaf"/>
    <path id="Path_8238" data-name="Path 8238" d="M130.766,610.2l-10.771-100.47c-.535-4.993,2.481-9.078,6.7-9.078h41.636c4.221,0,8.113,4.085,8.648,9.078L187.752,610.2Z" transform="translate(6633.704 782.279)" fill="#fbe9dc"/>
    <path id="Path_8239" data-name="Path 8239" d="M196.5,608.772c-4.251-26.93-13.532-68.532-15.134-78.385l2.907-15.85c-5.506-12.181-23.651-13.317-23.651-13.317l26.664,107.552Z" transform="translate(6635.785 782.309)" fill="#2186c4"/>
    <g id="Group_16958" data-name="Group 16958" transform="translate(6823.226 1358.428)">
      <path id="Path_8240" data-name="Path 8240" d="M189.2,573.461H186.63a.492.492,0,1,1,0-.985H189.2a.492.492,0,0,1,0,.985Z" transform="translate(-186.137 -572.476)" fill="#4db4e8"/>
    </g>
    <path id="Path_8241" data-name="Path 8241" d="M124.7,604.819v3.948a5.3,5.3,0,0,0,5.3,5.3h79.935a5.838,5.838,0,0,0,5.839-5.876l-.022-3.375Z" transform="translate(6633.948 787.606)" fill="#f9cdaf"/>
    <path id="Path_8242" data-name="Path 8242" d="M210.166,527.267c-.658,2.122-1.561,4.165-2.178,6.3-1.093,3.779-1.276,7.792-2.571,11.506-.659,1.888-1.6,3.676-2.133,5.6-.654,2.358-.69,4.884-1.623,7.145s-3.24,4.282-5.619,3.718a7.219,7.219,0,0,1-1.578-.654c-1.083-.555-2.719-2.123-3.8-2.677-1.992-1.02-5.348-5.164-6.772-6.891-1.041-1.26-3.045-2.335-2.989-3.781.125-3.265-1.331-10.875-.787-14.1.076-.451,6.59,6.559,6.947,6.274.676-.537,1.657.019,2.293.6a19.879,19.879,0,0,1,4.184,5.472c.871,1.683,1.987,3.808,3.878,3.673,1.77-.127,2.64-2.174,3.082-3.892,2.676-10.421,3.947-21.464,9.4-30.737a1.453,1.453,0,0,1,.728-.732C213.347,513.264,210.581,525.927,210.166,527.267Z" transform="translate(6636.775 782.965)" fill="#2186c4"/>
    <path id="Path_8243" data-name="Path 8243" d="M199.833,559.806l11.815-42.665c.161-.9-.406-2.169-1.316-2.106l-8.969-.074-8.824,31.37Z" transform="translate(6637.417 783.011)" fill="#2186c4"/>
    <path id="Path_8244" data-name="Path 8244" d="M212.87,513.521s-1.149,3.536-2.948,5.076l-.576-1S208.913,513.244,212.87,513.521Z" transform="translate(6638.275 782.937)" fill="#ff9985"/>
    <g id="Group_16959" data-name="Group 16959" transform="translate(6834.25 1282.619)">
      <path id="Path_8245" data-name="Path 8245" d="M199,523.008h9.826l1.638-18.731H197.5Z" transform="translate(-196.579 -500.154)" fill="#000543"/>
      <rect id="Rectangle_12726" data-name="Rectangle 12726" width="7.12" height="4.666" rx="1.213" transform="translate(9.398 13.488) rotate(180)" fill="#fbe9dc"/>
      <path id="Path_8246" data-name="Path 8246" d="M197.371,504.35h13.173a.748.748,0,0,0,0-1.5H197.371a.748.748,0,0,0,0,1.5Z" transform="translate(-196.624 -500.227)" fill="#fbe9dc"/>
      <rect id="Rectangle_12727" data-name="Rectangle 12727" width="5.803" height="3.845" rx="1" transform="translate(7.334 3.845) rotate(180)" fill="#fbe9dc"/>
    </g>
    <g id="Group_16969" data-name="Group 16969" transform="translate(6777.519 1366.259)">
      <g id="Group_16960" data-name="Group 16960" transform="translate(72.802 84.387)">
        <path id="Path_8247" data-name="Path 8247" d="M212.472,660.208l-.558,16.977,7.024.6,2.632-3.608-.476-.723.747-12.448Z" transform="translate(-211.914 -660.208)" fill="#ff9985"/>
      </g>
      <g id="Group_16962" data-name="Group 16962" transform="translate(60.895 84.055)">
        <g id="Group_16961" data-name="Group 16961">
          <path id="Path_8248" data-name="Path 8248" d="M200.586,659.892l1.847,16.977,7.109.6,2.121-3.609-.578-.723-1.017-12.448Z" transform="translate(-200.586 -659.892)" fill="#ff9985"/>
        </g>
      </g>
      <path id="Path_8249" data-name="Path 8249" d="M150.832,580.671c17.5-.435,33.016-.575,53.775-.744a38.92,38.92,0,0,1,6.888.559,29.315,29.315,0,0,1,14.355,6.443,21.961,21.961,0,0,1,7.2,12.748c2.338,12.227,1.394,26.29,1.216,38.36-.131,8.825-1.925,18.226-3.929,27.446a4.432,4.432,0,0,1-4.47,3.5h-8.525a4.345,4.345,0,0,1-4.24-4.571,228.335,228.335,0,0,0-.876-55.01,7.309,7.309,0,0,0-7.308-6.278c-12.426.084-39.575.172-48.717-.577C142.164,601.4,136.89,581.017,150.832,580.671Z" transform="translate(-142.653 -579.926)" fill="#000543"/>
      <path id="Path_8250" data-name="Path 8250" d="M215.752,639.605c-2.55-11.94-4.786-25.85-9.886-37.945a29.514,29.514,0,0,0-10.083-12.609,37.452,37.452,0,0,0-15.812-6.374,56.291,56.291,0,0,0-8.016-1.067c-9.047.074-16.748.424-21.229.39l3.463,23.085c9.215.078,18.951.033,24.915-.013a8.251,8.251,0,0,1,7.8,5.327,244.6,244.6,0,0,1,13.641,55.3,5.739,5.739,0,0,0,5.274,4.523h8.525a3.361,3.361,0,0,0,3.678-3.466C217.947,657.633,217.616,648.335,215.752,639.605Z" transform="translate(-142.241 -579.84)" fill="#000543"/>
      <g id="Group_16964" data-name="Group 16964" transform="translate(18.774 0.636)">
        <g id="Group_16963" data-name="Group 16963">
          <path id="Path_8251" data-name="Path 8251" d="M217.194,667.576a.747.747,0,0,1-.747-.736c-.078-8.992-.4-18.522-2.259-27.3-.455-2.155-.9-4.372-1.353-6.632l-.021-.1c-2.026-10.1-4.321-21.549-8.47-31.495a29.043,29.043,0,0,0-9.835-12.434,36.469,36.469,0,0,0-15.5-6.311,39.642,39.642,0,0,0-6.886-.55c-3.919.034-7.482.044-10.871.041a.743.743,0,0,1,0-1.486c3.4.006,6.944-.008,10.857-.041a41.663,41.663,0,0,1,7.141.57,37.956,37.956,0,0,1,16.129,6.576,30.515,30.515,0,0,1,10.333,13.063c4.208,10.086,6.517,21.609,8.556,31.776.466,2.321.912,4.55,1.37,6.717,1.882,8.9,2.213,18.523,2.291,27.593a.745.745,0,0,1-.738.749Z" transform="translate(-160.514 -580.531)" fill="#052096"/>
        </g>
      </g>
      <path id="Path_8252" data-name="Path 8252" d="M167.226,605.645c2.029,0,9.9-.492,11.926-.446,3.392.079,6.077,2.926,7.558,5.871a20.34,20.34,0,0,1,2.16,8.865c.138,3.27,1.433,6.578,2.48,9.691,1.519,4.519,3.8,8.255,5.143,12.826.921,3.137,1.072,6.8,1.4,10.039.558,5.458.851,10.541,4.151,15.006-1.441-14.29-2.585-28.583-6.272-42.492a87.985,87.985,0,0,0-6.69-18.546,27.449,27.449,0,0,0-5.873-7.95c-1.627-1.441-4.015-2.641-5.964-1.64-.726.374-1.282,1.014-2.023,1.361a3.017,3.017,0,0,1-3.454-.727c1.029,1.207-23.785,4.6-24.171,5.465C146.517,605.412,161.256,605.633,167.226,605.645Z" transform="translate(-142.403 -579.078)" fill="#000543"/>
      <path id="Path_8253" data-name="Path 8253" d="M231.425,607.3c-.005,2.281-.486,4.542-.468,6.822.023,2.915.858,5.761,1.085,8.667a41.775,41.775,0,0,1-.292,7.335q-.4,4.043-.8,8.086c-.932,9.427-1.7,19.178-5.735,27.71V596.485a6.217,6.217,0,0,1-1.849-3.676,1.073,1.073,0,0,1,.172-.857C227.23,588,231.429,605.336,231.425,607.3Z" transform="translate(-138.527 -579.341)" fill="#000543"/>
      <g id="Group_16966" data-name="Group 16966" transform="translate(72.227 96.109)">
        <g id="Group_16965" data-name="Group 16965">
          <path id="Path_8254" data-name="Path 8254" d="M229.481,675.614l-8.425-3.351h-7.585a1.853,1.853,0,0,0-1.7,1.909l-.176,4.672,19.522.532C231.932,678.122,231.544,676.434,229.481,675.614Z" transform="translate(-211.355 -671.314)" fill="#4db4e8"/>
          <path id="Path_8255" data-name="Path 8255" d="M211.6,678.524l-.215.852c-.133.53.412,1.025,1.139,1.034l15.17.19a3.9,3.9,0,0,0,3.429-1.545Z" transform="translate(-211.367 -670.994)" fill="#000543"/>
          <path id="Path_8256" data-name="Path 8256" d="M221.138,674.97l-.564-.2a.265.265,0,0,1-.145-.317l.762-2.91a.214.214,0,0,1,.272-.168l.566.2a.266.266,0,0,1,.144.318l-.762,2.909A.215.215,0,0,1,221.138,674.97Z" transform="translate(-210.904 -671.36)" fill="#000543"/>
          <path id="Path_8257" data-name="Path 8257" d="M223.252,675.669l-.566-.2a.264.264,0,0,1-.144-.317l.762-2.91a.215.215,0,0,1,.272-.169l.564.2a.266.266,0,0,1,.145.318l-.763,2.908A.214.214,0,0,1,223.252,675.669Z" transform="translate(-210.796 -671.324)" fill="#000543"/>
          <path id="Path_8258" data-name="Path 8258" d="M225.258,676.457l-.566-.2a.265.265,0,0,1-.144-.317l.762-2.91a.215.215,0,0,1,.272-.168l.566.2a.266.266,0,0,1,.144.317l-.762,2.909A.215.215,0,0,1,225.258,676.457Z" transform="translate(-210.693 -671.284)" fill="#000543"/>
        </g>
        <rect id="Rectangle_12728" data-name="Rectangle 12728" width="3.217" height="1.09" rx="0.312" transform="translate(1.668 6.147)" fill="#000543"/>
      </g>
      <g id="Group_16968" data-name="Group 16968" transform="translate(60.927 95.923)">
        <g id="Group_16967" data-name="Group 16967">
          <path id="Path_8259" data-name="Path 8259" d="M218.731,675.436l-8.425-3.351h-7.585a1.853,1.853,0,0,0-1.7,1.909l-.176,4.672,19.522.533C221.182,677.944,220.794,676.256,218.731,675.436Z" transform="translate(-200.605 -671.136)" fill="#4db4e8"/>
          <path id="Path_8260" data-name="Path 8260" d="M200.852,678.346l-.215.852c-.133.53.412,1.026,1.139,1.035l15.17.189a3.891,3.891,0,0,0,3.428-1.545Z" transform="translate(-200.617 -670.816)" fill="#000543"/>
          <path id="Path_8261" data-name="Path 8261" d="M210.388,674.793l-.566-.2a.267.267,0,0,1-.144-.319l.762-2.909a.215.215,0,0,1,.272-.168l.566.2a.265.265,0,0,1,.144.317l-.762,2.91A.216.216,0,0,1,210.388,674.793Z" transform="translate(-200.154 -671.182)" fill="#000543"/>
          <path id="Path_8262" data-name="Path 8262" d="M212.5,675.491l-.566-.2a.264.264,0,0,1-.144-.317l.762-2.91a.215.215,0,0,1,.272-.168l.564.2a.266.266,0,0,1,.144.319l-.762,2.91A.214.214,0,0,1,212.5,675.491Z" transform="translate(-200.046 -671.147)" fill="#000543"/>
          <path id="Path_8263" data-name="Path 8263" d="M214.508,676.28l-.566-.2a.267.267,0,0,1-.144-.319l.762-2.908a.215.215,0,0,1,.272-.169l.566.2a.266.266,0,0,1,.144.317l-.762,2.91A.215.215,0,0,1,214.508,676.28Z" transform="translate(-199.943 -671.106)" fill="#000543"/>
        </g>
        <rect id="Rectangle_12729" data-name="Rectangle 12729" width="3.217" height="1.09" rx="0.312" transform="translate(1.668 6.147)" fill="#000543"/>
      </g>
    </g>
    <path id="Path_8264" data-name="Path 8264" d="M138.314,607.575c0,.194.005.4.025.6h2.09a4.8,4.8,0,0,0,.043-1.13Q139.4,586.179,136.9,565.25c-.6-5.044-1.271-10.1-2.38-15.115a28.833,28.833,0,0,0-1.824-5.884,3.527,3.527,0,0,0-2-2.136c-2.273-.589-1.2,2.734-1.042,3.72a65.289,65.289,0,0,1,.661,7.414c.221,4.885.163,9.758.816,14.664.7,5.251,2.206,10.48,2.658,15.73s-.13,10.568,1.747,15.652C136.557,602.054,138.3,604.747,138.314,607.575Z" transform="translate(6634.181 784.396)" fill="#fbe9dc"/>
    <path id="Path_8265" data-name="Path 8265" d="M200.778,559.93a4.053,4.053,0,0,1-3.923,1.6c-1.843-.109-3.469-.833-4.152-2.547L174.05,519.843l8.28-7.256c.841-.517,2.655,4.576,3.036,5.486l12.974,23.561Z" transform="translate(6636.471 782.888)" fill="#2186c4"/>
    <path id="Path_8266" data-name="Path 8266" d="M172.077,520.078c.014.043,0,.018-.009-.007Z" transform="translate(6636.37 783.272)" fill="#fff"/>
    <path id="Path_8267" data-name="Path 8267" d="M160.959,501.172l-.871-.161q-1.028-.189-2.074-.348a102.444,102.444,0,0,0-18.663-.882l12.06,85.115s20.838-.619,28.99-.8c1.818-.041,3.008-.013,2.548-1.727L161.727,501.3C161.653,501.282,161.034,501.186,160.959,501.172Z" transform="translate(6634.697 782.231)" fill="#d7e1fc"/>
    <path id="Path_8268" data-name="Path 8268" d="M140.74,499.781c-.617.023-1.236.046-1.843.077-1.418.071-2.815.157-4.155.266-9.186.35-16.3,13.345-9.872,27.6l11.193,61.785,3.375,20.819,16.432.406Z" transform="translate(6633.831 782.235)" fill="#2186c4"/>
    <g id="Group_16970" data-name="Group 16970" transform="translate(6796.446 1282.973)">
      <path id="Path_8269" data-name="Path 8269" d="M171.879,543.833a.492.492,0,0,1-.491-.458l-1.87-27.187a1.563,1.563,0,0,0-.857-1.265l-1.623-.807a1.329,1.329,0,0,1-.7-.894,1.088,1.088,0,0,1,.2-.925l2.032-2.554a.536.536,0,0,0-.143-.658l-7.618-7.55a.492.492,0,1,1,.694-.7l7.617,7.55a1.5,1.5,0,0,1,.221,1.97l-2.033,2.555a.128.128,0,0,0-.005.1.349.349,0,0,0,.179.227l1.623.806a2.542,2.542,0,0,1,1.4,2.084l1.87,27.182a.492.492,0,0,1-.457.524Z" transform="translate(-160.659 -500.691)" fill="#4db4e8"/>
    </g>
    <g id="Group_16971" data-name="Group 16971" transform="translate(6769.565 1281.855)">
      <path id="Path_8270" data-name="Path 8270" d="M145.768,544.7a.493.493,0,0,1-.472-.35l-8.459-28.063a2.125,2.125,0,0,1,.477-2.249l1.054-.931a.37.37,0,0,0-.109-.347l-2.606-2.332a1.7,1.7,0,0,1-.446-1.874l3.414-8.614a.492.492,0,1,1,.914.363l-3.421,8.634a.718.718,0,0,0,.194.758l2.607,2.332a1.37,1.37,0,0,1,.446,1.011,1.057,1.057,0,0,1-.342.806l-1.054.932a1.2,1.2,0,0,0-.189,1.22l8.463,28.069a.493.493,0,0,1-.329.614A.515.515,0,0,1,145.768,544.7Z" transform="translate(-135.086 -499.628)" fill="#4db4e8"/>
    </g>
    <g id="Group_16972" data-name="Group 16972" transform="translate(6768.758 1314.212)">
      <path id="Path_8271" data-name="Path 8271" d="M140.5,531.395h-5.686a.492.492,0,1,1,0-.984H140.5a.492.492,0,1,1,0,.984Z" transform="translate(-134.318 -530.411)" fill="#4db4e8"/>
    </g>
    <g id="Group_16973" data-name="Group 16973" transform="translate(6775.696 1368.914)">
      <path id="Path_8272" data-name="Path 8272" d="M149,583.437h-7.588a.492.492,0,0,1,0-.985H149a.492.492,0,0,1,0,.985Z" transform="translate(-140.919 -582.452)" fill="#4db4e8"/>
    </g>
    <g id="Group_16974" data-name="Group 16974" transform="translate(6771.448 1368.914)">
      <path id="Path_8273" data-name="Path 8273" d="M140.168,583.437h-2.8a.492.492,0,0,1,0-.985h2.8a.492.492,0,0,1,0,.985Z" transform="translate(-136.877 -582.452)" fill="#4db4e8"/>
    </g>
    <g id="Group_16975" data-name="Group 16975" transform="translate(6884.264 1344.296)">
      <rect id="Rectangle_12730" data-name="Rectangle 12730" width="2.369" height="125.029" transform="translate(0 0)" fill="#452a51"/>
    </g>
    <g id="Group_16976" data-name="Group 16976" transform="translate(6743.727 1346.019)">
      <rect id="Rectangle_12731" data-name="Rectangle 12731" width="2.369" height="125.029" transform="translate(0)" fill="#452a51"/>
    </g>
    <g id="Group_16977" data-name="Group 16977" transform="translate(6934.871 1346.265)">
      <rect id="Rectangle_12732" data-name="Rectangle 12732" width="2.565" height="125.029" transform="translate(0 0)" fill="#644077"/>
    </g>
    <rect id="Rectangle_12733" data-name="Rectangle 12733" width="198.458" height="6.671" transform="translate(6742.051 1344.458)" fill="#644077"/>
    <g id="Group_16978" data-name="Group 16978" transform="translate(6806.36 1344.572)">
      <rect id="Rectangle_12734" data-name="Rectangle 12734" width="2.893" height="126.722" transform="translate(0 0)" fill="#644077"/>
    </g>
    <g id="Group_16979" data-name="Group 16979" transform="translate(6740.139 1344.446)">
      <rect id="Rectangle_12735" data-name="Rectangle 12735" width="63.765" height="6.682" transform="translate(0)" fill="#452a51"/>
    </g>
    <g id="Group_16985" data-name="Group 16985" transform="translate(6773.287 1234.504)">
      <path id="Path_8274" data-name="Path 8274" d="M169.683,468.732c-.3-.346-.7-.584-.966-.955-.595-.828-.309-1.935-.385-2.936s-1.168-2.182-1.843-1.541c.359-1.456.653-3.211-.348-4.415-1.884-2.264-5.75.156-7.842-1.9-.625-.612-.954-1.531-1.654-2.04a2.416,2.416,0,0,0-3.064.462,7.622,7.622,0,0,0-1.258,1.894,1.822,1.822,0,0,1-.251.129,2.932,2.932,0,0,1-2.009-.079c-1.627-.385-3.138.9-4.046,2.613-.383.72-1.605-.311-2.046.369-1,1.546-3.078,2.265-3.492,4.124-.225,1.008.112,2.158-.237,3.118-.369,1.017-1.452,1.634-1.594,2.732-.225,1.743,1.329,3.357,1.4,5.068.034.805.759,1.564.779,1.865a3.935,3.935,0,0,0,.648,1.853,42.677,42.677,0,0,0,1.381,6.412,11.728,11.728,0,0,0,2.039,4.129c.008.01,1.3,1.436,1.3,1.423a15.9,15.9,0,0,1,.041-3.126,9.706,9.706,0,0,1-.782-3.419c-.018,0-.036.005-.055,0a3.553,3.553,0,0,1,.236-6.945l2.117.575c6.828-.8,5.155-8.034,11.36-8.868,4.033-.542,6.439.281,7.636.924a11.257,11.257,0,0,1,1.122,5.247l.063.022c0-.089.811-.76.761-1.439l.076.069C169.941,473.208,170.9,470.155,169.683,468.732Z" transform="translate(-138.627 -454.58)" fill="#000543"/>
      <path id="Path_8275" data-name="Path 8275" d="M158.916,468.576c-6.2.835-4.531,8.066-11.36,8.868l-2.117-.575a3.553,3.553,0,0,0-.236,6.945c.019,0,.037,0,.055,0a9.706,9.706,0,0,0,.782,3.419,12.392,12.392,0,0,0,10.538,7.187c6.021.346,10.219-4.067,10.575-10.273l.521-9.081c.006-.107,0-.21,0-.315a11.257,11.257,0,0,0-1.122-5.247C165.355,468.856,162.949,468.033,158.916,468.576Z" transform="translate(-138.428 -453.874)" fill="#ff9985"/>
      <g id="Group_16980" data-name="Group 16980" transform="translate(6.223 24.929)">
        <path id="Path_8276" data-name="Path 8276" d="M156.1,505.222l.867-24.565a1.986,1.986,0,0,0-1.878-2.077l-7.8-.282a1.988,1.988,0,0,0-2.023,1.937l-.706,20.006a7.562,7.562,0,0,0,5.284,7.543C154.411,509.158,156.066,506.054,156.1,505.222Z" transform="translate(-144.547 -478.297)" fill="#ff9985"/>
      </g>
      <g id="Group_16981" data-name="Group 16981" transform="translate(16.424 19.637)">
        <path id="Path_8277" data-name="Path 8277" d="M157.431,473.393l-2.483-.13a.66.66,0,1,0-.069,1.318l2.483.13a.66.66,0,0,0,.069-1.318Z" transform="translate(-154.252 -473.262)" fill="#000543"/>
      </g>
      <g id="Group_16982" data-name="Group 16982" transform="translate(26.217 20.008)">
        <path id="Path_8278" data-name="Path 8278" d="M166.746,473.746l-2.483-.13a.66.66,0,0,0-.069,1.319l2.483.13a.661.661,0,1,0,.069-1.319Z" transform="translate(-163.568 -473.615)" fill="#000543"/>
      </g>
      <g id="Group_16983" data-name="Group 16983" transform="translate(26.056 22.355)">
        <path id="Path_8279" data-name="Path 8279" d="M164.941,477.061c-.034.646-.4,1.153-.823,1.131s-.734-.564-.7-1.211.4-1.154.823-1.132S164.975,476.413,164.941,477.061Z" transform="translate(-163.416 -475.848)" fill="#000543"/>
      </g>
      <g id="Group_16984" data-name="Group 16984" transform="translate(16.737 22.045)">
        <path id="Path_8280" data-name="Path 8280" d="M156.075,476.765c-.035.647-.4,1.153-.823,1.131s-.734-.564-.7-1.211.4-1.153.823-1.131S156.109,476.118,156.075,476.765Z" transform="translate(-154.55 -475.553)" fill="#000543"/>
      </g>
      <path id="Path_8281" data-name="Path 8281" d="M161.919,480.42l-.082-.225a1.312,1.312,0,0,1-.994,1.049l-1.31.292a1,1,0,0,1-1.065-.465l-.034.124a1.028,1.028,0,0,0,1.218,1.271l1.31-.292A1.327,1.327,0,0,0,161.919,480.42Z" transform="translate(-137.616 -453.271)" fill="#fa694f"/>
      <path id="Path_8282" data-name="Path 8282" d="M155.873,484.4l3.755,1.2A2.607,2.607,0,0,1,155.873,484.4Z" transform="translate(-137.745 -453.056)" fill="#fff"/>
    </g>
    <path id="Path_8283" data-name="Path 8283" d="M144.232,498.845s4.716,5.385,8.424,6.1l-.214,6.2s-8.154-3.1-9.02-11.438Z" transform="translate(6634.905 782.187)" fill="#f0f5ff"/>
    <path id="Path_8284" data-name="Path 8284" d="M155.023,499.485s.092,4.1-2.9,5.453l3.82,5.557s3.243-3.595,1.731-9.585Z" transform="translate(6635.35 782.22)" fill="#f0f5ff"/>
    <path id="Path_8285" data-name="Path 8285" d="M154.169,510.3a1,1,0,0,0,.335-.446l.693-1.709c.481-1.186-.532-3.06-1.605-2.969l-2.186.184c-1.073.09-1.135,2.054-.1,3.112L152.8,510a1.682,1.682,0,0,0,.373.287l4.856,36.716,5.859,5.291,2.468-5.758Z" transform="translate(6635.271 782.511)" fill="#000543"/>
    <g id="Group_16988" data-name="Group 16988" transform="translate(6741.263 1284.498)">
      <path id="Path_8286" data-name="Path 8286" d="M154.351,552.985l13.439,4.554c1.534.728.559,2-.05,2l-13.1-.061Z" transform="translate(-105.799 -499.543)" fill="#ff9985"/>
      <g id="Group_16987" data-name="Group 16987" transform="translate(0)">
        <path id="Path_8287" data-name="Path 8287" d="M157.817,552.083l-30.607-.962a2.091,2.091,0,0,1-1.915-2.758l7.354-21.78-9.533-15.072L108.8,557.779a3.113,3.113,0,0,0,3.011,3.821l47.3.019-.215-8.444A1.122,1.122,0,0,0,157.817,552.083Z" transform="translate(-108.132 -501.663)" fill="#2186c4"/>
        <g id="Group_16986" data-name="Group 16986" transform="translate(16.864 24.662)">
          <path id="Path_8288" data-name="Path 8288" d="M158.409,555.388a.493.493,0,0,1-.492-.479l-.041-1.524a1.356,1.356,0,0,0-1.311-1.316l-29.682-.932a2.764,2.764,0,0,1-2.531-3.647l7.275-21.548a.492.492,0,1,1,.932.315L125.285,547.8a1.78,1.78,0,0,0,1.63,2.348l29.682.932a2.34,2.34,0,0,1,2.263,2.274l.042,1.524a.494.494,0,0,1-.479.506Z" transform="translate(-124.204 -525.605)" fill="#4db4e8"/>
        </g>
        <path id="Path_8289" data-name="Path 8289" d="M117.789,522.211c-.683,2.205-1.088,4.49-1.793,6.689-.905,2.817-2.293,5.452-3.386,8.2-2.4,6.048-3.352,12.559-4.281,19a7.448,7.448,0,0,0-.029,2.944,5.279,5.279,0,0,0,3.121,3.243c4.692-16.807,11.914-32.777,18.168-49.068.674-1.754,5.408-9.8,3.795-10.764C128.319,499.428,118.768,519.056,117.789,522.211Z" transform="translate(-108.161 -502.142)" fill="#2186c4"/>
      </g>
    </g>
    <path id="Path_8290" data-name="Path 8290" d="M228.085,559.36H184.8a1.542,1.542,0,0,1,0-3.084h43.289a1.542,1.542,0,0,1,0,3.084Z" transform="translate(6636.942 785.124)" fill="#91b4de"/>
    <g id="Group_16989" data-name="Group 16989" transform="translate(6851.272 1299.689)">
      <path id="Path_8291" data-name="Path 8291" d="M228.245,516.594h4.708a5.618,5.618,0,0,0-5.2,3.839l-10.1,37.082a2.947,2.947,0,0,0,3.106,3.838h-4.707a2.948,2.948,0,0,1-3.107-3.838l10.1-37.082A5.617,5.617,0,0,1,228.245,516.594Z" transform="translate(-212.819 -516.594)" fill="#91b4de"/>
      <path id="Path_8292" data-name="Path 8292" d="M215.227,557.514l10.1-37.082a5.617,5.617,0,0,1,5.2-3.839h49.529a2.948,2.948,0,0,1,3.107,3.839l-10.1,37.082a5.615,5.615,0,0,1-5.2,3.838H218.334A2.947,2.947,0,0,1,215.227,557.514Z" transform="translate(-212.702 -516.594)" fill="#d7e1fc"/>
    </g>
    <path id="Path_8293" data-name="Path 8293" d="M209.9,512.475a.783.783,0,0,1-.71-.846l.218-2.486a.781.781,0,0,1,1.556.137l-.219,2.486A.784.784,0,0,1,209.9,512.475Z" transform="translate(6638.268 782.677)" fill="#ff9985"/>
    <g id="Group_16990" data-name="Group 16990" transform="translate(6841.901 1292.18)">
      <path id="Path_8294" data-name="Path 8294" d="M210.279,518.378a.986.986,0,0,1-1.336.39l-4.1-2.247a.984.984,0,1,1,.947-1.726l4.1,2.247A.987.987,0,0,1,210.279,518.378Z" transform="translate(-203.881 -509.184)" fill="#ff9985"/>
      <path id="Path_8295" data-name="Path 8295" d="M211.343,517.239a.989.989,0,0,1-1.337.39l-5.592-3.067a.984.984,0,1,1,.946-1.726l5.593,3.066A.987.987,0,0,1,211.343,517.239Z" transform="translate(-203.903 -509.284)" fill="#ff9985"/>
      <path id="Path_8296" data-name="Path 8296" d="M213,513.975a.988.988,0,0,1-1.337.389L206.07,511.3a.985.985,0,0,1,.946-1.727l5.593,3.067A.987.987,0,0,1,213,513.975Z" transform="translate(-203.818 -509.451)" fill="#ff9985"/>
      <path id="Path_8297" data-name="Path 8297" d="M212.149,515.607a.988.988,0,0,1-1.337.39l-6.118-3.355a.984.984,0,1,1,.947-1.726l6.118,3.354A.989.989,0,0,1,212.149,515.607Z" transform="translate(-203.889 -509.382)" fill="#ff9985"/>
    </g>
    <g id="Group_17027" data-name="Group 17027" transform="translate(6861.525 1208.299)">
      <g id="Group_17026" data-name="Group 17026" transform="translate(0)">
        <g id="Group_16991" data-name="Group 16991">
          <path id="Path_8298" data-name="Path 8298" d="M241.4,430.033,225.006,430a1.974,1.974,0,0,0-1.978,1.969l-.1,32.823a1.8,1.8,0,0,0,1.8,1.81l21.378.068a1.805,1.805,0,0,0,1.81-1.8l.09-28.2a3.544,3.544,0,0,0-1.032-2.512l-3.059-3.078A3.549,3.549,0,0,0,241.4,430.033Z" transform="translate(-222.555 -429.632)" fill="#fff"/>
          <path id="Path_8299" data-name="Path 8299" d="M246.123,467.058l-21.384-.068a2.171,2.171,0,0,1-2.165-2.18l.1-32.823a2.347,2.347,0,0,1,2.344-2.337l16.4.032a3.886,3.886,0,0,1,2.771,1.155l3.06,3.079a3.89,3.89,0,0,1,1.138,2.773l-.09,28.2a2.173,2.173,0,0,1-2.174,2.167Zm-21.1-36.669a1.608,1.608,0,0,0-1.606,1.6l-.1,32.824a1.432,1.432,0,0,0,1.43,1.438l21.377.068a1.474,1.474,0,0,0,1.017-.417,1.425,1.425,0,0,0,.424-1.014l.09-28.2a3.162,3.162,0,0,0-.925-2.251l-3.059-3.078a3.163,3.163,0,0,0-2.249-.938l-16.392-.03Z" transform="translate(-222.573 -429.65)" fill="#d7e1fc"/>
        </g>
        <g id="Group_17025" data-name="Group 17025" transform="translate(4.332 8.318)">
          <g id="Group_17002" data-name="Group 17002" transform="translate(0.026)">
            <g id="Group_16993" data-name="Group 16993" transform="translate(6.058 0.019)">
              <g id="Group_16992" data-name="Group 16992">
                <path id="Path_8300" data-name="Path 8300" d="M233.03,439.08l10.092.033c.3,0,.551-.334.552-.748s-.244-.749-.548-.75l-10.092-.033c-.3,0-.551.334-.552.747S232.726,439.079,233.03,439.08Z" transform="translate(-232.482 -437.581)" fill="#d7e1fc"/>
              </g>
            </g>
            <g id="Group_16995" data-name="Group 16995" transform="translate(0.008)">
              <g id="Group_16994" data-name="Group 16994">
                <path id="Path_8301" data-name="Path 8301" d="M227.275,439.062l3.476.01c.3,0,.551-.333.552-.747s-.244-.751-.548-.752l-3.475-.01c-.3,0-.552.333-.553.747S226.971,439.061,227.275,439.062Z" transform="translate(-226.727 -437.563)" fill="#d7e1fc"/>
              </g>
            </g>
            <g id="Group_16997" data-name="Group 16997" transform="translate(0 2.735)">
              <g id="Group_16996" data-name="Group 16996">
                <path id="Path_8302" data-name="Path 8302" d="M237.359,441.7l-10.092-.033c-.3,0-.55-.337-.548-.751s.248-.749.552-.748l10.093.033c.3,0,.549.337.548.751S237.662,441.7,237.359,441.7Z" transform="translate(-226.719 -440.165)" fill="#d7e1fc"/>
              </g>
            </g>
            <g id="Group_16999" data-name="Group 16999" transform="translate(0.214 5.517)">
              <g id="Group_16998" data-name="Group 16998">
                <path id="Path_8303" data-name="Path 8303" d="M243.1,444.359l-15.345-.048a.754.754,0,1,1,.005-1.5l15.344.048a.754.754,0,1,1,0,1.5Z" transform="translate(-226.923 -442.812)" fill="#d7e1fc"/>
              </g>
            </g>
            <g id="Group_17001" data-name="Group 17001" transform="translate(12.665 2.776)">
              <g id="Group_17000" data-name="Group 17000">
                <path id="Path_8304" data-name="Path 8304" d="M242.792,441.713l-3.476-.011c-.3,0-.549-.337-.548-.752s.249-.748.553-.747l3.475.01c.3,0,.549.337.548.752S243.1,441.714,242.792,441.713Z" transform="translate(-238.768 -440.204)" fill="#d7e1fc"/>
              </g>
            </g>
          </g>
          <g id="Group_17013" data-name="Group 17013" transform="translate(0.074 16.362)">
            <g id="Group_17004" data-name="Group 17004" transform="translate(6.058 0.019)">
              <g id="Group_17003" data-name="Group 17003">
                <path id="Path_8305" data-name="Path 8305" d="M233.075,454.646l10.092.033c.3,0,.551-.334.552-.748s-.244-.75-.548-.752l-10.092-.032c-.3,0-.551.333-.552.747S232.771,454.645,233.075,454.646Z" transform="translate(-232.527 -453.147)" fill="#d7e1fc"/>
              </g>
            </g>
            <g id="Group_17006" data-name="Group 17006" transform="translate(0.008)">
              <g id="Group_17005" data-name="Group 17005">
                <path id="Path_8306" data-name="Path 8306" d="M227.32,454.628l3.476.011c.3,0,.551-.333.552-.747s-.244-.75-.548-.752l-3.475-.011c-.3,0-.552.333-.553.747S227.016,454.627,227.32,454.628Z" transform="translate(-226.772 -453.129)" fill="#d7e1fc"/>
              </g>
            </g>
            <g id="Group_17008" data-name="Group 17008" transform="translate(0 2.735)">
              <g id="Group_17007" data-name="Group 17007">
                <path id="Path_8307" data-name="Path 8307" d="M237.4,457.262l-10.092-.033c-.3,0-.55-.337-.548-.752s.248-.748.552-.747l10.093.033c.3,0,.549.337.548.751S237.707,457.264,237.4,457.262Z" transform="translate(-226.764 -455.731)" fill="#d7e1fc"/>
              </g>
            </g>
            <g id="Group_17010" data-name="Group 17010" transform="translate(0.214 5.517)">
              <g id="Group_17009" data-name="Group 17009">
                <path id="Path_8308" data-name="Path 8308" d="M243.147,459.925l-15.345-.048a.754.754,0,1,1,.005-1.5l15.344.048a.754.754,0,1,1,0,1.5Z" transform="translate(-226.968 -458.378)" fill="#d7e1fc"/>
              </g>
            </g>
            <g id="Group_17012" data-name="Group 17012" transform="translate(12.665 2.775)">
              <g id="Group_17011" data-name="Group 17011">
                <path id="Path_8309" data-name="Path 8309" d="M242.837,457.279l-3.476-.012c-.3,0-.549-.336-.548-.751s.249-.748.553-.748l3.475.012c.3,0,.549.337.548.752S243.14,457.28,242.837,457.279Z" transform="translate(-238.813 -455.769)" fill="#d7e1fc"/>
              </g>
            </g>
          </g>
          <g id="Group_17024" data-name="Group 17024" transform="translate(0 8.113)">
            <g id="Group_17015" data-name="Group 17015" transform="translate(6.058 0.019)">
              <g id="Group_17014" data-name="Group 17014">
                <path id="Path_8310" data-name="Path 8310" d="M233,446.8l10.092.033c.3,0,.552-.334.553-.748s-.244-.751-.548-.752L233.01,445.3c-.3,0-.552.333-.553.747S232.7,446.8,233,446.8Z" transform="translate(-232.457 -445.299)" fill="#d7e1fc"/>
              </g>
            </g>
            <g id="Group_17017" data-name="Group 17017" transform="translate(0.008)">
              <g id="Group_17016" data-name="Group 17016">
                <path id="Path_8311" data-name="Path 8311" d="M227.25,446.78l3.476.011c.3,0,.551-.334.552-.747s-.244-.751-.548-.752l-3.475-.01c-.3,0-.551.333-.553.747S226.946,446.779,227.25,446.78Z" transform="translate(-226.702 -445.281)" fill="#d7e1fc"/>
              </g>
            </g>
            <g id="Group_17019" data-name="Group 17019" transform="translate(0 2.735)">
              <g id="Group_17018" data-name="Group 17018">
                <path id="Path_8312" data-name="Path 8312" d="M237.334,449.414l-10.092-.033c-.3,0-.549-.337-.548-.752s.249-.748.553-.747l10.092.033c.3,0,.549.336.548.751S237.637,449.416,237.334,449.414Z" transform="translate(-226.694 -447.883)" fill="#d7e1fc"/>
              </g>
            </g>
            <g id="Group_17021" data-name="Group 17021" transform="translate(6.04 5.534)">
              <g id="Group_17020" data-name="Group 17020">
                <path id="Path_8313" data-name="Path 8313" d="M243.081,452.077l-10.093-.033c-.3,0-.549-.337-.548-.752s.249-.748.553-.747l10.092.033c.3,0,.549.337.548.75S243.384,452.079,243.081,452.077Z" transform="translate(-232.44 -450.546)" fill="#d7e1fc"/>
              </g>
            </g>
            <g id="Group_17023" data-name="Group 17023" transform="translate(12.665 2.775)">
              <g id="Group_17022" data-name="Group 17022">
                <path id="Path_8314" data-name="Path 8314" d="M242.767,449.431l-3.476-.012c-.3,0-.549-.337-.548-.75s.249-.749.553-.748l3.476.012c.3,0,.549.337.548.752S243.07,449.432,242.767,449.431Z" transform="translate(-238.743 -447.921)" fill="#d7e1fc"/>
              </g>
            </g>
          </g>
        </g>
      </g>
    </g>
    <g id="Group_17053" data-name="Group 17053" transform="translate(6896.966 1208.299)">
      <g id="Group_17052" data-name="Group 17052" transform="translate(0)">
        <g id="Group_17028" data-name="Group 17028">
          <path id="Path_8315" data-name="Path 8315" d="M275.117,430.033,258.724,430a1.974,1.974,0,0,0-1.978,1.969l-.105,32.823a1.8,1.8,0,0,0,1.8,1.81l21.377.068a1.805,1.805,0,0,0,1.811-1.8l.089-28.2a3.548,3.548,0,0,0-1.031-2.512l-3.059-3.078A3.549,3.549,0,0,0,275.117,430.033Z" transform="translate(-256.272 -429.632)" fill="#fff"/>
          <path id="Path_8316" data-name="Path 8316" d="M279.841,467.058l-21.384-.068a2.173,2.173,0,0,1-2.166-2.18l.105-32.823a2.346,2.346,0,0,1,2.344-2.337l16.4.032a3.886,3.886,0,0,1,2.771,1.155l3.059,3.079a3.887,3.887,0,0,1,1.139,2.773l-.09,28.2a2.173,2.173,0,0,1-2.174,2.167Zm-21.1-36.669a1.607,1.607,0,0,0-1.606,1.6l-.1,32.824a1.432,1.432,0,0,0,1.43,1.438l21.377.068a1.437,1.437,0,0,0,1.441-1.432l.089-28.2a3.157,3.157,0,0,0-.924-2.251l-3.06-3.078a3.159,3.159,0,0,0-2.248-.938l-16.392-.03Z" transform="translate(-256.29 -429.65)" fill="#d7e1fc"/>
        </g>
        <g id="Group_17051" data-name="Group 17051" transform="translate(4.333 8.318)">
          <g id="Group_17039" data-name="Group 17039" transform="translate(0.026)">
            <g id="Group_17030" data-name="Group 17030" transform="translate(6.057 0.019)">
              <g id="Group_17029" data-name="Group 17029">
                <path id="Path_8317" data-name="Path 8317" d="M266.747,439.08l10.093.033c.3,0,.551-.334.552-.748s-.244-.749-.548-.75l-10.092-.033c-.3,0-.551.334-.553.747S266.443,439.079,266.747,439.08Z" transform="translate(-266.199 -437.581)" fill="#d7e1fc"/>
              </g>
            </g>
            <g id="Group_17032" data-name="Group 17032" transform="translate(0.008)">
              <g id="Group_17031" data-name="Group 17031">
                <path id="Path_8318" data-name="Path 8318" d="M260.993,439.062l3.475.01c.3,0,.552-.333.553-.747s-.244-.751-.548-.752l-3.476-.01c-.3,0-.551.333-.552.747S260.689,439.061,260.993,439.062Z" transform="translate(-260.445 -437.563)" fill="#d7e1fc"/>
              </g>
            </g>
            <g id="Group_17034" data-name="Group 17034" transform="translate(0 2.735)">
              <g id="Group_17033" data-name="Group 17033">
                <path id="Path_8319" data-name="Path 8319" d="M271.077,441.7l-10.092-.033c-.3,0-.55-.337-.548-.751s.248-.749.552-.748l10.092.033c.3,0,.55.337.548.751S271.38,441.7,271.077,441.7Z" transform="translate(-260.437 -440.165)" fill="#d7e1fc"/>
              </g>
            </g>
            <g id="Group_17036" data-name="Group 17036" transform="translate(0.214 5.517)">
              <g id="Group_17035" data-name="Group 17035">
                <path id="Path_8320" data-name="Path 8320" d="M276.819,444.359l-15.344-.048a.754.754,0,1,1,.005-1.5l15.344.048a.754.754,0,1,1-.005,1.5Z" transform="translate(-260.641 -442.812)" fill="#d7e1fc"/>
              </g>
            </g>
            <g id="Group_17038" data-name="Group 17038" transform="translate(12.665 2.776)">
              <g id="Group_17037" data-name="Group 17037">
                <path id="Path_8321" data-name="Path 8321" d="M276.509,441.713l-3.475-.011c-.3,0-.549-.337-.548-.752s.248-.748.552-.747l3.476.01c.3,0,.549.337.548.752S276.812,441.714,276.509,441.713Z" transform="translate(-272.486 -440.204)" fill="#d7e1fc"/>
              </g>
            </g>
          </g>
          <g id="Group_17050" data-name="Group 17050" transform="translate(0 8.113)">
            <g id="Group_17041" data-name="Group 17041" transform="translate(6.058 0.019)">
              <g id="Group_17040" data-name="Group 17040">
                <path id="Path_8322" data-name="Path 8322" d="M266.723,446.8l10.092.033c.3,0,.551-.334.553-.748s-.244-.751-.548-.752l-10.093-.032c-.3,0-.551.333-.552.747S266.419,446.8,266.723,446.8Z" transform="translate(-266.175 -445.299)" fill="#d7e1fc"/>
              </g>
            </g>
            <g id="Group_17043" data-name="Group 17043" transform="translate(0.008)">
              <g id="Group_17042" data-name="Group 17042">
                <path id="Path_8323" data-name="Path 8323" d="M260.968,446.78l3.476.011c.3,0,.551-.334.552-.747s-.244-.751-.548-.752l-3.475-.01c-.3,0-.552.333-.553.747S260.664,446.779,260.968,446.78Z" transform="translate(-260.42 -445.281)" fill="#d7e1fc"/>
              </g>
            </g>
            <g id="Group_17045" data-name="Group 17045" transform="translate(0 2.735)">
              <g id="Group_17044" data-name="Group 17044">
                <path id="Path_8324" data-name="Path 8324" d="M271.052,449.414l-10.092-.033c-.3,0-.549-.337-.548-.752s.249-.748.553-.747l10.092.033c.3,0,.549.336.548.751S271.355,449.416,271.052,449.414Z" transform="translate(-260.412 -447.883)" fill="#d7e1fc"/>
              </g>
            </g>
            <g id="Group_17047" data-name="Group 17047" transform="translate(6.04 5.534)">
              <g id="Group_17046" data-name="Group 17046">
                <path id="Path_8325" data-name="Path 8325" d="M276.8,452.077l-10.092-.033c-.3,0-.549-.337-.548-.752s.249-.748.553-.747l10.092.033c.3,0,.549.337.548.75S277.1,452.079,276.8,452.077Z" transform="translate(-266.158 -450.546)" fill="#d7e1fc"/>
              </g>
            </g>
            <g id="Group_17049" data-name="Group 17049" transform="translate(12.665 2.775)">
              <g id="Group_17048" data-name="Group 17048">
                <path id="Path_8326" data-name="Path 8326" d="M276.485,449.431l-3.476-.012c-.3,0-.549-.337-.548-.75s.249-.749.553-.748l3.475.012c.3,0,.55.337.548.752S276.788,449.432,276.485,449.431Z" transform="translate(-272.461 -447.921)" fill="#d7e1fc"/>
              </g>
            </g>
          </g>
        </g>
      </g>
    </g>
    <g id="Group_17075" data-name="Group 17075" transform="translate(6897.353 1252.721)">
      <g id="Group_17074" data-name="Group 17074" transform="translate(0 0)">
        <g id="Group_17054" data-name="Group 17054">
          <path id="Path_8327" data-name="Path 8327" d="M275.485,472.292l-16.393-.03a1.974,1.974,0,0,0-1.977,1.968l-.105,32.824a1.8,1.8,0,0,0,1.8,1.809l21.377.068a1.8,1.8,0,0,0,1.811-1.8l.089-28.2a3.548,3.548,0,0,0-1.031-2.512l-3.059-3.079A3.549,3.549,0,0,0,275.485,472.292Z" transform="translate(-256.64 -471.893)" fill="#fff"/>
          <path id="Path_8328" data-name="Path 8328" d="M280.209,509.318l-21.384-.068a2.171,2.171,0,0,1-2.166-2.179l.1-32.824a2.347,2.347,0,0,1,2.343-2.336l16.4.03a3.893,3.893,0,0,1,2.771,1.156l3.059,3.078a3.891,3.891,0,0,1,1.139,2.774l-.09,28.2a2.175,2.175,0,0,1-2.174,2.167Zm-21.1-36.669a1.606,1.606,0,0,0-1.6,1.6l-.105,32.824a1.436,1.436,0,0,0,1.431,1.439l21.377.068a1.435,1.435,0,0,0,1.441-1.432l.089-28.2a3.164,3.164,0,0,0-.924-2.252l-3.06-3.078a3.16,3.16,0,0,0-2.248-.938l-16.392-.032Z" transform="translate(-256.658 -471.911)" fill="#d7e1fc"/>
        </g>
        <g id="Group_17073" data-name="Group 17073" transform="translate(4.341 8.317)">
          <g id="Group_17065" data-name="Group 17065" transform="translate(0.017)">
            <g id="Group_17056" data-name="Group 17056" transform="translate(6.058 0.02)">
              <g id="Group_17055" data-name="Group 17055">
                <path id="Path_8329" data-name="Path 8329" d="M267.115,481.341l10.093.032c.3,0,.551-.333.552-.747s-.244-.751-.548-.752l-10.092-.032c-.3,0-.551.333-.553.747S266.811,481.34,267.115,481.341Z" transform="translate(-266.567 -479.842)" fill="#d7e1fc"/>
              </g>
            </g>
            <g id="Group_17058" data-name="Group 17058" transform="translate(0.009)">
              <g id="Group_17057" data-name="Group 17057">
                <path id="Path_8330" data-name="Path 8330" d="M261.361,481.322l3.475.012c.3,0,.551-.334.553-.747s-.244-.751-.548-.752l-3.476-.012c-.3,0-.551.334-.552.748S261.057,481.321,261.361,481.322Z" transform="translate(-260.813 -479.823)" fill="#d7e1fc"/>
              </g>
            </g>
            <g id="Group_17060" data-name="Group 17060" transform="translate(0 2.736)">
              <g id="Group_17059" data-name="Group 17059">
                <path id="Path_8331" data-name="Path 8331" d="M271.445,483.956l-10.093-.032c-.3,0-.549-.337-.548-.752s.249-.748.553-.747l10.092.032c.3,0,.549.337.548.752S271.748,483.957,271.445,483.956Z" transform="translate(-260.804 -482.426)" fill="#d7e1fc"/>
              </g>
            </g>
            <g id="Group_17062" data-name="Group 17062" transform="translate(0.215 5.517)">
              <g id="Group_17061" data-name="Group 17061">
                <path id="Path_8332" data-name="Path 8332" d="M277.187,486.62l-15.344-.049a.754.754,0,1,1,0-1.5l15.345.049a.754.754,0,1,1-.005,1.5Z" transform="translate(-261.009 -485.072)" fill="#d7e1fc"/>
              </g>
            </g>
            <g id="Group_17064" data-name="Group 17064" transform="translate(12.666 2.776)">
              <g id="Group_17063" data-name="Group 17063">
                <path id="Path_8333" data-name="Path 8333" d="M276.877,483.974l-3.475-.012c-.3,0-.55-.337-.548-.751s.248-.749.552-.748l3.476.012c.3,0,.549.337.548.751S277.18,483.975,276.877,483.974Z" transform="translate(-272.854 -482.464)" fill="#d7e1fc"/>
              </g>
            </g>
          </g>
          <g id="Group_17072" data-name="Group 17072" transform="translate(0 8.113)">
            <g id="Group_17067" data-name="Group 17067" transform="translate(6.049 0.019)">
              <g id="Group_17066" data-name="Group 17066">
                <path id="Path_8334" data-name="Path 8334" d="M267.091,489.059l10.092.032c.3,0,.551-.333.552-.747s-.244-.75-.547-.752l-10.093-.033c-.3,0-.551.334-.552.748S266.787,489.058,267.091,489.059Z" transform="translate(-266.543 -487.559)" fill="#d7e1fc"/>
              </g>
            </g>
            <g id="Group_17069" data-name="Group 17069">
              <g id="Group_17068" data-name="Group 17068">
                <path id="Path_8335" data-name="Path 8335" d="M261.336,489.04l3.476.012c.3,0,.551-.334.552-.748s-.244-.749-.548-.75l-3.475-.012c-.3,0-.552.334-.553.748S261.032,489.039,261.336,489.04Z" transform="translate(-260.788 -487.541)" fill="#d7e1fc"/>
              </g>
            </g>
            <g id="Group_17071" data-name="Group 17071" transform="translate(12.657 2.776)">
              <g id="Group_17070" data-name="Group 17070">
                <path id="Path_8336" data-name="Path 8336" d="M276.853,491.692l-3.476-.012c-.3,0-.549-.337-.548-.752s.249-.748.553-.747l3.475.012c.3,0,.549.336.548.75S277.156,491.693,276.853,491.692Z" transform="translate(-272.829 -490.182)" fill="#d7e1fc"/>
              </g>
            </g>
          </g>
        </g>
      </g>
    </g>
    <g id="Group_17078" data-name="Group 17078" transform="translate(6825.098 1207.643)">
      <g id="Group_17077" data-name="Group 17077" transform="translate(0 0)">
        <g id="Group_17076" data-name="Group 17076">
          <path id="Path_8337" data-name="Path 8337" d="M206.745,429.409l-16.393-.032a1.974,1.974,0,0,0-1.977,1.968l-.105,32.824a1.8,1.8,0,0,0,1.8,1.809l21.377.068a1.805,1.805,0,0,0,1.811-1.8l.089-28.2a3.546,3.546,0,0,0-1.031-2.512l-3.059-3.079A3.548,3.548,0,0,0,206.745,429.409Z" transform="translate(-187.9 -429.008)" fill="#fff"/>
          <path id="Path_8338" data-name="Path 8338" d="M211.468,466.433l-21.383-.067a2.176,2.176,0,0,1-2.166-2.18l.1-32.824a2.347,2.347,0,0,1,2.344-2.336l16.4.03a3.893,3.893,0,0,1,2.771,1.156l3.059,3.078a3.893,3.893,0,0,1,1.139,2.774l-.09,28.2A2.178,2.178,0,0,1,211.468,466.433Zm-21.1-36.669a1.607,1.607,0,0,0-1.605,1.6l-.1,32.824a1.434,1.434,0,0,0,1.43,1.439l21.377.068a1.44,1.44,0,0,0,1.441-1.432l.089-28.2a3.159,3.159,0,0,0-.924-2.252l-3.06-3.078a3.158,3.158,0,0,0-2.248-.938l-16.392-.032Z" transform="translate(-187.918 -429.026)" fill="#d7e1fc"/>
        </g>
      </g>
    </g>
    <g id="Group_17079" data-name="Group 17079" transform="translate(6832.994 1222.949)">
      <path id="Path_8339" data-name="Path 8339" d="M199.792,453.351a.985.985,0,0,1-.773-.374l-3.378-4.277a.984.984,0,0,1,1.545-1.22l2.476,3.136,3.754-6.533a.984.984,0,1,1,1.707.98l-4.477,7.8a.985.985,0,0,1-.782.491Q199.828,453.351,199.792,453.351Z" transform="translate(-195.43 -443.587)" fill="#4db4e8"/>
    </g>
    <g id="Group_17095" data-name="Group 17095" transform="translate(6683.35 1307.729)">
      <g id="Group_17093" data-name="Group 17093" transform="translate(0)">
        <path id="Path_8340" data-name="Path 8340" d="M86.79,528.283a11.476,11.476,0,0,0-17.482,0l-.073.087c-3.182,3.792-4.98,9.137-3.3,13.8.863,2.392,2.6,4.56,2.615,7.1.029,4.31-4.592,6.907-7.161,10.367a12.3,12.3,0,0,0-1.432,11.871c1.514,3.592,4.812,6.7,4.539,10.586-.18,2.557-1.9,4.7-3.533,6.681-2.593,3.143-5.188,6.38-6.694,10.168s-1.783,8.27.211,11.825c1.645,2.933,4.717,5.1,5.5,8.368.765,3.212-.921,6.461-1.221,9.75-.569,6.207,4.3,12.152,10.321,13.757a16.577,16.577,0,0,0,8.086.038,3.854,3.854,0,0,1,1.766,0,16.573,16.573,0,0,0,8.085-.038c6.019-1.605,10.89-7.55,10.322-13.757-.3-3.289-1.988-6.538-1.221-9.75.78-3.272,3.852-5.435,5.5-8.368,1.994-3.555,1.714-8.037.21-11.825s-4.1-7.025-6.693-10.168c-1.631-1.976-3.354-4.124-3.533-6.681-.273-3.887,3.025-6.994,4.538-10.586a12.3,12.3,0,0,0-1.431-11.871c-2.57-3.46-7.191-6.058-7.161-10.367.017-2.544,1.752-4.711,2.615-7.1,1.682-4.658-.118-10-3.3-13.8Z" transform="translate(-53.064 -524.243)" fill="#9ad0f4"/>
        <g id="Group_17092" data-name="Group 17092" transform="translate(10.672 5.283)">
          <g id="Group_17080" data-name="Group 17080" transform="translate(13.541)">
            <rect id="Rectangle_12736" data-name="Rectangle 12736" width="0.931" height="137.042" fill="#63a5d3"/>
          </g>
          <g id="Group_17081" data-name="Group 17081" transform="translate(6.558 10.139)">
            <rect id="Rectangle_12737" data-name="Rectangle 12737" width="0.931" height="12.518" transform="matrix(0.822, -0.57, 0.57, 0.822, 0, 0.531)" fill="#63a5d3"/>
          </g>
          <g id="Group_17082" data-name="Group 17082" transform="translate(2.885 35.727)">
            <rect id="Rectangle_12738" data-name="Rectangle 12738" width="0.932" height="23.407" transform="translate(0 0.429) rotate(-27.384)" fill="#63a5d3"/>
          </g>
          <g id="Group_17083" data-name="Group 17083" transform="translate(6.747 36.145)">
            <rect id="Rectangle_12739" data-name="Rectangle 12739" width="0.931" height="7.126" transform="translate(0 0.018) rotate(-1.082)" fill="#63a5d3"/>
          </g>
          <g id="Group_17084" data-name="Group 17084" transform="translate(13.717 60.316)">
            <path id="Path_8341" data-name="Path 8341" d="M76.963,603.942l-.7-.618L91.046,586.65l.7.618Z" transform="translate(-76.267 -586.65)" fill="#63a5d3"/>
          </g>
          <g id="Group_17085" data-name="Group 17085" transform="translate(20.193 57.633)">
            <path id="Path_8342" data-name="Path 8342" d="M83.338,596.062l-.91-.193L84.895,584.1l.91.193Z" transform="translate(-82.428 -584.098)" fill="#63a5d3"/>
          </g>
          <g id="Group_17086" data-name="Group 17086" transform="translate(0 76.31)">
            <path id="Path_8343" data-name="Path 8343" d="M76.724,621.694,63.217,602.4l.761-.535,13.507,19.292Z" transform="translate(-63.217 -601.867)" fill="#63a5d3"/>
          </g>
          <g id="Group_17087" data-name="Group 17087" transform="translate(0.927 69.123)">
            <path id="Path_8344" data-name="Path 8344" d="M66.771,607.439,64.1,595.23l.909-.2,2.672,12.209Z" transform="translate(-64.099 -595.03)" fill="#63a5d3"/>
          </g>
          <g id="Group_17088" data-name="Group 17088" transform="translate(13.698 82.176)">
            <rect id="Rectangle_12740" data-name="Rectangle 12740" width="27.047" height="0.93" transform="matrix(0.536, -0.844, 0.844, 0.536, 0, 22.834)" fill="#63a5d3"/>
          </g>
          <g id="Group_17089" data-name="Group 17089" transform="translate(24.131 81.327)">
            <path id="Path_8345" data-name="Path 8345" d="M87.085,614l-.911-.2,1.533-7.167.911.2Z" transform="translate(-86.175 -606.64)" fill="#63a5d3"/>
          </g>
          <g id="Group_17090" data-name="Group 17090" transform="translate(13.719 13.252)">
            <rect id="Rectangle_12741" data-name="Rectangle 12741" width="13.686" height="0.932" transform="matrix(0.582, -0.813, 0.813, 0.582, 0, 11.131)" fill="#63a5d3"/>
          </g>
          <g id="Group_17091" data-name="Group 17091" transform="translate(19.206 8.269)">
            <rect id="Rectangle_12742" data-name="Rectangle 12742" width="8.73" height="0.93" transform="translate(0 8.666) rotate(-83.029)" fill="#63a5d3"/>
          </g>
        </g>
      </g>
      <g id="Group_17094" data-name="Group 17094" transform="translate(6.704 139.123)">
        <rect id="Rectangle_12743" data-name="Rectangle 12743" width="34.851" height="25.409" rx="3.102" fill="#d7e1fc"/>
      </g>
    </g>
    <g id="Group_17096" data-name="Group 17096" transform="translate(6693.237 1209.116)">
      <path id="Path_8346" data-name="Path 8346" d="M88.806,483.1a26.335,26.335,0,1,1,26.335-26.335A26.365,26.365,0,0,1,88.806,483.1Zm0-51.686a25.351,25.351,0,1,0,25.351,25.351A25.379,25.379,0,0,0,88.806,431.411Z" transform="translate(-62.471 -430.427)" fill="#4db4e8"/>
    </g>
    <g id="Group_17097" data-name="Group 17097" transform="translate(6718.058 1212.79)">
      <path id="Path_8347" data-name="Path 8347" d="M87.021,434.859v0Z" transform="translate(-86.036 -433.874)" fill="#4db4e8"/>
      <path id="Path_8348" data-name="Path 8348" d="M87.069,458.421a.984.984,0,0,1-.985-.985V434.907a.984.984,0,1,1,1.969,0v22.529A.984.984,0,0,1,87.069,458.421Z" transform="translate(-86.084 -433.922)" fill="#4db4e8"/>
    </g>
    <g id="Group_17098" data-name="Group 17098" transform="translate(6718.215 1235.357)">
      <path id="Path_8349" data-name="Path 8349" d="M87.639,456.8h0Z" transform="translate(-86.162 -455.32)" fill="#4db4e8"/>
      <path id="Path_8350" data-name="Path 8350" d="M104.886,458.346H87.711a1.477,1.477,0,1,1,0-2.954h17.175a1.477,1.477,0,1,1,0,2.954Z" transform="translate(-86.234 -455.392)" fill="#4db4e8"/>
    </g>
  </g>
</svg>
