<svg xmlns="http://www.w3.org/2000/svg" xmlns:xlink="http://www.w3.org/1999/xlink" width="52.143" height="51.912" viewBox="0 0 52.143 51.912"><defs><style>.a{fill:url(#a);}.b{fill:url(#b);}.c{fill:url(#c);}.d{fill:url(#e);}.e{fill:url(#f);}.f{fill:url(#g);}.g{fill:url(#h);}.h{fill:url(#i);}.i{fill:#bec3d2;}.j{fill:url(#j);}.k{fill:url(#k);}.l{fill:url(#l);}.m{fill:url(#m);}.n{fill:url(#n);}.o{fill:url(#o);}.p{fill:url(#p);}.q{fill:url(#q);}.r{fill:url(#r);}.s{fill:url(#s);}.t{fill:url(#t);}.u{fill:url(#u);}.v{fill:url(#v);}.w{fill:url(#w);}.x{fill:url(#x);}.y{fill:url(#y);}.z{fill:url(#z);}.aa{fill:url(#aa);}.ab{fill:url(#ab);}</style><linearGradient id="a" x1="0.297" y1="0.052" x2="0.933" y2="1.605" gradientUnits="objectBoundingBox"><stop offset="0" stop-color="#ff7044"/><stop offset="1" stop-color="#f92814"/></linearGradient><linearGradient id="b" x1="0.48" y1="-1.161" x2="0.523" y2="2.301" gradientUnits="objectBoundingBox"><stop offset="0" stop-color="#f92814" stop-opacity="0"/><stop offset="1" stop-color="#c1272d"/></linearGradient><linearGradient id="c" x1="0.467" y1="0.085" x2="0.514" y2="0.762" gradientUnits="objectBoundingBox"><stop offset="0" stop-color="#f9f7fc"/><stop offset="1" stop-color="#f0ddfc"/></linearGradient><linearGradient id="e" x1="0.52" y1="0.875" x2="0.556" y2="1.42" gradientUnits="objectBoundingBox"><stop offset="0" stop-color="#f0ddfc" stop-opacity="0"/><stop offset="0.289" stop-color="#c8b7e0" stop-opacity="0.29"/><stop offset="0.591" stop-color="#a595c8" stop-opacity="0.592"/><stop offset="0.84" stop-color="#8f81b8" stop-opacity="0.839"/><stop offset="1" stop-color="#8779b3"/></linearGradient><linearGradient id="f" x1="0.488" y1="0.918" x2="0.475" y2="1.285" xlink:href="#e"/><linearGradient id="g" x1="0.4" y1="0.411" x2="0.76" y2="0.872" xlink:href="#c"/><linearGradient id="h" x1="0.319" y1="0.285" x2="0.661" y2="0.847" xlink:href="#c"/><linearGradient id="i" x1="0.47" y1="0.505" x2="0.115" y2="0.057" gradientUnits="objectBoundingBox"><stop offset="0" stop-color="#e9edf5" stop-opacity="0"/><stop offset="1" stop-color="#fff"/></linearGradient><linearGradient id="j" x1="0.68" y1="0.511" x2="0.208" y2="-0.274" gradientUnits="objectBoundingBox"><stop offset="0" stop-color="#f0ddfc" stop-opacity="0"/><stop offset="0.161" stop-color="#e8d5f6" stop-opacity="0.161"/><stop offset="0.417" stop-color="#d1bfe6" stop-opacity="0.416"/><stop offset="0.733" stop-color="#ac9ccd" stop-opacity="0.733"/><stop offset="1" stop-color="#8779b3"/></linearGradient><linearGradient id="k" x1="-4.97" y1="12.681" x2="-4.22" y2="12.681" xlink:href="#a"/><linearGradient id="l" x1="-4.854" y1="13.95" x2="-5.381" y2="13.298" gradientUnits="objectBoundingBox"><stop offset="0" stop-color="#ff7044" stop-opacity="0"/><stop offset="1" stop-color="#ffa425"/></linearGradient><linearGradient id="m" x1="-11.317" y1="23.305" x2="-10.947" y2="24.445" xlink:href="#b"/><linearGradient id="n" x1="-3.721" y1="10.57" x2="-3.047" y2="10.57" xlink:href="#c"/><linearGradient id="o" x1="-5.483" y1="8.235" x2="-5.658" y2="7.804" xlink:href="#e"/><linearGradient id="p" x1="-4.675" y1="13.533" x2="-4.668" y2="13.712" xlink:href="#c"/><linearGradient id="q" x1="-1.4" y1="11.745" x2="-0.488" y2="11.745" gradientUnits="objectBoundingBox"><stop offset="0" stop-color="#ffdaaa"/><stop offset="0.421" stop-color="#ffd8a8"/><stop offset="0.652" stop-color="#fed1a0"/><stop offset="0.836" stop-color="#fdc592"/><stop offset="0.995" stop-color="#fcb47f"/><stop offset="1" stop-color="#fcb37e"/></linearGradient><linearGradient id="r" x1="-0.797" y1="13.707" x2="-1.532" y2="13.574" gradientUnits="objectBoundingBox"><stop offset="0" stop-color="#ffdaaa" stop-opacity="0"/><stop offset="0.251" stop-color="#ffe7c8" stop-opacity="0.251"/><stop offset="0.554" stop-color="#fff4e6" stop-opacity="0.553"/><stop offset="0.815" stop-color="#fffcf8" stop-opacity="0.816"/><stop offset="1" stop-color="#fff"/></linearGradient><linearGradient id="s" x1="-0.605" y1="4.246" x2="-0.284" y2="4.246" gradientUnits="objectBoundingBox"><stop offset="0" stop-color="#ffda45"/><stop offset="1" stop-color="#ffa425"/></linearGradient><linearGradient id="t" x1="-0.591" y1="4.551" x2="-0.314" y2="4.551" xlink:href="#s"/><linearGradient id="u" x1="0.522" y1="0.582" x2="0.334" y2="0.26" gradientUnits="objectBoundingBox"><stop offset="0" stop-color="#ffda45" stop-opacity="0"/><stop offset="1" stop-color="#fcee21"/></linearGradient><linearGradient id="v" x1="-3.653" y1="42.988" x2="-2.777" y2="42.988" gradientUnits="objectBoundingBox"><stop offset="0" stop-color="#7e8595"/><stop offset="1" stop-color="#555a66"/></linearGradient><linearGradient id="w" x1="-4.761" y1="8.616" x2="-5.674" y2="7.638" gradientUnits="objectBoundingBox"><stop offset="0" stop-color="#ffda45" stop-opacity="0"/><stop offset="1" stop-color="#b53759"/></linearGradient><linearGradient id="x" x1="-4.387" y1="13.652" x2="-4.38" y2="13.831" xlink:href="#c"/><linearGradient id="y" x1="0.5" y1="0.384" x2="0.5" y2="1.412" gradientUnits="objectBoundingBox"><stop offset="0" stop-color="#92f37f"/><stop offset="1" stop-color="#4ab272"/></linearGradient><linearGradient id="z" x1="21.797" y1="-9.991" x2="21.797" y2="-9.487" xlink:href="#y"/><linearGradient id="aa" x1="10.911" y1="0.364" x2="10.911" y2="0.957" xlink:href="#y"/><linearGradient id="ab" x1="4.987" y1="-1.423" x2="4.987" y2="-0.83" xlink:href="#y"/></defs><path class="a" d="M52.142,298.326v16.734a1.182,1.182,0,0,1-1.625,1.04,32.18,32.18,0,0,0-23.527.273,2.451,2.451,0,0,1-1.839,0A32.183,32.183,0,0,0,1.625,316.1,1.182,1.182,0,0,1,0,315.061V298.326a1.418,1.418,0,0,1,.915-1.308,32.711,32.711,0,0,1,12.12-2.367A32.923,32.923,0,0,1,26.071,297.4a32.279,32.279,0,0,1,25.156-.378A1.418,1.418,0,0,1,52.142,298.326Z" transform="translate(0 -264.641)"/><path class="b" d="M50.517,463.658a32.18,32.18,0,0,0-23.527.273,2.451,2.451,0,0,1-1.839,0,32.183,32.183,0,0,0-23.526-.273A1.182,1.182,0,0,1,0,462.617v2.292a1.182,1.182,0,0,0,1.625,1.041,32.183,32.183,0,0,1,23.526.273,2.451,2.451,0,0,0,1.839,0,32.18,32.18,0,0,1,23.526-.273,1.182,1.182,0,0,0,1.625-1.041v-2.292A1.182,1.182,0,0,1,50.517,463.658Z" transform="translate(0 -414.49)"/><path class="c" d="M63.784,292.482v13.857a1.119,1.119,0,0,1-1.532,1.041,28.652,28.652,0,0,0-21.132-.145,5.276,5.276,0,0,1-3.824,0,28.652,28.652,0,0,0-21.13.146,1.12,1.12,0,0,1-1.532-1.041V292.482a1.417,1.417,0,0,1,.862-1.308,28.821,28.821,0,0,1,23.713.378,28.823,28.823,0,0,1,23.713-.378,1.418,1.418,0,0,1,.862,1.308Z" transform="translate(-13.138 -259.395)"/><path class="c" d="M63.784,292.482v13.857a1.119,1.119,0,0,1-1.532,1.041,28.652,28.652,0,0,0-21.132-.145,5.276,5.276,0,0,1-3.824,0,28.652,28.652,0,0,0-21.13.146,1.12,1.12,0,0,1-1.532-1.041V292.482a1.417,1.417,0,0,1,.862-1.308,28.821,28.821,0,0,1,23.713.378,28.823,28.823,0,0,1,23.713-.378,1.418,1.418,0,0,1,.862,1.308Z" transform="translate(-13.138 -259.395)"/><path class="d" d="M63.784,283.358v13.857a1.119,1.119,0,0,1-1.532,1.04,28.652,28.652,0,0,0-21.132-.145,5.276,5.276,0,0,1-3.824,0,28.652,28.652,0,0,0-21.13.146,1.119,1.119,0,0,1-1.532-1.041V283.358a1.418,1.418,0,0,1,.862-1.308,28.822,28.822,0,0,1,23.713.378,28.824,28.824,0,0,1,23.713-.378,1.418,1.418,0,0,1,.862,1.308Z" transform="translate(-13.138 -251.203)"/><path class="e" d="M14.633,276.34V290.2a1.119,1.119,0,0,0,1.532,1.04,28.652,28.652,0,0,1,21.132-.145,5.276,5.276,0,0,0,3.824,0,28.653,28.653,0,0,1,21.13.146,1.119,1.119,0,0,0,1.532-1.04V276.34a1.418,1.418,0,0,0-.862-1.308,28.821,28.821,0,0,0-23.713.378,28.823,28.823,0,0,0-23.713-.378A1.418,1.418,0,0,0,14.633,276.34Z" transform="translate(-13.137 -244.903)"/><path class="f" d="M15.5,263.518a1.417,1.417,0,0,0-.862,1.308v13.856a1.12,1.12,0,0,0,1.532,1.041,28.787,28.787,0,0,1,23.043.651V263.9A28.82,28.82,0,0,0,15.5,263.518Z" transform="translate(-13.138 -234.566)"/><path class="g" d="M278.713,263.519A28.82,28.82,0,0,0,255,263.9v16.479a28.787,28.787,0,0,1,23.043-.651,1.12,1.12,0,0,0,1.533-1.041V264.827A1.417,1.417,0,0,0,278.713,263.519Z" transform="translate(-228.929 -234.567)"/><path class="h" d="M31.157,286.519a1.325,1.325,0,0,0-.805,1.223v11.84a1.047,1.047,0,0,0,1.432.973,26.906,26.906,0,0,1,21.536.609V286.871A26.936,26.936,0,0,0,31.157,286.519Z" transform="translate(-27.249 -255.354)"/><g transform="translate(4.958 30.078)"><path class="i" d="M48.725,297.616a26.255,26.255,0,0,1,6.551-1.432.351.351,0,0,1,.379.351v.835a.351.351,0,0,1-.322.349,24.766,24.766,0,0,0-6.371,1.442.351.351,0,0,1-.471-.33v-.883A.352.352,0,0,1,48.725,297.616Z" transform="translate(-48.491 -296.094)"/><path class="i" d="M132.312,295.9v.838a.35.35,0,0,1-.4.348,23.584,23.584,0,0,0-3.733-.227.352.352,0,0,1-.36-.351v-.831a.351.351,0,0,1,.343-.352,25.08,25.08,0,0,1,3.845.226A.352.352,0,0,1,132.312,295.9Z" transform="translate(-119.71 -295.321)"/><path class="i" d="M184.374,301.312v.873a.35.35,0,0,1-.458.334,25.251,25.251,0,0,0-2.636-.707.351.351,0,0,1-.28-.343v-.85a.35.35,0,0,1,.419-.345,26.776,26.776,0,0,1,2.71.7A.352.352,0,0,1,184.374,301.312Z" transform="translate(-167.452 -299.761)"/><path class="i" d="M48.725,336.783q.877-.31,1.76-.558a.352.352,0,0,1,.448.338v.865a.351.351,0,0,1-.254.337q-.861.249-1.717.562a.351.351,0,0,1-.47-.33v-.883A.352.352,0,0,1,48.725,336.783Z" transform="translate(-48.491 -332.032)"/><path class="i" d="M88.5,327.282v.831a.35.35,0,0,1-.364.351q-.688-.029-1.376-.018a23.907,23.907,0,0,0-4.709.553.353.353,0,0,1-.426-.346v-.846a.352.352,0,0,1,.278-.344,25.419,25.419,0,0,1,4.832-.55q.714-.012,1.43.017a.352.352,0,0,1,.335.352Z" transform="translate(-78.242 -323.68)"/><path class="i" d="M163.842,329.719v.872a.351.351,0,0,1-.458.334,24.772,24.772,0,0,0-4.94-1.078.351.351,0,0,1-.314-.349v-.836a.351.351,0,0,1,.386-.35,26.21,26.21,0,0,1,5.081,1.07A.352.352,0,0,1,163.842,329.719Z" transform="translate(-146.92 -324.938)"/><path class="i" d="M48.724,360.813a26.3,26.3,0,0,1,6.552-1.43.351.351,0,0,1,.379.35v.835a.352.352,0,0,1-.322.35,24.813,24.813,0,0,0-6.371,1.44.351.351,0,0,1-.471-.33v-.882A.352.352,0,0,1,48.724,360.813Z" transform="translate(-48.49 -352.832)"/><path class="i" d="M136.631,360.054v.873a.351.351,0,0,1-.458.334,24.25,24.25,0,0,0-7.94-1.22h-.054a.351.351,0,0,1-.359-.351v-.832a.351.351,0,0,1,.344-.351h.043a25.712,25.712,0,0,1,8.178,1.211.352.352,0,0,1,.245.336Z" transform="translate(-119.709 -352.044)"/><path class="i" d="M48.725,399.957q.877-.31,1.76-.557a.352.352,0,0,1,.448.338v.865a.351.351,0,0,1-.254.337q-.862.25-1.717.563a.351.351,0,0,1-.47-.33v-.883A.352.352,0,0,1,48.725,399.957Z" transform="translate(-48.491 -388.746)"/><path class="i" d="M90.844,390.672v.838a.352.352,0,0,1-.4.347,23.622,23.622,0,0,0-3.675-.227,23.866,23.866,0,0,0-4.709.553.353.353,0,0,1-.426-.346v-.846a.352.352,0,0,1,.278-.344,25.1,25.1,0,0,1,8.634-.323A.351.351,0,0,1,90.844,390.672Z" transform="translate(-78.242 -380.403)"/></g><path class="j" d="M229.049,279.724a1.12,1.12,0,0,0,1.532-1.041V264.827a1.417,1.417,0,0,0-.862-1.308,28.82,28.82,0,0,0-23.713.378,31.554,31.554,0,0,0-4.37-1.617l-1.181,3.3a.474.474,0,0,0,.413.632l11.954,11.954A28.62,28.62,0,0,1,229.049,279.724Z" transform="translate(-179.935 -234.567)"/><path class="k" d="M445.92,8.2l-5.073-5.073,1.768-1.768a.78.78,0,0,1,.973-.1,13.948,13.948,0,0,1,4.205,4.205.78.78,0,0,1-.1.973Z" transform="translate(-395.775 -1.127)"/><path class="l" d="M448.24,13.646l1.768-1.768a.782.782,0,0,0,.108-.137.782.782,0,0,0-.1-.216,13.948,13.948,0,0,0-4.205-4.205.78.78,0,0,0-.973.1l-1.412,1.412Z" transform="translate(-398.095 -6.576)"/><path class="m" d="M482.822,36.137c-.183-.286-.378-.564-.581-.835a.953.953,0,0,1-.215.33l-2.162,2.162,1.084,1.084,1.768-1.768A.781.781,0,0,0,482.822,36.137Z" transform="translate(-430.803 -31.808)"/><path class="n" d="M416.159,24.389l2.987-2.987a.3.3,0,0,0,0-.421L413.965,15.8a.3.3,0,0,0-.421,0l-2.987,2.987Z" transform="translate(-368.582 -14.222)"/><path class="o" d="M425.269,30.987V42.194l5.61-5.607-5.606-5.606Z" transform="translate(-381.789 -27.93)"/><path class="p" d="M430.1,27.849l-5.3-5.3a.68.68,0,1,1,.961-.961l5.3,5.3a.68.68,0,0,1-.961.961Z" transform="translate(-381.193 -19.317)"/><path class="q" d="M203.235,226.075l-2.78,7.777a.473.473,0,0,0,.605.605l7.777-2.78C210.389,230.125,204.787,224.523,203.235,226.075Z" transform="translate(-179.935 -202.835)"/><path class="r" d="M205.084,238.926l-4.091,6.837c-.007.011-.011.022-.017.033a.471.471,0,0,0,.577.224l7.777-2.78c.012-.012.022-.025.033-.037C209.825,241.389,206.6,237.714,205.084,238.926Z" transform="translate(-180.428 -214.397)"/><path class="s" d="M252.648,46.749,233.5,65.9a1.736,1.736,0,0,0-.277-.36,1.755,1.755,0,0,0-2.482,0c-.031.031.089-.1.089-.1a1.756,1.756,0,0,0-2.476-2.476s-.127.119-.1.089a1.755,1.755,0,0,0-.36-2.759l19.149-19.148Z" transform="translate(-204.597 -37.055)"/><path class="t" d="M255.087,58.911,234.831,79.167a1.756,1.756,0,0,0-2.476-2.476l20.256-20.256Z" transform="translate(-208.599 -50.78)"/><path class="u" d="M231.374,68.905c-.031.031.1-.089.1-.089a1.756,1.756,0,0,1,2.476,2.476s-.119.127-.089.1a1.755,1.755,0,0,1,2.759.36L255.765,52.6l-4.936-4.936L231.673,66.821A1.756,1.756,0,0,1,231.374,68.905Z" transform="translate(-207.714 -42.906)"/><path class="v" d="M202.026,288.833a3.9,3.9,0,0,0-.971-.71l-.6,1.674a.473.473,0,0,0,.605.605l1.674-.6A3.9,3.9,0,0,0,202.026,288.833Z" transform="translate(-179.936 -258.78)"/><path class="w" d="M406.537,49.719l.013,11.2,5.6-5.6-5.606-5.606Z" transform="translate(-364.973 -44.746)"/><path class="x" d="M411.361,46.59l-5.3-5.3a.68.68,0,1,1,.961-.961l5.3,5.3a.68.68,0,1,1-.961.961Z" transform="translate(-364.367 -36.143)"/><path class="y" d="M3.168,206.263H1.028a1.028,1.028,0,1,1,0-2.056h2.14a1.028,1.028,0,1,1,0,2.056Z" transform="translate(0 -183.444)"/><path class="z" d="M202.884,6.547V4.407a1.028,1.028,0,0,0-2.056,0v2.14a1.028,1.028,0,0,0,2.056,0Z" transform="translate(-180.295 -3.149)"/><path class="aa" d="M60.636,65.469l-1.513-1.513A1.028,1.028,0,1,1,60.576,62.5l1.513,1.513a1.028,1.028,0,1,1-1.454,1.454Z" transform="translate(-52.808 -55.956)"/><path class="ab" d="M329.786,65.468l1.513-1.513a1.028,1.028,0,1,0-1.454-1.454l-1.513,1.513a1.028,1.028,0,0,0,1.454,1.454Z" transform="translate(-294.493 -55.955)"/></svg>