<svg xmlns="http://www.w3.org/2000/svg" width="44.086" height="50.625" viewBox="0 0 44.086 50.625"><defs><style>.a{fill:#87e680;}.b{fill:#fff;}.c{fill:#344a5e;}.d{fill:#415a6b;}</style></defs><path class="a" d="M129.119,107.742a11.876,11.876,0,0,1,3.586-5.484,14.407,14.407,0,0,0,5.168-11.074,14.557,14.557,0,1,0-23.941,11.074,11.316,11.316,0,0,1,3.691,5.484Z" transform="translate(-101.276 -69.035)"/><path class="b" d="M203.308,234.042h.949l-4.219-15.715h.316a2.082,2.082,0,0,0,1.477-.633,1.02,1.02,0,0,1,1.477,0,1.8,1.8,0,0,0,2.742,0,.957.957,0,0,1,.738-.316,1.14,1.14,0,0,1,.738.316,1.915,1.915,0,0,0,1.477.633h.316l-4.113,15.715h.949l4.324-16.453c0-.211,0-.422-.211-.527a.464.464,0,0,0-.527.106.912.912,0,0,1-.633.316,1.4,1.4,0,0,1-.844-.316,1.8,1.8,0,0,0-2.742,0,1.019,1.019,0,0,1-1.477,0,1.7,1.7,0,0,0-1.371-.633h0a1.7,1.7,0,0,0-1.371.633,1.2,1.2,0,0,1-.844.316.752.752,0,0,1-.633-.316.464.464,0,0,0-.527-.106.385.385,0,0,0-.211.527Z" transform="translate(-182.637 -195.124)"/><g transform="translate(16.348 38.601)"><path class="c" d="M222.933,489.6a3.521,3.521,0,0,0,6.539,0Z" transform="translate(-220.507 -479.791)"/><path class="c" d="M208,400.314h-7.7a1.891,1.891,0,0,1-1.9-1.9V390.4h11.5v8.016A1.891,1.891,0,0,1,208,400.314Z" transform="translate(-198.4 -390.4)"/></g><g transform="translate(15.187 40.289)"><path class="d" d="M199.218,409.787H187.827a1.17,1.17,0,0,1-1.16-1.16h0a1.17,1.17,0,0,1,1.16-1.16h11.391a1.17,1.17,0,0,1,1.16,1.16h0A1.17,1.17,0,0,1,199.218,409.787Z" transform="translate(-186.667 -407.467)"/><path class="d" d="M199.218,447.121H187.827a1.17,1.17,0,0,1-1.16-1.16h0a1.17,1.17,0,0,1,1.16-1.16h11.391a1.17,1.17,0,0,1,1.16,1.16h0A1.17,1.17,0,0,1,199.218,447.121Z" transform="translate(-186.667 -441.109)"/></g><g transform="translate(0)"><path class="a" d="M246.388,0a1.057,1.057,0,0,0-1.055,1.055V4.641A1.057,1.057,0,0,0,246.388,5.7a1,1,0,0,0,1.055-1.055V1.055A1.057,1.057,0,0,0,246.388,0Z" transform="translate(-224.345)"/><path class="a" d="M96.727,62.183a1.044,1.044,0,1,0-1.476,1.477l2.531,2.531a1.044,1.044,0,0,0,1.477-1.477Z" transform="translate(-88.817 -55.75)"/><path class="a" d="M37.707,212.267H34.121a1.057,1.057,0,0,0-1.055,1.055h0a1.057,1.057,0,0,0,1.055,1.055h3.586a1.057,1.057,0,0,0,1.055-1.055h0A1.134,1.134,0,0,0,37.707,212.267Z" transform="translate(-33.066 -191.279)"/><path class="a" d="M97.78,337.383l-2.531,2.531a1.044,1.044,0,0,0,1.477,1.477l2.531-2.531a1.044,1.044,0,1,0-1.477-1.477Z" transform="translate(-88.816 -303.739)"/><path class="a" d="M371.926,337.383a1.044,1.044,0,1,0-1.477,1.477l2.531,2.531a1.044,1.044,0,0,0,1.477-1.476Z" transform="translate(-336.805 -303.739)"/><path class="a" d="M425.974,212.267h-3.586a1.057,1.057,0,0,0-1.055,1.055h0a1.057,1.057,0,0,0,1.055,1.055h3.586a1.057,1.057,0,0,0,1.055-1.055h0A1.057,1.057,0,0,0,425.974,212.267Z" transform="translate(-382.943 -191.279)"/><path class="a" d="M372.98,62.184l-2.531,2.531a1.044,1.044,0,0,0,1.476,1.477l2.531-2.531a1.044,1.044,0,0,0-1.477-1.477Z" transform="translate(-336.805 -55.75)"/></g></svg>