<svg xmlns="http://www.w3.org/2000/svg" width="133.896" height="134.421" viewBox="0 0 133.896 134.421">
  <g id="ic_no_workspace" transform="translate(-0.5 0)">
    <g id="Group_11032" data-name="Group 11032" transform="translate(0.5 0)">
      <path id="Path_5142" data-name="Path 5142" d="M67.443,455H6.067C2.647,455,.609,453.1.5,450.668v11.884a4.23,4.23,0,0,0,4.21,4.218H130.16a4.23,4.23,0,0,0,4.21-4.218V450.939c-.24,2.3-2.256,4.062-5.543,4.062Zm0,0" transform="translate(-0.5 -332.349)" fill="#91561a" fill-rule="evenodd"/>
      <path id="Path_5143" data-name="Path 5143" d="M5.632,398.857l-3.923,5.6A6.242,6.242,0,0,0,.5,407.726v.411c.109,2.434,2.148,4.333,5.567,4.333H128.827c3.287,0,5.3-1.76,5.543-4.062a5.819,5.819,0,0,0-1.194-3.954l-3.923-5.6c-1.775-2.535-3.946-5.613-6.985-5.846-.116-.008-1.945-.015-2.07-.015-3.55,3.07-10.877,4.07-19.095,4.07h-68.3c-8.211,0-15.544-1-19.088-4.07-.147,0-1.022.008-1.162.015-3,.272-5.155,3.326-6.924,5.846Zm0,0" transform="translate(-0.5 -289.818)" fill="#b5722f" fill-rule="evenodd"/>
      <path id="Path_5144" data-name="Path 5144" d="M43.921,342.085c-2.6,4.907-2.032,8.272.573,10.528,3.543,3.07,10.877,4.07,19.088,4.07h2.194l8.21-7.721-9.76-7.629c-7.45-5.822-15.156-2.179-20.3.752Zm0,0" transform="translate(-31.277 -249.435)" fill="#ffdda6" fill-rule="evenodd"/>
      <path id="Path_5145" data-name="Path 5145" d="M364.179,345.605l-6.086,7.652,4.535,7.7h2.187c8.217,0,15.543-1,19.094-4.07,2.6-2.256,3.171-5.621.574-10.528-5.156-2.931-11.125-2.993-20.3-.752Zm0,0" transform="translate(-264.21 -253.707)" fill="#ffdda6" fill-rule="evenodd"/>
      <path id="Path_5146" data-name="Path 5146" d="M74.678,236.153c-9.621.512-13.256,5.83-17.885,14.575L48.66,266.094c5.148-2.931,11.117-2.993,20.3-.752h67.021c9.179-2.241,15.148-2.179,20.3.752l-8.14-15.366c-4.628-8.745-8.257-14.055-17.877-14.575a19.91,19.91,0,0,1-5.66-.961l-44.383.031a19.85,19.85,0,0,1-5.551.93Zm0,0" transform="translate(-36.016 -173.444)" fill="#64b0d9" fill-rule="evenodd"/>
      <path id="Path_5147" data-name="Path 5147" d="M331.451,107.977c-6.482,4.876-4.28,8.885-.388,11.118,3.078.046,6.512-3.125,6.512-6.233v-2.426a2.464,2.464,0,0,0-2.458-2.458Zm0,0" transform="translate(-241.529 -79.628)" fill="#eda93b" fill-rule="evenodd"/>
      <path id="Path_5148" data-name="Path 5148" d="M134.559,112.861c0,3.108,3.435,6.279,6.505,6.233l4.93-6.07-5.31-5.048h-3.666a2.464,2.464,0,0,0-2.458,2.458Zm0,0" transform="translate(-99.363 -79.628)" fill="#eda93b" fill-rule="evenodd"/>
      <path id="Path_5149" data-name="Path 5149" d="M376.127,365.539l-.76,7.529h2.186c8.217,0,15.543-1,19.094-4.07,2.233-1.938,2.97-4.691,1.489-8.544a7.531,7.531,0,0,1-.977,1.016c-3.55,3.078-10.877,4.069-19.094,4.069Zm0,0" transform="translate(-276.949 -265.819)" fill="#fcc368" fill-rule="evenodd"/>
      <path id="Path_5150" data-name="Path 5150" d="M42.95,360.9c-1.427,3.79-.682,6.512,1.535,8.427,3.542,3.069,10.877,4.07,19.087,4.07h2.194l-.775-7.675H62.8c-8.21,0-15.543-1-19.087-4.07A7.742,7.742,0,0,1,42.95,360.9Zm0,0" transform="translate(-31.266 -266.147)" fill="#fcc368" fill-rule="evenodd"/>
      <path id="Path_5151" data-name="Path 5151" d="M320.473,239.982a21.25,21.25,0,0,0,5.031.767c9.621.512,13.249,5.822,17.885,14.567l4.473,8.451a18.161,18.161,0,0,1,8.877,2.326L348.6,250.727c-4.628-8.745-8.256-14.055-17.878-14.575a19.868,19.868,0,0,1-5.659-.961,15.146,15.146,0,0,1-4.589,4.791Zm0,0" transform="translate(-236.467 -173.444)" fill="#4a83c9" fill-rule="evenodd"/>
      <path id="Path_5152" data-name="Path 5152" d="M169.383,193.781c8.3,12.574,36.862,11.458,43.9-.706a13.942,13.942,0,0,1-6-4.349c-.69-.783-2.581-2.644-2.69-2.783l-12.4-7.861-15.249,8.629c-.629.635-1.512,1.527-1.938,2.015a13.876,13.876,0,0,1-6.109,4.38c.131.233.333.449.481.675Zm0,0" transform="translate(-124.69 -131.328)" fill="#fcc368" fill-rule="evenodd"/>
      <path id="Path_5153" data-name="Path 5153" d="M158.267,86.649c1.216,5.652,5.232,11.7,10.558,15.917a28.06,28.06,0,0,0,6.2,3.744c.364.155.736.3,1.1.442a15.6,15.6,0,0,0,12.141-.015,27.542,27.542,0,0,0,8.2-4.939c4.868-4.163,8.49-9.83,9.629-15.148a15.982,15.982,0,0,0,.388-3.419v-13.2L184.075,63.98l-26.189,6.047v13.2A16.435,16.435,0,0,0,158.267,86.649Zm0,0" transform="translate(-116.566 -47.183)" fill="#ffdda6" fill-rule="evenodd"/>
      <path id="Path_5154" data-name="Path 5154" d="M273.265,89.26v13.2a16.432,16.432,0,0,1-.379,3.419c-1.139,5.318-4.768,10.986-9.629,15.148a29.4,29.4,0,0,1-5.62,3.8,19.434,19.434,0,0,0,4.194-1.109,23.3,23.3,0,0,0,2.311-1,28.724,28.724,0,0,0,5.892-3.938c4.869-4.164,8.49-9.831,9.629-15.148a15.977,15.977,0,0,0,.388-3.419v-13.2c-2.474.938-4.722,1.675-6.784,2.248Zm0,0" transform="translate(-190.128 -64.167)" fill="#fcc368" fill-rule="evenodd"/>
      <path id="Path_5155" data-name="Path 5155" d="M157.887,22.844c21.219-5.722,19.5,11.063,48.6,0,13.45-9.784.264-28.724-14.133-21.064-7.109,3.783-15.985-1.729-23.428,1.542-7.295,3.21-11.04,10.064-11.04,19.521Zm0,0" transform="translate(-116.566 0)" fill="gray" fill-rule="evenodd"/>
      <path id="Path_5156" data-name="Path 5156" d="M284.922,2.292c11.791-1.008,20.117,14.327,8.465,22.8,2.062-.573,4.31-1.31,6.784-2.248,13.45-9.784.263-28.724-14.133-21.064a12.1,12.1,0,0,1-1.116.512Zm0,0" transform="translate(-210.249 0)" fill="#666" fill-rule="evenodd"/>
      <path id="Path_5157" data-name="Path 5157" d="M218.089,216.28a13.225,13.225,0,0,0,5.2,3.465c.209.07.411.139.628.2a15.125,15.125,0,0,0,4.589-4.791l-.116-.046a14.05,14.05,0,0,1-5.892-4.3c-.683-.791-2.574-2.652-2.683-2.792a27.55,27.55,0,0,1-8.2,4.939,15.6,15.6,0,0,1-12.14.015c-.365-.139-.736-.287-1.1-.442a28.057,28.057,0,0,1-6.2-3.744c-.629.635-1.512,1.527-1.938,2.015-.233.272-.457.519-.69.76q1,.9,2.07,1.714a29.291,29.291,0,0,0,6.473,3.744c.381.155.76.3,1.148.434a16.864,16.864,0,0,0,12.659-.007,25.631,25.631,0,0,0,3.822-1.729C216.166,215.474,216.856,215.009,218.089,216.28Zm0,0" transform="translate(-139.912 -153.409)" fill="#eda93b" fill-rule="evenodd"/>
      <path id="Path_5158" data-name="Path 5158" d="M57.821,403.493l-3.334-6.426H52.293c-8.211,0-15.544-1-19.088-4.07-.147,0-1.022.007-1.162.015a6.789,6.789,0,0,0-4.125,2.28l-.07.07c-.318.34-.628.689-.923,1.061,2.535,6.76,24.056,7.07,30.895,7.07Zm0,0" transform="translate(-19.988 -289.819)" fill="#91561a" fill-rule="evenodd"/>
      <path id="Path_5159" data-name="Path 5159" d="M362.668,403.493,366,397.067h2.186c8.217,0,15.543-.993,19.094-4.07h.1c.41,0,1.86.007,1.969.015a6.86,6.86,0,0,1,4.365,2.465l-.016-.008a.132.132,0,0,1,.039.031l.039.039c.093.1-.046.512-.217.884C391.019,403.183,369.5,403.493,362.668,403.493Zm0,0" transform="translate(-267.584 -289.819)" fill="#91561a" fill-rule="evenodd"/>
      <path id="Path_5160" data-name="Path 5160" d="M122.653,309.047,124.2,324.4l.349,3.442a3.106,3.106,0,0,0,2.977,2.977H184.79a3.107,3.107,0,0,0,2.984-2.977l.349-3.442,1.551-15.35,1.171-11.606a2.9,2.9,0,0,0-2.985-2.984h-63.4a2.9,2.9,0,0,0-2.984,2.984Zm0,0" transform="translate(-89.705 -217.15)" fill="#e6e6e6" fill-rule="evenodd"/>
      <path id="Path_5161" data-name="Path 5161" d="M230,348.611c0,2.969,2.775,5.38,6.2,5.38s6.21-2.411,6.21-5.38-2.783-5.373-6.21-5.373S230,345.642,230,348.611Zm0,0" transform="translate(-169.744 -253.124)" fill="#fcc368" fill-rule="evenodd"/>
      <path id="Path_5162" data-name="Path 5162" d="M131.9,408.5l.349,3.442a3.8,3.8,0,0,0,.194.884,2.965,2.965,0,0,0,2.783,2.093h57.261a2.959,2.959,0,0,0,2.783-2.093,3.755,3.755,0,0,0,.2-.884l.349-3.442Zm0,0" transform="translate(-97.404 -301.252)" fill="#c2c7cc" fill-rule="evenodd"/>
    </g>
    <path id="Path_5163" data-name="Path 5163" d="M209.107,136.6a2.044,2.044,0,0,1-2.044-2.044v-2.287a2.044,2.044,0,1,1,4.089,0v2.287A2.045,2.045,0,0,1,209.107,136.6Zm0,0" transform="translate(-152.332 -96.034)" fill="#666"/>
    <path id="Path_5164" data-name="Path 5164" d="M281.333,136.6a2.044,2.044,0,0,1-2.044-2.044v-2.287a2.044,2.044,0,1,1,4.089,0v2.287A2.044,2.044,0,0,1,281.333,136.6Zm0,0" transform="translate(-205.595 -96.034)" fill="#666"/>
  </g>
</svg>
