<svg xmlns="http://www.w3.org/2000/svg" width="181.925" height="181.346" viewBox="0 0 181.925 181.346">
  <g id="Group_7783" data-name="Group 7783" transform="translate(-545.423 -2204.403)">
    <g id="Group_7781" data-name="Group 7781" transform="translate(545.423 2204.403)">
      <circle id="Ellipse_2817" data-name="Ellipse 2817" cx="64.116" cy="64.116" r="64.116" transform="translate(0.579 90.673) rotate(-45)" fill="#d5ffdc"/>
      <circle id="Ellipse_2818" data-name="Ellipse 2818" cx="51.649" cy="51.649" r="51.649" transform="matrix(0.369, -0.93, 0.93, 0.369, 18.505, 119.651)" fill="#b8f2c1"/>
      <g id="Group_7776" data-name="Group 7776" transform="translate(0 8.412)">
        <path id="Path_4536" data-name="Path 4536" d="M210.443,106.311l18.815,44.146,13.752-9.407,7.969,11.58,1.438-19.534,16.643-10.141Z" transform="translate(-210.443 -106.311)" fill="#1ec2ed"/>
        <path id="Path_4537" data-name="Path 4537" d="M245.61,138.641l-16.8,11.5,13.752-9.407,7.969,11.58,1.438-19.534-26.519-15.794Z" transform="translate(-209.995 -105.992)" fill="#3374b9"/>
        <path id="Path_4538" data-name="Path 4538" d="M251.616,137.564l-26.167-20.582,26.519,15.794Z" transform="translate(-209.995 -105.992)" fill="#06294e"/>
      </g>
      <path id="Path_4539" data-name="Path 4539" d="M250.146,156.716c-.147-.861-.336-1.718-.558-2.551l1.289-.346c.234.872.429,1.77.585,2.669Z" transform="translate(-209.274 -96.48)" fill="#52b962"/>
      <path id="Path_4540" data-name="Path 4540" d="M235.3,186.466a11.048,11.048,0,0,1-5.365-1.79l.738-1.112a9.7,9.7,0,0,0,4.715,1.569Zm5.548-1.09-.589-1.2a13.438,13.438,0,0,0,3.995-3.146l.994.893A14.751,14.751,0,0,1,240.848,185.376Zm-14.629-4.965a11.015,11.015,0,0,1-1.15-4.853c0-.135,0-.271.008-.406l.015-.289,1.332.1-.012.243c-.005.12-.007.238-.007.354a9.675,9.675,0,0,0,1.012,4.262Zm51.675-.3-.007-1.336c1.74-.008,3.53-.079,5.32-.211l.1,1.332C281.484,180.025,279.663,180.1,277.893,180.107Zm-5.417-.176-.854-.066c-1.642-.136-3.129-.321-4.547-.566l.227-1.316c1.38.239,2.829.419,4.432.553l.835.063Zm16.209-.607L288.506,178c1.718-.233,3.488-.526,5.262-.868l.253,1.311C292.223,178.789,290.428,179.086,288.685,179.324Zm-26.918-1.35a25.857,25.857,0,0,1-4.374-1.939c-.209-.117-.418-.24-.625-.365l.69-1.143c.2.117.391.233.59.344a24.643,24.643,0,0,0,4.149,1.839Zm-13.329-.532-1.158-.665a30.029,30.029,0,0,0,2.2-4.762l1.255.453A31.211,31.211,0,0,1,248.439,177.441Zm50.861-.147-.315-1.3c1.67-.4,3.409-.865,5.166-1.368l.369,1.284C302.744,176.42,300.988,176.884,299.3,177.294Zm10.378-2.958-.412-1.271q2.546-.825,5.067-1.723l.446,1.258Q312.244,173.5,309.678,174.336Zm-57.368-1.76a37.062,37.062,0,0,0-3.976-2.616l-.447-.237.612-1.187c.159.081.318.166.476.252A38.713,38.713,0,0,1,253.1,171.5ZM228.3,170.568l-.934-.955a11.409,11.409,0,0,1,4.916-2.637l.448,1.26A10.39,10.39,0,0,0,228.3,170.568Zm14.713-2.608a21.223,21.223,0,0,0-4.629-.513l-.541.007-.033-1.336a22.644,22.644,0,0,1,5.5.539Zm9.142-.787-1.315-.234a31.01,31.01,0,0,0,.475-5.23l1.336.006A32.3,32.3,0,0,1,252.151,167.173Z" transform="translate(-210.006 -96.244)" fill="#52b962"/>
      <g id="Group_7780" data-name="Group 7780" transform="translate(42.595 45.901)">
        <g id="Group_7779" data-name="Group 7779">
          <path id="Path_4541" data-name="Path 4541" d="M344.862,202.239l-46.53,27.439L251.8,202.239a.234.234,0,0,1,.008-.075c.037-.175,2.606-2.318,6.522-5.5.038-.03.068-.061.106-.091,12.849-10.432,39.893-31.8,39.893-31.8s27.045,21.364,39.893,31.8c3.977,3.228,6.591,5.409,6.628,5.591A.234.234,0,0,1,344.862,202.239Z" transform="translate(-251.803 -142.054)" fill="#06294e"/>
          <g id="Group_7777" data-name="Group 7777" transform="translate(7.666)">
            <path id="Path_4542" data-name="Path 4542" d="M317.246,142.713h-50.2a7.8,7.8,0,0,0-7.8,7.8v75.906a7.8,7.8,0,0,0,7.8,7.8h62.906a7.8,7.8,0,0,0,7.8-7.8v-63.2Z" transform="translate(-259.247 -142.713)" fill="#fff"/>
            <path id="Path_4543" data-name="Path 4543" d="M315.564,155.415a7.8,7.8,0,0,0,7.8,7.8h12.7l-20.5-20.5Z" transform="translate(-257.565 -142.713)" fill="#e6e8e8"/>
            <rect id="Rectangle_10076" data-name="Rectangle 10076" width="22.875" height="22.875" rx="2.697" transform="translate(11.875 12.83)" fill="#52b962"/>
            <path id="Path_4544" data-name="Path 4544" d="M314.6,183.555H273.042a2.237,2.237,0,0,0-2.238,2.237h0a2.238,2.238,0,0,0,2.238,2.238H314.6a2.237,2.237,0,0,0,2.237-2.238h0A2.236,2.236,0,0,0,314.6,183.555Z" transform="translate(-258.902 -141.493)" fill="#d9dbdb"/>
            <path id="Path_4545" data-name="Path 4545" d="M314.6,194.379H273.042a2.238,2.238,0,0,0-2.238,2.237h0a2.237,2.237,0,0,0,2.238,2.238H314.6a2.237,2.237,0,0,0,2.237-2.238h0A2.237,2.237,0,0,0,314.6,194.379Z" transform="translate(-258.902 -141.17)" fill="#d9dbdb"/>
            <path id="Path_4546" data-name="Path 4546" d="M295.726,204.879H273.042a2.238,2.238,0,0,0-2.238,2.238h0a2.238,2.238,0,0,0,2.238,2.238h22.684a2.238,2.238,0,0,0,2.238-2.238h0A2.238,2.238,0,0,0,295.726,204.879Z" transform="translate(-258.902 -140.856)" fill="#d9dbdb"/>
            <path id="Path_4553" data-name="Path 4553" d="M0,0,4.035,4.035" transform="translate(17.033 24.417)" fill="#fff" stroke="#fff" stroke-linecap="round" stroke-width="2"/>
            <path id="Path_4554" data-name="Path 4554" d="M0,8.07,8.071,0" transform="translate(21.645 19.806)" fill="#fff" stroke="#fff" stroke-linecap="round" stroke-width="2"/>
          </g>
          <g id="Group_7778" data-name="Group 7778" transform="translate(0.005 60.183)">
            <path id="Path_4547" data-name="Path 4547" d="M344.867,201.15v44.64a5.685,5.685,0,0,1-5.67,5.669H257.463a5.672,5.672,0,0,1-5.655-5.669V201.15l46.53,27.435Z" transform="translate(-251.808 -201.15)" fill="#1ec2ed"/>
            <path id="Path_4548" data-name="Path 4548" d="M343.248,249.144,313.3,219.2l-15.008,8.85-15.016-8.853-29.95,29.949a5.616,5.616,0,0,0,4.091,1.779h81.734A5.639,5.639,0,0,0,343.248,249.144Z" transform="translate(-251.763 -200.611)" fill="#3374b9"/>
          </g>
        </g>
      </g>
      <path id="Path_4549" data-name="Path 4549" d="M235.336,214.719a4.487,4.487,0,1,0,4.487,4.486A4.487,4.487,0,0,0,235.336,214.719Zm0,6.3a1.816,1.816,0,1,1,1.817-1.817A1.816,1.816,0,0,1,235.336,221.022Z" transform="translate(-209.834 -94.661)" fill="#d5ffdc"/>
      <path id="Path_4550" data-name="Path 4550" d="M364.9,205.773a2.778,2.778,0,1,0,2.778,2.778A2.778,2.778,0,0,0,364.9,205.773Z" transform="translate(-205.913 -94.928)" fill="#d5ffdc"/>
      <path id="Path_4551" data-name="Path 4551" d="M275.618,112.428a4.06,4.06,0,1,0,4.06,4.06A4.06,4.06,0,0,0,275.618,112.428Z" transform="translate(-208.618 -97.716)" fill="#d5ffdc"/>
      <path id="Path_4552" data-name="Path 4552" d="M352.306,127.632a3.472,3.472,0,1,0,3.472,3.472A3.471,3.471,0,0,0,352.306,127.632Z" transform="translate(-206.309 -97.262)" fill="#d5ffdc"/>
      <circle id="Ellipse_2819" data-name="Ellipse 2819" cx="1.976" cy="1.976" r="1.976" transform="translate(21.035 57.364)" fill="#d5ffdc"/>
    </g>
  </g>
</svg>
