<svg xmlns="http://www.w3.org/2000/svg" xmlns:xlink="http://www.w3.org/1999/xlink" width="129.765" height="35.826" viewBox="0 0 129.765 35.826">
  <defs>
    <radialGradient id="radial-gradient" cx="0.5" cy="0.5" r="0.52" gradientTransform="translate(0.036) scale(0.927 1)" gradientUnits="objectBoundingBox">
      <stop offset="0" stop-color="#fff" stop-opacity="0"/>
      <stop offset="0.263" stop-color="#fafafa" stop-opacity="0.067"/>
      <stop offset="0.572" stop-color="#ececec" stop-opacity="0.141"/>
      <stop offset="0.901" stop-color="#d5d5d5" stop-opacity="0.224"/>
      <stop offset="1" stop-color="#ccc" stop-opacity="0.251"/>
    </radialGradient>
    <linearGradient id="linear-gradient" y1="0.5" x2="1" y2="0.5" gradientUnits="objectBoundingBox">
      <stop offset="0" stop-color="#1ec2ed"/>
      <stop offset="1" stop-color="#3374b9"/>
    </linearGradient>
    <linearGradient id="linear-gradient-2" x1="0.001" y1="0.5" x2="0.999" y2="0.5" gradientUnits="objectBoundingBox">
      <stop offset="0" stop-color="#52b962"/>
      <stop offset="1" stop-color="#0a8c45"/>
    </linearGradient>
  </defs>
  <g id="Group_8209" data-name="Group 8209" transform="translate(-62.739 -23.205)">
    <path id="Path_4032" data-name="Path 4032" d="M31.908,35.826H6.718A6.737,6.737,0,0,1,0,29.108V6.718A6.734,6.734,0,0,1,6.718,0h25.19a6.737,6.737,0,0,1,6.718,6.718v22.39A6.743,6.743,0,0,1,31.908,35.826Z" transform="translate(62.739 23.205)" fill="url(#radial-gradient)"/>
    <g id="Group_7594" data-name="Group 7594" transform="translate(110.234 27.93)">
      <path id="Path_4033" data-name="Path 4033" d="M101.74,11.8h2.614V24.834H101.74Z" transform="translate(-101.74 -11.016)" fill="#3374b9"/>
      <path id="Path_4034" data-name="Path 4034" d="M127.322,22.021a2.314,2.314,0,1,0-4.612,0v5.714H120.1V22.021a2.322,2.322,0,1,0-4.631,0v5.714H112.85V17.389h2.614v1.251a3.767,3.767,0,0,1,3.044-1.4,3.96,3.96,0,0,1,3.641,1.979A4.1,4.1,0,0,1,125.7,17.24c2.484,0,4.239,1.569,4.239,4.426v6.069h-2.614V22.021Z" transform="translate(-107.664 -13.916)" fill="#3374b9"/>
      <path id="Path_4035" data-name="Path 4035" d="M152.9,11.8h2.8L158,21.921,160.649,11.8h2.913l2.5,10.065L168.38,11.8h2.82l-3.641,13.034h-3.081l-2.446-9.281-2.558,9.281-3.062.019Z" transform="translate(-129.017 -11.016)" fill="#52b962"/>
      <path id="Path_4036" data-name="Path 4036" d="M199.577,27.881a5.064,5.064,0,0,1-5.247-5.341,5.322,5.322,0,1,1,10.644,0A5.172,5.172,0,0,1,199.577,27.881Zm0-2.278a2.754,2.754,0,0,0,2.708-3.063c0-2.073-1.288-3.063-2.67-3.063s-2.633.99-2.633,3.063C196.982,24.595,198.177,25.6,199.577,25.6Z" transform="translate(-151.106 -13.895)" fill="#52b962"/>
      <path id="Path_4037" data-name="Path 4037" d="M223.864,27.735H221.25V17.389h2.614V19a3.588,3.588,0,0,1,3.174-1.755v2.745h-.691c-1.55,0-2.484.6-2.484,2.6Z" transform="translate(-165.459 -13.916)" fill="#52b962"/>
      <path id="Path_4038" data-name="Path 4038" d="M237.41,10.12h2.614v7.862l3.473-4.388h3.4l-4.556,5.191,4.594,5.154h-3.4l-3.511-4.407v4.407H237.41Z" transform="translate(-174.075 -10.12)" fill="#52b962"/>
      <path id="Path_4039" data-name="Path 4039" d="M264.089,27.881c-2.6,0-4.407-1.513-4.519-3.436H262.2a1.717,1.717,0,0,0,1.867,1.382c1.027,0,1.587-.467,1.587-1.064,0-1.849-5.845-.672-5.845-4.463,0-1.718,1.531-3.1,4.089-3.1,2.5,0,4.015,1.363,4.164,3.417h-2.5a1.541,1.541,0,0,0-1.737-1.345c-.971,0-1.475.392-1.475.99,0,1.886,5.733.71,5.807,4.5C268.16,26.537,266.61,27.881,264.089,27.881Z" transform="translate(-185.89 -13.895)" fill="#52b962"/>
    </g>
    <g id="Group_7595" data-name="Group 7595" transform="translate(109.801 49.344)">
      <path id="Path_4040" data-name="Path 4040" d="M104.979,59.571a2.332,2.332,0,0,1-2.582,2.414H100.81V57.12H102.4A2.355,2.355,0,0,1,104.979,59.571Zm-2.586,1.765a1.6,1.6,0,0,0,1.765-1.765,1.623,1.623,0,0,0-1.765-1.8H101.6v3.562Z" transform="translate(-100.81 -56.592)" fill="#4c4c4c"/>
      <path id="Path_4041" data-name="Path 4041" d="M112.793,63.132a1.87,1.87,0,0,1-1.923-1.993,1.848,1.848,0,0,1,1.923-1.989,1.8,1.8,0,0,1,1.877,1.9,2.769,2.769,0,0,1-.028.392H111.7a1.061,1.061,0,0,0,1.1,1.022.93.93,0,0,0,.91-.542h.859A1.762,1.762,0,0,1,112.793,63.132ZM111.7,60.793h2.133a1,1,0,0,0-1.078-.971A1.043,1.043,0,0,0,111.7,60.793Z" transform="translate(-106.174 -57.675)" fill="#4c4c4c"/>
      <path id="Path_4042" data-name="Path 4042" d="M120.69,56.44h.8v5.182h-.8Z" transform="translate(-111.409 -56.23)" fill="#4c4c4c"/>
      <path id="Path_4043" data-name="Path 4043" d="M124.42,56.5a.509.509,0,1,1,.514.509A.506.506,0,0,1,124.42,56.5Zm.107,1.022h.8v3.856h-.8Z" transform="translate(-113.398 -55.99)" fill="#4c4c4c"/>
      <path id="Path_4044" data-name="Path 4044" d="M128.484,59.28l1.092,3.142,1.092-3.142h.845l-1.471,3.856h-.952L127.63,59.28Z" transform="translate(-115.11 -57.744)" fill="#4c4c4c"/>
      <path id="Path_4045" data-name="Path 4045" d="M138.6,63.132a1.87,1.87,0,0,1-1.923-1.993A1.848,1.848,0,0,1,138.6,59.15a1.8,1.8,0,0,1,1.877,1.9,2.769,2.769,0,0,1-.028.392h-2.946a1.061,1.061,0,0,0,1.1,1.022.93.93,0,0,0,.91-.542h.859A1.758,1.758,0,0,1,138.6,63.132Zm-1.092-2.339h2.133a1,1,0,0,0-1.078-.971A1.043,1.043,0,0,0,137.511,60.793Z" transform="translate(-119.935 -57.675)" fill="#4c4c4c"/>
      <path id="Path_4046" data-name="Path 4046" d="M147.3,63.067h-.8V59.211h.8v.56a1.247,1.247,0,0,1,1.153-.621v.826h-.2c-.588,0-.952.247-.952,1.064Z" transform="translate(-125.17 -57.675)" fill="#4c4c4c"/>
      <path id="Path_4047" data-name="Path 4047" d="M157.623,61.961c-.971,0-1.723-.532-1.723-1.4h.854a.784.784,0,0,0,.868.719c.56,0,.878-.3.878-.714,0-1.176-2.582-.411-2.582-2.2,0-.854.682-1.387,1.671-1.387a1.483,1.483,0,0,1,1.657,1.321h-.882a.761.761,0,0,0-.817-.644c-.462-.014-.822.21-.822.682,0,1.1,2.577.411,2.577,2.19A1.509,1.509,0,0,1,157.623,61.961Z" transform="translate(-130.182 -56.518)" fill="#4c4c4c"/>
      <path id="Path_4048" data-name="Path 4048" d="M166.6,63.132a1.882,1.882,0,0,1-1.933-1.993,1.966,1.966,0,1,1,3.931,0A1.928,1.928,0,0,1,166.6,63.132Zm0-.7a1.189,1.189,0,0,0,1.181-1.3,1.167,1.167,0,0,0-1.162-1.3,1.149,1.149,0,0,0-1.139,1.3C165.482,62.012,166,62.437,166.6,62.437Z" transform="translate(-134.858 -57.675)" fill="#4c4c4c"/>
      <path id="Path_4049" data-name="Path 4049" d="M176.111,59.14a1.679,1.679,0,0,1,1.779,1.284h-.859a.9.9,0,0,0-.915-.612c-.644,0-1.069.476-1.069,1.317s.429,1.321,1.069,1.321a.876.876,0,0,0,.915-.612h.859a1.731,1.731,0,0,1-1.779,1.284,1.994,1.994,0,0,1,0-3.982Z" transform="translate(-139.95 -57.669)" fill="#4c4c4c"/>
      <path id="Path_4050" data-name="Path 4050" d="M183.57,56.5a.509.509,0,1,1,.514.509A.506.506,0,0,1,183.57,56.5Zm.1,1.022h.8v3.856h-.8Z" transform="translate(-144.935 -55.99)" fill="#4c4c4c"/>
      <path id="Path_4051" data-name="Path 4051" d="M189,59.14a1.656,1.656,0,0,1,1.34.621V59.2h.8v3.856h-.8v-.574a1.668,1.668,0,0,1-1.354.635,1.862,1.862,0,0,1-1.807-2.007A1.834,1.834,0,0,1,189,59.14Zm.168.7A1.184,1.184,0,0,0,188,61.119a1.214,1.214,0,0,0,1.167,1.317,1.308,1.308,0,0,0,0-2.6Z" transform="translate(-146.86 -57.669)" fill="#4c4c4c"/>
      <path id="Path_4052" data-name="Path 4052" d="M197.92,56.44h.8v5.182h-.8Z" transform="translate(-152.586 -56.23)" fill="#4c4c4c"/>
      <path id="Path_4053" data-name="Path 4053" d="M205.78,57.12h.8v4.865h-.8Z" transform="translate(-156.777 -56.592)" fill="#4c4c4c"/>
      <path id="Path_4054" data-name="Path 4054" d="M215.212,60.91c0-.7-.383-1.069-.966-1.069a.933.933,0,0,0-.971,1.069v2.157h-.789V60.91a.973.973,0,1,0-1.937,0v2.157h-.8V59.211h.8v.444a1.46,1.46,0,0,1,1.139-.5,1.484,1.484,0,0,1,1.387.761,1.581,1.581,0,0,1,2.932.882v2.274h-.789V60.91Z" transform="translate(-158.893 -57.675)" fill="#4c4c4c"/>
      <path id="Path_4055" data-name="Path 4055" d="M227.463,59.14a1.831,1.831,0,0,1,1.811,1.975,1.86,1.86,0,0,1-1.811,2.007,1.747,1.747,0,0,1-1.344-.621V64.9h-.8V59.205h.8v.565A1.687,1.687,0,0,1,227.463,59.14Zm-.173.7a1.308,1.308,0,0,0,0,2.6,1.218,1.218,0,0,0,1.176-1.317A1.186,1.186,0,0,0,227.29,59.836Z" transform="translate(-167.195 -57.669)" fill="#4c4c4c"/>
      <path id="Path_4056" data-name="Path 4056" d="M236.741,59.14a1.656,1.656,0,0,1,1.34.621V59.2h.8v3.856h-.8v-.574a1.667,1.667,0,0,1-1.354.635,1.862,1.862,0,0,1-1.807-2.007A1.836,1.836,0,0,1,236.741,59.14Zm.168.7a1.184,1.184,0,0,0-1.167,1.284,1.214,1.214,0,0,0,1.167,1.317,1.308,1.308,0,0,0,0-2.6Z" transform="translate(-172.313 -57.669)" fill="#4c4c4c"/>
      <path id="Path_4057" data-name="Path 4057" d="M246.981,59.14a1.679,1.679,0,0,1,1.779,1.284H247.9a.9.9,0,0,0-.915-.612c-.644,0-1.069.476-1.069,1.317s.429,1.321,1.069,1.321a.876.876,0,0,0,.915-.612h.859a1.731,1.731,0,0,1-1.779,1.284,1.994,1.994,0,0,1,0-3.982Z" transform="translate(-177.735 -57.669)" fill="#4c4c4c"/>
      <path id="Path_4058" data-name="Path 4058" d="M254.408,58.836h-.457v-.649h.457V57.23h.8v.957h.938v.649h-.938v2.138c0,.289.112.406.448.406h.49v.663h-.63c-.686,0-1.111-.289-1.111-1.069Z" transform="translate(-182.459 -56.651)" fill="#4c4c4c"/>
    </g>
    <path id="Path_4059" data-name="Path 4059" d="M24.447,35.481H23.2a1.4,1.4,0,0,1-1.4-1.4V20.7a1.4,1.4,0,0,1,1.4-1.4h1.246a1.4,1.4,0,0,1,1.4,1.4V34.085A1.4,1.4,0,0,1,24.447,35.481Z" transform="translate(51.116 12.916)" fill="url(#linear-gradient)"/>
    <path id="Path_4060" data-name="Path 4060" d="M39.175,42.055h-.439a1.808,1.808,0,0,1-1.807-1.807V33.437a1.808,1.808,0,0,1,1.807-1.807h.439a1.808,1.808,0,0,1,1.807,1.807v6.816A1.81,1.81,0,0,1,39.175,42.055Z" transform="translate(43.05 6.342)" fill="url(#linear-gradient-2)"/>
    <path id="Path_4061" data-name="Path 4061" d="M54.375,38.856h-.439a1.808,1.808,0,0,1-1.807-1.807V27.437a1.808,1.808,0,0,1,1.807-1.807h.439a1.808,1.808,0,0,1,1.807,1.807v9.617A1.81,1.81,0,0,1,54.375,38.856Z" transform="translate(34.945 9.541)" fill="url(#linear-gradient-2)"/>
  </g>
</svg>
