<svg xmlns="http://www.w3.org/2000/svg" width="50.843" height="48.467" viewBox="0 0 50.843 48.467"><defs><style>.a{fill:#f7ba35;}.b{fill:#fd9702;}.c{fill:#ba7400;}.d{fill:#804d00;}.e{fill:#4c3011;}</style></defs><path class="a" d="M198.607,13.266l-3.143,3.143V11.964H192.4v4.444l-3.143-3.143-2.168,2.168,5.759,5.759h2.168l5.759-5.759Z" transform="translate(-168.511 -11.964)"/><path class="b" d="M260.665,13.266l-3.143,3.143V11.964h-1.534v9.229h1.085l5.759-5.759Z" transform="translate(-230.569 -11.964)"/><rect class="c" width="39.172" height="29.63" transform="translate(5.836 18.836)"/><g transform="translate(20.582 18.836)"><rect class="d" width="19.587" height="29.63" transform="translate(4.839 0)"/><path class="d" d="M216.942,365.734h-9.679v-9.967a4.84,4.84,0,0,1,4.84-4.84h0a4.84,4.84,0,0,1,4.84,4.84v9.967Z" transform="translate(-207.263 -336.103)"/></g><path class="e" d="M260.83,365.734h-4.841s0-11.126,0-14.807h0a4.84,4.84,0,0,1,4.84,4.84Z" transform="translate(-230.569 -317.267)"/><path class="b" d="M50.843,94.814S39.954,81.8,25.421,77.448C10.889,81.8,0,94.814,0,94.814c3.177,0,3.177,2.291,6.355,2.291s3.178-2.291,6.355-2.291S15.888,97.1,19.065,97.1s3.177-2.291,6.355-2.291S28.6,97.1,31.776,97.1s3.178-2.291,6.355-2.291S41.309,97.1,44.487,97.1,47.665,94.814,50.843,94.814Z" transform="translate(0 -70.945)"/><path class="c" d="M281.411,94.814S270.523,81.8,255.99,77.448c0,5.083,0,10.451,0,17.366,3.178,0,3.178,2.291,6.355,2.291s3.178-2.291,6.355-2.291,3.178,2.291,6.356,2.291S278.233,94.814,281.411,94.814Z" transform="translate(-230.569 -70.945)"/></svg>