<svg width="373" height="249" viewBox="0 0 373 249" fill="none" xmlns="http://www.w3.org/2000/svg">
<path d="M319.944 228.881C301.519 228.881 52.42 228.344 52.42 228.314C52.3173 228.072 20.7978 189.441 60.4871 149.051C80.1527 129.038 42.4279 103.111 60.4871 80.85C91.4219 42.7173 122.03 64.1928 147.53 53.4683C152.035 51.5753 156.556 48.5282 161.082 43.8523C163.601 41.2553 166.394 38.9371 169.41 36.9381C169.868 36.6326 170.331 36.3346 170.799 36.0442C172.592 34.9341 174.447 33.9272 176.355 33.0284C177.639 32.423 178.947 31.863 180.28 31.3485H180.281C182.41 30.5276 184.581 29.8207 186.785 29.2308C189.972 28.3798 193.213 27.7441 196.485 27.3279C197.928 27.1403 199.382 26.992 200.847 26.883C229.339 24.7412 261.403 36.7889 277.95 54.3978C281.281 57.9437 296.43 76.2909 284.489 101.509C276.949 117.431 308.534 132.637 319.758 150.819C348.293 197.045 320.203 228.279 319.944 228.881Z" fill="#EBF3FA"/>
<g opacity="0.8">
<path opacity="0.8" d="M255.475 121.406C254.728 123.463 253.798 125.448 252.696 127.337C248.411 134.649 241.699 140.227 233.727 143.101C225.756 145.976 217.028 145.965 209.064 143.071C195.17 138.02 186.245 125.353 185.295 111.496C185.167 109.656 185.182 107.808 185.34 105.971C185.841 100.189 187.713 94.6094 190.803 89.6965C190.818 89.6711 190.834 89.6482 190.849 89.6229C195.615 82.1318 202.96 76.6463 211.496 74.2032C212.38 73.9498 213.277 73.73 214.18 73.5451C220.731 72.196 227.529 72.6974 233.811 74.9931C234.677 75.3079 235.522 75.6518 236.348 76.0249C242.241 78.6733 247.312 82.8601 251.028 88.1452L251.03 88.1458C253.816 92.0982 255.785 96.5665 256.823 101.289C257.045 102.302 257.224 103.325 257.36 104.359C258.112 110.11 257.466 115.958 255.475 121.406V121.406Z" fill="#D7E5FF"/>
<path opacity="0.8" d="M215.411 89.5918C213.271 91.2492 213.839 95.6846 210.134 93.1845C206.429 90.6844 204.103 89.3257 203.055 91.5068C202.004 93.6892 205.287 94.8828 204.423 97.2599C203.559 99.637 201.801 99.888 199.949 97.9362C198.094 95.9837 198.041 94.1054 195.038 94.1675C192.036 94.2295 190.755 92.9949 190.901 90.7414C190.927 90.3899 190.893 90.0367 190.803 89.6963C190.818 89.6709 190.834 89.648 190.849 89.6227C195.615 82.1316 202.96 76.6461 211.496 74.203C212.38 73.9496 213.277 73.7298 214.18 73.5449C215.227 73.9697 216.349 74.8332 216.944 76.5643C218.251 80.3726 220.371 79.4764 218.571 82.6667C216.769 85.8563 217.511 86.6393 219.476 87.2248C221.441 87.8103 223.706 88.6337 223.397 90.1879C223.088 91.7421 217.552 87.9343 215.411 89.5918Z" fill="#AEC3FF"/>
<path opacity="0.8" d="M255.475 121.406C254.728 123.463 253.798 125.448 252.696 127.337C250.141 131.71 246.693 135.494 242.577 138.443C241.58 138.426 240.622 138.048 239.882 137.381C236.254 134.14 241.062 130.697 243.593 129.022C246.124 127.347 241.424 126.792 239.054 123.528C236.685 120.264 242.233 115.841 238.668 115.602C235.102 115.363 230.765 115.132 230.039 111.312C229.313 107.492 233.064 108.279 232.408 105.061C231.751 101.843 234.854 101.24 238.172 102.158C241.491 103.076 241.9 100.63 246.013 101.741C250.127 102.852 248.19 107.914 252.728 109.18C257.266 110.445 256.697 111.391 256.697 111.391C257.018 111.499 257.31 111.68 257.549 111.92C257.286 115.161 256.588 118.351 255.475 121.406V121.406Z" fill="#AEC3FF"/>
<path opacity="0.8" d="M257.36 104.359C253.04 104.811 253.332 99.4172 249.663 99.7368C245.965 100.059 247.547 97.4298 245.717 94.7133C243.884 91.9979 237.711 93.4697 238.966 90.7213C240.22 87.9747 243.668 90.1238 245.283 88.1487C246.899 86.1736 250.315 88.0556 250.315 88.0556C250.556 88.0525 250.796 88.0828 251.028 88.1456C251.028 88.1456 251.029 88.1439 251.03 88.1462C253.816 92.0986 255.785 96.5669 256.823 101.29C257.045 102.303 257.224 103.326 257.36 104.359Z" fill="#AEC3FF"/>
<path opacity="0.8" d="M229.982 83.3543C229.982 83.3543 232.916 81.2774 230.157 79.3474C227.399 77.4173 227.066 78.5101 224.781 77.3928C222.496 76.2757 220.893 77.7756 221.945 80.4329C222.998 83.0901 223.04 87.4704 225.4 86.0016C227.76 84.5328 228.014 82.8632 229.982 83.3543Z" fill="#AEC3FF"/>
</g>
<path d="M60.6468 228.417H73.2787C73.9556 227.843 72.8103 226.539 71.6136 226.451C71.0938 226.412 70.4365 226.521 69.6855 226.679C69.5118 224.371 68.5191 213.992 64.7778 214.409C60.5713 214.876 64.7778 218.979 65.967 221.409C66.848 223.209 67.7772 225.789 68.2018 227.007C67.8603 227.081 67.5067 227.154 67.1456 227.22C66.588 225.508 64.5134 219.75 61.8752 220.086C58.7777 220.478 60.0228 222.787 62.2183 224.158C63.8289 225.165 65.8069 226.598 66.7467 227.29C65.9311 227.432 65.1041 227.498 64.2762 227.488C62.1125 227.436 61.0563 228.074 60.6468 228.417Z" fill="#A8D29F"/>
<path d="M261.68 228.418H249.947C249.318 227.884 250.382 226.673 251.494 226.592C251.977 226.555 252.587 226.656 253.285 226.803C253.446 224.659 254.368 215.019 257.843 215.406C261.751 215.84 257.843 219.651 256.739 221.908C255.92 223.58 255.057 225.977 254.663 227.108C254.98 227.177 255.309 227.244 255.644 227.306C256.162 225.716 258.089 220.367 260.539 220.679C263.417 221.044 262.26 223.188 260.221 224.461C258.725 225.397 256.888 226.728 256.015 227.371C256.772 227.502 257.54 227.564 258.309 227.554C260.319 227.507 261.3 228.099 261.68 228.418Z" fill="#A8D29F"/>
<path d="M270.06 151.507C270.06 151.507 270.34 148.729 268.887 148.825C267.435 148.92 267.05 149.586 267.212 150.12C267.375 150.653 268.787 152.419 268.787 152.419L270.06 151.507Z" fill="#FFB27D"/>
<path d="M292.693 157.073C292.693 157.073 291.085 158.963 287.627 161.143C287.299 161.35 286.957 161.559 286.595 161.768C285.072 162.653 283.489 163.432 281.859 164.099C281.658 164.181 281.423 164.272 281.159 164.367C279.087 165.115 275.274 166.176 272.911 166.271C272.706 166.279 272.511 166.279 272.329 166.272C268.733 166.128 268.295 152.17 268.295 152.17C268.295 152.17 268.695 150.773 270.543 151.125C270.543 151.125 273.349 159.007 274.354 159.65C275.247 160.221 280.381 152.44 284.799 151.895C287.774 151.529 292.693 157.073 292.693 157.073Z" fill="#739AF0"/>
<path d="M283.032 225.134C283.032 225.134 283.297 228.207 282.648 228.527L274.336 228.51C274.336 228.51 274.336 227.55 275.671 227.337C277.006 227.124 279.351 226.342 279.748 224.601C280.145 222.861 283.032 225.134 283.032 225.134Z" fill="#1C3154"/>
<path d="M276.93 187.949C276.971 189.958 277.067 192.03 277.256 193.892C278.154 202.73 278.469 213.408 278.599 215.466C278.822 219.04 279.528 224.749 279.528 224.749C279.528 224.749 280.928 226.078 283.658 225.444C283.658 225.444 285.919 217.221 286.424 208.563C286.432 208.421 286.44 208.278 286.447 208.135C286.506 206.991 286.567 205.682 286.63 204.27C287.046 194.817 287.497 180.773 287.497 180.773L277.067 178.324C277.067 178.324 276.827 182.94 276.93 187.949Z" fill="#2A4E96"/>
<path d="M276.93 187.949C279.573 192.509 284.611 200.911 286.63 204.27C287.046 194.817 287.497 180.773 287.497 180.773L277.067 178.324C277.067 178.324 276.827 182.94 276.93 187.949Z" fill="#233862"/>
<path d="M281.16 164.367C279.088 165.115 275.275 166.176 272.912 166.271C273.273 166.203 275.904 165.682 276.877 164.507C277.922 163.245 279.682 159.815 281.081 161.215C281.74 161.874 281.547 163.176 281.16 164.367Z" fill="#6385DB"/>
<path d="M298.685 186.464C298.685 186.464 299.333 189.003 299.226 189.567C299.12 190.131 298.488 192.042 298.094 192.516C297.7 192.99 297.684 190.455 297.422 190.057C297.16 189.659 297.302 191.004 297.092 191.114C296.882 191.224 296.532 190.095 296.376 189.695C296.22 189.295 296.936 187.903 297.002 186.904C297.068 185.906 298.685 186.464 298.685 186.464Z" fill="#FFB27D"/>
<path d="M303.736 221.643C303.736 221.643 305.216 222.993 304.927 223.953C304.638 224.912 303.303 225.551 303.123 226.724C302.942 227.896 302.221 228.536 301.571 228.536H298.475C298.475 228.536 297.997 227.711 299.152 227.462C300.306 227.213 300.742 225.836 300.669 224.557C300.597 223.278 300.778 221.572 300.778 221.572L303.231 221.004L303.736 221.643Z" fill="#1C3154"/>
<path d="M278.711 180.989C278.711 180.989 288.475 201.879 293.67 211.045C298.866 220.212 300.49 222.77 300.49 222.77C300.49 222.77 303.466 221.597 303.737 220.798C303.737 220.798 301.75 203.102 298.271 198.788C296.305 196.351 293.995 189.036 293.887 186.478C293.779 183.92 291.498 177.814 291.498 177.814L278.711 180.989Z" fill="#2A4E96"/>
<path d="M276.892 179.901C276.892 179.901 280.071 183.323 285.474 184.356C287.844 184.81 292.657 185.249 293.851 183.561C294.131 183.164 294.134 182.577 294.071 181.661C293.911 179.28 293.312 174.676 296.016 165.425C296.255 164.616 296.429 163.789 296.536 162.952C297.126 158.219 297.062 154.646 292.956 152.738C286.803 149.878 284.278 152.231 284.278 152.231C284.278 152.231 281.005 153.76 279.51 158.216C276.52 167.13 276.892 179.901 276.892 179.901Z" fill="#739AF0"/>
<path d="M289.262 151.951C288.591 152.404 287.812 152.67 287.004 152.723C286.197 152.776 285.39 152.613 284.666 152.252C284.532 152.185 284.549 151.266 284.582 150.363C284.615 149.477 284.699 148.608 284.699 148.608L286.888 147.171L288.977 145.801C288.727 150.514 289.73 151.617 289.262 151.951Z" fill="#FFB27D"/>
<path d="M288.61 147.747C288.61 147.747 287.189 149.879 284.582 150.364C284.615 149.478 284.71 148.502 284.71 148.502L286.888 147.172L288.61 147.747Z" fill="#ED985F"/>
<path d="M282.738 148.056C282.738 148.056 288.034 150.033 289.213 146.769C290.391 143.506 291.869 141.563 288.537 140.163C285.205 138.763 284.094 139.773 283.432 140.766C282.769 141.76 281.39 147.458 282.738 148.056Z" fill="#FFB27D"/>
<path d="M292.513 140.53C292.573 140.483 292.697 140.459 292.955 140.496C292.826 140.384 292.671 140.306 292.505 140.267C292.522 139.902 292.457 139.237 291.877 138.964C291.965 139.042 292.034 139.138 292.079 139.247C292.125 139.355 292.145 139.472 292.139 139.589C291.575 138.724 290.165 137.896 285.904 137.398C280.29 136.743 281.413 140.642 282.045 141.205C282.677 141.769 284.707 140.968 286.02 141.337C287.333 141.706 287.206 143.683 287.606 144.037C288.006 144.391 287.92 143.888 288.587 143.732C289.254 143.577 289.112 144.602 288.805 145.227C288.497 145.851 289.167 146.887 289.167 146.887L290.197 146.14C291.228 145.392 292.795 141.674 292.572 140.771C292.552 140.692 292.533 140.611 292.513 140.53Z" fill="#2C3A64"/>
<path d="M294.071 181.662C293.911 179.281 293.312 174.677 296.016 165.425C296.255 164.616 296.429 163.789 296.536 162.953L296.535 162.953C294.526 162.29 290.865 163.764 290.865 163.764C290.865 163.764 290.005 175.993 294.071 181.662Z" fill="#6385DB"/>
<path d="M294.063 153.355C294.063 153.355 296.535 154.255 298.112 160.8C299.154 165.125 301.072 171.482 301.288 173.479C301.504 175.477 299.095 187.172 299.095 187.172C299.095 187.172 298.756 187.42 297.923 187.253C297.462 187.17 297.047 186.922 296.756 186.555C296.756 186.555 296.18 178.76 296.328 175.08C296.39 173.551 289.25 163.881 285.396 162.635C283.882 162.146 294.063 153.355 294.063 153.355Z" fill="#739AF0"/>
<path d="M259.482 144.882C259.482 144.882 266.628 144.679 274.874 146.197L275.736 144.026L276.68 141.648C276.68 141.648 268.402 138.084 263.426 133.121L259.482 144.882Z" fill="#AEC3FF"/>
<path d="M263.538 133.006L259.436 145.116C259.294 145.074 259.162 145.004 259.048 144.909C258.934 144.814 258.84 144.697 258.773 144.565C258.706 144.433 258.666 144.288 258.657 144.14C258.647 143.993 258.668 143.844 258.717 143.705L262.328 133.529C262.369 133.412 262.434 133.306 262.519 133.215C262.603 133.125 262.706 133.053 262.819 133.004C262.933 132.955 263.055 132.929 263.179 132.93C263.303 132.93 263.425 132.956 263.538 133.006Z" fill="#F99746"/>
<path d="M267.456 153.897C267.841 153.973 268.239 153.893 268.565 153.675C268.891 153.458 269.118 153.12 269.196 152.736L270.609 145.669C270.684 145.284 270.605 144.885 270.387 144.559C270.17 144.233 269.832 144.006 269.448 143.928C269.064 143.853 268.665 143.932 268.339 144.15C268.013 144.367 267.786 144.705 267.708 145.089L266.295 152.157C266.22 152.541 266.299 152.94 266.517 153.266C266.734 153.592 267.072 153.819 267.456 153.897Z" fill="#F99746"/>
<path d="M259.482 144.882C259.482 144.882 266.628 144.679 274.874 146.197L275.736 144.026C267.988 142.444 259.482 144.882 259.482 144.882Z" fill="#739AF0"/>
<path d="M272.594 145.761L274.826 146.153C274.792 146.155 276.9 146.563 277.591 144.695C277.654 144.568 277.699 144.432 277.724 144.292C278.261 141.963 276.982 141.534 276.982 141.534L274.109 140.414L273.196 143.645L273.196 143.656L272.594 145.761Z" fill="#F99746"/>
<path d="M272.594 145.762L274.826 146.155C274.792 146.156 276.9 146.565 277.591 144.697C276.328 143.778 273.196 143.646 273.196 143.646L273.196 143.658L272.594 145.762Z" fill="#ED7D2B"/>
<path d="M267.646 147.052C267.646 147.052 268.738 147.487 268.538 147.968C268.338 148.449 266.949 149.111 266.73 148.731C266.511 148.352 266.959 146.646 267.646 147.052Z" fill="#FFB27D"/>
<path d="M270.081 151.07C270.183 150.53 270.256 149.986 270.3 149.439C270.313 148.926 270.373 148.506 270.252 148.492C270.131 148.477 270.044 148.572 269.994 148.737C269.945 148.902 269.756 149.926 269.756 149.926L269.851 150.914L270.081 151.07Z" fill="#FFB27D"/>
<path d="M162.044 150.341L155.856 223.922C155.856 223.922 155.208 228.382 158.525 228.39C163.98 228.403 185.677 228.39 185.677 228.39C185.677 228.39 181.571 227.461 181.621 225.372C181.679 222.91 188.854 149.645 188.854 149.645L162.044 150.341Z" fill="#7599EA"/>
<path d="M187.72 227.084C186.647 227.087 165.642 227.122 160.329 227.054C158.014 227.025 157.608 224.996 157.589 223.682C157.582 223.316 157.606 222.949 157.659 222.587L157.82 220.674L158.231 215.8L158.593 211.493L159.058 205.96L159.45 201.289L163.848 149.004L190.657 148.309C190.657 148.309 187.636 178.97 185.498 201.289C185.26 203.775 185.033 206.16 184.823 208.386C184.755 209.096 184.689 209.79 184.626 210.467C184.427 212.579 184.246 214.518 184.089 216.23C184.006 217.133 183.929 217.971 183.86 218.739C183.587 221.749 183.427 223.671 183.425 224.037C183.423 224.237 183.441 224.436 183.477 224.632C183.917 226.977 187.317 227.084 187.72 227.084Z" fill="#90AFF4"/>
<path d="M96.9365 110.301L112.01 170.849L114.074 179.141L121.095 207.342H251.526L225.649 110.301H96.9365Z" fill="#AEC3FF"/>
<path d="M96.9367 110.301L94.8477 110.997L118.318 209.449L121.095 207.343L96.9367 110.301Z" fill="#90AFF4"/>
<path d="M118.317 209.448H247.946L251.526 207.342H121.095L118.317 209.448Z" fill="#7599EA"/>
<path d="M163.84 228.418H191.906V227.084H163.84V228.418Z" fill="#AEC3FF"/>
<path d="M184.771 209.447L184.626 210.467L158.23 215.799L158.593 211.493L158.765 209.447H184.771Z" fill="#5888DD"/>
<path opacity="0.4" d="M187.72 227.084C186.647 227.088 165.642 227.123 160.33 227.055C158.015 227.026 157.609 224.996 157.59 223.683L183.86 218.74C183.588 221.75 183.428 223.672 183.426 224.038C183.424 224.237 183.441 224.437 183.478 224.633C183.918 226.978 187.317 227.084 187.72 227.084Z" fill="#5888DD"/>
<path d="M96.9365 110.301H225.65L246.533 188.292H116.352L96.9365 110.301Z" fill="#AEC3FF"/>
<path d="M240.462 184.912H119.948L115.641 167.756L113.975 161.118L113.296 158.411L108.87 140.78L108.64 139.863L106.3 130.543L105.254 126.374L104.361 122.817L102.268 114.479H221.045L223.344 122.817L224.324 126.374L225.473 130.543L233.046 158.014V158.015L233.688 160.343L233.987 161.423L239.216 180.388L240.462 184.912Z" fill="#E0F1FF"/>
<path d="M223.344 122.817H104.362L102.269 114.479H221.046L223.344 122.817Z" fill="#3D7EFE"/>
<path d="M107.182 118.246C107.038 117.67 107.388 117.203 107.964 117.203C108.263 117.218 108.55 117.327 108.784 117.514C109.018 117.701 109.187 117.957 109.266 118.246C109.41 118.821 109.06 119.288 108.484 119.288C108.185 119.273 107.898 119.165 107.664 118.977C107.43 118.79 107.261 118.534 107.182 118.246Z" fill="white"/>
<path d="M110.645 118.246C110.502 117.67 110.852 117.203 111.428 117.203C111.727 117.218 112.014 117.327 112.248 117.514C112.482 117.701 112.65 117.957 112.73 118.246C112.874 118.821 112.523 119.288 111.948 119.288C111.649 119.273 111.362 119.165 111.128 118.977C110.894 118.79 110.725 118.534 110.645 118.246V118.246Z" fill="white"/>
<path d="M114.375 118.246C114.231 117.67 114.582 117.203 115.157 117.203C115.457 117.218 115.743 117.327 115.977 117.514C116.211 117.701 116.38 117.957 116.46 118.246C116.603 118.821 116.253 119.288 115.677 119.288C115.378 119.273 115.091 119.165 114.857 118.977C114.624 118.79 114.455 118.534 114.375 118.246Z" fill="white"/>
<path d="M197.417 65.9992C202.288 60.2801 209.8 48.792 214.857 42.9087C215.089 42.6375 215.239 42.3053 215.288 41.9515C215.337 41.5977 215.284 41.2373 215.134 40.9129C214.984 40.5886 214.745 40.3141 214.444 40.1219C214.143 39.9298 213.793 39.8282 213.435 39.8291H204.233L212.913 20.2023C213.284 19.3644 212.142 18.6966 211.593 19.4307L190.606 47.5205C190.47 47.7029 190.39 47.9212 190.377 48.1485C190.364 48.3757 190.418 48.6018 190.532 48.7987C190.646 48.9955 190.816 49.1545 191.02 49.2558C191.223 49.3571 191.453 49.3962 191.678 49.3684L202.096 48.0855L195.898 65.1111C195.557 66.0484 196.771 66.7584 197.417 65.9992Z" fill="#F77D48"/>
<path d="M154.094 100.834C155.19 95.213 155.881 84.7731 157.039 78.9741C157.092 78.707 157.068 78.4303 156.968 78.1769C156.868 77.9235 156.698 77.7041 156.477 77.5447C156.257 77.3852 155.995 77.2925 155.723 77.2775C155.451 77.2626 155.181 77.326 154.944 77.4602L148.832 80.9023L147.255 64.6198C147.188 63.9246 146.18 63.9082 146.09 64.601L142.658 91.1081C142.635 91.2802 142.664 91.455 142.74 91.6108C142.817 91.7667 142.937 91.8967 143.087 91.9847C143.236 92.0727 143.408 92.1149 143.581 92.1059C143.755 92.0969 143.922 92.0372 144.061 91.9343L150.501 87.1854L152.753 100.812C152.877 101.562 153.948 101.58 154.094 100.834Z" fill="#AEC3FF"/>
<path d="M245.727 186.572L141.009 195.395C133.058 196.065 127.304 187.959 130.559 180.674L174.924 81.3845C178.29 73.8519 188.635 72.9803 193.214 79.8435L253.566 170.31C257.995 176.948 253.678 185.902 245.727 186.572Z" fill="#E0F1FF"/>
<path d="M246.061 190.532L141.344 199.354C138.839 199.565 136.322 199.119 134.041 198.061C131.761 197.002 129.796 195.367 128.341 193.317C126.886 191.267 125.99 188.873 125.743 186.371C125.496 183.869 125.905 181.346 126.931 179.05L171.296 79.7611C173.476 74.8823 177.956 71.7015 183.281 71.2529C188.606 70.8042 193.556 73.1905 196.522 77.6358L256.874 168.102C258.269 170.194 259.095 172.613 259.27 175.121C259.444 177.629 258.962 180.139 257.87 182.404C256.779 184.668 255.115 186.609 253.044 188.034C250.973 189.46 248.566 190.321 246.061 190.532V190.532ZM183.949 79.1748C182.787 79.2638 181.671 79.6672 180.721 80.3418C179.77 81.0164 179.021 81.9368 178.554 83.0044L134.189 182.294C133.727 183.327 133.543 184.462 133.654 185.589C133.766 186.715 134.169 187.792 134.824 188.715C135.479 189.638 136.363 190.374 137.39 190.85C138.416 191.327 139.549 191.527 140.676 191.432L245.394 182.61C246.521 182.515 247.605 182.127 248.537 181.486C249.469 180.844 250.218 179.971 250.709 178.951C251.201 177.932 251.418 176.802 251.339 175.673C251.26 174.544 250.889 173.456 250.261 172.514L189.908 82.0478C189.269 81.0735 188.376 80.2914 187.327 79.7853C186.277 79.2792 185.109 79.0682 183.949 79.1748Z" fill="#F77D48"/>
<path d="M181.494 171.382C181.373 170.1 181.512 168.806 181.902 167.579C182.274 166.417 182.884 165.345 183.694 164.432C184.537 163.494 185.56 162.736 186.702 162.201C187.898 161.627 189.271 161.275 190.822 161.143C192.255 161.003 193.701 161.122 195.092 161.494C196.319 161.824 197.466 162.4 198.463 163.187C199.414 163.952 200.195 164.907 200.756 165.99C201.346 167.135 201.699 168.387 201.794 169.672C201.916 170.944 201.777 172.228 201.384 173.444C201.006 174.595 200.395 175.655 199.59 176.56C198.739 177.504 197.705 178.264 196.55 178.794C195.241 179.393 193.835 179.752 192.398 179.854C190.848 179.985 189.435 179.867 188.16 179.5C186.944 179.165 185.808 178.589 184.82 177.805C183.875 177.047 183.095 176.104 182.53 175.032C181.939 173.899 181.586 172.657 181.494 171.382V171.382ZM197.684 152.438L182.6 153.708L176.121 102.35L195.479 100.719L197.684 152.438Z" fill="#F77D48"/>
<path d="M116.469 155.586C116.469 155.586 116.797 154.848 117.01 154.498C117.222 154.149 118.131 153.124 118.285 153.356C118.44 153.588 119.059 155.149 118.73 155.586C118.401 156.024 118.751 156.784 117.117 157.245L116.469 155.586Z" fill="#FFB27D"/>
<path d="M98.3076 150.924C98.3076 150.924 106.674 157.907 109.936 157.261C112.487 156.755 116.519 155.476 116.519 155.476C116.519 155.476 117.584 156.488 117.283 157.702C117.283 157.702 112.145 162.536 108.484 162.567C102.763 162.616 100.064 159.732 100.064 159.732L98.3076 150.924Z" fill="#ED7D2B"/>
<path d="M83.6348 224.585C83.6348 224.585 83.8777 228.502 84.6356 228.558C84.7365 228.566 88.4799 228.566 88.4799 228.566L93.2587 228.538C93.2587 228.538 93.2274 227.387 91.8306 227.143C90.4337 226.9 88.0956 225.918 87.2495 224.072C86.3593 222.13 83.6348 224.585 83.6348 224.585Z" fill="#113C68"/>
<path d="M83.3594 224.856C83.3594 224.856 84.8122 225.341 85.9463 225.341C86.7628 225.331 87.5745 225.215 88.3614 224.997C88.3614 224.997 88.6349 222.352 90.1399 216.524C90.929 213.47 92.0559 209.542 93.659 204.662C98.0916 191.175 99.4396 183.284 99.5626 182.537C99.5692 182.498 99.5718 182.478 99.5718 182.478L99.5574 182.472L85.9298 176.488C85.9298 176.488 87.6141 195.077 85.4652 202.212C85.1389 203.336 84.8785 204.477 84.6852 205.631C83.3281 213.381 83.3594 224.856 83.3594 224.856Z" fill="#2A4E96"/>
<path d="M90.14 216.524C90.9291 213.47 92.0559 209.542 93.6591 204.662C98.0917 191.175 99.4397 183.284 99.5626 182.537C99.5613 182.515 99.56 182.494 99.5574 182.472L85.9298 176.488C85.9298 176.488 87.6142 195.077 85.4653 202.212C85.1642 203.21 90.14 216.524 90.14 216.524Z" fill="#233862"/>
<path d="M94.2793 224.585C94.2793 224.585 94.5222 228.502 95.2802 228.558C95.381 228.566 99.1245 228.566 99.1245 228.566L103.903 228.538C103.903 228.538 103.872 227.387 102.475 227.143C101.078 226.9 98.7402 225.918 97.894 224.072C97.0038 222.13 94.2793 224.585 94.2793 224.585Z" fill="#15447C"/>
<path d="M102.006 176.928C102.006 176.928 102.183 188.973 100.099 203.764C98.0145 218.554 98.7209 224.832 98.7209 224.832C98.7209 224.832 97.2891 225.296 96.7111 225.343C95.2389 225.463 93.7293 224.998 93.7293 224.998C93.7293 224.998 90.7462 210.202 91.6015 202.799C92.4568 195.397 87.5166 177.397 87.5166 177.397L102.006 176.928Z" fill="#2A4E96"/>
<path d="M92.3418 148.738L95.0019 150.482L97.425 149.797C97.8678 149.165 97.9851 147.947 97.9916 146.892C97.9946 146.246 97.9628 145.6 97.8965 144.957L94.3076 143.373L92.9685 142.783C92.9723 142.804 93.0726 143.883 93.087 144.04C93.3371 146.837 92.3418 148.738 92.3418 148.738Z" fill="#FFB27D"/>
<path d="M102.066 180.275C98.7551 183.472 86.2242 182.934 85.452 179.412C84.681 175.89 86.2942 149.428 91.9501 147.766C93.1237 147.421 99.3983 149.449 99.3983 149.449C100.09 151.356 100.635 153.314 101.029 155.304C101.154 155.942 101.52 162.704 101.794 169.03C101.921 171.989 102.029 174.853 102.084 176.95C102.135 178.914 102.137 180.205 102.066 180.275Z" fill="#F99746"/>
<path d="M93.3561 144.09C94.0842 145.321 96.6388 146.398 97.9923 146.892C97.9953 146.246 97.9635 145.6 97.8972 144.958L94.3083 143.373C93.515 143.363 93.0317 143.54 93.3561 144.09Z" fill="#FCA56B"/>
<path d="M99.2509 144.738C99.2509 144.738 93.4683 146.542 92.4003 142.924C91.3324 139.305 89.8668 137.101 93.5137 135.796C97.1607 134.492 98.2888 135.66 98.9391 136.781C99.5893 137.902 100.728 144.176 99.2509 144.738Z" fill="#FFB27D"/>
<path d="M98.7121 136.433C98.7121 136.433 98.3433 140.644 97.4725 140.461C96.6018 140.278 95.6432 139.887 95.7707 141.157C95.8982 142.426 94.9239 144.602 93.6683 144.597C90.9753 144.585 88.0493 137.675 88.7865 136.365C90.9137 132.584 101.787 131.821 98.7121 136.433Z" fill="#163560"/>
<path d="M97.8611 147.858C97.7864 147.826 93.5563 145.929 93.0615 146.092C92.5668 146.255 91.9502 147.766 91.9502 147.766L99.3989 149.45C99.3989 149.45 98.8126 148.258 97.8611 147.858Z" fill="#ED7D2B"/>
<path d="M124.197 168.352L100.484 190.678C100.019 191.115 99.4328 191.255 99.1813 190.987L98.3808 190.137C98.1292 189.87 98.3037 189.293 98.7685 188.856L122.482 166.53C122.946 166.092 123.532 165.953 123.784 166.22L124.584 167.07C124.836 167.337 124.662 167.914 124.197 168.352Z" fill="#1F4D84"/>
<path d="M110.89 180.88L100.484 190.678C100.019 191.115 99.4328 191.255 99.1813 190.987L98.3808 190.137C98.1292 189.87 98.3037 189.293 98.7685 188.856L109.174 179.059L110.89 180.88Z" fill="#739AF0"/>
<path d="M118.746 159.922C119.572 162.63 121.006 165.113 122.937 167.182C124.869 169.252 127.248 170.853 129.892 171.863C132.537 172.873 135.377 173.266 138.197 173.011C141.016 172.756 143.74 171.861 146.161 170.393C148.581 168.925 150.635 166.924 152.164 164.542C153.694 162.16 154.659 159.46 154.986 156.648C155.314 153.836 154.994 150.987 154.052 148.317C153.111 145.647 151.572 143.228 149.553 141.244C149.457 141.149 149.36 141.055 149.261 140.962C146.276 138.155 142.448 136.413 138.371 136.006C134.294 135.599 130.196 136.551 126.716 138.713C123.236 140.876 120.568 144.128 119.126 147.963C117.685 151.798 117.552 156.003 118.746 159.922V159.922ZM124.059 142.768C126.379 140.302 129.378 138.579 132.678 137.817C135.977 137.056 139.428 137.29 142.594 138.49C145.761 139.69 148.5 141.801 150.466 144.558C152.432 147.315 153.537 150.593 153.64 153.977C153.743 157.362 152.84 160.701 151.045 163.572C149.251 166.443 146.645 168.718 143.558 170.109C140.47 171.499 137.04 171.943 133.7 171.383C130.361 170.824 127.262 169.287 124.796 166.967C123.156 165.428 121.836 163.58 120.912 161.53C119.987 159.48 119.476 157.268 119.407 155.02C119.339 152.772 119.715 150.533 120.513 148.431C121.311 146.328 122.516 144.404 124.059 142.768V142.768Z" fill="#1F4D84"/>
<g opacity="0.5">
<path opacity="0.5" d="M148.994 166.229C146.674 168.695 143.675 170.418 140.375 171.18C137.076 171.942 133.625 171.708 130.459 170.508C127.292 169.308 124.552 167.197 122.586 164.44C120.62 161.683 119.515 158.405 119.412 155.021C119.309 151.636 120.212 148.297 122.006 145.425C123.801 142.554 126.407 140.279 129.494 138.889C132.582 137.498 136.012 137.055 139.352 137.614C142.692 138.173 145.79 139.71 148.256 142.031C149.902 143.566 151.227 145.412 152.155 147.463C153.084 149.513 153.597 151.727 153.666 153.976C153.734 156.226 153.357 158.467 152.555 160.57C151.753 162.672 150.543 164.596 148.994 166.229Z" fill="#B3CFF9"/>
</g>
<path d="M102.085 176.951C89.0186 167.641 90.1051 155.217 90.1051 155.217C94.8807 157.91 99.6196 163.866 101.794 169.032C101.921 171.99 102.029 174.855 102.085 176.951Z" fill="#ED7D2B"/>
<path d="M114.981 172.711C115.902 172.498 116.521 171.801 116.649 171.68C116.649 171.68 117.042 171.707 116.585 172.545C116.547 172.615 116.462 172.795 116.398 172.922C116.392 172.934 116.389 172.948 116.389 172.961C116.39 172.974 116.394 172.988 116.4 172.999C116.407 173.011 116.417 173.02 116.428 173.027C116.44 173.034 116.453 173.039 116.466 173.039C116.998 173.08 117.532 172.869 118.557 173.083C118.698 173.112 118.739 173.451 118.734 173.595C118.755 173.916 118.657 174.234 118.458 174.488C118.293 174.705 117.833 174.94 116.807 175.352C116.417 175.51 115.3 175.391 114.253 175.031L113.416 174.644L113.675 173.089L113.886 173.133C114.219 173.203 114.633 172.796 114.981 172.711Z" fill="#FFB27D"/>
<path d="M94.1604 149.451C94.1604 149.451 82.4203 151.687 97.6145 168.688C100.045 171.407 113.174 174.947 113.174 174.947C113.174 174.947 114.505 173.814 113.834 172.897C113.834 172.897 104.794 166.332 102.805 165.289C101.91 164.819 99.3325 154.812 97.874 152.401C96.4154 149.991 94.1604 149.451 94.1604 149.451Z" fill="#F99746"/>
<path d="M116.787 155.793C116.787 155.793 117.171 155.059 117.246 154.672C117.321 154.285 117.805 153.156 118.004 152.957C118.084 152.877 118.346 152.981 118.378 153.323C118.391 153.472 118.318 153.742 118.189 154.065C117.979 154.591 118.013 155.303 117.94 155.541C117.759 156.132 116.787 155.793 116.787 155.793Z" fill="#FFB27D"/>
<path d="M121.46 126.665C121.368 126.765 121.308 126.89 121.285 127.025C121.263 127.159 121.279 127.297 121.333 127.422C121.334 127.423 121.334 127.425 121.335 127.426C121.518 127.931 122.121 128.495 122.822 129.058C122.912 129.13 122.991 129.196 123.061 129.257C123.079 129.273 123.097 129.289 123.114 129.305C123.128 129.317 123.142 129.33 123.156 129.342C123.809 129.945 123.563 130.083 124.737 131.307C126.076 132.7 126.998 132.726 127.26 132.599C127.482 132.491 127.032 131.752 126.532 130.921C126.508 130.881 126.485 130.84 126.46 130.8C126.393 130.689 126.327 130.577 126.261 130.466C125.676 129.466 125.827 128.997 125.966 127.509C126.079 126.3 127.849 120.755 127.849 120.755L125.283 120.312C125.283 120.312 124.508 124.728 123.656 125.408C123.201 125.77 122.691 125.774 122.253 126.043C122.222 126.062 122.192 126.081 122.162 126.101C121.904 126.256 121.668 126.446 121.46 126.665V126.665Z" fill="#FFB27D"/>
<path d="M121.46 126.664C121.368 126.765 121.308 126.89 121.285 127.024C121.263 127.158 121.279 127.296 121.333 127.421C121.334 127.423 121.334 127.424 121.335 127.425C121.559 127.929 122.147 128.49 122.825 129.052C122.913 129.125 122.991 129.193 123.061 129.256C123.079 129.272 123.097 129.288 123.114 129.304C123.128 129.317 123.142 129.33 123.156 129.341C123.809 129.944 123.563 130.082 124.737 131.306C126.076 132.7 126.998 132.725 127.261 132.598C127.482 132.49 127.032 131.751 126.532 130.92C125.596 130.554 124.772 129.947 124.146 129.16C123.369 128.168 122.842 126.904 122.313 126.128C122.255 126.117 122.221 126.111 122.162 126.1C121.904 126.255 121.668 126.445 121.46 126.664V126.664Z" fill="#746B68"/>
<path d="M142.155 125.069C142.314 125.861 143.443 125.729 144.705 125.421C145.966 125.113 145.666 125.48 147.462 125.282C149.258 125.083 149.802 124.414 149.857 124.147C149.906 123.91 149.019 123.826 148.067 123.716C147.947 123.703 147.827 123.688 147.707 123.673C146.633 123.538 145.846 122.844 144.87 122.275C143.946 121.735 142.567 119.537 142.567 119.537L140.104 119.731C140.104 119.731 141.396 121.694 141.896 122.548C142.189 123.05 142.174 123.714 142.137 124.226C142.105 124.507 142.112 124.79 142.155 125.069Z" fill="#FFB27D"/>
<path d="M144.705 125.422C145.967 125.114 145.667 125.48 147.462 125.282C149.258 125.084 149.802 124.414 149.857 124.148C149.906 123.911 149.019 123.827 148.067 123.717L148.058 123.735C147.289 124.229 146.4 124.505 145.487 124.534C144.268 124.563 142.978 124.213 142.137 124.227C142.105 124.507 142.112 124.79 142.156 125.069C142.314 125.861 143.443 125.73 144.705 125.422Z" fill="#746B68"/>
<path d="M132.724 109.32L130.42 115.513L127.412 123.6C126.875 123.64 126.336 123.591 125.815 123.454C125.096 123.246 124.271 122.702 124.271 122.702C124.271 122.702 125.109 114.018 126.667 109.033C127.067 107.754 127.514 106.719 128.008 106.136C130.422 103.285 132.724 109.32 132.724 109.32Z" fill="#9E877F"/>
<path d="M130.387 99.4805C129.077 99.0573 125.657 99.4723 121.949 100.142C121.448 100.232 120.932 100.168 120.468 99.9585C120.004 99.749 119.615 99.4037 119.352 98.9684V98.9684L110.019 98.2363C110.019 98.2363 106.937 105.065 108.622 109.417C108.869 110.057 109.413 110.456 110.252 110.47C110.252 110.47 115.892 110.48 117.696 110.48C122.337 110.482 127.52 107.293 128.19 107.159C129.287 106.94 129.725 109.135 130.822 111.439C131.918 113.743 141.131 121.646 141.131 121.646C141.131 121.646 142.547 121.66 143.132 121.441C143.762 121.205 143.992 120.899 143.992 120.899C143.992 120.899 133.787 100.579 130.387 99.4805Z" fill="#EDDAD3"/>
<path d="M118.37 71.5618C117.832 71.2415 117.213 71.0804 116.587 71.0974C116.299 71.1049 116.011 71.0873 115.727 71.0449C112.165 70.5213 110.018 75.6944 109.892 77.2578C109.66 80.1278 108.141 80.5649 106.004 82.3617C101.717 85.9644 102.972 90.1529 105.315 91.7099C106.721 92.644 109.199 91.7111 109.199 91.7111C109.234 91.7355 115.977 87.9444 119.302 86.1156C124.284 85.4091 120.371 72.7541 118.37 71.5618Z" fill="#233862"/>
<path d="M116.516 84.5569C116.531 84.5664 114.881 85.129 113.778 84.6401C112.74 84.1811 111.955 82.4733 111.97 82.4725C112.442 82.4508 112.96 82.0382 113.361 79.3301L113.562 79.4023L116.941 80.6197C116.941 80.6197 116.696 81.7042 116.537 82.7367C116.404 83.6037 116.332 84.4342 116.516 84.5569Z" fill="#FFB27D"/>
<path d="M116.941 80.6198C116.941 80.6198 116.806 81.2049 116.609 82.298C114.668 81.9479 113.835 80.4521 113.562 79.4023L116.941 80.6198Z" fill="#ED975D"/>
<path d="M117.445 81.6958C117.445 81.6958 112.82 81.0735 113.252 78.1996C113.684 75.3258 113.378 73.3099 116.349 73.5858C119.32 73.8616 119.727 75.0442 119.816 76.0385C119.905 77.0328 118.659 81.7836 117.445 81.6958Z" fill="#FFB27D"/>
<path d="M119.648 74.463C119.648 74.463 116.687 77.0133 114.673 77.2182C112.66 77.4232 111.897 76.7765 111.897 76.7765C112.701 76.0577 113.349 75.1812 113.799 74.2016C113.902 73.9711 114.064 73.7722 114.27 73.6255C114.475 73.4788 114.716 73.3896 114.967 73.3671C116.405 73.2435 119.131 73.1878 119.648 74.463Z" fill="#233862"/>
<path d="M117.798 74.2345C117.798 74.2345 118.788 75.1924 119.099 75.9028C119.4 76.5883 119.49 78.2276 119.25 78.8786C119.25 78.8786 120.794 75.8787 119.921 74.4206C118.995 72.8745 117.798 74.2345 117.798 74.2345Z" fill="#233862"/>
<path d="M120.408 91.3704C120.265 100.732 120.367 98.7755 119.343 99.6634C119.096 99.8772 118.402 100.004 117.489 100.064C114.619 100.254 109.573 99.7793 109.381 99.2488C108.72 97.413 109.187 96.8429 108.636 94.0326C108.578 93.7337 108.507 93.4102 108.424 93.0578C107.964 91.1275 107.516 90.4708 109.151 87.3705C110.634 84.5623 112.174 82.2831 112.312 82.3654C116.221 84.6876 116.537 82.737 116.537 82.737C116.537 82.737 120.478 86.8042 120.408 91.3704Z" fill="#3374B9"/>
<path d="M130.42 115.513L127.412 123.6C126.875 123.64 126.336 123.591 125.815 123.454C125.096 123.246 124.271 122.702 124.271 122.702C124.271 122.702 125.109 114.018 126.667 109.033L130.42 115.513Z" fill="#EDDAD3"/>
<path d="M116.537 82.7363C116.537 82.7363 120.56 83.4197 121.031 85.152C121.503 86.8841 123.055 97.3977 123.055 97.3977C123.055 97.3977 121.92 98.5052 120.975 97.5601C120.031 96.615 118.006 87.7227 118.006 87.7227L116.537 82.7363Z" fill="#3374B9"/>
<path d="M117.489 100.065C114.619 100.254 109.573 99.7797 109.381 99.2492C108.72 97.4134 109.187 96.8433 108.636 94.0329L110.022 90.1348C110.022 90.1348 109.791 94.4761 111.071 95.6184C112.35 96.7607 116.312 97.8245 116.934 98.7788C117.204 99.1656 117.393 99.6031 117.489 100.065V100.065Z" fill="#205389"/>
<path d="M114.201 98.2382C114.201 98.2382 117.033 97.6086 117.49 97.8601C117.947 98.1115 119.063 99.0272 119.203 99.3457C119.343 99.6643 118.186 99.1036 117.81 99.0026C117.566 98.9371 116.924 99.1598 116.607 99.2656C115.27 99.7106 114.451 99.4812 114.451 99.4812L114.201 98.2382Z" fill="#FFB27D"/>
<path d="M112.31 82.3633C112.31 82.3633 108.507 82.5962 107.19 84.4317C105.336 87.0155 101.657 98.0285 103.763 99.4982C106.135 101.153 114.56 99.9347 114.56 99.9347C114.56 99.9347 114.841 98.6243 114.451 97.9903C114.061 97.3562 107.722 96.33 107.43 96.0374C107.138 95.7447 111.089 90.3334 111.089 89.4556C111.09 88.5779 112.31 82.3633 112.31 82.3633Z" fill="#3374B9"/>
<path d="M117.627 98.6484C117.627 98.6484 118.22 99.414 118.415 99.5055C118.512 99.5586 118.624 99.5825 118.735 99.5741L118.335 98.8543L117.627 98.6484Z" fill="#FFB27D"/>
<path d="M117.49 97.8594L119.215 98.6977C119.181 98.7395 119.137 98.7717 119.087 98.791C119.037 98.8104 118.982 98.8162 118.929 98.808C118.674 98.7631 118.423 98.6942 118.181 98.6021L117.49 97.8594Z" fill="#FFB27D"/>
<path d="M132.221 99.8343L114.2 99.8281L114.2 100.226L132.061 100.232L132.221 99.8343Z" fill="#233862"/>
<path d="M118.414 100.226L132.061 100.231L136.169 90.0241L122.544 90.0195L118.414 100.226Z" fill="#233862"/>
<path d="M128.618 95.1265C128.721 94.7677 128.514 94.4767 128.155 94.4766C127.966 94.4871 127.785 94.5548 127.635 94.6708C127.486 94.7869 127.375 94.9457 127.318 95.1261C127.215 95.4848 127.423 95.7758 127.782 95.7759C127.97 95.7655 128.152 95.6977 128.301 95.5817C128.451 95.4656 128.561 95.3069 128.618 95.1265V95.1265Z" fill="white"/>
<path d="M220.975 138.724C219.136 138.113 217.863 138.884 217.863 138.884C212.57 139.101 212.374 144.527 212.995 146.546C213.868 149.382 210.78 151.618 214.204 152.765C218.178 154.097 221.512 152.517 221.285 153.203C233.851 154.193 225.156 140.112 220.975 138.724Z" fill="#163560"/>
<path d="M215.485 165.111C215.08 165.867 214.607 166.584 214.07 167.252C212.97 168.629 207.199 165.36 207.696 165.111C208.193 164.863 211.094 156.508 211.784 155.458C212.475 154.408 214.828 153.863 214.828 153.863L215.485 165.111Z" fill="#F99746"/>
<path d="M234.96 221.46C234.96 221.46 236.553 222.914 236.242 223.947C235.931 224.98 234.494 225.668 234.3 226.93C234.105 228.193 233.328 228.881 232.629 228.881H229.295C229.295 228.881 228.78 227.993 230.024 227.725C231.267 227.457 231.735 225.974 231.658 224.597C231.58 223.22 231.774 221.384 231.774 221.384L234.416 220.771L234.96 221.46Z" fill="#1F447F"/>
<path d="M221.478 222.078C221.478 222.078 222.051 228.236 221.352 228.581L212.402 228.562C212.402 228.562 212.402 227.529 213.84 227.3C215.277 227.07 217.802 226.229 218.23 224.354C218.657 222.48 221.478 222.078 221.478 222.078Z" fill="#1C3154"/>
<path d="M228.363 160.959C228.443 162.336 228.443 163.717 228.363 165.095C228.274 166.591 226.761 168.594 226.547 169.089C226.008 170.332 225.401 170.535 225.401 170.535L220.702 171.686L219.049 172.091L213.839 170.535C213.839 170.535 211.466 163.911 212.419 160.182C213.372 156.453 214.828 153.864 214.828 153.864C214.828 153.864 218.369 153.068 224.615 153.511L228.363 160.959Z" fill="#F99746"/>
<path d="M228.811 165.147C228.722 166.642 226.762 168.593 226.547 169.089C226.008 170.332 225.401 170.534 225.401 170.534L220.702 171.686L219.854 169.254C219.854 169.254 226.719 167.45 225.615 161.096L228.811 165.147Z" fill="#ED7D2B"/>
<path d="M214.17 171.539C214.17 171.539 211.59 179.57 211.424 182.305C211.258 185.039 216.356 221.149 216.561 222.409C216.755 223.596 218.229 224.353 218.229 224.353C218.742 224.605 219.331 224.65 219.876 224.48C221.219 224.101 221.643 223.647 221.643 223.647C221.643 223.647 223.652 197.894 222.409 188.694C221.652 183.006 221.232 177.277 221.151 171.539H214.17Z" fill="#233862"/>
<path d="M225.102 171.301C225.102 171.301 229.038 176.582 229.405 180.152C229.772 183.721 229.98 196.261 230.762 199.741C231.544 203.221 234.416 209.918 234.416 220.773C234.416 220.773 234.117 221.395 233.196 221.726C232.844 221.845 232.485 221.944 232.122 222.023C231.753 222.107 231.366 222.065 231.024 221.902C230.681 221.74 230.404 221.467 230.235 221.127C228.294 217.218 222.108 204.608 221.791 201.991C221.567 200.139 219.614 187.879 215.354 180.686C214.331 178.959 215.982 172.091 215.982 172.091L225.102 171.301Z" fill="#2A4E96"/>
<path d="M213.758 170.299C213.758 170.299 214.794 171.118 216.851 171.16C219.309 171.209 225.4 170.533 225.4 170.533C225.567 171.034 225.655 171.559 225.659 172.087C225.659 172.087 218.221 173.964 213.911 172.362C213.911 172.362 213.355 171.316 213.758 170.299Z" fill="#233862"/>
<path d="M216.262 173.279C215.644 173.279 215.141 172.71 215.141 172.01C215.141 171.31 215.644 170.74 216.262 170.74C216.881 170.74 217.384 171.31 217.384 172.01C217.384 172.71 216.881 173.279 216.262 173.279ZM216.262 171.112C215.849 171.112 215.512 171.515 215.512 172.01C215.512 172.505 215.849 172.907 216.262 172.907C216.676 172.907 217.012 172.505 217.012 172.01C217.012 171.515 216.676 171.112 216.262 171.112Z" fill="white"/>
<path d="M221.636 175.587L210.457 175.692L204.955 162.763L216.135 162.658L221.636 175.587Z" fill="#B5453C"/>
<path d="M220.173 169.745L219.353 168.738C219.353 168.738 218.799 168.244 218.396 168.16C217.994 168.076 217.144 167.586 217.062 167.724C216.979 167.862 217.715 168.847 217.715 168.847L217.752 168.852C216.908 169.487 214.777 168.926 214.514 169.186C214.195 169.499 214.953 170.178 215.359 170.559C215.766 170.94 216.928 171.575 217.834 171.293C218.497 171.087 219.539 170.877 219.539 170.877L220.173 169.745Z" fill="#FFB27D"/>
<path d="M205.794 165.037C205.794 165.037 206.497 164.238 206.944 164.622C207.391 165.005 206.827 166.889 206.401 166.698C205.975 166.506 205.55 165.271 205.794 165.037Z" fill="#FFB27D"/>
<path d="M224.616 153.51C224.616 153.51 227.816 153.863 230.113 158.036C231.924 161.327 235.02 167.393 233.852 169.107C233.339 169.859 228.423 172.536 218.939 171.006C218.939 171.006 219.089 169.808 219.854 169.253C219.854 169.253 227.834 166.691 227.821 166.181C227.795 165.217 226.742 164.384 222.284 159.925C221.072 158.712 224.616 153.51 224.616 153.51Z" fill="#F99746"/>
<path d="M222.152 153.681C222.262 153.533 222.12 153.063 221.944 152.187C221.785 151.394 221.515 150.167 221.521 148.787L221.285 148.827L217.318 149.494C217.318 149.494 217.409 150.555 217.411 151.554C217.411 151.562 217.411 151.57 217.411 151.579C217.416 152.446 217.177 153.758 217.47 153.929C218.973 154.81 221.729 154.249 222.152 153.681Z" fill="#FFB27D"/>
<path d="M217.318 149.493C217.318 149.493 217.397 150.989 217.4 151.988C219.62 151.935 220.804 149.78 221.285 148.826L217.318 149.493Z" fill="#E8945B"/>
<path d="M217.078 151.277C217.078 151.277 222.278 150.536 221.767 147.305C221.256 144.074 221.583 141.802 218.241 142.138C214.9 142.475 214.451 143.809 214.36 144.929C214.268 146.049 215.713 151.386 217.078 151.277Z" fill="#FFB27D"/>
<path d="M215.867 142.435C215.867 142.435 217.891 145.999 220.159 146.212C222.428 146.425 223.28 145.691 223.28 145.691C222.055 144.917 221.136 143.742 220.681 142.366C220.681 142.366 216.651 140.46 215.867 142.435Z" fill="#163560"/>
<path d="M216.268 142.687C216.268 142.687 215.278 143.249 214.967 144.086C214.586 145.066 214.507 146.138 214.738 147.163C214.738 147.163 213.258 144.758 214.228 143.109C215.257 141.36 216.268 142.687 216.268 142.687Z" fill="#163560"/>
<path d="M42.586 228.418H330.833C330.881 228.418 330.928 228.427 330.971 228.445C331.015 228.464 331.055 228.49 331.088 228.524C331.122 228.557 331.148 228.597 331.166 228.64C331.184 228.684 331.194 228.731 331.194 228.778V228.986C331.194 229.082 331.156 229.173 331.088 229.241C331.021 229.309 330.929 229.346 330.833 229.346H42.5858C42.4903 229.346 42.3987 229.309 42.3311 229.241C42.2635 229.173 42.2256 229.082 42.2256 228.986V228.778C42.2256 228.731 42.2349 228.684 42.253 228.64C42.2711 228.597 42.2977 228.557 42.3311 228.524C42.3646 228.49 42.4043 228.464 42.448 228.445C42.4918 228.427 42.5386 228.418 42.586 228.418V228.418Z" fill="#233862"/>
</svg>
