<svg xmlns="http://www.w3.org/2000/svg" width="59.152" height="43.854" viewBox="0 0 59.152 43.854"><defs><style>.a{fill:#e8a864;}.b{fill:#e5e5e5;}.c{fill:#cfcfcf;}.d{fill:#fc6a58;}.e{fill:#f2bb80;}.f{fill:#e35052;}</style></defs><path class="a" d="M174.72,180.965h-7v8.159h.071a4.012,4.012,0,0,0,1.122,2.213l2.886,2.886v17.338h12.238V194.223l2.244-2.988a4.075,4.075,0,0,0,.816-2.111h0v-8.159H174.72Z" transform="translate(-148.347 -167.707)"/><rect class="b" width="4.079" height="6.119" transform="translate(0 10.199)"/><rect class="c" width="4.079" height="3.06" transform="translate(0 13.258)"/><g transform="translate(4.079)"><path class="d" d="M37.86,110.345h0a2.549,2.549,0,0,1,2.55,2.55v11.218a2.549,2.549,0,0,1-2.55,2.55h0a2.549,2.549,0,0,1-2.55-2.55V112.895A2.549,2.549,0,0,1,37.86,110.345Z" transform="translate(-35.31 -105.246)"/><path class="d" d="M82.508,66.207h0a3.059,3.059,0,0,1,3.06,3.06v20.4a3.059,3.059,0,0,1-3.06,3.06h0a3.059,3.059,0,0,1-3.06-3.06v-20.4A3.059,3.059,0,0,1,82.508,66.207Z" transform="translate(-74.349 -66.207)"/></g><rect class="b" width="4.079" height="6.119" transform="translate(55.072 10.199)"/><g transform="translate(43.854)"><path class="d" d="M435.1,126.663h0a2.549,2.549,0,0,1-2.55-2.55V112.895a2.549,2.549,0,0,1,2.55-2.55h0a2.549,2.549,0,0,1,2.55,2.55v11.218A2.549,2.549,0,0,1,435.1,126.663Z" transform="translate(-426.433 -105.246)"/><path class="d" d="M382.646,92.723h0a3.059,3.059,0,0,1-3.06-3.06v-20.4a3.059,3.059,0,0,1,3.06-3.06h0a3.059,3.059,0,0,1,3.06,3.06v20.4A3.059,3.059,0,0,1,382.646,92.723Z" transform="translate(-379.586 -66.207)"/></g><path class="b" d="M154.851,154.483H132.414V160.6H160.97v-6.119Z" transform="translate(-117.116 -144.284)"/><path class="c" d="M154.851,180.966H132.414v3.059H160.97v-3.059Z" transform="translate(-117.116 -167.708)"/><g transform="translate(21.417 6.119)"><path class="e" d="M187.419,119.172a2.039,2.039,0,0,0-2.04,2.04v3.06a2.04,2.04,0,1,0,4.079,0v-3.06A2.039,2.039,0,0,0,187.419,119.172Z" transform="translate(-185.379 -119.172)"/><path class="e" d="M222.73,119.172a2.039,2.039,0,0,0-2.04,2.04v3.06a2.04,2.04,0,1,0,4.079,0v-3.06A2.039,2.039,0,0,0,222.73,119.172Z" transform="translate(-216.61 -119.172)"/><path class="e" d="M258.04,119.172a2.039,2.039,0,0,0-2.04,2.04v3.06a2.04,2.04,0,0,0,4.079,0v-3.06A2.039,2.039,0,0,0,258.04,119.172Z" transform="translate(-247.841 -119.172)"/><path class="e" d="M293.351,119.172a2.039,2.039,0,0,0-2.04,2.04v3.06a2.04,2.04,0,1,0,4.079,0v-3.06A2.039,2.039,0,0,0,293.351,119.172Z" transform="translate(-279.073 -119.172)"/></g><g transform="translate(4.079 11.218)"><path class="f" d="M37.86,170.274a2.549,2.549,0,0,1-2.55-2.55v7.139a2.55,2.55,0,0,0,5.1,0v-7.139A2.549,2.549,0,0,1,37.86,170.274Z" transform="translate(-35.31 -167.214)"/><path class="f" d="M82.508,166.37a3.059,3.059,0,0,1-3.06-3.06v12.238a3.06,3.06,0,0,0,6.119,0V163.31A3.059,3.059,0,0,1,82.508,166.37Z" transform="translate(-74.349 -163.31)"/></g><rect class="c" width="4.079" height="3.06" transform="translate(55.072 13.258)"/><g transform="translate(43.854 11.218)"><path class="f" d="M435.1,170.274a2.549,2.549,0,0,0,2.55-2.55v7.139a2.55,2.55,0,0,1-5.1,0v-7.139A2.549,2.549,0,0,0,435.1,170.274Z" transform="translate(-426.433 -167.214)"/><path class="f" d="M382.646,166.37a3.059,3.059,0,0,0,3.06-3.06v12.238a3.06,3.06,0,0,1-6.119,0V163.31A3.059,3.059,0,0,0,382.646,166.37Z" transform="translate(-379.586 -163.31)"/></g><path class="e" d="M177.923,194.212c0-3.06-1.56-5.619-3.865-6.384l-2.254-.755v-2.04h3.06a2.039,2.039,0,0,0,1.754-1.02,1.968,1.968,0,0,0,.286-1.438,2.172,2.172,0,0,0-2.182-1.622h-7v7.486a4.079,4.079,0,0,0,1.193,2.886l2.886,2.886v17.338h12.238V194.212Z" transform="translate(-148.347 -167.695)"/></svg>