<svg width="373" height="312" viewBox="0 0 373 312" fill="none" xmlns="http://www.w3.org/2000/svg">
<path d="M253.951 238.33H109.234C106.51 238.327 103.898 237.243 101.972 235.316C100.046 233.39 98.962 230.778 98.959 228.054V119.375C98.9621 116.651 100.046 114.039 101.972 112.113C103.898 110.186 106.51 109.103 109.234 109.1H253.951C256.675 109.103 259.287 110.186 261.213 112.113C263.139 114.039 264.223 116.651 264.226 119.375V228.054C264.223 230.778 263.139 233.39 261.213 235.316C259.287 237.243 256.675 238.327 253.951 238.33ZM109.234 109.74C106.68 109.743 104.231 110.759 102.425 112.566C100.619 114.372 99.6028 116.821 99.5999 119.375V228.054C99.6028 230.608 100.619 233.057 102.425 234.864C104.231 236.67 106.68 237.686 109.234 237.689H253.951C256.505 237.686 258.954 236.67 260.76 234.863C262.567 233.057 263.583 230.608 263.586 228.054V119.375C263.583 116.821 262.566 114.372 260.76 112.566C258.954 110.759 256.505 109.743 253.951 109.74H109.234Z" fill="#B3DCFF"/>
<path d="M285.96 123.432C285.96 123.432 288.601 124.623 289.78 125.037C290.959 125.45 295.278 124.985 295.758 125.356C296.238 125.726 296.258 127.127 295.564 127.373C294.869 127.618 289.711 128.89 287.912 128.709C286.113 128.527 282.947 129.741 282.191 129.584C281.436 129.427 281.37 125.184 281.53 124.206C281.69 123.227 285.96 123.432 285.96 123.432Z" fill="#484E7D"/>
<path d="M285.356 121.73L285.963 123.431C285.963 123.431 282.78 124.565 281.532 124.204L281.115 122.471L285.356 121.73Z" fill="#EEA886"/>
<path d="M278.844 124.944C278.844 124.944 281.334 126.462 282.459 127.023C283.585 127.583 287.925 127.67 288.361 128.099C288.796 128.529 288.661 129.922 287.944 130.077C287.228 130.232 281.965 130.841 280.198 130.432C278.433 130.023 275.155 130.826 274.422 130.574C273.69 130.322 274.093 126.1 274.359 125.149C274.626 124.199 278.844 124.944 278.844 124.944Z" fill="#5B639E"/>
<path d="M278.472 123.176L278.845 124.943C278.845 124.943 275.559 125.665 274.359 125.148L274.137 123.374L278.472 123.176Z" fill="#EEA886"/>
<path d="M253.513 91.3613C253.513 91.3613 264.867 91.4612 266.259 91.6579C267.768 91.8716 273.676 92.0624 274.39 93.1448C281.59 104.073 286.29 121.966 286.29 121.966L280.599 123.086C280.599 123.086 275.096 112.421 272.79 106.88C270.721 101.906 268.95 100.627 264.604 100.737C260.257 100.846 246.357 99.8884 238.342 98.8952L253.513 91.3613Z" fill="#292C47"/>
<path d="M252.311 65.0387C252.311 65.0387 255.68 72.2901 255.407 74.9835C255.135 77.6765 252.237 85.1427 252.032 86.6427C251.828 88.1428 253.294 91.1085 253.294 91.1085L238.123 98.1314C237.759 94.9575 237.759 91.7523 238.123 88.5783C238.734 83.4646 239.185 77.9687 239.86 75.0786C242.161 65.2178 248.248 61.1309 248.248 61.1309L252.311 65.0387Z" fill="#FF7E55"/>
<path d="M253.294 91.1094C253.294 91.1094 264.649 91.2096 266.041 91.4063C267.55 91.62 273.592 91.7226 274.171 92.8932C278.297 101.225 279.223 123.466 279.223 123.466L273.915 124.107C273.915 124.107 271.656 112.755 270.489 107.444C269.87 104.625 267.52 101.207 264.302 101.396C259.962 101.651 242.932 105.858 238.123 98.1323L253.294 91.1094Z" fill="#323657"/>
<path d="M243.49 71.8879C243.522 70.4839 244.338 64.4242 247.756 64.8386C251.174 65.2535 250.779 69.3542 250.462 72.4469C250.131 75.6834 248.452 83.6183 248.986 84.0266C249.521 84.4345 253.576 85.6527 254.448 85.827C255.32 86.0016 260.576 87.2914 261.009 87.4117C261.431 87.5292 260.585 89.5741 260.585 89.5741C260.585 89.5741 246.025 89.1471 243.589 87.9932C241.154 86.8392 243.49 71.8879 243.49 71.8879Z" fill="#EEA886"/>
<path d="M261.008 87.4126C261.536 87.5481 262.071 87.6529 262.611 87.7265C263.133 87.768 265.602 86.7883 266.37 86.93C268.396 87.7131 270.376 88.6122 272.299 89.6231C272.52 89.7904 272.168 90.1188 272.168 90.1188L260.584 89.7002L261.008 87.4126Z" fill="#EEA886"/>
<path d="M275.513 90.177L256.25 89.3984L256.179 91.1629L275.442 91.9414L275.513 90.177Z" fill="#807066"/>
<path d="M280.301 73.2014L273.785 91.3457L275.447 91.9426L281.963 73.7983L280.301 73.2014Z" fill="#807066"/>
<path d="M261.146 53.6196C261.146 53.6196 261.51 56.5971 260.703 56.722C260.036 56.8253 260.272 59.6991 260.272 60.1537C260.272 60.6083 259.021 60.4493 258.681 60.6083C258.34 60.7673 256.401 63.6083 255.427 63.3356C254.453 63.0628 250.806 59.9414 250.124 58.2959C249.441 56.6504 250.612 50.881 252.271 48.9039C253.93 46.9264 260.487 48.4095 261.146 53.6196Z" fill="#EEA886"/>
<path d="M253.549 61.2279C253.549 61.2279 253.451 61.4886 253.306 61.8934C253.199 62.1918 253.068 62.5679 252.93 62.9768C252.556 63.9831 252.286 65.0251 252.123 66.0864C252.066 67.3133 248.248 61.1318 248.248 61.1318C249.181 58.4952 249.926 55.7959 250.478 53.0541C251.333 48.6996 253.549 61.2279 253.549 61.2279Z" fill="#EEA886"/>
<path d="M261.202 54.2573C261.881 53.6227 262.322 52.7742 262.45 51.8536C262.579 50.933 262.387 49.9962 261.907 49.2001C260.22 46.2682 254.334 47.9499 253.771 47.8819C253.209 47.8138 250.272 46.8818 249.703 52.5409C249.134 58.2001 249.492 57.3511 249.492 57.3511C249.492 57.3511 250.935 54.9218 251.964 55.3138C252.886 55.601 253.834 55.7952 254.794 55.8936C254.794 55.8936 254.828 53.2513 256.311 53.4556C257.794 53.6603 260.03 53.2116 261.202 54.2573Z" fill="#374151"/>
<path d="M243.229 72.1513L251.033 72.4337C251.033 72.4337 252.245 64.3128 247.759 64.469C243.273 64.6253 243.229 72.1513 243.229 72.1513Z" fill="#FF7E55"/>
<path d="M253.866 54.0076C253.87 53.6454 254.014 52.1364 252.538 52.4776C251.061 52.8188 251.95 56.1171 252.14 56.2298C252.33 56.3422 253.831 57.0596 253.866 54.0076Z" fill="#EEA886"/>
<path d="M248.248 61.1309C248.248 61.1309 254.945 73.2329 254.771 71.5175C254.635 70.1766 251.734 63.6991 251.734 63.6991L248.248 61.1309Z" fill="#EEA886"/>
<path d="M253.306 61.8939C253.199 62.1922 253.068 62.5683 252.93 62.9773C251.923 61.6861 251.064 60.2866 250.367 58.8047C250.919 59.8083 253.306 61.8939 253.306 61.8939Z" fill="#A77860"/>
<path d="M253.294 91.1094L238.377 100.118L238.123 98.132L253.294 91.1094Z" fill="#D6C5BF"/>
<path d="M125.806 126.152H67.4434V126.859H125.806V126.152Z" fill="#78C2FF"/>
<path d="M59.6295 155.998L47.9531 137.754L53.8833 140.443L59.6295 155.998Z" fill="#D6D6D6"/>
<path d="M59.6284 155.998L58.9162 145.003L54.6738 142.584L59.6284 155.998Z" fill="#E8E8E8"/>
<path d="M50.6362 141.951L49.1777 143.873L59.6278 156L50.6362 141.951Z" fill="#C2C2C2"/>
<path d="M116.301 100.139H261.017C262.324 100.139 263.619 100.396 264.827 100.896C266.034 101.397 267.132 102.13 268.056 103.054C268.981 103.979 269.714 105.076 270.214 106.284C270.714 107.492 270.972 108.786 270.972 110.094V218.773C270.972 220.08 270.714 221.374 270.214 222.582C269.714 223.79 268.981 224.887 268.056 225.812C267.132 226.736 266.034 227.469 264.827 227.97C263.619 228.47 262.324 228.727 261.017 228.727H116.301C113.66 228.727 111.128 227.679 109.261 225.812C107.395 223.945 106.346 221.413 106.346 218.773V110.094C106.346 107.453 107.395 104.921 109.261 103.054C111.128 101.187 113.66 100.139 116.301 100.139Z" fill="#E3F2FF"/>
<path d="M270.972 110.094V112.908H106.346V110.094C106.346 108.786 106.603 107.492 107.103 106.284C107.604 105.076 108.337 103.979 109.262 103.054C110.186 102.13 111.283 101.397 112.491 100.896C113.699 100.396 114.994 100.139 116.301 100.139H261.017C262.324 100.139 263.619 100.396 264.827 100.896C266.034 101.397 267.132 102.13 268.056 103.054C268.981 103.979 269.714 105.076 270.214 106.284C270.714 107.492 270.972 108.786 270.972 110.094Z" fill="#3D7EFE"/>
<path d="M171.506 130.043H125.048C122.925 130.043 121.203 131.764 121.203 133.888V146.063C121.203 148.187 122.925 149.908 125.048 149.908H171.506C173.63 149.908 175.351 148.187 175.351 146.063V133.888C175.351 131.764 173.63 130.043 171.506 130.043Z" fill="#B3DCFF"/>
<path d="M171.507 176.607H125.048C123.944 176.606 122.885 176.167 122.104 175.386C121.323 174.605 120.884 173.547 120.883 172.442V160.267C120.884 159.162 121.323 158.104 122.104 157.323C122.885 156.542 123.944 156.103 125.048 156.102H171.507C172.611 156.103 173.669 156.542 174.45 157.323C175.231 158.104 175.67 159.162 175.672 160.267V172.442C175.67 173.547 175.231 174.605 174.45 175.386C173.67 176.167 172.611 176.606 171.507 176.607ZM125.048 156.743C124.114 156.744 123.218 157.115 122.557 157.776C121.897 158.436 121.525 159.332 121.524 160.267V172.442C121.525 173.377 121.896 174.273 122.557 174.933C123.218 175.594 124.114 175.966 125.048 175.967H171.507C172.441 175.966 173.337 175.594 173.998 174.933C174.658 174.273 175.03 173.377 175.031 172.442V160.267C175.03 159.332 174.658 158.437 173.997 157.776C173.337 157.115 172.441 156.744 171.507 156.743H125.048Z" fill="#B3DCFF"/>
<path d="M230.633 182.803H188.527C187.974 182.803 187.525 183.251 187.525 183.804V185.006C187.525 185.559 187.974 186.007 188.527 186.007H230.633C231.186 186.007 231.634 185.559 231.634 185.006V183.804C231.634 183.251 231.186 182.803 230.633 182.803Z" fill="#B3DCFF"/>
<path d="M188.526 194.443H230.633C230.899 194.443 231.153 194.549 231.341 194.737C231.529 194.924 231.634 195.179 231.634 195.445V196.645C231.634 196.911 231.529 197.166 231.341 197.354C231.153 197.542 230.898 197.647 230.632 197.647H188.527C188.261 197.647 188.006 197.542 187.819 197.354C187.631 197.166 187.525 196.912 187.525 196.646V195.444C187.525 195.179 187.631 194.924 187.818 194.736C188.006 194.549 188.261 194.443 188.526 194.443Z" fill="#B3DCFF"/>
<path d="M250.78 176.608H193.001C191.465 176.607 189.992 175.996 188.906 174.909C187.82 173.823 187.209 172.35 187.207 170.814V135.517C187.209 133.981 187.82 132.508 188.906 131.422C189.992 130.335 191.465 129.724 193.001 129.723H250.78C252.317 129.725 253.789 130.336 254.875 131.422C255.962 132.508 256.573 133.981 256.574 135.517V170.814C256.573 172.35 255.962 173.823 254.875 174.909C253.789 175.995 252.317 176.606 250.78 176.608ZM193.001 130.364C191.635 130.365 190.325 130.908 189.359 131.875C188.393 132.841 187.849 134.15 187.848 135.517V170.814C187.849 172.181 188.393 173.491 189.359 174.457C190.325 175.423 191.635 175.966 193.001 175.968H250.78C252.147 175.966 253.457 175.423 254.423 174.457C255.389 173.49 255.932 172.181 255.934 170.814V135.517C255.932 134.15 255.388 132.841 254.422 131.875C253.456 130.909 252.147 130.365 250.78 130.364H193.001Z" fill="#B3DCFF"/>
<path d="M248.305 187.016L244.645 183.825C244.574 183.763 244.516 183.687 244.474 183.603C244.432 183.518 244.407 183.426 244.4 183.331C244.394 183.237 244.406 183.142 244.436 183.052C244.466 182.963 244.514 182.88 244.576 182.808C244.638 182.737 244.714 182.679 244.799 182.637C244.883 182.595 244.975 182.57 245.07 182.563C245.164 182.557 245.259 182.569 245.349 182.599C245.438 182.629 245.521 182.677 245.593 182.739L248.181 184.995L251.871 180.878C251.999 180.736 252.178 180.65 252.369 180.64C252.56 180.629 252.747 180.695 252.889 180.823C253.032 180.95 253.118 181.129 253.128 181.32C253.139 181.511 253.073 181.698 252.945 181.841L248.305 187.016Z" fill="#3D7EFE"/>
<path d="M248.304 199.379L244.644 196.189C244.501 196.063 244.413 195.886 244.4 195.695C244.387 195.505 244.45 195.317 244.576 195.173C244.701 195.029 244.878 194.941 245.069 194.927C245.259 194.914 245.447 194.977 245.592 195.102L248.18 197.358L251.87 193.242C251.933 193.171 252.01 193.114 252.095 193.073C252.181 193.032 252.273 193.008 252.368 193.003C252.462 192.998 252.557 193.011 252.646 193.043C252.736 193.074 252.818 193.123 252.888 193.186C252.959 193.249 253.016 193.326 253.057 193.411C253.098 193.496 253.122 193.589 253.127 193.684C253.132 193.778 253.119 193.873 253.087 193.962C253.056 194.051 253.007 194.134 252.944 194.204L248.304 199.379Z" fill="#3D7EFE"/>
<path d="M188.526 206.807H230.633C230.899 206.807 231.153 206.912 231.341 207.1C231.529 207.288 231.634 207.542 231.634 207.808V209.01C231.634 209.275 231.529 209.529 231.341 209.717C231.154 209.905 230.899 210.01 230.634 210.01H188.527C188.261 210.01 188.006 209.905 187.819 209.717C187.631 209.529 187.525 209.274 187.525 209.009V207.807C187.525 207.542 187.631 207.287 187.818 207.1C188.006 206.912 188.261 206.807 188.526 206.807Z" fill="#B3DCFF"/>
<path d="M248.305 211.742L244.645 208.551C244.501 208.425 244.413 208.248 244.4 208.057C244.387 207.867 244.45 207.679 244.576 207.535C244.701 207.391 244.879 207.303 245.069 207.289C245.26 207.276 245.448 207.339 245.592 207.464L248.18 209.721L251.871 205.604C251.999 205.462 252.178 205.376 252.368 205.366C252.559 205.356 252.746 205.422 252.888 205.55C253.03 205.677 253.116 205.856 253.127 206.047C253.137 206.237 253.072 206.424 252.945 206.567L248.305 211.742Z" fill="#3D7EFE"/>
<g opacity="0.83">
<path opacity="0.83" d="M79.5059 50.5605H166.308C168.481 50.5605 170.564 51.4235 172.1 52.9597C173.637 54.4958 174.5 56.5793 174.5 58.7517V109.18C174.5 111.353 173.637 113.436 172.1 114.972C170.564 116.508 168.481 117.371 166.308 117.371H79.5059C77.3334 117.371 75.2499 116.508 73.7137 114.972C72.1775 113.436 71.3145 111.353 71.3145 109.18V58.752C71.3145 56.5795 72.1775 54.4959 73.7137 52.9598C75.2498 51.4236 77.3334 50.5605 79.5059 50.5605Z" fill="#E0F1FF"/>
</g>
<path d="M90.6499 89.3886C92.9707 90.1745 95.4444 90.4 97.869 90.0467C100.294 89.6935 102.6 88.7715 104.6 87.3561C106.6 85.9407 108.237 84.0721 109.377 81.903C110.516 79.7339 111.126 77.326 111.157 74.876C111.162 74.5275 111.155 74.1794 111.137 73.8361C110.984 71.0203 110.067 68.2993 108.485 65.9652C106.902 63.6311 104.714 61.772 102.155 60.5873C99.5959 59.4026 96.7626 58.9371 93.959 59.2407C91.1554 59.5443 88.4874 60.6056 86.2413 62.3106C83.9951 64.0157 82.2557 66.3002 81.2096 68.919C80.1635 71.5378 79.8502 74.3919 80.3034 77.1753C80.7566 79.9586 81.959 82.566 83.7818 84.7177C85.6046 86.8694 87.9789 88.4841 90.6499 89.3886ZM83.9875 74.5265C84.023 71.8015 85.0131 69.1753 86.7853 67.1052C88.5576 65.035 90.9998 63.6519 93.6867 63.1968C96.3736 62.7417 99.135 63.2434 101.49 64.6145C103.845 65.9856 105.645 68.1393 106.576 70.7006L106.579 70.7068C106.968 71.7807 107.196 72.906 107.257 74.0466C107.27 74.3045 107.274 74.5641 107.272 74.8269C107.253 76.3562 106.933 77.8668 106.33 79.2724C105.727 80.678 104.853 81.9509 103.758 83.0186C102.663 84.0863 101.368 84.9278 99.9477 85.495C98.5273 86.0621 97.009 86.3439 95.4797 86.3242C93.9504 86.3044 92.4399 85.9836 91.0346 85.38C89.6293 84.7763 88.3567 83.9018 87.2895 82.8062C86.2223 81.7106 85.3814 80.4155 84.8148 78.9948C84.2483 77.5742 83.9672 76.0558 83.9875 74.5265Z" fill="#78C2FF"/>
<path d="M104.834 81.8066L107.907 84.1869C105.928 86.7396 103.202 88.6122 100.109 89.5448C97.0159 90.4773 93.7093 90.4233 90.6484 89.3904L91.8951 85.709C94.19 86.4829 96.669 86.5231 98.9878 85.8237C101.307 85.1244 103.35 83.7204 104.834 81.8066Z" fill="#1A598C"/>
<path d="M110.229 69.373L106.576 70.7009L106.579 70.7071C107.246 72.5542 107.436 74.5398 107.132 76.48C106.827 78.4201 106.037 80.2519 104.836 81.8055L107.909 84.1858C109.513 82.1123 110.566 79.6671 110.972 77.0775C111.377 74.4878 111.122 71.8376 110.229 69.373Z" fill="#3D7EFE"/>
<path d="M86.2891 62.2721C88.2289 60.8116 90.4842 59.8263 92.8738 59.3952C95.2634 58.9641 97.7208 59.0993 100.049 59.7898C102.377 60.4804 104.51 61.7072 106.278 63.3716C108.046 65.0361 109.399 67.0918 110.229 69.3739L106.578 70.708L106.576 70.7017C105.952 68.9846 104.933 67.4383 103.601 66.188C102.268 64.9377 100.661 64.0184 98.9076 63.5045C97.1544 62.9906 95.3049 62.8965 93.5086 63.2298C91.7123 63.5631 90.0197 64.3145 88.5675 65.4232L86.2891 62.2721Z" fill="#3D7EFE"/>
<path d="M137.345 140.049C137.347 139.952 137.343 139.857 137.34 139.761C137.338 139.728 137.339 139.695 137.338 139.662C137.281 138.616 136.94 137.605 136.352 136.738C135.764 135.87 134.951 135.179 134 134.739C133.049 134.299 131.996 134.126 130.954 134.239C129.912 134.351 128.921 134.746 128.086 135.379C127.252 136.013 126.605 136.862 126.216 137.835C125.828 138.808 125.711 139.869 125.88 140.903C126.048 141.937 126.495 142.906 127.172 143.706C127.85 144.505 128.732 145.105 129.724 145.441V145.442C130.55 145.721 131.428 145.81 132.293 145.702C133.158 145.593 133.987 145.29 134.718 144.815C135.449 144.341 136.063 143.706 136.514 142.961C136.964 142.215 137.24 141.376 137.321 140.508C137.335 140.356 137.343 140.203 137.345 140.049ZM127.249 139.919C127.262 138.906 127.63 137.93 128.288 137.161C128.947 136.392 129.854 135.878 130.853 135.709C131.851 135.539 132.878 135.726 133.753 136.235C134.628 136.745 135.297 137.545 135.642 138.497L135.644 138.499C135.788 138.898 135.873 139.316 135.896 139.74H135.895C135.9 139.836 135.902 139.933 135.901 140.03C135.886 140.969 135.569 141.879 134.996 142.623C134.879 142.773 134.753 142.915 134.618 143.048C134.099 143.564 133.457 143.939 132.752 144.138C132.048 144.337 131.304 144.354 130.592 144.186C130.455 144.154 130.319 144.118 130.187 144.073C129.322 143.78 128.571 143.22 128.043 142.473C127.515 141.727 127.237 140.833 127.249 139.919Z" fill="#E3F2FF"/>
<path d="M128.412 59.1484H157.968C159.879 59.1484 161.713 59.9079 163.065 61.2598C164.417 62.6117 165.176 64.4452 165.176 66.3571V101.135C165.176 103.047 164.417 104.88 163.065 106.232C161.713 107.584 159.879 108.344 157.967 108.344H128.412C126.5 108.344 124.666 107.584 123.314 106.232C121.963 104.881 121.203 103.047 121.203 101.135V66.3571C121.203 64.4452 121.963 62.6117 123.314 61.2598C124.666 59.9079 126.5 59.1484 128.412 59.1484Z" fill="#78C2FF"/>
<path d="M82.2282 97.0078H111.021C111.455 97.0078 111.872 97.1804 112.179 97.4877C112.486 97.7949 112.659 98.2116 112.659 98.6461V98.8539C112.659 99.2885 112.486 99.7053 112.179 100.013C111.872 100.32 111.455 100.493 111.02 100.493H82.2285C81.7939 100.493 81.3771 100.32 81.0698 100.013C80.7625 99.7053 80.5898 99.2885 80.5898 98.8539V98.6461C80.5898 98.2116 80.7624 97.7949 81.0697 97.4877C81.3769 97.1804 81.7936 97.0078 82.2282 97.0078Z" fill="#B3DCFF"/>
<path d="M82.2282 104.859H111.021C111.455 104.859 111.872 105.032 112.179 105.339C112.486 105.646 112.659 106.063 112.659 106.498V106.705C112.659 107.14 112.486 107.557 112.179 107.864C111.872 108.171 111.455 108.344 111.02 108.344H82.2285C81.7939 108.344 81.3771 108.171 81.0698 107.864C80.7625 107.557 80.5898 107.14 80.5898 106.705V106.498C80.5898 106.063 80.7624 105.646 81.0697 105.339C81.3769 105.032 81.7936 104.859 82.2282 104.859Z" fill="#B3DCFF"/>
<g opacity="0.78">
<path opacity="0.78" d="M227.525 128.047H285.304C286.756 128.047 288.148 128.624 289.174 129.65C290.201 130.676 290.777 132.068 290.777 133.52V168.818C290.777 169.537 290.636 170.249 290.361 170.913C290.086 171.577 289.682 172.18 289.174 172.688C288.666 173.197 288.062 173.6 287.398 173.875C286.734 174.15 286.023 174.292 285.304 174.292H227.525C226.073 174.292 224.681 173.715 223.654 172.688C222.628 171.662 222.051 170.269 222.051 168.818V133.521C222.051 132.069 222.627 130.677 223.654 129.65C224.681 128.624 226.073 128.047 227.525 128.047Z" fill="#3D7EFE"/>
</g>
<path d="M231.041 133.572H250.002C250.55 133.572 251.075 133.79 251.463 134.177C251.85 134.564 252.067 135.09 252.067 135.637V151.1C252.067 151.648 251.85 152.173 251.463 152.56C251.075 152.947 250.55 153.165 250.003 153.165H231.042C230.494 153.165 229.969 152.947 229.581 152.56C229.194 152.173 228.977 151.648 228.977 151.1V135.637C228.977 135.09 229.194 134.564 229.581 134.177C229.969 133.79 230.494 133.572 231.041 133.572Z" fill="#E3F2FF"/>
<path d="M257.141 133.572H284.434C284.755 133.572 285.063 133.7 285.29 133.927C285.517 134.154 285.644 134.461 285.644 134.782V137.589C285.644 137.909 285.517 138.217 285.29 138.444C285.063 138.671 284.755 138.798 284.435 138.798H257.141C256.982 138.798 256.825 138.767 256.678 138.706C256.531 138.645 256.398 138.556 256.286 138.444C256.174 138.332 256.084 138.198 256.024 138.052C255.963 137.905 255.932 137.748 255.932 137.589V134.782C255.932 134.623 255.963 134.465 256.024 134.319C256.084 134.172 256.174 134.039 256.286 133.926C256.398 133.814 256.531 133.725 256.678 133.664C256.825 133.604 256.982 133.572 257.141 133.572Z" fill="#E3F2FF"/>
<path d="M257.142 141.748H284.434C284.755 141.748 285.063 141.876 285.29 142.102C285.517 142.329 285.644 142.637 285.644 142.958V145.764C285.644 146.085 285.517 146.393 285.29 146.62C285.063 146.847 284.755 146.974 284.434 146.974H257.141C256.982 146.974 256.825 146.943 256.678 146.882C256.531 146.822 256.398 146.733 256.286 146.62C256.174 146.508 256.084 146.375 256.024 146.228C255.963 146.081 255.932 145.924 255.932 145.765V142.958C255.932 142.637 256.059 142.329 256.286 142.102C256.513 141.876 256.821 141.748 257.142 141.748Z" fill="#E3F2FF"/>
<path d="M274.019 165.266H284.546C284.837 165.266 285.117 165.381 285.323 165.588C285.529 165.794 285.645 166.073 285.645 166.365V166.864C285.645 167.008 285.617 167.151 285.562 167.284C285.506 167.418 285.425 167.539 285.323 167.641C285.221 167.743 285.1 167.824 284.967 167.879C284.833 167.934 284.69 167.963 284.546 167.963H274.019C273.875 167.963 273.732 167.934 273.599 167.879C273.465 167.824 273.344 167.743 273.242 167.641C273.14 167.539 273.059 167.418 273.004 167.284C272.948 167.151 272.92 167.008 272.92 166.864V166.365C272.92 166.073 273.036 165.794 273.242 165.588C273.448 165.381 273.728 165.266 274.019 165.266Z" fill="#E3F2FF"/>
<path d="M277.55 185.531C277.55 185.531 276.453 183.612 278.193 178.467C278.47 177.508 279.019 176.65 279.772 175.996C280.526 175.341 281.452 174.918 282.44 174.777C283.428 174.636 284.436 174.783 285.342 175.2C286.249 175.618 287.015 176.288 287.55 177.13C289.401 180.318 288.776 182.297 286.051 185.897C283.326 189.496 278.682 187.177 277.55 185.531Z" fill="#EEA886"/>
<path d="M291.078 274.044C291.078 274.044 291.366 276.157 291.402 276.474C291.438 276.791 294.608 276.287 294.608 276.287L294.865 273.772C294.865 273.772 291.474 273.746 291.078 274.044Z" fill="#EEA886"/>
<path d="M291.368 276.206C290.808 276.913 290.141 277.53 289.392 278.034C288.421 278.589 286.895 278.809 286.32 279.383C285.905 279.797 284.81 281.583 288.844 281.547C292.879 281.511 294.824 281.798 295.256 281.114C295.689 280.43 294.631 276.062 294.631 276.062C293.556 276.271 292.457 276.319 291.368 276.206Z" fill="#3D7EFE"/>
<path d="M269.129 274.044C269.129 274.044 269.417 276.157 269.453 276.474C269.489 276.791 272.659 276.287 272.659 276.287L272.916 273.772C272.916 273.772 269.525 273.746 269.129 274.044Z" fill="#EEA886"/>
<path d="M269.419 276.206C268.859 276.913 268.193 277.53 267.444 278.034C266.472 278.589 262.898 279.045 262.323 279.618C261.908 280.034 261.219 281.703 266.895 281.547C270.928 281.435 272.875 281.798 273.307 281.114C273.74 280.43 272.682 276.062 272.682 276.062C271.601 276.217 270.509 276.265 269.419 276.206Z" fill="#3D7EFE"/>
<path d="M290.011 221.436C290.011 221.436 291.636 226.486 291.422 230.839C291.208 235.192 292.263 239.955 292.693 244.502C293.174 249.57 295.141 261.57 295.212 264.281C295.283 266.993 294.906 275.651 294.906 275.651L290.97 275.746C290.97 275.746 287.664 254.768 286.808 252.626C285.951 250.486 281.705 235.226 281.562 233.513C281.42 231.8 290.011 221.436 290.011 221.436Z" fill="#2F4563"/>
<path d="M273.689 220.91C273.689 220.91 271.3 234.264 271.014 236.928C270.729 239.592 270.539 249.82 270.396 251.484C270.253 253.15 269.444 273.273 268.684 275.746H273.073C273.073 275.746 277.579 261.118 277.579 254.196C277.579 247.275 280.563 239.15 282.49 234.583C284.417 230.016 288.826 229.908 290.011 221.435C290.011 221.435 275.293 218.222 273.689 220.91Z" fill="#354C70"/>
<path d="M279.143 186.89C279.417 187.691 279.417 188.559 279.143 189.359C278.647 190.388 285.469 189.771 285.469 189.771C285.308 188.451 285.51 187.112 286.051 185.898C286.943 184.149 279.143 186.89 279.143 186.89Z" fill="#EEA886"/>
<path d="M290.327 222.536C290.327 222.536 287.874 225.056 273.469 222.144L273.689 220.91L290.064 221.527L290.327 222.536Z" fill="#2B3B57"/>
<path d="M278.111 189.693C278.111 189.693 275.592 189.951 274.872 190.087C274.151 190.225 269.307 189.221 268.312 189.118C267.318 189.015 263.08 186.111 262.943 185.768C262.805 185.425 260.364 179.244 260.227 177.907C260.09 176.57 257.849 177.26 258.041 178.182C258.401 179.905 258.862 184.088 259.115 185.3C259.389 186.609 260.121 189.574 260.532 189.939C262.937 191.844 265.623 193.363 268.496 194.441C270.788 195.205 272.985 196.229 275.045 197.492H293.458C293.458 197.492 300.62 187.254 300.774 185.712C300.928 184.169 295.772 173.918 294.744 172.632C293.715 171.347 292.228 173.052 292.228 173.052C292.228 173.052 295.309 182.092 295.721 183.377C296.131 184.663 292.136 190.31 291.04 190.327C289.942 190.345 287.126 189.985 285.875 189.933C284.993 189.865 284.126 189.662 283.304 189.334L278.111 189.693Z" fill="#EEA886"/>
<path d="M270.176 196.532C270.844 197.005 271.407 197.61 271.83 198.31C272.253 199.011 272.527 199.79 272.635 200.601C272.909 203.308 273.391 205.989 274.075 208.622C274.486 210.011 273.715 220.088 273.612 220.808C273.509 221.528 287.861 223.237 290.065 221.528C290.065 221.528 290.681 212.118 290.939 209.445C291.196 206.772 292.429 200.293 292.841 199.419C293.252 198.544 298.239 191.55 298.445 190.627C298.445 190.627 295.865 186.514 294.014 186.463C294.014 186.463 291.074 189.907 290.116 190.062C289.158 190.216 283.283 189.139 283.281 189.13C283.281 189.13 282.64 190.004 279.232 188.975C279.232 188.975 275.172 189.433 274.512 189.517C273.712 189.62 268.153 188.82 268.153 188.82C268.153 188.82 265.923 192.585 266.313 194.487L270.176 196.532Z" fill="#FF7E55"/>
<path d="M260.356 178.709C260.356 178.709 259.853 176.327 260.459 175.642C260.804 175.253 261.633 174.222 261.709 174.07C261.785 173.919 262.675 173.408 262.675 173.161C262.675 172.915 261.804 172.612 261.046 173.313C260.289 174.013 259.816 174.165 259.512 174.089C259.209 174.013 258.774 171.494 258.736 170.869C258.698 170.244 258.457 168.597 258.066 168.71C257.675 168.824 257.694 169.544 257.694 169.544C257.694 169.544 257.239 168.293 256.937 168.54C256.634 168.786 256.671 169.392 256.671 169.392C256.671 169.392 256.104 168.691 255.951 169.202C255.862 169.518 255.862 169.853 255.951 170.169C255.951 170.169 255.364 169.847 255.326 170.642C255.301 171.985 255.5 173.323 255.914 174.6C256.33 175.434 257.89 177.614 258.076 178.465C258.262 179.317 260.356 178.709 260.356 178.709Z" fill="#EEA886"/>
<path d="M292.728 174.525C292.728 174.525 291.015 171.645 290.433 171.388C289.691 171.167 288.977 170.86 288.307 170.471C287.588 169.957 286.636 169.529 286.688 169.358C286.739 169.186 287.588 169.255 288.496 169.649C289.404 170.043 289.803 169.853 289.889 169.647C289.774 168.935 289.516 168.255 289.13 167.646C288.856 167.303 286.902 165.338 287.228 165.047C287.553 164.756 288.821 165.836 289.027 166.058C289.027 166.058 288.016 163.933 288.411 163.83C288.805 163.727 289.542 164.481 289.542 164.481C289.542 164.481 289.456 162.665 291.41 165.612C291.41 165.612 290.998 164.635 291.598 164.961C292.198 165.287 292.781 167.12 292.969 168.046C293.158 168.972 294.013 171.92 294.742 172.631C295.471 173.342 292.728 174.525 292.728 174.525Z" fill="#EEA886"/>
<path d="M286.052 185.897C285.083 185.88 284.126 185.682 283.23 185.314C281.31 184.651 281.167 181.295 280.752 181.693C280.622 181.837 280.46 181.948 280.278 182.017C280.097 182.085 279.902 182.109 279.709 182.087C279.517 182.065 279.332 181.996 279.172 181.888C279.011 181.78 278.878 181.634 278.785 181.464C278.785 181.464 279.722 180.23 279.288 179.636C278.968 179.232 278.582 178.884 278.146 178.608C278.146 178.608 279.497 172.1 285.641 175.065C292.839 178.539 286.052 185.897 286.052 185.897Z" fill="#353A3D"/>
<path d="M279.143 189.359L279.359 188.419C281.382 188.373 283.406 188.45 285.42 188.649L285.645 189.774C285.645 189.774 282.905 191.016 279.143 189.359Z" fill="#FF7E55"/>
<path d="M280.11 180.871C280.467 180.279 281.784 179.879 281.939 181.556C282.058 182.856 279.584 184.275 279.561 183.064C279.508 182.293 279.7 181.526 280.11 180.871Z" fill="#EEA886"/>
<path d="M260.263 178.168C259.515 178.181 258.786 178.408 258.163 178.823C258.14 179.063 258.179 179.306 258.277 179.527C258.966 179.207 259.695 178.979 260.443 178.848C260.443 178.848 260.428 178.333 260.263 178.168Z" fill="#E55353"/>
<path d="M258.595 178.521C258.548 178.632 258.535 178.754 258.558 178.872C258.581 178.99 258.638 179.099 258.722 179.184C258.807 179.27 258.915 179.329 259.033 179.353C259.151 179.377 259.273 179.366 259.384 179.32C259.496 179.275 259.591 179.198 259.659 179.098C259.726 178.999 259.763 178.881 259.763 178.761C259.764 178.641 259.729 178.523 259.663 178.423C259.597 178.322 259.503 178.244 259.392 178.197C259.318 178.165 259.239 178.149 259.159 178.148C259.079 178.148 259 178.163 258.926 178.193C258.852 178.223 258.784 178.268 258.727 178.324C258.671 178.38 258.625 178.447 258.595 178.521Z" fill="#353A3D"/>
<g style="mix-blend-mode:multiply" opacity="0.78">
<g style="mix-blend-mode:multiply" opacity="0.78">
<path d="M96.8273 158.977H143.286C144.305 158.977 145.283 159.382 146.004 160.103C146.725 160.824 147.131 161.802 147.131 162.821V174.996C147.131 176.016 146.725 176.995 146.004 177.716C145.283 178.437 144.305 178.842 143.285 178.842H96.8273C95.8076 178.842 94.8296 178.437 94.1086 177.716C93.3875 176.995 92.9824 176.017 92.9824 174.997V162.821C92.9824 161.802 93.3875 160.824 94.1086 160.103C94.8296 159.382 95.8076 158.977 96.8273 158.977V158.977Z" fill="#3D7EFE"/>
</g>
</g>
<path d="M50.9014 217.527C50.9014 217.527 51.1155 218.69 51.7681 218.862C52.281 219.065 52.7435 219.378 53.1233 219.778C53.3753 220.02 54.4269 220.476 54.1245 220.796C53.8223 221.118 52.3551 220.13 52.006 219.984C51.6568 219.839 52.1567 221.454 52.0157 221.822C51.8746 222.189 49.1512 222.866 48.9364 221.717C48.7218 220.568 49.2504 219.199 49.1726 219.004C49.0932 218.732 49.03 218.455 48.9834 218.175L50.9014 217.527Z" fill="#EEA886"/>
<path d="M52.0288 221.543C52.0288 221.543 52.4527 225.104 52.2826 225.364C52.1122 225.625 51.9179 225.637 51.8643 225.306C51.8107 224.974 51.355 221.877 51.355 221.877C51.355 221.877 51.149 226.176 51.0561 226.419C51.0017 226.563 50.627 226.608 50.5818 226.433C50.5368 226.258 50.4977 221.986 50.4977 221.986C50.4977 221.986 50.2979 226 50.1593 226.18C50.1218 226.222 50.0727 226.251 50.0184 226.263C49.9642 226.276 49.9073 226.272 49.8552 226.252C49.8032 226.232 49.7584 226.197 49.7268 226.151C49.6952 226.105 49.6782 226.051 49.6781 225.995C49.6725 225.696 49.6473 221.962 49.6473 221.962C49.6473 221.962 49.3182 224.873 49.1108 224.957C48.9839 225.009 48.6617 225.062 48.7699 224.313C48.8785 223.565 48.949 221.772 48.949 221.772L52.0288 221.543Z" fill="#EEA886"/>
<path d="M89.1387 173.848C89.4705 173.224 89.7336 172.565 89.9234 171.884C90.2653 170.964 90.8664 170.163 91.654 169.577C92.0972 169.302 95.3095 167 95.6812 167C96.0531 167.001 95.8374 167.714 95.5159 167.922C95.1944 168.131 92.5854 170.163 92.5854 170.163C92.5854 170.163 95.8315 167.923 96.1707 167.985C96.5098 168.045 96.7511 168.476 96.387 168.92C96.4844 168.974 96.565 169.054 96.62 169.151C96.6751 169.247 96.7025 169.357 96.6993 169.469C96.6961 169.58 96.6624 169.688 96.6018 169.782C96.5413 169.875 96.4562 169.95 96.3559 169.999L94.8217 171.184C94.8217 171.184 95.7247 170.715 95.3893 171.44C95.211 171.826 93.3238 172.952 93.0216 173.297C92.1663 173.864 91.2694 174.367 90.3387 174.8L89.1387 173.848Z" fill="#EEA886"/>
<path d="M70.1163 273.626H70.9211C70.9211 273.626 70.6528 270.587 71.3981 270.557C72.1425 270.527 73.9896 273.03 75.0927 273.418C76.1951 273.805 81.856 274.132 81.8857 273.089C81.9158 272.048 79.7113 271.63 79.0258 271.332C78.3406 271.034 75.0031 267.786 74.4075 267.398C73.8111 267.011 72.8277 265.045 72.8277 265.045H69.7889C69.7889 265.045 69.4557 266.695 69.2642 268.028C69.1983 268.441 69.1547 268.858 69.1335 269.276C69.1037 270.408 70.1163 273.626 70.1163 273.626Z" fill="#EEA886"/>
<path d="M56.1347 273.026H56.8054V270.197C57.3637 270.244 59.2415 272.021 59.8227 272.535C60.4031 273.049 61.2003 273.026 63.6476 273.182C66.0944 273.337 66.3254 271.873 65.9382 271.374C65.5509 270.875 64.2992 270.657 63.6476 270.346C62.9963 270.034 60.426 267.135 59.7404 266.45C59.0555 265.764 58.6376 263.801 58.6376 263.801L55.7776 264.05C55.7798 265.158 55.6768 266.264 55.47 267.353V267.354L55.4668 267.365C55.4392 267.494 55.4086 267.62 55.3752 267.743C54.9503 269.309 56.1347 273.026 56.1347 273.026Z" fill="#EEA886"/>
<path d="M62.825 178.472C62.825 178.472 61.4287 181.418 62.1744 183.826C62.1744 183.826 57.8791 183.24 57.7511 182.738C57.6229 182.236 58.2891 177.719 57.7926 176.335C57.2965 174.949 62.825 178.472 62.825 178.472Z" fill="#EEA886"/>
<path d="M62.9276 182.852C62.9276 182.852 65.4136 183.92 66.5481 184.247C67.6824 184.576 70.0128 185.862 69.5136 190.033C69.0703 193.241 68.445 196.421 67.6406 199.558C67.206 202.411 67.1066 205.304 67.3443 208.18C62.8897 208.76 58.3637 208.432 54.0393 207.216C54.0393 207.216 55.589 203.516 55.6274 202.534C55.6658 201.55 52.0338 193.17 51.9298 191.88C51.8261 190.592 51.3836 184.907 53.4021 183.805C55.421 182.702 56.9784 182.979 57.8358 182.483C58.6934 181.986 61.7636 182.367 62.9276 182.852Z" fill="#3374B9"/>
<path d="M62.9158 189.337C62.9158 189.337 61.9616 184.328 66.817 184.336C71.0854 184.344 75.1177 183.534 75.7939 183.159C76.4701 182.784 79.0805 181.5 80.4515 180.09C81.8226 178.681 89.2508 173.031 89.2508 173.031L91.3039 175.108C91.3039 175.108 83.4678 183.617 82.2046 184.446C80.9411 185.275 70.3335 191.2 68.9874 191.387C67.6416 191.574 63.8623 192.602 62.9158 189.337Z" fill="#3374B9"/>
<path d="M47.6576 204.814C47.512 206.578 48.4724 218.757 48.4724 218.757L51.9256 219.155C51.9256 219.155 51.6802 207.127 51.4866 204.352C51.4861 203.196 51.6295 202.044 51.9135 200.924V200.923C52.1002 200.06 52.3305 199.154 52.5676 198.291C53.2206 195.905 53.9249 193.833 53.9249 193.833C53.9249 193.833 57.7916 183.773 52.9403 184.18C51.7045 185.587 50.8245 187.271 50.3745 189.089C49.6112 192.139 48.7379 196.71 48.7044 198.531C48.6712 200.353 47.7644 203.517 47.6576 204.814Z" fill="#3374B9"/>
<path d="M66.5113 208.081C66.9808 209.156 67.3858 210.259 67.724 211.382C67.8222 212.047 71.3155 220.744 71.5589 223.289C71.8047 225.862 72.542 232.729 72.8041 233.712C73.0665 234.696 72.2143 239.087 72.0833 240.071C71.9519 241.054 72.0176 257.115 73.1975 265.046C73.1975 265.046 70.4443 266.226 68.3466 265.046C68.3466 265.046 64.8723 252.657 65.069 245.512C65.2657 238.366 66.1722 235.352 65.0634 232.466C63.9548 229.583 57.4649 220.93 56.8094 220.011C56.1537 219.094 52.0471 214.022 55.9359 208.528C59.8247 203.034 66.5113 208.081 66.5113 208.081Z" fill="#EDDAD3"/>
<path d="M53.0912 231.549C53.4362 233.843 53.0732 236.859 52.3527 245.25C51.6309 253.64 53.6142 263.801 53.6142 263.801C55.3677 264.285 57.2195 264.285 58.9729 263.801C58.9072 263.211 58.9729 243.348 58.9729 241.578C58.9729 239.808 59.4815 237.8 59.6122 235.768C59.9207 233.551 60.4084 231.363 61.0703 229.225C61.2878 228.444 61.5118 227.66 61.7303 226.9V226.899C61.853 226.473 61.973 226.054 62.0902 225.649C63.1107 222.109 64.4835 208.44 64.4835 208.44C64.4835 208.44 56.8756 202.313 53.1717 208.082C49.4675 213.849 51.3692 218.045 51.5002 218.766C51.6309 219.487 52.7458 229.255 53.0912 231.549Z" fill="#EDDAD3"/>
<path d="M67.8332 197.769C67.8332 197.769 67.1573 208.629 69.1793 214.74C69.1793 214.74 61.1456 216.08 50.8965 212.627C50.8965 212.627 53.7153 205.326 53.6182 204.185C53.5207 203.044 50.5542 189.752 51.9782 186.777C53.4022 183.803 67.3274 188.024 67.8332 197.769Z" fill="#3374B9"/>
<path d="M61.2713 166.366C63.108 166.292 67.7978 167.004 66.9242 174.071C66.0506 181.139 63.4986 180.527 60.9705 179.588C58.4427 178.649 55.7677 172.934 55.8742 171.463C55.9807 169.992 56.0308 166.578 61.2713 166.366Z" fill="#EEA886"/>
<path d="M66.8977 170.803C66.8977 170.803 64.6558 173.272 62.5474 173.748C62.5474 173.748 60.7528 176.474 57.9298 176.996C57.9298 176.996 52.43 170.917 57.7068 167.028C62.9836 163.138 67.0874 168.637 66.8977 170.803Z" fill="#353A3D"/>
<path d="M63.0064 172.802C62.9765 172.633 62.8989 172.477 62.7829 172.352C62.6669 172.226 62.5173 172.136 62.3519 172.093C62.1865 172.05 62.0122 172.055 61.8497 172.108C61.6872 172.161 61.5433 172.26 61.4351 172.392C60.7081 173.227 61.7687 175.374 62.2261 175.407C62.6838 175.44 63.1616 174.292 63.0064 172.802Z" fill="#EEA886"/>
<path d="M56.2441 219.221C56.3033 219.351 60.0939 227.766 61.0691 229.225C61.2866 228.444 61.5106 227.659 61.7291 226.899V226.899C61.7291 226.899 56.371 219.406 56.2441 219.221Z" fill="#C9B9B3"/>
<path d="M51.7433 192.299C51.5968 195.174 51.6535 198.056 51.913 200.923C52.0997 200.06 52.33 199.155 52.5672 198.291C52.5485 198.169 51.8135 193.142 51.7433 192.299Z" fill="#3374B9"/>
<path d="M59.8572 165.907C59.8572 165.907 53.4658 165.76 54.4262 176.742C55.1643 185.183 52.0605 189.352 52.4974 190.583C52.9348 191.813 54.4337 193.869 57.7888 192.014C61.1442 190.16 58.9355 180.487 60.738 176.722C62.5405 172.958 66.4974 171.213 66.4974 171.213C66.4974 171.213 65.8029 164.804 59.8572 165.907Z" fill="#353A3D"/>
<path d="M68.48 188.146C68.48 188.146 69.9393 193.358 70.2863 194.59C70.7371 196.19 68.6443 199.2 66.7906 198.276C64.9369 197.35 68.48 188.146 68.48 188.146Z" fill="#3374B9"/>
<path d="M56.1347 273.026H56.8054V270.197C57.3637 270.244 59.2415 272.021 59.8227 272.535C60.4031 273.049 61.2003 273.026 63.6476 273.182C66.0944 273.337 66.3254 271.873 65.9382 271.374C65.5509 270.875 64.2992 270.657 63.6476 270.346C61.0299 270.485 57.8352 266.805 56.3017 266.813C55.4869 266.817 55.4948 267.268 55.47 267.353V267.354L55.4668 267.365C55.4392 267.494 55.4086 267.62 55.3752 267.742C54.9503 269.309 56.1347 273.026 56.1347 273.026Z" fill="#DBCAC3"/>
<path d="M70.1163 273.626H70.9211C70.9211 273.626 70.6528 270.588 71.3981 270.557C72.1425 270.528 73.9896 273.03 75.0927 273.418C76.1951 273.806 81.856 274.133 81.8857 273.09C81.9158 272.048 79.7113 271.63 79.0258 271.332C76.6909 271.327 72.8936 268.757 71.7158 268.236C70.937 267.927 70.084 267.854 69.2642 268.028C69.1983 268.442 69.1547 268.859 69.1335 269.277C69.1037 270.409 70.1163 273.626 70.1163 273.626Z" fill="#DBCAC3"/>
<path d="M233.89 55.2271L233.744 54.6032C234.329 54.475 234.905 54.3094 235.469 54.1074L235.704 54.7034C235.111 54.9177 234.505 55.0926 233.89 55.2271Z" fill="#C2BEBC"/>
<path d="M49.0711 131.175C48.6766 130.07 48.2984 128.896 47.9476 127.687L48.5629 127.509C48.9103 128.706 49.2843 129.867 49.6747 130.96L49.0711 131.175ZM47.0186 124.145C46.7445 122.984 46.4887 121.779 46.2584 120.565L46.888 120.446C47.1164 121.651 47.3702 122.846 47.6423 123.998L47.0186 124.145ZM45.6507 116.957C45.4747 115.766 45.3181 114.546 45.1857 113.329L45.8229 113.26C45.9545 114.468 46.1098 115.681 46.2847 116.864L45.6507 116.957ZM44.8573 109.687C44.7705 108.479 44.7048 107.25 44.6616 106.035L45.3022 106.012C45.3451 107.22 45.4104 108.441 45.4965 109.641L44.8573 109.687ZM45.2383 102.379L44.5977 102.378C44.598 101.163 44.6205 99.9329 44.6647 98.7215L45.3053 98.7446C45.2614 99.9484 45.2386 101.171 45.2383 102.379ZM45.5041 95.1158L44.8649 95.0691C44.9541 93.8533 45.0668 92.6281 45.1999 91.4264L45.837 91.4973C45.7043 92.6907 45.5923 93.9083 45.5041 95.1158ZM46.3072 87.8941L45.6735 87.799C45.855 86.5907 46.0621 85.3766 46.2889 84.1905L46.9183 84.3112C46.693 85.4887 46.4873 86.6945 46.3072 87.8941ZM47.6748 80.7567L47.0508 80.6101C47.3305 79.4188 47.6378 78.2261 47.9638 77.0649L48.5809 77.2381C48.257 78.3907 47.9524 79.5744 47.6748 80.7567ZM49.6408 73.7641L49.0324 73.5633C49.4157 72.4011 49.8292 71.2409 50.2613 70.1139L50.8597 70.3434C50.4314 71.4607 50.0211 72.6116 49.6408 73.7641ZM52.2415 66.9859L51.6552 66.7274C52.1492 65.6072 52.675 64.4931 53.2178 63.4149L53.7903 63.7031C53.252 64.7714 52.731 65.8759 52.2415 66.9859ZM55.5081 60.5065L54.9522 60.1881C55.5599 59.1267 56.2016 58.074 56.8597 57.0594L57.3973 57.4082C56.7457 58.4128 56.1099 59.4551 55.5081 60.5065ZM226.59 56.041L226.581 55.4001C227.822 55.3831 229.035 55.3122 230.189 55.1895L230.257 55.8266C229.084 55.9515 227.85 56.0237 226.59 56.041ZM222.922 55.9442C221.73 55.8674 220.503 55.7451 219.273 55.5805L219.358 54.9455C220.574 55.1082 221.786 55.229 222.962 55.305L222.922 55.9442ZM215.658 54.9811C214.484 54.7494 213.283 54.477 212.087 54.1711L212.246 53.5502C213.43 53.8534 214.62 54.123 215.782 54.3522L215.658 54.9811ZM59.4577 54.4213L58.9409 54.0428C59.6617 53.0586 60.4188 52.0865 61.1911 51.1527L61.6847 51.561C60.9207 52.4851 60.1713 53.4475 59.4577 54.4213ZM208.565 53.1727C207.422 52.8176 206.255 52.4246 205.097 52.0046L205.315 51.4024C206.464 51.8189 207.622 52.2085 208.755 52.5608L208.565 53.1727ZM201.685 50.6836C200.578 50.2276 199.45 49.7367 198.332 49.2237L198.599 48.6412C199.709 49.1508 200.83 49.6386 201.929 50.0911L201.685 50.6836ZM64.0763 48.8376L63.6075 48.4006C64.4372 47.5108 65.3043 46.6351 66.1844 45.7978L66.6262 46.2621C65.7554 47.0903 64.8974 47.9571 64.0763 48.8376ZM195.037 47.6383C193.967 47.099 192.878 46.5272 191.801 45.9382L192.108 45.3761C193.179 45.9617 194.262 46.53 195.326 47.0659L195.037 47.6383ZM188.622 44.134C188.204 43.8878 187.784 43.6367 187.361 43.3806C186.765 43.0208 186.135 42.6505 185.486 42.2799L185.804 41.7237C186.457 42.0967 187.092 42.4697 187.692 42.8324C188.113 43.0868 188.531 43.3367 188.947 43.5819L188.622 44.134ZM69.3258 43.8442L68.9127 43.3544C69.5508 42.8164 70.2105 42.2834 70.8732 41.77C71.1746 41.5363 71.4768 41.3053 71.7796 41.0769L72.1654 41.5885C71.865 41.8153 71.565 42.0446 71.2655 42.2764C70.6097 42.7846 69.9571 43.3122 69.3258 43.8442ZM182.297 40.5307C181.25 39.9776 180.159 39.4224 179.055 38.8802L179.338 38.3053C180.447 38.8499 181.543 39.4078 182.597 39.9637L182.297 40.5307ZM75.1108 39.4659L74.7475 38.938C75.7507 38.2473 76.7799 37.5721 77.8059 36.9305L78.1457 37.4739C77.1273 38.1104 76.1064 38.7807 75.1108 39.4659ZM175.768 37.3204C174.677 36.8202 173.557 36.3245 172.44 35.8467L172.693 35.2576C173.814 35.7371 174.939 36.2353 176.035 36.738L175.768 37.3204ZM81.266 35.6189L80.9511 35.0606C82.0093 34.4632 83.0948 33.8825 84.1772 33.3345L84.4665 33.9063C83.3928 34.4497 82.3159 35.026 81.266 35.6189ZM169.077 34.4577C167.956 34.0114 166.813 33.5724 165.68 33.1534L165.902 32.5525C167.04 32.9733 168.188 33.414 169.314 33.8624L169.077 34.4577ZM87.7418 32.3409L87.4787 31.7567C88.5846 31.2585 89.7185 30.7791 90.8486 30.3311L91.0847 30.9264C89.9636 31.3709 88.839 31.847 87.7418 32.3409ZM162.251 31.9351C161.104 31.5437 159.941 31.1628 158.793 30.8039L158.984 30.1921C160.137 30.553 161.306 30.9353 162.458 31.3284L162.251 31.9351ZM155.307 29.7627C154.139 29.4305 152.958 29.1114 151.794 28.8141L151.953 28.1932C153.122 28.4919 154.309 28.8127 155.482 29.1463L155.307 29.7627ZM94.4889 29.6652L94.2801 29.0596C95.4257 28.6641 96.5983 28.289 97.7647 27.9443L97.9466 28.5586C96.7892 28.9008 95.6258 29.2732 94.4889 29.6652ZM148.258 27.9616C147.074 27.6933 145.877 27.4402 144.7 27.2086L144.823 26.5798C146.007 26.8128 147.21 27.0673 148.4 27.3366L148.258 27.9616ZM101.45 27.6065L101.296 26.9846C102.469 26.6936 103.67 26.4232 104.864 26.1808L104.991 26.809C103.806 27.0493 102.615 27.3175 101.45 27.6065ZM141.121 26.5601C139.923 26.361 138.713 26.1791 137.525 26.0194L137.611 25.384C138.805 25.5451 140.022 25.7276 141.226 25.9278L141.121 26.5601ZM108.563 26.1632L108.463 25.5303C109.656 25.3405 110.874 25.1721 112.085 25.03L112.16 25.6665C110.958 25.8075 109.747 25.9745 108.563 26.1632ZM133.915 25.5914C132.707 25.468 131.488 25.3636 130.293 25.2813L130.338 24.6421C131.539 24.7248 132.765 24.8298 133.981 24.954L133.915 25.5914ZM115.774 25.3156L115.725 24.6763C116.927 24.5837 118.156 24.5129 119.375 24.4655L119.4 25.1061C118.189 25.1527 116.969 25.2233 115.774 25.3156ZM126.664 25.0936C125.5 25.0539 124.327 25.0335 123.177 25.0335H123.031L123.03 24.3929L123.177 24.3926C124.334 24.3929 125.515 24.4133 126.686 24.4534L126.664 25.0936Z" fill="url(#paint0_linear_2389_50465)"/>
<path d="M51.229 136.249C50.9577 135.718 50.688 135.154 50.4277 134.573L51.0126 134.311C51.2685 134.882 51.5333 135.436 51.7998 135.957L51.229 136.249Z" fill="#C2BEBC"/>
<path d="M122.312 192.715H117.385V210.615H122.312V192.715Z" fill="#78C2FF"/>
<path d="M129.324 190.908H124.396V210.615H129.324V190.908Z" fill="#78C2FF"/>
<path d="M136.432 194.66H131.504V210.616H136.432V194.66Z" fill="#78C2FF"/>
<path d="M143.537 187.264H138.609V210.615H143.537V187.264Z" fill="#78C2FF"/>
<path d="M150.994 189.59H146.066V210.615H150.994V189.59Z" fill="#78C2FF"/>
<path d="M158.551 192.715H153.623V210.615H158.551V192.715Z" fill="#78C2FF"/>
<path d="M165.562 190.908H160.635V210.615H165.562V190.908Z" fill="#78C2FF"/>
<path d="M172.668 194.66H167.74V210.616H172.668V194.66Z" fill="#78C2FF"/>
<path d="M109.792 168.279C109.791 168.251 109.792 168.223 109.791 168.195C109.734 167.149 109.393 166.138 108.805 165.271C108.217 164.403 107.404 163.712 106.453 163.272C105.502 162.832 104.449 162.659 103.407 162.772C102.365 162.885 101.374 163.279 100.539 163.913C99.7046 164.546 99.0583 165.395 98.6695 166.368C98.2808 167.341 98.1644 168.402 98.3328 169.436C98.5012 170.471 98.948 171.439 99.6254 172.239C100.303 173.039 101.185 173.639 102.178 173.975C103.001 174.253 103.877 174.342 104.74 174.235C105.603 174.128 106.43 173.827 107.161 173.355C107.891 172.883 108.505 172.252 108.957 171.509C109.409 170.766 109.688 169.931 109.772 169.066C109.787 168.906 109.796 168.744 109.798 168.582C109.8 168.48 109.796 168.379 109.792 168.279ZM99.702 168.452C99.7151 167.439 100.083 166.463 100.741 165.694C101.4 164.924 102.308 164.41 103.306 164.241C104.305 164.072 105.331 164.259 106.206 164.768C107.081 165.278 107.75 166.078 108.096 167.03L108.097 167.032C108.241 167.431 108.326 167.849 108.349 168.273H108.348C108.354 168.369 108.356 168.466 108.354 168.563C108.339 169.502 108.022 170.412 107.449 171.156C107.333 171.306 107.207 171.448 107.071 171.58C106.552 172.097 105.91 172.472 105.205 172.671C104.5 172.87 103.756 172.887 103.044 172.718C102.907 172.687 102.772 172.651 102.64 172.606C101.775 172.313 101.024 171.753 100.496 171.007C99.9684 170.26 99.6904 169.366 99.702 168.452Z" fill="#E3F2FF"/>
<g opacity="0.74">
<path opacity="0.74" d="M237.192 215.484H198.614C195.896 215.484 193.693 217.687 193.693 220.405V248.416C193.693 251.134 195.896 253.337 198.614 253.337H237.192C239.909 253.337 242.113 251.134 242.113 248.416V220.405C242.113 217.687 239.909 215.484 237.192 215.484Z" fill="#3D7EFE"/>
</g>
<path d="M218.93 219.355H236.211C237.009 219.355 237.775 219.672 238.339 220.237C238.903 220.801 239.22 221.566 239.22 222.364V245.76C239.22 246.558 238.903 247.323 238.339 247.887C237.775 248.452 237.009 248.769 236.211 248.769H218.931C218.133 248.769 217.367 248.452 216.803 247.887C216.239 247.323 215.922 246.558 215.922 245.76V222.364C215.922 221.566 216.239 220.801 216.803 220.237C217.367 219.672 218.132 219.355 218.93 219.355Z" fill="#E3F2FF"/>
<path d="M200.522 219.355H209.37C209.859 219.355 210.328 219.55 210.674 219.896C211.02 220.242 211.214 220.711 211.214 221.2V221.705C211.214 222.194 211.02 222.663 210.674 223.009C210.328 223.355 209.859 223.549 209.37 223.549H200.522C200.033 223.549 199.564 223.355 199.218 223.009C198.872 222.663 198.678 222.194 198.678 221.705V221.2C198.678 220.711 198.872 220.242 199.218 219.896C199.564 219.55 200.033 219.355 200.522 219.355Z" fill="#E3F2FF"/>
<path d="M200.522 227.184H209.37C209.859 227.184 210.328 227.378 210.674 227.724C211.02 228.07 211.214 228.539 211.214 229.028V229.533C211.214 230.022 211.02 230.491 210.674 230.837C210.328 231.183 209.859 231.377 209.37 231.377H200.522C200.033 231.377 199.564 231.183 199.218 230.837C198.872 230.491 198.678 230.022 198.678 229.533V229.028C198.678 228.785 198.725 228.546 198.818 228.322C198.911 228.098 199.047 227.895 199.218 227.724C199.389 227.552 199.592 227.417 199.816 227.324C200.04 227.231 200.28 227.184 200.522 227.184Z" fill="#E3F2FF"/>
<path d="M361.446 97.5619L358.313 97.9079C357.614 97.985 356.957 98.2781 356.433 98.7465C355.909 99.2149 355.544 99.8351 355.388 100.521L354.692 103.598C354.593 104.035 354.408 104.448 354.147 104.814C353.887 105.179 353.557 105.488 353.176 105.725C352.794 105.961 352.37 106.119 351.927 106.189C351.485 106.259 351.032 106.241 350.597 106.135L347.534 105.387C346.851 105.221 346.133 105.271 345.48 105.532C344.828 105.793 344.273 106.251 343.892 106.842L342.186 109.495C341.944 109.872 341.628 110.197 341.259 110.451C340.889 110.705 340.473 110.883 340.034 110.975C339.595 111.066 339.143 111.069 338.703 110.984C338.262 110.899 337.844 110.726 337.471 110.478L334.848 108.727C334.263 108.337 333.572 108.139 332.869 108.16C332.167 108.182 331.488 108.422 330.929 108.848L328.419 110.757C328.062 111.028 327.655 111.226 327.221 111.338C326.787 111.451 326.335 111.475 325.891 111.411C325.447 111.347 325.021 111.195 324.636 110.964C324.252 110.733 323.917 110.428 323.652 110.067L321.786 107.524C321.37 106.957 320.787 106.535 320.12 106.315C319.452 106.095 318.733 106.088 318.062 106.297L315.051 107.231C314.622 107.364 314.172 107.411 313.726 107.368C313.279 107.325 312.846 107.193 312.451 106.981C312.056 106.769 311.707 106.48 311.425 106.132C311.143 105.783 310.933 105.382 310.807 104.951L309.922 101.924C309.725 101.249 309.322 100.652 308.77 100.217C308.218 99.7818 307.544 99.5297 306.842 99.4958L303.693 99.3438C303.246 99.3222 302.807 99.2116 302.402 99.0185C301.997 98.8254 301.635 98.5536 301.336 98.219C301.038 97.8845 300.809 97.4938 300.663 97.0697C300.516 96.6457 300.456 96.1967 300.485 95.7491L300.689 92.6012C300.734 91.8995 300.56 91.2011 300.19 90.6032C299.82 90.0054 299.273 89.5379 298.625 89.2658L295.717 88.0453C295.304 87.8717 294.929 87.6176 294.615 87.2976C294.301 86.9777 294.053 86.5984 293.887 86.1818C293.721 85.7652 293.639 85.3197 293.647 84.8712C293.654 84.4227 293.751 83.9801 293.931 83.5694L295.199 80.681C295.481 80.0372 295.556 79.3212 295.413 78.6328C295.269 77.9445 294.915 77.3179 294.399 76.8405L292.085 74.6987C291.755 74.3941 291.49 74.0271 291.304 73.6189C291.118 73.2107 291.015 72.7696 291.002 72.3212C290.988 71.8728 291.063 71.4262 291.224 71.0074C291.384 70.5885 291.626 70.2058 291.936 69.8815L294.114 67.6011C294.6 67.0927 294.915 66.4456 295.016 65.7496C295.116 65.0537 294.998 64.3437 294.676 63.7185L293.233 60.9138C293.028 60.5149 292.904 60.0792 292.869 59.632C292.834 59.1848 292.888 58.7351 293.028 58.3091C293.168 57.883 293.392 57.4892 293.686 57.1505C293.98 56.8118 294.338 56.535 294.74 56.3363L297.567 54.9389C298.197 54.6274 298.714 54.127 299.046 53.5075C299.379 52.888 299.51 52.1802 299.422 51.4826L299.024 48.3532C298.968 47.9082 299 47.4564 299.12 47.0242C299.24 46.5919 299.445 46.1878 299.722 45.8355C300 45.4831 300.344 45.1896 300.736 44.9719C301.128 44.7542 301.56 44.6168 302.005 44.5676L305.139 44.2217C305.838 44.1446 306.495 43.8514 307.019 43.383C307.543 42.9147 307.908 42.2944 308.063 41.6086L308.76 38.532C308.859 38.0945 309.044 37.6811 309.304 37.3159C309.565 36.9507 309.895 36.641 310.276 36.4049C310.657 36.1687 311.082 36.0109 311.524 35.9405C311.967 35.8701 312.42 35.8885 312.855 35.9948L315.918 36.7422C316.601 36.9087 317.319 36.8582 317.971 36.5974C318.624 36.3367 319.179 35.8787 319.559 35.2874L321.266 32.6347C321.508 32.2575 321.823 31.9324 322.193 31.6783C322.562 31.4242 322.979 31.2463 323.418 31.1548C323.856 31.0633 324.309 31.0602 324.749 31.1455C325.189 31.2309 325.608 31.4031 325.981 31.652L328.604 33.4025C329.189 33.7927 329.88 33.9907 330.583 33.969C331.285 33.9474 331.963 33.707 332.523 33.2815L335.033 31.3727C335.39 31.1013 335.797 30.9036 336.231 30.7913C336.665 30.679 337.117 30.6542 337.561 30.7184C338.005 30.7827 338.431 30.9347 338.815 31.1655C339.2 31.3963 339.535 31.7014 339.8 32.0629L341.666 34.6054C342.082 35.1721 342.664 35.5949 343.332 35.815C343.999 36.035 344.719 36.0412 345.39 35.8329L348.401 34.8981C348.829 34.7652 349.28 34.7189 349.726 34.7618C350.172 34.8048 350.606 34.9362 351.001 35.1484C351.395 35.3607 351.744 35.6494 352.027 35.9979C352.309 36.3463 352.519 36.7475 352.645 37.178L353.53 40.2058C353.727 40.8808 354.129 41.4774 354.681 41.9125C355.233 42.3477 355.907 42.5998 356.609 42.6337L359.758 42.7857C360.206 42.8074 360.645 42.9179 361.05 43.111C361.454 43.3042 361.817 43.5759 362.115 43.9105C362.414 44.245 362.643 44.6358 362.789 45.0598C362.935 45.4839 362.996 45.9328 362.967 46.3804L362.763 49.5283C362.718 50.23 362.892 50.9285 363.262 51.5263C363.632 52.1241 364.179 52.5916 364.827 52.8637L367.734 54.0842C368.148 54.2578 368.523 54.512 368.837 54.8319C369.151 55.1518 369.398 55.5311 369.565 55.9477C369.731 56.3643 369.813 56.8099 369.805 57.2584C369.797 57.7069 369.701 58.1494 369.521 58.5601L368.253 61.4485C367.97 62.0923 367.896 62.8083 368.039 63.4967C368.182 64.1851 368.537 64.8116 369.053 65.289L371.367 67.4308C371.696 67.7354 371.962 68.1025 372.148 68.5107C372.333 68.9188 372.436 69.3599 372.45 69.8083C372.464 70.2567 372.388 70.7033 372.228 71.1221C372.068 71.541 371.825 71.9237 371.516 72.248L369.337 74.5284C368.852 75.0368 368.537 75.684 368.436 76.3799C368.335 77.0758 368.454 77.7858 368.776 78.411L370.219 81.2158C370.424 81.6146 370.548 82.0503 370.583 82.4975C370.618 82.9447 370.564 83.3944 370.424 83.8204C370.283 84.2465 370.06 84.6403 369.766 84.979C369.472 85.3177 369.114 85.5945 368.712 85.7932L365.885 87.1907C365.255 87.5022 364.738 88.0025 364.405 88.622C364.073 89.2415 363.942 89.9493 364.03 90.6469L364.427 93.7763C364.484 94.2213 364.451 94.6731 364.332 95.1054C364.212 95.5376 364.007 95.9417 363.73 96.294C363.452 96.6464 363.107 96.9399 362.715 97.1576C362.323 97.3753 361.892 97.5128 361.446 97.5619Z" fill="#36D860"/>
<path d="M327.196 86.2419L313.695 72.741L317.962 68.4693L327.062 77.5695L346.411 56.9902L350.807 61.1283L327.196 86.2419Z" fill="white"/>
<defs>
<linearGradient id="paint0_linear_2389_50465" x1="37" y1="103.5" x2="242.5" y2="68" gradientUnits="userSpaceOnUse">
<stop stop-color="#C2BEBC"/>
<stop offset="1" stop-color="#C2BEBC" stop-opacity="0"/>
</linearGradient>
</defs>
</svg>
