<svg xmlns="http://www.w3.org/2000/svg" xmlns:xlink="http://www.w3.org/1999/xlink" width="11.75" height="15.601" viewBox="0 0 11.75 15.601"><defs><style>.a{fill:#ccf2fe;}.b{fill:#b3ecfd;}.c{fill:url(#a);}</style><linearGradient id="a" x1="-0.278" y1="1.663" x2="-0.251" y2="1.724" gradientUnits="objectBoundingBox"><stop offset="0" stop-color="#34cdfa"/><stop offset="1" stop-color="#e8d9f1"/></linearGradient></defs><path class="a" d="M69.33.2a.71.71,0,0,0-.979,0c-.588.653-5.418,6.528-5.418,9.53a5.875,5.875,0,1,0,11.75,0C74.683,6.724,69.852.849,69.33.2Z" transform="translate(-62.933 0)"/><path class="b" d="M73.965,232.6c-.979.261-1.11,1.24-2.35,1.24-1.436,0-1.436-1.306-2.807-1.306s-1.436,1.306-2.807,1.306c-1.24,0-1.371-.979-2.35-1.24a6.737,6.737,0,0,0-.718,2.546A2.222,2.222,0,0,0,63,235.8h.2c1.436,0,1.436,1.306,2.807,1.306s1.436-1.306,2.807-1.306,1.436,1.306,2.807,1.306,1.436-1.306,2.807-1.306h.2c0-.2.065-.457.065-.653A6.736,6.736,0,0,0,73.965,232.6Z" transform="translate(-62.933 -225.418)"/><path class="c" d="M73.684,340.506c-1.436,0-1.436-1.306-2.807-1.306s-1.436,1.306-2.807,1.306-1.436-1.306-2.807-1.306h-.2a5.882,5.882,0,0,0,11.685,0h-.2C75.12,339.2,75.12,340.506,73.684,340.506Z" transform="translate(-65.002 -328.821)"/></svg>